<?xml version="1.0" encoding="utf-8"?>
<!-- Generator: Adobe Illustrator 21.1.0, SVG Export Plug-In . SVG Version: 6.00 Build 0)  -->
<svg version="1.1" id="Ebene_1" xmlns="http://www.w3.org/2000/svg" xmlns:xlink="http://www.w3.org/1999/xlink" x="0px" y="0px"
	 viewBox="0 0 399.5 98.4" enable-background="new 0 0 399.5 98.4" xml:space="preserve">
<g>
	<path id="polyline2177" fill="#C40000" d="M19.5,0c-3.8,0-7.4,3.1-8.1,6.9V7v0.1v0.1l-0.1,0.1v0.1v0.1l-0.1,0.1v0.1l-0.1,0.1V8
		l-0.1,0.1v0.2L11,8.6L11,8.8l-0.1,0.4l-0.1,0.5l-0.1,0.5l-0.1,0.5l-0.1,0.5l-0.1,0.5l-0.1,0.6l-0.1,0.5L9.9,14l-0.1,0.6l-0.1,0.5
		l-0.1,0.5l-0.1,0.5l-0.1,0.5l-0.1,0.5l-0.1,0.5L9,18.3l-0.1,0.5V19l-0.1,0.1v0.2v0.1l-0.1,0.2v0.1v0.1l-0.1,0.1v0.1v0.1
		c-0.1,1.7,0.2,4,0.7,4.4c0.7,3.7,13,20.8,12.6,23.4c-0.3,2.6-1.8,10.3-1.8,10.3c-0.4,2.6-2.2,4.7-4.8,4.7c-2.6,0-4.4-2.1-3.9-4.7
		l2.3-12.7H4.7L1.6,63.2c-0.6,3.6,1.8,6.4,5.4,6.4h13.1c3.6,0,7.1-2.9,7.7-6.4c0,0,3.4-16.5,3.4-17.7c0-1.2-0.3-1.3-0.3-1.3
		c0-1.3-10.9-19.4-12.1-20.1c-0.5-0.3-0.9-2.1-0.9-3.1c0-1.1,1.4-8.3,1.4-8.3c0.4-2.6,2.9-4.7,5.5-4.7c2.6,0,3.7,2.1,3.2,4.7
		l-2,11.4h9.2l3.2-17.2C39.2,3.1,36.8,0,33,0H19.5z M44.7,0l-11,63.2c-0.6,3.6,1.8,6.4,5.4,6.4h13.1c3.6,0,7.1-2.9,7.8-6.4L71.7,0
		h-8.2L52.3,61.4c-0.2,0.9-1,1.6-1.9,1.6h-6.5c-0.9,0-1.5-0.7-1.4-1.6L53.4,0H44.7z M76.2,0L63,69.6h8.8l6-31.5h11.2
		c3.6,0,7.1-2.9,7.7-6.4l4.8-24.7C102.2,3.1,99.7,0,96,0h-11H76.2z M107.5,0L93.8,69.6h19.7l1.4-8.6h-9.7l4-23.5h9.7l1.4-7.3h-9.7
		l4.3-21.6h9.7l1.4-8.6H107.5z M131,0l-13.2,69.6h8.8l6-31.5h6.2c0.8,0.8,0.9,2.2,1,2.9c0.2,1,0.3,2.3,0.2,3.4
		c-0.1,1-4.8,25.3-4.8,25.3h8.8c0,0,4.9-26.4,4.9-26.9c0-0.4,0-1.8-0.5-2.5c-0.3-0.5-0.9-1.6-1.5-2c-1.2-0.8-2.6-1.3-2.6-1.3h-0.6
		c2.5-1,7.2-2.6,7.7-5.3l4.8-24.7c0.7-3.8-1.7-6.9-5.5-6.9H131z M178,0l-13.2,69.6h10.1l8.1-40.3l3.2,40.3h8.8L208.2,0h-10.1
		l-6.9,36.4L186.7,0H178z M212.8,0l-13.2,69.6h8.8L221.5,0H212.8z M226.1,0l-13.2,69.6H223l8.2-40.3l3.2,40.3h8.8L256.4,0h-10.1
		l-6.8,36.4L235,0H226.1z M260.1,0l-1.6,8.6h5.5l-10.8,61h10l11-61h5.3l1.4-8.6H260.1z M284.2,0l-13.7,69.6h19.7l1.4-8.6h-9.7
		l4-23.5h9.7l1.4-7.3h-9.7l4.2-21.6h9.7l1.4-8.6H284.2z M306.5,0l-13.2,69.6h10.1l8.2-40.3l3.2,40.3h8.8L336.8,0h-10.1l-6.8,36.4
		L315.3,0H306.5z M341.3,0l-13.2,69.6h20c3.6,0,7.1-2.9,7.8-6.4l10.6-56.2c0.7-3.8-1.7-6.9-5.5-6.9H341.3z M379,0
		c-3.8,0-7.3,3.1-8,6.9l-9.8,56.2c-0.6,3.6,1.7,6.4,5.3,6.4h14.5c3.6,0,7.1-2.9,7.8-6.4l10.6-56.2c0.7-3.8-1.7-6.9-5.5-6.9H379z
		 M348.8,8h4c2.6,0,4.3,2.1,3.9,4.7l-8.6,45.6c-0.5,2.6-3,4.7-5.5,4.7h-4L348.8,8z M384.1,8h0.3c2.6,0,4.3,2.1,3.8,4.7L380,58.2
		c-0.4,2.6-2.8,4.7-5.4,4.7c-2.6,0-3.7-2.1-3.2-4.7l8.2-45.6l0.1-0.2l0.1-0.2l0.1-0.3l0.1-0.2l0.1-0.3l0.1-0.2l0.1-0.2l0.1-0.2
		l0.1-0.2l0.1-0.2l0.1-0.2l0.1-0.2l0.1-0.1l0.1-0.2l0.1-0.2l0.2-0.1l0.1-0.1l0.1-0.1l0.2-0.1l0.2-0.1l0.1-0.1l0.2-0.1l0.2-0.1
		l0.2-0.1l0.1-0.1l0.3-0.1l0.2-0.1h0.2l0.2-0.1h0.3L384.1,8z M84.6,8.3h4.2c0.9,0,2.9,2.1,2.7,3.1L88,28.6c-0.2,0.9-1.4,2.9-2.3,2.9
		h-5.1h-0.1h-0.1l-0.1-0.1h-0.1h-0.1h-0.1h-0.1v-0.1H80h-0.1l-0.1-0.1h-0.1l-0.1-0.1l-0.1-0.1h-0.1v-0.1L79.5,31L79.5,31v-0.1
		l-0.1-0.1l-0.1-0.1v-0.1v-0.1l-0.1-0.1v-0.1v-0.1l-0.1-0.1v-0.1c0-0.1,0-0.3,0-0.4l4.1-21C83.7,8.5,84.1,8.3,84.6,8.3z M139.2,8.3
		L139.2,8.3h0.1h0.1h0.1h4c0.9,0,2.9,2.1,2.7,3.1l-3.6,17.1c-0.2,0.9-2.4,3-3.3,3h-3.8c-0.8,0-1.3-0.5-1.4-1.2c0-0.1,0-0.3,0-0.4
		l4-21l0.1-0.1l0.1-0.1l0.1-0.1h0.1l0.1-0.1l0.1-0.1h0.1l0.1-0.1h0.1l0.1-0.1h0.1L139.2,8.3L139.2,8.3L139.2,8.3L139.2,8.3
		L139.2,8.3z M0,75.6v22.8h391V75.6H0z M287.4,78L287.4,78h0.1h0.1h0.1h0.1h3c0.8,0,1.4,0.7,1.2,1.5l-0.8,3.8h-1.8l0.4-2.5
		c0.1-0.6-0.2-1-0.8-1c-0.6,0-1.1,0.5-1.2,1l-0.3,1.9c-0.1,0.1,0.1,0.6,0.2,0.7c0.3,0.1,2.7,4.2,2.7,4.5c0.1,0.1,0.1,0.2,0.1,0.3
		c-0.1,0.5-0.8,3.9-0.8,3.9c-0.1,0.8-0.9,1.4-1.7,1.4H285c-0.8,0-1.3-0.7-1.2-1.4l0.7-3.9h2l-0.5,2.8c-0.1,0.6,0.2,1.1,0.8,1.1
		c0.6,0,1.1-0.5,1.2-1.1l0.4-2.3c-0.4-0.9-2.8-4.4-2.9-5.2c-0.1-0.1-0.1-0.6-0.1-1c0-0.4,0.5-2.9,0.5-2.9h0.1v-0.1v-0.1v-0.1
		l0.1-0.1v-0.1l0.1-0.1V79l0.1-0.1v-0.1l0.1-0.1l0.1-0.1v-0.1h0.1l0.1-0.1l0.1-0.1l0.1-0.1v-0.1h0.1l0.1-0.1l0.1-0.1h0.1l0.1-0.1
		h0.1l0.1-0.1h0.1L287.4,78L287.4,78z M303.2,78h2.5l0.3,5.8l3.1-5.8h2.5l-5.1,8.9l-1.2,6.5h-2.2l1.1-7L303.2,78z M325.6,78
		L325.6,78h0.1h0.1h0.1h0.1h3c0.8,0,1.4,0.7,1.2,1.5l-0.8,3.8h-1.9l0.4-2.5c0.1-0.6-0.2-1-0.8-1c-0.6,0-1.1,0.5-1.2,1l-0.3,1.9
		c-0.1,0.1,0.1,0.6,0.2,0.7c0.2,0.1,2.7,4.2,2.7,4.5c0.1,0.1,0.1,0.2,0.1,0.3c-0.1,0.5-0.7,3.9-0.7,3.9c-0.1,0.8-0.9,1.4-1.7,1.4
		h-2.9c-0.8,0-1.3-0.7-1.2-1.4l0.7-3.9h2l-0.5,2.8c-0.1,0.6,0.3,1.1,0.8,1.1c0.6,0,1.1-0.5,1.2-1.1l0.4-2.3
		c-0.4-0.9-2.8-4.4-2.9-5.2c-0.1-0.1-0.1-0.6-0.1-1c0-0.4,0.5-2.9,0.5-2.9l0.1-0.1v-0.1v-0.1l0.1-0.1v-0.1l0.1-0.1V79l0.1-0.1v-0.1
		l0.1-0.1l0.1-0.1v-0.1h0.1l0.1-0.1l0.1-0.1l0.1-0.1l0.1-0.1l0.1-0.1l0.1-0.1h0.1l0.1-0.1h0.1l0.1-0.1h0.1L325.6,78L325.6,78z
		 M341.5,78h4.6l-0.3,1.9h-1.2l-2.4,13.6H340l2.4-13.6h-1.2L341.5,78z M359.5,78h4.1l-0.3,1.9h-2.1l-1,4.9h2.2l-0.3,1.6h-2.1
		l-0.9,5.2h2.1l-0.3,1.9h-4.4L359.5,78z M376.4,78h2.5l0.4,8.9l3.9-8.8l2.5-0.1l-2.6,15.4h-1.9l1.2-8.2l-3.4,8.2h-1.4l-0.4-8.4
		l-1.5,8.4h-2.3L376.4,78z M8.5,78.6h4l-0.3,1.9h-2.2l-0.9,4.8h2.1L11,86.9H8.8L8,92.1h2.1l-0.3,1.9H5.4L8.5,78.6z M27.4,78.6h1.9
		l1,8.1l1.5-8.1h2.3l-2.9,15.5h-1.9l-0.8-9l-1.8,9h-2.3L27.4,78.6z M48,78.6h4.5l-0.3,1.9H51l-2.5,13.6h-2.2l2.4-13.6h-1.2L48,78.6z
		 M67.9,78.6H72l-0.3,1.9h-2.1l-1,4.8h2.1l-0.3,1.6h-2.1l-0.9,5.2h2.1l-0.3,1.9h-4.4L67.9,78.6z M87.2,78.6h4.4
		c0.8,0,1.3,0.7,1.2,1.6l-1,5.5c-0.1,0.6-1.2,1.1-1.7,1.3h0.1h0.1h0.1V87h0.1h0.1h0.1h0.1l0.1,0.1h0.1h0.1h0.1v0.1h0.1H91v0.1H91
		c0.1,0.2,0.1,0.7,0.1,0.8c0,0.1-1.1,6.1-1.1,6.1h-2c0,0,1.1-5.4,1.1-5.6c0-0.2,0-0.5-0.1-0.8c0-0.2,0-0.4-0.2-0.6h-1.4l-1.3,7h-2
		L87.2,78.6z M106.8,78.6h4.6l-0.3,1.9h-1.2l-2.5,13.6h-2.2l2.4-13.6h-1.2L106.8,78.6z M129.6,78.6h2.6l-0.8,15.5h-2.6l0.3-3.6h-1.6
		l-1.3,3.6h-2.3L129.6,78.6z M147.8,78.6h2l-2.9,15.5h-1.9L147.8,78.6z M165.5,78.6h1.9l1,8.1l1.5-8.1h2.2l-2.9,15.5h-2l-0.7-9
		l-1.8,9h-2.3L165.5,78.6z M188.2,78.6h2.5l0.4,9l3.9-8.9h2.5l-2.6,15.4H193l1.2-8.2l-3.4,8.2h-1.4l-0.4-8.4l-1.5,8.4h-2.2
		L188.2,78.6z M213,78.6h4l-0.3,1.9h-2.2l-0.9,4.8h2.1l-0.3,1.6h-2.2l-0.9,5.2h2.2l-0.3,1.9H210L213,78.6z M232.9,78.6h1.9l1,8.1
		l1.5-8.1h2.2l-2.9,15.5h-1.9l-0.8-9l-1.8,9H230L232.9,78.6z M253.2,78.6h4.6l-0.3,1.9h-1.2l-2.4,13.6h-2.2l2.4-13.6h-1.2
		L253.2,78.6z M89.1,80.4c-0.1,0-0.2,0.1-0.3,0.1l-0.9,4.7c0,0,0,0,0,0.1c0,0.1,0.1,0.3,0.3,0.3H89c0.2,0,0.7-0.4,0.8-0.6l0.8-3.8
		c0-0.2-0.3-0.7-0.5-0.7L89.1,80.4L89.1,80.4z M129.6,85.1l-1.4,3.9h1.1L129.6,85.1z"/>
</g>
<g>
	<path d="M289.3,74.7c0.1,0.1,0.2,0.1,0.3,0.1c0.1,0,0.2,0.1,0.4,0.3c0.2,0.2,0.3,0.3,0.3,0.4c0,0.1,0,0.1,0.1,0.2
		c0,0.1,0,0.1,0,0.2c0,0.1,0,0.1,0,0.2l-0.2,0.3c0,0.2,0,0.5-0.1,0.8s-0.1,0.5-0.2,0.5c0,0-0.1,0.1-0.2,0.3
		c-0.1,0.2-0.2,0.4-0.4,0.5c-0.2,0.2-0.3,0.4-0.5,0.5c-0.2,0.2-0.3,0.3-0.3,0.3c-0.1,0.1-0.1,0.1-0.1,0.2c0,0.1-0.1,0.2-0.1,0.3
		c-0.1,0.2-0.1,0.3-0.2,0.4l0.1,12.5l0.5,0c0.1,0,0.2,0,0.4-0.1c0.2-0.1,0.5-0.1,0.7-0.1c0.2,0,0.5-0.1,0.7-0.1
		c0.2-0.1,0.3-0.1,0.3-0.1c0.4-0.1,1-0.2,1.9-0.4c0.9-0.2,1.9-0.4,2.9-0.6c1.1-0.2,2-0.4,2.9-0.5s1.5-0.3,1.9-0.3l0.7-0.4l-0.1-13
		c0-0.1,0.1-0.3,0.4-0.7c0.3-0.4,0.5-0.7,0.6-1l2.1-2.1c0.1,0,0.3-0.1,0.7-0.3c0.4-0.2,0.6-0.3,0.8-0.4l0.3,0l0.2,0
		c0.2,0,0.4,0,0.7,0.2c0.2,0.1,0.3,0.1,0.4,0.2l0.1,15l0.5,2.5l0.1,12.8c0.1,0.5,0.1,1.4,0.2,2.6c0,1.1,0.1,2.2,0.1,3.3l0,1
		c0,1.2,0.1,2.3,0.1,3.3c0.1,1.2,0.1,2,0.2,2.5c0,0.1,0,0.2,0.1,0.5c0.1,0.3,0.1,0.7,0.1,1c0,0.4,0.1,0.7,0.1,1.1s0.1,0.5,0.1,0.6
		l0,2.1c0,0.1-0.1,0.3-0.2,0.6l0,0.1c-0.1,0.3-0.2,0.5-0.2,0.6c-0.1,0.1-0.1,0.4-0.2,0.8c0,0.5-0.1,1-0.1,1.5c0,0.5-0.1,1-0.1,1.4
		c0,0.4-0.1,0.7-0.2,0.7c0,0.2,0,0.5-0.1,0.8c-0.1,0.3-0.2,0.5-0.3,0.6c-0.1,0.1-0.1,0.1-0.2,0.1c-0.1,0.1-0.3,0.1-0.5,0.1l0-4.3
		c0,0.2,0,0.5,0,0.9c0,0.4-0.1,0.9-0.1,1.4c0,0.5-0.1,1-0.1,1.4c0,0.4-0.1,0.7-0.1,0.9c0,0.2-0.1,0.4-0.2,0.7
		c-0.1,0.3-0.2,0.5-0.3,0.5c0,0.1,0,0.1-0.1,0.2l0,0.1h-0.1l-0.2,0c-0.1,0-0.1-0.1-0.1-0.2c0-0.1-0.1-0.4-0.2-1
		c-0.1-0.6-0.2-0.9-0.2-1.1c-0.1-0.2-0.2-0.6-0.3-1.2c-0.1-0.6-0.2-1-0.2-1.2l-0.9,0c-0.1,0-0.2-0.1-0.4-0.2
		c-0.2-0.1-0.3-0.2-0.3-0.3c-0.1,0-0.2-0.2-0.3-0.5c-0.1-0.3-0.1-0.6-0.2-0.7c-0.1-0.2-0.2-0.6-0.3-1.1c-0.1-0.5-0.1-0.9-0.1-1
		c-0.1-0.2-0.1-0.6-0.2-1.2c-0.1-0.6-0.1-1.3-0.1-2c0-0.7-0.1-1.4-0.1-2c-0.1-0.6-0.1-1.1-0.2-1.3c0-0.4,0-1.2-0.1-2.6
		c0-1.2-0.1-2.5-0.1-3.9l0-1.2c0-1.4-0.1-2.7-0.1-3.9c-0.1-1.4-0.1-2.3-0.1-2.6c0-0.2,0-0.4,0-0.8c0-0.4-0.1-0.8-0.1-1.2
		c-0.1-0.4-0.1-0.8-0.1-1.2c0-0.4,0-0.7,0-0.8l-1.1,0l-1,0c-0.3,0-0.7,0.1-1.4,0.2c-0.6,0.1-1,0.2-1.2,0.2c0,0.1-0.1,0.2-0.2,0.3
		c-0.1,0.1-0.2,0.2-0.2,0.3c0,0.3-0.1,0.8-0.1,1.6c0,0.8-0.1,1.6-0.1,2.5c0,0.9-0.1,1.8-0.1,2.5c0,0.8-0.1,1.4-0.1,1.7
		c0,0.1,0,0.4-0.1,0.8c0,0.5-0.1,1-0.1,1.6c0,0.6-0.1,1.2-0.1,1.7c0,0.5-0.1,0.9-0.1,1.2c0,0.2,0,0.4,0,0.8c0,0.4-0.1,0.8-0.1,1.3
		c0,0.5-0.1,0.9-0.1,1.3c0,0.4,0,0.6,0,0.7c-0.1,0.2-0.1,0.4-0.2,0.7c0,0.2-0.1,0.5-0.1,0.8l0,0.2c0,0.3-0.1,0.5-0.1,0.8
		c-0.1,0.3-0.1,0.5-0.1,0.6c0-0.2-0.1-0.6-0.2-1.1l0-0.2c-0.1-0.6-0.2-0.9-0.2-1.1l0-1l0-1.1c0-0.3,0-0.8,0.1-1.7s0.1-1.9,0.1-2.9
		c0-1.1,0.1-2,0.1-2.9s0.1-1.4,0.1-1.7l0-7l-0.6,0c0,0.1,0,0.3,0,0.5c0,0.3,0.1,0.5,0.1,0.8c0,0.3,0.1,0.6,0.1,0.9
		c0,0.3,0,0.5,0,0.6c-0.1,0.2-0.2,0.6-0.3,1.1c-0.1,0.5-0.2,0.8-0.3,1h-0.2l-0.2,0c-0.1-0.1-0.1-0.2-0.3-0.4
		c-0.1-0.2-0.2-0.3-0.2-0.4c0-0.2,0-0.4,0-0.8c0-0.4,0-0.7,0-1.1s0-0.7,0-1.1c0-0.3,0-0.6,0-0.7c-0.1,0-0.4,0-0.9-0.1
		c-0.5-0.1-0.8-0.1-0.9-0.1c-0.2,0-0.4,0.1-0.8,0.2c-0.4,0.1-0.7,0.2-0.8,0.3l0,2.5c0.1,0.2,0.1,0.5,0.2,1.1c0.1,0.6,0.2,1.3,0.3,2
		c0.1,0.8,0.2,1.5,0.3,2.3c0.1,0.7,0.1,1.3,0.2,1.7c0,0.2,0,0.6,0.1,1.1c0.1,0.5,0.2,1.1,0.3,1.7c0.1,0.6,0.2,1.2,0.3,1.8
		c0.1,0.6,0.1,1,0.1,1.2c0,0.1,0,0.4,0.1,0.8c0.1,0.4,0.2,0.9,0.3,1.4c0.1,0.5,0.2,1,0.3,1.4c0.1,0.5,0.2,0.8,0.2,0.9l0,1.7
		c-0.1,0.1-0.1,0.1-0.2,0.2c-0.1,0.1-0.1,0.2-0.2,0.3c-0.1,0.1-0.1,0.1-0.2,0.2c-0.1,0.2-0.2,0.5-0.4,0.8c-0.2,0.3-0.3,0.5-0.4,0.6
		c-0.1,0.1-0.2,0.3-0.4,0.5c-0.2,0.2-0.5,0.5-0.7,0.7c-0.3,0.3-0.5,0.5-0.8,0.7s-0.4,0.4-0.5,0.5l0.1,18.8l-0.4,0.8
		c-0.1-0.2-0.2-0.5-0.4-1c-0.1-0.5-0.2-0.9-0.2-1.1c0-0.2,0-0.4-0.1-0.8c-0.1-0.4-0.1-0.8-0.1-1.3c0-0.4-0.1-0.8-0.1-1.2
		c-0.1-0.4-0.1-0.7-0.1-0.8c0-0.5,0-1.4-0.1-2.7c0-1.1-0.1-2.3-0.1-3.5l0-1c0-1.2-0.1-2.4-0.1-3.5c-0.1-1.3-0.1-2.1-0.2-2.7
		c-0.1-0.1-0.2-0.4-0.4-0.8c-0.2-0.4-0.3-0.8-0.3-1c-0.1-0.1-0.2-0.3-0.4-0.7c-0.1-0.4-0.2-0.7-0.2-0.9c0-0.1,0-0.4-0.1-0.8
		c-0.1-0.4-0.2-0.9-0.3-1.5c-0.1-0.5-0.2-1.1-0.3-1.5s-0.1-0.9-0.2-1.1c0-0.3-0.1-0.8-0.2-1.6c-0.1-0.8-0.2-1.2-0.2-1.4
		c-0.1-0.6-0.2-1.6-0.4-3c-0.2-1.4-0.3-2.9-0.5-4.4c-0.2-1.5-0.4-2.9-0.5-4.2c-0.2-1.3-0.3-2.2-0.4-2.6c0-0.3,0-0.6,0-1.1
		c0-0.5-0.1-0.9-0.1-1.4c-0.1-0.5-0.1-0.9-0.1-1.3c0-0.4,0-0.6,0-0.7l0-4.9l0-4.6c0-0.1,0-0.5,0.1-1.2c0.1-0.7,0.1-1.2,0.1-1.5
		c0.1-0.3,0.2-0.5,0.3-0.9l0.2-0.6c0.1-0.2,0.3-0.6,0.7-1.3c0.3-0.6,0.5-1.1,0.6-1.4c0.1-0.1,0.2-0.2,0.4-0.5
		c0.2-0.3,0.3-0.5,0.4-0.6l0.9-0.9c0.1-0.1,0.3-0.2,0.6-0.4c0.3-0.2,0.5-0.3,0.5-0.4l0.9-0.5c0.2-0.1,0.4-0.2,0.7-0.2
		c0.1,0,0.2,0,0.3-0.1l0,0c0.1-0.1,0.2-0.1,0.3-0.1C289,74.6,289.1,74.6,289.3,74.7L289.3,74.7L289.3,74.7z M358.1,64.2
		c0.1,0,0.2,0.1,0.4,0.2c0.2,0.1,0.3,0.2,0.4,0.3l0.4,0.3c0.1,0.1,0.1,0.2,0.2,0.3c0.1,0.1,0.1,0.3,0.2,0.4c0.1,0.2,0.1,0.4,0.2,0.5
		c0.1,0.2,0.2,0.4,0.4,0.7c0.2,0.3,0.3,0.6,0.4,0.7c0.2,0.2,0.5,0.6,1.1,1.2c0.6,0.6,1.2,1.2,1.9,1.8l3.3,3.2c0.1,0,0.2,0.1,0.5,0.3
		c0.3,0.2,0.6,0.5,0.9,0.8c0.3,0.3,0.7,0.6,1,0.8c0.3,0.3,0.5,0.4,0.6,0.5c0.1,0.1,0.3,0.3,0.6,0.6s0.6,0.6,0.9,0.9
		c0.3,0.3,0.6,0.6,0.8,0.9c0.3,0.3,0.4,0.5,0.5,0.6c0.1,0.1,0.1,0.3,0.3,0.5c0.1,0.2,0.2,0.4,0.2,0.5c-0.1,0.2-0.2,0.3-0.2,0.5
		c-0.1,0.1-0.1,0.2-0.2,0.3s-0.1,0.2-0.1,0.3c0,0.1,0,0.2-0.1,0.3c-0.1,0.1-0.1,0.2-0.2,0.3c-0.1,0.2-0.1,0.3-0.2,0.4
		c-0.1,0.1-0.3,0.2-0.5,0.4c-0.2,0.2-0.4,0.4-0.7,0.6c-0.2,0.2-0.4,0.5-0.6,0.7c-0.2,0.2-0.3,0.3-0.3,0.4c-0.1,0.1-0.4,0.2-0.8,0.4
		c-0.4,0.2-0.7,0.3-0.9,0.4l-0.6,0l-0.7,0c-0.1-0.1-0.3-0.2-0.5-0.4c-0.3-0.2-0.5-0.4-0.9-0.7c-0.3-0.2-0.6-0.4-0.9-0.7
		c-0.3-0.2-0.5-0.3-0.6-0.4c-0.3-0.3-0.8-0.6-1.4-1c-0.6-0.4-1-0.6-1.1-0.7c-0.2-0.1-0.6-0.3-1.2-0.6c-0.7-0.3-1.1-0.5-1.4-0.5
		c-0.2-0.1-0.6-0.3-1.2-0.5c-0.6-0.2-1-0.4-1.2-0.5l-0.7,0l0,4.2l-0.7,0l0-4.6l-0.7,0c0,0.2-0.2,0.6-0.4,1.1c-0.2,0.5-0.3,0.9-0.4,1
		l-0.4,0.4c-0.1-0.1-0.2-0.3-0.3-0.6c-0.1-0.3-0.2-0.5-0.3-0.5c0-0.2-0.1-0.6-0.2-1.1c-0.1-0.5-0.2-0.8-0.2-1
		c-0.2-0.1-0.6-0.2-1.2-0.3c-0.6-0.1-1-0.2-1.2-0.3l-4.6,0c-0.2,0.1-0.3,0.1-0.5,0.2l-0.8,0.4c-0.2,0.1-0.4,0.2-0.9,0.4
		c-0.4,0.2-0.7,0.3-0.8,0.4l-0.4,0.4c-0.1,0.1-0.1,0.3-0.3,0.5c-0.1,0.2-0.2,0.4-0.2,0.5l0,4.2c0.1,0.2,0.2,0.4,0.4,0.6
		c0.1,0.2,0.2,0.3,0.3,0.5c0.1,0.2,0.1,0.3,0.2,0.4c0.1,0.2,0.3,0.5,0.5,0.8c0.2,0.3,0.4,0.5,0.5,0.6c0.1,0.1,0.2,0.3,0.4,0.5
		c0.2,0.2,0.4,0.5,0.7,0.7c0.2,0.3,0.5,0.5,0.7,0.7s0.3,0.4,0.4,0.5c0.1,0.2,0.2,0.4,0.5,0.6c0.3,0.3,0.6,0.5,0.9,0.8
		c0.3,0.3,0.6,0.6,0.9,0.9c0.3,0.3,0.5,0.5,0.6,0.7c0.1,0.1,0.3,0.3,0.5,0.5c0.3,0.2,0.5,0.4,0.9,0.7c0.3,0.3,0.6,0.5,0.9,0.8
		s0.5,0.4,0.7,0.4c0.1,0.1,0.4,0.3,0.8,0.7c0.4,0.3,0.7,0.6,0.8,0.7c0.2,0.1,0.4,0.2,0.6,0.4c0.3,0.2,0.5,0.3,0.8,0.5
		s0.5,0.3,0.8,0.4c0.2,0.1,0.4,0.2,0.4,0.3c0.1,0.1,0.5,0.3,1.2,0.6s1.1,0.5,1.3,0.6c0.1,0.1,0.2,0.1,0.3,0.2
		c0.1,0.1,0.2,0.1,0.3,0.2l0.5,0.2l1.6,0l1.4,0c0.1,0,0.1-0.1,0.2-0.2c0.1-0.1,0.2-0.2,0.3-0.3l0.3-0.7c0.1-0.2,0.2-0.4,0.3-0.8
		c0.1-0.4,0.1-0.7,0.1-0.8c0.1-0.1,0.1-0.3,0.2-0.6c0.1-0.3,0.1-0.6,0.2-0.9c0-0.3,0.1-0.6,0.1-0.9c0-0.3,0-0.5,0-0.6
		c0-0.2,0.1-0.5,0.2-0.8c0.1-0.4,0.2-0.6,0.2-0.7c0.1-0.1,0.1-0.3,0.2-0.5c0.1-0.3,0.2-0.4,0.3-0.4c0.1-0.1,0.2-0.3,0.4-0.5
		c0.2-0.3,0.5-0.5,0.8-0.8c0.3-0.3,0.5-0.5,0.7-0.7c0.2-0.2,0.4-0.4,0.5-0.5c0.1-0.1,0.2-0.1,0.4-0.2c0.3-0.1,0.5-0.2,0.5-0.2
		c0.1-0.1,0.2-0.1,0.3-0.2c0.1-0.1,0.2-0.1,0.3-0.2c0.2-0.1,0.3-0.2,0.5-0.2c0.1,0.1,0.3,0.3,0.5,0.5c0.3,0.2,0.4,0.4,0.4,0.5l0,2.9
		c0,0.1,0,0.5-0.2,1.1c-0.1,0.6-0.1,1.1-0.1,1.5c-0.1,0.1-0.2,0.4-0.3,0.8c-0.1,0.4-0.2,0.7-0.3,0.8c0,0.2-0.1,0.5-0.3,1
		c-0.2,0.5-0.4,0.9-0.4,1.1c0,0.2-0.1,0.5-0.4,0.9c-0.3,0.5-0.4,0.7-0.5,0.8c0,0.1-0.1,0.3-0.3,0.7c-0.2,0.3-0.3,0.6-0.4,0.7
		c-0.2,0.2-0.5,0.5-0.8,0.9c-0.3,0.4-0.5,0.7-0.6,0.8l-0.7,0.7c-0.1,0.1-0.4,0.3-0.8,0.7c-0.4,0.3-0.8,0.6-1,0.7
		c-0.1,0.1-0.2,0.1-0.3,0.2c-0.1,0.1-0.2,0.1-0.3,0.2l-0.5,0.3c-0.1,0.1-0.2,0.1-0.4,0.2c-0.2,0.1-0.4,0.2-0.7,0.3
		c-0.2,0.1-0.5,0.2-0.7,0.3c-0.2,0.1-0.3,0.1-0.4,0.1c-0.1,0.1-0.3,0.2-0.5,0.3c-0.3,0.1-0.4,0.2-0.4,0.3l-0.3,0.7
		c-0.1,0.1-0.2,0.2-0.3,0.3c-0.1,0.1-0.1,0.2-0.2,0.2c0-0.1,0-0.2-0.1-0.5c-0.1-0.3-0.2-0.5-0.3-0.6c0-0.2-0.1-0.2-0.2-0.2h-0.1
		c-0.1,0-0.2,0.1-0.3,0.2c0,0.4,0,1-0.1,1.9c0,0.9-0.1,1.9-0.1,3c0,1.1-0.1,2.1-0.1,3c0,0.9-0.1,1.6-0.1,1.9c0,0.2,0,0.6-0.1,1.4
		c-0.1,0.7-0.1,1.3-0.1,1.7c-0.1,0.3-0.2,0.6-0.3,1.2c-0.1,0.5-0.2,0.8-0.2,0.9c0,0.1-0.1,0.2-0.2,0.4c-0.1,0.2-0.2,0.3-0.2,0.4
		l-0.1-16.3c-0.2,0-0.6-0.1-1.2-0.3c-0.7-0.2-1.1-0.4-1.4-0.5l-2.5-1.2c-0.1-0.1-0.3-0.2-0.7-0.4c-0.4-0.2-0.7-0.5-1.1-0.7l-2-1.3
		c-0.1-0.1-0.3-0.2-0.5-0.3c-0.2-0.2-0.4-0.4-0.7-0.5c-0.2-0.2-0.4-0.3-0.6-0.5c-0.2-0.2-0.3-0.3-0.3-0.3l-6.3-6.2l-0.5-0.6
		c-0.1-0.2-0.2-0.3-0.3-0.5c-0.1-0.2-0.2-0.3-0.3-0.4c-0.1-0.2-0.3-0.4-0.5-0.7c-0.2-0.3-0.4-0.6-0.5-0.7l-0.4-0.7
		c0-0.1-0.1-0.3-0.2-0.7c-0.1-0.4-0.2-0.6-0.3-0.7c0-0.1-0.1-0.4-0.2-0.9c-0.1-0.2-0.1-0.4-0.2-0.7l0-1.5l0-1.4c0-0.2,0-0.5,0.2-0.9
		c0.1-0.4,0.2-0.7,0.1-0.9c0.1-0.2,0.3-0.5,0.5-1c0.2-0.4,0.4-0.9,0.6-1.3c0.2-0.4,0.4-0.8,0.6-1.2c0.2-0.4,0.3-0.6,0.3-0.7
		c0.1-0.1,0.3-0.3,0.7-0.7c0.4-0.4,0.8-0.8,1.2-1.2c0.4-0.4,0.9-0.9,1.3-1.3s0.7-0.8,1-1c0.1-0.1,0.3-0.3,0.7-0.5
		c0.3-0.2,0.6-0.4,0.7-0.5c0.2-0.1,0.6-0.2,1.2-0.5c0.6-0.3,1-0.5,1.2-0.6c0.3-0.1,0.7-0.3,1.3-0.5c0.6-0.2,1-0.4,1.2-0.5
		c0.2,0,0.4,0,0.8,0c0.4,0,0.9-0.1,1.3-0.1c0.5-0.1,1-0.1,1.4-0.1c0.4,0,0.7,0,0.9,0c-0.1-0.2-0.1-0.6-0.1-1.1c0-0.5,0-0.8,0.1-1
		c0-0.2,0.1-0.5,0.4-0.9c0.3-0.4,0.4-0.7,0.5-0.9c0.1-0.2,0.4-0.5,1-1c0.6-0.5,0.9-0.9,1.1-1.1l1.5-0.8l0.5,0L358.1,64.2L358.1,64.2
		L358.1,64.2z M327.9,64.5l0,3.9c0,0,0,0.1,0,0.4c0,0.3-0.1,0.6-0.1,0.9c0,0.3-0.1,0.7-0.1,1c0,0.3,0,0.5,0,0.5l0,1.6
		c0,0.1,0,0.5,0,1.3c0,0.7,0.1,1.6,0.1,2.5c0,0.9,0.1,1.7,0.1,2.5s0.1,1.2,0.1,1.3c0,0.2,0.1,0.5,0.2,1.1c0.1,0.6,0.2,0.9,0.2,1
		c0.1,0.3,0.3,0.7,0.5,1.5c0.2,0.7,0.4,1.2,0.5,1.5c0.1,0.3,0.2,0.7,0.4,1.3c0.2,0.6,0.4,1.2,0.7,1.9c0.2,0.7,0.5,1.3,0.7,1.9
		c0.2,0.6,0.3,1,0.4,1.2c0.1,0.2,0.2,0.5,0.4,1c0.2,0.5,0.3,0.9,0.4,1.1c0.1,0.3,0.3,0.6,0.5,1c0.3,0.4,0.4,0.6,0.4,0.7
		c0.1,0,0.4,0.1,0.8,0.3c0.4,0.2,0.7,0.3,0.8,0.3c0.1,0.1,0.2,0.2,0.3,0.3c0.1,0.1,0.2,0.1,0.2,0.2c-0.1,0.3-0.2,0.9-0.1,1.7
		c0,0.8,0.1,1.4,0.2,1.7c0,0,0.1,0.2,0.2,0.5c0.2,0.3,0.3,0.7,0.5,1.2c0.2,0.5,0.4,0.9,0.7,1.4c0.3,0.5,0.5,0.8,0.6,1.1
		c0.1,0.1,0.2,0.6,0.5,1.4c0.3,0.8,0.6,1.8,0.9,2.8c0.3,1,0.7,1.9,0.9,2.8c0.3,0.9,0.5,1.3,0.5,1.4c0.1,0.4,0.3,0.7,0.5,0.9
		c0.1,0.2,0.2,0.4,0.4,0.6l0,1.7c-0.1,0.1-0.2,0.4-0.4,0.8c-0.2,0.4-0.3,0.8-0.4,1l-2.1,2.1c-0.1,0-0.3,0.1-0.5,0.2
		c-0.2,0.1-0.4,0.2-0.5,0.2l-1,0l-1.1,0c-0.1,0-0.3-0.2-0.8-0.5c-0.5-0.3-0.8-0.6-0.9-0.7c0-0.1-0.1-0.3-0.2-0.6
		c-0.1-0.3-0.2-0.5-0.2-0.6l0-1.4l-0.3-0.6c-0.1-0.2-0.2-0.3-0.2-0.5c-0.1-0.2-0.1-0.3-0.2-0.4c-0.4-0.6-0.8-1.5-1.3-2.9
		c-0.5-1.4-1.1-2.8-1.6-4.2c-0.6-1.7-1.3-3.5-2-5.4l-3.4,0c0,0.2,0,0.4-0.2,0.9s-0.2,0.7-0.2,0.8c-0.1,0-0.2,0.1-0.3,0.2
		c-0.1,0.1-0.1,0.2-0.2,0.2c0,0.2,0,0.6-0.1,1.1c0,0.5-0.1,1.1-0.1,1.7c0,0.6-0.1,1.2-0.1,1.8c0,0.6-0.1,1-0.1,1.2
		c-0.1,0.2-0.2,0.6-0.3,1.2c-0.1,0.6-0.2,1-0.3,1.2c0,0.2-0.1,0.4-0.2,0.9c-0.2,0.4-0.2,0.7-0.2,0.9l0-11.4c-0.2,0-0.4-0.1-0.7-0.2
		c-0.3-0.1-0.6-0.2-0.9-0.3c-0.3-0.1-0.6-0.2-0.8-0.2c-0.3-0.1-0.4-0.1-0.5,0c-0.1,0.2-0.2,0.4-0.4,0.6c-0.3,0.5-0.4,0.8-0.5,1.1
		c-0.1,0.2-0.2,0.6-0.4,1.1c-0.2,0.5-0.3,0.9-0.4,1c0,0.1,0,0.2,0,0.4c0,0.2-0.1,0.4-0.1,0.7c0,0.2-0.1,0.5-0.1,0.7
		c0,0.2,0,0.3,0,0.4c0,0.1-0.1,0.2-0.2,0.4c-0.1,0.2-0.2,0.3-0.2,0.4c-0.2,0.1-0.4,0.3-0.6,0.5c-0.3,0.2-0.5,0.5-0.8,0.8
		c-0.3,0.3-0.5,0.5-0.8,0.8c-0.3,0.2-0.4,0.3-0.5,0.3l-1.5,0.9l-0.3,0l-0.2,0c-0.1,0-0.2-0.1-0.4-0.2c-0.2-0.1-0.3-0.2-0.4-0.3
		c-0.1-0.1-0.1-0.1-0.2-0.2c-0.1-0.2-0.2-0.4-0.2-0.5l0-0.5l0-0.4c0-0.2,0-0.5,0.1-0.9c0.1-0.5,0.2-0.7,0.2-0.8
		c0.1-0.2,0.3-0.6,0.5-1.1c0.2-0.5,0.4-1.1,0.6-1.7c0.2-0.6,0.4-1.1,0.6-1.7c0.2-0.5,0.3-0.8,0.4-1l0-0.8c-0.2,0-0.5,0-1-0.1
		c-0.5-0.1-0.9-0.2-1.1-0.3c0-0.1-0.1-0.3-0.2-0.5c-0.1-0.2-0.2-0.4-0.2-0.5v-0.1l0-0.4c0-0.1,0.1-0.3,0.2-0.7
		c0-0.2,0.1-0.4,0.2-0.5l2.9-2.9c0.1,0,0.2,0,0.4-0.1c0.2-0.1,0.4-0.1,0.7-0.2c0.2-0.1,0.5-0.2,0.7-0.2c0.2-0.1,0.3-0.1,0.4-0.2
		c0-0.1,0.1-0.4,0.4-0.9c0.3-0.5,0.4-0.9,0.5-1.2c0-0.3,0.2-0.8,0.4-1.5c0.2-0.7,0.5-1.5,0.8-2.3c0.3-0.8,0.5-1.6,0.7-2.3
		s0.4-1.2,0.5-1.5c0.1-0.1,0.1-0.2,0.2-0.5c0.1-0.2,0.1-0.5,0.2-0.7l0.1-0.3c0.1-0.2,0.1-0.4,0.2-0.7c0.1-0.3,0.1-0.5,0.2-0.6
		c0.1-0.2,0.1-0.5,0.2-0.9c0.1-0.4,0.2-0.8,0.3-1.1c0.1-0.4,0.2-0.7,0.3-1c0.1-0.3,0.1-0.4,0.1-0.5c0-0.1,0-0.5,0-1.4s0-1.9,0.1-2.9
		c0-1.1,0-2,0-2.9c0-0.9,0-1.4,0-1.5c0.1-0.1,0.2-0.4,0.3-0.8c0.1-0.4,0.2-0.7,0.3-0.8c0-0.1,0.1-0.3,0.4-0.8
		c0.3-0.5,0.4-0.8,0.5-0.9c0-0.1,0.1-0.3,0.3-0.6c0.2-0.3,0.4-0.5,0.5-0.5c0-0.1,0-0.2,0.1-0.3c0.1-0.1,0.1-0.2,0.2-0.3
		c0.2-0.2,0.5-0.4,1-0.6c0.4-0.3,0.7-0.4,0.8-0.5c0.1-0.1,0.3-0.1,0.5-0.2c0.3-0.1,0.6-0.2,0.8-0.2l0.4,0l0.5,0L327.9,64.5
		L327.9,64.5z M414.7,89.6l-0.6,0l0,5.9l-0.7,0l-0.8-5.5c-0.3,0-0.8,0-1.5-0.1c-0.7-0.1-1.2-0.2-1.5-0.3c-0.1,0-0.3,0-0.6-0.1
		c-0.3-0.1-0.5-0.1-0.5-0.2c-0.2-0.1-0.5-0.3-1-0.5c-0.4-0.2-0.7-0.4-0.8-0.5l-0.5-0.5c-0.2-0.2-0.3-0.3-0.4-0.4
		c-0.1-0.1-0.2-0.2-0.3-0.2c0-0.1-0.1-0.3-0.3-0.7c-0.2-0.3-0.4-0.6-0.5-0.7c-0.1-0.2-0.2-0.4-0.4-0.9s-0.3-0.7-0.3-0.8
		c-0.1-0.1-0.2-0.4-0.4-0.8s-0.2-0.7-0.2-0.8l0-2.6l0-2.1c0-0.2,0.1-0.6,0.4-1.1c0.3-0.5,0.4-0.9,0.5-1c-0.2,0-0.4,0-0.8-0.1
		c-0.4,0-0.8-0.1-1.2-0.1c-0.4,0-0.8-0.1-1.2-0.1c-0.4-0.1-0.7-0.1-0.8-0.1c-0.1,0-0.3-0.1-0.5-0.2c-0.2-0.1-0.4-0.2-0.5-0.3
		c-0.1,0-0.2-0.1-0.4-0.3s-0.3-0.3-0.4-0.3c0-0.1-0.1-0.2-0.2-0.5c-0.1-0.2-0.1-0.3-0.2-0.4l0-1l0-1.1c0-0.1,0-0.3,0.2-0.8
		c0.1-0.5,0.2-0.8,0.2-0.9c0.1-0.2,0.2-0.6,0.4-1c0.2-0.5,0.4-1,0.5-1.5l0.8-2.4c0.1-0.3,0.3-0.8,0.8-1.5c0.5-0.7,0.8-1.4,0.9-1.8
		c0.1-0.2,0.3-0.6,0.5-1.2c0.3-0.6,0.5-1.3,0.8-2c0.3-0.7,0.6-1.4,0.8-2c0.3-0.6,0.4-1.1,0.5-1.4c0.3-0.6,0.6-1.2,1-1.8
		c0.4-0.6,0.9-1.2,1.3-1.8c0.5-0.6,0.9-1.2,1.3-1.9c0.4-0.7,0.7-1.4,0.9-2.2c0.1-0.1,0.2-0.2,0.3-0.5c0.2-0.3,0.3-0.5,0.5-0.8
		c0.2-0.3,0.4-0.6,0.5-0.9s0.3-0.5,0.4-0.7c0-0.1,0.1-0.2,0.3-0.6c0.2-0.3,0.3-0.6,0.4-0.8c0.2-0.2,0.4-0.4,0.7-0.8
		c0.3-0.4,0.6-0.6,0.7-0.7c0.1-0.2,0.4-0.5,0.8-1c0.4-0.4,0.7-0.7,0.8-0.8c0.1,0,0.2-0.1,0.5-0.4c0.3-0.3,0.5-0.4,0.6-0.5
		c0.1,0,0.2-0.1,0.5-0.2c0.1-0.1,0.2-0.1,0.4-0.2l1.5,0l1.4,0l0.9,0.9c0.1,0.1,0.2,0.2,0.4,0.5c0.2,0.3,0.3,0.5,0.4,0.6
		c0,0.1,0.1,0.4,0.3,0.9s0.3,0.9,0.4,1.2c0.1,0.2,0.3,0.6,0.5,1.2s0.4,1,0.4,1.2c0,0.1,0,0.3,0.1,0.6c0.1,0.3,0.2,0.6,0.3,0.9
		c0.1,0.3,0.2,0.6,0.3,0.9c0.1,0.3,0.1,0.5,0.1,0.7c0,0.1,0.1,0.4,0.2,0.8c0.1,0.4,0.2,0.8,0.2,1c0.1,0.3,0.2,0.7,0.3,1.3
		c0.2,0.5,0.3,1.1,0.5,1.7c0.2,0.6,0.3,1.1,0.4,1.5c0.1,0.5,0.2,0.7,0.2,0.8c0,0.3,0.1,0.6,0.4,1c0.2,0.4,0.4,0.8,0.4,1.1
		c0.1,0.4,0.2,0.9,0.4,1.5c0.1,0.6,0.2,1,0.2,1.1l0,2.8c0,0.1-0.1,0.2-0.2,0.4c-0.1,0.2-0.2,0.3-0.3,0.4c-0.1,0.2-0.3,0.5-0.6,0.9
		c-0.3,0.5-0.5,0.7-0.5,0.8c-0.1,0.1-0.4,0.3-0.8,0.7c-0.4,0.3-0.7,0.6-0.8,0.7c-0.1,0-0.3,0.1-0.7,0.2c-0.3,0.1-0.6,0.2-0.7,0.2
		h-0.2l-0.2,0c-0.1,0-0.2-0.1-0.4-0.2c-0.2-0.1-0.3-0.2-0.4-0.2c-0.1-0.1-0.2-0.2-0.2-0.4c-0.1-0.3-0.2-0.5-0.2-0.5
		c-0.1-0.1-0.2-0.3-0.3-0.6c-0.1-0.3-0.2-0.5-0.3-0.5c0-0.2-0.1-0.5-0.2-1c-0.1-0.4-0.2-0.7-0.2-0.8c0-0.2,0-0.4,0-0.8
		c0-0.4-0.1-0.8-0.1-1.3c-0.1-0.5-0.1-0.9-0.1-1.3c0-0.4,0-0.7,0-0.8c-0.1-0.3-0.2-0.6-0.2-0.8c-0.1-0.3-0.1-0.5-0.2-0.7
		c-0.1-0.2-0.1-0.4-0.1-0.5c-0.1-0.5-0.3-1.1-0.7-1.8c-0.3-0.7-0.6-1.2-0.7-1.5c-0.1-0.2-0.2-0.7-0.4-1.4c-0.2-0.7-0.3-1.2-0.4-1.5
		c-0.1-0.3-0.2-0.6-0.4-1c-0.1-0.4-0.3-0.8-0.4-1.2c-0.2-0.5-0.4-1-0.5-1.5l-0.5,0c0,0.2,0,0.5,0,0.9c0,0.5,0,1,0,1.5
		c0,0.5,0,1,0,1.5c0,0.5,0,0.8,0,0.9c0,0.2-0.1,0.6-0.2,1.2s-0.2,1-0.3,1.1c0-0.1-0.1-0.3-0.2-0.7c-0.1-0.4-0.2-0.6-0.2-0.7
		c-0.1-0.2-0.1-0.4-0.2-0.7s-0.1-0.7-0.1-1.1c0-0.4-0.1-0.8-0.1-1.1c-0.1-0.4-0.1-0.6-0.2-0.8l-0.7,1.6l0,7.6l-0.5,0.7l-0.6-0.7
		l0-6.3c-0.1,0.1-0.2,0.3-0.4,0.5c-0.2,0.3-0.4,0.5-0.6,0.8c-0.2,0.3-0.4,0.6-0.5,0.8c-0.2,0.3-0.3,0.5-0.3,0.6
		c-0.1,0.1-0.2,0.4-0.5,1c-0.3,0.5-0.5,1.2-0.8,1.9s-0.6,1.4-1,2.2c-0.3,0.7-0.6,1.3-0.7,1.7c-0.1,0.2-0.2,0.4-0.4,0.7
		c-0.2,0.2-0.3,0.5-0.4,0.7c-0.1,0.3-0.2,0.7-0.4,1.2c-0.2,0.5-0.4,1-0.5,1.5s-0.3,1-0.5,1.4c-0.2,0.4-0.3,0.7-0.3,0.7
		c0,0.1,0.1,0.4,0.2,0.8c0.1,0.4,0.2,0.7,0.2,0.8c0.2,0,0.5,0,1,0c0.5,0,1,0,1.5,0c0.5,0,1.1,0,1.5,0s0.9,0,1.1-0.1
		c0.1,0,0.2,0,0.5,0c0.3,0,0.6-0.1,0.9-0.1c0.3-0.1,0.7-0.1,1-0.1c0.3,0,0.5,0,0.6,0c0.2-0.1,0.5-0.1,0.8-0.2
		c0.4-0.1,0.7-0.1,1.1-0.2c0.4-0.1,0.7-0.1,0.9-0.2c0.3-0.1,0.4-0.1,0.5-0.1l3.6,0l3,0c0.2,0.1,0.6,0.3,1.2,0.5s1.1,0.4,1.4,0.5
		c0.1,0.1,0.4,0.4,0.8,0.8c0.4,0.4,0.7,0.8,0.8,1c0.1,0.2,0.2,0.4,0.4,0.8c0.2,0.4,0.3,0.7,0.4,0.8l0,4.6c0,0.1-0.1,0.2-0.2,0.5
		c-0.1,0.3-0.2,0.5-0.2,0.6c-0.1,0.1-0.1,0.3-0.2,0.5c-0.1,0.2-0.2,0.5-0.4,0.7c-0.2,0.3-0.3,0.5-0.5,0.8c-0.2,0.3-0.3,0.5-0.3,0.6
		s-0.1,0.3-0.2,0.5c-0.1,0.1-0.2,0.2-0.3,0.3c-0.1,0.1-0.1,0.2-0.2,0.3c-0.2,0.2-0.5,0.5-0.8,0.9c-0.3,0.4-0.5,0.6-0.6,0.7
		c0,0.1-0.1,0.2-0.3,0.4c-0.2,0.2-0.3,0.3-0.4,0.4c-0.1,0.1-0.3,0.3-0.5,0.5c-0.3,0.2-0.5,0.4-0.8,0.7s-0.5,0.4-0.8,0.6
		c-0.2,0.2-0.4,0.3-0.4,0.3c-0.1,0.1-0.3,0.3-0.7,0.5c-0.3,0.2-0.6,0.4-0.7,0.5c-0.1,0-0.3,0.1-0.5,0.3c-0.3,0.2-0.6,0.4-0.9,0.5
		c-0.3,0.2-0.6,0.4-0.9,0.5c-0.3,0.2-0.4,0.3-0.5,0.3c-0.1,0-0.2,0.1-0.3,0.2c-0.1,0.1-0.1,0.1-0.1,0.2l0,1.2c0,0.2,0,0.5,0.1,1.1
		c0.1,0.6,0.1,1.2,0.1,1.9c0,0.7,0.1,1.3,0.1,1.9c0.1,0.6,0.1,0.9,0.1,1l0,5.5c0,0.1,0,0.3-0.1,0.6c-0.1,0.3-0.1,0.6-0.1,0.9
		c0,0.3-0.1,0.6-0.1,0.9c0,0.3-0.1,0.5-0.1,0.5c-0.1-0.2-0.2-0.5-0.3-1c-0.1-0.5-0.2-0.9-0.3-1.1c-0.1-0.4-0.1-1.1-0.2-2.2
		c-0.1-1.1-0.2-2.2-0.2-3.4s-0.2-2.3-0.2-3.4c-0.1-1.1-0.1-1.8-0.1-2.2L414.7,89.6L414.7,89.6z M381.6,87.8c0.1,0.4,0.1,0.7,0.2,1.1
		c0.1,0.4,0.1,0.7,0.1,0.8c0.1,0.1,0.2,0.4,0.3,0.9c0.1,0.5,0.2,0.8,0.2,0.9l0,0.8c0,0.1,0,0.3-0.2,0.7c-0.1,0.3-0.2,0.6-0.3,0.7
		c0,0.1-0.1,0.2-0.3,0.5c-0.2,0.3-0.3,0.5-0.4,0.6l-0.9,0.9c-0.1,0.1-0.2,0.2-0.5,0.4s-0.5,0.3-0.6,0.4c-0.1,0.1-0.2,0.2-0.3,0.2
		c-0.1,0-0.2,0.1-0.3,0.1c-0.2,0.1-0.3,0.1-0.3,0.1c-0.2,0.1-0.3,0.1-0.4,0.2c-0.1,0.1-0.1,0.1-0.2,0.1h-0.2c-0.2,0-0.4,0-0.5-0.1
		c-0.2-0.1-0.3-0.1-0.4-0.2c-0.1,0-0.2,0-0.2-0.1c-0.1-0.1-0.2-0.2-0.2-0.3c0-0.1-0.1-0.3-0.2-0.7s-0.2-0.7-0.3-1
		c-0.1-0.3-0.1-0.8-0.3-1.4s-0.2-1.3-0.4-1.9c-0.1-0.7-0.2-1.3-0.4-1.9c-0.1-0.6-0.2-0.9-0.3-1.1c0-0.1,0-0.2-0.1-0.4
		c-0.1-0.2-0.1-0.5-0.1-0.8c0-0.3-0.1-0.6-0.1-0.9c-0.1-0.3-0.1-0.6-0.1-0.8c0-0.2,0-0.4-0.1-0.8c-0.1-0.4-0.1-0.7-0.2-1.1
		s-0.1-0.7-0.2-1c-0.1-0.3-0.1-0.5-0.1-0.5c0-0.3,0-0.8,0-1.4c0-0.6-0.1-1.3-0.1-2c-0.1-0.7-0.1-1.3-0.1-1.9c0-0.5,0-0.9,0-1l0-9.4
		l0-9.3c0-0.1,0-0.3,0.2-0.6s0.2-0.5,0.2-0.5c0.1-0.1,0.2-0.3,0.3-0.5c0.1-0.2,0.1-0.3,0.2-0.4c0.1-0.1,0.3-0.3,0.5-0.5
		c0.2-0.2,0.4-0.4,0.6-0.7c0.2-0.2,0.4-0.4,0.6-0.6c0.2-0.2,0.3-0.3,0.4-0.3c0.1-0.1,0.4-0.2,0.8-0.4s0.7-0.3,0.8-0.4l0.7,0l0.7,0
		c0.1,0.1,0.1,0.2,0.2,0.2l0.2,0.2c0.1,0.1,0.1,0.4,0.2,0.8c0.1,0.4,0.1,0.7,0.1,0.8l0.1,20.5c0.2-0.1,0.4-0.3,0.8-0.5
		c0.4-0.2,0.8-0.4,1.3-0.6c0.4-0.2,0.8-0.4,1.2-0.6c0.4-0.2,0.7-0.3,0.8-0.4c0.1-0.1,0.3-0.3,0.7-0.5c0.3-0.2,0.6-0.4,0.7-0.5
		c0.2-0.2,0.5-0.4,0.8-0.7c0.4-0.3,0.7-0.6,1-0.9c0.3-0.3,0.6-0.5,0.9-0.7c0.3-0.2,0.4-0.3,0.4-0.3c0.2-0.2,0.6-0.6,1.1-1.1
		c0.5-0.5,1.1-1.1,1.7-1.7c0.6-0.6,1.1-1.2,1.7-1.7c0.5-0.5,0.8-0.9,1-1.2c0.1,0,0.1-0.1,0.2-0.3c0.1-0.2,0.2-0.3,0.3-0.3
		c0-0.1,0.1-0.3,0.2-0.7c0.1-0.4,0.2-0.6,0.2-0.7c0.1-0.1,0.1-0.1,0.1-0.2c0-0.1,0-0.2,0.1-0.2c0.1-0.1,0.1-0.2,0.2-0.3
		c0.2-0.3,0.4-0.6,0.7-1s0.6-0.6,0.7-0.7c0.1-0.1,0.4-0.4,0.9-0.8c0.5-0.4,0.9-0.8,1.2-1l0.3-0.2c0.2-0.1,0.3-0.2,0.4-0.2
		c0.2-0.1,0.4-0.2,0.7-0.3c0.3-0.1,0.6-0.1,0.7-0.1l0.3-0.1c0.1,0,0.1,0,0.2,0c0.1,0,0.1,0,0.2,0l0.1,0c0.4,0,0.5,0.1,0.5,0.4l0,2.1
		c0,0.1-0.1,0.2-0.2,0.4s-0.2,0.4-0.3,0.7c-0.1,0.3-0.3,0.5-0.4,0.8c-0.2,0.3-0.3,0.4-0.3,0.5c-0.1,0.2-0.4,0.6-0.8,1.3
		c-0.4,0.6-0.8,1.1-1,1.4c0,0.2-0.3,0.5-0.8,1c-0.5,0.5-0.8,0.9-0.9,1.1c-0.2,0.2-0.5,0.6-0.9,1.1c-0.5,0.5-1,1.1-1.5,1.6
		c-0.5,0.6-1,1.1-1.5,1.6s-0.8,0.9-0.9,1c0.1,0.1,0.3,0.3,0.6,0.5c0.3,0.2,0.5,0.4,0.6,0.5c0.1,0.1,0.3,0.2,0.5,0.4
		c0.2,0.2,0.4,0.4,0.7,0.6c0.2,0.2,0.4,0.4,0.6,0.7c0.2,0.2,0.3,0.3,0.3,0.4c0.1,0.1,0.3,0.4,0.7,1.2c0.4,0.7,0.6,1.3,0.9,1.7
		c0.1,0.2,0.3,0.6,0.6,1.2c0.4,0.7,0.7,1.4,1.1,2.1c0.4,0.7,0.8,1.4,1.1,2.1c0.3,0.7,0.6,1.1,0.7,1.2c0,0.1,0.1,0.3,0.3,0.7
		c0.2,0.3,0.4,0.7,0.7,1.2c0.3,0.4,0.5,0.9,0.8,1.3c0.3,0.4,0.5,0.8,0.7,1c0.1,0.1,0.3,0.3,0.5,0.6c0.2,0.3,0.4,0.5,0.5,0.6
		c0.1,0.2,0.3,0.5,0.6,0.9c0.3,0.4,0.5,0.7,0.5,0.9c0.2,0.3,0.5,0.7,1,1.2c0.4,0.6,0.7,0.8,0.8,0.8c0.2,0.2,0.5,0.6,1,1.1l3.3,3.2
		c0.5,0.5,0.9,0.8,1.2,1c0,0.1,0.1,0.2,0.2,0.4l0,0.1c0.1,0.2,0.2,0.3,0.2,0.4l0,0.5c-0.1,0.2-0.2,0.4-0.4,0.9
		c-0.2,0.4-0.3,0.7-0.3,0.8c-0.1,0.1-0.3,0.3-0.5,0.5c-0.2,0.3-0.5,0.5-0.8,0.8c-0.3,0.3-0.6,0.5-0.8,0.7c-0.3,0.2-0.5,0.4-0.6,0.5
		l-0.5,0.2c-0.3,0.1-0.5,0.2-0.7,0.2l-0.9,0c-0.2-0.1-0.3-0.1-0.4-0.2c-0.1,0-0.1,0-0.1,0c0,0-0.1,0-0.1,0c-0.1,0-0.1,0-0.2-0.1
		c-0.1-0.2-0.4-0.5-0.8-0.8c-0.4-0.3-0.7-0.5-0.8-0.6c-0.2-0.1-0.6-0.3-1.1-0.9c-0.5-0.5-0.9-0.9-1-1.2c-0.1-0.1-0.3-0.3-0.5-0.5
		c-0.3-0.3-0.5-0.5-0.8-0.8c-0.3-0.3-0.5-0.6-0.8-0.8c-0.3-0.3-0.4-0.4-0.5-0.5c-0.1-0.1-0.2-0.3-0.4-0.6c-0.2-0.3-0.5-0.6-0.7-1
		s-0.5-0.7-0.8-1.1c-0.3-0.4-0.4-0.6-0.5-0.8c-0.1-0.1-0.3-0.3-0.5-0.6c-0.2-0.3-0.4-0.5-0.5-0.5c-0.2-0.3-0.4-0.7-0.9-1.4
		c-0.4-0.7-0.8-1.4-1.2-2.2c-0.4-0.8-0.8-1.5-1.2-2.2c-0.4-0.7-0.7-1.1-0.9-1.4l-0.7-0.4l0,2.1l-0.5,0c-0.1-0.2-0.1-0.4-0.2-0.6
		c-0.1-0.2-0.1-0.4-0.2-0.6s-0.1-0.3-0.2-0.5c0-0.1,0-0.3-0.1-0.7c-0.1-0.4-0.1-0.7-0.1-1.1c0-0.4-0.1-0.8-0.1-1.1s-0.1-0.6-0.1-0.7
		c0-0.1-0.1-0.3-0.2-0.6c-0.1-0.3-0.2-0.6-0.2-0.8l-0.5-0.7c-0.1-0.1-0.3-0.3-0.5-0.5c-0.2-0.3-0.4-0.4-0.5-0.4l0,0.9
		c0.1,0.2,0.1,0.7,0.2,1.6c0.1,0.8,0.1,1.8,0.2,2.7c0.1,1,0.1,1.9,0.1,2.8s0,1.4,0,1.6l0,11.6l-0.5,2.1l-0.4-0.4c0,0,0-0.1-0.1-0.4
		c-0.1-0.3-0.1-0.6-0.1-0.9c0-0.4-0.1-0.7-0.1-1.1c0-0.4,0-0.6,0-0.8c-0.1-0.3-0.1-0.8-0.2-1.7c-0.1-0.9-0.1-2-0.2-3.2
		c-0.1-1.2-0.1-2.5-0.2-3.9c-0.1-1.4-0.2-2.6-0.2-3.9c-0.1-1.2-0.1-2.3-0.1-3.2c0-0.9,0-1.5,0-1.8c-0.1-0.1-0.1-0.3-0.2-0.7
		c-0.1-0.3-0.1-0.7-0.1-1c0-0.3-0.1-0.7-0.1-1c-0.1-0.3-0.1-0.5-0.2-0.6c-0.1,0-0.3,0-0.6-0.1c-0.3-0.1-0.5-0.1-0.5-0.1
		c-0.1,0-0.4,0.1-0.8,0.2c-0.2,0.1-0.4,0.1-0.5,0.1c-0.1,0-0.4,0.1-1,0.3c-0.6,0.2-1.1,0.3-1.5,0.4c-0.1,0.1-0.4,0.2-0.8,0.4
		c-0.4,0.2-0.7,0.3-0.8,0.4c0,0.2,0,0.4,0.1,0.7c0.1,0.3,0.1,0.6,0.1,0.9c0,0.3,0.1,0.6,0.1,0.9s0.1,0.5,0.1,0.6
		c0.1,0.3,0.2,0.7,0.3,1.3s0.2,1,0.3,1.1c0,0.2,0,0.4,0.1,0.8c0.1,0.3,0.1,0.6,0.2,0.9L381.6,87.8L381.6,87.8z M322.7,92.1
		c-0.1,0.3-0.3,0.7-0.5,1.4c-0.3,0.6-0.4,1-0.4,1.2c0,0.1,0,0.3,0,0.5s0,0.4,0,0.5l0.5,0c0.2-0.1,0.5-0.2,1.1-0.3
		c0.6-0.1,0.9-0.2,1-0.3l0-0.2l0-0.2c0-0.2-0.1-0.6-0.4-1.2c-0.2-0.6-0.4-1.1-0.4-1.3c-0.1,0-0.2-0.1-0.3-0.3
		c-0.1-0.2-0.1-0.3-0.2-0.3C323.1,91.4,322.7,92.1,322.7,92.1z M409.9,77.1c0,0.1,0,0.3,0,0.5c0,0.2,0,0.5,0.1,0.7
		c0.1,0.3,0.1,0.5,0.2,0.8c0,0.2,0.1,0.5,0.3,0.9c0.2,0.4,0.4,0.7,0.6,0.9c0,0.1,0.2,0.3,0.7,0.8c0.4,0.5,0.8,0.8,1,0.9
		c0.1,0,0.2,0.1,0.4,0.2c0.2,0.1,0.3,0.2,0.4,0.2l2.3,0l1.9,0c0.1,0,0.2-0.1,0.4-0.2c0.2-0.1,0.5-0.2,0.7-0.3
		c0.3-0.1,0.5-0.3,0.8-0.4c0.3-0.2,0.4-0.3,0.5-0.4c0.1-0.1,0.3-0.2,0.5-0.4s0.4-0.3,0.5-0.4c0.1-0.2,0.2-0.5,0.4-0.9
		c0.2-0.4,0.3-0.7,0.3-0.9l0-1l0-1.1c0-0.1-0.1-0.4-0.4-0.8c-0.2-0.4-0.4-0.7-0.4-0.8c-0.1-0.1-0.3-0.2-0.7-0.4
		c-0.3-0.2-0.6-0.3-0.7-0.3c-0.1-0.1-0.4-0.2-0.9-0.3s-1-0.1-1.2-0.1l-1,0l-1.1,0c-0.3,0-0.6,0-1.1,0s-0.9,0.1-1.4,0.1
		c-0.5,0-0.9,0.1-1.3,0.1c-0.4,0.1-0.6,0.1-0.7,0.2c-0.1,0-0.3,0.1-0.5,0.2c-0.2,0.1-0.3,0.1-0.4,0.2c0,0.2,0,0.6-0.1,1.1
		S409.9,77,409.9,77.1L409.9,77.1z"/>
	<path fill="#FF0000" stroke="#FFFFFF" stroke-linejoin="round" stroke-miterlimit="1.4142" d="M287.7,73.1c0.1,0.1,0.2,0.1,0.3,0.1
		c0.1,0,0.2,0.1,0.4,0.3c0.2,0.2,0.3,0.3,0.3,0.4c0,0.1,0,0.1,0.1,0.2c0,0.1,0,0.1,0,0.2c0,0.1,0,0.1,0,0.2l-0.2,0.3
		c0,0.2,0,0.5-0.1,0.8c-0.1,0.3-0.1,0.5-0.2,0.5c0,0-0.1,0.1-0.2,0.3c-0.1,0.2-0.2,0.4-0.4,0.5c-0.2,0.2-0.3,0.4-0.5,0.5
		s-0.3,0.3-0.3,0.3c-0.1,0.1-0.1,0.1-0.1,0.2c0,0.1-0.1,0.2-0.1,0.3c-0.1,0.2-0.1,0.3-0.2,0.4l0.1,12.5l0.5,0c0.1,0,0.2,0,0.4-0.1
		c0.2-0.1,0.5-0.1,0.7-0.1c0.2,0,0.5-0.1,0.7-0.1c0.2-0.1,0.3-0.1,0.3-0.1c0.4-0.1,1-0.2,1.9-0.4c0.9-0.2,1.9-0.4,2.9-0.6
		c1.1-0.2,2-0.4,2.9-0.5c0.9-0.2,1.5-0.3,1.9-0.3l0.7-0.4l-0.1-13c0-0.1,0.1-0.3,0.4-0.7c0.3-0.4,0.5-0.7,0.6-1l2.1-2.1
		c0.1,0,0.3-0.1,0.7-0.3c0.4-0.2,0.6-0.3,0.8-0.4l0.3,0l0.2,0c0.2,0,0.4,0,0.7,0.2c0.2,0.1,0.3,0.1,0.4,0.2l0.1,15l0.5,2.5l0.1,12.8
		c0.1,0.5,0.1,1.4,0.2,2.6c0,1.1,0.1,2.2,0.1,3.3l0,1c0,1.2,0.1,2.3,0.1,3.3c0.1,1.2,0.1,2,0.2,2.5c0,0.1,0,0.2,0.1,0.5
		c0.1,0.3,0.1,0.7,0.1,1c0,0.4,0.1,0.7,0.1,1.1s0.1,0.5,0.1,0.6l0,2.1c0,0.1-0.1,0.3-0.2,0.6l0,0.1c-0.1,0.3-0.2,0.5-0.2,0.6
		c-0.1,0.1-0.1,0.4-0.2,0.8c0,0.5-0.1,1-0.1,1.5c0,0.5-0.1,1-0.1,1.4c0,0.4-0.1,0.7-0.2,0.7c0,0.2,0,0.5-0.1,0.8
		c-0.1,0.3-0.2,0.5-0.3,0.6c-0.1,0.1-0.1,0.1-0.2,0.1c-0.1,0.1-0.3,0.1-0.5,0.1l0-4.3c0,0.2,0,0.4,0,0.9c0,0.4-0.1,0.9-0.1,1.4
		c0,0.5-0.1,1-0.1,1.4c0,0.4-0.1,0.7-0.2,0.9c0,0.2-0.1,0.4-0.2,0.7c-0.1,0.3-0.2,0.5-0.3,0.5c0,0.1,0,0.1-0.1,0.2l0,0.1h-0.1
		l-0.2,0c-0.1,0-0.1-0.1-0.1-0.2c0-0.1-0.1-0.4-0.2-1c-0.1-0.6-0.2-0.9-0.2-1.1c-0.1-0.2-0.2-0.6-0.3-1.2c-0.1-0.6-0.2-1-0.2-1.2
		l-0.9,0c-0.1,0-0.2-0.1-0.4-0.2c-0.2-0.1-0.3-0.2-0.3-0.3c-0.1,0-0.2-0.2-0.3-0.5c-0.1-0.3-0.1-0.6-0.2-0.7
		c-0.1-0.2-0.2-0.6-0.3-1.1c-0.1-0.5-0.1-0.9-0.1-1c-0.1-0.2-0.1-0.6-0.2-1.2c-0.1-0.6-0.1-1.3-0.1-2c0-0.7-0.1-1.4-0.1-2
		c-0.1-0.6-0.1-1.1-0.2-1.4c0-0.4,0-1.2-0.1-2.6c-0.1-1.2-0.1-2.5-0.1-3.9l0-1.2c0-1.4-0.1-2.7-0.1-3.9c-0.1-1.4-0.1-2.3-0.1-2.6
		c0-0.2,0-0.4,0-0.8c0-0.4-0.1-0.8-0.1-1.2c-0.1-0.4-0.1-0.8-0.1-1.2c0-0.4,0-0.7,0-0.8l-1.1,0l-1,0c-0.3,0-0.7,0.1-1.4,0.2
		c-0.6,0.1-1,0.2-1.2,0.2c0,0.1-0.1,0.2-0.2,0.3c-0.1,0.1-0.2,0.2-0.2,0.3c0,0.3-0.1,0.8-0.1,1.6c0,0.8-0.1,1.6-0.1,2.5
		c0,0.9-0.1,1.8-0.1,2.5c0,0.8-0.1,1.4-0.1,1.7c0,0.1,0,0.4-0.1,0.8c0,0.5-0.1,1-0.1,1.6c0,0.6-0.1,1.2-0.1,1.7s-0.1,0.9-0.1,1.2
		c0,0.2,0,0.4,0,0.8c0,0.4-0.1,0.9-0.1,1.3c0,0.5-0.1,0.9-0.1,1.3s0,0.6,0,0.7c0,0.2-0.1,0.4-0.2,0.7c0,0.2-0.1,0.5-0.1,0.8l0,0.2
		c0,0.3-0.1,0.5-0.1,0.8c-0.1,0.3-0.1,0.5-0.1,0.6c0-0.2-0.1-0.6-0.2-1.1l0-0.2c-0.1-0.6-0.2-0.9-0.2-1.1l0-1l0-1.1
		c0-0.3,0-0.8,0.1-1.7c0-0.9,0.1-1.9,0.1-2.9c0-1.1,0.1-2,0.1-2.9s0.1-1.4,0.1-1.7l0-7l-0.6,0c0,0.1,0,0.3,0,0.5
		c0,0.3,0.1,0.5,0.1,0.8c0,0.3,0.1,0.6,0.1,0.9c0,0.3,0,0.5,0,0.6c-0.1,0.2-0.2,0.6-0.3,1.1c-0.1,0.5-0.2,0.9-0.3,1h-0.2l-0.2,0
		c-0.1-0.1-0.1-0.2-0.3-0.4c-0.1-0.2-0.2-0.3-0.2-0.4c0-0.2,0-0.4,0-0.8c0-0.4,0-0.7,0-1.1s0-0.7,0-1.1c0-0.3,0-0.6,0-0.7
		c-0.1,0-0.4,0-0.9-0.1c-0.5,0-0.8-0.1-0.9-0.1c-0.2,0-0.4,0.1-0.8,0.2c-0.4,0.1-0.7,0.2-0.8,0.3l0,2.5c0.1,0.2,0.1,0.5,0.2,1.1
		c0.1,0.6,0.2,1.3,0.3,2c0.1,0.8,0.2,1.5,0.3,2.3c0.1,0.7,0.1,1.3,0.2,1.7c0,0.2,0,0.6,0.1,1.1c0.1,0.5,0.2,1.1,0.3,1.7
		c0.1,0.6,0.2,1.2,0.3,1.8c0.1,0.6,0.1,1,0.1,1.2c0,0.1,0,0.4,0.1,0.8c0.1,0.4,0.2,0.9,0.3,1.4c0.1,0.5,0.2,1,0.3,1.4
		c0.1,0.5,0.2,0.8,0.2,0.9l0,1.7c-0.1,0.1-0.1,0.1-0.2,0.2c-0.1,0.1-0.1,0.2-0.2,0.3c-0.1,0.1-0.1,0.1-0.2,0.2
		c-0.1,0.2-0.2,0.5-0.4,0.8c-0.2,0.3-0.3,0.5-0.4,0.6c-0.1,0.1-0.2,0.3-0.4,0.5c-0.2,0.2-0.5,0.5-0.7,0.7c-0.3,0.3-0.5,0.5-0.8,0.7
		s-0.4,0.4-0.5,0.5l0.1,18.8l-0.4,0.8c-0.1-0.2-0.2-0.5-0.4-1c-0.1-0.5-0.2-0.9-0.2-1.1c0-0.2,0-0.4-0.1-0.8
		c-0.1-0.4-0.1-0.8-0.1-1.3c0-0.4-0.1-0.8-0.1-1.2c-0.1-0.4-0.1-0.7-0.1-0.8c0-0.5,0-1.4-0.1-2.7c0-1.1-0.1-2.3-0.1-3.5l0-1
		c0-1.2-0.1-2.4-0.1-3.5c-0.1-1.3-0.1-2.1-0.2-2.7c-0.1-0.1-0.2-0.4-0.4-0.8c-0.2-0.4-0.3-0.8-0.3-1c-0.1-0.1-0.2-0.3-0.4-0.7
		c-0.1-0.4-0.2-0.7-0.2-0.9c0-0.1,0-0.4-0.1-0.8c-0.1-0.4-0.2-0.9-0.3-1.5c-0.1-0.5-0.2-1.1-0.3-1.5s-0.1-0.9-0.2-1.1
		c0-0.3-0.1-0.8-0.2-1.6c-0.1-0.8-0.2-1.2-0.2-1.4c-0.1-0.6-0.2-1.6-0.4-3c-0.2-1.4-0.3-2.9-0.5-4.4c-0.2-1.5-0.4-2.9-0.5-4.2
		c-0.2-1.3-0.3-2.2-0.4-2.6c0-0.3,0-0.6,0-1.1c0-0.5-0.1-0.9-0.1-1.4c-0.1-0.5-0.1-0.9-0.1-1.3c0-0.4,0-0.6,0-0.7l0-4.9l0-4.6
		c0-0.1,0-0.5,0.1-1.2c0.1-0.7,0.1-1.2,0.1-1.5c0.1-0.3,0.2-0.5,0.3-0.9l0.2-0.6c0.1-0.2,0.3-0.6,0.7-1.3c0.3-0.6,0.5-1.1,0.6-1.4
		c0.1-0.1,0.2-0.2,0.4-0.5c0.2-0.3,0.3-0.5,0.4-0.6l0.9-0.9c0.1-0.1,0.3-0.2,0.6-0.4c0.3-0.2,0.5-0.3,0.5-0.4l0.9-0.5
		c0.2-0.1,0.4-0.2,0.7-0.2c0.1,0,0.2,0,0.3-0.1l0,0c0.1-0.1,0.2-0.1,0.3-0.1C287.4,73,287.5,73,287.7,73.1L287.7,73.1L287.7,73.1z
		 M356.4,62.5c0.1,0.1,0.2,0.1,0.4,0.2c0.2,0.1,0.3,0.2,0.4,0.3l0.4,0.3c0.1,0.1,0.1,0.2,0.2,0.3c0.1,0.1,0.1,0.3,0.2,0.4
		c0.1,0.2,0.1,0.4,0.2,0.5c0.1,0.2,0.2,0.4,0.4,0.7c0.2,0.3,0.3,0.6,0.4,0.7c0.2,0.2,0.5,0.6,1.1,1.2c0.6,0.6,1.2,1.2,1.9,1.8
		l3.3,3.2c0.1,0,0.2,0.1,0.5,0.3c0.3,0.2,0.6,0.5,0.9,0.8c0.3,0.3,0.7,0.6,1,0.8s0.5,0.4,0.6,0.5c0.1,0.1,0.3,0.3,0.6,0.6
		c0.3,0.3,0.6,0.6,0.9,0.9c0.3,0.3,0.6,0.6,0.8,0.9c0.3,0.3,0.4,0.5,0.5,0.6c0.1,0.1,0.1,0.3,0.3,0.5c0.1,0.2,0.2,0.4,0.2,0.5
		c-0.1,0.2-0.2,0.3-0.2,0.5c-0.1,0.1-0.1,0.2-0.2,0.3c0,0.1-0.1,0.2-0.1,0.3c0,0.1,0,0.2-0.1,0.3c-0.1,0.1-0.1,0.2-0.2,0.3
		c0,0.2-0.1,0.3-0.2,0.4c-0.1,0.1-0.3,0.2-0.5,0.4c-0.2,0.2-0.4,0.4-0.7,0.6c-0.2,0.2-0.4,0.5-0.6,0.7c-0.2,0.2-0.3,0.3-0.3,0.4
		c-0.1,0.1-0.4,0.2-0.8,0.4s-0.7,0.3-0.9,0.4l-0.6,0l-0.7,0c-0.1-0.1-0.3-0.2-0.5-0.4c-0.3-0.2-0.5-0.4-0.9-0.7
		c-0.3-0.2-0.6-0.4-0.9-0.7c-0.3-0.2-0.5-0.3-0.6-0.4c-0.3-0.3-0.8-0.6-1.4-1c-0.6-0.4-1-0.6-1.1-0.7c-0.2-0.1-0.6-0.3-1.2-0.6
		c-0.7-0.3-1.1-0.5-1.4-0.5c-0.2-0.1-0.6-0.3-1.2-0.5c-0.6-0.2-1-0.4-1.2-0.5l-0.7,0l0,4.2l-0.7,0l0-4.6l-0.7,0
		c0,0.2-0.2,0.6-0.4,1.1c-0.2,0.5-0.3,0.8-0.4,1l-0.4,0.4c-0.1-0.1-0.2-0.3-0.3-0.6c-0.1-0.3-0.2-0.5-0.3-0.5c0-0.2-0.1-0.6-0.2-1.1
		c-0.1-0.5-0.2-0.8-0.2-1c-0.2-0.1-0.6-0.2-1.2-0.3c-0.6-0.1-1-0.2-1.2-0.3l-4.6,0c-0.2,0.1-0.3,0.1-0.5,0.2l-0.8,0.4
		c-0.2,0.1-0.4,0.2-0.9,0.4c-0.4,0.2-0.7,0.3-0.8,0.4l-0.4,0.4c-0.1,0.1-0.1,0.3-0.3,0.5c-0.1,0.2-0.2,0.4-0.2,0.5l0,4.2
		c0.1,0.2,0.2,0.4,0.4,0.6c0.1,0.2,0.2,0.3,0.3,0.5c0.1,0.2,0.1,0.3,0.2,0.4c0.1,0.2,0.3,0.5,0.5,0.8c0.2,0.3,0.4,0.5,0.5,0.6
		c0.1,0.1,0.2,0.3,0.4,0.5s0.4,0.5,0.7,0.7c0.2,0.3,0.5,0.5,0.7,0.7s0.3,0.4,0.4,0.5c0.1,0.2,0.2,0.4,0.5,0.6
		c0.3,0.3,0.6,0.5,0.9,0.8c0.3,0.3,0.6,0.6,0.9,0.9s0.5,0.5,0.6,0.7c0.1,0.1,0.3,0.3,0.5,0.5c0.3,0.2,0.5,0.4,0.9,0.7
		s0.6,0.5,0.9,0.8s0.5,0.4,0.7,0.4c0.1,0.1,0.4,0.3,0.8,0.7c0.4,0.3,0.7,0.6,0.8,0.7c0.2,0.1,0.4,0.2,0.6,0.4
		c0.3,0.2,0.5,0.3,0.8,0.5s0.5,0.3,0.8,0.4c0.2,0.1,0.4,0.2,0.4,0.3c0.1,0.1,0.5,0.3,1.2,0.6s1.1,0.5,1.3,0.6
		c0.1,0.1,0.2,0.1,0.3,0.2c0.1,0.1,0.2,0.1,0.3,0.2l0.5,0.2l1.6,0l1.4,0c0.1,0,0.1-0.1,0.2-0.2c0.1-0.1,0.2-0.2,0.3-0.3l0.3-0.7
		c0.1-0.2,0.2-0.4,0.3-0.8c0.1-0.4,0.1-0.7,0.1-0.8c0.1-0.1,0.1-0.3,0.2-0.6c0.1-0.3,0.1-0.6,0.2-0.9c0-0.3,0.1-0.6,0.1-0.9
		c0-0.3,0-0.5,0-0.6c0-0.2,0.1-0.5,0.2-0.9c0.1-0.4,0.2-0.6,0.2-0.7c0.1-0.1,0.1-0.3,0.2-0.5c0.1-0.3,0.2-0.4,0.3-0.4
		c0.1-0.1,0.2-0.3,0.4-0.5c0.2-0.3,0.5-0.5,0.8-0.8c0.3-0.3,0.5-0.5,0.7-0.7c0.2-0.2,0.4-0.4,0.5-0.5c0.1-0.1,0.2-0.1,0.4-0.2
		c0.3-0.1,0.5-0.2,0.5-0.2c0.1-0.1,0.2-0.1,0.3-0.2c0.1-0.1,0.2-0.1,0.3-0.2c0.2-0.1,0.3-0.2,0.5-0.2c0.1,0.1,0.3,0.3,0.5,0.5
		c0.3,0.2,0.4,0.4,0.4,0.5l0,2.9c0,0.1,0,0.5-0.2,1.1c-0.1,0.6-0.1,1.1-0.1,1.5c-0.1,0.1-0.2,0.4-0.3,0.8c-0.1,0.4-0.2,0.7-0.3,0.8
		c0,0.2-0.1,0.5-0.3,1c-0.2,0.5-0.4,0.9-0.4,1.1c0,0.2-0.1,0.5-0.4,0.9c-0.3,0.5-0.4,0.7-0.5,0.8c0,0.1-0.1,0.3-0.3,0.7
		c-0.2,0.3-0.3,0.6-0.4,0.7c-0.2,0.2-0.5,0.5-0.8,0.9c-0.3,0.4-0.5,0.7-0.6,0.8l-0.7,0.7c-0.1,0.1-0.4,0.3-0.8,0.7s-0.8,0.6-1,0.7
		c-0.1,0.1-0.2,0.1-0.3,0.2c-0.1,0.1-0.2,0.1-0.3,0.2l-0.5,0.3c-0.1,0.1-0.2,0.1-0.4,0.2c-0.2,0.1-0.4,0.2-0.7,0.3
		c-0.2,0.1-0.5,0.2-0.7,0.3c-0.2,0.1-0.3,0.1-0.4,0.1c-0.1,0.1-0.3,0.2-0.5,0.3c-0.3,0.1-0.4,0.2-0.4,0.3l-0.3,0.7
		c-0.1,0.1-0.2,0.2-0.3,0.3c-0.1,0.1-0.1,0.2-0.2,0.2c0-0.1,0-0.2-0.1-0.5c-0.1-0.3-0.2-0.5-0.3-0.6c0-0.2-0.1-0.2-0.2-0.2H356
		c-0.1,0-0.2,0.1-0.3,0.2c0,0.4,0,1-0.1,1.9c0,0.9-0.1,1.9-0.1,3c0,1.1-0.1,2.1-0.1,3c0,0.9-0.1,1.6-0.1,1.9c0,0.2,0,0.6-0.1,1.4
		c-0.1,0.7-0.1,1.3-0.1,1.7c-0.1,0.3-0.2,0.6-0.3,1.2c-0.1,0.5-0.2,0.8-0.2,0.9c0,0.1-0.1,0.2-0.2,0.4c-0.1,0.2-0.2,0.3-0.2,0.4
		l-0.1-16.3c-0.2,0-0.6-0.1-1.2-0.3c-0.7-0.2-1.1-0.4-1.4-0.5l-2.5-1.2c-0.1-0.1-0.3-0.2-0.7-0.4c-0.4-0.2-0.7-0.5-1.1-0.7l-2-1.3
		c-0.1-0.1-0.3-0.2-0.5-0.3c-0.2-0.2-0.4-0.4-0.7-0.5c-0.2-0.2-0.4-0.3-0.6-0.5c-0.2-0.2-0.3-0.3-0.3-0.3l-6.3-6.2l-0.5-0.6
		c-0.1-0.2-0.2-0.3-0.3-0.5c-0.1-0.2-0.2-0.3-0.4-0.4c-0.1-0.2-0.3-0.4-0.5-0.7c-0.2-0.3-0.4-0.6-0.5-0.7l-0.4-0.7
		c0-0.1-0.1-0.3-0.2-0.7c-0.1-0.4-0.2-0.6-0.3-0.7c0-0.1-0.1-0.4-0.2-0.9c-0.1-0.2-0.1-0.4-0.2-0.7l0-1.5l0-1.4c0-0.2,0-0.5,0.2-0.9
		c0.1-0.4,0.2-0.7,0.1-0.9c0.1-0.2,0.3-0.5,0.5-1c0.2-0.4,0.4-0.9,0.7-1.3c0.2-0.4,0.4-0.8,0.6-1.2c0.2-0.4,0.3-0.6,0.3-0.7
		c0.1-0.1,0.3-0.3,0.7-0.7c0.4-0.4,0.8-0.8,1.2-1.2c0.4-0.4,0.9-0.9,1.3-1.3c0.4-0.4,0.7-0.8,1-1c0.1-0.1,0.3-0.3,0.7-0.5
		c0.3-0.2,0.6-0.4,0.7-0.5c0.2-0.1,0.6-0.2,1.2-0.5c0.6-0.3,1-0.5,1.2-0.6c0.3-0.1,0.7-0.3,1.3-0.5c0.6-0.2,1-0.4,1.2-0.5
		c0.2,0,0.4,0,0.8,0c0.4,0,0.9-0.1,1.4-0.1c0.5-0.1,1-0.1,1.4-0.1c0.4,0,0.7,0,0.9,0c-0.1-0.2-0.1-0.6-0.1-1.1c0-0.5,0-0.8,0.1-1
		c0-0.2,0.1-0.5,0.4-0.9c0.3-0.4,0.4-0.7,0.5-0.9c0.1-0.2,0.4-0.5,1-1c0.6-0.5,0.9-0.9,1.1-1.1l1.5-0.8l0.5,0L356.4,62.5L356.4,62.5
		L356.4,62.5z M326.3,62.8l0,3.9c0,0,0,0.1,0,0.4c0,0.3-0.1,0.6-0.1,0.9c0,0.3-0.1,0.7-0.1,1c0,0.3,0,0.5,0,0.5l0,1.6
		c0,0.1,0,0.5,0,1.3c0,0.7,0.1,1.6,0.1,2.5c0,0.9,0.1,1.7,0.1,2.5s0.1,1.2,0.1,1.3c0,0.2,0.1,0.5,0.2,1.1c0.1,0.6,0.2,0.9,0.2,1
		c0.1,0.3,0.3,0.7,0.5,1.5c0.2,0.7,0.4,1.2,0.5,1.5c0.1,0.3,0.2,0.7,0.4,1.3c0.2,0.6,0.4,1.2,0.7,1.9c0.2,0.7,0.5,1.3,0.7,1.9
		c0.2,0.6,0.3,1,0.4,1.2c0.1,0.2,0.2,0.5,0.4,1c0.2,0.5,0.3,0.9,0.4,1.1c0.1,0.3,0.3,0.6,0.5,1c0.3,0.4,0.4,0.6,0.4,0.7
		c0.1,0,0.4,0.1,0.8,0.3c0.4,0.2,0.7,0.3,0.8,0.3c0.1,0.1,0.2,0.2,0.3,0.3c0.1,0.1,0.2,0.1,0.2,0.2c-0.1,0.3-0.2,0.9-0.1,1.7
		c0,0.8,0.1,1.4,0.2,1.7c0,0,0.1,0.2,0.2,0.5c0.2,0.3,0.3,0.7,0.5,1.2c0.2,0.5,0.4,0.9,0.7,1.4c0.3,0.5,0.5,0.8,0.6,1.1
		c0.1,0.1,0.2,0.6,0.5,1.4c0.3,0.8,0.6,1.8,0.9,2.8c0.3,1,0.7,1.9,0.9,2.8c0.3,0.9,0.5,1.3,0.5,1.4c0.1,0.4,0.3,0.7,0.5,0.9
		c0.1,0.2,0.2,0.4,0.4,0.6l0,1.7c-0.1,0.1-0.2,0.4-0.4,0.8c-0.2,0.4-0.3,0.8-0.4,1l-2.1,2.1c-0.1,0-0.3,0.1-0.5,0.2
		c-0.2,0.1-0.4,0.2-0.5,0.2l-1,0l-1.1,0c-0.1,0-0.3-0.2-0.8-0.5c-0.5-0.3-0.8-0.6-0.9-0.7c0-0.1-0.1-0.3-0.2-0.6s-0.2-0.5-0.2-0.6
		l0-1.4l-0.3-0.6c-0.1-0.2-0.2-0.3-0.2-0.5c-0.1-0.2-0.1-0.3-0.2-0.4c-0.4-0.6-0.8-1.5-1.3-2.9c-0.5-1.4-1.1-2.8-1.6-4.2
		c-0.6-1.7-1.3-3.5-2-5.4l-3.4,0c0,0.2,0,0.4-0.2,0.9s-0.2,0.7-0.2,0.8c-0.1,0-0.2,0.1-0.3,0.2c-0.1,0.1-0.1,0.2-0.2,0.2
		c0,0.2,0,0.6-0.1,1.1c0,0.5-0.1,1.1-0.1,1.7s-0.1,1.2-0.1,1.8c0,0.6-0.1,1-0.1,1.2c-0.1,0.2-0.2,0.6-0.3,1.2
		c-0.1,0.6-0.2,1-0.3,1.2c0,0.2-0.1,0.4-0.2,0.9c-0.2,0.4-0.2,0.7-0.2,0.8l0-11.4c-0.2,0-0.4-0.1-0.7-0.2c-0.3-0.1-0.6-0.2-0.9-0.3
		c-0.3-0.1-0.6-0.2-0.8-0.2c-0.3-0.1-0.4-0.1-0.5,0c-0.1,0.2-0.2,0.4-0.4,0.6c-0.3,0.5-0.4,0.8-0.5,1.1c-0.1,0.2-0.2,0.6-0.4,1.1
		s-0.3,0.9-0.4,1c0,0.1,0,0.2,0,0.4c0,0.2-0.1,0.4-0.1,0.7c0,0.2-0.1,0.5-0.1,0.7c0,0.2,0,0.3,0,0.4c0,0.1-0.1,0.2-0.2,0.4
		c-0.1,0.2-0.2,0.3-0.2,0.4c-0.2,0.1-0.4,0.3-0.6,0.5c-0.3,0.2-0.5,0.5-0.8,0.8c-0.3,0.3-0.5,0.5-0.8,0.8c-0.3,0.2-0.4,0.3-0.5,0.3
		l-1.5,0.9l-0.3,0l-0.2,0c-0.1,0-0.2-0.1-0.4-0.2c-0.2-0.1-0.3-0.2-0.4-0.3c-0.1-0.1-0.1-0.1-0.2-0.2c-0.1-0.2-0.2-0.4-0.2-0.5
		l0-0.5l0-0.4c0-0.2,0-0.5,0.1-0.9c0.1-0.5,0.2-0.7,0.2-0.8c0.1-0.2,0.3-0.6,0.5-1.1s0.4-1.1,0.6-1.7c0.2-0.6,0.4-1.1,0.6-1.7
		c0.2-0.5,0.3-0.8,0.4-1l0-0.8c-0.2,0-0.5,0-1-0.1c-0.5-0.1-0.9-0.2-1.1-0.3c0-0.1-0.1-0.3-0.2-0.5c-0.1-0.2-0.2-0.4-0.2-0.5v-0.1
		l0-0.4c0-0.1,0-0.3,0.2-0.7c0-0.2,0.1-0.4,0.2-0.5l2.9-2.9c0.1,0,0.2,0,0.4-0.1c0.2-0.1,0.4-0.1,0.7-0.2c0.2-0.1,0.5-0.2,0.7-0.2
		c0.2-0.1,0.3-0.1,0.4-0.2c0-0.1,0.1-0.4,0.4-0.9c0.3-0.5,0.4-0.9,0.5-1.2c0-0.3,0.2-0.8,0.4-1.5c0.2-0.7,0.5-1.5,0.8-2.3
		c0.3-0.8,0.5-1.6,0.7-2.3c0.2-0.7,0.4-1.2,0.5-1.5c0.1-0.1,0.1-0.2,0.2-0.5c0.1-0.2,0.1-0.5,0.2-0.7l0.1-0.3
		c0.1-0.2,0.1-0.4,0.2-0.7c0.1-0.3,0.1-0.5,0.2-0.6c0.1-0.2,0.1-0.5,0.2-0.9c0.1-0.4,0.2-0.8,0.3-1.1c0.1-0.4,0.2-0.7,0.3-1
		c0.1-0.3,0.1-0.5,0.1-0.5c0-0.1,0-0.5,0-1.4s0-1.9,0.1-2.9c0-1.1,0-2,0-2.9c0-0.9,0-1.4,0-1.5c0.1-0.1,0.2-0.4,0.3-0.8
		c0.1-0.4,0.2-0.7,0.3-0.8c0-0.1,0.1-0.3,0.4-0.8c0.3-0.5,0.4-0.8,0.5-0.9c0-0.1,0.1-0.3,0.3-0.6c0.2-0.3,0.4-0.5,0.5-0.5
		c0-0.1,0-0.2,0.1-0.3c0.1-0.1,0.1-0.2,0.2-0.3c0.2-0.2,0.5-0.4,1-0.6c0.4-0.3,0.7-0.4,0.8-0.5c0.1-0.1,0.3-0.1,0.5-0.2
		c0.3-0.1,0.6-0.2,0.8-0.2l0.4,0l0.5,0L326.3,62.8L326.3,62.8z M413.1,88l-0.6,0l0,5.9l-0.7,0l-0.8-5.5c-0.3,0-0.8,0-1.5-0.1
		c-0.7-0.1-1.2-0.2-1.5-0.3c-0.1,0-0.3,0-0.6-0.1c-0.3-0.1-0.5-0.1-0.5-0.2c-0.2-0.1-0.5-0.3-1-0.5c-0.4-0.2-0.7-0.4-0.8-0.5
		l-0.5-0.5c-0.2-0.2-0.3-0.3-0.4-0.4c-0.1-0.1-0.2-0.2-0.3-0.2c0-0.1-0.1-0.3-0.3-0.7c-0.2-0.3-0.4-0.6-0.5-0.7
		c-0.1-0.2-0.2-0.4-0.4-0.9s-0.3-0.7-0.3-0.8c-0.1-0.1-0.2-0.4-0.4-0.8s-0.2-0.7-0.2-0.8l0-2.6l0-2.1c0-0.2,0.1-0.6,0.4-1.1
		c0.3-0.5,0.4-0.9,0.5-1c-0.2,0-0.4,0-0.8-0.1s-0.8-0.1-1.2-0.1c-0.4,0-0.8-0.1-1.2-0.1c-0.4,0-0.7-0.1-0.8-0.1
		c-0.1,0-0.3,0-0.5-0.2c-0.2-0.1-0.4-0.2-0.5-0.3c-0.1,0-0.2-0.1-0.4-0.3s-0.3-0.3-0.4-0.3c0-0.1-0.1-0.2-0.2-0.5
		c-0.1-0.2-0.1-0.3-0.2-0.4l0-1l0-1.1c0-0.1,0-0.3,0.2-0.8c0.1-0.5,0.2-0.8,0.2-0.9c0.1-0.2,0.2-0.6,0.4-1c0.2-0.5,0.4-1,0.5-1.5
		l0.8-2.4c0-0.3,0.3-0.8,0.8-1.5c0.5-0.7,0.8-1.4,0.9-1.8c0.1-0.2,0.3-0.6,0.5-1.2c0.3-0.6,0.5-1.3,0.8-2c0.3-0.7,0.6-1.4,0.8-2
		c0.3-0.6,0.4-1.1,0.5-1.4c0.3-0.6,0.6-1.2,1-1.8s0.9-1.2,1.3-1.8c0.5-0.6,0.9-1.2,1.3-1.9s0.7-1.4,0.9-2.2c0.1-0.1,0.2-0.2,0.3-0.5
		c0.2-0.3,0.3-0.5,0.5-0.8c0.2-0.3,0.4-0.6,0.5-0.9s0.3-0.5,0.4-0.7c0-0.1,0.1-0.2,0.3-0.6c0.2-0.3,0.3-0.6,0.4-0.8
		c0.2-0.2,0.4-0.4,0.7-0.8c0.3-0.4,0.6-0.6,0.7-0.7c0.1-0.2,0.4-0.5,0.8-1c0.4-0.4,0.7-0.7,0.8-0.8c0.1,0,0.2-0.1,0.5-0.4
		c0.3-0.3,0.5-0.4,0.6-0.5c0.1,0,0.2-0.1,0.5-0.2c0.1-0.1,0.2-0.1,0.4-0.2l1.5,0l1.4,0l0.9,0.9c0.1,0.1,0.2,0.2,0.4,0.5
		c0.2,0.3,0.3,0.5,0.4,0.6c0,0.1,0.1,0.4,0.3,0.9s0.3,0.9,0.4,1.2c0.1,0.2,0.3,0.6,0.5,1.2c0.3,0.6,0.4,1,0.4,1.2
		c0,0.1,0,0.3,0.1,0.6c0.1,0.3,0.2,0.6,0.3,0.9c0.1,0.3,0.2,0.6,0.3,0.9c0.1,0.3,0.1,0.5,0.1,0.7c0,0.1,0.1,0.4,0.2,0.8
		c0.1,0.4,0.2,0.8,0.2,1c0.1,0.3,0.2,0.7,0.3,1.3c0.2,0.5,0.3,1.1,0.5,1.7c0.2,0.6,0.3,1.1,0.4,1.5c0.1,0.5,0.2,0.7,0.2,0.8
		c0,0.3,0.1,0.6,0.4,1c0.2,0.4,0.4,0.8,0.4,1.1c0.1,0.4,0.2,0.9,0.4,1.5c0.1,0.6,0.2,1,0.2,1.1l0,2.8c0,0.1-0.1,0.2-0.2,0.4
		c-0.1,0.2-0.2,0.3-0.3,0.4c-0.1,0.2-0.3,0.5-0.6,0.9c-0.3,0.5-0.5,0.7-0.5,0.8c-0.1,0.1-0.4,0.3-0.8,0.7c-0.4,0.3-0.7,0.6-0.8,0.7
		c-0.1,0-0.3,0.1-0.7,0.2s-0.6,0.2-0.7,0.2l-0.2,0l-0.2,0c-0.1,0-0.2-0.1-0.4-0.2c-0.2-0.1-0.3-0.2-0.4-0.2
		c-0.1-0.1-0.2-0.2-0.2-0.4c-0.1-0.3-0.2-0.5-0.2-0.5c-0.1-0.1-0.2-0.3-0.3-0.6c-0.1-0.3-0.2-0.5-0.3-0.5c0-0.2-0.1-0.5-0.2-1
		c-0.1-0.4-0.2-0.7-0.2-0.8c0-0.2,0-0.4,0-0.8c0-0.4-0.1-0.8-0.1-1.3c-0.1-0.5-0.1-0.9-0.1-1.3c0-0.4,0-0.7,0-0.8
		c-0.1-0.3-0.2-0.6-0.2-0.8c-0.1-0.3-0.1-0.5-0.2-0.7c-0.1-0.2-0.1-0.4-0.1-0.5c-0.1-0.5-0.3-1.1-0.7-1.9c-0.3-0.7-0.6-1.2-0.7-1.5
		c-0.1-0.2-0.2-0.7-0.4-1.4c-0.2-0.7-0.3-1.2-0.4-1.5c-0.1-0.3-0.2-0.6-0.4-1c-0.1-0.4-0.3-0.8-0.4-1.2c-0.2-0.5-0.4-1-0.5-1.5
		l-0.5,0c0,0.2,0,0.5,0,0.9c0,0.5,0,1,0,1.5c0,0.5,0,1,0,1.5c0,0.5,0,0.8,0,0.9c0,0.2-0.1,0.6-0.2,1.2c-0.1,0.6-0.2,1-0.3,1.1
		c0-0.1-0.1-0.3-0.2-0.7c-0.1-0.4-0.2-0.6-0.2-0.7c-0.1-0.2-0.1-0.4-0.2-0.7c-0.1-0.3-0.1-0.7-0.1-1.1c0-0.4-0.1-0.8-0.1-1.1
		c-0.1-0.4-0.1-0.6-0.2-0.8l-0.7,1.6l0,7.6l-0.5,0.7l-0.6-0.7l0-6.3c-0.1,0.1-0.2,0.3-0.4,0.5s-0.4,0.5-0.6,0.8
		c-0.2,0.3-0.4,0.6-0.5,0.8c-0.2,0.3-0.3,0.5-0.3,0.6c-0.1,0.1-0.2,0.4-0.5,1c-0.3,0.5-0.5,1.2-0.8,1.9s-0.6,1.4-1,2.2
		c-0.3,0.7-0.6,1.3-0.7,1.7c-0.1,0.2-0.2,0.4-0.4,0.7c-0.2,0.2-0.3,0.5-0.4,0.7c-0.1,0.3-0.2,0.7-0.4,1.2c-0.2,0.5-0.4,1-0.5,1.5
		c-0.2,0.5-0.3,1-0.5,1.4c-0.2,0.4-0.3,0.7-0.3,0.7c0,0.1,0.1,0.4,0.2,0.8c0.1,0.4,0.2,0.7,0.2,0.8c0.2,0,0.5,0,1,0s1,0,1.5,0
		c0.5,0,1.1,0,1.5,0c0.5,0,0.9,0,1.1-0.1c0.1,0,0.2,0,0.5,0c0.3,0,0.6-0.1,0.9-0.1c0.3-0.1,0.7-0.1,1-0.1c0.3,0,0.5,0,0.6,0
		c0.2-0.1,0.5-0.1,0.8-0.2c0.4-0.1,0.7-0.1,1.1-0.2c0.4-0.1,0.7-0.1,0.9-0.2c0.3-0.1,0.4-0.1,0.5-0.1l3.6,0l3,0
		c0.2,0.1,0.6,0.3,1.2,0.5c0.6,0.2,1.1,0.4,1.4,0.5c0.1,0.1,0.4,0.4,0.8,0.8c0.4,0.4,0.7,0.8,0.8,1c0.1,0.2,0.2,0.4,0.4,0.8
		c0.2,0.4,0.3,0.7,0.4,0.8l0,4.6c0,0.1-0.1,0.2-0.2,0.5c-0.1,0.3-0.2,0.5-0.2,0.6c-0.1,0.1-0.1,0.3-0.2,0.5
		c-0.1,0.2-0.2,0.5-0.4,0.7c-0.2,0.3-0.3,0.5-0.5,0.8c-0.2,0.3-0.3,0.5-0.3,0.6c-0.1,0.2-0.1,0.3-0.2,0.5c-0.1,0.1-0.2,0.2-0.3,0.3
		c-0.1,0.1-0.1,0.2-0.2,0.3c-0.2,0.2-0.5,0.5-0.8,0.9c-0.3,0.4-0.5,0.6-0.6,0.7c0,0.1-0.1,0.2-0.3,0.4c-0.2,0.2-0.3,0.3-0.4,0.4
		c-0.1,0.1-0.3,0.3-0.5,0.5c-0.3,0.2-0.5,0.4-0.8,0.7s-0.5,0.4-0.8,0.6c-0.2,0.2-0.4,0.3-0.4,0.3c-0.1,0.1-0.3,0.3-0.7,0.5
		c-0.3,0.2-0.6,0.4-0.7,0.5c-0.1,0-0.3,0.1-0.5,0.3c-0.3,0.2-0.6,0.4-0.9,0.5c-0.3,0.2-0.6,0.4-0.9,0.5c-0.3,0.2-0.4,0.3-0.5,0.3
		c-0.1,0-0.2,0.1-0.3,0.2c-0.1,0.1-0.1,0.1-0.1,0.2l0,1.2c0,0.2,0,0.5,0.1,1.1c0.1,0.6,0.1,1.2,0.1,1.9c0,0.7,0.1,1.3,0.1,1.9
		c0.1,0.6,0.1,0.9,0.1,1l0,5.5c0,0.1,0,0.3-0.1,0.6c0,0.3-0.1,0.6-0.1,0.9c0,0.3-0.1,0.6-0.1,0.9c0,0.3-0.1,0.4-0.1,0.5
		c-0.1-0.2-0.2-0.5-0.3-1c-0.1-0.5-0.2-0.9-0.3-1.1c-0.1-0.4-0.1-1.1-0.2-2.2c-0.1-1.1-0.2-2.2-0.2-3.4s-0.2-2.3-0.2-3.4
		c-0.1-1.1-0.1-1.8-0.1-2.2L413.1,88L413.1,88z M380,86.2c0.1,0.4,0.1,0.7,0.2,1.1c0.1,0.4,0.1,0.7,0.1,0.8c0.1,0.1,0.2,0.4,0.3,0.9
		c0.1,0.5,0.2,0.8,0.2,0.9l0,0.8c0,0.1,0,0.3-0.2,0.7c-0.1,0.3-0.2,0.6-0.3,0.7c0,0.1-0.1,0.2-0.3,0.5s-0.3,0.5-0.4,0.6l-0.9,0.9
		c-0.1,0.1-0.2,0.2-0.5,0.4s-0.5,0.3-0.6,0.4c-0.1,0.1-0.2,0.2-0.3,0.2c-0.1,0-0.2,0.1-0.3,0.1c-0.2,0.1-0.3,0.1-0.3,0.1
		c-0.2,0.1-0.3,0.1-0.4,0.2c-0.1,0.1-0.1,0.1-0.2,0.1l-0.2,0c-0.2,0-0.4,0-0.5-0.1c-0.2-0.1-0.3-0.1-0.4-0.2c-0.1,0-0.2,0-0.2-0.1
		c-0.1-0.1-0.2-0.2-0.2-0.3c0-0.1-0.1-0.3-0.2-0.7c-0.1-0.4-0.2-0.7-0.3-1c-0.1-0.3-0.1-0.8-0.3-1.4s-0.2-1.3-0.4-1.9
		c-0.1-0.7-0.2-1.3-0.4-1.9c-0.1-0.6-0.2-0.9-0.3-1.1c0-0.1,0-0.2-0.1-0.4c-0.1-0.2-0.1-0.5-0.1-0.8c0-0.3-0.1-0.6-0.1-0.9
		c-0.1-0.3-0.1-0.6-0.1-0.8c0-0.2,0-0.4-0.1-0.8c-0.1-0.4-0.1-0.7-0.2-1.1s-0.1-0.7-0.2-1c-0.1-0.3-0.1-0.4-0.1-0.5
		c0-0.3,0-0.8,0-1.4c0-0.6-0.1-1.3-0.1-2c-0.1-0.7-0.1-1.3-0.1-1.9c0-0.5,0-0.9,0-1l0-9.4l0-9.3c0-0.1,0-0.3,0.2-0.6
		s0.2-0.5,0.2-0.5c0.1-0.1,0.2-0.3,0.3-0.5c0-0.2,0.1-0.3,0.2-0.4c0.1-0.1,0.3-0.3,0.5-0.5c0.2-0.2,0.4-0.4,0.6-0.7
		c0.2-0.2,0.4-0.4,0.6-0.6s0.3-0.3,0.4-0.3c0.1-0.1,0.4-0.2,0.8-0.4c0.4-0.2,0.7-0.3,0.8-0.4l0.7,0l0.7,0c0.1,0.1,0.1,0.2,0.2,0.2
		l0.2,0.2c0.1,0.1,0.1,0.4,0.2,0.8c0.1,0.4,0.1,0.7,0.1,0.8l0.1,20.5c0.2-0.1,0.4-0.3,0.8-0.5c0.4-0.2,0.8-0.4,1.3-0.6
		c0.4-0.2,0.8-0.4,1.2-0.6c0.4-0.2,0.7-0.3,0.8-0.4c0.1-0.1,0.3-0.3,0.7-0.5c0.3-0.2,0.6-0.4,0.7-0.5c0.2-0.2,0.5-0.4,0.8-0.7
		c0.4-0.3,0.7-0.6,1-0.9c0.3-0.3,0.6-0.5,0.9-0.7c0.3-0.2,0.4-0.3,0.4-0.3c0.2-0.2,0.6-0.6,1.1-1.1c0.5-0.5,1.1-1.1,1.7-1.7
		c0.6-0.6,1.1-1.2,1.7-1.7c0.5-0.5,0.8-0.9,1-1.2c0.1,0,0.1-0.1,0.2-0.3c0.1-0.2,0.2-0.3,0.3-0.3c0-0.1,0.1-0.3,0.2-0.7
		c0.1-0.4,0.2-0.6,0.2-0.7c0.1-0.1,0.1-0.1,0.1-0.2c0-0.1,0-0.2,0.1-0.2c0.1-0.1,0.1-0.2,0.2-0.3c0.2-0.3,0.4-0.6,0.7-1
		c0.3-0.4,0.5-0.6,0.7-0.7c0.1-0.1,0.4-0.4,0.9-0.8c0.5-0.4,0.9-0.8,1.2-1l0.3-0.2c0.2-0.1,0.3-0.2,0.4-0.2c0.2-0.1,0.4-0.2,0.7-0.3
		c0.3-0.1,0.6-0.1,0.7-0.1l0.3-0.1c0.1,0,0.1,0,0.2,0c0.1,0,0.1,0,0.2,0l0.1,0c0.4,0,0.5,0.1,0.5,0.4l0,2.1c0,0.1-0.1,0.2-0.2,0.4
		s-0.2,0.4-0.3,0.7c-0.1,0.3-0.3,0.5-0.4,0.8c-0.2,0.3-0.3,0.4-0.3,0.5c-0.1,0.2-0.4,0.6-0.8,1.3c-0.4,0.6-0.8,1.1-1,1.4
		c-0.1,0.2-0.3,0.5-0.8,1c-0.5,0.5-0.8,0.9-0.9,1.1c-0.2,0.2-0.5,0.6-0.9,1.1s-1,1.1-1.5,1.6c-0.5,0.6-1,1.1-1.5,1.6
		c-0.5,0.5-0.8,0.9-0.9,1c0.1,0.1,0.3,0.3,0.6,0.5c0.3,0.2,0.5,0.4,0.6,0.5c0.1,0.1,0.3,0.2,0.5,0.4c0.2,0.2,0.4,0.4,0.7,0.6
		c0.2,0.2,0.4,0.4,0.6,0.7c0.2,0.2,0.3,0.3,0.3,0.4c0.1,0.1,0.3,0.4,0.7,1.2c0.4,0.7,0.6,1.3,0.9,1.7c0.1,0.2,0.3,0.6,0.6,1.2
		c0.4,0.7,0.7,1.4,1.1,2.1c0.4,0.7,0.8,1.4,1.1,2.1c0.3,0.7,0.6,1.1,0.7,1.2c0,0.1,0.1,0.3,0.3,0.7c0.2,0.3,0.4,0.7,0.7,1.2
		c0.3,0.4,0.5,0.9,0.8,1.3c0.3,0.4,0.5,0.8,0.7,1c0.1,0.1,0.3,0.3,0.5,0.6c0.2,0.3,0.4,0.5,0.5,0.6c0.1,0.2,0.3,0.5,0.6,0.9
		c0.3,0.4,0.5,0.7,0.5,0.9c0.2,0.3,0.5,0.7,1,1.2c0.4,0.6,0.7,0.8,0.8,0.8c0.2,0.2,0.5,0.6,1,1.1l3.3,3.2c0.5,0.5,0.9,0.8,1.2,1
		c0,0.1,0.1,0.2,0.2,0.4l0,0.1c0.1,0.2,0.2,0.3,0.2,0.4l0,0.5c-0.1,0.2-0.2,0.4-0.4,0.8c-0.2,0.4-0.3,0.7-0.3,0.8
		c-0.1,0.1-0.3,0.3-0.5,0.5c-0.2,0.3-0.5,0.5-0.8,0.8c-0.3,0.3-0.6,0.5-0.8,0.7c-0.3,0.2-0.5,0.4-0.6,0.5l-0.5,0.2
		c-0.3,0.1-0.5,0.2-0.7,0.2l-0.9,0c-0.2-0.1-0.3-0.1-0.4-0.2c-0.1,0-0.1,0-0.1,0c0,0-0.1,0-0.1,0c-0.1,0-0.1,0-0.2-0.1
		c-0.1-0.2-0.4-0.5-0.8-0.8c-0.4-0.3-0.7-0.5-0.8-0.6c-0.2-0.1-0.6-0.3-1.1-0.9c-0.5-0.5-0.9-0.9-1-1.2c-0.1-0.1-0.3-0.3-0.5-0.5
		c-0.3-0.3-0.5-0.5-0.8-0.8c-0.3-0.3-0.5-0.6-0.8-0.8c-0.3-0.3-0.4-0.4-0.5-0.5c-0.1-0.1-0.2-0.3-0.4-0.6c-0.2-0.3-0.5-0.6-0.7-1
		c-0.3-0.4-0.5-0.7-0.8-1.1c-0.3-0.4-0.4-0.6-0.5-0.8c-0.1-0.1-0.3-0.3-0.5-0.6c-0.2-0.3-0.4-0.5-0.5-0.5c-0.2-0.3-0.4-0.7-0.9-1.4
		c-0.4-0.7-0.8-1.4-1.2-2.2s-0.8-1.5-1.2-2.2c-0.4-0.7-0.7-1.1-0.9-1.4l-0.7-0.4l0,2.1l-0.5,0c-0.1-0.2-0.1-0.4-0.2-0.6
		c-0.1-0.2-0.1-0.4-0.2-0.6c-0.1-0.2-0.1-0.3-0.2-0.5c0-0.1,0-0.3-0.1-0.7c-0.1-0.4-0.1-0.7-0.1-1.1s-0.1-0.8-0.1-1.1
		s-0.1-0.6-0.1-0.7c0-0.1-0.1-0.3-0.2-0.6c-0.1-0.3-0.2-0.6-0.2-0.8l-0.5-0.7c-0.1-0.1-0.3-0.3-0.5-0.5c-0.2-0.3-0.4-0.4-0.5-0.4
		l0,0.9c0.1,0.2,0.1,0.7,0.2,1.6c0.1,0.8,0.1,1.8,0.2,2.7c0.1,1,0.1,1.9,0.1,2.8s0,1.4,0,1.6l0,11.6l-0.5,2.1l-0.4-0.4
		c0,0,0-0.1-0.1-0.4c-0.1-0.3-0.1-0.6-0.1-0.9s-0.1-0.7-0.1-1.1s0-0.6,0-0.8c-0.1-0.3-0.1-0.8-0.2-1.7c-0.1-0.9-0.1-2-0.2-3.2
		c-0.1-1.2-0.1-2.5-0.2-3.9c-0.1-1.4-0.2-2.7-0.2-3.9c-0.1-1.2-0.1-2.3-0.1-3.2c0-0.9,0-1.5,0-1.8c-0.1-0.1-0.1-0.3-0.2-0.7
		c-0.1-0.3-0.1-0.7-0.1-1c0-0.3-0.1-0.7-0.1-1c-0.1-0.3-0.1-0.5-0.2-0.6c-0.1,0-0.3,0-0.6-0.1c-0.3-0.1-0.5-0.1-0.5-0.1
		c-0.1,0-0.4,0.1-0.8,0.2c-0.2,0.1-0.4,0.1-0.5,0.1c-0.1,0-0.4,0.1-1,0.3c-0.6,0.2-1.1,0.3-1.5,0.4c-0.1,0.1-0.4,0.2-0.8,0.4
		c-0.4,0.2-0.7,0.3-0.8,0.4c0,0.2,0,0.4,0.1,0.7c0.1,0.3,0.1,0.6,0.1,0.9c0,0.3,0.1,0.6,0.1,0.9c0.1,0.3,0.1,0.5,0.1,0.6
		c0.1,0.3,0.2,0.7,0.3,1.3c0.1,0.6,0.2,1,0.3,1.1c0,0.2,0,0.4,0.1,0.8c0.1,0.3,0.1,0.6,0.2,0.9L380,86.2L380,86.2z M321.1,90.4
		c-0.1,0.3-0.3,0.7-0.5,1.4c-0.3,0.6-0.4,1-0.4,1.2c0,0.1,0,0.3,0,0.5s0,0.4,0,0.5l0.5,0c0.2-0.1,0.5-0.2,1.1-0.3
		c0.6-0.1,0.9-0.2,1-0.3l0-0.2l0-0.2c0-0.2-0.1-0.6-0.4-1.2c-0.2-0.6-0.4-1.1-0.4-1.3c-0.1,0-0.2-0.1-0.3-0.3
		c-0.1-0.2-0.1-0.3-0.2-0.3C321.5,89.7,321.1,90.4,321.1,90.4z M408.2,75.5c0,0.1,0,0.3,0,0.5c0,0.2,0,0.5,0.1,0.7
		c0.1,0.3,0.1,0.5,0.2,0.8c0,0.2,0.1,0.5,0.3,0.9c0.2,0.4,0.4,0.7,0.6,0.9c0,0.1,0.2,0.3,0.7,0.8c0.4,0.5,0.8,0.8,1,0.9
		c0.1,0,0.2,0.1,0.4,0.2c0.2,0.1,0.3,0.2,0.4,0.2l2.3,0l1.9,0c0.1,0,0.2-0.1,0.4-0.2s0.5-0.2,0.7-0.3s0.5-0.3,0.8-0.4
		c0.3-0.2,0.4-0.3,0.5-0.4c0.1-0.1,0.3-0.2,0.5-0.4s0.4-0.3,0.5-0.4c0.1-0.2,0.2-0.5,0.4-0.9c0.2-0.4,0.3-0.7,0.3-0.9l0-1l0-1.1
		c0-0.1-0.1-0.4-0.4-0.8c-0.2-0.4-0.4-0.7-0.4-0.8c-0.1-0.1-0.3-0.2-0.7-0.4c-0.3-0.2-0.6-0.3-0.7-0.3c-0.1-0.1-0.4-0.2-0.9-0.3
		c-0.6-0.1-1-0.1-1.2-0.1l-1,0l-1.1,0c-0.3,0-0.6,0-1.1,0c-0.5,0-0.9,0.1-1.4,0.1c-0.5,0-0.9,0.1-1.3,0.1c-0.4,0.1-0.6,0.1-0.7,0.2
		c-0.1,0-0.3,0.1-0.5,0.2c-0.2,0.1-0.3,0.1-0.4,0.2c0,0.2,0,0.6-0.1,1.1C408.3,75,408.2,75.3,408.2,75.5L408.2,75.5z"/>
</g>
</svg>
