<?xml version="1.0" encoding="utf-8"?>
<!-- Generator: Adobe Illustrator 21.1.0, SVG Export Plug-In . SVG Version: 6.00 Build 0)  -->
<svg version="1.1"
	 id="svg2" inkscape:version="0.44.1" sodipodi:docbase="C:\Documents and Settings\Matias\Desktop" sodipodi:docname="Figura1.svg" sodipodi:version="0.32" xmlns:cc="http://web.resource.org/cc/" xmlns:dc="http://purl.org/dc/elements/1.1/" xmlns:inkscape="http://www.inkscape.org/namespaces/inkscape" xmlns:rdf="http://www.w3.org/1999/02/22-rdf-syntax-ns#" xmlns:sodipodi="http://sodipodi.sourceforge.net/DTD/sodipodi-0.dtd" xmlns:svg="http://www.w3.org/2000/svg"
	 xmlns="http://www.w3.org/2000/svg" xmlns:xlink="http://www.w3.org/1999/xlink" x="0px" y="0px" viewBox="0 0 566.9 98.6"
	 enable-background="new 0 0 566.9 98.6" xml:space="preserve">
<sodipodi:namedview  bordercolor="#666666" borderopacity="1.0" gridtolerance="10.0" guidetolerance="10.0" height="200px" id="base" inkscape:current-layer="_42677040" inkscape:cx="652.10241" inkscape:cy="-180.96718" inkscape:pageopacity="0.0" inkscape:pageshadow="2" inkscape:window-height="844" inkscape:window-width="1440" inkscape:window-x="-4" inkscape:window-y="-4" inkscape:zoom="0.70710678" objecttolerance="10.0" pagecolor="#ffffff" width="1000px">
	</sodipodi:namedview>
<g>
	
		<linearGradient id="_43443024_1_" gradientUnits="userSpaceOnUse" x1="527.771" y1="100.7129" x2="527.771" y2="1.2129" gradientTransform="matrix(1 0 0 -1 0 100)">
		<stop  offset="5.100000e-03" style="stop-color:#2E5C92"/>
		<stop  offset="1" style="stop-color:#2E3192"/>
	</linearGradient>
	<polygon id="_43443024" fill="url(#_43443024_1_)" points="488.6,0.9 512.6,0.9 524.5,28.2 542.3,0.9 566.9,0.9 532.2,54.9 
		526.6,97 504.3,97 510.9,49 	"/>
	
		<linearGradient id="_43441624_1_" gradientUnits="userSpaceOnUse" x1="290.738" y1="100.7129" x2="290.738" y2="1.2129" gradientTransform="matrix(1 0 0 -1 0 100)">
		<stop  offset="5.100000e-03" style="stop-color:#2E5C92"/>
		<stop  offset="1" style="stop-color:#2E3192"/>
	</linearGradient>
	<polygon id="_43441624" fill="url(#_43441624_1_)" points="311.8,97 314.8,75.7 281,75.7 283,59.1 312.4,59.1 315.4,37.7 
		286.3,37.7 288.4,22.3 322.2,22.3 325.4,0.9 269.4,0.9 256,97 	"/>
	
		<linearGradient id="_43775888_1_" gradientUnits="userSpaceOnUse" x1="127.571" y1="100.7129" x2="127.571" y2="1.2129" gradientTransform="matrix(1 0 0 -1 0 100)">
		<stop  offset="5.100000e-03" style="stop-color:#2E5C92"/>
		<stop  offset="1" style="stop-color:#2E3192"/>
	</linearGradient>
	<path id="_43775888" fill="url(#_43775888_1_)" d="M112.1,49.6l7.4-19.9l2.4,19.9H112.1L112.1,49.6z M104.1,68.6h20.2l3.6,28.5
		h36.5l16.9-52.2l8.3,52.2h19.3l21.4-55.2l3.6,55.2h21.4l-5.9-96.1h-25.5l-19.9,50.7l-7.7-50.7h-22.8l-26.1,78.9l-9.8-78.9h-28.5
		L77.1,80.7l4.2-31.1H42.7l-2.7,19H57l-1.2,6.5c-3,1.8-9.8,2.1-12.5,2.1S20.8,75.4,21.7,54C22.6,32.7,51,12.8,84.9,23.8l3.3-20.5
		C65.6-4.4,6.4-0.1,0.3,52.8c-3.6,31.1,24.9,46,43.9,45.7c11,0.6,23.4-3.6,27.9-5.9L70.6,97h22.5L104.1,68.6L104.1,68.6z"/>
	
		<linearGradient id="_44102912_1_" gradientUnits="userSpaceOnUse" x1="458.9947" y1="100.7129" x2="458.9947" y2="1.2129" gradientTransform="matrix(1 0 0 -1 0 100)">
		<stop  offset="5.100000e-03" style="stop-color:#2E5C92"/>
		<stop  offset="1" style="stop-color:#2E3192"/>
	</linearGradient>
	<path id="_44102912" fill="url(#_44102912_1_)" d="M464.6,0c-15.4-0.6-37.7,8.3-45.1,44.2c-7.4,35.9,12.5,50.4,30.9,52.8
		c18.4,2.4,44.2-9.2,49-43.6C504,19,487.1,0.9,464.6,0z M462.2,20.5c6.2,0,19.6,4.2,16.3,29.1c-3.3,24.9-18.7,27.9-24.3,27.3
		c-5.6-0.6-17.2-4.4-13.9-27.3C443.5,26.7,455.7,20.2,462.2,20.5L462.2,20.5z"/>
	
		<linearGradient id="_44104296_1_" gradientUnits="userSpaceOnUse" x1="378.9219" y1="100.7129" x2="378.9219" y2="1.2129" gradientTransform="matrix(1 0 0 -1 0 100)">
		<stop  offset="5.100000e-03" style="stop-color:#2E5C92"/>
		<stop  offset="1" style="stop-color:#2E3192"/>
	</linearGradient>
	<path id="_44104296" fill="url(#_44104296_1_)" d="M370.8,37.7h12.5c9.2,0,11-5.9,11.3-8.3c0.3-2.4-2.4-7.1-7.1-7.1h-14.5
		L370.8,37.7z M365.5,75.7h16.9c9.2,0,11.3-7.1,11.6-9.5c0.3-2.4-2.4-7.1-7.1-7.1h-19L365.5,75.7L365.5,75.7z M340.6,97l13.4-96.1
		h40.9c9.8,0,24,11.3,22.3,26.4c-1.8,15.1-6.5,16-9.8,18.4c5,4.4,10.1,11.6,8,24.9C413.3,84,402.3,97,383,97L340.6,97L340.6,97z"/>
	
		<linearGradient id="_44106160_1_" gradientUnits="userSpaceOnUse" x1="538.5985" y1="100.7129" x2="538.5985" y2="1.2129" gradientTransform="matrix(1 0 0 -1 0 100)">
		<stop  offset="5.100000e-03" style="stop-color:#2E5C92"/>
		<stop  offset="1" style="stop-color:#2E3192"/>
	</linearGradient>
	<path id="_44106160" fill="url(#_44106160_1_)" d="M538.6,82.5c-3.7,0-6.6,3-6.6,6.6c0,3.7,3,6.6,6.6,6.6c3.6,0,6.6-3,6.6-6.6
		C545.2,85.4,542.3,82.5,538.6,82.5v-0.9c4.1,0,7.5,3.4,7.5,7.5c0,4.2-3.3,7.5-7.5,7.5c-4.2,0-7.5-3.4-7.5-7.5
		c0-4.1,3.4-7.5,7.5-7.5V82.5L538.6,82.5z"/>
	
		<linearGradient id="_42975192_1_" gradientUnits="userSpaceOnUse" x1="539.144" y1="100.7129" x2="539.144" y2="1.2129" gradientTransform="matrix(1 0 0 -1 0 100)">
		<stop  offset="5.100000e-03" style="stop-color:#2E5C92"/>
		<stop  offset="1" style="stop-color:#2E3192"/>
	</linearGradient>
	<path id="_42975192" fill="url(#_42975192_1_)" d="M536.8,85.6h2.4c1,0,2.2,0.2,2.2,1.5c0,1.7-1.8,1.5-3,1.5l-1.6,0v0.8h1.9
		l2.4,3.9h1.2l-2.5-3.9c1.5,0,2.7-0.6,2.7-2.3c0-0.7-0.3-1.5-0.9-1.8c-0.6-0.4-1.3-0.4-2-0.4h-3.7v8.4h1L536.8,85.6L536.8,85.6z"/>
</g>
<g>
	<path d="M447.4,58.5c0.1,0.1,0.2,0.1,0.3,0.1c0.1,0,0.2,0.1,0.4,0.3c0.2,0.2,0.3,0.3,0.3,0.4c0,0.1,0,0.1,0.1,0.2
		c0,0.1,0,0.1,0,0.2c0,0.1,0,0.1,0,0.2l-0.2,0.3c0,0.2,0,0.5-0.1,0.8s-0.1,0.5-0.2,0.5c0,0-0.1,0.1-0.2,0.3
		c-0.1,0.2-0.2,0.4-0.4,0.5c-0.2,0.2-0.3,0.4-0.5,0.5c-0.2,0.2-0.3,0.3-0.3,0.3c-0.1,0.1-0.1,0.1-0.1,0.2c0,0.1-0.1,0.2-0.1,0.3
		c-0.1,0.2-0.1,0.3-0.2,0.4l0.1,12.5l0.5,0c0.1,0,0.2,0,0.4-0.1c0.2-0.1,0.5-0.1,0.7-0.1c0.2,0,0.5-0.1,0.7-0.1
		C448.9,76,449,76,449,76c0.4-0.1,1-0.2,1.9-0.4c0.9-0.2,1.9-0.4,2.9-0.6c1.1-0.2,2-0.4,2.9-0.5c0.9-0.2,1.5-0.3,1.9-0.3l0.7-0.4
		l-0.1-13c0-0.1,0.1-0.3,0.4-0.7c0.3-0.4,0.5-0.7,0.6-1l2.1-2.1c0.1,0,0.3-0.1,0.7-0.3c0.4-0.2,0.6-0.3,0.8-0.4l0.3,0l0.2,0
		c0.2,0,0.4,0,0.7,0.2c0.2,0.1,0.3,0.1,0.4,0.2l0.1,15l0.5,2.5l0.1,12.8c0.1,0.5,0.1,1.4,0.2,2.6c0,1.1,0.1,2.2,0.1,3.3l0,1
		c0,1.2,0.1,2.3,0.1,3.3c0.1,1.2,0.1,2,0.2,2.5c0,0.1,0,0.2,0.1,0.5c0.1,0.3,0.1,0.7,0.1,1c0,0.4,0.1,0.7,0.1,1.1s0.1,0.5,0.1,0.6
		l0,2.1c0,0.1-0.1,0.3-0.2,0.6l0,0.1c-0.1,0.3-0.2,0.5-0.2,0.6c-0.1,0.1-0.1,0.4-0.2,0.8c0,0.5-0.1,1-0.1,1.5c0,0.5-0.1,1-0.1,1.4
		c0,0.4-0.1,0.7-0.2,0.7c0,0.2,0,0.5-0.1,0.8c-0.1,0.3-0.2,0.5-0.3,0.6c-0.1,0.1-0.1,0.1-0.2,0.1c-0.1,0.1-0.3,0.1-0.5,0.1l0-4.3
		c0,0.2,0,0.5,0,0.9c0,0.4-0.1,0.9-0.1,1.4c0,0.5-0.1,1-0.1,1.4c0,0.4-0.1,0.7-0.1,0.9c0,0.2-0.1,0.4-0.2,0.7
		c-0.1,0.3-0.2,0.5-0.3,0.5c0,0.1,0,0.1-0.1,0.2l0,0.1H464l-0.2,0c-0.1,0-0.1-0.1-0.1-0.2c0-0.1-0.1-0.4-0.2-1
		c-0.1-0.6-0.2-0.9-0.2-1.1c-0.1-0.2-0.2-0.6-0.3-1.2c-0.1-0.6-0.2-1-0.2-1.2l-0.9,0c-0.1,0-0.2-0.1-0.4-0.2
		c-0.2-0.1-0.3-0.2-0.3-0.3c-0.1,0-0.2-0.2-0.3-0.5c-0.1-0.3-0.1-0.6-0.2-0.7c-0.1-0.2-0.2-0.6-0.3-1.1c-0.1-0.5-0.1-0.9-0.1-1
		c-0.1-0.2-0.1-0.6-0.2-1.2c-0.1-0.6-0.1-1.3-0.1-2c0-0.7-0.1-1.4-0.1-2s-0.1-1.1-0.2-1.3c0-0.4,0-1.2-0.1-2.6
		c0-1.2-0.1-2.5-0.1-3.9l0-1.2c0-1.4-0.1-2.7-0.1-3.9c-0.1-1.4-0.1-2.3-0.1-2.6c0-0.2,0-0.4,0-0.8c0-0.4-0.1-0.8-0.1-1.2
		c-0.1-0.4-0.1-0.8-0.1-1.2c0-0.4,0-0.7,0-0.8l-1.1,0l-1,0c-0.3,0-0.7,0.1-1.4,0.2c-0.6,0.1-1,0.2-1.2,0.2c0,0.1-0.1,0.2-0.2,0.3
		c-0.1,0.1-0.2,0.2-0.2,0.3c0,0.3-0.1,0.8-0.1,1.6c0,0.8-0.1,1.6-0.1,2.5c0,0.9-0.1,1.8-0.1,2.5s-0.1,1.4-0.1,1.7
		c0,0.1,0,0.4-0.1,0.8c0,0.5-0.1,1-0.1,1.6s-0.1,1.2-0.1,1.7c0,0.5-0.1,0.9-0.1,1.2c0,0.2,0,0.4,0,0.8c0,0.4-0.1,0.8-0.1,1.3
		c0,0.5-0.1,0.9-0.1,1.3c0,0.4,0,0.6,0,0.7c-0.1,0.2-0.1,0.4-0.2,0.7c0,0.2-0.1,0.5-0.1,0.8l0,0.2c0,0.3-0.1,0.5-0.1,0.8
		c-0.1,0.3-0.1,0.5-0.1,0.6c0-0.2-0.1-0.6-0.2-1.1l0-0.2c-0.1-0.6-0.2-0.9-0.2-1.1l0-1l0-1.1c0-0.3,0-0.8,0.1-1.7s0.1-1.9,0.1-2.9
		c0-1.1,0.1-2,0.1-2.9s0.1-1.4,0.1-1.7l0-7l-0.6,0c0,0.1,0,0.3,0,0.5c0,0.3,0.1,0.5,0.1,0.8c0,0.3,0.1,0.6,0.1,0.9
		c0,0.3,0,0.5,0,0.6c-0.1,0.2-0.2,0.6-0.3,1.1c-0.1,0.5-0.2,0.8-0.3,1h-0.2l-0.2,0c-0.1-0.1-0.1-0.2-0.3-0.4
		c-0.1-0.2-0.2-0.3-0.2-0.4c0-0.2,0-0.4,0-0.8c0-0.4,0-0.7,0-1.1c0-0.4,0-0.7,0-1.1c0-0.3,0-0.6,0-0.7c-0.1,0-0.4,0-0.9-0.1
		c-0.5,0-0.8-0.1-0.9-0.1c-0.2,0-0.4,0.1-0.8,0.2c-0.4,0.1-0.7,0.2-0.8,0.3l0,2.5c0.1,0.2,0.1,0.5,0.2,1.1c0.1,0.6,0.2,1.3,0.3,2
		c0.1,0.8,0.2,1.5,0.3,2.3c0.1,0.7,0.1,1.3,0.2,1.7c0,0.2,0,0.6,0.1,1.1c0.1,0.5,0.2,1.1,0.3,1.7c0.1,0.6,0.2,1.2,0.3,1.8
		c0.1,0.6,0.1,1,0.1,1.2c0,0.1,0,0.4,0.1,0.8c0.1,0.4,0.2,0.9,0.3,1.4c0.1,0.5,0.2,1,0.3,1.4c0.1,0.5,0.2,0.8,0.2,0.9l0,1.7
		c-0.1,0.1-0.1,0.1-0.2,0.2c-0.1,0.1-0.1,0.2-0.2,0.3c-0.1,0.1-0.1,0.1-0.2,0.2c-0.1,0.2-0.2,0.5-0.4,0.8c-0.2,0.3-0.3,0.5-0.4,0.6
		c-0.1,0.1-0.2,0.3-0.4,0.5c-0.2,0.2-0.5,0.5-0.7,0.7c-0.3,0.3-0.5,0.5-0.8,0.7s-0.4,0.4-0.5,0.5l0.1,18.8l-0.4,0.8
		c-0.1-0.2-0.2-0.5-0.4-1c-0.1-0.5-0.2-0.9-0.2-1.1c0-0.2,0-0.4-0.1-0.8c-0.1-0.4-0.1-0.8-0.1-1.3c0-0.4-0.1-0.8-0.1-1.2
		c-0.1-0.4-0.1-0.7-0.1-0.8c0-0.5,0-1.4-0.1-2.7c0-1.1-0.1-2.3-0.1-3.5l0-1c0-1.2-0.1-2.4-0.1-3.5c-0.1-1.3-0.1-2.1-0.2-2.7
		c-0.1-0.1-0.2-0.4-0.4-0.8c-0.2-0.4-0.3-0.8-0.3-1c-0.1-0.1-0.2-0.3-0.4-0.7c-0.1-0.4-0.2-0.7-0.2-0.9c0-0.1,0-0.4-0.1-0.8
		c-0.1-0.4-0.2-0.9-0.3-1.5c-0.1-0.5-0.2-1.1-0.3-1.5s-0.1-0.9-0.2-1.1c0-0.3-0.1-0.8-0.2-1.6c-0.1-0.8-0.2-1.2-0.2-1.4
		c-0.1-0.6-0.2-1.6-0.4-3c-0.2-1.4-0.3-2.9-0.5-4.4c-0.2-1.5-0.4-2.9-0.5-4.2c-0.2-1.3-0.3-2.2-0.4-2.6c0-0.3,0-0.6,0-1.1
		c0-0.5-0.1-0.9-0.1-1.4c-0.1-0.5-0.1-0.9-0.1-1.3c0-0.4,0-0.6,0-0.7l0-4.9l0-4.6c0-0.1,0-0.5,0.1-1.2c0.1-0.7,0.1-1.2,0.1-1.5
		c0.1-0.3,0.2-0.5,0.3-0.9l0.2-0.6c0.1-0.2,0.3-0.6,0.7-1.3c0.3-0.6,0.5-1.1,0.6-1.4c0.1-0.1,0.2-0.2,0.4-0.5
		c0.2-0.3,0.3-0.5,0.4-0.6l0.9-0.9c0.1-0.1,0.3-0.2,0.6-0.4c0.3-0.2,0.5-0.3,0.5-0.4l0.9-0.5c0.2-0.1,0.4-0.2,0.7-0.2
		c0.1,0,0.2,0,0.3-0.1l0,0c0.1-0.1,0.2-0.1,0.3-0.1C447.1,58.3,447.3,58.4,447.4,58.5L447.4,58.5L447.4,58.5z M516.2,47.9
		c0.1,0.1,0.2,0.1,0.4,0.2c0.2,0.1,0.3,0.2,0.4,0.3l0.4,0.3c0.1,0.1,0.1,0.2,0.2,0.3c0.1,0.1,0.1,0.3,0.2,0.4
		c0.1,0.2,0.1,0.4,0.2,0.5c0.1,0.2,0.2,0.4,0.4,0.7c0.2,0.3,0.3,0.6,0.4,0.7c0.2,0.2,0.5,0.6,1.1,1.2c0.6,0.6,1.2,1.2,1.9,1.8
		l3.3,3.2c0.1,0,0.2,0.1,0.5,0.3c0.3,0.2,0.6,0.5,0.9,0.8c0.3,0.3,0.7,0.6,1,0.8s0.5,0.4,0.6,0.5c0.1,0.1,0.3,0.3,0.6,0.6
		s0.6,0.6,0.9,0.9c0.3,0.3,0.6,0.6,0.8,0.9c0.3,0.3,0.4,0.5,0.5,0.6c0.1,0.1,0.1,0.3,0.3,0.5c0.1,0.2,0.2,0.4,0.2,0.5
		c-0.1,0.2-0.2,0.3-0.2,0.5c-0.1,0.1-0.1,0.2-0.2,0.3s-0.1,0.2-0.1,0.3c0,0.1,0,0.2-0.1,0.3c-0.1,0.1-0.1,0.2-0.2,0.3
		c-0.1,0.2-0.1,0.3-0.2,0.4c-0.1,0.1-0.3,0.2-0.5,0.4c-0.2,0.2-0.4,0.4-0.7,0.6c-0.2,0.2-0.4,0.5-0.6,0.7c-0.2,0.2-0.3,0.3-0.3,0.4
		c-0.1,0.1-0.4,0.2-0.8,0.4c-0.4,0.2-0.7,0.3-0.9,0.4l-0.6,0l-0.7,0c-0.1-0.1-0.3-0.2-0.5-0.4c-0.3-0.2-0.5-0.4-0.9-0.7
		c-0.3-0.2-0.6-0.4-0.9-0.7c-0.3-0.2-0.5-0.3-0.6-0.4c-0.3-0.3-0.8-0.6-1.4-1c-0.6-0.4-1-0.6-1.1-0.7c-0.2-0.1-0.6-0.3-1.2-0.6
		c-0.7-0.3-1.1-0.5-1.4-0.5c-0.2-0.1-0.6-0.3-1.2-0.5c-0.6-0.2-1-0.4-1.2-0.5l-0.7,0l0,4.2l-0.7,0l0-4.6l-0.7,0
		c0,0.2-0.2,0.6-0.4,1.1c-0.2,0.5-0.3,0.9-0.4,1l-0.4,0.4c-0.1-0.1-0.2-0.3-0.3-0.6c-0.1-0.3-0.2-0.5-0.3-0.5c0-0.2-0.1-0.6-0.2-1.1
		c-0.1-0.5-0.2-0.8-0.2-1c-0.2-0.1-0.6-0.2-1.2-0.3c-0.6-0.1-1-0.2-1.2-0.3l-4.6,0c-0.2,0.1-0.3,0.1-0.5,0.2l-0.8,0.4
		c-0.2,0.1-0.4,0.2-0.9,0.4c-0.4,0.2-0.7,0.3-0.8,0.4l-0.4,0.4c-0.1,0.1-0.1,0.3-0.3,0.5c-0.1,0.2-0.2,0.4-0.2,0.5l0,4.2
		c0.1,0.2,0.2,0.4,0.4,0.6c0.1,0.2,0.2,0.3,0.3,0.5c0.1,0.2,0.1,0.3,0.2,0.4c0.1,0.2,0.3,0.5,0.5,0.8c0.2,0.3,0.4,0.5,0.5,0.6
		c0.1,0.1,0.2,0.3,0.4,0.5c0.2,0.2,0.4,0.5,0.7,0.7c0.2,0.3,0.5,0.5,0.7,0.7c0.2,0.2,0.3,0.4,0.4,0.5c0.1,0.2,0.2,0.4,0.5,0.6
		c0.3,0.3,0.6,0.5,0.9,0.8c0.3,0.3,0.6,0.6,0.9,0.9c0.3,0.3,0.5,0.5,0.6,0.7c0.1,0.1,0.3,0.3,0.5,0.5c0.3,0.2,0.5,0.4,0.9,0.7
		c0.3,0.3,0.6,0.5,0.9,0.8c0.3,0.2,0.5,0.4,0.7,0.4c0.1,0.1,0.4,0.3,0.8,0.7c0.4,0.3,0.7,0.6,0.8,0.7c0.2,0.1,0.4,0.2,0.6,0.4
		c0.3,0.2,0.5,0.3,0.8,0.5s0.5,0.3,0.8,0.4c0.2,0.1,0.4,0.2,0.4,0.3c0.1,0.1,0.5,0.3,1.2,0.6s1.1,0.5,1.3,0.6
		c0.1,0.1,0.2,0.1,0.3,0.2s0.2,0.1,0.3,0.2l0.5,0.2l1.6,0l1.4,0c0.1,0,0.1-0.1,0.2-0.2c0.1-0.1,0.2-0.2,0.3-0.3l0.3-0.7
		c0.1-0.2,0.2-0.4,0.3-0.8c0.1-0.4,0.1-0.7,0.1-0.9c0.1-0.1,0.1-0.3,0.2-0.6c0.1-0.3,0.1-0.6,0.2-0.9c0-0.3,0.1-0.6,0.1-0.9
		c0-0.3,0-0.5,0-0.6c0-0.2,0.1-0.5,0.2-0.8c0.1-0.4,0.2-0.6,0.2-0.7c0.1-0.1,0.1-0.3,0.2-0.5c0.1-0.3,0.2-0.4,0.3-0.4
		c0.1-0.1,0.2-0.3,0.4-0.5c0.2-0.3,0.5-0.5,0.8-0.8c0.3-0.3,0.5-0.5,0.7-0.7c0.2-0.2,0.4-0.4,0.5-0.5c0.1-0.1,0.2-0.1,0.4-0.2
		c0.3-0.1,0.5-0.2,0.5-0.2c0.1-0.1,0.2-0.1,0.3-0.2c0.1-0.1,0.2-0.1,0.3-0.2c0.2-0.1,0.3-0.2,0.5-0.2c0.1,0.1,0.3,0.3,0.5,0.5
		c0.3,0.2,0.4,0.4,0.4,0.5l0,2.9c0,0.1,0,0.5-0.2,1.1c-0.1,0.6-0.1,1.1-0.1,1.5c-0.1,0.1-0.2,0.4-0.3,0.8c-0.1,0.4-0.2,0.7-0.3,0.8
		c0,0.2-0.1,0.5-0.3,1c-0.2,0.5-0.4,0.9-0.4,1.1c0,0.2-0.1,0.5-0.4,0.9c-0.3,0.5-0.4,0.7-0.5,0.8c0,0.1-0.1,0.3-0.3,0.7
		c-0.2,0.3-0.3,0.6-0.4,0.7c-0.2,0.2-0.5,0.5-0.8,0.9c-0.3,0.4-0.5,0.7-0.6,0.8l-0.7,0.7c-0.1,0.1-0.4,0.3-0.8,0.7
		c-0.4,0.3-0.8,0.6-1,0.7c-0.1,0.1-0.2,0.1-0.3,0.2c-0.1,0.1-0.2,0.1-0.3,0.2l-0.5,0.3c-0.1,0.1-0.2,0.1-0.4,0.2
		c-0.2,0.1-0.4,0.2-0.7,0.3c-0.2,0.1-0.5,0.2-0.7,0.3c-0.2,0.1-0.3,0.1-0.4,0.1c-0.1,0.1-0.3,0.2-0.5,0.3c-0.3,0.1-0.4,0.2-0.4,0.3
		l-0.3,0.7c-0.1,0.1-0.2,0.2-0.3,0.3c-0.1,0.1-0.1,0.2-0.2,0.2c0-0.1,0-0.2-0.1-0.5c-0.1-0.3-0.2-0.5-0.3-0.6c0-0.2-0.1-0.2-0.2-0.2
		h-0.1c-0.1,0-0.2,0.1-0.3,0.2c0,0.4,0,1-0.1,1.9c0,0.9-0.1,1.9-0.1,3c0,1.1-0.1,2.1-0.1,3c0,0.9-0.1,1.6-0.1,1.9
		c0,0.2,0,0.6-0.1,1.4c-0.1,0.7-0.1,1.3-0.1,1.7c-0.1,0.3-0.2,0.6-0.3,1.2c-0.1,0.5-0.2,0.8-0.2,0.9c0,0.1-0.1,0.2-0.2,0.4
		c-0.1,0.2-0.2,0.3-0.2,0.4l-0.1-16.3c-0.2,0-0.6-0.1-1.2-0.3c-0.7-0.2-1.1-0.4-1.4-0.5l-2.5-1.2c-0.1-0.1-0.3-0.2-0.7-0.4
		c-0.4-0.2-0.7-0.5-1.1-0.7l-2-1.3c-0.1-0.1-0.3-0.2-0.5-0.3c-0.2-0.2-0.4-0.4-0.7-0.5c-0.2-0.2-0.4-0.3-0.6-0.5
		c-0.2-0.2-0.3-0.3-0.3-0.3l-6.3-6.2l-0.5-0.6c-0.1-0.2-0.2-0.3-0.3-0.5c-0.1-0.2-0.2-0.3-0.3-0.4c-0.1-0.2-0.3-0.4-0.5-0.7
		c-0.2-0.3-0.4-0.6-0.5-0.7l-0.4-0.7c0-0.1-0.1-0.3-0.2-0.7c-0.1-0.4-0.2-0.6-0.3-0.7c0-0.1-0.1-0.4-0.2-0.9
		c-0.1-0.2-0.1-0.4-0.2-0.7l0-1.5l0-1.4c0-0.2,0-0.5,0.2-0.9c0.1-0.4,0.2-0.7,0.1-0.9c0.1-0.2,0.3-0.5,0.5-1
		c0.2-0.4,0.4-0.9,0.6-1.3c0.2-0.4,0.4-0.8,0.6-1.2c0.2-0.4,0.3-0.6,0.3-0.7c0.1-0.1,0.3-0.3,0.7-0.7c0.4-0.4,0.8-0.8,1.2-1.2
		c0.4-0.4,0.9-0.9,1.3-1.3s0.7-0.8,1-1c0.1-0.1,0.3-0.3,0.7-0.5c0.3-0.2,0.6-0.4,0.7-0.5c0.2-0.1,0.6-0.2,1.2-0.5
		c0.6-0.3,1-0.5,1.2-0.6c0.3-0.1,0.7-0.3,1.3-0.5c0.6-0.2,1-0.4,1.2-0.5c0.2,0,0.4,0,0.8,0c0.4,0,0.9-0.1,1.3-0.1
		c0.5-0.1,1-0.1,1.4-0.1c0.4,0,0.7,0,0.9,0c-0.1-0.2-0.1-0.6-0.1-1.1c0-0.5,0-0.8,0.1-1c0-0.2,0.1-0.5,0.4-0.9
		c0.3-0.4,0.4-0.7,0.5-0.9c0.1-0.2,0.4-0.5,1-1s0.9-0.9,1.1-1.1l1.5-0.8l0.5,0L516.2,47.9L516.2,47.9L516.2,47.9z M486.1,48.2l0,3.9
		c0,0,0,0.1,0,0.4c0,0.3-0.1,0.6-0.1,0.9c0,0.3-0.1,0.7-0.1,1c0,0.3,0,0.5,0,0.5l0,1.6c0,0.1,0,0.5,0,1.3c0,0.7,0.1,1.6,0.1,2.5
		c0,0.9,0.1,1.7,0.1,2.5s0.1,1.2,0.1,1.3c0,0.2,0.1,0.5,0.2,1.1c0.1,0.6,0.2,0.9,0.2,1c0.1,0.3,0.3,0.7,0.5,1.5
		c0.2,0.7,0.4,1.2,0.5,1.5c0.1,0.3,0.2,0.7,0.4,1.3c0.2,0.6,0.4,1.2,0.7,1.9c0.2,0.7,0.5,1.3,0.7,1.9c0.2,0.6,0.3,1,0.4,1.2
		c0.1,0.2,0.2,0.5,0.4,1s0.3,0.9,0.4,1.1c0.1,0.3,0.3,0.6,0.5,1s0.4,0.6,0.4,0.7c0.1,0,0.4,0.1,0.8,0.3c0.4,0.2,0.7,0.3,0.8,0.3
		c0.1,0.1,0.2,0.2,0.3,0.3c0.1,0.1,0.2,0.1,0.2,0.2c-0.1,0.3-0.2,0.9-0.1,1.7c0,0.8,0.1,1.4,0.2,1.7c0,0,0.1,0.2,0.2,0.5
		c0.2,0.3,0.3,0.7,0.5,1.2c0.2,0.5,0.4,0.9,0.7,1.4c0.3,0.5,0.5,0.8,0.6,1.1c0.1,0.1,0.2,0.6,0.5,1.4c0.3,0.8,0.6,1.8,0.9,2.8
		c0.3,1,0.7,1.9,0.9,2.8s0.5,1.3,0.5,1.4c0.1,0.4,0.3,0.7,0.5,0.9c0.1,0.2,0.2,0.4,0.4,0.6l0,1.7c-0.1,0.1-0.2,0.4-0.4,0.8
		c-0.2,0.4-0.3,0.8-0.4,1l-2.1,2.1c-0.1,0-0.3,0.1-0.5,0.2c-0.2,0.1-0.4,0.2-0.5,0.2l-1,0l-1.1,0c-0.1,0-0.3-0.2-0.8-0.5
		c-0.5-0.3-0.8-0.6-0.9-0.7c0-0.1-0.1-0.3-0.2-0.6c-0.1-0.3-0.2-0.5-0.2-0.6l0-1.4l-0.3-0.6c-0.1-0.2-0.2-0.3-0.2-0.5
		c-0.1-0.2-0.1-0.3-0.2-0.4c-0.4-0.6-0.8-1.5-1.3-2.9c-0.5-1.4-1.1-2.8-1.6-4.2c-0.6-1.7-1.3-3.5-2-5.4l-3.4,0c0,0.2,0,0.4-0.2,0.8
		c-0.1,0.4-0.2,0.7-0.2,0.8c-0.1,0-0.2,0.1-0.3,0.2c-0.1,0.1-0.1,0.2-0.2,0.2c0,0.2,0,0.6-0.1,1.1c0,0.5-0.1,1.1-0.1,1.7
		c0,0.6-0.1,1.2-0.1,1.8s-0.1,1-0.1,1.2c-0.1,0.2-0.2,0.6-0.3,1.2c-0.1,0.6-0.2,1-0.3,1.2c0,0.2-0.1,0.4-0.2,0.8
		c-0.2,0.4-0.2,0.7-0.2,0.9l0-11.4c-0.2,0-0.4-0.1-0.7-0.2c-0.3-0.1-0.6-0.2-0.9-0.3c-0.3-0.1-0.6-0.2-0.8-0.2
		c-0.3-0.1-0.4-0.1-0.5,0c-0.1,0.2-0.2,0.4-0.4,0.6c-0.3,0.5-0.4,0.8-0.5,1.1c-0.1,0.2-0.2,0.6-0.4,1.1c-0.2,0.5-0.3,0.9-0.4,1
		c0,0.1,0,0.2,0,0.4s-0.1,0.4-0.1,0.7c0,0.2-0.1,0.5-0.1,0.7s0,0.3,0,0.4c0,0.1-0.1,0.2-0.2,0.4c-0.1,0.2-0.2,0.3-0.2,0.4
		c-0.2,0.1-0.4,0.3-0.6,0.5c-0.3,0.2-0.5,0.5-0.8,0.8c-0.3,0.3-0.5,0.5-0.8,0.8c-0.3,0.2-0.4,0.3-0.5,0.3l-1.5,0.9l-0.3,0l-0.2,0
		c-0.1,0-0.2-0.1-0.4-0.2c-0.2-0.1-0.3-0.2-0.4-0.3c-0.1-0.1-0.1-0.1-0.2-0.2c-0.1-0.2-0.2-0.4-0.2-0.5l0-0.5l0-0.4
		c0-0.2,0-0.5,0.1-0.9c0.1-0.5,0.2-0.7,0.2-0.8c0.1-0.2,0.3-0.6,0.5-1.1c0.2-0.5,0.4-1.1,0.6-1.7c0.2-0.6,0.4-1.1,0.6-1.7
		c0.2-0.5,0.3-0.8,0.4-1l0-0.8c-0.2,0-0.5,0-1-0.1c-0.5-0.1-0.9-0.2-1.1-0.3c0-0.1-0.1-0.3-0.2-0.5c-0.1-0.2-0.2-0.4-0.2-0.5v-0.1
		l0-0.4c0-0.1,0.1-0.3,0.2-0.7c0-0.2,0.1-0.4,0.2-0.5L472,80c0.1,0,0.2,0,0.4-0.1c0.2-0.1,0.4-0.1,0.7-0.2c0.2-0.1,0.5-0.2,0.7-0.2
		c0.2-0.1,0.3-0.1,0.4-0.2c0-0.1,0.1-0.4,0.4-0.9c0.3-0.5,0.4-0.9,0.5-1.2c0-0.3,0.2-0.8,0.4-1.5c0.2-0.7,0.5-1.5,0.8-2.3
		c0.3-0.8,0.5-1.6,0.7-2.3s0.4-1.2,0.5-1.5c0.1-0.1,0.1-0.2,0.2-0.5c0.1-0.2,0.1-0.5,0.2-0.7l0.1-0.3c0.1-0.2,0.1-0.4,0.2-0.7
		c0.1-0.3,0.1-0.5,0.2-0.6c0.1-0.2,0.1-0.5,0.2-0.9c0.1-0.4,0.2-0.8,0.3-1.1c0.1-0.4,0.2-0.7,0.3-1c0.1-0.3,0.1-0.5,0.1-0.5
		c0-0.1,0-0.5,0-1.4s0-1.9,0.1-2.9c0-1.1,0-2,0-2.9c0-0.9,0-1.4,0-1.5c0.1-0.1,0.2-0.4,0.3-0.8c0.1-0.4,0.2-0.7,0.3-0.8
		c0-0.1,0.1-0.3,0.4-0.8c0.3-0.5,0.4-0.8,0.5-0.9c0-0.1,0.1-0.3,0.3-0.6c0.2-0.3,0.4-0.5,0.5-0.5c0-0.1,0-0.2,0.1-0.3
		c0.1-0.1,0.1-0.2,0.2-0.3c0.2-0.2,0.5-0.4,1-0.6c0.4-0.3,0.7-0.4,0.8-0.5c0.1-0.1,0.3-0.1,0.5-0.2c0.3-0.1,0.6-0.2,0.8-0.2l0.4,0
		l0.5,0L486.1,48.2L486.1,48.2z M572.8,73.4l-0.6,0l0,5.9l-0.7,0l-0.8-5.5c-0.3,0-0.8,0-1.5-0.1s-1.2-0.2-1.5-0.3
		c-0.1,0-0.3,0-0.6-0.1c-0.3-0.1-0.5-0.1-0.5-0.2c-0.2-0.1-0.5-0.3-1-0.5c-0.4-0.2-0.7-0.4-0.8-0.5l-0.5-0.5
		c-0.2-0.2-0.3-0.3-0.4-0.4c-0.1-0.1-0.2-0.2-0.3-0.2c0-0.1-0.1-0.3-0.3-0.7c-0.2-0.3-0.4-0.6-0.5-0.7c-0.1-0.2-0.2-0.4-0.4-0.9
		c-0.2-0.4-0.3-0.7-0.3-0.8c-0.1-0.1-0.2-0.4-0.4-0.8c-0.1-0.4-0.2-0.7-0.2-0.8l0-2.6l0-2.1c0-0.2,0.1-0.6,0.4-1.1
		c0.3-0.5,0.4-0.9,0.5-1c-0.2,0-0.4,0-0.8-0.1c-0.4,0-0.8-0.1-1.2-0.1s-0.8-0.1-1.2-0.1c-0.4,0-0.7-0.1-0.8-0.1
		c-0.1,0-0.3,0-0.5-0.2c-0.2-0.1-0.4-0.2-0.5-0.3c-0.1,0-0.2-0.1-0.4-0.3s-0.3-0.3-0.4-0.3c0-0.1-0.1-0.2-0.2-0.5
		c-0.1-0.2-0.1-0.3-0.2-0.4l0-1l0-1.1c0-0.1,0-0.3,0.2-0.8c0.1-0.5,0.2-0.8,0.2-0.9c0.1-0.2,0.2-0.6,0.4-1c0.2-0.5,0.4-1,0.5-1.5
		l0.8-2.4c0.1-0.3,0.3-0.8,0.8-1.5c0.5-0.7,0.8-1.4,0.9-1.8c0.1-0.2,0.3-0.6,0.5-1.2c0.3-0.6,0.5-1.3,0.8-2c0.3-0.7,0.6-1.4,0.8-2
		c0.3-0.6,0.4-1.1,0.5-1.4c0.3-0.6,0.6-1.2,1-1.8c0.4-0.6,0.9-1.2,1.3-1.8c0.5-0.6,0.9-1.2,1.3-1.9s0.7-1.4,0.9-2.2
		c0.1-0.1,0.2-0.2,0.3-0.5s0.3-0.5,0.5-0.8c0.2-0.3,0.4-0.6,0.5-0.9s0.3-0.5,0.4-0.7c0-0.1,0.1-0.2,0.3-0.6s0.3-0.6,0.4-0.8
		c0.2-0.2,0.4-0.4,0.7-0.8c0.3-0.4,0.6-0.6,0.7-0.7c0.1-0.2,0.4-0.5,0.8-1c0.4-0.4,0.7-0.7,0.8-0.8c0.1,0,0.2-0.1,0.5-0.4
		c0.3-0.3,0.5-0.4,0.6-0.5c0.1,0,0.2-0.1,0.5-0.2c0.1-0.1,0.2-0.1,0.4-0.2l1.5,0l1.4,0l0.9,0.9c0.1,0.1,0.2,0.2,0.4,0.5
		c0.2,0.3,0.3,0.5,0.4,0.6c0,0.1,0.1,0.4,0.3,0.9c0.2,0.5,0.3,0.9,0.4,1.2c0.1,0.2,0.3,0.6,0.5,1.2s0.4,1,0.4,1.2
		c0,0.1,0,0.3,0.1,0.6c0.1,0.3,0.2,0.6,0.3,0.9c0.1,0.3,0.2,0.6,0.3,0.9c0.1,0.3,0.1,0.5,0.1,0.7c0,0.1,0.1,0.4,0.2,0.8
		c0.1,0.4,0.2,0.8,0.2,1c0.1,0.3,0.2,0.7,0.3,1.3c0.2,0.5,0.3,1.1,0.5,1.7c0.2,0.6,0.3,1.1,0.4,1.5c0.1,0.5,0.2,0.7,0.2,0.8
		c0,0.3,0.1,0.6,0.4,1c0.2,0.4,0.4,0.8,0.4,1.1c0.1,0.4,0.2,0.9,0.4,1.5c0.1,0.6,0.2,1,0.2,1.1l0,2.8c0,0.1-0.1,0.2-0.2,0.4
		c-0.1,0.2-0.2,0.3-0.3,0.4c-0.1,0.2-0.3,0.5-0.6,0.9c-0.3,0.5-0.5,0.7-0.5,0.8c-0.1,0.1-0.4,0.3-0.8,0.7c-0.4,0.3-0.7,0.6-0.8,0.7
		c-0.1,0-0.3,0.1-0.7,0.2s-0.6,0.2-0.7,0.2H580l-0.2,0c-0.1,0-0.2-0.1-0.4-0.2c-0.2-0.1-0.3-0.2-0.4-0.2c-0.1-0.1-0.2-0.2-0.2-0.4
		c-0.1-0.3-0.2-0.5-0.2-0.5c-0.1-0.1-0.2-0.3-0.3-0.6c-0.1-0.3-0.2-0.5-0.3-0.5c0-0.2-0.1-0.5-0.2-1c-0.1-0.4-0.2-0.7-0.2-0.8
		c0-0.2,0-0.4,0-0.8c0-0.4-0.1-0.8-0.1-1.3c-0.1-0.5-0.1-0.9-0.1-1.3c0-0.4,0-0.7,0-0.8c-0.1-0.3-0.2-0.6-0.2-0.8
		c-0.1-0.3-0.1-0.5-0.2-0.7c-0.1-0.2-0.1-0.4-0.1-0.5c-0.1-0.5-0.3-1.1-0.7-1.9c-0.3-0.7-0.6-1.2-0.7-1.5c-0.1-0.2-0.2-0.7-0.4-1.4
		c-0.2-0.7-0.3-1.2-0.4-1.5c-0.1-0.3-0.2-0.6-0.4-1c-0.1-0.4-0.3-0.8-0.4-1.2c-0.2-0.5-0.4-0.9-0.5-1.5l-0.5,0c0,0.2,0,0.5,0,0.9
		c0,0.5,0,1,0,1.5c0,0.5,0,1,0,1.5c0,0.5,0,0.8,0,0.9c0,0.2-0.1,0.6-0.2,1.2s-0.2,1-0.3,1.1c0-0.1-0.1-0.3-0.2-0.7
		c-0.1-0.4-0.2-0.6-0.2-0.7c-0.1-0.2-0.1-0.4-0.2-0.7s-0.1-0.7-0.1-1.1c0-0.4-0.1-0.8-0.1-1.1c-0.1-0.4-0.1-0.6-0.2-0.8l-0.7,1.6
		l0,7.6l-0.5,0.7l-0.6-0.7l0-6.3c-0.1,0.1-0.2,0.3-0.4,0.5c-0.2,0.3-0.4,0.5-0.6,0.8c-0.2,0.3-0.4,0.6-0.5,0.8
		c-0.2,0.3-0.3,0.5-0.3,0.6c-0.1,0.1-0.2,0.4-0.5,1c-0.3,0.5-0.5,1.2-0.8,1.9s-0.6,1.4-1,2.2c-0.3,0.7-0.6,1.3-0.7,1.7
		c-0.1,0.2-0.2,0.4-0.4,0.7c-0.2,0.2-0.3,0.5-0.4,0.7c-0.1,0.3-0.2,0.7-0.4,1.2c-0.2,0.5-0.4,1-0.5,1.5s-0.3,1-0.5,1.4
		c-0.2,0.4-0.3,0.7-0.3,0.7c0,0.1,0.1,0.4,0.2,0.8c0.1,0.4,0.2,0.7,0.2,0.8c0.2,0,0.5,0,1,0s1,0,1.5,0c0.5,0,1.1,0,1.5,0
		s0.9,0,1.1-0.1c0.1,0,0.2,0,0.5,0c0.3,0,0.6-0.1,0.9-0.1c0.3-0.1,0.7-0.1,1-0.1c0.3,0,0.5,0,0.6,0c0.2-0.1,0.5-0.1,0.8-0.2
		c0.4-0.1,0.7-0.1,1.1-0.2c0.4-0.1,0.7-0.1,0.9-0.2c0.3-0.1,0.4-0.1,0.5-0.1l3.6,0l3,0c0.2,0.1,0.6,0.3,1.2,0.5s1.1,0.4,1.4,0.5
		c0.1,0.1,0.4,0.4,0.8,0.8c0.4,0.4,0.7,0.8,0.8,1c0.1,0.2,0.2,0.4,0.4,0.8c0.2,0.4,0.3,0.7,0.4,0.8l0,4.6c0,0.1-0.1,0.2-0.2,0.5
		c-0.1,0.3-0.2,0.5-0.2,0.6c-0.1,0.1-0.1,0.3-0.2,0.5s-0.2,0.5-0.4,0.7c-0.2,0.3-0.3,0.5-0.5,0.8c-0.2,0.3-0.3,0.5-0.3,0.6
		s-0.1,0.3-0.2,0.5c-0.1,0.1-0.2,0.2-0.3,0.3c-0.1,0.1-0.1,0.2-0.2,0.3c-0.2,0.2-0.5,0.5-0.8,0.9c-0.3,0.4-0.5,0.6-0.6,0.7
		c0,0.1-0.1,0.2-0.3,0.4c-0.2,0.2-0.3,0.3-0.4,0.4c-0.1,0.1-0.3,0.3-0.5,0.5c-0.3,0.2-0.5,0.4-0.8,0.7s-0.5,0.4-0.8,0.6
		c-0.2,0.2-0.4,0.3-0.4,0.3c-0.1,0.1-0.3,0.3-0.7,0.5c-0.3,0.2-0.6,0.4-0.7,0.5c-0.1,0-0.3,0.1-0.5,0.3c-0.3,0.2-0.6,0.4-0.9,0.5
		c-0.3,0.2-0.6,0.4-0.9,0.5c-0.3,0.2-0.4,0.3-0.5,0.3c-0.1,0-0.2,0.1-0.3,0.2c-0.1,0.1-0.1,0.1-0.1,0.2l0,1.2c0,0.2,0,0.5,0.1,1.1
		c0.1,0.6,0.1,1.2,0.1,1.9c0,0.7,0.1,1.3,0.1,1.9s0.1,0.9,0.1,1l0,5.5c0,0.1,0,0.3-0.1,0.6c-0.1,0.3-0.1,0.6-0.1,0.9
		c0,0.3-0.1,0.6-0.1,0.9c0,0.3-0.1,0.5-0.1,0.5c-0.1-0.2-0.2-0.5-0.3-1c-0.1-0.5-0.2-0.9-0.3-1.1c-0.1-0.4-0.1-1.1-0.2-2.2
		c-0.1-1.1-0.2-2.2-0.2-3.4s-0.2-2.3-0.2-3.4c-0.1-1.1-0.1-1.8-0.1-2.2L572.8,73.4L572.8,73.4z M539.8,71.6c0.1,0.4,0.1,0.7,0.2,1.1
		c0.1,0.4,0.1,0.7,0.1,0.8c0.1,0.1,0.2,0.4,0.3,0.9c0.1,0.5,0.2,0.8,0.2,0.9l0,0.8c0,0.1,0,0.3-0.2,0.7c-0.1,0.3-0.2,0.6-0.3,0.7
		c0,0.1-0.1,0.2-0.3,0.5c-0.2,0.3-0.3,0.5-0.4,0.6l-0.9,0.9c-0.1,0.1-0.2,0.2-0.5,0.4s-0.5,0.3-0.6,0.4c-0.1,0.1-0.2,0.2-0.3,0.2
		c-0.1,0-0.2,0.1-0.3,0.1c-0.2,0.1-0.3,0.1-0.3,0.1c-0.2,0.1-0.3,0.1-0.4,0.2c-0.1,0.1-0.1,0.1-0.2,0.1h-0.2c-0.2,0-0.4,0-0.5-0.1
		c-0.2-0.1-0.3-0.1-0.4-0.2c-0.1,0-0.2,0-0.2-0.1c-0.1-0.1-0.2-0.2-0.2-0.3c0-0.1-0.1-0.3-0.2-0.7c-0.1-0.4-0.2-0.7-0.3-1
		c-0.1-0.3-0.1-0.8-0.3-1.4c-0.1-0.6-0.2-1.3-0.4-1.9c-0.1-0.7-0.2-1.3-0.4-1.9c-0.1-0.6-0.2-0.9-0.3-1.1c0-0.1,0-0.2-0.1-0.4
		c-0.1-0.2-0.1-0.5-0.1-0.8c0-0.3-0.1-0.6-0.1-0.9c-0.1-0.3-0.1-0.6-0.1-0.8c0-0.2,0-0.4-0.1-0.8c-0.1-0.4-0.1-0.7-0.2-1.1
		s-0.1-0.7-0.2-1c-0.1-0.3-0.1-0.4-0.1-0.5c0-0.3,0-0.8,0-1.4c0-0.6-0.1-1.3-0.1-2c-0.1-0.7-0.1-1.3-0.1-1.9c0-0.5,0-0.9,0-1l0-9.4
		l0-9.3c0-0.1,0-0.3,0.2-0.6s0.2-0.5,0.2-0.5c0.1-0.1,0.2-0.3,0.3-0.5c0.1-0.2,0.1-0.3,0.2-0.4c0.1-0.1,0.3-0.3,0.5-0.5
		c0.2-0.2,0.4-0.4,0.6-0.7c0.2-0.2,0.4-0.4,0.6-0.6s0.3-0.3,0.4-0.3c0.1-0.1,0.4-0.2,0.8-0.4s0.7-0.3,0.8-0.4l0.7,0l0.7,0
		c0.1,0.1,0.1,0.2,0.2,0.2l0.2,0.2c0.1,0.1,0.1,0.4,0.2,0.8c0.1,0.4,0.1,0.7,0.1,0.8l0.1,20.5c0.2-0.1,0.4-0.3,0.8-0.5
		c0.4-0.2,0.8-0.4,1.3-0.6c0.4-0.2,0.8-0.4,1.2-0.6c0.4-0.2,0.7-0.3,0.8-0.4c0.1-0.1,0.3-0.3,0.7-0.5c0.3-0.2,0.6-0.4,0.7-0.5
		c0.2-0.2,0.5-0.4,0.8-0.7c0.4-0.3,0.7-0.6,1-0.9c0.3-0.3,0.6-0.5,0.9-0.7c0.3-0.2,0.4-0.3,0.4-0.3c0.2-0.2,0.6-0.6,1.1-1.1
		c0.5-0.5,1.1-1.1,1.7-1.7c0.6-0.6,1.1-1.1,1.7-1.7c0.5-0.5,0.8-0.9,1-1.2c0.1,0,0.1-0.1,0.2-0.3c0.1-0.2,0.2-0.3,0.3-0.3
		c0-0.1,0.1-0.3,0.2-0.7c0.1-0.4,0.2-0.6,0.2-0.7c0.1-0.1,0.1-0.1,0.1-0.2c0-0.1,0-0.2,0.1-0.2c0.1-0.1,0.1-0.2,0.2-0.3
		c0.2-0.3,0.4-0.6,0.7-1c0.3-0.4,0.6-0.6,0.7-0.7c0.1-0.1,0.4-0.4,0.9-0.8c0.5-0.4,0.9-0.8,1.2-1l0.3-0.2c0.2-0.1,0.3-0.2,0.4-0.2
		c0.2-0.1,0.4-0.2,0.7-0.3c0.3-0.1,0.6-0.1,0.7-0.1l0.3-0.1c0.1,0,0.1,0,0.2,0c0.1,0,0.1,0,0.2,0l0.1,0c0.4,0,0.5,0.1,0.5,0.4l0,2.1
		c0,0.1-0.1,0.2-0.2,0.4s-0.2,0.4-0.3,0.7c-0.1,0.3-0.3,0.5-0.4,0.8c-0.2,0.3-0.3,0.4-0.3,0.5c-0.1,0.2-0.4,0.6-0.8,1.3
		c-0.4,0.6-0.8,1.1-1,1.4c0,0.2-0.3,0.5-0.8,1c-0.5,0.5-0.8,0.9-0.9,1.1c-0.2,0.2-0.5,0.6-0.9,1.1c-0.5,0.5-1,1.1-1.5,1.6
		c-0.5,0.6-1,1.1-1.5,1.6s-0.8,0.9-0.9,1c0.1,0.1,0.3,0.3,0.6,0.5c0.3,0.2,0.5,0.4,0.6,0.5c0.1,0.1,0.3,0.2,0.5,0.4
		c0.2,0.2,0.4,0.4,0.7,0.6c0.2,0.2,0.4,0.4,0.6,0.7c0.2,0.2,0.3,0.3,0.3,0.4c0.1,0.1,0.3,0.4,0.7,1.2c0.4,0.7,0.6,1.3,0.9,1.7
		c0.1,0.2,0.3,0.6,0.6,1.2c0.4,0.7,0.7,1.4,1.1,2.1c0.4,0.7,0.8,1.4,1.1,2.1c0.3,0.7,0.6,1.1,0.7,1.2c0,0.1,0.1,0.3,0.3,0.7
		c0.2,0.3,0.4,0.7,0.7,1.2c0.3,0.4,0.5,0.9,0.8,1.3s0.5,0.8,0.7,1c0.1,0.1,0.3,0.3,0.5,0.6c0.2,0.3,0.4,0.5,0.5,0.6
		c0.1,0.2,0.3,0.5,0.6,0.9c0.3,0.4,0.5,0.7,0.5,0.9c0.2,0.3,0.5,0.7,1,1.2c0.4,0.6,0.7,0.8,0.8,0.8c0.2,0.2,0.5,0.6,1,1.1l3.3,3.2
		c0.5,0.5,0.9,0.8,1.2,1c0,0.1,0.1,0.2,0.2,0.4l0,0.1c0.1,0.2,0.2,0.3,0.2,0.4l0,0.5c-0.1,0.2-0.2,0.4-0.4,0.9
		c-0.2,0.4-0.3,0.7-0.3,0.8c-0.1,0.1-0.3,0.3-0.5,0.5c-0.2,0.3-0.5,0.5-0.8,0.8c-0.3,0.3-0.6,0.5-0.8,0.7c-0.3,0.2-0.5,0.4-0.6,0.5
		l-0.5,0.2c-0.3,0.1-0.5,0.2-0.7,0.2l-0.9,0c-0.2-0.1-0.3-0.1-0.4-0.2c-0.1,0-0.1,0-0.1,0c0,0-0.1,0-0.1,0c-0.1,0-0.1,0-0.2-0.1
		c-0.1-0.2-0.4-0.5-0.8-0.8c-0.4-0.3-0.7-0.5-0.8-0.6c-0.2-0.1-0.6-0.3-1.1-0.9c-0.5-0.5-0.9-0.9-1-1.2c-0.1-0.1-0.3-0.3-0.5-0.5
		c-0.3-0.3-0.5-0.5-0.8-0.8c-0.3-0.3-0.5-0.6-0.8-0.8c-0.3-0.3-0.4-0.4-0.5-0.5c-0.1-0.1-0.2-0.3-0.4-0.6c-0.2-0.3-0.5-0.6-0.7-1
		c-0.3-0.4-0.5-0.7-0.8-1.1c-0.3-0.4-0.4-0.6-0.5-0.8c-0.1-0.1-0.3-0.3-0.5-0.6c-0.2-0.3-0.4-0.5-0.5-0.5c-0.2-0.3-0.4-0.7-0.9-1.4
		c-0.4-0.7-0.8-1.4-1.2-2.2s-0.8-1.5-1.2-2.2c-0.4-0.7-0.7-1.1-0.9-1.4l-0.7-0.4l0,2.1l-0.5,0c-0.1-0.2-0.1-0.4-0.2-0.6
		c-0.1-0.2-0.1-0.4-0.2-0.6c-0.1-0.2-0.1-0.3-0.2-0.5c0-0.1,0-0.3-0.1-0.7c-0.1-0.4-0.1-0.7-0.1-1.1c0-0.4-0.1-0.8-0.1-1.1
		s-0.1-0.6-0.1-0.7c0-0.1-0.1-0.3-0.2-0.6c-0.1-0.3-0.2-0.6-0.2-0.8l-0.5-0.7c-0.1-0.1-0.3-0.3-0.5-0.5c-0.2-0.3-0.4-0.4-0.5-0.4
		l0,0.9c0.1,0.2,0.1,0.7,0.2,1.6c0.1,0.8,0.1,1.8,0.2,2.7c0.1,1,0.1,1.9,0.1,2.8s0,1.4,0,1.6l0,11.6l-0.5,2.1l-0.4-0.4
		c0,0,0-0.1-0.1-0.4c-0.1-0.3-0.1-0.6-0.1-0.9c0-0.4-0.1-0.7-0.1-1.1c0-0.4,0-0.6,0-0.8c-0.1-0.3-0.1-0.8-0.2-1.7
		c-0.1-0.9-0.1-2-0.2-3.2c-0.1-1.2-0.1-2.5-0.2-3.9s-0.2-2.7-0.2-3.9c-0.1-1.2-0.1-2.3-0.1-3.2c0-0.9,0-1.5,0-1.8
		c-0.1-0.1-0.1-0.3-0.2-0.7c-0.1-0.3-0.1-0.7-0.1-1c0-0.3-0.1-0.7-0.1-1c-0.1-0.3-0.1-0.5-0.2-0.6c-0.1,0-0.3,0-0.6-0.1
		c-0.3-0.1-0.5-0.1-0.5-0.1c-0.1,0-0.4,0.1-0.8,0.2c-0.2,0.1-0.4,0.1-0.5,0.1c-0.1,0-0.4,0.1-1,0.3c-0.6,0.2-1.1,0.3-1.5,0.4
		c-0.1,0.1-0.4,0.2-0.8,0.4c-0.4,0.2-0.7,0.3-0.8,0.4c0,0.2,0,0.4,0.1,0.7c0.1,0.3,0.1,0.6,0.1,0.9c0,0.3,0.1,0.6,0.1,0.9
		c0.1,0.3,0.1,0.5,0.1,0.6c0.1,0.3,0.2,0.7,0.3,1.3c0.1,0.6,0.2,1,0.3,1.1c0,0.2,0,0.4,0.1,0.8c0.1,0.3,0.1,0.6,0.2,0.9L539.8,71.6
		L539.8,71.6z M480.9,75.8c-0.1,0.3-0.3,0.7-0.5,1.4c-0.3,0.6-0.4,1-0.4,1.2c0,0.1,0,0.3,0,0.5c0,0.2,0,0.4,0,0.5l0.5,0
		c0.2-0.1,0.5-0.2,1.1-0.3c0.6-0.1,0.9-0.2,1-0.3l0-0.2l0-0.2c0-0.2-0.1-0.6-0.4-1.2c-0.2-0.6-0.4-1.1-0.4-1.3
		c-0.1,0-0.2-0.1-0.3-0.3c-0.1-0.2-0.1-0.3-0.2-0.3C481.2,75.1,480.9,75.8,480.9,75.8z M568,60.9c0,0.1,0,0.3,0,0.5
		c0,0.2,0,0.5,0.1,0.7c0.1,0.3,0.1,0.5,0.2,0.8c0,0.2,0.1,0.5,0.3,0.9c0.2,0.4,0.4,0.7,0.6,0.9c0,0.1,0.2,0.3,0.7,0.8
		c0.4,0.5,0.8,0.8,1,0.9c0.1,0,0.2,0.1,0.4,0.2c0.2,0.1,0.3,0.2,0.4,0.2l2.3,0l1.9,0c0.1,0,0.2-0.1,0.4-0.2c0.2-0.1,0.5-0.2,0.7-0.3
		c0.3-0.1,0.5-0.3,0.8-0.4c0.3-0.2,0.4-0.3,0.5-0.4c0.1-0.1,0.3-0.2,0.5-0.4s0.4-0.3,0.5-0.4c0.1-0.2,0.2-0.5,0.4-0.9
		c0.2-0.4,0.3-0.7,0.3-0.9l0-1l0-1.1c0-0.1-0.1-0.4-0.4-0.8c-0.2-0.4-0.4-0.7-0.4-0.8c-0.1-0.1-0.3-0.2-0.7-0.4
		c-0.3-0.2-0.6-0.3-0.7-0.3c-0.1-0.1-0.4-0.2-0.9-0.3c-0.6-0.1-1-0.1-1.2-0.1l-1,0l-1.1,0c-0.3,0-0.6,0-1.1,0s-0.9,0.1-1.4,0.1
		c-0.5,0-0.9,0.1-1.3,0.1c-0.4,0.1-0.6,0.1-0.7,0.2c-0.1,0-0.3,0.1-0.5,0.2c-0.2,0.1-0.3,0.1-0.4,0.2c0,0.2,0,0.6-0.1,1.1
		C568,60.4,568,60.7,568,60.9L568,60.9z"/>
	<path fill="#FF0000" stroke="#FFFFFF" stroke-linejoin="round" stroke-miterlimit="1.4142" d="M445.8,56.8c0.1,0.1,0.2,0.1,0.3,0.1
		c0.1,0,0.2,0.1,0.4,0.3c0.2,0.2,0.3,0.3,0.3,0.4c0,0.1,0,0.1,0.1,0.2c0,0.1,0,0.1,0,0.2c0,0.1,0,0.1,0,0.2l-0.2,0.3
		c0,0.2,0,0.5-0.1,0.8s-0.1,0.5-0.2,0.5c0,0-0.1,0.1-0.2,0.3c-0.1,0.2-0.2,0.4-0.4,0.5c-0.2,0.2-0.3,0.4-0.5,0.5s-0.3,0.3-0.3,0.3
		c-0.1,0.1-0.1,0.1-0.1,0.2c0,0.1-0.1,0.2-0.1,0.3c-0.1,0.2-0.1,0.3-0.2,0.4l0.1,12.5l0.5,0c0.1,0,0.2,0,0.4-0.1
		c0.2-0.1,0.5-0.1,0.7-0.1c0.2,0,0.5-0.1,0.7-0.1c0.2-0.1,0.3-0.1,0.3-0.1c0.4-0.1,1-0.2,1.9-0.4c0.9-0.2,1.9-0.4,2.9-0.6
		c1.1-0.2,2-0.4,2.9-0.5s1.5-0.3,1.9-0.3l0.7-0.4l-0.1-13c0-0.1,0.1-0.3,0.4-0.7c0.3-0.4,0.5-0.7,0.6-1l2.1-2.1
		c0.1,0,0.3-0.1,0.7-0.3c0.4-0.2,0.6-0.3,0.8-0.4l0.3,0l0.2,0c0.2,0,0.4,0,0.7,0.2c0.2,0,0.3,0.1,0.4,0.2l0.1,15l0.5,2.5l0.1,12.8
		c0.1,0.5,0.1,1.4,0.2,2.6c0,1.1,0.1,2.2,0.1,3.3l0,1c0,1.2,0.1,2.3,0.1,3.3c0.1,1.2,0.1,2,0.2,2.5c0,0.1,0,0.2,0.1,0.5
		c0.1,0.3,0.1,0.7,0.1,1c0,0.4,0.1,0.7,0.1,1.1s0.1,0.5,0.1,0.6l0,2.1c0,0.1-0.1,0.3-0.2,0.6l0,0.1c-0.1,0.3-0.2,0.5-0.2,0.6
		c-0.1,0.1-0.1,0.4-0.2,0.8c0,0.5-0.1,1-0.1,1.5c0,0.5-0.1,1-0.1,1.4c0,0.4-0.1,0.7-0.2,0.7c0,0.2,0,0.5-0.1,0.8
		c-0.1,0.3-0.2,0.5-0.3,0.6c-0.1,0.1-0.1,0.1-0.2,0.1c-0.1,0.1-0.3,0.1-0.5,0.1l0-4.3c0,0.2,0,0.4,0,0.9c0,0.4-0.1,0.9-0.1,1.4
		c0,0.5-0.1,1-0.1,1.4c0,0.4-0.1,0.7-0.2,0.9c0,0.2-0.1,0.4-0.2,0.7c-0.1,0.3-0.2,0.5-0.3,0.5c0,0.1,0,0.1-0.1,0.2l0,0.1h-0.1
		l-0.2,0c-0.1,0-0.1-0.1-0.1-0.2c0-0.1-0.1-0.4-0.2-1c-0.1-0.6-0.2-0.9-0.2-1.1c-0.1-0.2-0.2-0.6-0.3-1.2c-0.1-0.6-0.2-1-0.2-1.2
		l-0.9,0c-0.1,0-0.2-0.1-0.4-0.2c-0.2-0.1-0.3-0.2-0.3-0.3c-0.1,0-0.2-0.2-0.3-0.5c-0.1-0.3-0.1-0.6-0.2-0.7
		c-0.1-0.2-0.2-0.6-0.3-1.1c-0.1-0.5-0.1-0.9-0.1-1c-0.1-0.2-0.1-0.6-0.2-1.2c-0.1-0.6-0.1-1.3-0.1-2c0-0.7-0.1-1.4-0.1-2
		s-0.1-1.1-0.2-1.3c0-0.4,0-1.2-0.1-2.6c-0.1-1.2-0.1-2.5-0.1-3.9l0-1.2c0-1.4-0.1-2.7-0.1-3.9c-0.1-1.4-0.1-2.3-0.1-2.6
		c0-0.2,0-0.4,0-0.8c0-0.4-0.1-0.8-0.1-1.2c-0.1-0.4-0.1-0.8-0.1-1.2c0-0.4,0-0.7,0-0.8l-1.1,0l-1,0c-0.3,0-0.7,0.1-1.4,0.2
		c-0.6,0.1-1,0.2-1.2,0.2c0,0.1-0.1,0.2-0.2,0.3c-0.1,0.1-0.2,0.2-0.2,0.3c0,0.3-0.1,0.9-0.1,1.6c0,0.8-0.1,1.6-0.1,2.5
		c0,0.9-0.1,1.8-0.1,2.5s-0.1,1.4-0.1,1.7c0,0.1,0,0.4-0.1,0.8c0,0.5-0.1,1-0.1,1.6c0,0.6-0.1,1.2-0.1,1.7s-0.1,0.9-0.1,1.2
		c0,0.2,0,0.4,0,0.8c0,0.4-0.1,0.8-0.1,1.3c0,0.5-0.1,0.9-0.1,1.3s0,0.6,0,0.7c0,0.2-0.1,0.4-0.2,0.7c0,0.2-0.1,0.5-0.1,0.8l0,0.2
		c0,0.3-0.1,0.5-0.1,0.8c-0.1,0.3-0.1,0.5-0.1,0.6c0-0.2-0.1-0.6-0.2-1.1l0-0.2c-0.1-0.6-0.2-0.9-0.2-1.1l0-1l0-1.1
		c0-0.3,0-0.8,0.1-1.7c0-0.9,0.1-1.9,0.1-2.9c0-1.1,0.1-2,0.1-2.9s0.1-1.4,0.1-1.7l0-7l-0.6,0c0,0.1,0,0.3,0,0.5
		c0,0.3,0.1,0.5,0.1,0.8c0,0.3,0.1,0.6,0.1,0.9s0,0.5,0,0.6c-0.1,0.2-0.2,0.6-0.3,1.1c-0.1,0.5-0.2,0.8-0.3,1h-0.2l-0.2,0
		c-0.1-0.1-0.1-0.2-0.3-0.4c-0.1-0.2-0.2-0.3-0.2-0.4c0-0.2,0-0.4,0-0.8c0-0.4,0-0.7,0-1.1s0-0.7,0-1.1c0-0.3,0-0.6,0-0.7
		c-0.1,0-0.4,0-0.9-0.1c-0.5,0-0.8-0.1-0.9-0.1c-0.2,0-0.4,0.1-0.8,0.2c-0.4,0.1-0.7,0.2-0.8,0.3l0,2.5c0.1,0.2,0.1,0.5,0.2,1.1
		c0.1,0.6,0.2,1.3,0.3,2c0.1,0.8,0.2,1.5,0.3,2.3c0.1,0.7,0.1,1.3,0.2,1.7c0,0.2,0,0.6,0.1,1.1c0.1,0.5,0.2,1.1,0.3,1.7
		c0.1,0.6,0.2,1.2,0.3,1.8c0.1,0.6,0.1,1,0.1,1.2c0,0.1,0,0.4,0.1,0.8c0.1,0.4,0.2,0.9,0.3,1.4c0.1,0.5,0.2,1,0.3,1.4
		c0.1,0.5,0.2,0.8,0.2,0.9l0,1.7c-0.1,0.1-0.1,0.1-0.2,0.2c-0.1,0.1-0.1,0.2-0.2,0.3c-0.1,0.1-0.1,0.1-0.2,0.2
		c-0.1,0.2-0.2,0.5-0.4,0.8c-0.2,0.3-0.3,0.5-0.4,0.6c-0.1,0.1-0.2,0.3-0.4,0.5c-0.2,0.2-0.5,0.5-0.7,0.7c-0.3,0.3-0.5,0.5-0.8,0.7
		s-0.4,0.4-0.5,0.5l0.1,18.8l-0.4,0.8c-0.1-0.2-0.2-0.5-0.4-1c-0.1-0.5-0.2-0.9-0.2-1.1c0-0.2,0-0.4-0.1-0.8
		c-0.1-0.4-0.1-0.8-0.1-1.3c0-0.4-0.1-0.8-0.1-1.2c-0.1-0.4-0.1-0.7-0.1-0.8c0-0.5,0-1.4-0.1-2.7c0-1.1-0.1-2.3-0.1-3.5l0-1
		c0-1.2-0.1-2.4-0.1-3.5c-0.1-1.3-0.1-2.1-0.2-2.7c-0.1-0.1-0.2-0.4-0.4-0.8c-0.2-0.4-0.3-0.8-0.3-1c-0.1-0.1-0.2-0.3-0.4-0.7
		c-0.1-0.4-0.2-0.7-0.2-0.9c0-0.1,0-0.4-0.1-0.8c-0.1-0.4-0.2-0.9-0.3-1.5c-0.1-0.5-0.2-1.1-0.3-1.5s-0.1-0.9-0.2-1.1
		c0-0.3-0.1-0.8-0.2-1.6c-0.1-0.8-0.2-1.2-0.2-1.4c-0.1-0.6-0.2-1.6-0.4-3c-0.2-1.4-0.3-2.9-0.5-4.4c-0.2-1.5-0.4-2.9-0.5-4.2
		c-0.2-1.3-0.3-2.2-0.4-2.6c0-0.3,0-0.6,0-1.1c0-0.5-0.1-0.9-0.1-1.4c-0.1-0.5-0.1-0.9-0.1-1.3c0-0.4,0-0.6,0-0.7l0-4.9l0-4.6
		c0-0.1,0-0.5,0.1-1.2c0.1-0.7,0.1-1.2,0.1-1.5c0.1-0.3,0.2-0.5,0.3-0.9l0.2-0.6c0.1-0.2,0.3-0.6,0.7-1.3c0.3-0.6,0.5-1.1,0.6-1.4
		c0.1-0.1,0.2-0.2,0.4-0.5c0.2-0.3,0.3-0.5,0.4-0.6l0.9-0.9c0.1-0.1,0.3-0.2,0.6-0.4c0.3-0.2,0.5-0.3,0.5-0.4l0.9-0.5
		c0.2-0.1,0.4-0.2,0.7-0.2c0.1,0,0.2,0,0.3-0.1l0,0c0.1-0.1,0.2-0.1,0.3-0.1C445.5,56.7,445.6,56.7,445.8,56.8L445.8,56.8
		L445.8,56.8z M514.6,46.3c0.1,0,0.2,0.1,0.4,0.2c0.2,0.1,0.3,0.2,0.4,0.3l0.4,0.3c0.1,0.1,0.1,0.2,0.2,0.3c0.1,0.1,0.1,0.3,0.2,0.4
		c0.1,0.2,0.1,0.4,0.2,0.5c0.1,0.2,0.2,0.4,0.4,0.7c0.2,0.3,0.3,0.6,0.4,0.7c0.2,0.2,0.5,0.6,1.1,1.2c0.6,0.6,1.2,1.2,1.9,1.8
		l3.3,3.2c0.1,0,0.2,0.1,0.5,0.3c0.3,0.2,0.6,0.5,0.9,0.8c0.3,0.3,0.7,0.6,1,0.8s0.5,0.4,0.6,0.5c0.1,0.1,0.3,0.3,0.6,0.6
		s0.6,0.6,0.9,0.9c0.3,0.3,0.6,0.6,0.8,0.9c0.3,0.3,0.4,0.5,0.5,0.6c0.1,0.1,0.1,0.3,0.3,0.5c0.1,0.2,0.2,0.4,0.2,0.5
		c-0.1,0.2-0.2,0.3-0.2,0.5c-0.1,0.1-0.1,0.2-0.2,0.3c0,0.1-0.1,0.2-0.1,0.3c0,0.1,0,0.2-0.1,0.3c-0.1,0.1-0.1,0.2-0.2,0.3
		c0,0.2-0.1,0.3-0.2,0.4c-0.1,0.1-0.3,0.2-0.5,0.4c-0.2,0.2-0.4,0.4-0.7,0.6c-0.2,0.2-0.4,0.5-0.6,0.7c-0.2,0.2-0.3,0.3-0.3,0.4
		c-0.1,0.1-0.4,0.2-0.8,0.4c-0.4,0.2-0.7,0.3-0.9,0.4l-0.6,0l-0.7,0c-0.1-0.1-0.3-0.2-0.5-0.4c-0.3-0.2-0.5-0.4-0.9-0.7
		c-0.3-0.2-0.6-0.4-0.9-0.7c-0.3-0.2-0.5-0.3-0.6-0.4c-0.3-0.3-0.8-0.6-1.4-1c-0.6-0.4-1-0.6-1.1-0.7c-0.2-0.1-0.6-0.3-1.2-0.6
		c-0.7-0.3-1.1-0.5-1.4-0.5c-0.2-0.1-0.6-0.3-1.2-0.5c-0.6-0.2-1-0.4-1.2-0.5l-0.7,0l0,4.2l-0.7,0l0-4.6l-0.7,0
		c0,0.2-0.2,0.6-0.4,1.1c-0.2,0.5-0.3,0.8-0.4,1l-0.4,0.4c-0.1-0.1-0.2-0.3-0.3-0.6c-0.1-0.3-0.2-0.5-0.3-0.5c0-0.2-0.1-0.6-0.2-1.1
		c-0.1-0.5-0.2-0.8-0.2-1c-0.2-0.1-0.6-0.2-1.2-0.3c-0.6-0.1-1-0.2-1.2-0.3l-4.6,0c-0.2,0.1-0.3,0.1-0.5,0.2l-0.8,0.4
		c-0.2,0.1-0.4,0.2-0.9,0.4c-0.4,0.2-0.7,0.3-0.8,0.4l-0.4,0.4c-0.1,0.1-0.1,0.3-0.3,0.5c-0.1,0.2-0.2,0.4-0.2,0.5l0,4.2
		c0.1,0.2,0.2,0.4,0.4,0.6c0.1,0.2,0.2,0.3,0.3,0.5c0.1,0.2,0.1,0.3,0.2,0.4c0.1,0.2,0.3,0.5,0.5,0.8c0.2,0.3,0.4,0.5,0.5,0.6
		c0.1,0.1,0.2,0.3,0.4,0.5c0.2,0.2,0.4,0.5,0.7,0.7c0.2,0.3,0.5,0.5,0.7,0.7c0.2,0.2,0.3,0.4,0.4,0.5c0.1,0.2,0.2,0.4,0.5,0.6
		c0.3,0.3,0.6,0.5,0.9,0.8c0.3,0.3,0.6,0.6,0.9,0.9s0.5,0.5,0.6,0.7c0.1,0.1,0.3,0.3,0.5,0.5c0.3,0.2,0.5,0.4,0.9,0.7
		c0.3,0.3,0.6,0.5,0.9,0.8c0.3,0.2,0.5,0.4,0.7,0.4c0.1,0.1,0.4,0.3,0.8,0.7c0.4,0.3,0.7,0.6,0.8,0.7c0.2,0.1,0.4,0.2,0.6,0.4
		c0.3,0.2,0.5,0.3,0.8,0.5s0.5,0.3,0.8,0.4c0.2,0.1,0.4,0.2,0.4,0.3c0.1,0.1,0.5,0.3,1.2,0.6s1.1,0.5,1.3,0.6
		c0.1,0.1,0.2,0.1,0.3,0.2s0.2,0.1,0.3,0.2l0.5,0.2l1.6,0l1.4,0c0.1,0,0.1-0.1,0.2-0.2s0.2-0.2,0.3-0.3l0.3-0.7
		c0.1-0.2,0.2-0.4,0.3-0.8c0.1-0.4,0.1-0.7,0.1-0.9c0.1-0.1,0.1-0.3,0.2-0.6c0.1-0.3,0.1-0.6,0.2-0.9c0-0.3,0.1-0.6,0.1-0.9
		c0-0.3,0-0.5,0-0.6c0-0.2,0.1-0.5,0.2-0.8s0.2-0.6,0.2-0.7c0.1-0.1,0.1-0.3,0.2-0.5c0.1-0.3,0.2-0.4,0.3-0.4
		c0.1-0.1,0.2-0.3,0.4-0.5c0.2-0.3,0.5-0.5,0.8-0.8c0.3-0.3,0.5-0.5,0.7-0.7c0.2-0.2,0.4-0.4,0.5-0.5c0.1-0.1,0.2-0.1,0.4-0.2
		c0.3-0.1,0.5-0.2,0.5-0.2c0.1-0.1,0.2-0.1,0.3-0.2c0.1-0.1,0.2-0.1,0.3-0.2c0.2-0.1,0.3-0.2,0.5-0.2c0.1,0.1,0.3,0.3,0.5,0.5
		c0.3,0.2,0.4,0.4,0.4,0.5l0,2.9c0,0.1,0,0.5-0.2,1.1c-0.1,0.6-0.1,1.1-0.1,1.5c-0.1,0.1-0.2,0.4-0.3,0.8c-0.1,0.4-0.2,0.7-0.3,0.8
		c0,0.2-0.1,0.5-0.3,1c-0.2,0.5-0.4,0.9-0.4,1.1c0,0.2-0.1,0.5-0.4,0.9c-0.3,0.5-0.4,0.7-0.5,0.8c0,0.1-0.1,0.3-0.3,0.7
		c-0.2,0.3-0.3,0.6-0.4,0.7c-0.2,0.2-0.5,0.5-0.8,0.9c-0.3,0.4-0.5,0.7-0.6,0.8l-0.7,0.7c-0.1,0.1-0.4,0.3-0.8,0.7
		c-0.4,0.3-0.8,0.6-1,0.7c-0.1,0.1-0.2,0.1-0.3,0.2c-0.1,0.1-0.2,0.1-0.3,0.2l-0.5,0.3c-0.1,0.1-0.2,0.1-0.4,0.2
		c-0.2,0.1-0.4,0.2-0.7,0.3c-0.2,0.1-0.5,0.2-0.7,0.3c-0.2,0.1-0.3,0.1-0.4,0.1c-0.1,0.1-0.3,0.2-0.5,0.3c-0.3,0.1-0.4,0.2-0.4,0.3
		l-0.3,0.7c-0.1,0.1-0.2,0.2-0.3,0.3c-0.1,0.1-0.1,0.2-0.2,0.2c0-0.1,0-0.2-0.1-0.5c-0.1-0.3-0.2-0.5-0.3-0.6c0-0.2-0.1-0.2-0.2-0.2
		h-0.1c-0.1,0-0.2,0.1-0.3,0.2c0,0.4,0,1-0.1,1.9c0,0.9-0.1,1.9-0.1,3c0,1.1-0.1,2.1-0.1,3c0,0.9-0.1,1.6-0.1,1.9
		c0,0.2,0,0.6-0.1,1.4c-0.1,0.7-0.1,1.3-0.1,1.7c-0.1,0.3-0.2,0.6-0.3,1.2c-0.1,0.5-0.2,0.8-0.2,0.9c0,0.1-0.1,0.2-0.2,0.4
		c-0.1,0.2-0.2,0.3-0.2,0.4l-0.1-16.3c-0.2,0-0.6-0.1-1.2-0.3c-0.7-0.2-1.1-0.4-1.4-0.5l-2.5-1.2c-0.1-0.1-0.3-0.2-0.7-0.4
		c-0.4-0.2-0.7-0.5-1.1-0.7l-2-1.3c-0.1-0.1-0.3-0.2-0.5-0.3c-0.2-0.2-0.4-0.4-0.7-0.5c-0.2-0.2-0.4-0.3-0.6-0.5
		c-0.2-0.2-0.3-0.3-0.3-0.3L495,76l-0.5-0.6c-0.1-0.2-0.2-0.3-0.3-0.5c-0.1-0.2-0.2-0.3-0.4-0.4c-0.1-0.2-0.3-0.4-0.5-0.7
		c-0.2-0.3-0.4-0.6-0.5-0.7l-0.4-0.7c0-0.1-0.1-0.3-0.2-0.7c-0.1-0.4-0.2-0.6-0.3-0.7c0-0.1-0.1-0.4-0.2-0.9
		c-0.1-0.2-0.1-0.4-0.2-0.7l0-1.5l0-1.4c0-0.2,0-0.5,0.2-0.9c0.1-0.4,0.2-0.7,0.1-0.9c0.1-0.2,0.3-0.5,0.5-1
		c0.2-0.4,0.4-0.9,0.7-1.3c0.2-0.4,0.4-0.8,0.6-1.2c0.2-0.4,0.3-0.6,0.3-0.7c0.1-0.1,0.3-0.3,0.7-0.7c0.4-0.4,0.8-0.8,1.2-1.2
		c0.4-0.4,0.9-0.9,1.3-1.3s0.7-0.8,1-1c0.1-0.1,0.3-0.3,0.7-0.5c0.3-0.2,0.6-0.4,0.7-0.5c0.2-0.1,0.6-0.2,1.2-0.5
		c0.6-0.3,1-0.5,1.2-0.6c0.3-0.1,0.7-0.3,1.3-0.5c0.6-0.2,1-0.4,1.2-0.5c0.2,0,0.4,0,0.8,0c0.4,0,0.9-0.1,1.4-0.1
		c0.5-0.1,1-0.1,1.4-0.1c0.4,0,0.7,0,0.9,0c-0.1-0.2-0.1-0.6-0.1-1.1c0-0.5,0-0.8,0.1-1c0-0.2,0.1-0.5,0.4-0.9
		c0.3-0.4,0.4-0.7,0.5-0.9c0.1-0.2,0.4-0.5,1-1c0.6-0.5,0.9-0.9,1.1-1.1l1.5-0.8l0.5,0L514.6,46.3L514.6,46.3L514.6,46.3z
		 M484.4,46.6l0,3.9c0,0,0,0.1,0,0.4c0,0.3-0.1,0.6-0.1,0.9c0,0.3-0.1,0.7-0.1,1c0,0.3,0,0.5,0,0.5l0,1.6c0,0.1,0,0.5,0,1.3
		c0,0.7,0.1,1.6,0.1,2.5c0,0.9,0.1,1.7,0.1,2.5s0.1,1.2,0.1,1.3c0,0.2,0.1,0.5,0.2,1.1s0.2,0.9,0.2,1c0.1,0.3,0.3,0.7,0.5,1.5
		c0.2,0.7,0.4,1.2,0.5,1.5c0.1,0.3,0.2,0.7,0.4,1.3c0.2,0.6,0.4,1.2,0.7,1.9c0.2,0.7,0.5,1.3,0.7,1.9c0.2,0.6,0.3,1,0.4,1.2
		c0.1,0.2,0.2,0.5,0.4,1s0.3,0.9,0.4,1.1c0.1,0.3,0.3,0.6,0.5,1s0.4,0.6,0.4,0.7c0.1,0,0.4,0.1,0.8,0.3c0.4,0.2,0.7,0.3,0.8,0.3
		c0.1,0.1,0.2,0.2,0.3,0.3c0.1,0.1,0.2,0.1,0.2,0.2c-0.1,0.3-0.2,0.9-0.1,1.7c0,0.8,0.1,1.4,0.2,1.7c0,0,0.1,0.2,0.2,0.5
		c0.2,0.3,0.3,0.7,0.5,1.2c0.2,0.5,0.4,0.9,0.7,1.4c0.3,0.5,0.5,0.8,0.6,1.1c0.1,0.1,0.2,0.6,0.5,1.4c0.3,0.8,0.6,1.8,0.9,2.8
		c0.3,1,0.7,1.9,0.9,2.8c0.3,0.9,0.5,1.3,0.5,1.4c0.1,0.4,0.3,0.7,0.5,0.9c0.1,0.2,0.2,0.4,0.4,0.6l0,1.7c-0.1,0.1-0.2,0.4-0.4,0.8
		c-0.2,0.4-0.3,0.8-0.4,1l-2.1,2.1c-0.1,0-0.3,0.1-0.5,0.2c-0.2,0.1-0.4,0.2-0.5,0.2l-1,0l-1.1,0c-0.1,0-0.3-0.2-0.8-0.5
		s-0.8-0.6-0.9-0.7c0-0.1-0.1-0.3-0.2-0.6s-0.2-0.5-0.2-0.6l0-1.4l-0.3-0.6c-0.1-0.2-0.2-0.3-0.2-0.5c-0.1-0.2-0.1-0.3-0.2-0.4
		c-0.4-0.6-0.8-1.5-1.3-2.9c-0.5-1.4-1.1-2.8-1.6-4.2c-0.6-1.7-1.3-3.5-2-5.4l-3.4,0c0,0.2,0,0.4-0.2,0.8c-0.1,0.4-0.2,0.7-0.2,0.8
		c-0.1,0-0.2,0.1-0.3,0.2c-0.1,0.1-0.1,0.2-0.2,0.2c0,0.2,0,0.6-0.1,1.1c0,0.5-0.1,1.1-0.1,1.7s-0.1,1.2-0.1,1.8s-0.1,1-0.1,1.2
		c-0.1,0.2-0.2,0.6-0.3,1.2c-0.1,0.6-0.2,1-0.3,1.2c0,0.2-0.1,0.4-0.2,0.8c-0.2,0.4-0.2,0.7-0.2,0.8l0-11.4c-0.2,0-0.4-0.1-0.7-0.2
		c-0.3-0.1-0.6-0.2-0.9-0.3c-0.3-0.1-0.6-0.2-0.8-0.2c-0.3-0.1-0.4-0.1-0.5,0c-0.1,0.2-0.2,0.4-0.4,0.6c-0.3,0.5-0.4,0.8-0.5,1.1
		c-0.1,0.2-0.2,0.6-0.4,1.1s-0.3,0.9-0.4,1c0,0.1,0,0.2,0,0.4s-0.1,0.4-0.1,0.7c0,0.2-0.1,0.5-0.1,0.7s0,0.3,0,0.4
		c0,0.1-0.1,0.2-0.2,0.4c-0.1,0.2-0.2,0.3-0.2,0.4c-0.2,0.1-0.4,0.3-0.6,0.5c-0.3,0.2-0.5,0.5-0.8,0.8c-0.3,0.3-0.5,0.5-0.8,0.8
		c-0.3,0.2-0.4,0.3-0.5,0.3l-1.5,0.9l-0.3,0l-0.2,0c-0.1,0-0.2-0.1-0.4-0.2c-0.2-0.1-0.3-0.2-0.4-0.3c-0.1-0.1-0.1-0.1-0.2-0.2
		c-0.1-0.2-0.2-0.4-0.2-0.5l0-0.5l0-0.4c0-0.2,0-0.5,0.1-0.9c0.1-0.5,0.2-0.7,0.2-0.8c0.1-0.2,0.3-0.6,0.5-1.1s0.4-1.1,0.6-1.7
		c0.2-0.6,0.4-1.1,0.6-1.7c0.2-0.5,0.3-0.8,0.4-1l0-0.8c-0.2,0-0.5,0-1-0.1c-0.5-0.1-0.9-0.2-1.1-0.3c0-0.1-0.1-0.3-0.2-0.5
		c-0.1-0.2-0.2-0.4-0.2-0.5V83l0-0.4c0-0.1,0-0.3,0.2-0.7c0-0.2,0.1-0.4,0.2-0.5l2.9-2.9c0.1,0,0.2,0,0.4-0.1
		c0.2-0.1,0.4-0.1,0.7-0.2c0.2-0.1,0.5-0.2,0.7-0.2c0.2-0.1,0.3-0.1,0.4-0.2c0-0.1,0.1-0.4,0.4-0.9c0.3-0.5,0.4-0.9,0.5-1.2
		c0-0.3,0.2-0.8,0.4-1.5c0.2-0.7,0.5-1.5,0.8-2.3c0.3-0.8,0.5-1.6,0.7-2.3c0.2-0.7,0.4-1.2,0.5-1.5c0.1-0.1,0.1-0.2,0.2-0.5
		c0.1-0.2,0.1-0.5,0.2-0.7l0.1-0.3c0.1-0.2,0.1-0.4,0.2-0.7c0.1-0.3,0.1-0.5,0.2-0.6c0.1-0.2,0.1-0.5,0.2-0.9
		c0.1-0.4,0.2-0.8,0.3-1.1c0.1-0.4,0.2-0.7,0.3-1c0.1-0.3,0.1-0.5,0.1-0.5c0-0.1,0-0.5,0-1.4s0-1.9,0.1-2.9c0-1.1,0-2,0-2.9
		c0-0.9,0-1.4,0-1.5c0.1-0.1,0.2-0.4,0.3-0.8c0.1-0.4,0.2-0.7,0.3-0.8c0-0.1,0.1-0.3,0.4-0.8c0.3-0.5,0.4-0.8,0.5-0.9
		c0-0.1,0.1-0.3,0.3-0.6c0.2-0.3,0.4-0.5,0.5-0.5c0-0.1,0-0.2,0.1-0.3c0.1-0.1,0.1-0.2,0.2-0.3c0.2-0.2,0.5-0.4,1-0.6
		c0.4-0.3,0.7-0.4,0.8-0.5c0.1-0.1,0.3-0.1,0.5-0.2c0.3-0.1,0.6-0.2,0.8-0.2l0.4,0l0.5,0L484.4,46.6L484.4,46.6z M571.2,71.7l-0.6,0
		l0,5.9l-0.7,0l-0.8-5.5c-0.3,0-0.8,0-1.5-0.1s-1.2-0.2-1.5-0.3c-0.1,0-0.3,0-0.6-0.1c-0.3-0.1-0.5-0.1-0.5-0.2
		c-0.2-0.1-0.5-0.3-1-0.5c-0.4-0.2-0.7-0.4-0.8-0.5l-0.5-0.5c-0.2-0.2-0.3-0.3-0.4-0.4c-0.1-0.1-0.2-0.2-0.3-0.2
		c0-0.1-0.1-0.3-0.3-0.7c-0.2-0.3-0.4-0.6-0.5-0.7c-0.1-0.2-0.2-0.4-0.4-0.9c-0.2-0.4-0.3-0.7-0.3-0.8c-0.1-0.1-0.2-0.4-0.4-0.8
		c-0.1-0.4-0.2-0.7-0.2-0.8l0-2.6l0-2.1c0-0.2,0.1-0.6,0.4-1.1c0.3-0.5,0.4-0.9,0.5-1c-0.2,0-0.4,0-0.8-0.1c-0.4,0-0.8-0.1-1.2-0.1
		c-0.4,0-0.8-0.1-1.2-0.1c-0.4,0-0.7-0.1-0.8-0.1c-0.1,0-0.3,0-0.5-0.2c-0.2-0.1-0.4-0.2-0.5-0.3c-0.1,0-0.2-0.1-0.4-0.3
		s-0.3-0.3-0.4-0.3c0-0.1-0.1-0.2-0.2-0.5c-0.1-0.2-0.1-0.3-0.2-0.4l0-1l0-1.1c0-0.1,0-0.3,0.2-0.8c0.1-0.5,0.2-0.8,0.2-0.9
		c0.1-0.2,0.2-0.6,0.4-1c0.2-0.5,0.4-1,0.5-1.5l0.8-2.4c0-0.3,0.3-0.8,0.8-1.5c0.5-0.7,0.8-1.4,0.9-1.8c0.1-0.2,0.3-0.6,0.5-1.2
		c0.3-0.6,0.5-1.3,0.8-2c0.3-0.7,0.6-1.4,0.8-2c0.3-0.6,0.4-1.1,0.5-1.4c0.3-0.6,0.6-1.2,1-1.8s0.9-1.2,1.3-1.8
		c0.5-0.6,0.9-1.2,1.3-1.9c0.4-0.7,0.7-1.4,0.9-2.2c0.1-0.1,0.2-0.2,0.3-0.5s0.3-0.5,0.5-0.8c0.2-0.3,0.4-0.6,0.5-0.9
		s0.3-0.5,0.4-0.7c0-0.1,0.1-0.2,0.3-0.6c0.2-0.3,0.3-0.6,0.4-0.8c0.2-0.2,0.4-0.4,0.7-0.8c0.3-0.4,0.6-0.6,0.7-0.7
		c0.1-0.2,0.4-0.5,0.8-1c0.4-0.4,0.7-0.7,0.8-0.8c0.1,0,0.2-0.1,0.5-0.4c0.3-0.3,0.5-0.4,0.6-0.5c0.1,0,0.2-0.1,0.5-0.2
		c0.1-0.1,0.2-0.1,0.4-0.2l1.5,0l1.4,0l0.9,0.9c0.1,0.1,0.2,0.2,0.4,0.5c0.2,0.3,0.3,0.5,0.4,0.6c0,0.1,0.1,0.4,0.3,0.9
		s0.3,0.9,0.4,1.2c0.1,0.2,0.3,0.6,0.5,1.2c0.3,0.6,0.4,1,0.4,1.2c0,0.1,0,0.3,0.1,0.6s0.2,0.6,0.3,0.9c0.1,0.3,0.2,0.6,0.3,0.9
		c0.1,0.3,0.1,0.5,0.1,0.7c0,0.1,0.1,0.4,0.2,0.8c0.1,0.4,0.2,0.8,0.2,1c0.1,0.3,0.2,0.7,0.3,1.3c0.2,0.5,0.3,1.1,0.5,1.7
		c0.2,0.6,0.3,1.1,0.4,1.5c0.1,0.5,0.2,0.7,0.2,0.8c0,0.3,0.1,0.6,0.4,1c0.2,0.4,0.4,0.8,0.4,1.1c0.1,0.4,0.2,0.9,0.4,1.5
		c0.1,0.6,0.2,1,0.2,1.1l0,2.8c0,0.1-0.1,0.2-0.2,0.4c-0.1,0.2-0.2,0.3-0.3,0.4c-0.1,0.2-0.3,0.5-0.6,0.9c-0.3,0.5-0.5,0.7-0.5,0.8
		c-0.1,0.1-0.4,0.3-0.8,0.7c-0.4,0.3-0.7,0.6-0.8,0.7c-0.1,0-0.3,0.1-0.7,0.2s-0.6,0.2-0.7,0.2l-0.2,0l-0.2,0
		c-0.1,0-0.2-0.1-0.4-0.2c-0.2-0.1-0.3-0.2-0.4-0.2c-0.1-0.1-0.2-0.2-0.2-0.4c-0.1-0.3-0.2-0.5-0.2-0.5c-0.1-0.1-0.2-0.3-0.3-0.6
		c-0.1-0.3-0.2-0.5-0.3-0.5c0-0.2-0.1-0.5-0.2-1c-0.1-0.4-0.2-0.7-0.2-0.8c0-0.2,0-0.4,0-0.8c0-0.4-0.1-0.8-0.1-1.3
		c-0.1-0.5-0.1-0.9-0.1-1.3c0-0.4,0-0.7,0-0.8c-0.1-0.3-0.2-0.6-0.2-0.8c-0.1-0.3-0.1-0.5-0.2-0.7c-0.1-0.2-0.1-0.4-0.1-0.5
		c-0.1-0.5-0.3-1.1-0.7-1.8c-0.3-0.7-0.6-1.2-0.7-1.5c-0.1-0.2-0.2-0.7-0.4-1.4c-0.2-0.7-0.3-1.2-0.4-1.5c-0.1-0.3-0.2-0.6-0.4-1
		c-0.1-0.4-0.3-0.8-0.4-1.2c-0.2-0.5-0.4-1-0.5-1.5l-0.5,0c0,0.2,0,0.5,0,0.9c0,0.5,0,1,0,1.5c0,0.5,0,1,0,1.5c0,0.5,0,0.8,0,0.9
		c0,0.2-0.1,0.6-0.2,1.2c-0.1,0.6-0.2,1-0.3,1.1c0-0.1-0.1-0.3-0.2-0.7c-0.1-0.4-0.2-0.6-0.2-0.7c-0.1-0.2-0.1-0.4-0.2-0.7
		c-0.1-0.3-0.1-0.7-0.1-1.1c0-0.4-0.1-0.8-0.1-1.1s-0.1-0.6-0.2-0.8l-0.7,1.6l0,7.6l-0.5,0.7l-0.6-0.7l0-6.3
		c-0.1,0.1-0.2,0.3-0.4,0.5c-0.2,0.3-0.4,0.5-0.6,0.8c-0.2,0.3-0.4,0.6-0.5,0.8c-0.2,0.3-0.3,0.5-0.3,0.6c-0.1,0.1-0.2,0.4-0.5,1
		c-0.3,0.5-0.5,1.2-0.8,1.9s-0.6,1.4-1,2.2c-0.3,0.7-0.6,1.3-0.7,1.7c-0.1,0.2-0.2,0.4-0.4,0.7c-0.2,0.2-0.3,0.5-0.4,0.7
		c-0.1,0.3-0.2,0.7-0.4,1.2c-0.2,0.5-0.4,1-0.5,1.5c-0.2,0.5-0.3,1-0.5,1.4c-0.2,0.4-0.3,0.7-0.3,0.7c0,0.1,0.1,0.4,0.2,0.8
		c0.1,0.4,0.2,0.7,0.2,0.8c0.2,0,0.5,0,1,0c0.5,0,1,0,1.5,0c0.5,0,1.1,0,1.5,0s0.9,0,1.1-0.1c0.1,0,0.2,0,0.5,0s0.6-0.1,0.9-0.1
		c0.3-0.1,0.7-0.1,1-0.1c0.3,0,0.5,0,0.6,0c0.2-0.1,0.5-0.1,0.8-0.2c0.4-0.1,0.7-0.1,1.1-0.2c0.4-0.1,0.7-0.1,0.9-0.2
		c0.3-0.1,0.4-0.1,0.5-0.1l3.6,0l3,0c0.2,0.1,0.6,0.3,1.2,0.5c0.6,0.2,1.1,0.4,1.4,0.5c0.1,0.1,0.4,0.4,0.8,0.8
		c0.4,0.4,0.7,0.8,0.8,1c0.1,0.2,0.2,0.4,0.4,0.8c0.2,0.4,0.3,0.7,0.4,0.8l0,4.6c0,0.1-0.1,0.2-0.2,0.5c-0.1,0.3-0.2,0.5-0.2,0.6
		c-0.1,0.1-0.1,0.3-0.2,0.5s-0.2,0.5-0.4,0.7s-0.3,0.5-0.5,0.8c-0.2,0.3-0.3,0.5-0.3,0.6c-0.1,0.2-0.1,0.3-0.2,0.5
		c-0.1,0.1-0.2,0.2-0.3,0.3c-0.1,0.1-0.1,0.2-0.2,0.3c-0.2,0.2-0.5,0.5-0.8,0.9c-0.3,0.4-0.5,0.6-0.6,0.7c0,0.1-0.1,0.2-0.3,0.4
		c-0.2,0.2-0.3,0.3-0.4,0.4c-0.1,0.1-0.3,0.3-0.5,0.5c-0.3,0.2-0.5,0.4-0.8,0.7s-0.5,0.4-0.8,0.6c-0.2,0.2-0.4,0.3-0.4,0.3
		c-0.1,0.1-0.3,0.3-0.7,0.5c-0.3,0.2-0.6,0.4-0.7,0.5c-0.1,0-0.3,0.1-0.5,0.3c-0.3,0.2-0.6,0.4-0.9,0.5c-0.3,0.2-0.6,0.4-0.9,0.5
		c-0.3,0.2-0.4,0.3-0.5,0.3c-0.1,0-0.2,0.1-0.3,0.2c-0.1,0.1-0.1,0.1-0.1,0.2l0,1.2c0,0.2,0,0.5,0.1,1.1c0.1,0.6,0.1,1.2,0.1,1.9
		c0,0.7,0.1,1.3,0.1,1.9s0.1,0.9,0.1,1l0,5.5c0,0.1,0,0.3-0.1,0.6c0,0.3-0.1,0.6-0.1,0.9c0,0.3-0.1,0.6-0.1,0.9
		c0,0.3-0.1,0.4-0.1,0.5c-0.1-0.2-0.2-0.5-0.3-1c-0.1-0.5-0.2-0.9-0.3-1.1c-0.1-0.4-0.1-1.1-0.2-2.2c-0.1-1.1-0.2-2.2-0.2-3.4
		s-0.2-2.3-0.2-3.4c-0.1-1.1-0.1-1.8-0.1-2.2L571.2,71.7L571.2,71.7z M538.1,69.9c0.1,0.4,0.1,0.7,0.2,1.1c0.1,0.4,0.1,0.7,0.1,0.8
		c0.1,0.1,0.2,0.4,0.3,0.9c0.1,0.5,0.2,0.8,0.2,0.9l0,0.8c0,0.1,0,0.3-0.2,0.7c-0.1,0.3-0.2,0.6-0.3,0.7c0,0.1-0.1,0.2-0.3,0.5
		c-0.2,0.3-0.3,0.5-0.4,0.6l-0.9,0.9c-0.1,0.1-0.2,0.2-0.5,0.4s-0.5,0.3-0.6,0.4c-0.1,0.1-0.2,0.2-0.3,0.2c-0.1,0-0.2,0.1-0.3,0.1
		c-0.2,0.1-0.3,0.1-0.3,0.1c-0.2,0.1-0.3,0.1-0.4,0.2c-0.1,0.1-0.1,0.1-0.2,0.1l-0.2,0c-0.2,0-0.4,0-0.5-0.1
		c-0.2-0.1-0.3-0.1-0.4-0.2c-0.1,0-0.2,0-0.2-0.1c-0.1-0.1-0.2-0.2-0.2-0.3c0-0.1-0.1-0.3-0.2-0.7c-0.1-0.4-0.2-0.7-0.3-1
		c-0.1-0.3-0.1-0.8-0.3-1.4c-0.1-0.6-0.2-1.3-0.4-1.9c-0.1-0.7-0.2-1.3-0.4-1.9c-0.1-0.6-0.2-0.9-0.3-1.1c0-0.1,0-0.2-0.1-0.4
		c-0.1-0.2-0.1-0.5-0.1-0.8c0-0.3-0.1-0.6-0.1-0.9c-0.1-0.3-0.1-0.6-0.1-0.8c0-0.2,0-0.4-0.1-0.8c-0.1-0.4-0.1-0.7-0.2-1.1
		s-0.1-0.7-0.2-1c-0.1-0.3-0.1-0.5-0.1-0.5c0-0.3,0-0.8,0-1.4c0-0.6-0.1-1.3-0.1-2c-0.1-0.7-0.1-1.3-0.1-1.9c0-0.5,0-0.9,0-1l0-9.4
		l0-9.3c0-0.1,0-0.3,0.2-0.6s0.2-0.5,0.2-0.5c0.1-0.1,0.2-0.3,0.3-0.5c0-0.2,0.1-0.3,0.2-0.4c0.1-0.1,0.3-0.3,0.5-0.5
		c0.2-0.2,0.4-0.4,0.6-0.7c0.2-0.2,0.4-0.4,0.6-0.6s0.3-0.3,0.4-0.3c0.1-0.1,0.4-0.2,0.8-0.4c0.4-0.2,0.7-0.3,0.8-0.4l0.7,0l0.7,0
		c0.1,0.1,0.1,0.2,0.2,0.2l0.2,0.2c0.1,0.1,0.1,0.4,0.2,0.8c0.1,0.4,0.1,0.7,0.1,0.8l0.1,20.5c0.2-0.1,0.4-0.3,0.8-0.5
		c0.4-0.2,0.8-0.4,1.3-0.6c0.4-0.2,0.8-0.4,1.2-0.6c0.4-0.2,0.7-0.3,0.8-0.4c0.1-0.1,0.3-0.3,0.7-0.5c0.3-0.2,0.6-0.4,0.7-0.5
		c0.2-0.2,0.5-0.4,0.8-0.7c0.4-0.3,0.7-0.6,1-0.9c0.3-0.3,0.6-0.5,0.9-0.7c0.3-0.2,0.4-0.3,0.4-0.3c0.2-0.2,0.6-0.6,1.1-1.1
		c0.5-0.5,1.1-1.1,1.7-1.7c0.6-0.6,1.1-1.1,1.7-1.7c0.5-0.5,0.8-0.9,1-1.2c0.1,0,0.1-0.1,0.2-0.3c0.1-0.2,0.2-0.3,0.3-0.3
		c0-0.1,0.1-0.3,0.2-0.7c0.1-0.4,0.2-0.6,0.2-0.7c0.1-0.1,0.1-0.1,0.1-0.2c0-0.1,0-0.2,0.1-0.2c0.1-0.1,0.1-0.2,0.2-0.3
		c0.2-0.3,0.4-0.6,0.7-1s0.5-0.6,0.7-0.7c0.1-0.1,0.4-0.4,0.9-0.8c0.5-0.4,0.9-0.8,1.2-1l0.3-0.2c0.2-0.1,0.3-0.2,0.4-0.2
		c0.2-0.1,0.4-0.2,0.7-0.3c0.3-0.1,0.6-0.1,0.7-0.1l0.3-0.1c0.1,0,0.1,0,0.2,0c0.1,0,0.1,0,0.2,0l0.1,0c0.4,0,0.5,0.1,0.5,0.4l0,2.1
		c0,0.1-0.1,0.2-0.2,0.4s-0.2,0.4-0.3,0.7c-0.1,0.3-0.3,0.5-0.4,0.8c-0.2,0.3-0.3,0.4-0.3,0.5c-0.1,0.2-0.4,0.6-0.8,1.3
		c-0.4,0.6-0.8,1.1-1,1.4c-0.1,0.2-0.3,0.5-0.8,1c-0.5,0.5-0.8,0.9-0.9,1.1c-0.2,0.2-0.5,0.6-0.9,1.1s-1,1.1-1.5,1.6
		c-0.5,0.6-1,1.1-1.5,1.6c-0.5,0.5-0.8,0.9-0.9,1c0.1,0.1,0.3,0.3,0.6,0.5c0.3,0.2,0.5,0.4,0.6,0.5c0.1,0.1,0.3,0.2,0.5,0.4
		c0.2,0.2,0.4,0.4,0.7,0.6c0.2,0.2,0.4,0.4,0.6,0.7c0.2,0.2,0.3,0.3,0.3,0.4c0.1,0.1,0.3,0.4,0.7,1.2c0.4,0.7,0.6,1.3,0.9,1.7
		c0.1,0.2,0.3,0.6,0.6,1.2c0.4,0.7,0.7,1.4,1.1,2.1c0.4,0.7,0.8,1.4,1.1,2.1c0.3,0.7,0.6,1.1,0.7,1.2c0,0.1,0.1,0.3,0.3,0.7
		c0.2,0.3,0.4,0.7,0.7,1.2c0.3,0.4,0.5,0.9,0.8,1.3s0.5,0.8,0.7,1c0.1,0.1,0.3,0.3,0.5,0.6c0.2,0.3,0.4,0.5,0.5,0.6
		c0.1,0.2,0.3,0.5,0.6,0.9c0.3,0.4,0.5,0.7,0.5,0.9c0.2,0.3,0.5,0.7,1,1.2c0.4,0.6,0.7,0.8,0.8,0.8c0.2,0.2,0.5,0.6,1,1.1l3.3,3.2
		c0.5,0.5,0.9,0.8,1.2,1c0,0.1,0.1,0.2,0.2,0.4l0,0.1c0.1,0.2,0.2,0.3,0.2,0.4l0,0.5c-0.1,0.2-0.2,0.4-0.4,0.8
		c-0.2,0.4-0.3,0.7-0.3,0.8c-0.1,0.1-0.3,0.3-0.5,0.5c-0.2,0.3-0.5,0.5-0.8,0.8c-0.3,0.3-0.6,0.5-0.8,0.7c-0.3,0.2-0.5,0.4-0.6,0.5
		l-0.5,0.2c-0.3,0.1-0.5,0.2-0.7,0.2l-0.9,0c-0.2-0.1-0.3-0.1-0.4-0.2c-0.1,0-0.1,0-0.1,0c0,0-0.1,0-0.1,0c-0.1,0-0.1,0-0.2-0.1
		c-0.1-0.2-0.4-0.5-0.8-0.8s-0.7-0.5-0.8-0.6c-0.2-0.1-0.6-0.3-1.1-0.9c-0.5-0.5-0.9-0.9-1-1.2c-0.1-0.1-0.3-0.3-0.5-0.5
		c-0.3-0.3-0.5-0.5-0.8-0.8c-0.3-0.3-0.5-0.6-0.8-0.8c-0.3-0.3-0.4-0.4-0.5-0.5c-0.1-0.1-0.2-0.3-0.4-0.6c-0.2-0.3-0.5-0.6-0.7-1
		s-0.5-0.7-0.8-1.1c-0.3-0.4-0.4-0.6-0.5-0.8c-0.1-0.1-0.3-0.3-0.5-0.6c-0.2-0.3-0.4-0.5-0.5-0.5c-0.2-0.3-0.4-0.7-0.9-1.4
		c-0.4-0.7-0.8-1.4-1.2-2.2c-0.4-0.8-0.8-1.5-1.2-2.2c-0.4-0.7-0.7-1.1-0.9-1.4l-0.7-0.4l0,2.1l-0.5,0c-0.1-0.2-0.1-0.4-0.2-0.6
		c-0.1-0.2-0.1-0.4-0.2-0.6c-0.1-0.2-0.1-0.3-0.2-0.5c0-0.1,0-0.3-0.1-0.7c-0.1-0.4-0.1-0.7-0.1-1.1c0-0.4-0.1-0.8-0.1-1.1
		s-0.1-0.6-0.1-0.7c0-0.1-0.1-0.3-0.2-0.6c-0.1-0.3-0.2-0.6-0.2-0.8l-0.5-0.7c-0.1-0.1-0.3-0.3-0.5-0.5c-0.2-0.3-0.4-0.4-0.5-0.4
		l0,0.9c0.1,0.2,0.1,0.7,0.2,1.6c0.1,0.8,0.1,1.8,0.2,2.7c0.1,1,0.1,1.9,0.1,2.8s0,1.4,0,1.6l0,11.6l-0.5,2.1l-0.4-0.4
		c0,0,0-0.1-0.1-0.4c-0.1-0.3-0.1-0.6-0.1-0.9c0-0.4-0.1-0.7-0.1-1.1s0-0.6,0-0.8c-0.1-0.3-0.1-0.8-0.2-1.7c-0.1-0.9-0.1-2-0.2-3.2
		c-0.1-1.2-0.1-2.5-0.2-3.9c-0.1-1.4-0.2-2.6-0.2-3.9c-0.1-1.2-0.1-2.3-0.1-3.2c0-0.9,0-1.5,0-1.8c-0.1-0.1-0.1-0.3-0.2-0.7
		c-0.1-0.3-0.1-0.7-0.1-1c0-0.3-0.1-0.7-0.1-1c-0.1-0.3-0.1-0.5-0.2-0.6c-0.1,0-0.3,0-0.6-0.1c-0.3-0.1-0.5-0.1-0.5-0.1
		c-0.1,0-0.4,0.1-0.8,0.2c-0.2,0.1-0.4,0.1-0.5,0.1c-0.1,0-0.4,0.1-1,0.3c-0.6,0.2-1.1,0.3-1.5,0.4c-0.1,0.1-0.4,0.2-0.8,0.4
		c-0.4,0.2-0.7,0.3-0.8,0.4c0,0.2,0,0.4,0.1,0.7c0.1,0.3,0.1,0.6,0.1,0.9c0,0.3,0.1,0.6,0.1,0.9c0.1,0.3,0.1,0.5,0.1,0.6
		c0.1,0.3,0.2,0.7,0.3,1.3s0.2,1,0.3,1.1c0,0.2,0,0.4,0.1,0.8c0.1,0.3,0.1,0.6,0.2,0.9L538.1,69.9L538.1,69.9z M479.2,74.2
		c-0.1,0.3-0.3,0.7-0.5,1.4c-0.3,0.6-0.4,1-0.4,1.2c0,0.1,0,0.3,0,0.5c0,0.2,0,0.4,0,0.5l0.5,0c0.2-0.1,0.5-0.2,1.1-0.3
		c0.6-0.1,0.9-0.2,1-0.3l0-0.2l0-0.2c0-0.2-0.1-0.6-0.4-1.2c-0.2-0.6-0.4-1.1-0.4-1.3c-0.1,0-0.2-0.1-0.3-0.3
		c-0.1-0.2-0.1-0.3-0.2-0.3C479.6,73.5,479.2,74.2,479.2,74.2z M566.4,59.2c0,0.1,0,0.3,0,0.5c0,0.2,0,0.5,0.1,0.7
		c0.1,0.3,0.1,0.5,0.2,0.8c0,0.2,0.1,0.5,0.3,0.9c0.2,0.4,0.4,0.7,0.6,0.9c0,0.1,0.2,0.3,0.7,0.8c0.4,0.5,0.8,0.8,1,0.9
		c0.1,0,0.2,0.1,0.4,0.2c0.2,0.1,0.3,0.2,0.4,0.2l2.3,0l1.9,0c0.1,0,0.2-0.1,0.4-0.2c0.2-0.1,0.5-0.2,0.7-0.4
		c0.3-0.1,0.5-0.3,0.8-0.4c0.3-0.2,0.4-0.3,0.5-0.4c0.1-0.1,0.3-0.2,0.5-0.4s0.4-0.3,0.5-0.4c0.1-0.2,0.2-0.5,0.4-0.9
		c0.2-0.4,0.3-0.7,0.3-0.9l0-1l0-1.1c0-0.1-0.1-0.4-0.4-0.8c-0.2-0.4-0.4-0.7-0.4-0.8c-0.1-0.1-0.3-0.2-0.7-0.4
		c-0.3-0.2-0.6-0.3-0.7-0.3c-0.1-0.1-0.4-0.2-0.9-0.3c-0.6-0.1-1-0.1-1.2-0.1l-1,0l-1.1,0c-0.3,0-0.6,0-1.1,0
		c-0.5,0-0.9,0.1-1.4,0.1c-0.5,0-0.9,0.1-1.3,0.1c-0.4,0.1-0.6,0.1-0.7,0.2c-0.1,0-0.3,0.1-0.5,0.2c-0.2,0.1-0.3,0.1-0.4,0.2
		c0,0.2,0,0.6-0.1,1.1C566.4,58.8,566.4,59.1,566.4,59.2L566.4,59.2z"/>
</g>
</svg>
