<?xml version="1.0" encoding="utf-8"?>
<!-- Generator: Adobe Illustrator 21.1.0, SVG Export Plug-In . SVG Version: 6.00 Build 0)  -->
<svg version="1.1" id="Ebene_1" xmlns="http://www.w3.org/2000/svg" xmlns:xlink="http://www.w3.org/1999/xlink" x="0px" y="0px"
	 viewBox="0 0 566.9 129.2" style="enable-background:new 0 0 566.9 129.2;" xml:space="preserve">
<style type="text/css">
	.st0{enable-background:new    ;}
	.st1{fill:url(#SVGID_1_);}
	.st2{fill:url(#SVGID_2_);}
	.st3{fill:url(#SVGID_3_);}
	.st4{fill:#878787;}
	.st5{fill:url(#SVGID_4_);}
	.st6{fill:url(#SVGID_5_);}
	.st7{fill:url(#SVGID_6_);}
	.st8{fill:url(#SVGID_7_);}
	.st9{fill:url(#SVGID_8_);}
	.st10{fill:url(#SVGID_9_);}
</style>
<g id="Ebene_2">
</g>
<g>
	<g class="st0">
		<g>
			<g>
				
					<linearGradient id="SVGID_1_" gradientUnits="userSpaceOnUse" x1="280.52" y1="90.847" x2="280.52" y2="3.923" gradientTransform="matrix(1 0 0 -1 0 132)">
					<stop  offset="0" style="stop-color:#000000"/>
					<stop  offset="1" style="stop-color:#000000"/>
				</linearGradient>
				<path class="st1" d="M314.5,41.2l29.8,0.2c0.6,0,4.7,0.7-0.5,2c-4.1,1.1-7.4,0.7-8.8,6L319,113.9c-1.3,5.8,3.2,10.7,9,12.3
					c1.3,0.3,1.4,1.7-0.2,1.8l-19.6-0.7l-23.8,0.8c-1.7,0-1.8-1.8,0.1-2.1c5.6-0.6,10.5-5.2,11.5-8.9L311.7,61
					c0-0.8-0.4-1.3-0.9-1.3c-0.4,0-0.7,0.2-1,0.7l-44,63.9c-1.2,2-3.1,3.3-4.8,3.3c-1.8,0-3.4-1.5-3.6-5.4l-4.4-59.6
					c0-0.8-0.7-1.5-1.4-1.5c-0.5,0-1,0.3-1.2,1l-15.1,47.3c-1.2,3.6-1.3,7.1,0.1,9.6c1.5,2.6,5.2,5.8,9.6,6.7c1.7,0.4,1.6,2.1,0,2.2
					l-15.8-0.7l-13.3,0.5c-1.6-0.1-1.4-1.6,0-1.9c4.6-1,9.8-5.6,12.2-12.3l19.6-62.9c0.8-2.4-0.5-5.2-2.9-5.8l-6.1-1.2
					c-1.1-0.1-1.2-1.6,0-1.6l34.7-0.3l3.5,54.8l2.5-3.1l33.1-49.2C313,43.7,314,42.1,314.5,41.2z"/>
				<path d="M282.8,128.6c-0.4-0.3-0.7-0.9-0.7-1.4l0,0c0-1.1,1-2,2.2-2.2l0,0l0,0l0,0c5.1-0.5,9.8-4.9,10.7-8.2l0,0l15.6-55.9
					l-44,63.9c-1.4,2.2-3.5,3.7-5.7,3.7l0,0c-1.2,0-2.4-0.5-3.2-1.6l0,0c-0.8-1.1-1.3-2.6-1.4-4.7l0,0l-4.4-59.6
					c0-0.3-0.3-0.5-0.4-0.5l0,0c0,0,0,0,0,0l0,0c0,0-0.1,0-0.2,0.3l0,0l-15.1,47.3c-0.6,1.7-0.9,3.3-0.9,4.8l0,0c0,1.5,0.3,2.9,1,4
					l0,0c1.3,2.3,4.9,5.4,9,6.2l0,0c1.1,0.3,2,1.1,2,2.2l0,0c0,1.1-1,2-2.2,2l0,0l-0.1,0l-15.8-0.7l-13.3,0.5l0,0
					c-1,0-2.1-0.8-2.1-1.8l0,0c0-1.1,0.9-1.8,1.9-2l0,0c4.1-0.9,9.2-5.3,11.5-11.6l0,0l19.6-62.9c0.1-0.4,0.2-0.8,0.2-1.2l0,0
					c0-1.6-1-3-2.3-3.3l0,0l-6-1.2c-1-0.1-1.7-1-1.7-1.9l0,0c0-0.4,0.2-0.9,0.5-1.2l0,0c0.4-0.3,0.9-0.5,1.3-0.5l0,0l35.7-0.3
					l3.4,53.2l0.9-1.1l33.1-49.1c0.4-0.7,1.4-2.2,1.9-3.1l0,0l0.3-0.6l30.4,0.2c0.5,0,1.4,0.1,2.3,0.6l0,0c0.3,0.2,0.7,0.5,0.8,1.2
					l0,0c-0.1,0.9-0.6,1.2-1.1,1.4l0,0c-0.5,0.3-1.2,0.5-2.2,0.8l0,0c-2.1,0.5-4,0.7-5.2,1.3l0,0c-1.3,0.6-2.1,1.5-2.8,3.9l0,0
					l-16.1,64.6c-0.1,0.6-0.2,1.2-0.2,1.8l0,0c0,4.3,3.7,8,8.4,9.3l0,0c0.9,0.2,1.7,0.9,1.8,1.9l0,0c0,1.1-1.1,1.8-2.1,1.8l0,0
					l-0.1,0l-19.6-0.7l-23.8,0.8c0,0,0,0,0,0l0,0C283.8,129.1,283.2,128.9,282.8,128.6L282.8,128.6z M284.4,127.1l23.8-0.8L327,127
					c-5.1-1.6-9.2-5.8-9.3-11l0,0c0-0.7,0.1-1.5,0.3-2.3l0,0l16.1-64.6c0.7-2.8,2.1-4.5,3.9-5.2l0,0c1.7-0.8,3.6-0.9,5.6-1.5l0,0
					c0,0,0.1,0,0.1,0l0,0l-28.6-0.2c-0.6,1-1.3,2.2-1.7,2.8l0,0l-33.2,49.2l-4.2,5.1l-3.6-56.3l-32,0.3l4.4,0.9
					c2.4,0.6,3.9,2.9,3.9,5.3l0,0c0,0.6-0.1,1.2-0.3,1.8l0,0L228.9,114c-2.4,6.7-7.5,11.5-12.4,12.8l0,0l12.6-0.5l15.8,0.7
					c0.1,0,0.2,0,0.2,0l0,0c-0.1-0.1-0.2-0.1-0.4-0.2l0,0c-4.8-1-8.7-4.3-10.3-7.2l0,0c-0.9-1.5-1.2-3.2-1.2-5l0,0
					c0-1.8,0.4-3.6,1-5.5l0,0l15.1-47.3c0.3-1,1.2-1.7,2.2-1.7l0,0c1.3,0,2.3,1,2.4,2.4l0,0l4.4,59.6c0.1,1.8,0.5,2.9,1,3.6l0,0
					c0.5,0.6,1,0.8,1.6,0.8l0,0c1.2,0,2.9-1,4-2.8l0,0l44-63.9c0.4-0.7,1-1.2,1.8-1.2l0,0c0.5,0,1.1,0.3,1.4,0.7l0,0
					c0.3,0.4,0.5,1,0.5,1.6l0,0l0,0v0.1L297,117.3c-1.3,4.2-6.3,8.9-12.3,9.6l0,0c-0.2,0-0.3,0.1-0.4,0.1l0,0
					C284.3,127.1,284.3,127.1,284.4,127.1L284.4,127.1z"/>
			</g>
		</g>
	</g>
</g>
<g>
	<g class="st0">
		<g>
			<g>
				
					<linearGradient id="SVGID_2_" gradientUnits="userSpaceOnUse" x1="366.273" y1="91.072" x2="366.273" y2="4.09" gradientTransform="matrix(1 0 0 -1 0 132)">
					<stop  offset="0" style="stop-color:#000000"/>
					<stop  offset="1" style="stop-color:#000000"/>
				</linearGradient>
				<path class="st2" d="M359.4,40.9l40,0.3c1.9,0,2.8,3.3-1,3.7c-4,0.4-8.2,3.2-9.2,6.6l-18.7,64.8c-0.9,3.4,1.6,9.2,8.1,9.7
					c1.1,0.2,1.1,1.9,0.1,1.9L355,127l-22.7,0.7c-1.2,0-0.9-1.6,0.2-1.8c3.1-0.6,12.2-4.1,13.9-9.6l20.9-64.7c1.3-4.7-3-6.9-7.9-8.1
					C358.2,43.3,358.4,41,359.4,40.9z"/>
				<path d="M378.6,128.9L355,128l-22.7,0.7c-0.5,0-1-0.2-1.3-0.5l0,0c-0.3-0.3-0.5-0.8-0.5-1.2l0,0c0-0.9,0.6-1.9,1.8-2.1l0,0
					c1.4-0.2,4.4-1.2,7.1-2.8l0,0c2.8-1.6,5.3-3.8,6-6.1l0,0l20.9-64.7c0.1-0.5,0.2-0.9,0.2-1.3l0,0c0-1.4-0.7-2.4-2-3.4l0,0
					c-1.3-0.9-3.3-1.6-5.3-2.1l0,0c-0.6-0.1-1-0.5-1.2-0.9l0,0c-0.2-0.4-0.3-0.8-0.3-1.2l0,0c0-0.5,0.1-1,0.3-1.4l0,0
					c0.2-0.4,0.7-0.9,1.4-1l0,0l0,0l40,0.3c1.6,0,2.6,1.3,2.6,2.7l0,0c0,1.5-1.4,2.9-3.5,3l0,0c-3.6,0.3-7.6,3.1-8.3,5.9l0,0
					l-18.7,64.8c-0.1,0.4-0.1,0.8-0.1,1.2l0,0c0,2.9,2.2,6.8,7.3,7.2l0,0l0.1,0l0.1,0c1.1,0.3,1.6,1.2,1.6,2l0,0
					c0,0.4-0.1,0.8-0.4,1.2l0,0C379.7,128.6,379.1,128.9,378.6,128.9L378.6,128.9C378.6,128.9,378.6,128.9,378.6,128.9L378.6,128.9z
					 M377.1,126.9c-5.3-1-7.8-5.5-7.8-9l0,0c0-0.6,0.1-1.2,0.2-1.7l0,0l18.7-64.8c1.2-4,5.7-6.9,10.1-7.4l0,0c1.6-0.2,1.7-0.7,1.7-1
					l0,0c0-0.4-0.3-0.7-0.6-0.7l0,0l-39.8-0.3c0,0.1-0.1,0.3-0.1,0.4l0,0c0,0.1,0,0.2,0,0.2l0,0c2.2,0.5,4.3,1.3,5.9,2.4l0,0
					c1.7,1.1,2.9,2.9,2.9,5l0,0c0,0.6-0.1,1.2-0.3,1.9l0,0l-20.9,64.7c-1,3.2-3.9,5.5-6.9,7.3l0,0c-2.5,1.4-5,2.4-6.8,2.8l0,0
					L355,126L377.1,126.9L377.1,126.9z"/>
			</g>
		</g>
	</g>
</g>
<g>
	<g class="st0">
		<g>
			<g>
				
					<linearGradient id="SVGID_3_" gradientUnits="userSpaceOnUse" x1="432.9811" y1="95.102" x2="432.9811" y2="4.154" gradientTransform="matrix(1 0 0 -1 0 132)">
					<stop  offset="0" style="stop-color:#000000"/>
					<stop  offset="1" style="stop-color:#000000"/>
				</linearGradient>
				<path class="st3" d="M464.1,36.9c4.1,0,8.1,0.3,12,1.1c2.5,0.5,5.5,1.6,4.7,3.7L475,56.8c-0.5,1.5-1.2,2.5-2,2.5
					c-1.1,0-2.2-1.8-2.6-6.2c-0.2-2.4,0.2-11.2-3.1-11.4c-0.9,0-1.7-0.1-2.5-0.1c-5.4,0-10.7,0.9-15.4,2.4
					c-18.1,5.8-29.5,15.6-37.1,32.5c-7.4,16.2-3.7,33.7,1.5,39.7c3.6,4.1,11.9,6.9,18.3,6.9c3.8,0,6.8-1,7.9-3.2
					c3.5-8.3,5.1-18.5,4.8-23.2c0-5.6-2.2-6.1-6.4-6.9c-3-0.3-3.9-2.2,1.6-2.2c0.3,0,0.6,0,0.9,0c1.8,0,3.5,0,5.2,0
					c3.9,0,7.6,0,11.3,0c3.5,0,6.9,0,10.5,0c3.2,0,6.6,0,10.1-0.1c1,0.5,0.9,0.9-0.1,1.4c-6,0.9-8.4,2-8.9,4.3
					c-2.3,7.8-4.4,16.4-8.1,24.5c-1.3,2.9-7.6,5.6-9.6,6.2c-6.4,2.3-16.9,4.1-27,4.1c-8.1,0-15.8-1.2-20.8-4.2
					c-18.7-11.4-22.1-33.1-14.4-47.4C400.1,55,434.3,36.9,464.1,36.9z"/>
				<path d="M402.7,124.5C389.8,116.6,384,103.9,384,92l0,0c0-5.8,1.4-11.4,3.9-16.2l0,0c11.6-21.7,46-39.8,76.2-39.9l0,0v1v1
					c-29.5,0-63.4,18-74.5,38.8l0,0c-2.4,4.5-3.7,9.8-3.7,15.3l0,0c0,11.3,5.5,23.3,17.8,30.8l0,0c4.7,2.9,12.3,4,20.3,4l0,0
					c9.9,0,20.4-1.8,26.7-4l0,0c0.9-0.3,3-1.1,4.9-2.1l0,0c1.9-1.1,3.7-2.5,4.1-3.5l0,0c3.7-7.9,5.8-16.5,8.1-24.3l0,0
					c0.3-1.4,1.4-2.5,3-3.3l0,0c0.9-0.4,2-0.8,3.3-1.1l0,0c-2.2,0-4.3,0-6.4,0l0,0c-3.6,0-7,0-10.5,0l0,0c-3.7,0-7.4,0-11.3,0l0,0
					c-1.7,0-3.4,0-5.2,0l0,0c-0.3,0-0.6,0-0.9,0l0,0c-0.9,0-1.6,0.1-2.1,0.1l0,0c0.2,0,0.4,0.1,0.6,0.1l0,0l0,0l0,0
					c2.1,0.4,3.8,0.7,5.2,1.8l0,0c1.4,1.2,2,3.1,2,6l0,0c0,0,0,0,0,0l0,0c0,0.4,0,0.8,0,1.3l0,0c0,5.3-1.7,14.5-4.9,22.3l0,0
					c-1.4,2.9-4.9,3.8-8.8,3.8l0,0c-6.7,0-15.1-2.8-19-7.2l0,0c-3.4-3.9-5.9-11.6-5.9-20.9l0,0c0-6.3,1.2-13.2,4.3-19.9l0,0
					c7.6-17.1,19.4-27.2,37.7-33l0,0c4.8-1.5,10.3-2.4,15.7-2.4l0,0c0.9,0,1.7,0,2.6,0.1l0,0c1.3,0.1,2.2,1,2.7,2.1l0,0
					c0.5,1.1,0.8,2.3,1,3.6l0,0c0.4,2.6,0.3,5.5,0.4,6.6l0,0c0.2,3.2,1,4.9,1.4,5.2l0,0c0.1,0.1,0.1,0.1,0.1,0.1l0,0c0,0,0,0,0,0
					l0,0c0,0,0.1,0,0.4-0.3l0,0c0.2-0.3,0.5-0.8,0.7-1.5l0,0l0,0l5.9-15c0-0.1,0.1-0.2,0.1-0.3l0,0c0-0.3-0.2-0.7-1.1-1.2l0,0
					c-0.8-0.4-1.9-0.8-3-1l0,0c-3.8-0.7-7.8-1-11.8-1l0,0v-1v-1c4.2,0,8.2,0.3,12.2,1.1l0,0c1.2,0.2,2.4,0.6,3.5,1.2l0,0
					c1,0.6,2.1,1.5,2.1,2.9l0,0c0,0.3-0.1,0.6-0.2,1l0,0l-5.9,15c-0.5,1.6-1.3,3-3,3.1l0,0c-1.2,0-2-0.9-2.5-2l0,0
					c-0.5-1.2-0.9-2.8-1.1-5.1l0,0c-0.1-1.9,0-7.3-1.2-9.5l0,0c-0.4-0.7-0.7-0.9-1-1l0,0c-0.8,0-1.7-0.1-2.5-0.1l0,0
					c-5.3,0-10.5,0.9-15.1,2.3l0,0c-17.9,5.7-29,15.3-36.5,31.9l0,0c-2.9,6.4-4.1,13-4.1,19.1l0,0c0,8.8,2.5,16.3,5.4,19.5l0,0
					c3.2,3.7,11.4,6.6,17.5,6.5l0,0c3.6,0,6.3-1,7-2.6l0,0c3.1-7.5,4.8-16.7,4.8-21.5l0,0c0-0.4,0-0.8,0-1.2l0,0l0,0v0
					c0,0,0,0,0-0.1l0,0c0-2.7-0.5-3.8-1.3-4.5l0,0c-0.8-0.7-2.2-1-4.3-1.4l0,0c-0.8-0.1-1.5-0.3-2-0.6l0,0c-0.5-0.3-1.1-0.7-1.2-1.6
					l0,0c0-0.5,0.3-0.9,0.6-1.2l0,0c0.3-0.2,0.6-0.4,1-0.5l0,0c0.8-0.2,1.9-0.4,3.4-0.4l0,0c0.3,0,0.6,0,0.9,0l0,0
					c1.8,0,3.5,0,5.2,0l0,0c3.9,0,7.6,0,11.3,0l0,0c3.5,0,6.9,0,10.5,0l0,0c3.2,0,6.6,0,10.1-0.1l0,0l0.2,0l0.2,0.1
					c0.5,0.3,1.2,0.6,1.3,1.6l0,0c-0.1,1.1-0.8,1.3-1.3,1.6l0,0l-0.1,0.1l-0.2,0c-2.9,0.4-5,0.9-6.2,1.5l0,0c-1.3,0.6-1.7,1.2-1.9,2
					l0,0c-2.3,7.8-4.4,16.5-8.2,24.6l0,0c-0.9,1.8-2.9,3.2-5,4.4l0,0c-2.1,1.2-4.2,2-5.2,2.3l0,0c-6.5,2.3-17.1,4.1-27.3,4.1l0,0
					C415.9,128.8,408,127.7,402.7,124.5L402.7,124.5z"/>
			</g>
		</g>
	</g>
</g>
<path class="st4" d="M558.2,127.5v-5h-1.9v-0.7h4.5v0.7h-1.9v5H558.2z"/>
<path class="st4" d="M561.5,127.5v-5.6h1.1l1.3,4c0.1,0.4,0.2,0.7,0.3,0.8c0.1-0.2,0.2-0.5,0.3-0.9l1.4-3.9h1v5.6h-0.7v-4.7
	l-1.6,4.7h-0.7l-1.6-4.8v4.8H561.5z"/>
<g>
	
		<linearGradient id="SVGID_4_" gradientUnits="userSpaceOnUse" x1="60.5484" y1="2244.3516" x2="60.5484" y2="2177.2856" gradientTransform="matrix(1 0 0 1 2.3501 -2117.8926)">
		<stop  offset="6.040000e-02" style="stop-color:#53B848"/>
		<stop  offset="0.5549" style="stop-color:#65CCEC"/>
		<stop  offset="0.5832" style="stop-color:#61C3E7"/>
		<stop  offset="0.6882" style="stop-color:#55A7D8"/>
		<stop  offset="0.7933" style="stop-color:#4D92CD"/>
		<stop  offset="0.8976" style="stop-color:#4886C6"/>
		<stop  offset="1" style="stop-color:#4682C4"/>
	</linearGradient>
	<polygon class="st5" points="28.5,59.4 52.4,59.4 97.3,126.5 73.6,126.5 	"/>
	
		<linearGradient id="SVGID_5_" gradientUnits="userSpaceOnUse" x1="72.5546" y1="2244.2883" x2="179.0121" y2="2117.4172" gradientTransform="matrix(1 0 0 1 2.3501 -2117.8926)">
		<stop  offset="0" style="stop-color:#6EBE44"/>
		<stop  offset="1.100000e-03" style="stop-color:#6EBE44"/>
		<stop  offset="0.2454" style="stop-color:#BCDA20"/>
		<stop  offset="0.4194" style="stop-color:#ECEB09"/>
		<stop  offset="0.5055" style="stop-color:#FFF200"/>
		<stop  offset="0.5783" style="stop-color:#FBCA08"/>
		<stop  offset="0.6794" style="stop-color:#F79A11"/>
		<stop  offset="0.7753" style="stop-color:#F47419"/>
		<stop  offset="0.8635" style="stop-color:#F1581F"/>
		<stop  offset="0.9411" style="stop-color:#F04822"/>
		<stop  offset="1" style="stop-color:#EF4223"/>
	</linearGradient>
	<polygon class="st6" points="158.3,0 181.9,0 97.6,126.5 75,126.5 	"/>
</g>
<g>
	
		<linearGradient id="SVGID_6_" gradientUnits="userSpaceOnUse" x1="32.0579" y1="2244.3506" x2="32.0579" y2="2177.2856" gradientTransform="matrix(1 0 0 1 2.3501 -2117.8926)">
		<stop  offset="6.040000e-02" style="stop-color:#53B848"/>
		<stop  offset="0.5549" style="stop-color:#65CCEC"/>
		<stop  offset="0.5832" style="stop-color:#61C3E7"/>
		<stop  offset="0.6882" style="stop-color:#55A7D8"/>
		<stop  offset="0.7933" style="stop-color:#4D92CD"/>
		<stop  offset="0.8976" style="stop-color:#4886C6"/>
		<stop  offset="1" style="stop-color:#4682C4"/>
	</linearGradient>
	<polygon class="st7" points="0,59.4 23.9,59.4 68.8,126.5 45.1,126.5 	"/>
	
		<linearGradient id="SVGID_7_" gradientUnits="userSpaceOnUse" x1="44.0635" y1="2244.2874" x2="150.5207" y2="2117.4167" gradientTransform="matrix(1 0 0 1 2.3501 -2117.8926)">
		<stop  offset="0" style="stop-color:#6EBE44"/>
		<stop  offset="1.100000e-03" style="stop-color:#6EBE44"/>
		<stop  offset="0.2454" style="stop-color:#BCDA20"/>
		<stop  offset="0.4194" style="stop-color:#ECEB09"/>
		<stop  offset="0.5055" style="stop-color:#FFF200"/>
		<stop  offset="0.5783" style="stop-color:#FBCA08"/>
		<stop  offset="0.6794" style="stop-color:#F79A11"/>
		<stop  offset="0.7753" style="stop-color:#F47419"/>
		<stop  offset="0.8635" style="stop-color:#F1581F"/>
		<stop  offset="0.9411" style="stop-color:#F04822"/>
		<stop  offset="1" style="stop-color:#EF4223"/>
	</linearGradient>
	<polygon class="st8" points="129.8,0 153.4,0 69.1,126.5 46.5,126.5 	"/>
</g>
<g>
	
		<linearGradient id="SVGID_8_" gradientUnits="userSpaceOnUse" x1="163.7062" y1="93.919" x2="163.7062" y2="3.909" gradientTransform="matrix(1 0 0 -1 0 132)">
		<stop  offset="0" style="stop-color:#000000"/>
		<stop  offset="1" style="stop-color:#000000"/>
	</linearGradient>
	<path class="st9" d="M154.3,97.1l-11.6,16.5c-3.5,5.4,3.1,11,10.3,12.4c0.7,0.5,0.5,2.2-0.4,2.2c-0.1,0-0.2,0-0.3-0.1
		c-0.1-0.1-2.9-1.2-9-1.8c-1.7-0.2-4.6-0.7-8.2-0.7c-1.2,0-2.6,0.1-3.9,0.2l-13,1.8c-1.2-0.1-1.2-1.6,0-1.9
		c6.3-0.8,13.8-5.5,18.3-11.8l53-73.9c0.9-1.3,2.7-2,4.6-2c2.3,0,4.5,1.2,4.5,3.9l1.7,74c0.6,6.2,4.7,8.8,10,10.3
		c0.7,0.5,0.4,1.5-0.1,1.6c-0.3,0-6.8-0.1-14.5-1.3c-1.8-0.3-3.2-0.4-4.9-0.4c-1.5,0-3.2,0.1-5.6,0.4c-3,0.3-1.6,0.4-13.9,0.9
		c-0.5,0-0.9-0.1-1-0.9c0.1-0.9,1.5-1.3,1.9-1.5c4.9-1.4,7.3-3.8,8.4-9.8c1.2-6.6,0.9-12.3,0.7-18.1L154.3,97.1z M173.4,92.7
		c2.7,0,5.2,0,7.1,0.1L179.8,62c-0.1-0.4-0.3-0.6-0.5-0.6c-0.2,0-0.4,0.1-0.5,0.4c-6.6,9.3-15.6,20.7-22.1,30c-0.4,0.7,0,1,1,1
		c0.2,0,0.7,0,1.5,0c1.4,0,3.6,0,6.1,0C167.8,92.8,170.7,92.7,173.4,92.7"/>
	<path d="M152.5,129.1c-0.2,0-0.5,0-0.7-0.1l0,0l0,0l0,0c0,0-2.6-1.1-8.7-1.7l0,0c-1.7-0.2-4.6-0.7-8.1-0.7l0,0
		c-1.2,0-2.5,0.1-3.8,0.2l0,0l-13.1,1.8l-0.1,0c-1,0-1.9-0.9-1.9-1.8l0,0c0-0.9,0.7-1.8,1.7-2l0,0l0.1,0l0.1,0
		c5.9-0.7,13.3-5.3,17.6-11.4l0,0l53-73.9c1.2-1.7,3.3-2.4,5.4-2.4l0,0c1.3,0,2.6,0.3,3.7,1.1l0,0c1.1,0.8,1.8,2.1,1.8,3.7l0,0
		l1.7,73.9c0.6,5.7,4.1,7.9,9.2,9.4l0,0l0.2,0l0.1,0.1c0.6,0.4,0.9,1.1,0.9,1.6l0,0c0,0.8-0.4,1.5-1.2,1.8l0,0l-0.2,0.1l-0.2,0
		c-0.4,0-6.9-0.1-14.6-1.3l0,0c-1.8-0.3-3.1-0.4-4.8-0.4l0,0c-1.4,0-3.1,0.1-5.5,0.4l0,0c-3,0.3-1.7,0.4-13.9,0.9l0,0
		c-0.1,0-0.1,0-0.1,0l0,0c-0.3,0-0.8-0.1-1.2-0.4l0,0c-0.4-0.3-0.6-0.9-0.7-1.4l0,0l0-0.1l0-0.1c0.1-1,0.8-1.5,1.3-1.8l0,0
		c0.5-0.3,1.1-0.5,1.3-0.5l0,0c4.6-1.4,6.5-3.2,7.7-9.1l0,0c0.7-3.8,0.8-7.2,0.8-10.6l0,0c0-2.1-0.1-4.2-0.1-6.3l0,0l-25.1-0.2
		l-11.3,16c-0.6,0.9-0.8,1.7-0.8,2.5l0,0c-0.1,3.4,4.8,7.3,10.4,8.3l0,0l0.2,0l0.2,0.2c0.6,0.5,0.8,1.2,0.8,1.8l0,0
		c0,0.4-0.1,0.9-0.4,1.3l0,0C153.7,128.7,153.2,129.1,152.5,129.1L152.5,129.1C152.6,129.1,152.5,129.1,152.5,129.1L152.5,129.1z
		 M143.2,125.3c5.5,0.5,8.3,1.5,9.1,1.8l0,0c0,0,0,0,0-0.1l0,0c0,0,0-0.1,0-0.1l0,0c-5.9-1.3-11.5-5.1-11.6-10.2l0,0
		c0-1.2,0.4-2.4,1.1-3.6l0,0l11.6-16.5l0.3-0.4l28.1,0.2l0,1c0.1,2.4,0.2,4.8,0.2,7.3l0,0c0,3.4-0.2,7-0.9,11l0,0
		c-1,6.2-4,9.3-9.1,10.6l0,0c-0.2,0-0.6,0.2-0.9,0.4l0,0c12-0.5,10.4-0.6,13.5-0.9l0,0c2.4-0.3,4.2-0.4,5.7-0.4l0,0
		c1.8,0,3.3,0.2,5.1,0.4l0,0c5.6,0.8,10.6,1.1,13,1.2l0,0c-4.8-1.6-8.9-4.6-9.5-10.8l0,0l0,0l-1.7-74c0-1.1-0.4-1.7-1-2.2l0,0
		c-0.6-0.5-1.5-0.7-2.5-0.7l0,0c-1.6,0-3.2,0.7-3.8,1.6l0,0l-53,73.9c-4.1,5.7-10.5,10.1-16.5,11.7l0,0l10.4-1.5
		c1.4-0.2,2.8-0.2,4.1-0.2l0,0C138.6,124.6,141.7,125.1,143.2,125.3L143.2,125.3z M154.3,98.1l0-1L154.3,98.1L154.3,98.1z
		 M180.5,93.8c-1.9,0-4.4-0.1-7.1-0.1l0,0v-2c2.2,0,4.4,0,6.1,0l0,0l-0.6-28.3c-6.4,8.9-14.8,19.6-20.9,28.4l0,0c0.2,0,0.7,0,1.2,0
		l0,0c1.4,0,3.6,0,6.1,0l0,0c2.5,0,5.4,0,8.1,0l0,0v2c-2.7,0-5.5,0-8.1,0l0,0c-2.5,0-4.7,0-6.1,0l0,0c-0.8,0-1.3,0-1.6,0l0,0
		c-0.4,0-0.8,0-1.1-0.2l0,0c-0.4-0.1-1-0.7-0.9-1.3l0,0c0-0.4,0.1-0.7,0.3-1l0,0l0,0l0,0c6.5-9.3,15.5-20.7,22-29.9l0,0
		c0.3-0.4,0.6-0.9,1.4-0.9l0,0c0.5,0,0.8,0.3,1,0.5l0,0c0.2,0.3,0.3,0.5,0.4,0.8l0,0l0,0.1l0.7,32L180.5,93.8L180.5,93.8z"/>
</g>
<g>
	
		<linearGradient id="SVGID_9_" gradientUnits="userSpaceOnUse" x1="505.1403" y1="93.79" x2="505.1403" y2="3.789" gradientTransform="matrix(1 0 0 -1 0 132)">
		<stop  offset="0" style="stop-color:#000000"/>
		<stop  offset="1" style="stop-color:#000000"/>
	</linearGradient>
	<path class="st10" d="M551.4,126.4c0.7,0.5,0.4,1.5-0.1,1.6c-0.3,0-6.8-0.1-14.5-1.2c-1.8-0.3-3.3-0.4-5-0.4
		c-1.5,0-3.2,0.1-5.6,0.4c-3,0.3-1.6,0.4-13.9,0.9c-0.5,0-0.9-0.1-1-0.9c0.1-0.9,1.5-1.3,1.9-1.5c4.9-1.3,7.3-3.8,8.4-9.8
		c1.2-6.6,0.8-12.3,0.7-18.1l-26.6-0.2l-11.6,16.5c-3.4,5.4,3.1,11,10.3,12.3c0.7,0.5,0.5,2.2-0.4,2.2c-0.1,0-0.2,0-0.4-0.1
		c-0.1-0.1-2.9-1.2-9-1.8c-1.6-0.2-4.6-0.7-8.2-0.7c-1.2,0-2.6,0.1-3.9,0.2l-13,1.8c-1.2-0.1-1.2-1.6,0-1.9
		c6.3-0.8,13.8-5.5,18.3-11.8l53-73.9c0.9-1.3,2.7-2,4.6-2c2.3,0,4.5,1.2,4.5,3.9l1.7,74C542,122.3,546.2,124.9,551.4,126.4z
		 M514.8,92.9c2.7,0,5.3,0,7.2,0.1l-0.7-30.8c-0.1-0.4-0.3-0.6-0.5-0.6c-0.2,0-0.4,0.1-0.5,0.4c-6.6,9.3-15.6,20.7-22.1,30
		c-0.4,0.7,0,1,1,1c0.2,0,0.9,0,2.1,0c1.4,0,3.3,0,5.5,0C509.2,92.9,512.1,92.9,514.8,92.9"/>
	<path d="M494,129.2c-0.2,0-0.5,0-0.7-0.1l0,0l0,0l0,0c-0.1,0-2.7-1.1-8.7-1.7l0,0c-1.7-0.2-4.6-0.7-8.2-0.7l0,0
		c-1.2,0-2.5,0.1-3.8,0.2l0,0l-13.1,1.8l-0.1,0c-1,0-1.9-0.9-1.8-1.8l0,0c0-0.9,0.7-1.8,1.7-2l0,0l0.1,0l0.1,0
		c5.9-0.7,13.3-5.3,17.6-11.4l0,0l53-73.9c1.2-1.7,3.3-2.4,5.4-2.4l0,0c1.3,0,2.6,0.3,3.7,1.1l0,0c1.1,0.8,1.8,2.1,1.8,3.7l0,0
		l1.7,73.9c0.6,5.7,4.1,7.9,9.2,9.4l0,0l-0.3,1l0.3-1l0.1,0l0.1,0.1c0.6,0.4,0.9,1.1,0.9,1.6l0,0c0,0.8-0.3,1.5-1.2,1.8l0,0
		l-0.2,0.1l-0.2,0c-0.4,0-6.9-0.1-14.6-1.2l0,0c-1.8-0.3-3.2-0.4-4.9-0.4l0,0c-1.4,0-3.1,0.1-5.5,0.4l0,0c-3,0.3-1.7,0.4-13.9,0.9
		l0,0c-0.1,0-0.1,0-0.1,0l0,0c-0.3,0-0.8-0.1-1.2-0.4l0,0c-0.4-0.3-0.6-0.9-0.7-1.4l0,0l0-0.1l0-0.1c0.1-1,0.8-1.5,1.3-1.8l0,0
		c0.5-0.3,1.1-0.5,1.3-0.5l0,0c4.7-1.4,6.6-3.2,7.7-9.1l0,0c0.7-3.7,0.8-7.2,0.8-10.5l0,0c0-2.1-0.1-4.2-0.1-6.4l0,0l-25.1-0.1
		l-11.3,16c-0.6,0.9-0.8,1.7-0.8,2.5l0,0c-0.1,3.4,4.8,7.3,10.4,8.3l0,0l0.2,0l0.2,0.2c0.6,0.5,0.8,1.2,0.8,1.8l0,0
		c0,0.4-0.1,0.9-0.4,1.3l0,0C495.2,128.8,494.6,129.2,494,129.2L494,129.2C494,129.2,494,129.2,494,129.2L494,129.2z M484.7,125.4
		c5.5,0.5,8.3,1.5,9.1,1.8l0,0c0,0,0,0,0-0.1l0,0c0,0,0-0.1,0-0.1l0,0c-5.9-1.3-11.5-5.1-11.6-10.2l0,0c0-1.2,0.4-2.4,1.1-3.6l0,0
		l11.9-16.9l28.1,0.2l0,1c0.1,2.5,0.2,4.9,0.2,7.4l0,0c0,3.4-0.2,7-0.9,10.9l0,0c-1,6.2-4,9.3-9.1,10.6l0,0c-0.2,0-0.6,0.2-0.9,0.4
		l0,0c12-0.5,10.4-0.6,13.5-0.9l0,0c2.4-0.3,4.2-0.4,5.7-0.4l0,0c1.8,0,3.3,0.2,5.1,0.4l0,0c5.6,0.8,10.6,1.1,12.9,1.2l0,0
		c-4.8-1.6-8.9-4.6-9.4-10.8l0,0l0,0l-1.7-74c0-1.1-0.4-1.7-1-2.2l0,0c-0.6-0.5-1.5-0.7-2.5-0.7l0,0c-1.6,0-3.2,0.7-3.8,1.6l0,0
		l-53,73.9c-4.1,5.7-10.5,10.1-16.5,11.7l0,0l10.4-1.5c1.4-0.2,2.8-0.2,4.1-0.2l0,0C480,124.7,483.1,125.2,484.7,125.4L484.7,125.4z
		 M459.4,126.9L459.4,126.9C459.4,126.9,459.4,126.9,459.4,126.9L459.4,126.9z M521.9,93.9c-1.9,0-4.4-0.1-7.1-0.1l0,0v-2
		c2.2,0,4.4,0,6.1,0l0,0l-0.6-28.4c-6.4,9-14.8,19.6-20.9,28.4l0,0c0.3,0,1,0,1.8,0l0,0c1.4,0,3.3,0,5.5,0l0,0c2.5,0,5.4,0,8.1,0
		l0,0v2c-2.7,0-5.6,0-8.1,0l0,0c-2.2,0-4.1,0-5.5,0l0,0c-1.1,0-1.8,0-2.2,0l0,0c-0.4,0-0.8,0-1.1-0.2l0,0c-0.4-0.1-1-0.7-0.9-1.3
		l0,0c0-0.4,0.1-0.7,0.3-1l0,0l0,0l0,0c6.5-9.3,15.5-20.7,22-29.9l0,0c0.3-0.4,0.6-0.9,1.4-0.9l0,0c0.5,0,0.8,0.3,1,0.5l0,0
		c0.2,0.2,0.3,0.5,0.4,0.8l0,0l0,0.1l0.7,32L521.9,93.9L521.9,93.9z M514.8,93.9L514.8,93.9L514.8,93.9L514.8,93.9z"/>
</g>
</svg>
