<?xml version="1.0" encoding="utf-8"?>
<!-- Generator: Adobe Illustrator 21.1.0, SVG Export Plug-In . SVG Version: 6.00 Build 0)  -->
<svg version="1.1" id="layer" xmlns="http://www.w3.org/2000/svg" xmlns:xlink="http://www.w3.org/1999/xlink" x="0px" y="0px"
	 viewBox="0 0 652 227" enable-background="new 0 0 652 227" xml:space="preserve">
<path d="M416.4,62.3c1,0.1,2.1,0.1,3.1,0.2c7.9,0.5,15.5,2.4,22.5,6.1c5.1,2.6,9.5,6,13.5,10.1c4.3,4.4,7.9,9.3,10.6,14.9
	c2,4.1,3.4,8.4,4.3,12.8c1.2,5.4,1.6,10.9,1.3,16.5c-0.4,8.9-2.3,17.4-6.5,25.3c-2.9,5.5-6.7,10.3-11.3,14.6
	c-7.3,6.9-15.8,11.3-25.5,13.4c-3.6,0.8-7.3,1.2-11,1.4c-0.2,0-0.3,0.1-0.5,0.1c-1.5,0-2.9,0-4.4,0c-0.9-0.1-1.9-0.1-2.8-0.2
	c-11.3-0.8-21.7-4.3-30.6-11.4c-7.1-5.6-12.6-12.5-16.4-20.7c-1.9-4.2-3.2-8.6-4.1-13.1c-1-5.1-1.3-10.3-1-15.5
	c0.5-10.9,3.4-21.1,9.8-30.1c7.4-10.6,17.1-18.1,29.6-21.7c3.8-1.1,7.7-1.8,11.7-2.1c1.3-0.1,2.5-0.1,3.8-0.2c0.2,0,0.4-0.1,0.6-0.1
	C414.2,62.3,415.3,62.3,416.4,62.3z M414.6,162.7c4,0,7.9-0.4,11.7-1.3c8.3-2.1,15.2-6.4,20.7-13c5.6-6.7,8.5-14.5,9.3-23.2
	c0.3-3,0.3-5.9,0.1-8.9c-0.2-3.2-0.6-6.4-1.5-9.5c-2.7-9.7-8.1-17.5-16.5-23.1c-6.3-4.2-13.3-6.1-20.8-6.5c-4.1-0.2-8.2,0-12.2,0.7
	c-7.1,1.3-13.3,4.2-18.8,8.9c-5.3,4.6-9,10.2-11.4,16.8c-1.8,5-2.5,10.1-2.6,15.4c-0.1,4.1,0.2,8.1,1.1,12.1
	c1.6,7.2,4.8,13.6,9.9,19c4.5,4.8,9.8,8.2,16,10.3C404.6,162.1,409.6,162.7,414.6,162.7z"/>
<path d="M621.1,174.9c-0.4,1-0.8,1.2-1.9,1.2c-3.8,0-7.6,0-11.4,0c-1.3,0-1.8-0.5-1.8-1.8c0-36.3,0-72.5,0-108.8
	c0-1.4,0.5-1.9,1.9-1.9c3.8,0,7.6,0,11.4,0c0.5,0,1,0.2,1.4,0.4c0.2,0.2,0.3,0.6,0.5,0.9C621.1,101.6,621.1,138.3,621.1,174.9z"/>
<path d="M311.2,109.3c1.9,2.5,3.8,5.1,5.7,7.6c4,5.4,8.1,10.7,12.1,16.1c5.2,6.9,10.4,13.8,15.5,20.6c5.1,6.7,10.1,13.5,15.2,20.2
	c0.4,0.5,0.5,1,0.3,1.6c-0.3,0.6-0.8,0.8-1.4,0.8c-0.3,0-0.6,0-0.8,0c-4.7,0-9.4,0-14,0c-0.8,0-1.4-0.3-1.9-0.9
	c-8.8-11.8-17.7-23.6-26.5-35.4c-5-6.7-10-13.4-15.1-20.1c0-0.1-0.1-0.1-0.2-0.2c-0.6,0.6-1.2,1.1-1.8,1.7
	c-4.1,3.8-8.1,7.6-12.2,11.4c-2.2,2.1-4.5,4.2-6.7,6.3c-0.3,0.3-0.4,0.5-0.4,0.9c0,11.4,0,22.8,0,34.2c0,0.1,0,0.3,0,0.4
	c0,1-0.6,1.6-1.6,1.6c-4,0-8,0-12,0c-1,0-1.5-0.6-1.6-1.6c0-0.1,0-0.2,0-0.4c0-36.2,0-72.4,0-108.6v-0.1c0-1.4,0.5-1.9,1.9-1.9
	c3.6,0,7.3,0,10.9,0c0.2,0,0.5,0,0.7,0c1.1,0,1.6,0.6,1.6,1.6c0,0.2,0,0.3,0,0.5c0,17.5,0,35.1,0,52.6c0,0.2,0,0.4,0,0.7
	c0.9-0.8,1.7-1.6,2.5-2.4c4.8-4.5,9.6-9,14.4-13.5c6.3-5.9,12.6-11.8,18.9-17.7c5.3-5,10.6-9.9,15.9-14.9c2.2-2.1,4.5-4.2,6.7-6.3
	c0.5-0.4,1-0.7,1.6-0.7c5.6,0,11.2,0,16.7,0c0.9,0,1.5,0.3,1.7,1.1c0.2,0.6-0.1,1-0.5,1.4c-1.6,1.5-3.2,3.1-4.8,4.6
	c-2.9,2.7-5.7,5.4-8.6,8.1c-4,3.7-7.9,7.5-11.9,11.2c-4.1,3.8-8.1,7.7-12.2,11.5C316.7,104.1,314,106.7,311.2,109.3z"/>
<path d="M489.1,119.9c0-18.1,0-36.1,0-54.2c0-0.2,0-0.3,0-0.5c0-1,0.5-1.6,1.6-1.6c0.1,0,0.1,0,0.2,0c15.5,0,31,0,46.5,0
	c7.1,0,13.9,1.6,20.4,4.5c5.7,2.5,10.6,6.1,14.9,10.5c7,7.2,11.7,15.8,14,25.6c1.3,5.7,1.9,11.4,1.7,17.2
	c-0.2,7.8-1.5,15.4-4.5,22.6c-2.5,6-6,11.4-10.4,16.2c-6.8,7.3-15.1,12.1-24.8,14.5c-4.2,1-8.4,1.5-12.8,1.5c-15,0-30,0-45,0
	c-0.3,0-0.5,0-0.8-0.1c-0.6-0.1-0.9-0.4-1-1c0-0.3-0.1-0.6-0.1-0.9C489.1,156.2,489.1,138,489.1,119.9z M504.2,161.7
	c0.3,0,0.5,0,0.7,0c10.1,0,20.2,0,30.3,0c1.8,0,3.6-0.1,5.4-0.2c3.7-0.3,7.3-1.3,10.7-2.9c4.5-2,8.2-5,11.4-8.7
	c3-3.4,5.4-7.2,7.1-11.5c1.9-4.5,2.9-9.2,3.2-14c0.3-4.4,0.2-8.8-0.5-13.2c-0.8-5.2-2.5-10-5.1-14.6c-2.9-5-6.6-9.4-11.4-12.7
	c-5.7-4-12.1-5.9-19.1-5.9c-10.8-0.1-21.6,0-32.4,0c-0.2,0-0.4,0-0.6,0C504.2,106,504.2,133.8,504.2,161.7z"/>
<path fill="#17B2E7" d="M204.8,121.2c-0.6,1.9-1.9,3.3-3.3,4.7c-9.3,9.3-18.6,18.6-27.9,27.9c-3.3,3.4-6.9,3.3-10.3,0
	c-9.6-9.6-19.2-19.2-28.8-28.8c-3.3-3.3-3.3-6.8,0-10.1c9.6-9.7,19.3-19.3,28.9-29c3.1-3.1,6.8-3.1,10,0
	c9.4,9.4,18.7,18.7,28.1,28.1c1.4,1.4,2.7,2.8,3.3,4.7C204.8,119.5,204.8,120.3,204.8,121.2z"/>
<path fill="#17B2E7" d="M112.3,211.1c-1.9-0.6-3.3-1.9-4.7-3.3c-9.3-9.3-18.6-18.6-27.9-27.9c-3.3-3.3-3.3-6.9,0-10.2
	c9.6-9.6,19.2-19.3,28.9-28.9c3.2-3.2,6.9-3.2,10,0c9.6,9.6,19.2,19.3,28.9,28.9c3.3,3.3,3.3,6.9,0,10.2
	c-9.4,9.4-18.8,18.8-28.1,28.2c-1.3,1.3-2.7,2.6-4.6,3.1C114,211.1,113.2,211.1,112.3,211.1z"/>
<path fill="#17B2E7" d="M78.6,96.8c0-10.7,0.1-21.4-0.1-32.1c0-3.1,0.7-5.5,3.1-7.6c1.9-1.6,3.6-3.5,5.4-5.3
	c7.1-7.1,14.1-14.1,21.2-21.2c3.3-3.3,6.9-3.3,10.2,0c9.6,9.6,19.2,19.2,28.8,28.8c3.3,3.3,3.3,6.9,0,10.2
	c-11.3,11.4-22.7,22.7-34,34.1c-10,10-20,20.1-30.1,30.1c-1.9,1.9-3.5,1.4-4.2-1.1c-0.2-0.8-0.2-1.7-0.2-2.5
	C78.5,119.1,78.6,108,78.6,96.8z"/>
<path fill="#17B2E7" d="M55.6,120c0,9.8,0,19.7,0,29.5c0,0.9-0.2,1.9-0.5,2.8c-0.7,1.7-1.9,1.9-3.2,0.6c-4.5-4.5-9-9-13.5-13.6
	c-5.2-5.2-10.4-10.4-15.6-15.7c-2.2-2.2-2.2-5.2,0-7.3c9.6-9.7,19.2-19.4,28.8-29.1c0.6-0.6,1.2-1.5,2.3-1.1c1,0.4,1.4,1.3,1.6,2.4
	c0.1,0.6,0.2,1.3,0.2,1.9C55.6,100.3,55.6,110.2,55.6,120L55.6,120z"/>
</svg>
