<?xml version="1.0" encoding="utf-8"?>
<!-- Generator: Adobe Illustrator 21.1.0, SVG Export Plug-In . SVG Version: 6.00 Build 0)  -->
<svg version="1.1" id="Layer_1" xmlns="http://www.w3.org/2000/svg" xmlns:xlink="http://www.w3.org/1999/xlink" x="0px" y="0px"
	 viewBox="0 0 836 290" style="enable-background:new 0 0 836 290;" xml:space="preserve">
<style type="text/css">
	.st0{fill:#1E1196;}
	.st1{fill:#FD1B0C;}
	.st2{fill:#FD1809;}
	.st3{fill:#6B63BA;}
	.st4{fill:#FE1100;}
	.st5{fill:#FE1101;}
	.st6{fill:#FD1101;}
	.st7{fill:#FD1201;}
	.st8{fill:#FD1202;}
	.st9{fill:#FE1201;}
	.st10{fill:#201498;}
	.st11{fill:#1E1298;}
	.st12{fill:#1B139B;}
	.st13{fill:#1D1298;}
	.st14{fill:#1D179D;}
	.st15{fill:#1D159C;}
	.st16{fill:#1B159D;}
	.st17{fill:#231799;}
	.st18{fill:#30209B;}
	.st19{fill:#281999;}
	.st20{fill:#1C139A;}
	.st21{fill:#1C1299;}
	.st22{fill:#1F1599;}
	.st23{fill:#311E98;}
	.st24{fill:#32219B;}
	.st25{fill:#211195;}
	.st26{fill:#31229C;}
	.st27{fill:#0311AA;}
	.st28{fill:#271999;}
	.st29{fill:#281392;}
	.st30{fill:#39269A;}
	.st31{fill:#1C1198;}
	.st32{fill:#251C9E;}
	.st33{fill:#201EA3;}
</style>
<g>
	<path class="st0" d="M114,270c-13.2-7.3-18-18.9-16.7-33.3c0.8-8.4,2.5-16.8,3.9-25.1c5.3-31.2,10.6-62.3,15.9-93.5
		c0.1-0.5,0.3-0.9,0.6-1.6c6.2,0,12.5,0,19,0c-3.1,18.2-6.2,36.2-9.3,54.2c-2.6,15.1-5.2,30.2-7.7,45.3c-1.1,6.9-0.1,13.2,4.7,18.5
		c7.1,1.8,12.2-0.3,16-7c3.3-5.8,5.2-12.3,6.5-18.8c6.2-29.8,12.2-59.6,18.3-89.5c0.2-1,0.6-1.9,0.9-2.9c6.1,0,12.1,0,18.4,0
		c-2.2,11.1-4.4,22-6.6,32.8c-5.6,27.9-11.1,55.8-17,83.6c-2.3,11-8.1,20.3-15.3,28.7c-3.4,4-8.1,6.2-12.7,8.5
		C126.7,270,120.3,270,114,270z"/>
	<path class="st0" d="M540,270c-14.8-8.4-18.7-21.3-16.2-37.3c6-38.5,13.1-76.8,19.4-115.5c6.4,0,12.6,0,19.3,0
		c-2,11.9-4,23.6-6,35.4c-3.6,21.2-7.3,42.3-10.8,63.5c-1.3,7.8,0.4,13.2,5.1,18.4c6.9,1.6,11.7-0.5,15.4-6.9
		c3.4-5.8,5.3-12.2,6.6-18.7c6.2-30,12.3-60,18.4-90c0.1-0.5,0.4-0.9,0.7-1.7c6-0.6,12-0.1,18.5-0.3c-2.2,11.1-4.3,21.6-6.5,32.2
		c-5.6,27.9-11.1,55.8-17,83.7c-2.3,11.1-8.2,20.6-15.7,29.1c-3.4,3.9-7.9,6-12.3,8.2C552.7,270,546.3,270,540,270z"/>
	<path class="st0" d="M24,270c1.8-10.5,3.7-20.9,5.5-31.7c6.4-0.6,12.7-0.4,19-0.3c14.9,0.2,20-11.3,19.2-22.4
		c-0.2-2.4-1.6-4.3-3.3-6c-3.5-3.5-6.9-7.3-10.6-10.6c-6.2-5.6-8.7-12.5-7.6-20.6c1.6-11.9,3.3-23.7,7.7-35
		c3-7.5,7.1-14.2,13.1-19.7c5.6-5.1,12-7.6,19.5-7.6c7,0,13.9,0,21.5,0c-1.6,9.4-3.1,18.3-4.6,27c-1.3,1.4-2.7,0.9-4,0.9
		c-5,0.1-10.1,0.6-15-0.1c-9.8-1.4-16.5,10.3-14.8,18.7c0.5,2.6,2.3,4.4,4.1,6.1c4.4,4.3,8.8,8.6,13.5,12.7c4.4,3.8,6.4,8.5,6,14.2
		c-1.1,16.2-3.7,32-10.4,47c-3.8,8.4-9.3,15.3-16.2,21.2c-3.5,3-7.8,4.2-11.7,6.1C44.7,270,34.3,270,24,270z"/>
	<path class="st0" d="M473,270c0.5-8.5,2.8-16.6,4.4-24.9c6-31.5,12.2-62.9,18.3-94.3c0.1-0.5,0-0.9,0-1.9c-5.2,0-10.3,0-16.1,0
		c1.6-11.3,3.9-21.9,6.1-32.5c17.6,0,34.9,0,52.4,0c-2.1,10.9-4.2,21.4-6.2,32.1c-4.9,0.9-9.8,0-14.8,0.6c-1.6,4.5-2.1,9.3-3,14
		c-6.9,35.2-13.6,70.4-20.5,105.6c-0.1,0.5-0.4,0.9-0.6,1.4C486.3,270,479.7,270,473,270z"/>
	<path class="st1" d="M679.6,23.2c-1-0.2-1.9-0.4-3-0.5c-0.8-2.7-0.9-5.2,0.3-7.7c2,0,4,0,6,0c2.1,1.2,4,2.4,4.1,5.1
		C685.6,24.6,684.7,24.9,679.6,23.2z"/>
	<path class="st2" d="M700,15c1.1,1,1.1,2.4,1.2,3.7c0.7,1.4,1,2.7-0.1,4.2c-1.7,1.8-4.1,1.4-6.3,1.4c-2.3-0.2-4.3-1-4.5-3.6
		c-0.2-3.2,2.4-4.4,4.7-5.7C696.7,15,698.3,15,700,15z"/>
	<path class="st3" d="M823,170l-0.4,0.2l-0.4-0.1c-2.8-5.5-2.8-10.9,0-16.4c0.3-0.1,0.6-0.1,0.8,0.2C823,159.3,823,164.7,823,170z"
		/>
	<path class="st0" d="M372.1,193.4c-11.9,24.8-23.8,49.6-35.7,74.4c-3.8,0-7.3,0-11.2,0c-1.9-25.2-3.8-50.3-5.7-75.4
		c-0.3-0.1-0.7-0.1-1-0.2c-4.9,25.1-9.8,50.2-14.7,75.5c-6.7,0-13.3,0-20.4,0c10.2-50.5,20.4-100.9,30.7-151.3c6.6,0,12.9,0,19.4,0
		c3.8,25.1,7.6,50.1,11.4,75c0.3,0.1,0.6,0.2,0.9,0.3c13.9-25.1,27.9-50.3,41.9-75.4c6.7,0,13.2,0,20.1,0
		c-9.8,50.5-19.6,100.8-29.4,151.2c-6.4,0.7-12.5,0.3-19.1,0.5c4.6-25.1,9.2-49.8,13.8-74.5C372.7,193.5,372.4,193.5,372.1,193.4z"
		/>
	<path class="st0" d="M181.9,176.9c0.4-2.3,0.9-4.6,1.3-6.9c0.3-0.8,0.5-1.7,0.7-2.5c0.1-0.8,0.2-1.7,0.3-2.5c0.4-0.5,0.4-1,0.4-1.5
		c0-0.6,0.1-1.1,0.2-1.6c0.1-0.6,0.2-1.2,0.4-1.8c0.4-0.5,0.4-1.1,0.4-1.7c0-0.8-0.1-1.6,0.3-2.4c0.1-0.6,0.2-1.3,0.4-1.9
		c0.3-0.8,0.4-1.6,0.6-2.4c0.1-0.9,0.2-1.7,0.3-2.6c0.3-0.5,0.4-1,0.4-1.6c0-0.6,0.1-1.1,0.2-1.6c0.1-0.6,0.3-1.2,0.4-1.8
		c0.4-0.5,0.4-1,0.4-1.6c0-0.6,0.1-1.1,0.2-1.6c0.1-0.6,0.2-1.2,0.4-1.8c0.5-0.5,0.4-1.1,0.4-1.7c0-0.8,0-1.7,0.3-2.4
		c0.1-0.6,0.2-1.2,0.3-1.8c0.4-0.8,0.5-1.6,0.7-2.5c0.1-0.8,0.2-1.7,0.3-2.5c0.4-0.5,0.4-1.1,0.4-1.7c0-0.8-0.1-1.6,0.4-2.4
		c0.1-0.6,0.3-1.3,0.4-1.9c0.3-0.8,0.4-1.6,0.6-2.3c0.1-0.9,0.2-1.7,0.3-2.6c6.1-1.1,12.2-0.5,18.4-0.4c8.8,0,17.6-0.6,26.3,0.4
		c0,0.3,0,0.7-0.1,1c-0.3,0.4-0.7,0.9-0.7,1.5c0.2,0.9,0.1,1.7-0.2,2.5c-0.7,1-0.2,2.3-0.8,3.3c-0.1,0.9-0.3,1.8-0.4,2.7
		c-0.2,0.5-0.6,0.9-0.6,1.4c0.3,0.9,0,1.7-0.3,2.5c-0.7,1-0.2,2.3-0.8,3.3c-0.1,0.6-0.1,1.1-0.2,1.7c-0.4,0.4-0.4,1-0.4,1.5
		c0,0.6-0.1,1.1-0.2,1.6c-0.1,0.6-0.3,1.2-0.4,1.8c-0.4,0.8-0.5,1.7-0.7,2.5c0.1,1.2,0.1,2.4-0.5,3.5l-0.1,0.4l-0.4,0.1
		c-7.9,1-15.8-0.1-24.2,0.6c-1.5,8.2-3,16.4-4.5,24.7c5.1,1.3,10.3,0.2,15.5,0.6c1.7,0.1,3.6-0.7,5.2,0.7
		c-2.3,11.3-4.6,22.5-6.9,33.8c-4.8,1.1-9.7,0.2-14.6,0.6c-1.7,0.1-3.6-0.7-5.2,0.7c-0.8,3.6-1.5,7.2-2.3,10.8
		c-0.5,0.7-0.4,1.5-0.6,2.3c-0.5,2.6-0.9,5.1-1.4,7.7c-0.4,0.7-0.4,1.5-0.6,2.3c-0.8,4.3-1.6,8.5-2.5,12.8c-0.4,0.7-0.3,1.5-0.6,2.2
		c-0.8,3.9-1.5,7.9-2.3,11.8c-0.7,0.9-0.1,2.2-0.8,3.2c-0.1,1.6-0.2,3.3-1.3,4.7c-6.2,0-12.4,0-18.8,0c0.1-4.9,1.8-9.3,2.2-13.8
		c0.4-0.7,0.4-1.5,0.6-2.3c0.5-2.6,0.9-5.2,1.4-7.8c0.7-1,0.2-2.2,0.7-3.2c0.4-2.6,0.9-5.2,1.3-7.8c0.7-1,0.1-2.2,0.7-3.2
		c0.1-0.6,0.2-1.2,0.2-1.8c0.7-1,0.2-2.2,0.7-3.2c0.1-0.9,0.2-1.8,0.3-2.8c0.4-0.7,0.4-1.5,0.6-2.2c0.1-0.9,0.3-1.8,0.4-2.8
		c0.4-0.7,0.4-1.5,0.6-2.2c0.1-0.9,0.3-1.9,0.4-2.8c0.7-1,0.1-2.2,0.7-3.2c0.4-2.6,0.9-5.2,1.3-7.8c0.4-0.7,0.4-1.5,0.6-2.3
		c0.1-0.9,0.3-1.8,0.4-2.8c0.5-0.7,0.4-1.5,0.6-2.3c0.1-0.9,0.3-1.8,0.4-2.8c0.7-1,0.2-2.2,0.7-3.2c0.4-2.6,0.9-5.2,1.3-7.8
		C181.8,179.1,181.2,177.8,181.9,176.9z"/>
	<path class="st0" d="M417.7,116.3c6.9,0,12.8,0,19.3,0c-9.8,50.5-19.6,100.8-29.4,151.4c-6.3,0-12.6,0-19.3,0
		C398.1,217.2,407.9,166.8,417.7,116.3z"/>
	<path class="st4" d="M514.9,56.3c-0.9-0.2-1.9-0.3-2.7-0.5c-1.4-2.4-0.1-4.9-0.9-7.2c-1.8-4.3,0.4-7.5,6-9c7.4-0.3,14.8,0,22.2-0.2
		c2.1-0.1,4.8,0.8,5.9-2.2c0.2-2.1-1.3-2.6-2.8-2.7c-8.6-0.3-17.2-0.5-26.1,0.1c-3.7,9.2-9.9,15-19.8,16.2c-0.9,0.2-1.9,0.4-3.1,0.6
		c0-5,0-9.9,0-15c7.1-3.5,15.8-5.6,16-16.4c2.9,0,5.3,0,7.8,0c13.1,0,26.3,0,39.4,0c2.6,0,5.2-0.2,5.5,3.4
		c2.5,10.2,1.7,20.3-0.4,30.5c-2.2,10.9-9,17.8-18.9,22.1c-1.7,0.7-3.4,1.2-5.3,1.3c-10.8,0.2-21.6,0.1-32.3,0
		c-1.2,0-2.3-0.4-3.4-0.8c-0.9-0.3-1.9-0.5-3.1-0.9c-0.3-4.7-0.3-9.4,0-13.7c1.8-1.5,3.4-1.1,4.8-1.1c10.6,0,21.2,0,31.8,0
		c1.7,0,3.7,0.6,4.8-1.5c-0.3-2.5-2.3-1.9-3.8-2c-5.1-0.1-10.2,0-15.3-0.1C518.9,57.4,516.8,57.6,514.9,56.3z"/>
	<path class="st4" d="M291.8,79c-1.1-0.3-2.4,0.1-3.4-1.6c-0.1-5-0.3-10.4,0.1-15.3c2.5-1.7,4.5-1.1,6.5-1.1c7.3-0.1,14.6,0,22,0
		c10.3,0,16.9-6.8,16.8-17.1c0-0.7-0.1-1.3-0.2-2c-2.2-2.8-5.4-2.2-8.3-2.3c-11.6-0.1-23.2,0-34.7,0c-2.3,0-4.7,0.1-6.8-1
		c-0.9-0.2-1.9-0.5-3-0.8c-0.4-3.9-0.5-7.6,0-11.2c1.6-1.5,3.3-1.3,4.9-1.3c17.6,0,35.3,0,52.9,0c2.5,0,5.2-0.3,5.5,3.4
		c1.4,2.1,1.2,4.4,1.2,6.7c0,5.8-0.2,11.6,0,17.4c0.4,9.8-4.4,16.5-12.3,21.2c-12.2,7.3-25.7,7-39.2,6
		C293.2,80.1,292.5,79.5,291.8,79z"/>
	<path class="st4" d="M164.6,76.8c-0.9-0.7-2.3-0.4-3.2-2c-0.4-3.2-0.3-6.7,0-9.7c1.7-2.1,3.4-1.7,5.1-1.7c6,0,12,0,17.9,0
		c2.5,0,5-0.1,7.4-0.9c8.5-2.8,14.8-7.7,12.4-20.3c-3.2-2-6.8-2.6-10.5-2.6c-6.8,0-13.6,0-20.4,0c-2.1,0-4.3,0.2-6.3-1
		c-0.9-0.2-1.9-0.4-3-0.6c-0.3-3.9-0.3-7.7,0-11.7c17.7,0,35.1,0,52.4,0c0.8,0.9,0.4,2,0.7,2.9c1.4,1.9,1.2,4.1,1.2,6.2
		c0,7.1,0,14.3,0,21.4c0,2.4,0.1,4.7,1.7,6.6c4.7,5.1,9.4,10.2,14.2,15.3c-5.5,3.3-11.1,2.3-16.7,0.4c-1.6-1.4-3.3-2.8-4.9-4.2
		c-2.8-1-5.5-0.9-8.1,0.7c-1.4,0.9-3.1,1.5-4.7,1.5C188.1,77.5,176.3,78,164.6,76.8z"/>
	<path class="st4" d="M689.4,25c1.8,0.5,3.5,0.4,5.3,0.1c1.9-1.5,3.4-1.1,4.3,1.1c0,0.8,0,1.7,0,2.5c2.1,3.1,1.7,6.2,0.1,9.6
		c-8.2,2.8-16.8-0.1-24.9,1.8c-2.1,1.8-1.8,4-1.8,6.1c0,7.1,0,14.3,0,21.4c0,2.2,0.1,4.3-1.6,6.6c-3.8,1.5-7.9,1.9-12-0.2
		c-1-0.4-2.4,0-3.7-2.2c0-9.4,0-19.8,0-30.1c-2.2-2.5-5.2-2.2-8.2-2.4c-5.3-0.3-10.8,1-16-1c-0.9-0.2-1.9-0.4-3-0.6
		c0-4.1,0-8,0-12.6c9.2,0,18.2,0,27,0c1.5-2.6,0.3-4.9,1.3-7.2c4.6-0.4,9.4-0.2,13.9-0.1c1,1.1,0.5,2.2,0.9,3.1c1.2,1.2,1.6,3,3.1,4
		c1.8,0.4,3.7,0.4,5.5-0.1C682.9,23.8,686.2,23.1,689.4,25z"/>
	<path class="st4" d="M354.9,76.2c-1-0.2-1.9-0.4-3.1-0.6c-0.3-3.9-0.6-7.6,0.2-11.6c5.4-0.8,10.7,0.1,16-0.5c1.6-1,2.8-2.4,3.9-3.8
		c0.5-1.9-0.3-3.7,0.6-5.6c5.6-1.6,11.9,1.4,17.3-2.3c-0.7-3-3.2-2.5-5.2-2.5c-8.3-0.1-16.6,0-24.9,0c-2.3,0-4.7,0.2-6.8-1
		c-1-0.2-1.9-0.4-3-0.7c-0.5-4-0.6-7.9,0-11.5c1.2-1.3,2.5-1.1,3.6-1.1c15.7,0,31.3,0,47,0c2.5,0,4.7,0.2,5,3.4
		c2.2,6.5,1.8,13.2,0.5,19.6c-1.2,5.9-6.6,8.5-12.1,8.8c-5.3,0.4-9.2,2.3-12.4,6.2c-2.7,3.1-6.1,4.5-10.2,4.1
		C365.7,77,360.1,78.6,354.9,76.2z"/>
	<path class="st5" d="M413.2,53.6c-0.9-0.3-1.9-0.5-3-0.9c0-3.9,0-7.8,0-12.3c21.8,1.8,43.5,3.6,64.6,5.4c1.4,1.2,0.7,2.3,1.2,3.2
		c1.9,4.1,1.9,4.4,0.2,8.9c-1.7,1.6-4,1.8-6.1,1.5c-10.5-1.4-21.1-1.7-31.6-2.6c-5.9-0.5-11.8-1.5-17.8-1.3
		C418,55.6,415.4,55.5,413.2,53.6z"/>
	<path class="st6" d="M413.1,71c-0.9-0.2-1.9-0.5-3-0.8c0-4,0-7.9,0-12.2c21.8,1.8,43.2,3.6,64.5,5.3c1.5,0.8,1,2.2,1.4,3.3
		c2.1,3.3,2.1,6.5-0.7,9.6c-8.8,1.1-17.5-0.7-26.3-1.1c-7.1-0.3-14.2-1.2-21.3-1.6C422.8,73.1,417.8,73.2,413.1,71z"/>
	<path class="st5" d="M413.2,35.8c-0.9-0.3-1.9-0.6-3-1c0-3.8,0-7.7,0-12.1c21.9,1.8,43.5,3.6,64.7,5.4c1.3,1.1,0.8,2.2,1.2,3.1
		c2,4,2,4.4,0.2,8.8c-1.8,1.5-4,1.6-6.1,1.4c-9.7-1-19.5-1.4-29.2-2.3c-7.2-0.7-14.5-0.9-21.7-1.6C417,37.3,414.8,37.7,413.2,35.8z"
		/>
	<path class="st7" d="M228.2,56.1c-0.9-0.2-1.9-0.4-3-0.7c0-4,0-7.9,0-12c15.7,0,31.1,0,46.5,0c1.3,0.7,1,2,1.3,3.1
		c2.4,3,1.6,6.2,0.5,9.1c-1.6,1.7-3.4,1.9-5.2,1.9c-11.8,0-23.6,0-35.4,0C231.2,57.5,229.6,57.4,228.2,56.1z"/>
	<path class="st8" d="M577.1,52.2c-0.9-0.3-2,0.1-3-1c0-3.5,0-7.3,0-11.5c15.5,0,31.1,0,46.7,0c1.1,0.6,0.8,2,1.1,3
		c2.1,3,2,6.1,0.4,9.1c-1.7,1.5-3.5,1.7-5.3,1.7c-11.7,0-23.5,0-35.2,0C580.1,53.5,578.5,53.4,577.1,52.2z"/>
	<path class="st9" d="M628.8,74.1c-1.3-0.8-2.5-1.6-3.6-3.2c0-2.8,0-5.9,0-9c1.2-1.4,2.8-0.7,4.3-0.9c3.7-0.5,5.4-2,5.6-5.8
		c0.2-3.6,0-7.3,0-11.2c4.4-0.8,8.5-0.4,12.3-0.3c1,1,0.7,2.1,1,3c3.6,11.6-2.3,24.3-12.9,27.6C633.2,75.2,631,75.6,628.8,74.1z"/>
	<path class="st9" d="M687.4,72c-9.2-7.2-10-17.1-9-28c4.1-0.7,8.1-0.3,11.9-0.3c1.1,1,0.7,2.1,1,3c1.6,2.7,0.5,5.9,1.3,8.7
		c0.5,1.7,0.9,3.5,2.3,4.9c1.7,1.2,3.8,0.3,5.5,0.8c1.3,0.7,0.6,2.1,1.2,3c1.3,3.5,1.3,7.1-1.7,9.6c-3.7,3.1-7.5,1-11.1-0.7l0.1,0.1
		C688.6,72.5,688.1,72.1,687.4,72z"/>
	<path class="st10" d="M501.9,76.6c9.6-0.8,19.3-0.8,28.8-0.2c16.7,1,28.4-11.4,30.4-26c1-7.5,0.6-14.9,0.8-22.4
		c0-1.5,0.1-3,0.2-4.5c0.8,0.2,1.6,0.4,3,0.8c-0.3,12.8,1.7,25.7-3.2,38.2c-4.1,10.4-14.3,17.2-25.6,17.2c-11.3,0-22.5,0-33.3,0
		C501.7,78.6,501.9,77.6,501.9,76.6z"/>
	<path class="st11" d="M291.8,79c6.3-0.1,12.6-0.2,18.9-0.2c8.6,0.1,16.4-2.6,23.5-7c6.4-4,10-9.9,9.9-17.8
		c-0.1-8.4,0.1-16.9,0.2-25.4c0.8,0.2,1.6,0.4,2.3,0.6c1.2,1.6,0.8,3.4,0.8,5c0,7.7-0.1,15.3,0,23c0.1,8.1-3.5,14.2-10.2,18.2
		c-7.1,4.2-14.7,6.9-23.2,6.7c-7.1-0.2-14.3,0-21,0C291.6,81,291.9,80,291.8,79z"/>
	<path class="st12" d="M658.9,74.2c3.8,0,7.6,0,12,0c0-12.1,0-23.6,0-35.6c9.5-0.9,18.4,0,27.4-0.6c1.3-3.1,0.1-6.3,0.8-9.3
		c0.8,0.1,1.6,0.1,2.7,0.2c0.6,4.2,0.4,8.2,0.1,12.8c-9.1,0-18,0-27.4,0c0,12,0,23.4,0,35c-5.3,1-10,0.3-14.2,0.6
		C658.6,76.3,658.9,75.2,658.9,74.2z"/>
	<path class="st13" d="M354.9,76.2c7,0,14,0,21.4,0c2.9-3.3,5.9-6.7,8.8-10.1c2.7-0.1,4.9,0.3,7,0.2c8.3-0.5,13-5.5,13-13.7
		c0-4.7,0.1-9.3,0.2-14c0.8,0.2,1.6,0.4,2.9,0.8c0,7.1,0.3,14.2-0.1,21.3c-0.2,4.5-6.7,8.8-12.9,9.1c-2,0.1-4,0-6.6,0
		c-2.7,3.1-5.7,6.4-8.2,9.3c-8.9,0-16.9,0-24.6,0C354.6,78.3,355,77.2,354.9,76.2z"/>
	<path class="st14" d="M413.2,35.8c17.6,0.7,35,2.6,52.5,3.8c3.1,0.2,6.3,0.4,9.5,0.7c1.3-3.1,0.2-6.2,0.8-9
		c0.8,0.1,1.6,0.2,2.6,0.3c0.8,4,0.2,7.9,0.4,12.2c-22.2-1.7-43.9-3.4-65.9-5.1C413.2,37.4,413.2,36.6,413.2,35.8z"/>
	<path class="st15" d="M413.1,71c11.6,0.3,23.1,1.7,34.7,2.4c9.1,0.6,18.1,1.4,27.3,2.1c1.4-3.1,0.1-6.1,0.9-9
		c0.8,0.1,1.6,0.2,2.7,0.3c0.6,3.8,0.3,7.6,0.2,12.1c-22-1.7-43.8-3.4-65.8-5.1C413.1,72.7,413.1,71.9,413.1,71z"/>
	<path class="st16" d="M413.2,53.6c17.7,0.8,35.4,2.6,53.1,3.9c3,0.2,5.9,0.7,9,0.3c1.2-2.9,0-6,0.7-8.8c0.8,0.1,1.6,0.1,2.6,0.2
		c0.8,4,0.2,7.9,0.5,12.3c-22.3-1.7-44-3.4-65.2-5.1C412.9,55.3,413.2,54.4,413.2,53.6z"/>
	<path class="st17" d="M517.1,40.6c-4.4,1.1-5.4,2.5-5.9,8.1c-4.6,2.2-9.1,4.6-13.9,6.3c-1-1.3-0.4-2.7-0.7-4c1.7-1.3,3.7-2.1,5.7-3
		c8.2-3.5,10.2-5.8,12.3-14.5c10.3,0,20.6,0,30.9,0c1.3,0.9,1.1,2,0.8,3.2c-1.5,2.2-3.8,1.7-5.9,1.8c-5.3,0.1-10.6,0-16,0.1
		C522,38.5,519.3,38.6,517.1,40.6z"/>
	<path class="st18" d="M283.9,38.6c8.1-0.8,16.2-0.2,24.3-0.3c8.1-0.1,16.2,0,23.9,0c1.7,1,2,2.2,1.6,3.6c-16.4,0-32.7,0-48.6,0
		C283.7,40.6,284,39.5,283.9,38.6z"/>
	<path class="st19" d="M164.6,76.8c3.7-1.2,7.6-0.4,11.3-0.5c5.6-0.1,11.3-0.1,16.9,0c5.8,0.1,11.3-0.6,15.5-4.9
		c2,0.7,3.1,2.3,4.5,3.4c-7.6,5.6-16.4,5.1-25.2,5c-6.3-0.1-12.6,0-18.9,0C166.5,79.8,164.6,79.6,164.6,76.8z"/>
	<path class="st20" d="M228.2,56.1c12.6-0.1,25.2-0.1,37.9-0.2c2,0,4,0,6.1,0c1.3-3.2,0.1-6.4,0.8-9.5c1,0,2,0,2.9,1
		c0,3.6,0,7.3,0,11.4c-15.7,0-31.3,0-46.7,0C228.1,58.1,228.3,57.1,228.2,56.1z"/>
	<path class="st21" d="M577.1,52.2c14.7,0,29.4,0,44.1,0c1-3.6,0.1-6.6,0.7-9.5c0.8,0.1,1.6,0.2,2.6,0.3c0.9,4,0.1,7.9,0.5,12
		c-16,0-31.6,0-46.9,0C576.9,54.3,577.2,53.2,577.1,52.2z"/>
	<path class="st22" d="M628.8,74.1c12.5,0.4,18.1-8.8,19.3-18.9c0.3-2.8,0.2-5.6,0.3-8.4c1,0.1,2-0.1,3.1,0.6
		c0.7,8.1,0.6,16-4.4,23.2c-3.1,4.5-7.5,6.3-12.7,6.7C632,77.4,629.8,76.7,628.8,74.1z"/>
	<path class="st23" d="M352.8,48.5c12.9-0.7,25.8-0.1,38.7-0.3c0.8,2.1-0.5,3-1.7,3.9c-12.1,0-24.2,0-35.5,0
		C352.6,50.5,352.9,49.4,352.8,48.5z"/>
	<path class="st24" d="M167.1,38.5c10.3-0.6,20.6-0.2,30.8-0.2c2.6,0,5.3,0.6,6.3,3.8c-12,0-24,0-35,0
		C166.9,40.8,167.1,39.6,167.1,38.5z"/>
	<path class="st25" d="M220.2,63.3c-1.1-0.9-2.3-1.8-2.9-3.1c0-10.5,0-20.9,0-31.2c0.8,0.1,1.6,0.1,3,0.2
		C220.5,40.6,220.6,51.9,220.2,63.3z"/>
	<path class="st26" d="M631,38.5c7.9-0.6,15.8-0.1,23.1-0.3c1.5,1.4,1.2,2.6,1,3.7c-7.9,0-15.9,0-23.5,0
		C630.8,40.5,631.1,39.5,631,38.5z"/>
	<path class="st27" d="M514.9,56.3c8.7,0,17.5,0,26,0c0.8,1.5,0.5,2.5-0.8,3.1c-8.2,0-16.4,0-23.9,0C514.6,58.3,515,57.2,514.9,56.3
		z"/>
	<path class="st28" d="M688.9,73c1.6-0.4,2.9,0.5,4.3,0.8c3.1,0.6,5.9,0.3,7.8-2.8c0.7-2.2-0.2-4.6,0.7-6.8c1,0,2-0.1,2.9,1.1
		c0,2.6,0,5.5,0,8.6C700.9,78.8,694.1,78.4,688.9,73z"/>
	<path class="st29" d="M217.6,79c5.6-0.1,11.1,0.6,16.7-0.4c1,0.9,1.9,1.8,3.4,3.2c-5.9,1.2-11.1,0.2-15.9,0.7
		C220,81.3,218.7,80.3,217.6,79z"/>
	<path class="st30" d="M695,60.3c-3-0.7-3.6-3.2-3.8-5.6c-0.2-2.6,0.1-5.3,0.1-7.9c1,0.1,1.9,0.2,3.6,0.3C695,51.6,695,56,695,60.3z
		"/>
	<path class="st0" d="M237.9,117c-14.9,0-29.8,0-44.7,0c0.6-1.4,2-1,3-1c12.9,0,25.8,0,38.7,0C236,116,237.4,115.4,237.9,117z"/>
	<path class="st31" d="M699,26.2c-1.2-1.3-2.9-0.7-4.3-1.1c-0.2-0.6-0.3-1.3-0.5-1.9c2-0.1,3.9-0.2,5.8-0.3c1.6-1.1,0.9-2.8,1.2-4.1
		c0.8,0.1,1.6,0.2,2.6,0.3c0.9,2.3,0.7,4.5,0.3,6.6C702.3,26.6,700.6,26,699,26.2z"/>
	<path class="st32" d="M689.4,25c-3.3,0.4-6.5,0.5-9.8,0c0-0.6,0-1.2,0-1.7c1.8-0.1,3.6-0.3,5.3-0.4c1.5-0.8,1.2-2.2,1.5-3.5
		C687.9,21,690.8,21.9,689.4,25z"/>
	<path class="st0" d="M222.9,175.2c-5.4-0.7-10.8-0.1-16.2-0.4c-1.5-0.1-3.3,0.9-4.4-0.9c5.4,0,10.8,0,16.3,0.1
		C220,174.1,221.9,173.2,222.9,175.2z"/>
	<path class="st0" d="M196.2,210.2c1-1.8,2.6-1,4-1c5.3-0.1,10.5-0.1,15.8-0.2c-1.2,1.8-3,0.9-4.5,1
		C206.4,210.1,201.3,210.1,196.2,210.2z"/>
	<path class="st33" d="M674.1,25c-1,0.3-1.9,0.3-2.7-0.1c-0.9-1.3-0.5-2.6-0.3-3.9c0.8,0,1.6,0.1,2.4,0.1
		C674.5,22.4,674,23.8,674.1,25z"/>
	<path class="st0" d="M181.9,176.9c0.1,1.1,0.2,2.3-0.7,3.2C180.9,178.9,181.1,177.8,181.9,176.9z"/>
	<path class="st0" d="M179.8,187.8c0.2,1.2,0.3,2.3-0.7,3.2C178.9,189.8,179.1,188.8,179.8,187.8z"/>
	<path class="st0" d="M175.9,208.8c0.2,1.2,0.3,2.3-0.7,3.2C174.9,210.9,175.1,209.8,175.9,208.8z"/>
	<path class="st0" d="M185.9,155.9c0,1,0,1.9,0,2.9c-0.1,0.4-0.3,0.5-0.7,0.3C184.9,157.9,185.1,156.8,185.9,155.9z"/>
	<path class="st0" d="M172.8,224.8c0.2,1.2,0.3,2.3-0.7,3.2C171.9,226.9,172.1,225.8,172.8,224.8z"/>
	<path class="st0" d="M171.9,229.9c0.1,1.1,0.2,2.3-0.7,3.2C170.9,231.9,171.1,230.8,171.9,229.9z"/>
	<path class="st0" d="M169.8,240.8c0.2,1.2,0.3,2.3-0.7,3.2C168.9,242.8,169.1,241.8,169.8,240.8z"/>
	<path class="st0" d="M185.1,263.1c-0.1-1.1-0.3-2.3,0.8-3.2C186.1,261.1,185.9,262.2,185.1,263.1z"/>
	<path class="st0" d="M191.9,123.9c0,0.9,0,1.9,0,2.8c-0.1,0.4-0.3,0.5-0.7,0.4C190.9,125.9,191.1,124.8,191.9,123.9z"/>
	<path class="st0" d="M234.1,135.3c0-1.2-0.5-2.4,0.8-3.3C235,133.2,234.8,134.3,234.1,135.3z"/>
	<path class="st0" d="M189.8,134.8c0,1,0,2,0,2.9c-0.1,0.4-0.4,0.5-0.7,0.3C188.9,136.9,189.1,135.8,189.8,134.8z"/>
	<path class="st0" d="M236.1,125.3c0-1.2-0.5-2.5,0.8-3.3C237,123.2,236.9,124.4,236.1,125.3z"/>
	<path class="st0" d="M174.7,214.8c0.2,0.9,0.1,1.6-0.6,2.2C173.9,216.2,174.1,215.4,174.7,214.8z"/>
	<path class="st0" d="M173.7,219.8c0.2,0.9,0.1,1.6-0.6,2.2C172.9,221.2,173.1,220.5,173.7,219.8z"/>
	<path class="st0" d="M193.3,223.2c-0.3-0.9-0.2-1.7,0.6-2.3C194.1,221.8,193.9,222.6,193.3,223.2z"/>
	<path class="st0" d="M177.7,198.8c0.2,0.9,0.2,1.6-0.6,2.3C176.9,200.2,177.1,199.4,177.7,198.8z"/>
	<path class="st0" d="M178.7,193.8c0.3,0.9,0.2,1.7-0.6,2.3C177.9,195.2,178.1,194.4,178.7,193.8z"/>
	<path class="st0" d="M190.9,130.5c0.1,0.9,0.2,1.8-0.7,2.5C190,132,190.3,131.2,190.9,130.5z"/>
	<path class="st0" d="M192.9,119.6c0.1,0.9,0.2,1.7-0.6,2.3C192.1,121.1,192.4,120.3,192.9,119.6z"/>
	<path class="st0" d="M183.9,167.5c0.1,0.9,0.3,1.9-0.7,2.5C183.1,169,183.2,168.2,183.9,167.5z"/>
	<path class="st0" d="M191.3,233.2c-0.2-0.9-0.2-1.6,0.6-2.3C192.1,231.8,191.9,232.6,191.3,233.2z"/>
	<path class="st0" d="M184.7,161.8c0,0.6,0.1,1.2,0.1,1.9c-0.1,0.4-0.3,0.5-0.7,0.4C183.9,163.2,184.1,162.5,184.7,161.8z"/>
	<path class="st0" d="M233.3,140.2c-0.1-0.6-0.1-1.3-0.2-1.9c0.1-0.4,0.4-0.5,0.7-0.4C234.1,138.8,233.9,139.5,233.3,140.2z"/>
	<path class="st0" d="M188.7,140.8c0,0.6,0.1,1.3,0.1,1.9c-0.1,0.4-0.3,0.5-0.7,0.4C187.9,142.2,188.1,141.4,188.7,140.8z"/>
	<path class="st0" d="M186.9,151.5c0.1,0.9,0.2,1.8-0.6,2.4C186.1,153.1,186.4,152.3,186.9,151.5z"/>
	<path class="st0" d="M232.1,144.6c-0.1-0.9-0.3-1.9,0.7-2.5C233,143,232.9,143.9,232.1,144.6z"/>
	<path class="st0" d="M188.2,248.2c-0.2-0.9-0.1-1.6,0.6-2.2C189.1,246.8,188.8,247.5,188.2,248.2z"/>
	<path class="st0" d="M167.7,251.8c0.3,0.9,0.1,1.6-0.6,2.3C166.9,253.2,167.1,252.4,167.7,251.8z"/>
	<path class="st0" d="M187.7,145.8c0,0.6,0.1,1.3,0.1,1.9c-0.1,0.4-0.3,0.5-0.7,0.4C186.9,147.2,187.1,146.4,187.7,145.8z"/>
	<path class="st0" d="M237.1,119.5c0-0.6,0.1-1.1,0.7-1.5C237.6,118.5,237.4,119,237.1,119.5z"/>
	<path class="st28" d="M687.4,72c0.7,0.1,1.4,0.2,1.6,1.1C688.1,73.2,687.8,72.6,687.4,72z"/>
	<path class="st0" d="M191.1,127.1c0.3-0.1,0.5-0.2,0.7-0.4c0,0.6-0.2,1-0.7,1.3C191,127.7,191,127.4,191.1,127.1z"/>
	<path class="st0" d="M235.1,129.5c-0.1-0.6,0.1-1.1,0.6-1.4C235.5,128.5,235.3,129,235.1,129.5z"/>
	<path class="st0" d="M233.9,137.9c-0.3,0.1-0.5,0.2-0.7,0.4c0-0.6,0.2-1,0.8-1.3C234,137.3,234,137.6,233.9,137.9z"/>
	<path class="st0" d="M189.1,138c0.3-0.1,0.5-0.2,0.7-0.3c0,0.6-0.2,1-0.8,1.3C189,138.7,189,138.4,189.1,138z"/>
	<path class="st0" d="M184.1,164.1c0.3-0.1,0.5-0.2,0.7-0.4c0,0.6-0.2,1-0.7,1.3C184,164.7,184,164.4,184.1,164.1z"/>
	<path class="st0" d="M185.1,159.1c0.3-0.1,0.5-0.2,0.7-0.3c0,0.6-0.2,1-0.8,1.3C185,159.7,185,159.4,185.1,159.1z"/>
	<path class="st0" d="M231,148.6c0.1-0.3,0.3-0.4,0.6-0.6l-0.1,0.4L231,148.6z"/>
	<path class="st0" d="M187.1,148.1c0.3-0.1,0.5-0.2,0.7-0.4c0,0.6-0.2,1-0.7,1.3C187.1,148.7,187,148.4,187.1,148.1z"/>
	<path class="st0" d="M188.1,143.1c0.3-0.1,0.5-0.2,0.7-0.4c0,0.6-0.2,1-0.8,1.3C188,143.7,188,143.4,188.1,143.1z"/>
	<g>
		<path class="st0" d="M822.2,153.8c-1-11.3-3.6-21.9-11.5-30.7c-7.5-8.3-17.7-10.9-28-6.8c-10.1,4.1-18.6,10.3-24.8,19.4
			c-18.6,27.4-27.4,57.7-26.5,90.8c0.2,8.9,1.4,17.5,4.7,25.9c5.8,14.9,19.2,19.5,33.9,14.9c11-3.4,19.4-10.5,26-20
			c16.1-23.3,22.5-49.7,26.2-77.2C821.9,164.7,821.9,159.3,822.2,153.8z M797.9,177.3c-1,9.1-2.8,18.1-5.7,26.8
			c-2,6.1-4.8,11.7-8.3,17c-2.5,3.9-6.1,6.6-10.4,8.3c-6.3,2.5-12.1,0.2-14.9-6c-2.8-6.1-3-12.6-2.9-19.1
			c0.3-15.8,4.1-30.6,12.2-44.2c2.5-4.3,6-7.6,10.4-9.8c5.6-2.8,10.3-1.9,14,3.2C797.5,160.6,798.8,169,797.9,177.3z"/>
	</g>
	<g>
		<path class="st0" d="M734.2,132.2c-1.3-9.4-5.7-14-16.8-15c-9.7-0.9-19.6-0.2-29.9-0.2c-10.1,50.5-20.1,100.5-30.2,151
			c10.3,0,20.3-0.1,30.2,0c13,0.1,22.7-5.4,28.8-17c4.8-9.2,8.7-18.7,10.4-29c2.3-13.6,4-27.3-6.9-38.5c6.7-9.6,11-20,13.7-31.1
			C735.1,145.8,735.1,139.1,734.2,132.2z M704,226.5c-2.3,6.7-8.2,8.7-14.5,9.5c-1.3,0.2-2.7,0.3-4.2-0.5c2-10.2,4-20.6,6-31.1
			c2.8-0.7,5.1-0.6,7.4,0c3.4,0.8,5.6,3,6.2,6.4C705.8,216,705.8,221.4,704,226.5z M712.3,157.6c-0.3,7.2-6.1,13.5-14.7,14.3
			c1.9-9.7,3.7-19.2,5.6-29C710.5,145.9,712.6,149.8,712.3,157.6z"/>
	</g>
	<g>
		<path class="st0" d="M667.1,130.1c-2-7.6-8.4-13.7-17.1-13.2c-6.5,0.4-13,0-19.5,0c-4.1,0-8.3-0.3-12.6,0.3
			c-9.7,50.1-19.5,100.1-29.2,150.4c7.4,0,14.4,0,21.9,0c3.1-16.3,6.2-32.4,9.3-48.4c0.3,0,0.6,0.1,0.8,0.1
			c2.6,16.2,5.3,32.3,7.9,48.4c8,0,15.4,0,23.2,0c-3.3-20.6-6.6-41-9.9-61.5c11.7-6.3,17.6-16.9,21.8-28.8c3-8.6,4-17.5,4.5-26.5
			C668.6,143.9,668.8,136.9,667.1,130.1z M645.1,162.1c-0.6,10.3-7.4,17.9-19.2,20.9c2.7-13.6,5.3-26.7,8-40
			C643,146.8,645.8,151.6,645.1,162.1z"/>
	</g>
	<g>
		<path class="st0" d="M261.2,116.4c-19.7,50.4-39.3,100.8-59.1,151.3c7.5,0,14.2,0,21.2,0c3.4-8.4,6.7-16.7,9.8-24.6
			c9.5,0,18.4,0,27.6,0c0,8.3,0,16.3,0,24.5c6.6,0,12.9,0,19.5,0c0-50.7,0-100.9,0-151.2C273.7,116.4,267.6,116.4,261.2,116.4z
			 M260.7,209.9c-5.5,0-10.4,0-16,0c5.2-13.6,10.2-26.9,15.3-40.2c0.4,0.1,0.7,0.2,1.1,0.2C261.5,183.1,260.7,196.2,260.7,209.9z"/>
	</g>
</g>
</svg>
