<?xml version="1.0" encoding="utf-8"?>
<!-- Generator: Adobe Illustrator 21.1.0, SVG Export Plug-In . SVG Version: 6.00 Build 0)  -->
<svg version="1.1"
	 id="Ebene_1" xmlns:corel-charset="http://product.corel.com/CGS/11/cddns/" xmlns:odm="http://product.corel.com/CGS/11/cddns/"
	 xmlns="http://www.w3.org/2000/svg" xmlns:xlink="http://www.w3.org/1999/xlink" x="0px" y="0px" viewBox="0 0 566.9 88"
	 style="enable-background:new 0 0 566.9 88;" xml:space="preserve">
<style type="text/css">
	.st0{fill:#CA2825;}
	.st1{fill:#FDC601;}
	.st2{fill:#009C37;}
	.st3{fill:#02559C;}
</style>
<path d="M0.6,52.3v-7.7h60.6v-8.8H0.6L0.2,12H69v7.7H8.4l0.4,8.4h60.6v24.3L0.6,52.3L0.6,52.3z"/>
<path d="M74.4,52.3V12.1h8.2v40.2H74.4L74.4,52.3z"/>
<path d="M87,52.3V12.1h68.8v40.2h-8.2V19.8H95.3v32.5L87,52.3L87,52.3L87,52.3z"/>
<path d="M160.2,52.3V12.1h68.9v7.7h-60.6v24.8h60.6v7.7L160.2,52.3L160.2,52.3z"/>
<path d="M234.6,52.3V0h8.2v52.3L234.6,52.3L234.6,52.3z"/>
<path d="M321,52.3V12.1h8.3v40.2H321L321,52.3z"/>
<path d="M334.3,52.3V12.1h68.8v7.7h-60.6v32.5L334.3,52.3L334.3,52.3L334.3,52.3z"/>
<path d="M247.2,12.1v7.7h60.6v8.8h-60.6v23.7h68.9V12.1H247.2z M307.8,44.6h-52.3v-8.8h52.3V44.6z"/>
<path d="M74.4,7.7V0h8.2v7.7H74.4L74.4,7.7z"/>
<path d="M321,7.7V0h8.3v7.7H321L321,7.7z"/>
<path d="M0,80.2l9.7-11.6H0.8v-3.3H15v3.1L5.3,80h9.9v3.3H0V80.2L0,80.2z"/>
<path d="M22,73.9l-5.8-8.6h4.6l3.5,5.8l3.7-5.8h4.4l-5.8,8.6l6.3,9.4h-4.7l-3.9-6.2l-4,6.2h-4.5L22,73.9z"/>
<path d="M44.2,77.4c0,2.4,1.9,3.3,4,3.3c1.4,0,3.5-0.4,3.5-2.3c0-1.9-2.7-2.3-5.4-3c-2.7-0.7-5.4-1.7-5.4-5.1c0-3.7,3.5-5.5,6.8-5.5
	c3.8,0,7.2,1.6,7.2,5.8h-3.8C51,68.5,49.4,68,47.5,68c-1.3,0-2.7,0.5-2.7,2c0,1.4,0.9,1.6,5.4,2.7c1.3,0.3,5.4,1.2,5.4,5.3
	c0,3.3-2.6,5.8-7.5,5.8c-4,0-7.7-2-7.7-6.4L44.2,77.4L44.2,77.4z"/>
<path d="M57.5,70.3h3.4V72H61c0.9-1.4,2.3-2,3.9-2c4.1,0,5.9,3.3,5.9,7c0,3.5-1.9,6.8-5.7,6.8c-1.6,0-3.1-0.7-3.9-2h-0.1V88h-3.6
	L57.5,70.3L57.5,70.3z M67.2,76.9c0-2.1-0.8-4.2-3.1-4.2c-2.4,0-3.1,2.1-3.1,4.2c0,2.1,0.8,4.1,3.1,4.1C66.5,81,67.2,79,67.2,76.9z"
	/>
<path d="M75.9,77.7C76,80,77.1,81,79.1,81c1.4,0,2.6-0.9,2.8-1.7h3.2c-1,3.1-3.2,4.4-6.1,4.4c-4.1,0-6.7-2.8-6.7-6.9
	c0-3.9,2.7-6.9,6.7-6.9c4.5,0,6.6,3.7,6.3,7.8L75.9,77.7L75.9,77.7z M81.8,75.4c-0.3-1.8-1.1-2.8-2.9-2.8c-2.3,0-2.9,1.8-3,2.8H81.8
	z"/>
<path d="M96.4,74.9c-0.2-1.5-1.2-2.2-2.7-2.2c-2.3,0-3.1,2.3-3.1,4.2c0,1.9,0.7,4.1,3,4.1c1.7,0,2.6-1.1,2.9-2.7h3.5
	c-0.5,3.5-2.9,5.4-6.3,5.4c-3.9,0-6.6-2.8-6.6-6.7c0-4.1,2.4-7.1,6.7-7.1c3.1,0,5.9,1.6,6.1,5L96.4,74.9L96.4,74.9z"/>
<path d="M106.6,70.3h2.6v2.4h-2.6v6.5c0,1.2,0.3,1.5,1.5,1.5c0.4,0,0.7,0,1.1-0.1v2.8c-0.6,0.1-1.4,0.1-2.1,0.1
	c-2.2,0-4.1-0.5-4.1-3.1v-7.7h-2.2v-2.4h2.2v-3.9h3.6V70.3L106.6,70.3z"/>
<path d="M110.9,70.3h3.4v2.4h0.1c0.7-1.6,2.4-2.8,4.2-2.8c0.3,0,0.6,0.1,0.8,0.1v3.3c-0.3-0.1-0.9-0.1-1.3-0.1
	c-2.6,0-3.5,1.9-3.5,4.2v5.9h-3.6L110.9,70.3L110.9,70.3z"/>
<path d="M133,83.4h-3.4v-1.8h-0.1c-0.9,1.5-2.5,2.2-4,2.2c-3.8,0-4.8-2.1-4.8-5.4v-8h3.6v7.4c0,2.1,0.6,3.2,2.3,3.2
	c1.9,0,2.8-1.1,2.8-3.7v-6.9h3.6L133,83.4L133,83.4z"/>
<path d="M135.9,70.3h3.4v1.8h0.1c0.9-1.3,2.3-2.1,4-2.1c1.6,0,3.1,0.6,3.8,2.2c0.8-1.1,2.1-2.2,3.9-2.2c2.8,0,4.8,1.3,4.8,4.7v8.8
	h-3.6v-7.4c0-1.7-0.1-3.2-2.2-3.2c-2,0-2.4,1.7-2.4,3.3v7.3H144V76c0-1.5,0.1-3.3-2.2-3.3c-0.7,0-2.4,0.5-2.4,3v7.6h-3.6L135.9,70.3
	L135.9,70.3z"/>
<polygon class="st0" points="430,2.2 369.9,62.3 404.1,62.3 464.2,2.2 "/>
<polygon class="st1" points="464.2,2.2 404.1,62.3 438.3,62.3 498.5,2.2 "/>
<polygon class="st2" points="498.5,2.2 438.4,62.3 472.6,62.3 532.7,2.2 "/>
<polygon class="st3" points="532.7,2.2 472.6,62.3 506.8,62.3 566.9,2.2 "/>
</svg>
