<?xml version="1.0" encoding="utf-8"?>
<!-- Generator: Adobe Illustrator 21.1.0, SVG Export Plug-In . SVG Version: 6.00 Build 0)  -->
<svg version="1.1" id="Layer_1" xmlns="http://www.w3.org/2000/svg" xmlns:xlink="http://www.w3.org/1999/xlink" x="0px" y="0px"
	 viewBox="0 0 821 132.4" style="enable-background:new 0 0 821 132.4;" xml:space="preserve">
<style type="text/css">
	.st0{fill:#656765;}
	.st1{fill:#993435;}
	.st2{fill:#B56B6B;}
	.st3{fill:#080808;}
</style>
<g>
	<path class="st0" d="M144.5,132.9c-5.7,0-11.3,0-17,0c-3.1-22-6.2-43.9-9.4-66.5c-1.3,1.8-1.1,3-1.1,4.1c0,18.7,0,37.3,0.1,56
		c0,2.1-0.3,4.3,0.4,6.4c-8.7,0-17.3,0-26,0c-0.1-0.7-0.2-1.3-0.2-2c0-42.7,0-85.3,0-128c0-1-0.2-2,0.8-2.7c12.1,0,24.2,0,36.6,0
		c2.4,17.7,3.9,35.4,6.4,52.9c0.4,0,0.7-0.1,1.1-0.1c2.1-17.6,4.2-35.2,6.3-52.7c12.9,0,25.1,0,37.8,0c0,1.9,0,3.6,0,5.2
		c0,40.3,0,80.7,0,121c0,2.2,0.2,4.3,0.3,6.5c-8.7,0-17.3,0-26,0c0-23.3,0-46.6,0-69.9c-1.1,2.1-1.5,4.4-1.8,6.6
		c-0.9,6.9-1.8,13.8-2.7,20.8C148.1,104.5,146.3,118.7,144.5,132.9z"/>
	<path class="st1" d="M329.5,0.2c12.8-0.4,25.6-0.6,38.3,0.5c8.6,0.7,13.6,5.4,15.4,13.8c0.5,2.3,0.9,4.6,0.9,6.9
		c0,10,0.5,19.9-0.5,29.9c-0.7,7.2-3.2,13.3-11.4,16c8.9,3.9,11.5,10.9,11.6,19.4c0.1,8.8,0.7,17.6,0,26.4
		c-3.1,6.2-6.2,12.5-9.3,18.7c-3.5,0-6.9-0.1-10.4,0.1c-2.2,0.1-4.6-1-6.6,0.9c-0.7,0-1.3,0-2,0c0-15.4,0.1-30.9,0-46.3
		c0-5.9-1.8-7.1-8-5.8c0,17.4,0,34.8,0,52.2c-9.7,0-19.3,0-29,0c0.1-2,0.3-4,0.3-5.9c0-33.6,0-67.1,0-100.7c0-1.8-0.2-3.7,0.3-5.4
		C322.5,13.9,326,7,329.5,0.2z M353.4,54.7c1.4-1.3,1.9-2.5,1.9-3.9c0.3-8.1,0.3-16.3,0-24.4c-0.1-2-1-3.5-3-4.5
		c-1.4,0-3-0.3-4.7,0.2c0,11.2,0,22.2,0,33.3C349.9,55.7,351.7,55.4,353.4,54.7z"/>
	<path class="st0" d="M464.5,132.9c0-44.1,0-88.2,0-132c1.4-1.3,2.8-0.9,4.1-0.9c14.5,0.2,29-0.3,43.4,0.4
		c9.4,0.5,17.2,7.6,17.1,18.2c-0.4,31.5-0.1,62.9-0.1,94.4c0,11.1-2.2,14.4-12.7,18.8c-0.5,0.2-0.8,0.5-0.8,1.1
		C498.5,132.9,481.5,132.9,464.5,132.9z M493,111c6.7,0.5,8.1-0.7,8.1-7.2c0-24.7,0-49.3,0-74c0-2.2,0.1-4.3-1.2-6.3
		c-2-2-4.3-1.9-6.9-1.3C493,51.8,493,81.3,493,111z"/>
	<path class="st0" d="M234.5-1.1c0.3,1.7,1.8,1.1,2.8,1.4c7.2,2.2,11.2,7.4,11.9,14.5c1,10.1,0.8,20.2,0.3,30.7
		c-9.2,0-18.3,0-27.8,0c-0.9-5-0.2-10.1-0.4-15.2c-0.1-1.8,0-3.7-0.3-5.5c-0.3-2-1.6-3.3-3.8-3.9c-2.4,0.5-3.9,2.1-3.9,4.7
		c-0.1,5.1-0.1,10.3-0.1,15.4c0,2.8,1.8,4.6,4,5.9c3.9,2.2,7.8,4.4,11.8,6.6c1.6,0.9,3.2,1.8,4.9,2.6c11.5,5.7,17.1,14.4,16,27.7
		c-0.8,9.6-0.1,19.3-0.2,29c0,1.8-0.2,3.7-0.4,5.5c-0.9,6.8-4.9,11.3-10.7,14.5c-14,0-28,0-42,0c0.2-0.6-0.1-0.9-0.6-1.1
		c-7.8-3.2-10.9-9.6-11.1-17.4c-0.4-11.8-0.1-23.6-0.1-35.4c0-0.3,0.4-0.5,0.5-0.7c9.3,0,18.6,0,28.1,0c0,8.6,0,16.9,0,25.2
		c0,1.5-0.1,3,0.3,4.5c0.4,1.7,1.5,3,3.5,3.1c1.9,0.1,3.2-1,3.7-2.7c0.3-1.1,0.6-2.3,0.6-3.4c0-6.8-0.2-13.6-0.1-20.5
		c0-4-1.8-6.5-5.2-8.3c-6.2-3.3-12.3-6.7-18.4-10.1c-7.8-4.4-12.8-10.6-12.9-19.9c-0.1-10-0.2-20,0-30c0.2-8.6,5.8-14.6,14.2-16.2
		c1.5-0.3,3.4,0.5,4.6-1.1C213.8-1.1,224.1-1.1,234.5-1.1z"/>
	<path class="st0" d="M84.5,132.9c-9,0-18,0-27,0c-0.1-8.6-1.1-17.2-2-26c-3.8,0-7.2-0.6-10.5,0.4c-1.2,8.7-0.9,17.2-2.5,25.6
		c-9,0-18,0-27,0c0-0.7,0-1.3,0-2c1.4-0.7,0.9-2,1.1-3.1c1.4-10.9,2.8-21.8,4.2-32.6C24,69.8,27.3,44.4,30.6,19
		c0.8-6.2,1.6-12.5,2.5-18.8c11.8,0,23.1,0,34.5,0c0.3,0.7,0.6,1.1,0.7,1.6c1.8,14,3.5,28,5.3,42c2.5,19.9,5.3,39.9,7.6,59.8
		C82.3,113.4,84.2,123,84.5,132.9z M54,84.5c-1.1-15.6-2.2-30.6-3.3-45.6c-0.3,0-0.6,0-0.9,0.1c-1.1,15.1-2.2,30.3-3.3,45.5
		C49.3,84.5,51.4,84.5,54,84.5z"/>
	<path class="st0" d="M441.6,0.7c2,8.7,2.6,17.6,3.8,26.5c3.1,23.2,6,46.4,8.8,69.6c1.4,12,3.5,24,4.3,36.1c-9,0-18,0-27,0
		c-0.1-8.6-1.2-17.1-2.1-25.8c-3.6-0.4-7-0.3-10.5-0.1c-0.8,8.9-1.6,17.4-2.4,25.9c-9,0-18,0-27,0c2-9.1,2.6-18.4,3.9-27.6
		c0.8-5.1,1.4-10.2,2.1-15.3c0.8-0.4,1-1.2,1-2c1.1-0.7,1.4-1.9,1.9-2.9c12.9-25.4,25.7-50.7,38.6-76.1
		C438.4,6.1,439.4,3.1,441.6,0.7z M424.6,39.6c-0.3-0.1-0.6-0.3-0.9-0.4c-1.1,15-2.2,30-3.4,45.2c2.8,0.4,5,0.4,7.6,0
		C426.8,69.3,425.7,54.5,424.6,39.6z"/>
	<path class="st1" d="M268.5,132.9c0.1-4.6,0.2-9.3,0.3-13.9c0.2-0.2,0.5-0.5,0.6-0.7c6.9-12.2,12.7-25,19.2-37.5
		c2.6-5,4.7-10.2,7.8-14.8l0.4,0.1l0.4,0c0,20.1,0.1,40.3,0.1,60.4c0,2.2,0.1,4.3,0.2,6.5c-0.7,0-1.3,0-2,0c-0.5-0.8-1.3-1-2.1-1
		c-6.9,0-13.8,0-20.8,0c-0.9,0-1.6,0.2-2.1,1C269.8,132.9,269.1,132.9,268.5,132.9z"/>
	<path class="st0" d="M374.4,131.8c3.1-6.2,6.2-12.5,9.3-18.7c1,6.6-0.3,13.2,0.7,19.8c-3.3,0-6.7,0-10,0
		C374.5,132.5,374.4,132.2,374.4,131.8z"/>
	<path class="st0" d="M815.5,37.9c-0.4-0.1-0.8-0.3-1.2-0.4c0-11.2,0.1-22.3,0.1-33.5c0.4,0,0.7-0.1,1.1-0.1
		C815.5,15.2,815.5,26.5,815.5,37.9z"/>
	<path class="st0" d="M814.5,97.8c0.3-0.1,0.7-0.1,1,0c0,10.7,0,21.3,0,32c-0.3,0-0.7,0-1,0C814.5,119.2,814.5,108.5,814.5,97.8z"/>
	<path class="st2" d="M270.5,132.9c0.5-0.8,1.3-1,2.1-1c6.9,0,13.8,0,20.8,0c0.9,0,1.6,0.2,2.1,1
		C287.1,132.9,278.8,132.9,270.5,132.9z"/>
	<path class="st2" d="M374.4,131.8c0,0.3,0,0.7,0,1c-5.7,0-11.3,0-17,0c2-1.9,4.4-0.8,6.6-0.9C367.5,131.7,371,131.9,374.4,131.8z"
		/>
	<path class="st3" d="M661.7,16.8c-4.1,0-7.7,0-11.4,0c-1-4.4-0.1-8.5-0.5-12.1c1.3-1.6,2.5-1.1,3.6-1.1c18.8,0,37.6,0,56.5,0
		c3.2,0,6.3,0.2,9.4,1c6.6,1.9,10.7,6.3,11.1,13.2c0.8,13.3,0.7,26.6,0.2,39.9c-0.3,8.6-5.5,13.6-14.1,14.9
		c-3.8,0.6-7.6,0.4-11.5,0.4c-8.8,0-17.6,0-26.5,0.1c-0.1,0-0.3,0.2-0.8,0.5c0,14.3,0,28.9,0,43.8c3.5,1.3,7.5-0.1,11.7,0.8
		c0,3.8,0,7.5,0,11.5c-13,0-26,0-39.4,0c0-3.9,0-7.6,0-11.8c3.9,0,7.7,0,11.7,0C661.7,84.2,661.7,50.8,661.7,16.8z M677.4,60.6
		c10.8-0.4,21.1,0.5,31.3-0.6c5.1-0.6,6.6-2,6.7-6.8c0.4-9.6,0.4-19.3,0-28.9c-0.3-5.6-1.6-7-7.4-7.2c-9.1-0.3-18.3-0.2-27.4-0.3
		c-1.1,0-2.4-0.4-3.3,0.9C677.4,31.7,677.4,45.8,677.4,60.6z"/>
	<path class="st3" d="M637.9,4c0,11.1,0,22,0,33.2c-4.5,0.6-8.8,0.3-13.6,0.2c0-6.8,0-13.4,0-19.6c-1.3-1.5-2.6-1-3.7-1
		c-10.5,0-21,0-31.5,0.1c-6.1,0.1-8,2-8.3,8.2c-0.3,6.8-0.2,13.7-0.2,20.5c0.1,21.2-0.4,42.3,0.3,63.5c0.3,7.5,1.5,8.6,9,8.7
		c11.3,0.1,22.6,0,34.3,0c0-6.8,0-13.4,0-20.1c4.8,0,9.2,0,13.8,0c0,10.7,0,21.2,0,31.7c-0.6,1-1.7,0.8-2.7,0.8c-18,0-36,0-54,0
		c-7.8,0-13.5-4.7-15.3-12.3c-0.7-2.9-0.8-5.9-0.8-8.9c0-27.2,0-54.3,0-81.5c0-3.3,0.1-6.7,1-9.9c1.7-6.7,5.9-11,12.6-12.7
		c3.9-1,7.9-1,11.9-1c15-0.1,30-0.1,45-0.1C636.4,3.6,637,3.9,637.9,4z"/>
	<path class="st3" d="M814.5,97.8c0,10.7,0,21.4,0,32c-3.1,0.6-6.3,0.2-9.4,0.2c-15.6,0-31.3,0.1-46.9,0c-7.6,0-13.6-5.1-15-12.7
		c-0.5-2.6-0.6-5.3-0.6-7.9c0-27.6,0.1-55.2-0.1-82.8c-0.1-18,8.6-23,23.1-22.9c16.3,0.1,32.6-0.4,48.9,0.2
		c0,11.2-0.1,22.3-0.1,33.5c-4.1,0-8.3,0-12.7,0c-1-6.8,0.2-13.6-0.7-20.4c-12.3,0-24.5-0.1-36.6,0.1c-3.8,0.1-5.6,2.1-6.1,6
		c-0.3,2.8-0.4,5.7-0.4,8.5c0,23,0,46,0,69c0,3.8,0.3,7.7,0.5,11.5c0.2,3,1.6,5.4,4.7,5.6c12.6,0.9,25.2,0.3,38.1,0.5
		c0-7,0-13.5,0-20.5C805.7,97.5,810.1,97.2,814.5,97.8z"/>
	<path class="st0" d="M296.4,65.9c-3.2,4.6-5.2,9.9-7.8,14.8c-6.5,12.4-12.3,25.2-19.2,37.5c-0.2,0.3-0.4,0.5-0.6,0.7
		c-0.1-4.7-0.2-9.3-0.2-14c0-26,0-51.9,0-77.9c0-1.6,0.4-3.3-0.6-5.3c-4.2,0-8.6,0-13.3,0c0-7.4,0-14.3,0-21.5c18.8,0,37.5,0,56.4,0
		c0,7,0,13.9,0,21.1c-4.4,0.8-8.9-0.1-13.9,0.6c0,14.1,0,28,0,41.9C296.4,64.4,296.5,65.2,296.4,65.9z"/>
	<path class="st1" d="M441.6,0.7c-2.2,2.4-3.2,5.4-4.6,8.2c-12.9,25.4-25.7,50.7-38.6,76.1c-0.5,1-0.8,2.2-1.9,2.9
		c-0.2-0.5-0.4-1-0.6-1.5c3.6-28.7,7.2-57.3,10.9-86.5c8.7,0,17.1-0.1,25.6,0.1C435.5,0.1,438.6-1.1,441.6,0.7z"/>
	<path class="st0" d="M329.5,0.2c-3.5,6.9-6.9,13.7-10.4,20.6c-0.8-6.8-0.1-13.5-0.4-20.7C322.6-0.1,326-0.2,329.5,0.2z"/>
	<path class="st2" d="M395.9,86.5c0.2,0.5,0.4,1,0.6,1.5c0,0.8-0.2,1.6-1,2C395.3,88.7,395.3,87.5,395.9,86.5z"/>
	<path class="st2" d="M296.4,65.9c0.1-0.7,0.1-1.5,0.7-2c0.3,0.7,0.3,1.3,0,2l-0.4,0L296.4,65.9z"/>
</g>
</svg>
