<?xml version="1.0" encoding="utf-8"?>
<!-- Generator: Adobe Illustrator 21.1.0, SVG Export Plug-In . SVG Version: 6.00 Build 0)  -->
<svg version="1.1" id="Ebene_1" xmlns="http://www.w3.org/2000/svg" xmlns:xlink="http://www.w3.org/1999/xlink" x="0px" y="0px"
	 viewBox="0 0 290.5 85.8" style="enable-background:new 0 0 290.5 85.8;" xml:space="preserve">
<style type="text/css">
	.st0{fill:#D61616;}
</style>
<g>
	<path fill="#D61616" d="M253.7,70.5H38.5c-19.4,0-35.2-15.8-35.2-35.2S19.1,0,38.5,0h215.1c19.4,0,35.2,15.8,35.2,35.2
		C288.9,54.6,273.1,70.5,253.7,70.5z M38.5,8.3c-14.8,0-26.9,12.1-26.9,26.9c0,14.8,12.1,26.9,26.9,26.9h215.1
		c14.8,0,26.9-12.1,26.9-26.9S268.5,8.3,253.7,8.3H38.5z"/>
	<path fill="#D61616" d="M66.1,51.6V19h-9.8v22.7L41.9,19H31.4v32.5h9.8V28.1l15.2,23.5H66.1z"/>
	<path fill="#D61616" d="M82,51.6v-22h-9.8v22H82z"/>
	<path fill="#D61616" d="M82,24.9V19h-9.8v5.9H82z"/>
	<path id="_x33_162" fill="#D61616" d="M116.3,51.6V36.4c0-3.2-6.1-7.6-9.3-7.6H104c-2.2,0-4.6,2-6.8,2.9v-2.2h-9.8v22h9.8V36.4
		c0-1.5,3.4-3.2,4.9-3.2c1.5,0,4.2,1.7,4.2,3.2v15.2L116.3,51.6L116.3,51.6z"/>
	<path id="_x33_162_1_" fill="#D61616" d="M198.1,52.3V37.2c0-3.2-6.1-7.6-9.3-7.6h-2.9c-2.2,0-4.6,2-6.8,2.9v-2.2h-9.8v22h9.8V37.2
		c0-1.5,3.4-3.2,4.9-3.2s4.2,1.7,4.2,3.2v15.2L198.1,52.3L198.1,52.3z"/>
	<path fill="#D61616" d="M132.1,51.6v-22h5.1v-2.9h-5.1V22h-10v4.6H117v2.9h5.1v22H132.1z"/>
	<path fill="#D61616" d="M151,28.8c-7.8,0-14.4,5.4-14.4,12c0,6.8,6.6,12.2,14.4,12.2c6.8,0,12.5-3.9,13.9-9h-10v2.9
		c0,2.4-1.7,3.2-3.9,3.2c-2.2,0-3.7-0.7-3.7-3.2v-6.1h18.1C165.4,34.2,159,28.8,151,28.8z M151,31c2.2,0,3.9,1.5,3.9,3.9v2.2h-7.6
		v-2.2C147.3,32.5,148.8,31,151,31z"/>
	<path fill="#D61616" d="M247.3,28.8c-8.1,0-14.4,5.4-14.4,12c0,6.8,6.4,12.2,14.4,12.2c7.8,0,14.4-5.4,14.4-12.2
		C261.7,34.2,255.1,28.8,247.3,28.8z M247.3,31c2.2,0,3.7,1.5,3.7,3.9v12c0,2.4-1.5,3.2-3.7,3.2c-2.4,0-3.9-0.7-3.9-3.2v-12
		C243.4,32.5,244.9,31,247.3,31z"/>
	<path fill="#D61616" d="M219.2,19v12c0,0-2.9-2.2-6.8-2.2c-6.1,0-11.2,5.4-11.2,11.2c0,6.1,5.1,12.2,11.2,12.2c3.9,0,6.8-1.5,6.8-1.5
		v0.7h9.8V19H219.2z M215.5,32.5c2.2,0,3.7,1.7,3.7,3.9v9c0,2.2-1.5,2.9-3.7,2.9c-2.4,0-3.9-0.7-3.9-2.9v-9
		C211.6,34.2,213.1,32.5,215.5,32.5z"/>
	<g>
		<path fill="#D61616" d="M262.9,29.2c-2.8,0-5-2.3-5-5c0-3,2.2-5.3,5-5.3c2.7,0,5,2.4,5,5.3C268,26.9,265.6,29.2,262.9,29.2z
			 M262.9,19.7c-2.4,0-4.3,1.9-4.3,4.5c0,2.3,1.9,4.3,4.3,4.3c2.2,0,4.3-2,4.3-4.3C267.2,21.8,265.2,19.7,262.9,19.7z M263.8,26.3
			l-0.9-1.5h-1.1v1.3h-0.8v-4.5h2.1c1,0,1.5,0.8,1.5,1.6c0,0.6-0.3,1.2-0.9,1.5l0.7,1.2L263.8,26.3z M261.9,24h1.3
			c0.2,0,0.4-0.1,0.5-0.2c0.1-0.1,0.2-0.4,0.2-0.6c0-0.3-0.1-0.8-0.7-0.8h-1.3L261.9,24L261.9,24z"/>
	</g>
</g>
<g>
	<path d="M24.5,85.8h-9.1c-2.6,0-3.9-1.3-3.9-3.9v-7.8h13v2.6H14.1v1.9h10.4v2.6H14.1v0.7c0,0.9,0.4,1.3,1.3,1.3h9.1V85.8z"/>
	<path d="M25.8,85.8V74.1h9.1c2.6,0,3.9,1.3,3.9,3.9v7.8h-2.6V78c0-0.9-0.4-1.3-1.3-1.3h-6.5v9.1C28.4,85.8,25.8,85.8,25.8,85.8z"/>
	<path d="M40.1,74.1h13v2.6h-5.2v9.1h-2.6v-9.1h-5.2L40.1,74.1L40.1,74.1z"/>
	<path d="M67.4,85.8h-9.1c-2.6,0-3.9-1.3-3.9-3.9v-7.8h13v2.6H57v1.9h10.4v2.6H57v0.7c0,0.9,0.4,1.3,1.3,1.3h9.1L67.4,85.8
		L67.4,85.8z"/>
	<path d="M71.3,81.2v4.6h-2.6V74.1h9.1c2.6,0,3.9,1.2,3.9,3.6c0,1.1-0.2,2-0.6,2.5c0.4,0.6,0.6,1.4,0.6,2.4v3.3h-2.6v-3.3
		c0-0.9-0.4-1.3-1.3-1.3L71.3,81.2L71.3,81.2z M71.3,78.6h7.8v-1.9h-7.8V78.6z"/>
	<path d="M83,74.1h13v2.6h-5.2v9.1h-2.6v-9.1H83L83,74.1L83,74.1z"/>
	<path d="M99.9,82.5v3.3h-2.6V78c0-2.6,1.3-3.9,3.9-3.9h5.2c2.6,0,3.9,1.3,3.9,3.9v7.8h-2.6v-3.3H99.9z M107.7,79.9v-2
		c0-0.9-0.4-1.3-1.3-1.3h-5.2c-0.9,0-1.3,0.4-1.3,1.3v2H107.7z"/>
	<path d="M111.6,85.8V74.1h2.6v11.7H111.6z"/>
	<path d="M115.5,85.8V74.1h9.1c2.6,0,3.9,1.3,3.9,3.9v7.8h-2.6V78c0-0.9-0.4-1.3-1.3-1.3h-6.5v9.1C118.1,85.8,115.5,85.8,115.5,85.8
		z"/>
	<path d="M129.8,85.8V74.1h10.4c2.6,0,3.9,1.3,3.9,3.9v7.8h-2.6V78c0-0.9-0.4-1.3-1.3-1.3h-1.9v9.1h-2.6v-9.1h-3.3v9.1
		C132.4,85.8,129.8,85.8,129.8,85.8z"/>
	<path d="M158.4,85.8h-9.1c-2.6,0-3.9-1.3-3.9-3.9v-7.8h13v2.6H148v1.9h10.4v2.6H148v0.7c0,0.9,0.4,1.3,1.3,1.3h9.1L158.4,85.8
		L158.4,85.8z"/>
	<path d="M159.7,85.8V74.1h9.1c2.6,0,3.9,1.3,3.9,3.9v7.8h-2.6V78c0-0.9-0.4-1.3-1.3-1.3h-6.5v9.1C162.3,85.8,159.7,85.8,159.7,85.8
		z"/>
	<path d="M174,74.1h13v2.6h-5.2v9.1h-2.6v-9.1H174L174,74.1L174,74.1z"/>
	<path d="M193.5,83.2H204v-2h-6.5c-2.6,0-3.9-1.2-3.9-3.5c0-2.4,1.3-3.6,3.9-3.6h9.1v2.6h-10.4v1.9h6.5c2.6,0,3.9,1.2,3.9,3.6
		s-1.3,3.6-3.9,3.6h-9.1V83.2z"/>
	<path d="M213.1,81.2h-1.3c-2.6,0-3.9-1.3-3.9-3.9v-3.3h2.6v3.3c0,0.9,0.4,1.3,1.3,1.3h5.2c0.9,0,1.3-0.4,1.3-1.3v-3.3h2.6v3.3
		c0,2.6-1.3,3.9-3.9,3.9h-1.3v4.6h-2.6L213.1,81.2L213.1,81.2z"/>
	<path d="M222.2,83.2h10.4v-2h-6.5c-2.6,0-3.9-1.2-3.9-3.5c0-2.4,1.3-3.6,3.9-3.6h9.1v2.6h-10.4v1.9h6.5c2.6,0,3.9,1.2,3.9,3.6
		s-1.3,3.6-3.9,3.6h-9.1L222.2,83.2L222.2,83.2z"/>
	<path d="M236.5,74.1h13v2.6h-5.2v9.1h-2.6v-9.1h-5.2L236.5,74.1L236.5,74.1z"/>
	<path d="M263.8,85.8h-9.1c-2.6,0-3.9-1.3-3.9-3.9v-7.8h13v2.6h-10.4v1.9h10.4v2.6h-10.4v0.7c0,0.9,0.4,1.3,1.3,1.3h9.1L263.8,85.8
		L263.8,85.8z"/>
	<path d="M265.1,85.8V74.1h10.4c2.6,0,3.9,1.3,3.9,3.9v7.8h-2.6V78c0-0.9-0.4-1.3-1.3-1.3h-2v9.1h-2.6v-9.1h-3.3v9.1
		C267.7,85.8,265.1,85.8,265.1,85.8z"/>
</g>
</svg>
