<?xml version="1.0" encoding="utf-8"?>
<!-- Generator: Adobe Illustrator 21.1.0, SVG Export Plug-In . SVG Version: 6.00 Build 0)  -->
<svg version="1.1"
	 id="Layer_1" xmlns:cc="http://creativecommons.org/ns#" xmlns:dc="http://purl.org/dc/elements/1.1/" xmlns:rdf="http://www.w3.org/1999/02/22-rdf-syntax-ns#"
	 xmlns="http://www.w3.org/2000/svg" xmlns:xlink="http://www.w3.org/1999/xlink" x="0px" y="0px" viewBox="0 0 566.9 71.2"
	 style="enable-background:new 0 0 566.9 71.2;" xml:space="preserve">
<style type="text/css">
	.st0{fill:#FB1714;}
</style>
<g id="g3">
	<polygon id="polygon5" class="st0" points="0,0 30.1,0 30.1,10.5 10.5,10.5 10.5,23.2 30.1,23.2 30.1,34 10.5,34 10.5,56.7 0,56.7 
			"/>
	<path id="path7" class="st0" d="M64.3,56.7H54.1v-8.8H34.2l-5.9,8.8H16.3L56,0h8.4L64.3,56.7L64.3,56.7z M54.1,37.1V20.6L41.9,37.1
		H54.1z"/>
	<polygon id="polygon9" class="st0" points="68.4,0 80.2,0 97,38.1 113.9,0 125.9,0 125.9,56.7 115.3,56.7 115.3,28.1 102.3,56.7 
		91.5,56.7 78.9,28.1 78.9,56.7 68.4,56.7 	"/>
	<polygon id="polygon11" class="st0" points="323.3,0 335.2,0 352,38.1 368.8,0 380.9,0 380.9,56.7 370.3,56.7 370.3,28.1 
		357.2,56.7 346.5,56.7 333.9,28.1 333.9,56.7 323.3,56.7 	"/>
	<rect id="rect13" x="129.3" class="st0" width="11" height="56.7"/>
	<polygon id="polygon15" class="st0" points="143.2,0 154.2,0 154.2,46.3 168.5,46.3 168.5,56.7 143.2,56.7 	"/>
	<polygon id="polygon17" class="st0" points="156.3,0 168.5,0 180,23.2 191.1,0 203.2,0 185.1,36 185.1,56.7 174.4,56.7 174.4,36 	
		"/>
	<path id="path19" class="st0" d="M262.9,42"/>
	<path id="path21" class="st0" d="M262.8,15.6c-4.8-9.2-14.4-15.4-25.5-15.4c-15.9,0-28.8,12.9-28.8,28.8s12.9,28.8,28.8,28.8
		c11.1,0,20.8-6.3,25.6-15.6l-13,0.1c-3.2,3-7.5,4.8-12.2,4.8c-10,0-18-8.1-18-18s8.1-18,18-18c4.6,0,8.9,1.8,12.1,4.6L262.8,15.6
		L262.8,15.6z"/>
	<path id="path23" class="st0" d="M291.2,57.9c-16,0-28.9-12.9-28.9-28.9s13-28.9,28.9-28.9c16,0,28.9,12.9,28.9,28.9
		S307.2,57.9,291.2,57.9L291.2,57.9z M309.6,29c0-10.1-8.2-18.3-18.3-18.3S273,18.9,273,29s8.2,18.3,18.3,18.3
		C301.4,47.3,309.6,39.1,309.6,29L309.6,29z"/>
	<path id="path25" class="st0" d="M403.4,0c9.6,0.8,17.1,8.8,17.1,18.6c0,9.8-7.5,17.8-17.1,18.6l-8.3,0v19.5h-10.6V0h10.6L403.4,0
		L403.4,0z M395.1,10.9v15.4l8.3,0c3.6-0.7,6.4-3.9,6.4-7.7c0-3.8-2.7-7-6.4-7.7L395.1,10.9L395.1,10.9z"/>
	<path id="path27" class="st0" d="M537.3,57.4h-10.5V0.5l14.6,0l8.3,0c9.6,0.8,17.1,8.8,17.1,18.6c0,8-5,14.8-12.1,17.5l12.3,20.9
		h-11.5L538.2,28h-1L537.3,57.4L537.3,57.4z M549.7,26.7c3.6-0.7,6.4-3.9,6.4-7.7c0-3.8-2.7-7-6.4-7.7h-12.4v15.4L549.7,26.7
		L549.7,26.7z"/>
	<path id="path29" class="st0" d="M434.4,32.7l0,8.3c0.7,3.6,3.9,6.4,7.7,6.4c3.8,0,7-2.7,7.7-6.4l0-8.3l0-32.3h10.9v32.3l0,8.3
		c-0.8,9.6-8.8,17.1-18.6,17.1c-9.8,0-17.8-7.5-18.6-17.1l0-8.3l0-32.3h10.9L434.4,32.7L434.4,32.7z"/>
	<polygon id="polygon31" class="st0" points="471.5,57.4 482.3,57.4 482.3,11.2 491.9,11.2 491.9,0.5 462.2,0.5 462.2,11.2 
		471.5,11.2 	"/>
	<polygon id="polygon33" class="st0" points="524,57.4 494.5,57.4 494.5,0.5 524,0.5 524,10.9 505.1,10.9 505.1,24.4 524,24.4 
		524,35 505.1,35 505.1,46.9 524,46.9 	"/>
	<path id="path35" class="st0" d="M537.3,28.1"/>
	<polygon id="polygon37" class="st0" points="0,65.6 0,71.2 555.4,71.2 566.9,65.6 	"/>
</g>
</svg>
