<?xml version="1.0" encoding="utf-8"?>
<!-- Generator: Adobe Illustrator 21.1.0, SVG Export Plug-In . SVG Version: 6.00 Build 0)  -->
<svg version="1.1"
	 id="Layer_1" inkscape:version="0.44.1" sodipodi:docbase="C:\Documents and Settings\Sigurd\Mine dokumenter\Mine bilder" sodipodi:docname="Playstation logo colour.svg" sodipodi:version="0.32" xmlns:cc="http://web.resource.org/cc/" xmlns:dc="http://purl.org/dc/elements/1.1/" xmlns:inkscape="http://www.inkscape.org/namespaces/inkscape" xmlns:rdf="http://www.w3.org/1999/02/22-rdf-syntax-ns#" xmlns:sodipodi="http://sodipodi.sourceforge.net/DTD/sodipodi-0.dtd" xmlns:svg="http://www.w3.org/2000/svg"
	 xmlns="http://www.w3.org/2000/svg" xmlns:xlink="http://www.w3.org/1999/xlink" x="0px" y="0px" viewBox="0 0 553 102"
	 style="enable-background:new 0 0 553 102;" xml:space="preserve">

<sodipodi:namedview  bordercolor="#666666" borderopacity="1.0" gridtolerance="10.0" guidetolerance="10.0" id="base" inkscape:current-layer="g3" inkscape:cx="145.65542" inkscape:cy="98.001689" inkscape:pageopacity="0.0" inkscape:pageshadow="2" inkscape:window-height="719" inkscape:window-width="1024" inkscape:window-x="-4" inkscape:window-y="-4" inkscape:zoom="1.9023033" objecttolerance="10.0" pagecolor="#ffffff">
	</sodipodi:namedview>
<g id="g3" transform="translate(-61.68556,-312.8684)">
	<path id="path7" fill="#DE0029" d="M133.8,334.9l-0.1,78.1l-20.9-6.8v-91.8l26.7,7.1c17.1,4.6,27.6,13.5,27.4,29.2
		c-0.2,18.2-8.6,25.5-25,20.8v-35.9C141.9,331.2,133.8,331,133.8,334.9L133.8,334.9z"/>
	<path id="path9" fill="#F3C202" d="M103.2,391.1l-9.9,3.3c-6.4,2.2-11.8-3-6-5.1l4.8-1.7l-17.9-5.7c-5.5,1.9-10.7,5.9-10.4,11.5
		c0.3,5.7,13.4,7.1,23.4,8.7c9.4,1.5,17.9,0.7,25.6-2v-5.9L103.2,391.1L103.2,391.1z M133.9,413l18.3-6.4l-18.5-5.9v11.8L133.9,413
		L133.9,413z"/>
	<path id="path11" fill="#326DB3" d="M182.5,395.9l0.3-0.1c8-2.8,11.4-6.7,10.5-10.4c-1.4-6.1-11.1-9.4-26.2-10.5
		c-10.8-0.8-21.4,1.6-31.8,5.2l-1.7,0.6l18.6,5.8l10.9-3.7c11.4-2.1,16,1.6,5,5.1l-5.4,1.9L182.5,395.9L182.5,395.9z M112.8,368.9
		l-8.3,2.8l8.3,2.6V368.9L112.8,368.9z"/>
	<path id="path13" fill="#00AA9E" d="M152.2,406.7l30.4-10.7l-19.7-6.1l-29.1,10v1L152.2,406.7L152.2,406.7z M112.8,387.9l-9.6,3.2
		l9.6,3.1V387.9L112.8,387.9z M133.7,392.9v-12.2l18.6,5.8L133.7,392.9L133.7,392.9z M92.1,387.6l20.7-7.4v-6l-8.3-2.6l-29.9,10.1
		c-0.1,0-0.3,0.1-0.4,0.1L92.1,387.6L92.1,387.6z"/>
</g>
<g>
	<path id="path2998_1_" d="M152,16.5v28.8v28.8h5h5V48.4V22.7h6.2c4.5,0,6.5,0.1,7.2,0.4c1.5,0.6,3,2.5,3.7,4.5
		c0.3,1,0.6,3.3,0.7,5.8c0.2,5.2-0.4,8.4-2,10.4c-1.6,2.2-2.6,2.5-7.3,2.5h-4v3.1v3.1l6.3-0.1l6.3-0.1l2.2-1c4-1.9,7-5.8,8.2-10.8
		c0.7-2.8,0.7-9.1,0-12.1c-0.6-2.9-2-5.8-3.5-7.6c-0.6-0.7-1.9-1.8-2.7-2.3c-2.9-1.9-4.1-2-18.4-2L152,16.5L152,16.5z M196.6,16.5
		v28.8v28.8h5h5V45.3V16.5h-5H196.6z M322.9,16.5c-4.5,0-9.2,0.2-10.3,0.3c-2.6,0.4-5.7,1.8-7.4,3.4c-1.7,1.6-3.2,3.9-4,6.4
		c-0.5,1.5-0.7,3-0.7,5.9c0,4.1,0.3,5.9,1.7,8.6c0.9,1.8,3.4,4.4,5,5.4c1.9,1.1,4.4,1.7,8.7,2.1c3.3,0.3,4,0.4,5.1,1.1
		c0.8,0.6,1.6,1.5,2.2,2.7c0.9,1.8,0.9,2.1,0.9,6c0,3.8-0.1,4.2-0.9,5.8c-0.6,1.1-1.4,2-2.2,2.6l-1.4,0.9l-8.6,0.1l-8.6,0.1V71v3.1
		h9.7c5.9,0,10.4-0.1,11.5-0.4c4-0.8,7.3-3.4,8.9-6.9c1.4-3,1.8-6,1.7-10.6c-0.2-4.8-0.9-7.4-2.8-10.3c-2.4-3.6-5.1-4.8-11.9-5.4
		c-2.5-0.2-5.1-0.6-5.7-0.9c-1.4-0.6-2.7-2.1-3.3-3.7c-0.6-1.6-0.6-6.4,0-8.4s2.3-3.8,4.1-4.3c0.9-0.3,3.9-0.4,8.8-0.4h7.5v-3.2
		v-3.1H322.9L322.9,16.5L322.9,16.5z M438.7,16.5v4.2v4.2h5h5v-4.2v-4.2h-5L438.7,16.5L438.7,16.5z M341.8,23l0.1,20.7
		c0.1,20.4,0.1,20.8,0.8,22.6c0.4,1,1.2,2.6,1.9,3.4c1.3,1.8,3,3,5.1,3.7c1,0.4,2.8,0.5,6.1,0.5h4.6v-3.1v-3.1h-3
		c-2.9,0-3.1,0-3.9-0.9c-0.5-0.5-1-1.6-1.2-2.5c-0.2-1-0.3-6.4-0.3-14.8l0.1-13.2l5.4-0.1l5.4-0.1V33v-3.1h-5.5h-5.5v-3.3V23h-5
		H341.8L341.8,23z M411.4,23v20.5c0,19.8,0,20.5,0.7,22.5c0.8,2.3,2.3,4.7,4,6c0.6,0.5,1.9,1.2,2.9,1.5c1.3,0.4,2.7,0.6,6.2,0.6h4.5
		V71v-3.1h-2.9c-2.4,0-3-0.1-3.7-0.7c-0.5-0.4-1-1.2-1.2-1.9c-0.2-0.7-0.3-6.6-0.3-15.1V36.3h5.5h5.5l-0.1-3l-0.1-3l-5.4-0.1
		l-5.4-0.1v-3.5V23h-5H411.4L411.4,23z M402.6,30.1l-10.8,0.2c-11.6,0.2-12.8,0.3-16.2,2c-3.8,1.9-6.4,5.7-7.6,10.8
		c-0.5,2.1-0.6,4-0.6,12.1c0,9.2,0,9.7,0.7,11.4c1.4,3.6,3.6,5.8,6.7,6.8c1.4,0.5,2.8,0.6,7.5,0.6h5.8v-3.1v-3.1h-4
		c-3.8,0-4.1,0-5-0.8c-0.6-0.5-1.1-1.3-1.3-2.3c-0.5-1.8-0.5-15.9,0-19.4c0.6-4.9,1.7-7.1,4-8.4c0.8-0.4,2.1-0.6,6-0.7l5-0.1V55
		v18.9h5.2h5.2v-12c0-6.7-0.1-16.6-0.2-22L402.6,30.1z M249.9,30.1l-10.8,0.2c-11.7,0.2-13.4,0.4-16.6,2.1c-3.7,2-6.4,5.9-7.5,11.1
		c-0.7,3.3-1,16.8-0.5,20.1c0.5,2.8,1.8,5.7,3.4,7.3c1.2,1.2,3.1,2.4,4.7,2.9c0.4,0.1,3.5,0.3,6.7,0.3h5.9V71v-3.1H231
		c-4.7,0-5.3-0.2-6.2-2.2c-0.4-0.9-0.5-2.7-0.6-7.4c-0.1-6.8,0.3-14.1,1.1-16.5c0.7-2.2,1.9-3.9,3.3-4.6c1.1-0.5,2-0.6,6.1-0.6h4.9
		l0.1,18.8l0.1,18.8h5h5v-22L249.9,30.1L249.9,30.1z M260.7,30.2c-2.9,0-5.3,0-5.3,0.1c0,0,3.3,9.9,7.4,21.8l7.4,21.7l-4.1,10.8
		c-2.3,5.9-4.2,10.8-4.2,10.9s2,0.1,4.4,0l4.4-0.1l13-32.5c7.1-17.9,13-32.5,13-32.6c0,0-2.1-0.1-4.7-0.1c-3.4,0-4.8,0.1-4.9,0.4
		c-0.1,0.2-2.6,6.5-5.5,14s-5.4,13.7-5.6,13.7c-0.2,0.1-2.5-6.3-5.1-14l-4.8-14.2C266.1,30.2,260.7,30.2,260.7,30.2z M438.7,30.2
		v21.9V74h5h5V52.1V30.2h-5H438.7z M499.7,30.3l-0.1,21.9l0,0l-0.1,21.9h5.2h5.2V55.2V36.3l5,0.1c5.3,0.1,6.1,0.4,7.6,1.9
		c1.2,1.2,2,3.5,2.4,6.4c0.2,1.5,0.3,8.6,0.3,16V74h5h5V61.1c0-13.7-0.2-17-1.6-20.7c-1.8-5.1-5.1-8-10.5-9.5
		c-1.8-0.5-3.7-0.6-12.8-0.6L499.7,30.3L499.7,30.3z M474.2,30.4c-2.8,0-5.7,0.4-7.7,1.1c-2.7,0.9-4.4,2-6.1,3.9
		c-1.9,2.1-3.2,4.8-4,8.3c-0.5,2.1-0.6,3.8-0.6,8.9c0,5.4,0.1,6.7,0.7,8.8c1,3.6,2.3,6,4.2,8c1.9,1.9,4.7,3.4,7.9,4.1
		c1.4,0.3,3.4,0.4,6.5,0.3c5.2-0.1,7.7-0.8,10.8-2.9c2.6-1.8,4.5-4.5,5.6-8c1.6-5,1.8-13.2,0.6-19.2c-0.6-2.9-2-6.1-3.6-8.1
		c-1.5-1.8-3.9-3.4-6.6-4.3C479.9,30.8,477.1,30.4,474.2,30.4L474.2,30.4z M474.3,36.5c1.5,0,3,0.3,4.1,0.9c1.5,0.8,2.5,2.1,3.3,4.6
		c0.5,1.7,0.7,3.2,0.8,8.6c0.2,7.1-0.2,10.5-1.3,13c-0.8,1.8-2,3.2-3.4,3.8c-0.6,0.3-2.2,0.4-3.6,0.4c-2.1,0-2.8-0.1-4-0.8
		c-0.9-0.5-1.8-1.3-2.3-2.2c-1.5-2.4-2-5.5-2-12.5c0-6.7,0.3-9.3,1.6-12.1c0.4-0.9,1.3-2,1.9-2.5C470.6,37,472.4,36.5,474.3,36.5
		L474.3,36.5z"/>
</g>
</svg>
