<svg xmlns="http://www.w3.org/2000/svg" viewBox="0 0 1895.09 517.91">
  <title>logo</title>
  <g style="isolation: isolate">
    <g>
      <g>
        <path d="M508.85,410.9a169.87,169.87,0,0,1-105.4-36.41C369.76,348,349.65,308,349.65,267.3c0-34.22,14-65.28,39.39-87.47,23.71-20.72,55.29-32.13,88.91-32.13a135.84,135.84,0,0,1,93.54,37.57l15.2,14.37-54.26,52.48-37.51-26.57,9-12c-5.11-2.38-15-4.83-24.78-4.83-36,0-58.3,22.8-58.3,59.5,0,21.38,9,41.78,25.34,57.45,16.07,15.41,37.59,24.25,59.06,24.25,4.42,0,8.31-.74,10.68-2a4.67,4.67,0,0,0,2.62-3.51l3.79-15.15h43.71v72.91l-15.26,3.72A174.77,174.77,0,0,1,508.85,410.9Z" transform="translate(-63.04 -132.7)" fill="#f9ca33" stroke="#0d4da1" stroke-miterlimit="10" stroke-width="30"/>
        <path d="M679.25,406.4c-33.77,0-59.72-8-79.35-24.39-22.34-18.28-35.15-48.05-35.15-81.71,0-35.74,13.95-72.25,28.82-101l-2.12-.25V152.2h93.7v45.4l-16.08,3.22c-3.58.72-9.7,11.82-12.31,16.56l-1,1.87a170.47,170.47,0,0,0-19.78,78.67c0,21.51,7.8,32.51,12.44,37.16l.13.13C658.68,345.54,669.27,346,690.35,346h19V199.67l-11.1-2.56V152.2h91v43.64l-11.7,3.71v159.2l11.7,2.57V406.4Z" transform="translate(-63.04 -132.7)" fill="#f9ca33" stroke="#0d4da1" stroke-miterlimit="10" stroke-width="30"/>
        <path d="M882.34,410.9c-66.14,0-93.66-35.89-105.1-66l-5.9-15.53L832.59,292a119.31,119.31,0,0,1-13.29-7.26c-22.59-14.39-34.05-34.5-34.05-59.78s12.62-47.07,35.55-61c17-10.34,39.74-16.27,62.45-16.27,33.48,0,60.78,10.88,88.51,35.29l14.76,13-47.76,56.22L900,227.26l8.21-15.06c-5.46-2.15-15.56-4.11-24.94-4.11-16.91,0-32.8,6.8-32.8,10.9,0,1.42,0,3.8,7.32,7.95,8.63,4.89,21.95,8.82,36,13,19.68,5.81,42,12.4,59.88,24.21,23.26,15.36,35.05,36.81,35.05,63.75C988.74,384.93,933.59,410.9,882.34,410.9Zm-35.48-69.07c2.22,1.47,6.18,3.44,12.58,5.2a103.24,103.24,0,0,0,25,3.47c11.73,0,22.63-2.16,29.92-5.94,7.62-3.95,9.18-8.2,9.18-13.36,0-2.1,0-5.28-8.5-10.12-9.21-5.25-23.18-9.31-38-13.6s-30-8.69-43.8-15.12l26.66,37.32Z" transform="translate(-63.04 -132.7)" fill="#f9ca33" stroke="#0d4da1" stroke-miterlimit="10" stroke-width="30"/>
        <path d="M1028.84,406.4V361.08l12.6-2.58V212.6h-28.6l-2.5,15.32h-46V152.2h222.4v75.7h-47.23l-1.42-15.3h-28.45V358.5l12.6,2.58V406.4Z" transform="translate(-63.04 -132.7)" fill="#f9ca33" stroke="#0d4da1" stroke-miterlimit="10" stroke-width="30"/>
        <path d="M1294.84,410.9c-75.39,0-130.1-56.36-130.1-134,0-36.17,13.37-69.15,37.63-92.87,24-23.43,57-36.33,93.07-36.33,36.31,0,69.29,13.4,92.88,37.73,23.23,24,36,57.08,36,93.27,0,36.38-12.79,69.74-36,93.92C1364.6,397.3,1331.4,410.9,1294.84,410.9Zm-2.1-202.8c-18.85,0-32.72,6.17-42.41,18.87-9.28,12.16-14.39,30.53-14.39,51.73s5.41,39.84,15.24,52.3c10.21,12.94,25.2,19.5,44.56,19.5,51.81,0,57.4-48.32,57.4-69.1,0-22.17-5.22-40.65-15.1-53.44C1327.86,214.78,1312.62,208.1,1292.74,208.1Z" transform="translate(-63.04 -132.7)" fill="#f9ca33" stroke="#0d4da1" stroke-miterlimit="10" stroke-width="30"/>
        <path d="M1594.94,406.4V360.05l6.56-.94-14.2-77.34L1558.42,356h-39.63l-31.34-75.51-13.39,78.8,7,1.16V406.4h-81.7V362.17l11.33-3.12c.14-.69.28-1.4.4-2l28.55-158.58-7-1.84V152.2h71.47L1540.45,240l33.75-87.83h72.44v47.4l-7,.58L1670,359l11.69,3.34V406.4Zm17.49-48.85Z" transform="translate(-63.04 -132.7)" fill="#f9ca33" stroke="#0d4da1" stroke-miterlimit="10" stroke-width="30"/>
      </g>
      <g>
        <g opacity="0.3" style="mix-blend-mode: multiply">
          <g>
            <path d="M228.5,456.74l4.24,63H228.5Q220,491.47,204.3,479t-37.73-12.44a61.41,61.41,0,0,0-33.36,9.37q-14.9,9.37-23.45,29.87t-8.54,51q0,25.16,8.07,43.61t24.27,28.3q16.2,9.84,37,9.84,18,0,31.86-7.72t30.35-30.69l4.24,2.73Q223,627.64,204.43,639.12t-44.16,11.48q-46.08,0-71.37-34.18Q70,591,70,556.54a106.34,106.34,0,0,1,12.44-51,90,90,0,0,1,34.25-36,92.54,92.54,0,0,1,47.65-12.78A87.33,87.33,0,0,1,204,466.58q5.74,3,8.2,3a9,9,0,0,0,6.43-2.6,21.32,21.32,0,0,0,5.06-10.25Z" transform="translate(-63.04 -132.7)"/>
            <path d="M349.08,456.74q36.09,0,62.55,27.41t26.46,68.43q0,42.25-26.66,70.14t-64.53,27.89q-38.28,0-64.33-27.21t-26-70.41q0-44.16,30.08-72.05Q312.71,456.74,349.08,456.74Zm-2.6,10q-24.88,0-39.92,18.46-18.73,23-18.73,67.27,0,45.39,19.41,69.86,14.9,18.59,39.38,18.59,26.11,0,43.13-20.37t17-64.26q0-47.58-18.73-71Q373,466.72,346.48,466.72Z" transform="translate(-63.04 -132.7)"/>
            <path d="M609.39,595.1l4.51,1L598,646.37H454.49v-5.06h7q11.76,0,16.82-7.66,2.87-4.37,2.87-20.23V493.79q0-17.36-3.83-21.74-5.33-6-15.86-6h-7V461h83.95V466q-14.77-.13-20.71,2.73T509.59,476q-2.19,4.38-2.19,20.92V613.42q0,11.35,2.19,15.59a9.76,9.76,0,0,0,5.06,4.24q3.42,1.37,21.33,1.37h13.54q21.33,0,29.94-3.14a39,39,0,0,0,15.72-11.14Q602.28,612.33,609.39,595.1Z" transform="translate(-63.04 -132.7)"/>
            <path d="M780.43,595.1l4.51,1-15.86,50.31H625.53v-5.06h7q11.76,0,16.82-7.66,2.87-4.37,2.87-20.23V493.79q0-17.36-3.83-21.74-5.33-6-15.86-6h-7V461h83.95V466q-14.77-.13-20.71,2.73T680.63,476q-2.19,4.38-2.19,20.92V613.42q0,11.35,2.19,15.59a9.76,9.76,0,0,0,5.06,4.24q3.42,1.37,21.33,1.37h13.54q21.33,0,29.94-3.14a39,39,0,0,0,15.72-11.14Q773.32,612.33,780.43,595.1Z" transform="translate(-63.04 -132.7)"/>
            <path d="M849.47,471.09v73.28h40.74q15.86,0,21.19-4.79,7.11-6.29,7.93-22.15h5.06V582h-5.06q-1.92-13.54-3.83-17.36a17.13,17.13,0,0,0-8.07-7.52q-5.61-2.73-17.23-2.73H849.47v61.11q0,12.3,1.09,15a8.59,8.59,0,0,0,3.83,4.24q2.73,1.57,10.39,1.57h31.45q15.72,0,22.83-2.19a34,34,0,0,0,13.67-8.61q8.48-8.48,17.36-25.57h5.47l-16,46.48H796.7v-5.06h6.56a26,26,0,0,0,12.44-3.14,11.5,11.5,0,0,0,5.95-6.56q1.57-4.37,1.57-17.91V493.24q0-17.64-3.55-21.74Q814.75,466,803.26,466H796.7V461H939.57l2.05,40.61h-5.33q-2.87-14.63-6.36-20.1a21.84,21.84,0,0,0-10.32-8.34q-5.47-2.05-19.28-2.05Z" transform="translate(-63.04 -132.7)"/>
            <path d="M1130.57,456.74l4.24,63h-4.24q-8.48-28.3-24.2-40.74t-37.73-12.44a61.41,61.41,0,0,0-33.36,9.37q-14.9,9.37-23.45,29.87t-8.54,51q0,25.16,8.07,43.61t24.27,28.3q16.2,9.84,37,9.84,18,0,31.86-7.72t30.35-30.69l4.24,2.73q-13.95,24.75-32.54,36.23t-44.16,11.48q-46.08,0-71.37-34.18Q972.11,591,972.11,556.54a106.34,106.34,0,0,1,12.44-51,90,90,0,0,1,34.25-36,92.54,92.54,0,0,1,47.65-12.78,87.33,87.33,0,0,1,39.65,9.84q5.74,3,8.2,3a9,9,0,0,0,6.43-2.6,21.32,21.32,0,0,0,5.06-10.25Z" transform="translate(-63.04 -132.7)"/>
            <path d="M1310.76,461l2.05,43.48h-5.2q-1.51-11.48-4.1-16.41a27.47,27.47,0,0,0-11.28-11.69q-7-3.76-18.53-3.76H1247.6V614.24q0,17.09,3.69,21.33,5.19,5.74,16,5.74h6.43v5.06H1195.1v-5.06h6.56q11.76,0,16.68-7.11,3-4.37,3-20V472.6h-22.29q-13,0-18.46,1.91-7.11,2.6-12.17,10t-6,20h-5.2l2.19-43.48Z" transform="translate(-63.04 -132.7)"/>
            <path d="M1406.19,641.31v5.06h-79.43v-5.06h6.56q11.48,0,16.68-6.7,3.28-4.37,3.28-21.05V493.79q0-14.08-1.78-18.59a12.33,12.33,0,0,0-5.61-5.88,25.92,25.92,0,0,0-12.58-3.28h-6.56V461h79.43V466h-6.7q-11.35,0-16.54,6.7-3.42,4.38-3.42,21.05V613.56q0,14.08,1.78,18.59,1.37,3.42,5.74,5.88a25.14,25.14,0,0,0,12.44,3.28Z" transform="translate(-63.04 -132.7)"/>
            <path d="M1515.43,456.74q36.09,0,62.55,27.41t26.46,68.43q0,42.25-26.66,70.14t-64.53,27.89q-38.28,0-64.33-27.21t-26-70.41q0-44.16,30.08-72.05Q1479.06,456.74,1515.43,456.74Zm-2.6,10q-24.88,0-39.92,18.46-18.73,23-18.73,67.27,0,45.39,19.41,69.86,14.9,18.59,39.38,18.59,26.11,0,43.13-20.37t17-64.26q0-47.58-18.73-71Q1539.35,466.72,1512.83,466.72Z" transform="translate(-63.04 -132.7)"/>
            <path d="M1611.54,461h50.31L1775.2,600V493.11q0-17.09-3.83-21.33-5.06-5.74-16-5.74h-6.43V461h64.53V466h-6.56q-11.76,0-16.68,7.11-3,4.38-3,20V649.38h-4.92l-122.23-149.3V614.24q0,17.09,3.69,21.33,5.19,5.74,16,5.74h6.56v5.06H1621.8v-5.06h6.43q11.89,0,16.82-7.11,3-4.37,3-20V485.31q-8.07-9.43-12.24-12.44t-12.24-5.61q-4-1.23-12-1.23Z" transform="translate(-63.04 -132.7)"/>
            <path d="M1945.82,456.74v64.12h-5.06q-2.46-18.46-8.82-29.39a45.89,45.89,0,0,0-18.12-17.36,50.12,50.12,0,0,0-24.34-6.43q-14.22,0-23.52,8.68t-9.3,19.76a23.4,23.4,0,0,0,5.88,15.45q8.48,10.25,40.33,27.34,26,13.95,35.48,21.4A52.21,52.21,0,0,1,1953,577.87a46.29,46.29,0,0,1,5.13,21.19q0,21.06-16.34,36.3t-42,15.24a89,89,0,0,1-15.18-1.23q-4.24-.69-17.57-5t-16.88-4.31a7.16,7.16,0,0,0-5.4,2.05q-2,2.05-2.94,8.48h-5.06V587h5.06q3.55,20,9.57,29.87t18.39,16.47a57,57,0,0,0,27.14,6.56q17.09,0,27-9t9.91-21.33a28.93,28.93,0,0,0-3.76-13.81,41.2,41.2,0,0,0-11.69-13q-5.33-4.1-29.12-17.43t-33.84-21.26a57.31,57.31,0,0,1-15.24-17.5,43.4,43.4,0,0,1-5.2-21.05q0-20,15.31-34.38t39-14.42q14.77,0,31.31,7.25,7.66,3.42,10.8,3.42a8.14,8.14,0,0,0,5.81-2.12q2.26-2.12,3.62-8.54Z" transform="translate(-63.04 -132.7)"/>
          </g>
        </g>
        <g>
          <path d="M221.5,449.74l4.24,63H221.5Q213,484.47,197.3,472t-37.73-12.44a61.41,61.41,0,0,0-33.36,9.37q-14.9,9.37-23.45,29.87t-8.54,51q0,25.16,8.07,43.61t24.27,28.3q16.2,9.84,37,9.84,18,0,31.86-7.72t30.35-30.69l4.24,2.73Q216,620.64,197.43,632.12t-44.16,11.48q-46.08,0-71.37-34.18Q63,584,63,549.54a106.34,106.34,0,0,1,12.44-51,90,90,0,0,1,34.25-36,92.54,92.54,0,0,1,47.65-12.78A87.33,87.33,0,0,1,197,459.58q5.74,3,8.2,3a9,9,0,0,0,6.43-2.6,21.32,21.32,0,0,0,5.06-10.25Z" transform="translate(-63.04 -132.7)" fill="#353535"/>
          <path d="M342.08,449.74q36.09,0,62.55,27.41t26.46,68.43q0,42.25-26.66,70.14t-64.53,27.89q-38.28,0-64.33-27.21t-26-70.41q0-44.16,30.08-72.05Q305.71,449.74,342.08,449.74Zm-2.6,10q-24.88,0-39.92,18.46-18.73,23-18.73,67.27,0,45.39,19.41,69.86,14.9,18.59,39.38,18.59,26.11,0,43.13-20.37t17-64.26q0-47.58-18.73-71Q366,459.72,339.48,459.72Z" transform="translate(-63.04 -132.7)" fill="#353535"/>
          <path d="M602.39,588.1l4.51,1L591,639.37H447.49v-5.06h7q11.76,0,16.82-7.66,2.87-4.37,2.87-20.23V486.79q0-17.36-3.83-21.74-5.33-6-15.86-6h-7V454h83.95V459q-14.77-.13-20.71,2.73T502.59,469q-2.19,4.38-2.19,20.92V606.42q0,11.35,2.19,15.59a9.76,9.76,0,0,0,5.06,4.24q3.42,1.37,21.33,1.37h13.54q21.33,0,29.94-3.14a39,39,0,0,0,15.72-11.14Q595.28,605.33,602.39,588.1Z" transform="translate(-63.04 -132.7)" fill="#353535"/>
          <path d="M773.43,588.1l4.51,1-15.86,50.31H618.53v-5.06h7q11.76,0,16.82-7.66,2.87-4.37,2.87-20.23V486.79q0-17.36-3.83-21.74-5.33-6-15.86-6h-7V454h83.95V459q-14.77-.13-20.71,2.73T673.63,469q-2.19,4.38-2.19,20.92V606.42q0,11.35,2.19,15.59a9.76,9.76,0,0,0,5.06,4.24q3.42,1.37,21.33,1.37h13.54q21.33,0,29.94-3.14a39,39,0,0,0,15.72-11.14Q766.32,605.33,773.43,588.1Z" transform="translate(-63.04 -132.7)" fill="#353535"/>
          <path d="M842.47,464.09v73.28h40.74q15.86,0,21.19-4.79,7.11-6.29,7.93-22.15h5.06V575h-5.06q-1.92-13.54-3.83-17.36a17.13,17.13,0,0,0-8.07-7.52q-5.61-2.73-17.23-2.73H842.47v61.11q0,12.3,1.09,15a8.59,8.59,0,0,0,3.83,4.24q2.73,1.57,10.39,1.57h31.45q15.72,0,22.83-2.19a34,34,0,0,0,13.67-8.61q8.48-8.48,17.36-25.57h5.47l-16,46.48H789.7v-5.06h6.56a26,26,0,0,0,12.44-3.14,11.5,11.5,0,0,0,5.95-6.56q1.57-4.37,1.57-17.91V486.24q0-17.64-3.55-21.74Q807.75,459,796.26,459H789.7V454H932.57l2.05,40.61h-5.33q-2.87-14.63-6.36-20.1a21.84,21.84,0,0,0-10.32-8.34q-5.47-2.05-19.28-2.05Z" transform="translate(-63.04 -132.7)" fill="#353535"/>
          <path d="M1123.57,449.74l4.24,63h-4.24q-8.48-28.3-24.2-40.74t-37.73-12.44a61.41,61.41,0,0,0-33.36,9.37q-14.9,9.37-23.45,29.87t-8.54,51q0,25.16,8.07,43.61t24.27,28.3q16.2,9.84,37,9.84,18,0,31.86-7.72t30.35-30.69l4.24,2.73q-13.95,24.75-32.54,36.23t-44.16,11.48q-46.08,0-71.37-34.18Q965.11,584,965.11,549.54a106.34,106.34,0,0,1,12.44-51,90,90,0,0,1,34.25-36,92.54,92.54,0,0,1,47.65-12.78,87.33,87.33,0,0,1,39.65,9.84q5.74,3,8.2,3a9,9,0,0,0,6.43-2.6,21.32,21.32,0,0,0,5.06-10.25Z" transform="translate(-63.04 -132.7)" fill="#353535"/>
          <path d="M1303.76,454l2.05,43.48h-5.2q-1.51-11.48-4.1-16.41a27.47,27.47,0,0,0-11.28-11.69q-7-3.76-18.53-3.76H1240.6V607.24q0,17.09,3.69,21.33,5.19,5.74,16,5.74h6.43v5.06H1188.1v-5.06h6.56q11.76,0,16.68-7.11,3-4.37,3-20V465.6h-22.29q-13,0-18.46,1.91-7.11,2.6-12.17,10t-6,20h-5.2l2.19-43.48Z" transform="translate(-63.04 -132.7)" fill="#353535"/>
          <path d="M1399.19,634.31v5.06h-79.43v-5.06h6.56q11.48,0,16.68-6.7,3.28-4.37,3.28-21.05V486.79q0-14.08-1.78-18.59a12.33,12.33,0,0,0-5.61-5.88,25.92,25.92,0,0,0-12.58-3.28h-6.56V454h79.43V459h-6.7q-11.35,0-16.54,6.7-3.42,4.38-3.42,21.05V606.56q0,14.08,1.78,18.59,1.37,3.42,5.74,5.88a25.14,25.14,0,0,0,12.44,3.28Z" transform="translate(-63.04 -132.7)" fill="#353535"/>
          <path d="M1508.43,449.74q36.09,0,62.55,27.41t26.46,68.43q0,42.25-26.66,70.14t-64.53,27.89q-38.28,0-64.33-27.21t-26-70.41q0-44.16,30.08-72.05Q1472.06,449.74,1508.43,449.74Zm-2.6,10q-24.88,0-39.92,18.46-18.73,23-18.73,67.27,0,45.39,19.41,69.86,14.9,18.59,39.38,18.59,26.11,0,43.13-20.37t17-64.26q0-47.58-18.73-71Q1532.35,459.72,1505.83,459.72Z" transform="translate(-63.04 -132.7)" fill="#353535"/>
          <path d="M1604.54,454h50.31L1768.2,593V486.11q0-17.09-3.83-21.33-5.06-5.74-16-5.74h-6.43V454h64.53V459h-6.56q-11.76,0-16.68,7.11-3,4.38-3,20V642.38h-4.92l-122.23-149.3V607.24q0,17.09,3.69,21.33,5.19,5.74,16,5.74h6.56v5.06H1614.8v-5.06h6.43q11.89,0,16.82-7.11,3-4.37,3-20V478.31q-8.07-9.43-12.24-12.44t-12.24-5.61q-4-1.23-12-1.23Z" transform="translate(-63.04 -132.7)" fill="#353535"/>
          <path d="M1938.82,449.74v64.12h-5.06q-2.46-18.46-8.82-29.39a45.89,45.89,0,0,0-18.12-17.36,50.12,50.12,0,0,0-24.34-6.43q-14.22,0-23.52,8.68t-9.3,19.76a23.4,23.4,0,0,0,5.88,15.45q8.48,10.25,40.33,27.34,26,13.95,35.48,21.4A52.21,52.21,0,0,1,1946,570.87a46.29,46.29,0,0,1,5.13,21.19q0,21.06-16.34,36.3t-42,15.24a89,89,0,0,1-15.18-1.23q-4.24-.69-17.57-5t-16.88-4.31a7.16,7.16,0,0,0-5.4,2.05q-2,2.05-2.94,8.48h-5.06V580h5.06q3.55,20,9.57,29.87t18.39,16.47a57,57,0,0,0,27.14,6.56q17.09,0,27-9t9.91-21.33a28.93,28.93,0,0,0-3.76-13.81,41.2,41.2,0,0,0-11.69-13q-5.33-4.1-29.12-17.43t-33.84-21.26a57.31,57.31,0,0,1-15.24-17.5,43.4,43.4,0,0,1-5.2-21.05q0-20,15.31-34.38t39-14.42q14.77,0,31.31,7.25,7.66,3.42,10.8,3.42a8.14,8.14,0,0,0,5.81-2.12q2.26-2.12,3.62-8.54Z" transform="translate(-63.04 -132.7)" fill="#353535"/>
        </g>
      </g>
    </g>
  </g>
</svg>
