<?xml version="1.0" encoding="utf-8"?>
<!-- Generator: Adobe Illustrator 21.1.0, SVG Export Plug-In . SVG Version: 6.00 Build 0)  -->
<svg version="1.1"
	 id="svg2" xmlns:cc="http://creativecommons.org/ns#" xmlns:dc="http://purl.org/dc/elements/1.1/" xmlns:rdf="http://www.w3.org/1999/02/22-rdf-syntax-ns#" xmlns:svg="http://www.w3.org/2000/svg"
	 xmlns="http://www.w3.org/2000/svg" xmlns:xlink="http://www.w3.org/1999/xlink" x="0px" y="0px" viewBox="0 0 1087.1 210"
	 style="enable-background:new 0 0 1087.1 210;" xml:space="preserve">
<style type="text/css">
	.st0{stroke:#FDFDFD;stroke-width:0.2817;}
	.st1{fill:#6EB92B;}
	.st2{fill:#FFE100;}
	.st3{fill:#00A7EB;}
	.st4{fill:#E60012;}
</style>
<g id="layer1" transform="translate(0,-950.12716)">
	<path id="path4173" class="st0" d="M293.2,1079.2c-0.4-0.4-0.2-9.5,0.2-9.9c0.3-0.3,4.6-0.3,17.7-0.3c16.9,0,17.4,0,18.5-0.6
		c0.6-0.3,1.3-0.9,1.7-1.2c0.6-0.7,1.2-2.5,1.2-3.7c0-1.5-1.6-4.2-2.5-4.2c-0.2,0-0.8-0.2-1.3-0.4c-0.7-0.3-3.1-0.4-13.6-0.5
		c-8.9-0.1-12.8-0.2-13.1-0.4c-0.2-0.2-1.1-0.5-1.9-0.7c-0.9-0.2-1.7-0.5-2-0.7c-0.2-0.2-0.6-0.4-0.8-0.4c-0.2,0-1.4-1.1-2.7-2.4
		c-1.8-1.9-2.5-2.7-2.8-3.7c-0.5-1.7-1-3.1-1.5-4.2c-0.5-1.3-0.5-6.1,0-6.7c0.2-0.2,0.4-0.8,0.4-1.3c0-1.7,1.5-4.3,3.8-6.6
		c1.2-1.2,2.4-2.3,2.8-2.4c0.3-0.1,0.8-0.4,1-0.5s1.1-0.5,2-0.7c1.4-0.4,4.3-0.5,24.9-0.5h23.3v4.7c0,3.3-0.1,4.8-0.3,5.1
		c-0.3,0.3-4.7,0.3-18.4,0.3c-16.8,0-18.1,0-19,0.5c-1.9,1-2.9,2.5-2.9,4.7c0,2,1.2,4.4,2.3,4.4c0.2,0,0.8,0.2,1.3,0.4
		c0.7,0.3,3.1,0.4,13.6,0.5c8.9,0.1,12.8,0.2,13.2,0.4c0.3,0.2,1.1,0.5,1.8,0.7c2.1,0.6,3.1,1.2,5.2,3.2c2.2,2.1,3.2,3.6,3.2,4.5
		c0,0.3,0.2,0.8,0.4,1.1c0.2,0.3,0.4,0.9,0.4,1.3c0,0.4,0.2,0.9,0.4,1.1c0.6,0.5,0.6,6.1,0,6.9c-0.2,0.3-0.4,1-0.4,1.5
		c0,0.5-0.3,1.4-0.6,2c-0.3,0.6-0.6,1.2-0.6,1.4c0,0.5-4.3,4.9-5.2,5.4c-0.5,0.2-1,0.5-1.3,0.6c-0.2,0.1-1.3,0.5-2.3,0.8
		c-1.9,0.6-2.2,0.6-24,0.6C303.3,1079.4,293.3,1079.3,293.2,1079.2L293.2,1079.2z"/>
	<path id="path4175" class="st0" d="M369.3,1079.1c-1.3-0.4-4.5-2-4.5-2.3c0-0.1-0.3-0.4-0.8-0.5c-0.9-0.3-3.2-2.3-3.2-2.8
		c0-0.2-0.4-0.8-0.9-1.5c-1.1-1.4-2.2-3.6-2.2-4.3c0-0.3-0.2-0.8-0.4-1.1c-0.4-0.6-0.4-3.1-0.4-19.9l0.1-19.3l7.4-0.1l7.4-0.1
		l0.1,17.7l0.1,17.7l0.8,1.5c1,1.9,2.5,3.3,4.5,4.1c1.4,0.5,2.3,0.6,11,0.6l9.5,0.1l0.1-20.8l0.1-20.8l7.7-0.1l7.7-0.1l-0.1,26
		l-0.1,26l-21.5,0C379.7,1079.3,369.7,1079.2,369.3,1079.1L369.3,1079.1z"/>
	<path id="path4177" class="st0" d="M423.4,1079.1c-0.3-0.3-0.3-6.3-0.3-25.5v-25.1l0.7-0.6c0.7-0.6,0.9-0.6,21.8-0.6
		c17.6,0,21.2,0.1,22.1,0.4c0.6,0.2,1.3,0.4,1.6,0.4c0.3,0,0.6,0.2,0.8,0.4s0.6,0.4,1,0.4c1.1,0,2.7,1,4.8,3.1c2,2,3,3.6,3.4,5.6
		c0.1,0.5,0.4,1.3,0.6,1.7c0.6,1.1,0.5,10.2,0,11.2c-0.2,0.4-0.4,1.1-0.4,1.5c0,2.8-5.9,9.2-8.4,9.2c-0.3,0-0.8,0.2-1.2,0.5
		c-0.6,0.5-1.9,0.5-15.5,0.6c-13.4,0.1-14.8,0.1-15.1,0.5c-0.3,0.3-0.4,2.4-0.4,8.1c0,5.6-0.1,7.7-0.3,8
		C438.1,1079.5,423.9,1079.5,423.4,1079.1L423.4,1079.1z M460,1051.4c0.9-0.5,1.5-1.1,2-2c0.7-1.3,0.8-1.6,0.8-4.3
		c0-2.9,0-3-0.9-4.4c-1.5-2.4-1.9-2.4-13.3-2.3l-9.6,0.1l-0.1,6.5c0,3.6,0,6.6,0.1,6.8c0.1,0.3,2.3,0.4,9.9,0.4
		C458.7,1052.1,458.7,1052.1,460,1051.4L460,1051.4z"/>
	<path id="path4179" class="st0" d="M502.4,1078.9c-0.8-0.2-1.8-0.5-2.3-0.6c-0.5-0.1-1.3-0.5-1.8-0.9c-0.5-0.4-1.6-1.1-2.3-1.6
		c-1.4-0.9-5.1-4.4-5.1-4.8c0-0.1-0.2-0.5-0.5-0.9c-0.9-1-3.7-6.6-3.7-7.6c0-0.5-0.2-1.1-0.4-1.4c-0.2-0.3-0.4-1.1-0.4-1.8
		c0-0.7-0.2-1.6-0.4-2c-0.6-1-0.6-6.7,0-7.8c0.2-0.4,0.4-1.4,0.4-2.1c0-0.8,0.2-1.4,0.4-1.7c0.2-0.2,0.4-0.8,0.4-1.5
		c0-0.7,0.2-1.4,0.6-1.9c0.3-0.4,0.6-0.9,0.6-1.2c0-0.3,0.1-0.6,0.3-0.6c0.1-0.1,0.6-0.9,1-1.8c0.4-0.9,0.9-1.7,1-1.7
		c0.1,0,0.4-0.4,0.6-0.9c0.5-1.1,3.8-4.4,4.5-4.4c0.2,0,0.4-0.1,0.4-0.3s0.6-0.6,1.3-1c0.7-0.4,1.5-0.9,1.7-1.1
		c0.2-0.2,0.7-0.4,1-0.4s0.9-0.2,1.2-0.4c0.3-0.2,1-0.4,1.5-0.4c0.5,0,1.3-0.2,1.6-0.4c0.5-0.4,2.8-0.4,17.6-0.4
		c16.4,0.1,17,0.1,17.3,0.6c0.6,0.8,0.6,9.8,0,10.4c-0.4,0.4-2.2,0.4-15.3,0.4c-16.7,0-15.7-0.1-17.9,2.1c-1.2,1.3-3.5,5.4-3.5,6.3
		c0,0.5,0.7,0.5,18,0.5c11.9,0,18.2,0.1,18.6,0.3c0.5,0.3,0.5,0.6,0.5,4.9c0,3.8-0.1,4.7-0.4,5.1c-0.4,0.4-2.5,0.4-18.6,0.4
		c-18.1,0-18.1,0-18.1,0.6c0,0.3,0.2,1,0.5,1.6c0.3,0.6,0.6,1.2,0.7,1.5c0.7,1.8,3.7,4.9,5.3,5.6c0.7,0.3,1.4,0.7,1.4,0.8
		c0.1,0.2,5.5,0.3,14.3,0.3c10.6,0,14.2,0.1,14.5,0.3c0.4,0.4,0.5,8.8,0.2,9.6c-0.2,0.4-2,0.4-17.8,0.4
		C506.6,1079.3,503.6,1079.3,502.4,1078.9L502.4,1078.9z"/>
	<path id="path4181" class="st0" d="M548.1,1079.2c-0.1-0.1-0.2-11.6-0.2-25.6c0-23.3,0-25.4,0.5-25.8c0.4-0.3,4.3-0.4,22.5-0.5
		c19.7-0.1,22.2,0,23.7,0.4c0.9,0.3,2,0.6,2.4,0.9c0.4,0.2,1,0.4,1.3,0.4s0.8,0.2,1,0.4c0.2,0.2,0.6,0.4,0.8,0.4
		c0.2,0,1.4,1,2.6,2.3c2.2,2.3,2.8,3.2,3.5,6.3c0.2,0.6,0.4,1.2,0.5,1.4c0.3,0.4,0.4,10.6,0,10.6c-0.1,0-0.3,0.6-0.5,1.3
		c-0.3,2.2-1.3,4-3.8,6.5c-1.2,1.3-2.4,2.3-2.7,2.3c-0.2,0-0.6,0.2-0.7,0.4c-0.2,0.2-0.7,0.4-1.1,0.4c-0.7,0-1.7,0.7-1.7,1.3
		c0,0.2,0.5,0.8,1.1,1.4c0.6,0.6,1.3,1.5,1.6,2c0.2,0.5,0.9,1.3,1.4,1.9s0.9,1.2,0.9,1.3c0,0.2,0.5,0.8,1.1,1.4
		c0.6,0.6,1.4,1.6,1.8,2.2c0.4,0.6,1.1,1.5,1.7,2s1,1.1,1,1.3c0,0.2,0.2,0.5,0.5,0.7c0.6,0.5,1,1.5,0.8,2.1
		c-0.1,0.4-1.4,0.4-8.8,0.4c-9.3,0-9.3,0-9.7-1.4c-0.1-0.3-0.3-0.6-0.4-0.6c-0.1,0-0.3-0.3-0.4-0.6c-0.1-0.3-0.8-1.4-1.6-2.4
		c-0.8-1-1.4-1.9-1.4-2c0-0.3-3.2-5-3.6-5.2c-0.2-0.1-0.4-0.6-0.5-1.1c-0.1-0.5-0.3-0.8-0.4-0.8c-0.1,0-0.3-0.3-0.4-0.7
		c-0.1-0.4-0.5-1-0.9-1.3c-0.7-0.7-0.8-0.7-8.1-0.8c-5-0.1-7.6,0-8,0.2c-0.6,0.3-0.6,0.5-0.6,8c0,4.2-0.1,7.9-0.2,8.2
		c-0.1,0.4-1.1,0.4-7.6,0.4C551.6,1079.4,548.2,1079.3,548.1,1079.2L548.1,1079.2z M586.7,1051.5c1.4-0.8,1.8-1.3,2.4-2.7
		c0.6-1.6,0.6-5.4,0-7.2c-0.5-1.5-1.6-2.6-3.2-3c-0.6-0.2-5.3-0.3-11.8-0.3l-10.8,0v6.7c0,3.7,0.1,6.8,0.2,6.9s5.1,0.2,11.2,0.2
		C585.5,1052.1,585.7,1052.1,586.7,1051.5L586.7,1051.5z"/>
	<path id="path4183" class="st0" d="M643.2,1079.2c-0.1-0.1-0.2-7.6-0.2-16.6c0-14.2,0.1-16.4,0.4-16.7c0.2-0.2,0.4-0.8,0.4-1.4
		c0-0.7,0.4-1.8,1.3-3.4c0.7-1.3,1.4-2.7,1.6-3.2c0.2-0.4,0.4-0.8,0.6-0.8s0.4-0.4,0.6-0.9c0.5-1.1,3.9-4.4,4.5-4.4
		c0.2,0,0.4-0.1,0.4-0.3s0.6-0.6,1.3-1c0.7-0.4,1.5-0.9,1.7-1.1c0.2-0.2,0.6-0.4,1-0.4c0.3,0,0.9-0.2,1.2-0.4c0.3-0.2,1-0.4,1.6-0.4
		s1.3-0.2,1.6-0.4c0.5-0.4,2.8-0.4,18-0.4c16.8,0.1,17.4,0.1,17.8,0.6c0.6,0.8,0.6,9.4,0,10.2c-0.4,0.5-1,0.6-15.8,0.7
		c-11.1,0.1-15.7,0.2-16.2,0.5c-1.3,0.6-3.3,2.9-4.2,4.6c-0.4,0.9-0.9,1.8-1.1,2.1c-0.2,0.2-0.3,0.9-0.2,1.5l0.1,1.1l18.7,0.1
		c16.2,0.1,18.7,0.2,18.9,0.6c0.1,0.2,0.3,2.5,0.3,5c0,3.9-0.1,4.6-0.5,5.1c-0.5,0.6-0.5,0.6-18.9,0.7l-18.5,0.1l-0.1,9.3
		c-0.1,6.3-0.2,9.4-0.4,9.6c-0.2,0.3-1.9,0.4-8,0.4C646.8,1079.4,643.3,1079.3,643.2,1079.2L643.2,1079.2z"/>
	<path id="path4185" class="st0" d="M712.7,1078.8c-3.1-1.1-3.9-1.6-6.4-4.1c-1.9-1.9-2.5-2.7-2.6-3.5c-0.1-0.6-0.4-1.4-0.6-1.8
		s-0.4-1.1-0.4-1.4c0-0.3-0.1-0.7-0.3-0.8c-0.3-0.2-0.4-6.9,0-6.9c0.1,0,0.3-0.7,0.4-1.5s0.4-1.7,0.6-1.9s0.5-0.7,0.6-1.1
		c0.2-1.1,4.3-5.2,5.8-5.9c0.7-0.3,1.8-0.7,2.5-0.9s1.4-0.5,1.7-0.7c0.3-0.2,5.3-0.3,15.7-0.4c15.1-0.1,15.3-0.1,15.3-0.6
		c0-0.3-0.2-1-0.5-1.6c-0.3-0.6-0.8-1.6-1.2-2.3c-0.8-1.5-2.3-3.1-3.7-3.9c-1-0.6-1.4-0.6-16.5-0.6c-13.5,0-15.5-0.1-16-0.4
		c-0.6-0.4-0.6-0.6-0.6-5.2c0-4.5,0-4.8,0.6-5.3c0.6-0.6,0.9-0.6,18-0.6c14.9,0,17.5,0.1,18.2,0.4c0.4,0.2,1.2,0.4,1.7,0.4
		c0.5,0,1.1,0.2,1.4,0.4c0.3,0.2,0.8,0.4,1.1,0.4c0.6,0,4.1,2.2,4.1,2.6c0,0.1,0.2,0.2,0.4,0.2c0.5,0,4.3,3.6,4.3,4.1
		c0,0.2,0.2,0.6,0.5,0.9c0.6,0.5,2.6,4.3,2.6,4.8c0,0.2,0.2,0.5,0.4,0.6c0.2,0.2,0.5,0.8,0.6,1.4c0.1,0.6,0.4,1.3,0.6,1.6
		c0.3,0.5,0.4,3.6,0.4,16.9c0,9-0.1,16.6-0.2,16.8c-0.2,0.4-2.5,0.4-23.5,0.4C714.9,1079.4,714.4,1079.3,712.7,1078.8L712.7,1078.8z
		 M744.9,1063.7l0.1-5.1h-10.7c-11.5,0-11.6,0-13.2,1.6c-1.2,1.2-1.6,3.8-0.9,5.8c0.4,1.1,1.5,2.2,2.2,2.2c0.2,0,0.8,0.2,1.2,0.4
		c0.6,0.3,2.5,0.4,11,0.3l10.3-0.1L744.9,1063.7L744.9,1063.7z"/>
	<path id="path4187" class="st0" d="M769.9,1079c-0.1-0.2-0.2-11.7-0.2-25.4c0-21.1,0.1-25.1,0.4-25.5c0.4-0.5,1.1-0.5,31.1-0.6
		c30.4-0.1,30.7-0.1,32.5,0.5c1,0.3,2.3,0.8,2.8,1.1s1.3,0.7,1.6,0.8c0.3,0.2,1.6,1.3,2.9,2.6c2.2,2.2,4.2,5.4,4.2,6.7
		c0,0.3,0.2,0.8,0.4,1.1c0.4,0.5,0.4,3,0.4,19.7c-0.1,16.6-0.1,19.1-0.5,19.3c-0.7,0.4-14.5,0.4-14.9-0.1c-0.3-0.3-0.3-4.6-0.3-17.7
		c0-12.9-0.1-17.6-0.4-18.5c-0.4-1.2-2.9-3.9-4.1-4.4c-0.8-0.3-10.2-0.3-10.6,0c-0.2,0.1-0.3,7.2-0.3,20.3c0,17.5-0.1,20.1-0.4,20.3
		c-0.2,0.1-3.5,0.3-7.5,0.3c-5.6,0-7.1-0.1-7.4-0.4c-0.2-0.3-0.3-6.2-0.4-20.5l-0.1-20.1h-6.9h-6.9l-0.1,20.4l-0.1,20.4l-7.5,0.1
		C770.9,1079.4,770.1,1079.3,769.9,1079L769.9,1079z"/>
	<path id="path4189" class="st0" d="M856,1079.2c-0.1-0.1-0.2-11.6-0.2-25.6c0-23.3,0-25.4,0.5-25.8c0.4-0.3,1.9-0.4,7.3-0.4
		c6.5,0,6.9,0,7.3,0.5c0.3,0.5,0.4,4.4,0.4,25.6c0,19.1-0.1,25.2-0.3,25.4C870.6,1079.4,856.4,1079.6,856,1079.2L856,1079.2z"/>
	<path id="path4191" class="st0" d="M897.2,1079.1c-1.2-0.2-6.2-2.7-6.7-3.3c-0.2-0.2-0.5-0.4-0.7-0.4c-0.5,0-3.8-3.3-4.8-4.8
		c-1.4-2-3.9-7.1-4.1-8.4c-0.1-0.7-0.4-2-0.6-3c-0.4-2.2-0.4-9.4,0-11.5c0.2-0.9,0.4-2.2,0.5-2.8c0.1-0.6,0.3-1.3,0.5-1.5
		c0.2-0.2,0.6-1.1,1-2c0.4-0.9,0.8-1.7,1-2c0.2-0.2,0.5-0.8,0.7-1.3s0.5-0.9,0.6-0.9s0.4-0.3,0.5-0.7c0.7-1.5,3.7-4.2,6.6-6.1
		c1.1-0.7,4.5-2.2,5-2.2c0.3,0,1.2-0.2,1.9-0.4c1.1-0.4,3.6-0.4,17.6-0.4c15.8,0.1,16.3,0.1,16.7,0.6c0.6,0.8,0.6,8.4,0,9
		c-0.4,0.4-2.1,0.4-14.4,0.4c-13.9,0-13.9,0-15,0.6c-1.2,0.7-5.2,4.6-5.2,5.1c0,0.2-0.2,0.5-0.4,0.7c-0.9,0.7-1.8,3.3-2,5.6
		c-0.1,0.7-0.2,1.4-0.4,1.5c-0.4,0.4-0.3,4.9,0,5.1c0.2,0.1,0.3,0.6,0.3,1.2c0,1.1,0.4,2.6,1,3.8c0.2,0.4,0.4,1,0.4,1.2
		s0.2,0.5,0.4,0.6c0.2,0.1,0.6,0.5,0.8,1c0.5,1.1,4.3,4.9,5.1,5.2c0.4,0.1,0.7,0.3,0.7,0.4c0,0.2,5.1,0.3,14.2,0.3
		c13.8,0,14.2,0,14.5,0.5c0.4,0.8,0.4,8.3,0,8.7c-0.3,0.3-4.5,0.3-17.5,0.3C906,1079.3,897.8,1079.2,897.2,1079.1L897.2,1079.1z"/>
	<path id="path4193" class="st0" d="M954.6,1079.2c-1.1-0.2-3.1-1-3.5-1.4c-0.2-0.2-0.7-0.4-1.1-0.5c-0.4-0.1-1.2-0.6-1.7-1
		s-1.2-0.8-1.3-0.8c-0.5,0-3.8-3.4-4.9-4.9c-1.3-1.9-3.9-7.2-3.9-7.9c0-0.3-0.2-1.2-0.4-2c-0.9-3.2-1.1-4.6-0.9-7.9
		c0.1-1.9,0.3-4,0.4-4.8c0.6-3,1-4.6,1.3-5c0.2-0.2,0.6-1.1,0.9-1.9c0.4-0.9,0.8-1.7,1-2c0.2-0.2,0.4-0.6,0.4-0.7
		c0-0.8,5-6.6,5.7-6.6c0.1,0,0.7-0.4,1.3-0.8c0.6-0.4,1.4-0.9,1.7-1c0.4-0.1,0.9-0.4,1.1-0.5c0.5-0.4,2.2-1.1,3.9-1.6
		c1-0.3,4.7-0.4,14.9-0.5c11.7-0.1,13.9,0,15,0.3c0.7,0.2,1.6,0.4,1.9,0.4c0.4,0,3.7,1.4,5,2.2c2.8,1.7,6.3,4.9,6.7,6.2
		c0.1,0.3,0.3,0.6,0.4,0.6s0.4,0.3,0.6,0.8c0.2,0.4,0.8,1.6,1.3,2.6s1,2,1,2.2c0,0.2,0.1,0.4,0.3,0.4c0.1,0,0.3,0.5,0.4,1.1
		c0.1,0.6,0.4,1.7,0.6,2.5c0.7,2.1,0.7,12.5,0,13.9c-0.3,0.5-0.5,1.3-0.5,1.7c0,0.8-3.2,7.4-3.8,7.9c-0.2,0.2-0.4,0.5-0.4,0.7
		c0,0.5-2.8,3.3-4.5,4.5c-2.3,1.6-5.4,3.2-7.2,3.7c-1.4,0.4-4,0.4-16.4,0.4C961.8,1079.3,954.9,1079.3,954.6,1079.2L954.6,1079.2z
		 M979.1,1069.5c1.8-1,5.2-4.3,5.7-5.5c0.2-0.5,0.5-0.9,0.6-0.9c0.5,0,1.7-3.4,2.2-6.1c0.8-4.2-0.5-11.6-2.3-13.1
		c-0.2-0.2-0.4-0.5-0.4-0.7c0-0.8-4.2-4.7-6.1-5.7l-1.9-1h-6.7c-7.1,0-7.1,0-9.8,1.5c-1,0.6-3.9,3.5-4.6,4.6c-0.3,0.6-0.8,1.2-1,1.4
		c-0.6,0.5-1.8,4-1.8,5.3c0,0.6-0.2,1.4-0.4,1.7c-0.5,0.7-0.6,4,0,4.8c0.2,0.3,0.5,1.4,0.6,2.3c0.2,2,0.9,3.7,2.4,5.8
		c1.1,1.6,4.5,5,4.9,5c0.2,0,0.5,0.2,0.7,0.4c0.9,0.8,2.5,1,9.5,0.9l7-0.1L979.1,1069.5L979.1,1069.5z"/>
	<path id="path4195" class="st0" d="M1011.7,1079.1c-0.3-0.3-0.3-6.3-0.3-25.6v-25.3l0.7-0.5c0.6-0.4,3.6-0.5,31-0.5
		c27,0,30.5,0,31.9,0.5c0.9,0.2,1.8,0.6,2,0.7s0.6,0.3,0.8,0.4c2.4,0.9,6.8,5.1,8.2,7.9l0.9,1.9v20.3v20.3h-7.5h-7.5l-0.1-18.2
		c-0.2-20.3,0-18.4-2.1-20.8c-1.7-1.8-2.3-2-8.2-2h-5.2l0,20.2c0,11.1-0.1,20.4-0.2,20.6c-0.2,0.3-1.9,0.3-7.7,0.3l-7.4-0.1
		l-0.1-20.4l-0.1-20.4h-6.8h-6.8l-0.1,20.2c-0.1,17.6-0.2,20.3-0.6,20.5C1025.9,1079.5,1012.1,1079.5,1011.7,1079.1L1011.7,1079.1z"
		/>
	<path id="path4197" class="st0" d="M289.1,1122.9v-5.2h9.5c7.9,0,9.7-0.1,10.4-0.4c0.4-0.2,1-0.4,1.3-0.4c0.2,0,1.3-0.4,2.3-1
		c2.3-1.2,7.2-6,7.2-7.1c0-0.4,0.3-1.3,0.6-2.1c0.4-1,0.5-1.9,0.5-2.9l-0.1-1.4l-14.6-0.1c-13.4-0.1-14.7-0.1-15-0.5
		c-0.2-0.3-0.4-1.8-0.4-4.9c0-3.7,0.1-4.5,0.4-4.9c0.4-0.4,2.5-0.4,19-0.4c15.8,0,18.6,0.1,18.9,0.4c0.2,0.3,0.3,2.5,0.2,8.4
		c-0.1,7-0.1,8.1-0.6,8.7c-0.3,0.4-0.5,1-0.5,1.3c0,0.3-0.3,1.1-0.7,1.9c-0.4,0.8-0.7,1.6-0.7,1.9c0,0.3,1,1.6,2.3,3
		c4.2,4.5,6.1,6.8,6.1,7.2c0,0.2,0.2,0.5,0.4,0.6c0.2,0.1,0.7,0.6,1,1c0.6,0.7,0.6,0.9,0.4,1.5l-0.3,0.7H332h-4.8l-2-2.1
		c-1.1-1.2-2.2-2.4-2.3-2.8c-0.4-0.9-1.2-1.1-2-0.4c-0.3,0.3-0.7,0.5-0.9,0.5c-0.2,0-0.5,0.2-0.7,0.4c-0.6,0.5-4.2,2.4-4.6,2.4
		c-0.2,0-0.8,0.3-1.4,0.6s-1.5,0.6-2,0.7c-0.5,0.1-1,0.3-1.1,0.4c-0.1,0.1-4.8,0.2-10.6,0.2h-10.4V1122.9L289.1,1122.9z"/>
	<path id="path4199" class="st0" d="M335,1114.1c-1-0.2-1.1-0.5-1-5.6l0.1-4.2l16.7-0.1c12.1-0.1,16.8,0,17.1,0.2
		c0.3,0.2,0.4,1.3,0.4,4.6c0,3.7-0.1,4.4-0.5,4.7c-0.4,0.3-3.3,0.4-16.3,0.4C342.9,1114.2,335.4,1114.2,335,1114.1L335,1114.1z"/>
	<path id="path4201" class="st0" d="M367.2,1127.8c-0.5-0.5-0.5-10.1,0-10.6c0.2-0.2,1.3-0.3,2.7-0.3c1.7,0,2.6-0.1,3-0.4
		c0.3-0.2,1.1-0.4,1.7-0.4c0.7,0,1.4-0.2,1.9-0.6c0.4-0.3,0.8-0.6,1-0.6c0.8,0,3.5-3.8,3.5-4.9c0-0.5,0.2-1.1,0.4-1.5
		c0.3-0.6,0.4-2.3,0.4-8.5c0-5.6,0.1-7.9,0.3-8.1c0.5-0.5,6.3-0.5,6.8,0.1c0.7,0.7,0.7,21.9,0,23.8c-0.6,1.8-2.1,4.8-2.4,4.8
		c-0.1,0-0.3,0.3-0.4,0.6c-0.2,0.8-2.6,3.3-3.1,3.3c-0.2,0-0.6,0.2-0.9,0.6s-1.7,1.1-3.1,1.8l-2.6,1.3h-4.5
		C368.9,1128.1,367.5,1128,367.2,1127.8L367.2,1127.8z"/>
	<path id="path4203" class="st0" d="M404.6,1126.8c-3-1.6-4-2.3-5-3.1c-1-0.9-3.7-4.8-3.7-5.4c0-0.3-0.2-0.6-0.4-0.8
		c-0.2-0.2-0.4-0.6-0.4-0.9c0-0.3-0.2-1-0.4-1.4c-0.4-0.7-0.4-2.6-0.4-11.6c0-13-0.3-11.9,3.8-11.9c1.5,0,3,0.1,3.4,0.3l0.7,0.3
		l0.1,8.3c0.1,5.5,0.2,8.4,0.4,8.7c0.2,0.2,0.4,0.9,0.5,1.5c0.1,0.6,0.4,1.3,0.7,1.6c0.3,0.3,0.6,0.7,0.6,0.9c0,0.5,1.6,1.8,2.1,1.8
		c0.2,0,0.6,0.3,0.8,0.6c0.3,0.4,0.7,0.6,1.8,0.6c0.8,0,1.7,0.2,2,0.4c0.4,0.3,1.3,0.4,2.7,0.4c3.5,0,3.3-0.3,3.3,5.5
		c0,4.1-0.1,5-0.4,5.3c-0.4,0.4-1.2,0.4-5,0.4l-4.6,0L404.6,1126.8L404.6,1126.8z"/>
	<path id="path4205" class="st0" d="M408.2,1105.2c-1.5-0.4-4.1-2.9-4.6-4.3c-1-2.9-0.5-5.5,1.5-7.6c1.6-1.7,3.7-2.4,6-2.3
		c1,0.1,2.3,0.4,2.8,0.6c1.7,0.9,3.2,2.7,3.9,4.6c0.6,1.9,0.6,2.8-0.1,4.2c-0.2,0.4-0.4,0.9-0.4,1c0,0.4-1.5,1.9-2.6,2.8
		C413,1105.5,410.5,1105.9,408.2,1105.2z M411.9,1099.1c0.5-0.5,0.9-1,0.9-1.2c0-0.4-1.8-2.1-2.3-2.1c-0.1,0-0.7,0.4-1.3,0.9
		c-1.1,1-1.1,1.6,0.1,2.7C410.3,1100.2,410.9,1100.1,411.9,1099.1L411.9,1099.1z"/>
	<path id="path4207" class="st0" d="M417.9,1114.1c-0.4-0.1-0.8-0.4-0.9-0.9c-0.3-0.9-0.2-8.2,0.1-8.7c0.2-0.3,3.9-0.4,17-0.4
		c16.3,0,16.7,0,17,0.5c0.5,0.9,0.4,8.2-0.1,8.9c-0.4,0.5-0.9,0.5-16.4,0.6C425.8,1114.2,418.3,1114.2,417.9,1114.1z"/>
	<path id="path4209" class="st0" d="M465.1,1127.7c-0.3-0.9-0.2-10.1,0.2-10.5c0.3-0.3,3.2-0.3,11.4-0.3c9,0,11.2-0.1,11.8-0.4
		c0.4-0.2,1.7-0.7,2.9-1.1c2.7-0.8,4.4-2,5.6-3.8l0.9-1.4l-0.1-4.4l-0.1-4.4l-17.7-0.1l-17.7-0.1l-0.3-0.7c-0.2-0.4-0.3-2.4-0.3-4.4
		c0-3.3,0.1-3.7,0.6-4.2c0.6-0.6,0.9-0.6,21.8-0.6c18.9,0,21.3,0,21.7,0.4c0.4,0.4,0.4,1.7,0.4,10c0,9,0,9.7-0.6,11.5
		c-0.6,1.9-1.3,3.7-2.2,5.4c-0.6,1.2-5.2,5.7-5.8,5.7c-0.3,0-0.5,0.1-0.5,0.3c0,0.6-2.9,2-5.5,2.6c-0.6,0.2-1.2,0.4-1.4,0.5
		c-0.2,0.2-5.3,0.3-12.7,0.3C466.6,1128.1,465.2,1128.1,465.1,1127.7L465.1,1127.7z"/>
	<path id="path4211" class="st0" d="M512.3,1127.7c-0.2-0.3-0.3-1.7-0.2-4.4l0.1-4l0.7-0.2c0.4-0.1,2.9-0.2,5.6-0.2l4.9,0l0.9-1.1
		c0.9-1,0.9-1.2,0.9-2.9c0-2.9-0.3-2.8,7.4-2.9c6.2-0.1,6.7-0.1,7.3-0.6c0.8-0.7,1.2-1.7,1-2.4c-0.2-0.5-0.8-0.5-15.1-0.5
		c-8.2,0-15.1-0.1-15.3-0.2c-0.7-0.3-0.7-7.9,0-8.1c0.2-0.1,8.8-0.2,19-0.2c14,0,18.6,0.1,18.9,0.3c0.5,0.5,0.4,11.4,0,13.2
		c-0.8,2.9-2.1,4.5-4.8,6l-1.7,0.9l-5.3,0.1l-5.3,0.1v1.4c0,2.4-1.2,4.4-3.5,5.6c-1,0.5-1.7,0.6-8,0.6
		C514,1128.1,512.5,1128,512.3,1127.7L512.3,1127.7z"/>
	<path id="path4213" class="st0" d="M590.5,1128.5c-0.5-0.2-2.1-0.4-3.5-0.4c-1.6,0-2.7-0.1-2.9-0.4c-0.2-0.2-1.7-0.4-3.6-0.6
		c-1.8-0.1-4.5-0.3-6-0.5s-4.1-0.3-5.8-0.4c-1.9-0.1-3.3-0.3-3.7-0.6c-0.4-0.3-1.4-0.4-3.1-0.4c-1.7,0-2.8-0.1-3.4-0.4
		c-0.5-0.3-1.6-0.4-3.4-0.4c-1.6,0-2.7-0.1-2.9-0.3c-0.2-0.2-0.3-1.5-0.3-4c0-4.8-0.1-4.7,4.3-4.5c7,0.4,9.5,0.6,9.9,0.9
		c0.2,0.2,1.3,0.4,3,0.4c1.5,0,2.9,0.1,3.3,0.3c0.3,0.2,3.2,0.5,6.5,0.7c3.5,0.2,6,0.5,6.2,0.7c0.2,0.2,1.4,0.3,2.9,0.3
		c1.7,0,2.8,0.1,3.4,0.4c0.5,0.3,1.6,0.4,3.2,0.4c3.7,0,3.7,0,3.7,4.5c0,2-0.1,3.7-0.2,3.9c-0.5,0.7-1.6,1-3.9,0.9
		C592.7,1128.9,591.1,1128.8,590.5,1128.5L590.5,1128.5z"/>
	<path id="path4215" class="st0" d="M590.5,1116.6c-0.4-0.1-1.9-0.2-3.4-0.3c-2,0-2.8-0.1-3.1-0.5c-0.3-0.3-1-0.4-3-0.4
		c-1.5,0-2.9-0.1-3.3-0.3c-0.4-0.2-3.1-0.5-6.5-0.7c-3.6-0.2-6-0.5-6.2-0.7c-0.2-0.2-1.3-0.3-2.8-0.3c-1.6,0-2.9-0.2-3.5-0.4
		c-0.6-0.3-1.9-0.4-3.3-0.4c-3.5,0-3.6-0.1-3.5-4.5c0-2,0.1-3.7,0.2-3.9c0.5-0.7,1.5-1,3.8-1c1.3,0,2.8,0.2,3.5,0.4
		c0.7,0.2,2.2,0.4,3.7,0.4c1.6,0,2.7,0.1,2.9,0.4c0.2,0.2,1.6,0.4,3.4,0.6c1.7,0.1,4.3,0.3,6,0.5s4.4,0.4,6.1,0.5
		c2.2,0.1,3.3,0.3,3.5,0.6c0.2,0.3,1.1,0.4,3.2,0.4c2.1,0,3,0.1,3.4,0.4c0.4,0.3,1.3,0.4,3.1,0.4c3.5,0,3.5,0,3.5,4.4
		c0,4.6,0,4.6-4,4.6C592.6,1116.8,590.9,1116.7,590.5,1116.6L590.5,1116.6z"/>
	<path id="path4217" class="st0" d="M590.4,1104.6c-0.5-0.2-1.9-0.4-3.4-0.4c-1.6,0-2.7-0.1-2.9-0.4c-0.2-0.2-1.6-0.4-3.5-0.6
		c-1.7-0.1-4.6-0.3-6.3-0.5c-1.7-0.2-4.4-0.4-5.9-0.5c-1.7-0.1-3-0.3-3.4-0.6c-0.4-0.3-1.4-0.4-3.2-0.4c-1.8,0-2.9-0.1-3.4-0.4
		c-0.5-0.3-1.6-0.4-3.3-0.4c-1.6,0-2.7-0.1-2.9-0.3c-0.2-0.2-0.3-1.5-0.3-4.1c0-5.2-1-4.8,10.6-4.1c1.9,0.1,3.3,0.3,3.5,0.6
		c0.2,0.2,1.3,0.4,3,0.4c1.6,0,2.9,0.1,3.3,0.4c0.6,0.3,2.1,0.5,9.1,0.9c1.5,0.1,3.1,0.3,3.4,0.4c0.3,0.1,1.9,0.3,3.5,0.3
		c1.8,0.1,3,0.2,3.1,0.4c0.1,0.2,1.3,0.4,3,0.4c1.9,0.1,3,0.2,3.3,0.5c0.4,0.3,0.5,1,0.5,4c0,3.4,0,3.6-0.7,4.2
		c-0.6,0.5-0.9,0.6-3.5,0.6C592.3,1105,590.9,1104.8,590.4,1104.6L590.4,1104.6z"/>
	<path id="path4219" class="st0" d="M602.5,1129.1c-0.3-0.1-0.4-1.4-0.4-5.2c0-4.3,0.1-5.1,0.5-5.4c0.4-0.3,3.8-0.4,18.7-0.5
		l18.2-0.1l0.1-7c0.1-6.2,0-7.1-0.4-7.5c-0.4-0.5-1.3-0.5-18.2-0.5c-11.7,0-17.9-0.1-18.3-0.3c-0.5-0.3-0.5-0.6-0.5-4.6
		s0-4.4,0.5-4.6c0.8-0.4,44.1-0.4,44.8,0c0.5,0.3,0.5,0.8,0.5,18v17.7l-0.6,0.2C646.6,1129.3,603,1129.3,602.5,1129.1L602.5,1129.1
		L602.5,1129.1z"/>
	<path id="path4221" class="st0" d="M653.2,1102.3c-0.4-0.4-0.4-1.2-0.4-4.6c0-2.9,0.1-4.3,0.3-4.5c0.3-0.3,3.6-0.3,13.5-0.3h13.2
		l0.3,0.7c0.2,0.4,0.3,2.4,0.3,4.5c0,3-0.1,3.8-0.4,4.2c-0.4,0.4-2,0.4-13.4,0.4S653.6,1102.7,653.2,1102.3z"/>
	<path id="path4223" class="st0" d="M653.2,1129.1c-0.4-0.2-0.5-9-0.1-9.7c0.2-0.4,2.1-0.4,13.8-0.5c10.7-0.1,13.7-0.2,14.2-0.5
		c0.3-0.2,1.2-0.5,1.9-0.5c1.8-0.2,2.4-0.6,4.7-2.9c1.6-1.6,2.1-2.3,2.2-3.1c0.1-0.6,0.4-1.3,0.6-1.7c0.3-0.5,0.4-2.3,0.4-8.6
		c0-5.8,0.1-8.1,0.3-8.3c0.4-0.4,6.3-0.5,6.9-0.1c0.3,0.2,0.4,2.4,0.3,11.8c-0.1,10.5-0.1,11.6-0.6,12.1c-0.3,0.3-0.5,0.8-0.5,1
		c0,1.1-1.4,3-3.7,5.3c-2,2-2.9,2.6-4.8,3.5c-5,2.3-3.4,2.2-20.2,2.2C660.3,1129.2,653.3,1129.2,653.2,1129.1L653.2,1129.1z"/>
</g>
<g id="g3512" transform="matrix(5.3044703,0,0,5.3044573,1.7150651,-1.6005369)">
	<path id="path3324" class="st1" d="M1.8,23.4l0-0.3l0-0.3l0.1-0.3L2,22.3l0.1-0.2l0.1-0.2l0.2-0.2l0.2-0.2l0.2-0.2L2.9,21l0.2-0.2
		l0.3-0.2l0.3-0.2L4,20.2L4.3,20l0.3-0.2L5,19.7l0.4-0.2l0.4-0.1l0.4-0.1l0.4-0.1L6.9,19l0.4-0.1l0.4-0.1l0.4-0.1l0.5-0.1l0.5-0.1
		l0.5-0.1l0.5,0l0.5,0l0.5,0l0.5,0c5.4,0,9.9,2.2,9.9,5c0,2.8-4.4,5-9.9,5C6.2,28.3,1.8,26.1,1.8,23.4z"/>
	<path id="path3326" class="st2" d="M20,32.6l0-0.3l0-0.3l0.1-0.3l0.1-0.3l0.1-0.3l0.1-0.2l0.2-0.2l0.2-0.2l0.2-0.2l0.2-0.2l0.2-0.2
		l0.3-0.2l0.3-0.2l0.3-0.2l0.3-0.2l0.3-0.2l0.4-0.2l0.4-0.2l0.4-0.2l0.4-0.1l0.4-0.1l0.4-0.1l0.4-0.1l0.5-0.1l0.5-0.1l0.5-0.1
		l0.5-0.1l0.5-0.1l0.5,0l0.5,0l0.5,0l0.5,0c5.7,0,10.4,2.3,10.4,5.2c0,2.9-4.6,5.2-10.4,5.2C24.6,37.8,20,35.5,20,32.6z"/>
	<path id="path3328" class="st3" d="M24.2,21.1l0.5,0l0.5-0.1l0.5-0.1l0.4-0.1l0.4-0.1l0.4-0.1l0.4-0.2l0.4-0.2l0.4-0.2l0.4-0.2
		l0.4-0.2l0.4-0.2l0.4-0.3l0.3-0.3l0.3-0.3l0.3-0.3l0.3-0.3l0.3-0.3l0.3-0.3l0.3-0.4l0.2-0.4l0.2-0.4l0.2-0.4l0.2-0.4l0.2-0.4
		l0.1-0.4l0.1-0.4l0.1-0.4l0.1-0.5l0.1-0.5l0-0.5l0-0.5c0-5.2-4.2-9.4-9.4-9.4c-5.1,0-9.3,4.1-9.4,9.2c0.1,0,0.2,0,0.4,0
		c5.2,0,9.4,4.2,9.4,9.4L24.2,21.1"/>
	<path id="path3330" class="st4" d="M42.4,30.3l0.5,0l0.4,0l0.4-0.1l0.4-0.1l0.4-0.1l0.4-0.1l0.4-0.2l0.4-0.2l0.4-0.2l0.4-0.2
		l0.4-0.2l0.4-0.2l0.3-0.3l0.3-0.3l0.3-0.3l0.3-0.3l0.3-0.3l0.3-0.3l0.3-0.3l0.2-0.4l0.2-0.4l0.2-0.4l0.2-0.4l0.2-0.4l0.2-0.4
		l0.1-0.4l0.1-0.4L51,23l0.1-0.4l0.1-0.4l0-0.5l0-0.5c0-5-4.1-9.1-9.1-9.1c-5,0-9,4-9.1,9c0.1,0,0.2,0,0.4,0c5,0,9.1,4.1,9.1,9.1
		V30.3"/>
</g>
</svg>
