<?xml version="1.0" encoding="utf-8"?>
<!-- Generator: Adobe Illustrator 21.1.0, SVG Export Plug-In . SVG Version: 6.00 Build 0)  -->
<svg version="1.1" id="Ebene_2" xmlns="http://www.w3.org/2000/svg" xmlns:xlink="http://www.w3.org/1999/xlink" x="0px" y="0px"
	 viewBox="0 0 566.9 65.4" enable-background="new 0 0 566.9 65.4" xml:space="preserve">
<path id="path5256" fill="#2D288B" d="M437,26.4c-1.2-3.6-4.3-7-4.3-7s-4.7-6.1-14-8.2c-8-1.7-14.2,1.8-14.2,1.8s-5.7,2.3-9.9,7
	c-6.8,6.5-8.7,16.1-8.7,16.1s-2.6,8.3,1.5,14.9l4.5,5.4c6.3,5.3,13.1,5.8,13.1,5.8s5.5,1.2,11.8-0.4c5.6-1.1,9.6-3.9,9.6-3.9
	s9.2-5.1,11.7-15.5L437,26.4z M422.7,43.7c0,0-3.7,6.4-11.8,5.7c-9.5-1-10.6-9.3-10.6-9.3s-1.3-6.1,4.6-11.5
	c5.9-5,12.1-4.2,12.1-4.2s4.2,0.4,6.3,7.3C426,40.3,422.7,43.7,422.7,43.7"/>
<path id="path5262" fill="#639D01" d="M467.8,43.8c-3-0.7-7.9,0.6-7.9,0.6s-6.8,2.5-7.8,2.5c-0.4-0.6-1.3-11.7-1-16.1
	c0.1-7.8-0.5-14.2-0.5-14.2s-0.3-7.6-4.4-12c-4.8-4.8-8.1-2.7-10-1.6c-4.6,4.1-2.5,9.1-2.5,9.1l2.4,6.8c0,0,1.2,2.9,1,7.6l1,15.9
	c0,2.1,1.7,16.5,1.7,16.5s0.2,4.7,4.7,5.5c4.6,0.8,9.1-1.5,11-2.4c1.9-0.9,4.4-1.7,4.4-1.7s2.1-0.5,4.2-0.7c4.9-0.5,6.7-1.3,6.7-1.3
	s1.9-0.3,3.2-2.1C475.3,54.3,476.8,45.8,467.8,43.8"/>
<path id="path5264" fill="#94012C" d="M387.3,50.9c-3.2-1-6.9-0.3-6.9-0.3s-10.5,1-15.9-0.1c-8.5-1.5-8.2-10.6-8.2-10.6
	s-0.3-6,4.8-14.2c6.3-10.1,13.2-11.9,13.2-11.9s1.7-0.6,3.4,0.2c1,5.9,6.7,5.8,6.7,5.8s8.2,0.5,7.8-9.4c-0.9-8.1-8.8-9.3-12.1-10
	c-9.9-1.8-16.3,3.5-16.3,3.5s-6.6,3.6-14.5,16.1c-5.4,7.7-6,13.8-6,13.8s-0.6,1.4-0.4,7.9c-0.1,5,1.7,8.7,1.7,8.7s2.9,8.6,11.9,12.2
	c5.5,2.3,13.5,2.2,13.5,2.2s7.8-0.1,13.7-0.4c3.3,0.3,4.8-1.4,4.8-1.4s3.6-2.4,3.3-6.5C391.8,56.3,391.1,52,387.3,50.9"/>
<path id="path5266" fill="#2E3192" d="M152.8,62.5h-12l-1.6-36l-15.5,36h-8l-6.6-32.6L98.7,62.5H78.4l-3.1-17.4H61.5l-7.8,17.4H41.2
	L66.8,4.3h14.7l7.8,47l15.3-47h11.8l5.8,31.9l13.6-31.9h14.4L152.8,62.5z M73.5,33.8l-2.2-11.3l-5,11.3H73.5"/>
<path id="path5268" fill="#2E3192" d="M187.1,62.5l2-12.5h-20.9l1.7-10.4H188l2-12.5h-18.3l1.6-10.4h20.9l2-12.5H163l-9.3,58.2
	H187.1"/>
<path id="path5270" fill="#2E3192" d="M342.4,4.3h-14l-11.8,19l-7.4-19h-13.7L309.6,35l-4.3,27.5h12l3.7-24.3L342.4,4.3"/>
<path id="path5272" fill="#2E3192" d="M253.3,28.4C257,12.3,270.8,1.7,284,4.8c13.3,3.1,21,18.6,17.3,34.7
	c-3.7,16.1-17.5,26.7-30.7,23.6C257.3,60,249.6,44.5,253.3,28.4z M271.4,51.4c6.3,2.8,14.1-2.7,17.3-12.4c3.2-9.7,0.7-19.8-5.6-22.7
	c-6.3-2.8-14.1,2.7-17.3,12.4C262.6,38.4,265.1,48.6,271.4,51.4"/>
<path id="path5276" fill="#2E3192" d="M224.6,16.9c0,0,0.3,0,7.8,0c8.4,0,6.7,10.8-1.3,10.8c-6.6,0-8.3,0-8.3,0L224.6,16.9z
	 M220.9,39.6c0,0,2.5,0,10,0c9.5,0,9.2,11.6-1.3,11.6c-6.6,0-10.6,0-10.6,0L220.9,39.6L220.9,39.6z M214.3,4.6l-9.2,57.8
	c0,0,19.1,0,26.9,0c11.1,0,27.3-16.3,12.5-29.7c15.2-15.7,0.1-28-7.9-28.1c-6.5-0.1-22.4,0-22.4,0L214.3,4.6"/>
<path id="path5274" fill="#2E3192" d="M15.6,9.5C4.3,16.5-1.2,27.3,0.2,41.9c1.7,17,23.7,27.6,42.3,16.9c1.6-0.9,1-0.8,1.6-1.3
	l3.7-23.7H25.6l-1.7,10.9h9.3l-1.1,5.8c-5.3,2.1-14.4,1.3-18.2-5.6c-2.4-4.4-4.7-14.1,5.6-23.1c8.4-7.3,22.9-8.6,31.2-4.8
	c0,0,1.1-6.1,1.9-11.8C36.5-0.4,24,4.3,15.6,9.5"/>
<path id="path5258" fill="#C8A601" d="M518.6,24.4c-6.3-10.3-17.5-11.9-17.5-11.9s-3.5-1.2-11.1-0.2C475.8,15.1,470.8,26,470.8,26
	s-5.1,8-3.1,17.8l6.2,12.3c4.6,4.3,6.5,4.3,6.8,4.6c6.1,2.7,13.1,1.2,13.1,1.2s8.9-0.9,17-7.2c6.5-4.8,9.3-11.8,9.3-11.8l0.9-9.4
	L518.6,24.4L518.6,24.4z M501.3,45.6c-10.2,6.1-16.7-0.6-16.7-0.6s-2.9-1.9-3.5-7.6c-0.4-6.6,6.1-10,6.1-10s3.5-2.1,7.8-1.8
	c4.3,0.3,5.7,0,9.2,2.6c3.3,3,3.1,5.2,3.1,5.2S508.7,40.8,501.3,45.6"/>
<path id="path5260" fill="#00766A" d="M520.2,42.8c0,0,0.2,5.8-0.7,7.2c-1.2,2.6-1,5.2-1,5.2s-0.8,7.8,8.2,9.1c6.2,0,7-5.2,7.1-7.4
	c0.4-1.7,0.2-9.8,0.2-9.8l8.1,6.6c0,0,5.9,4.9,9.3,7.8c3.6,2.8,4.5,3.3,4.5,3.3s0.8,0.9,3.5,0.6c2.2,0,4.2-2,4.2-2s2.6-1.9,3.2-5.2
	c0.8-3.9-2.2-5.8-2.2-5.8s-11.2-9-18.8-15.3c5.1-2.8,7.6-4.7,7.6-4.7s7.1-4.7,8.6-11.9c2.1-7.9-3.9-11-3.9-11s-3.7-2.7-6.9-4.1
	c-7.9-3.9-15.3-3.1-15.3-3.1s-10.5-0.7-17.3,7.7c-3.1,4.1-1.2,9.4-1.2,9.4s0.4,0.9,1.3,4.9C520.4,32.6,520.2,42.8,520.2,42.8
	L520.2,42.8z M534,26.8l-0.7-9.4c0,0,6.6-0.1,9.4,0.3c5.4,0.8,5.1,2.4,5.1,2.4s-0.2,1.9-4.3,3.8C539,26,534,26.8,534,26.8"/>
<g>
	<path d="M461.3,49c0.1,0.1,0.2,0.1,0.3,0.1c0.1,0,0.2,0.1,0.4,0.3c0.2,0.2,0.3,0.3,0.3,0.4c0,0.1,0,0.1,0.1,0.2c0,0.1,0,0.1,0,0.2
		c0,0.1,0,0.1,0,0.2l-0.2,0.3c0,0.2,0,0.5-0.1,0.8s-0.1,0.5-0.2,0.5c0,0-0.1,0.1-0.2,0.3c-0.1,0.2-0.2,0.4-0.4,0.5
		c-0.2,0.2-0.3,0.4-0.5,0.5c-0.2,0.2-0.3,0.3-0.3,0.3c-0.1,0.1-0.1,0.1-0.1,0.2c0,0.1-0.1,0.2-0.1,0.3c-0.1,0.2-0.1,0.3-0.2,0.4
		l0.1,12.5l0.5,0c0.1,0,0.2,0,0.4-0.1c0.2-0.1,0.5-0.1,0.7-0.1c0.2,0,0.5-0.1,0.7-0.1c0.2-0.1,0.3-0.1,0.3-0.1
		c0.4-0.1,1-0.2,1.9-0.4c0.9-0.2,1.9-0.4,2.9-0.6c1.1-0.2,2-0.4,2.9-0.5c0.9-0.2,1.5-0.3,1.9-0.3l0.7-0.4l-0.1-13
		c0-0.1,0.1-0.3,0.4-0.7c0.3-0.4,0.5-0.7,0.6-1l2.1-2.1c0.1,0,0.3-0.1,0.7-0.3c0.4-0.2,0.6-0.3,0.8-0.4l0.3,0l0.2,0
		c0.2,0,0.4,0,0.7,0.2c0.2,0.1,0.3,0.1,0.4,0.2l0.1,15l0.5,2.5l0.1,12.8c0.1,0.5,0.1,1.4,0.2,2.6c0,1.1,0.1,2.2,0.1,3.3l0,1
		c0,1.2,0.1,2.3,0.1,3.3c0.1,1.2,0.1,2,0.2,2.5c0,0.1,0,0.2,0.1,0.5c0.1,0.3,0.1,0.7,0.1,1c0,0.4,0.1,0.7,0.1,1.1s0.1,0.5,0.1,0.6
		l0,2.1c0,0.1-0.1,0.3-0.2,0.6l0,0.1c-0.1,0.3-0.2,0.5-0.2,0.6c-0.1,0.1-0.1,0.4-0.2,0.8c0,0.5-0.1,1-0.1,1.5c0,0.5-0.1,1-0.1,1.4
		c0,0.4-0.1,0.7-0.2,0.7c0,0.2,0,0.5-0.1,0.8c-0.1,0.3-0.2,0.5-0.3,0.6c-0.1,0.1-0.1,0.1-0.2,0.1c-0.1,0.1-0.3,0.1-0.5,0.1l0-4.3
		c0,0.2,0,0.5,0,0.9c0,0.4-0.1,0.9-0.1,1.4c0,0.5-0.1,1-0.1,1.4c0,0.4-0.1,0.7-0.1,0.9c0,0.2-0.1,0.4-0.2,0.7
		c-0.1,0.3-0.2,0.5-0.3,0.5c0,0.1,0,0.1-0.1,0.2l0,0.1h-0.1l-0.2,0c-0.1,0-0.1-0.1-0.1-0.2c0-0.1-0.1-0.4-0.2-1
		c-0.1-0.6-0.2-0.9-0.2-1.1c-0.1-0.2-0.2-0.6-0.3-1.2c-0.1-0.6-0.2-1-0.2-1.2l-0.9,0c-0.1,0-0.2-0.1-0.4-0.2
		c-0.2-0.1-0.3-0.2-0.3-0.3c-0.1,0-0.2-0.2-0.3-0.5c-0.1-0.3-0.1-0.6-0.2-0.7c-0.1-0.2-0.2-0.6-0.3-1.1c-0.1-0.5-0.1-0.9-0.1-1
		c-0.1-0.2-0.1-0.6-0.2-1.2c-0.1-0.6-0.1-1.3-0.1-2c0-0.7-0.1-1.4-0.1-2s-0.1-1.1-0.2-1.3c0-0.4,0-1.2-0.1-2.6
		c0-1.2-0.1-2.5-0.1-3.9l0-1.2c0-1.4-0.1-2.7-0.1-3.9c-0.1-1.4-0.1-2.3-0.1-2.6c0-0.2,0-0.4,0-0.8c0-0.4-0.1-0.8-0.1-1.2
		c-0.1-0.4-0.1-0.8-0.1-1.2c0-0.4,0-0.7,0-0.8l-1.1,0l-1,0c-0.3,0-0.7,0.1-1.4,0.2c-0.6,0.1-1,0.2-1.2,0.2c0,0.1-0.1,0.2-0.2,0.3
		c-0.1,0.1-0.2,0.2-0.2,0.3c0,0.3-0.1,0.8-0.1,1.6c0,0.8-0.1,1.6-0.1,2.5c0,0.9-0.1,1.8-0.1,2.5s-0.1,1.4-0.1,1.7
		c0,0.1,0,0.4-0.1,0.8c0,0.5-0.1,1-0.1,1.6s-0.1,1.2-0.1,1.7c0,0.5-0.1,0.9-0.1,1.2c0,0.2,0,0.4,0,0.8c0,0.4-0.1,0.8-0.1,1.3
		c0,0.5-0.1,0.9-0.1,1.3c0,0.4,0,0.6,0,0.7c-0.1,0.2-0.1,0.4-0.2,0.7c0,0.2-0.1,0.5-0.1,0.8l0,0.2c0,0.3-0.1,0.5-0.1,0.8
		c-0.1,0.3-0.1,0.5-0.1,0.6c0-0.2-0.1-0.6-0.2-1.1l0-0.2c-0.1-0.6-0.2-0.9-0.2-1.1l0-1l0-1.1c0-0.3,0-0.8,0.1-1.7s0.1-1.9,0.1-2.9
		c0-1.1,0.1-2,0.1-2.9s0.1-1.4,0.1-1.7l0-7l-0.6,0c0,0.1,0,0.3,0,0.5c0,0.3,0.1,0.5,0.1,0.8c0,0.3,0.1,0.6,0.1,0.9s0,0.5,0,0.6
		c-0.1,0.2-0.2,0.6-0.3,1.1c-0.1,0.5-0.2,0.8-0.3,1h-0.2l-0.2,0c-0.1-0.1-0.1-0.2-0.3-0.4c-0.1-0.2-0.2-0.3-0.2-0.4
		c0-0.2,0-0.4,0-0.8c0-0.4,0-0.7,0-1.1c0-0.4,0-0.7,0-1.1c0-0.3,0-0.6,0-0.7c-0.1,0-0.4,0-0.9-0.1c-0.5,0-0.8-0.1-0.9-0.1
		c-0.2,0-0.4,0.1-0.8,0.2c-0.4,0.1-0.7,0.2-0.8,0.3l0,2.5c0.1,0.2,0.1,0.5,0.2,1.1c0.1,0.6,0.2,1.3,0.3,2c0.1,0.8,0.2,1.5,0.3,2.3
		c0.1,0.7,0.1,1.3,0.2,1.7c0,0.2,0,0.6,0.1,1.1c0.1,0.5,0.2,1.1,0.3,1.7c0.1,0.6,0.2,1.2,0.3,1.8c0.1,0.6,0.1,1,0.1,1.2
		c0,0.1,0,0.4,0.1,0.8c0.1,0.4,0.2,0.9,0.3,1.4c0.1,0.5,0.2,1,0.3,1.4c0.1,0.5,0.2,0.8,0.2,0.9l0,1.7c-0.1,0.1-0.1,0.1-0.2,0.2
		c-0.1,0.1-0.1,0.2-0.2,0.3c-0.1,0.1-0.1,0.1-0.2,0.2c-0.1,0.2-0.2,0.5-0.4,0.8c-0.2,0.3-0.3,0.5-0.4,0.6c-0.1,0.1-0.2,0.3-0.4,0.5
		c-0.2,0.2-0.5,0.5-0.7,0.7c-0.3,0.3-0.5,0.5-0.8,0.7s-0.4,0.4-0.5,0.5l0.1,18.8l-0.4,0.8c-0.1-0.2-0.2-0.5-0.4-1
		c-0.1-0.5-0.2-0.9-0.2-1.1c0-0.2,0-0.4-0.1-0.8c-0.1-0.4-0.1-0.8-0.1-1.3c0-0.4-0.1-0.8-0.1-1.2c-0.1-0.4-0.1-0.7-0.1-0.8
		c0-0.5,0-1.4-0.1-2.7c0-1.1-0.1-2.3-0.1-3.5l0-1c0-1.2-0.1-2.4-0.1-3.5c-0.1-1.3-0.1-2.1-0.2-2.7c-0.1-0.1-0.2-0.4-0.4-0.8
		c-0.2-0.4-0.3-0.8-0.3-1c-0.1-0.1-0.2-0.3-0.4-0.7c-0.1-0.4-0.2-0.7-0.2-0.9c0-0.1,0-0.4-0.1-0.8c-0.1-0.4-0.2-0.9-0.3-1.5
		c-0.1-0.5-0.2-1.1-0.3-1.5s-0.1-0.9-0.2-1.1c0-0.3-0.1-0.8-0.2-1.6c-0.1-0.8-0.2-1.2-0.2-1.4c-0.1-0.6-0.2-1.6-0.4-3
		c-0.2-1.4-0.3-2.9-0.5-4.4c-0.2-1.5-0.4-2.9-0.5-4.2c-0.2-1.3-0.3-2.2-0.4-2.6c0-0.3,0-0.6,0-1.1c0-0.5-0.1-0.9-0.1-1.4
		c-0.1-0.5-0.1-0.9-0.1-1.3c0-0.4,0-0.6,0-0.7l0-4.9l0-4.6c0-0.1,0-0.5,0.1-1.2c0.1-0.7,0.1-1.2,0.1-1.5c0.1-0.3,0.2-0.5,0.3-0.9
		l0.2-0.6c0.1-0.2,0.3-0.6,0.7-1.3c0.3-0.6,0.5-1.1,0.6-1.4c0.1-0.1,0.2-0.2,0.4-0.5c0.2-0.3,0.3-0.5,0.4-0.6l0.9-0.9
		c0.1-0.1,0.3-0.2,0.6-0.4c0.3-0.2,0.5-0.3,0.5-0.4l0.9-0.5c0.2-0.1,0.4-0.2,0.7-0.2c0.1,0,0.2,0,0.3-0.1l0,0
		c0.1-0.1,0.2-0.1,0.3-0.1C461.1,48.9,461.2,48.9,461.3,49L461.3,49L461.3,49z M530.1,38.5c0.1,0,0.2,0.1,0.4,0.2
		c0.2,0.1,0.3,0.2,0.4,0.3l0.4,0.3c0.1,0.1,0.1,0.2,0.2,0.3c0.1,0.1,0.1,0.3,0.2,0.4c0.1,0.2,0.1,0.4,0.2,0.5
		c0.1,0.2,0.2,0.4,0.4,0.7c0.2,0.3,0.3,0.6,0.4,0.7c0.2,0.2,0.5,0.6,1.1,1.2c0.6,0.6,1.2,1.2,1.9,1.8l3.3,3.2c0.1,0,0.2,0.1,0.5,0.3
		c0.3,0.2,0.6,0.5,0.9,0.8c0.3,0.3,0.7,0.6,1,0.8s0.5,0.4,0.6,0.5c0.1,0.1,0.3,0.3,0.6,0.6s0.6,0.6,0.9,0.9c0.3,0.3,0.6,0.6,0.8,0.9
		c0.3,0.3,0.4,0.5,0.5,0.6c0.1,0.1,0.1,0.3,0.3,0.5c0.1,0.2,0.2,0.4,0.2,0.5c-0.1,0.2-0.2,0.3-0.2,0.5c-0.1,0.1-0.1,0.2-0.2,0.3
		c-0.1,0.1-0.1,0.2-0.1,0.3c0,0.1,0,0.2-0.1,0.3c-0.1,0.1-0.1,0.2-0.2,0.3c-0.1,0.2-0.1,0.3-0.2,0.4c-0.1,0.1-0.3,0.2-0.5,0.4
		c-0.2,0.2-0.4,0.4-0.7,0.6c-0.2,0.2-0.4,0.5-0.6,0.7c-0.2,0.2-0.3,0.3-0.3,0.4c-0.1,0.1-0.4,0.2-0.8,0.4c-0.4,0.2-0.7,0.3-0.9,0.4
		l-0.6,0l-0.7,0c-0.1-0.1-0.3-0.2-0.5-0.4c-0.3-0.2-0.5-0.4-0.9-0.7c-0.3-0.2-0.6-0.4-0.9-0.7c-0.3-0.2-0.5-0.3-0.6-0.4
		c-0.3-0.3-0.8-0.6-1.4-1c-0.6-0.4-1-0.6-1.1-0.7c-0.2-0.1-0.6-0.3-1.2-0.6c-0.7-0.3-1.1-0.5-1.4-0.5c-0.2-0.1-0.6-0.3-1.2-0.5
		c-0.6-0.2-1-0.4-1.2-0.5l-0.7,0l0,4.2l-0.7,0l0-4.6l-0.7,0c0,0.2-0.2,0.6-0.4,1.1c-0.2,0.5-0.3,0.9-0.4,1l-0.4,0.4
		c-0.1-0.1-0.2-0.3-0.3-0.6c-0.1-0.3-0.2-0.5-0.3-0.5c0-0.2-0.1-0.6-0.2-1.1c-0.1-0.5-0.2-0.8-0.2-1c-0.2-0.1-0.6-0.2-1.2-0.3
		c-0.6-0.1-1-0.2-1.2-0.3l-4.6,0c-0.2,0.1-0.3,0.1-0.5,0.2l-0.8,0.4c-0.2,0.1-0.4,0.2-0.9,0.4c-0.4,0.2-0.7,0.3-0.8,0.4l-0.4,0.4
		c-0.1,0.1-0.1,0.3-0.3,0.5c-0.1,0.2-0.2,0.4-0.2,0.5l0,4.2c0.1,0.2,0.2,0.4,0.4,0.6c0.1,0.2,0.2,0.3,0.3,0.5
		c0.1,0.2,0.1,0.3,0.2,0.4c0.1,0.2,0.3,0.5,0.5,0.8c0.2,0.3,0.4,0.5,0.5,0.6c0.1,0.1,0.2,0.3,0.4,0.5c0.2,0.2,0.4,0.5,0.7,0.7
		c0.2,0.3,0.5,0.5,0.7,0.7s0.3,0.4,0.4,0.5c0.1,0.2,0.2,0.4,0.5,0.6c0.3,0.3,0.6,0.5,0.9,0.8c0.3,0.3,0.6,0.6,0.9,0.9
		c0.3,0.3,0.5,0.5,0.6,0.7c0.1,0.1,0.3,0.3,0.5,0.5s0.5,0.4,0.9,0.7c0.3,0.3,0.6,0.5,0.9,0.8c0.3,0.2,0.5,0.4,0.7,0.4
		c0.1,0.1,0.4,0.3,0.8,0.7c0.4,0.3,0.7,0.6,0.8,0.7c0.2,0.1,0.4,0.2,0.6,0.4c0.3,0.2,0.5,0.3,0.8,0.5s0.5,0.3,0.8,0.4
		c0.2,0.1,0.4,0.2,0.4,0.3c0.1,0.1,0.5,0.3,1.2,0.6s1.1,0.5,1.3,0.6c0.1,0.1,0.2,0.1,0.3,0.2c0.1,0.1,0.2,0.1,0.3,0.2l0.5,0.2l1.6,0
		l1.4,0c0.1,0,0.1-0.1,0.2-0.2c0.1-0.1,0.2-0.2,0.3-0.3l0.3-0.7c0.1-0.2,0.2-0.4,0.3-0.8c0.1-0.4,0.1-0.7,0.1-0.8
		c0.1-0.1,0.1-0.3,0.2-0.6c0.1-0.3,0.1-0.6,0.2-0.9c0-0.3,0.1-0.6,0.1-0.9c0-0.3,0-0.5,0-0.6c0-0.2,0.1-0.5,0.2-0.8
		c0.1-0.4,0.2-0.6,0.2-0.7c0.1-0.1,0.1-0.3,0.2-0.5c0.1-0.3,0.2-0.4,0.3-0.4c0.1-0.1,0.2-0.3,0.4-0.5c0.2-0.3,0.5-0.5,0.8-0.8
		c0.3-0.3,0.5-0.5,0.7-0.7c0.2-0.2,0.4-0.4,0.5-0.5c0.1-0.1,0.2-0.1,0.4-0.2c0.3-0.1,0.5-0.2,0.5-0.2c0.1-0.1,0.2-0.1,0.3-0.2
		c0.1-0.1,0.2-0.1,0.3-0.2c0.2-0.1,0.3-0.2,0.5-0.2c0.1,0.1,0.3,0.3,0.5,0.5c0.3,0.2,0.4,0.4,0.4,0.5l0,2.9c0,0.1,0,0.5-0.2,1.1
		c-0.1,0.6-0.1,1.1-0.1,1.5c-0.1,0.1-0.2,0.4-0.3,0.8c-0.1,0.4-0.2,0.7-0.3,0.8c0,0.2-0.1,0.5-0.3,1c-0.2,0.5-0.4,0.9-0.4,1.1
		c0,0.2-0.1,0.5-0.4,0.9c-0.3,0.5-0.4,0.7-0.5,0.8c0,0.1-0.1,0.3-0.3,0.7c-0.2,0.3-0.3,0.6-0.4,0.7c-0.2,0.2-0.5,0.5-0.8,0.9
		c-0.3,0.4-0.5,0.7-0.6,0.8l-0.7,0.7c-0.1,0.1-0.4,0.3-0.8,0.7c-0.4,0.3-0.8,0.6-1,0.7c-0.1,0.1-0.2,0.1-0.3,0.2
		c-0.1,0.1-0.2,0.1-0.3,0.2l-0.5,0.3c-0.1,0.1-0.2,0.1-0.4,0.2c-0.2,0.1-0.4,0.2-0.7,0.3c-0.2,0.1-0.5,0.2-0.7,0.3
		c-0.2,0.1-0.3,0.1-0.4,0.1c-0.1,0.1-0.3,0.2-0.5,0.3c-0.3,0.1-0.4,0.2-0.4,0.3l-0.3,0.7c-0.1,0.1-0.2,0.2-0.3,0.3
		c-0.1,0.1-0.1,0.2-0.2,0.2c0-0.1,0-0.2-0.1-0.5c-0.1-0.3-0.2-0.5-0.3-0.6c0-0.2-0.1-0.2-0.2-0.2h-0.1c-0.1,0-0.2,0.1-0.3,0.2
		c0,0.4,0,1-0.1,1.9c0,0.9-0.1,1.9-0.1,3c0,1.1-0.1,2.1-0.1,3c0,0.9-0.1,1.6-0.1,1.9c0,0.2,0,0.6-0.1,1.4c-0.1,0.7-0.1,1.3-0.1,1.7
		c-0.1,0.3-0.2,0.6-0.3,1.2c-0.1,0.5-0.2,0.8-0.2,0.9c0,0.1-0.1,0.2-0.2,0.4c-0.1,0.2-0.2,0.3-0.2,0.4l-0.1-16.3
		c-0.2,0-0.6-0.1-1.2-0.3c-0.7-0.2-1.1-0.4-1.4-0.5l-2.5-1.2c-0.1-0.1-0.3-0.2-0.7-0.4c-0.4-0.2-0.7-0.5-1.1-0.7l-2-1.3
		c-0.1-0.1-0.3-0.2-0.5-0.3c-0.2-0.2-0.4-0.4-0.7-0.5c-0.2-0.2-0.4-0.3-0.6-0.5c-0.2-0.2-0.3-0.3-0.3-0.3l-6.3-6.2l-0.5-0.6
		c-0.1-0.2-0.2-0.3-0.3-0.5c-0.1-0.2-0.2-0.3-0.3-0.4c-0.1-0.2-0.3-0.4-0.5-0.7c-0.2-0.3-0.4-0.6-0.5-0.7l-0.4-0.7
		c0-0.1-0.1-0.3-0.2-0.7c-0.1-0.4-0.2-0.6-0.3-0.7c0-0.1-0.1-0.4-0.2-0.9c-0.1-0.2-0.1-0.4-0.2-0.7l0-1.5l0-1.4c0-0.2,0-0.5,0.2-0.9
		c0.1-0.4,0.2-0.7,0.1-0.9c0.1-0.2,0.3-0.5,0.5-1c0.2-0.4,0.4-0.9,0.6-1.3c0.2-0.4,0.4-0.8,0.6-1.2c0.2-0.4,0.3-0.6,0.3-0.7
		c0.1-0.1,0.3-0.3,0.7-0.7c0.4-0.4,0.8-0.8,1.2-1.2c0.4-0.4,0.9-0.9,1.3-1.3c0.4-0.4,0.7-0.8,1-1c0.1-0.1,0.3-0.3,0.7-0.5
		s0.6-0.4,0.7-0.5c0.2-0.1,0.6-0.2,1.2-0.5c0.6-0.3,1-0.5,1.2-0.6c0.3-0.1,0.7-0.3,1.3-0.5c0.6-0.2,1-0.4,1.2-0.5c0.2,0,0.4,0,0.8,0
		c0.4,0,0.9-0.1,1.3-0.1c0.5-0.1,1-0.1,1.4-0.1c0.4,0,0.7,0,0.9,0c-0.1-0.2-0.1-0.6-0.1-1.1c0-0.5,0-0.8,0.1-1
		c0-0.2,0.1-0.5,0.4-0.9c0.3-0.4,0.4-0.7,0.5-0.9c0.1-0.2,0.4-0.5,1-1c0.6-0.5,0.9-0.9,1.1-1.1l1.5-0.8l0.5,0L530.1,38.5L530.1,38.5
		L530.1,38.5z M500,38.8l0,3.9c0,0,0,0.1,0,0.4c0,0.3-0.1,0.6-0.1,0.9c0,0.3-0.1,0.7-0.1,1c0,0.3,0,0.5,0,0.5l0,1.6
		c0,0.1,0,0.5,0,1.3c0,0.7,0.1,1.6,0.1,2.5c0,0.9,0.1,1.7,0.1,2.5s0.1,1.2,0.1,1.3c0,0.2,0.1,0.5,0.2,1.1c0.1,0.6,0.2,0.9,0.2,1
		c0.1,0.3,0.3,0.7,0.5,1.5c0.2,0.7,0.4,1.2,0.5,1.5c0.1,0.3,0.2,0.7,0.4,1.3c0.2,0.6,0.4,1.2,0.7,1.9c0.2,0.7,0.5,1.3,0.7,1.9
		c0.2,0.6,0.3,1,0.4,1.2c0.1,0.2,0.2,0.5,0.4,1s0.3,0.9,0.4,1.1c0.1,0.3,0.3,0.6,0.5,1s0.4,0.6,0.4,0.7c0.1,0,0.4,0.1,0.8,0.3
		c0.4,0.2,0.7,0.3,0.8,0.3c0.1,0.1,0.2,0.2,0.3,0.3c0.1,0.1,0.2,0.1,0.2,0.2c-0.1,0.3-0.2,0.9-0.1,1.7c0,0.8,0.1,1.4,0.2,1.7
		c0,0,0.1,0.2,0.2,0.5c0.2,0.3,0.3,0.7,0.5,1.2c0.2,0.5,0.4,0.9,0.7,1.4c0.3,0.5,0.5,0.8,0.6,1.1c0.1,0.1,0.2,0.6,0.5,1.4
		c0.3,0.8,0.6,1.8,0.9,2.8c0.3,1,0.7,1.9,0.9,2.8s0.5,1.3,0.5,1.4c0.1,0.4,0.3,0.7,0.5,0.9c0.1,0.2,0.2,0.4,0.4,0.6l0,1.7
		c-0.1,0.1-0.2,0.4-0.4,0.8c-0.2,0.4-0.3,0.8-0.4,1l-2.1,2.1c-0.1,0-0.3,0.1-0.5,0.2c-0.2,0.1-0.4,0.2-0.5,0.2l-1,0l-1.1,0
		c-0.1,0-0.3-0.2-0.8-0.5c-0.5-0.3-0.8-0.6-0.9-0.7c0-0.1-0.1-0.3-0.2-0.6c-0.1-0.3-0.2-0.5-0.2-0.6l0-1.4l-0.3-0.6
		c-0.1-0.2-0.2-0.3-0.2-0.5c-0.1-0.2-0.1-0.3-0.2-0.4c-0.4-0.6-0.8-1.5-1.3-2.9c-0.5-1.4-1.1-2.8-1.6-4.2c-0.6-1.7-1.3-3.5-2-5.4
		l-3.4,0c0,0.2,0,0.4-0.2,0.8c-0.1,0.4-0.2,0.7-0.2,0.8c-0.1,0-0.2,0.1-0.3,0.2c-0.1,0.1-0.1,0.2-0.2,0.2c0,0.2,0,0.6-0.1,1.1
		c0,0.5-0.1,1.1-0.1,1.7c0,0.6-0.1,1.2-0.1,1.8s-0.1,1-0.1,1.2c-0.1,0.2-0.2,0.6-0.3,1.2c-0.1,0.6-0.2,1-0.3,1.2
		c0,0.2-0.1,0.4-0.2,0.8c-0.2,0.4-0.2,0.7-0.2,0.9l0-11.4c-0.2,0-0.4-0.1-0.7-0.2c-0.3-0.1-0.6-0.2-0.9-0.3
		c-0.3-0.1-0.6-0.2-0.8-0.2c-0.3-0.1-0.4-0.1-0.5,0c-0.1,0.2-0.2,0.4-0.4,0.6c-0.3,0.5-0.4,0.8-0.5,1.1c-0.1,0.2-0.2,0.6-0.4,1.1
		c-0.2,0.5-0.3,0.9-0.4,1c0,0.1,0,0.2,0,0.4s-0.1,0.4-0.1,0.7c0,0.2-0.1,0.5-0.1,0.7s0,0.3,0,0.4c0,0.1-0.1,0.2-0.2,0.4
		c-0.1,0.2-0.2,0.3-0.2,0.4c-0.2,0.1-0.4,0.3-0.6,0.5c-0.3,0.2-0.5,0.5-0.8,0.8c-0.3,0.3-0.5,0.5-0.8,0.8c-0.3,0.2-0.4,0.3-0.5,0.3
		l-1.5,0.9l-0.3,0l-0.2,0c-0.1,0-0.2-0.1-0.4-0.2c-0.2-0.1-0.3-0.2-0.4-0.3c-0.1-0.1-0.1-0.1-0.2-0.2c-0.1-0.2-0.2-0.4-0.2-0.5
		l0-0.5l0-0.4c0-0.2,0-0.5,0.1-0.9c0.1-0.5,0.2-0.7,0.2-0.8c0.1-0.2,0.3-0.6,0.5-1.1c0.2-0.5,0.4-1.1,0.6-1.7
		c0.2-0.6,0.4-1.1,0.6-1.7c0.2-0.5,0.3-0.8,0.4-1l0-0.8c-0.2,0-0.5,0-1-0.1c-0.5-0.1-0.9-0.2-1.1-0.3c0-0.1-0.1-0.3-0.2-0.5
		c-0.1-0.2-0.2-0.4-0.2-0.5v-0.1l0-0.4c0-0.1,0.1-0.3,0.2-0.7c0-0.2,0.1-0.4,0.2-0.5l2.9-2.9c0.1,0,0.2,0,0.4-0.1
		c0.2-0.1,0.4-0.1,0.7-0.2c0.2-0.1,0.5-0.2,0.7-0.2c0.2-0.1,0.3-0.1,0.4-0.2c0-0.1,0.1-0.4,0.4-0.9c0.3-0.5,0.4-0.9,0.5-1.2
		c0-0.3,0.2-0.8,0.4-1.5c0.2-0.7,0.5-1.5,0.8-2.3c0.3-0.8,0.5-1.6,0.7-2.3s0.4-1.2,0.5-1.5c0.1-0.1,0.1-0.2,0.2-0.5
		c0.1-0.2,0.1-0.5,0.2-0.7l0.1-0.3c0.1-0.2,0.1-0.4,0.2-0.7c0.1-0.3,0.1-0.5,0.2-0.6c0.1-0.2,0.1-0.5,0.2-0.9
		c0.1-0.4,0.2-0.8,0.3-1.1c0.1-0.4,0.2-0.7,0.3-1c0.1-0.3,0.1-0.5,0.1-0.5c0-0.1,0-0.5,0-1.4s0-1.9,0.1-2.9c0-1.1,0-2,0-2.9
		c0-0.9,0-1.4,0-1.5c0.1-0.1,0.2-0.4,0.3-0.8c0.1-0.4,0.2-0.7,0.3-0.8c0-0.1,0.1-0.3,0.4-0.8c0.3-0.5,0.4-0.8,0.5-0.9
		c0-0.1,0.1-0.3,0.3-0.6c0.2-0.3,0.4-0.5,0.5-0.5c0-0.1,0-0.2,0.1-0.3c0.1-0.1,0.1-0.2,0.2-0.3c0.2-0.2,0.5-0.4,1-0.6
		c0.4-0.3,0.7-0.4,0.8-0.5c0.1-0.1,0.3-0.1,0.5-0.2c0.3-0.1,0.6-0.2,0.8-0.2l0.4,0l0.5,0L500,38.8L500,38.8z M586.8,63.9l-0.6,0
		l0,5.9l-0.7,0l-0.8-5.5c-0.3,0-0.8,0-1.5-0.1s-1.2-0.2-1.5-0.3c-0.1,0-0.3,0-0.6-0.1c-0.3-0.1-0.5-0.1-0.5-0.2
		c-0.2-0.1-0.5-0.3-1-0.5c-0.4-0.2-0.7-0.4-0.8-0.5l-0.5-0.5c-0.2-0.2-0.3-0.3-0.4-0.4c-0.1-0.1-0.2-0.2-0.3-0.2
		c0-0.1-0.1-0.3-0.3-0.7c-0.2-0.3-0.4-0.6-0.5-0.7c-0.1-0.2-0.2-0.4-0.4-0.9s-0.3-0.7-0.3-0.8c-0.1-0.1-0.2-0.4-0.4-0.8
		s-0.2-0.7-0.2-0.8l0-2.6l0-2.1c0-0.2,0.1-0.6,0.4-1.1c0.3-0.5,0.4-0.9,0.5-1c-0.2,0-0.4,0-0.8-0.1c-0.4,0-0.8-0.1-1.2-0.1
		s-0.8-0.1-1.2-0.1c-0.4,0-0.7-0.1-0.8-0.1c-0.1,0-0.3,0-0.5-0.2c-0.2-0.1-0.4-0.2-0.5-0.3c-0.1,0-0.2-0.1-0.4-0.3s-0.3-0.3-0.4-0.3
		c0-0.1-0.1-0.2-0.2-0.5c-0.1-0.2-0.1-0.3-0.2-0.4l0-1l0-1.1c0-0.1,0-0.3,0.2-0.8c0.1-0.5,0.2-0.8,0.2-0.9c0.1-0.2,0.2-0.6,0.4-1
		c0.2-0.5,0.4-1,0.5-1.5l0.8-2.4c0.1-0.3,0.3-0.8,0.8-1.5c0.5-0.7,0.8-1.4,0.9-1.8c0.1-0.2,0.3-0.6,0.5-1.2c0.3-0.6,0.5-1.3,0.8-2
		c0.3-0.7,0.6-1.4,0.8-2c0.3-0.6,0.4-1.1,0.5-1.4c0.3-0.6,0.6-1.2,1-1.8c0.4-0.6,0.9-1.2,1.3-1.8c0.5-0.6,0.9-1.2,1.3-1.9
		c0.4-0.7,0.7-1.4,0.9-2.2c0.1-0.1,0.2-0.2,0.3-0.5c0.2-0.3,0.3-0.5,0.5-0.8c0.2-0.3,0.4-0.6,0.5-0.9s0.3-0.5,0.4-0.7
		c0-0.1,0.1-0.2,0.3-0.6c0.2-0.3,0.3-0.6,0.4-0.8c0.2-0.2,0.4-0.4,0.7-0.8c0.3-0.4,0.6-0.6,0.7-0.7c0.1-0.2,0.4-0.5,0.8-1
		c0.4-0.4,0.7-0.7,0.8-0.8c0.1,0,0.2-0.1,0.5-0.4c0.3-0.3,0.5-0.4,0.6-0.5c0.1,0,0.2-0.1,0.5-0.2c0.1-0.1,0.2-0.1,0.4-0.2l1.5,0
		l1.4,0l0.9,0.9c0.1,0.1,0.2,0.2,0.4,0.5c0.2,0.3,0.3,0.5,0.4,0.6c0,0.1,0.1,0.4,0.3,0.9s0.3,0.9,0.4,1.2c0.1,0.2,0.3,0.6,0.5,1.2
		s0.4,1,0.4,1.2c0,0.1,0,0.3,0.1,0.6c0.1,0.3,0.2,0.6,0.3,0.9s0.2,0.6,0.3,0.9c0.1,0.3,0.1,0.5,0.1,0.7c0,0.1,0.1,0.4,0.2,0.8
		c0.1,0.4,0.2,0.8,0.2,1c0.1,0.3,0.2,0.7,0.3,1.3c0.2,0.5,0.3,1.1,0.5,1.7c0.2,0.6,0.3,1.1,0.4,1.5c0.1,0.5,0.2,0.7,0.2,0.8
		c0,0.3,0.1,0.6,0.4,1c0.2,0.4,0.4,0.8,0.4,1.1c0.1,0.4,0.2,0.9,0.4,1.5c0.1,0.6,0.2,1,0.2,1.1l0,2.8c0,0.1-0.1,0.2-0.2,0.4
		c-0.1,0.2-0.2,0.3-0.3,0.4c-0.1,0.2-0.3,0.5-0.6,0.9c-0.3,0.5-0.5,0.7-0.5,0.8c-0.1,0.1-0.4,0.3-0.8,0.7c-0.4,0.3-0.7,0.6-0.8,0.7
		c-0.1,0-0.3,0.1-0.7,0.2s-0.6,0.2-0.7,0.2h-0.2l-0.2,0c-0.1,0-0.2-0.1-0.4-0.2c-0.2-0.1-0.3-0.2-0.4-0.2c-0.1-0.1-0.2-0.2-0.2-0.4
		c-0.1-0.3-0.2-0.5-0.2-0.5c-0.1-0.1-0.2-0.3-0.3-0.6c-0.1-0.3-0.2-0.5-0.3-0.5c0-0.2-0.1-0.5-0.2-1c-0.1-0.4-0.2-0.7-0.2-0.8
		c0-0.2,0-0.4,0-0.8c0-0.4-0.1-0.8-0.1-1.3c-0.1-0.5-0.1-0.9-0.1-1.3c0-0.4,0-0.7,0-0.8c-0.1-0.3-0.2-0.6-0.2-0.8
		c-0.1-0.3-0.1-0.5-0.2-0.7c-0.1-0.2-0.1-0.4-0.1-0.5c-0.1-0.5-0.3-1.1-0.7-1.9c-0.3-0.7-0.6-1.2-0.7-1.5c-0.1-0.2-0.2-0.7-0.4-1.4
		c-0.2-0.7-0.3-1.2-0.4-1.5c-0.1-0.3-0.2-0.6-0.4-1c-0.1-0.4-0.3-0.8-0.4-1.2c-0.2-0.5-0.4-1-0.5-1.5l-0.5,0c0,0.2,0,0.5,0,0.9
		c0,0.5,0,1,0,1.5c0,0.5,0,1,0,1.5c0,0.5,0,0.8,0,0.9c0,0.2-0.1,0.6-0.2,1.2s-0.2,1-0.3,1.1c0-0.1-0.1-0.3-0.2-0.7
		c-0.1-0.4-0.2-0.6-0.2-0.7c-0.1-0.2-0.1-0.4-0.2-0.7s-0.1-0.7-0.1-1.1c0-0.4-0.1-0.8-0.1-1.1c-0.1-0.4-0.1-0.6-0.2-0.8l-0.7,1.6
		l0,7.6l-0.5,0.7l-0.6-0.7l0-6.3c-0.1,0.1-0.2,0.3-0.4,0.5c-0.2,0.3-0.4,0.5-0.6,0.8c-0.2,0.3-0.4,0.6-0.5,0.8
		c-0.2,0.3-0.3,0.5-0.3,0.6c-0.1,0.1-0.2,0.4-0.5,1c-0.3,0.5-0.5,1.2-0.8,1.9c-0.3,0.7-0.6,1.4-1,2.2c-0.3,0.7-0.6,1.3-0.7,1.7
		c-0.1,0.2-0.2,0.4-0.4,0.7c-0.2,0.2-0.3,0.5-0.4,0.7c-0.1,0.3-0.2,0.7-0.4,1.2c-0.2,0.5-0.4,1-0.5,1.5s-0.3,1-0.5,1.4
		c-0.2,0.4-0.3,0.7-0.3,0.7c0,0.1,0.1,0.4,0.2,0.8c0.1,0.4,0.2,0.7,0.2,0.8c0.2,0,0.5,0,1,0s1,0,1.5,0c0.5,0,1.1,0,1.5,0
		s0.9,0,1.1-0.1c0.1,0,0.2,0,0.5,0c0.3,0,0.6-0.1,0.9-0.1c0.3-0.1,0.7-0.1,1-0.1c0.3,0,0.5,0,0.6,0c0.2-0.1,0.5-0.1,0.8-0.2
		c0.4-0.1,0.7-0.1,1.1-0.2c0.4-0.1,0.7-0.1,0.9-0.2c0.3-0.1,0.4-0.1,0.5-0.1l3.6,0l3,0c0.2,0.1,0.6,0.3,1.2,0.5s1.1,0.4,1.4,0.5
		c0.1,0.1,0.4,0.4,0.8,0.8c0.4,0.4,0.7,0.8,0.8,1c0.1,0.2,0.2,0.4,0.4,0.8c0.2,0.4,0.3,0.7,0.4,0.8l0,4.6c0,0.1-0.1,0.2-0.2,0.5
		c-0.1,0.3-0.2,0.5-0.2,0.6c-0.1,0.1-0.1,0.3-0.2,0.5s-0.2,0.5-0.4,0.7c-0.2,0.3-0.3,0.5-0.5,0.8c-0.2,0.3-0.3,0.5-0.3,0.6
		s-0.1,0.3-0.2,0.5c-0.1,0.1-0.2,0.2-0.3,0.3c-0.1,0.1-0.1,0.2-0.2,0.3c-0.2,0.2-0.5,0.5-0.8,0.9c-0.3,0.4-0.5,0.6-0.6,0.7
		c0,0.1-0.1,0.2-0.3,0.4c-0.2,0.2-0.3,0.3-0.4,0.4c-0.1,0.1-0.3,0.3-0.5,0.5c-0.3,0.2-0.5,0.4-0.8,0.7s-0.5,0.4-0.8,0.6
		c-0.2,0.2-0.4,0.3-0.4,0.3c-0.1,0.1-0.3,0.3-0.7,0.5c-0.3,0.2-0.6,0.4-0.7,0.5c-0.1,0-0.3,0.1-0.5,0.3c-0.3,0.2-0.6,0.4-0.9,0.5
		c-0.3,0.2-0.6,0.4-0.9,0.5c-0.3,0.2-0.4,0.3-0.5,0.3c-0.1,0-0.2,0.1-0.3,0.2c-0.1,0.1-0.1,0.1-0.1,0.2l0,1.2c0,0.2,0,0.5,0.1,1.1
		c0.1,0.6,0.1,1.2,0.1,1.9c0,0.7,0.1,1.3,0.1,1.9s0.1,0.9,0.1,1l0,5.5c0,0.1,0,0.3-0.1,0.6c-0.1,0.3-0.1,0.6-0.1,0.9
		c0,0.3-0.1,0.6-0.1,0.9c0,0.3-0.1,0.5-0.1,0.5c-0.1-0.2-0.2-0.5-0.3-1c-0.1-0.5-0.2-0.9-0.3-1.1c-0.1-0.4-0.1-1.1-0.2-2.2
		c-0.1-1.1-0.2-2.2-0.2-3.4s-0.2-2.3-0.2-3.4c-0.1-1.1-0.1-1.8-0.1-2.2L586.8,63.9L586.8,63.9z M553.7,62.1c0.1,0.4,0.1,0.7,0.2,1.1
		c0.1,0.4,0.1,0.7,0.1,0.8c0.1,0.1,0.2,0.4,0.3,0.9c0.1,0.5,0.2,0.8,0.2,0.9l0,0.8c0,0.1,0,0.3-0.2,0.7c-0.1,0.3-0.2,0.6-0.3,0.7
		c0,0.1-0.1,0.2-0.3,0.5c-0.2,0.3-0.3,0.5-0.4,0.6l-0.9,0.9c-0.1,0.1-0.2,0.2-0.5,0.4s-0.5,0.3-0.6,0.4c-0.1,0.1-0.2,0.2-0.3,0.2
		c-0.1,0-0.2,0.1-0.3,0.1c-0.2,0.1-0.3,0.1-0.3,0.1c-0.2,0.1-0.3,0.1-0.4,0.2c-0.1,0.1-0.1,0.1-0.2,0.1h-0.2c-0.2,0-0.4,0-0.5-0.1
		c-0.2-0.1-0.3-0.1-0.4-0.2c-0.1,0-0.2,0-0.2-0.1c-0.1-0.1-0.2-0.2-0.2-0.3c0-0.1-0.1-0.3-0.2-0.7c-0.1-0.4-0.2-0.7-0.3-1
		c-0.1-0.3-0.1-0.8-0.3-1.4c-0.1-0.6-0.2-1.3-0.4-1.9c-0.1-0.7-0.2-1.3-0.4-1.9c-0.1-0.6-0.2-0.9-0.3-1.1c0-0.1,0-0.2-0.1-0.4
		c-0.1-0.2-0.1-0.5-0.1-0.8c0-0.3-0.1-0.6-0.1-0.9c-0.1-0.3-0.1-0.6-0.1-0.8c0-0.2,0-0.4-0.1-0.8c-0.1-0.4-0.1-0.7-0.2-1.1
		s-0.1-0.7-0.2-1c-0.1-0.3-0.1-0.5-0.1-0.5c0-0.3,0-0.8,0-1.4c0-0.6-0.1-1.3-0.1-2c-0.1-0.7-0.1-1.3-0.1-1.9c0-0.5,0-0.9,0-1l0-9.4
		l0-9.3c0-0.1,0-0.3,0.2-0.6s0.2-0.5,0.2-0.5c0.1-0.1,0.2-0.3,0.3-0.5c0.1-0.2,0.1-0.3,0.2-0.4c0.1-0.1,0.3-0.3,0.5-0.5
		c0.2-0.2,0.4-0.4,0.6-0.7c0.2-0.2,0.4-0.4,0.6-0.6c0.2-0.2,0.3-0.3,0.4-0.3c0.1-0.1,0.4-0.2,0.8-0.4s0.7-0.3,0.8-0.4l0.7,0l0.7,0
		c0.1,0.1,0.1,0.2,0.2,0.2l0.2,0.2c0.1,0.1,0.1,0.4,0.2,0.8c0.1,0.4,0.1,0.7,0.1,0.8l0.1,20.5c0.2-0.1,0.4-0.3,0.8-0.5
		c0.4-0.2,0.8-0.4,1.3-0.6c0.4-0.2,0.8-0.4,1.2-0.6c0.4-0.2,0.7-0.3,0.8-0.4c0.1-0.1,0.3-0.3,0.7-0.5c0.3-0.2,0.6-0.4,0.7-0.5
		c0.2-0.2,0.5-0.4,0.8-0.7c0.4-0.3,0.7-0.6,1-0.9c0.3-0.3,0.6-0.5,0.9-0.7c0.3-0.2,0.4-0.3,0.4-0.3c0.2-0.2,0.6-0.6,1.1-1.1
		c0.5-0.5,1.1-1.1,1.7-1.7c0.6-0.6,1.1-1.2,1.7-1.7c0.5-0.5,0.8-0.9,1-1.2c0.1,0,0.1-0.1,0.2-0.3c0.1-0.2,0.2-0.3,0.3-0.3
		c0-0.1,0.1-0.3,0.2-0.7c0.1-0.4,0.2-0.6,0.2-0.7c0.1-0.1,0.1-0.1,0.1-0.2c0-0.1,0-0.2,0.1-0.2c0.1-0.1,0.1-0.2,0.2-0.3
		c0.2-0.3,0.4-0.6,0.7-1s0.6-0.6,0.7-0.7c0.1-0.1,0.4-0.4,0.9-0.8c0.5-0.4,0.9-0.8,1.2-1l0.3-0.2c0.2-0.1,0.3-0.2,0.4-0.2
		c0.2-0.1,0.4-0.2,0.7-0.3c0.3-0.1,0.6-0.1,0.7-0.1l0.3-0.1c0.1,0,0.1,0,0.2,0c0.1,0,0.1,0,0.2,0l0.1,0c0.4,0,0.5,0.1,0.5,0.4l0,2.1
		c0,0.1-0.1,0.2-0.2,0.4c-0.1,0.2-0.2,0.4-0.3,0.7c-0.1,0.3-0.3,0.5-0.4,0.8c-0.2,0.3-0.3,0.4-0.3,0.5c-0.1,0.2-0.4,0.6-0.8,1.3
		c-0.4,0.6-0.8,1.1-1,1.4c0,0.2-0.3,0.5-0.8,1c-0.5,0.5-0.8,0.9-0.9,1.1c-0.2,0.2-0.5,0.6-0.9,1.1c-0.5,0.5-1,1.1-1.5,1.6
		c-0.5,0.6-1,1.1-1.5,1.6s-0.8,0.9-0.9,1c0.1,0.1,0.3,0.3,0.6,0.5c0.3,0.2,0.5,0.4,0.6,0.5c0.1,0.1,0.3,0.2,0.5,0.4
		c0.2,0.2,0.4,0.4,0.7,0.6c0.2,0.2,0.4,0.4,0.6,0.7c0.2,0.2,0.3,0.3,0.3,0.4c0.1,0.1,0.3,0.4,0.7,1.2c0.4,0.7,0.6,1.3,0.9,1.7
		c0.1,0.2,0.3,0.6,0.6,1.2c0.4,0.7,0.7,1.4,1.1,2.1c0.4,0.7,0.8,1.4,1.1,2.1c0.3,0.7,0.6,1.1,0.7,1.2c0,0.1,0.1,0.3,0.3,0.7
		c0.2,0.3,0.4,0.7,0.7,1.2c0.3,0.4,0.5,0.9,0.8,1.3s0.5,0.8,0.7,1c0.1,0.1,0.3,0.3,0.5,0.6c0.2,0.3,0.4,0.5,0.5,0.6
		c0.1,0.2,0.3,0.5,0.6,0.9c0.3,0.4,0.5,0.7,0.5,0.9c0.2,0.3,0.5,0.7,1,1.2c0.4,0.6,0.7,0.8,0.8,0.8c0.2,0.2,0.5,0.6,1,1.1l3.3,3.2
		c0.5,0.5,0.9,0.8,1.2,1c0,0.1,0.1,0.2,0.2,0.4l0,0.1c0.1,0.2,0.2,0.3,0.2,0.4l0,0.5c-0.1,0.2-0.2,0.4-0.4,0.9
		c-0.2,0.4-0.3,0.7-0.3,0.8c-0.1,0.1-0.3,0.3-0.5,0.5c-0.2,0.3-0.5,0.5-0.8,0.8c-0.3,0.3-0.6,0.5-0.8,0.7c-0.3,0.2-0.5,0.4-0.6,0.5
		l-0.5,0.2c-0.3,0.1-0.5,0.2-0.7,0.2l-0.9,0c-0.2-0.1-0.3-0.1-0.4-0.2c-0.1,0-0.1,0-0.1,0c0,0-0.1,0-0.1,0c-0.1,0-0.1,0-0.2-0.1
		c-0.1-0.2-0.4-0.5-0.8-0.8c-0.4-0.3-0.7-0.5-0.8-0.6c-0.2-0.1-0.6-0.3-1.1-0.9c-0.5-0.5-0.9-0.9-1-1.2c-0.1-0.1-0.3-0.3-0.5-0.5
		c-0.3-0.3-0.5-0.5-0.8-0.8c-0.3-0.3-0.5-0.6-0.8-0.8c-0.3-0.3-0.4-0.4-0.5-0.5c-0.1-0.1-0.2-0.3-0.4-0.6c-0.2-0.3-0.5-0.6-0.7-1
		s-0.5-0.7-0.8-1.1c-0.3-0.4-0.4-0.6-0.5-0.8c-0.1-0.1-0.3-0.3-0.5-0.6c-0.2-0.3-0.4-0.5-0.5-0.5c-0.2-0.3-0.4-0.7-0.9-1.4
		c-0.4-0.7-0.8-1.4-1.2-2.2c-0.4-0.8-0.8-1.5-1.2-2.2c-0.4-0.7-0.7-1.1-0.9-1.4l-0.7-0.4l0,2.1l-0.5,0c-0.1-0.2-0.1-0.4-0.2-0.6
		c-0.1-0.2-0.1-0.4-0.2-0.6s-0.1-0.3-0.2-0.5c0-0.1,0-0.3-0.1-0.7c-0.1-0.4-0.1-0.7-0.1-1.1c0-0.4-0.1-0.8-0.1-1.1s-0.1-0.6-0.1-0.7
		c0-0.1-0.1-0.3-0.2-0.6c-0.1-0.3-0.2-0.6-0.2-0.8L562,55c-0.1-0.1-0.3-0.3-0.5-0.5c-0.2-0.3-0.4-0.4-0.5-0.4l0,0.9
		c0.1,0.2,0.1,0.7,0.2,1.6c0.1,0.8,0.1,1.8,0.2,2.7c0.1,1,0.1,1.9,0.1,2.8s0,1.4,0,1.6l0,11.6l-0.5,2.1l-0.4-0.4c0,0,0-0.1-0.1-0.4
		c-0.1-0.3-0.1-0.6-0.1-0.9c0-0.4-0.1-0.7-0.1-1.1c0-0.4,0-0.6,0-0.8c-0.1-0.3-0.1-0.8-0.2-1.7c-0.1-0.9-0.1-2-0.2-3.2
		c-0.1-1.2-0.1-2.5-0.2-3.9c-0.1-1.4-0.2-2.6-0.2-3.9c-0.1-1.2-0.1-2.3-0.1-3.2c0-0.9,0-1.5,0-1.8c-0.1-0.1-0.1-0.3-0.2-0.7
		c-0.1-0.3-0.1-0.7-0.1-1c0-0.3-0.1-0.7-0.1-1c-0.1-0.3-0.1-0.5-0.2-0.6c-0.1,0-0.3,0-0.6-0.1c-0.3-0.1-0.5-0.1-0.5-0.1
		c-0.1,0-0.4,0.1-0.8,0.2c-0.2,0.1-0.4,0.1-0.5,0.1c-0.1,0-0.4,0.1-1,0.3c-0.6,0.2-1.1,0.3-1.5,0.4c-0.1,0.1-0.4,0.2-0.8,0.4
		c-0.4,0.2-0.7,0.3-0.8,0.4c0,0.2,0,0.4,0.1,0.7c0.1,0.3,0.1,0.6,0.1,0.9c0,0.3,0.1,0.6,0.1,0.9s0.1,0.5,0.1,0.6
		c0.1,0.3,0.2,0.7,0.3,1.3s0.2,1,0.3,1.1c0,0.2,0,0.4,0.1,0.8c0.1,0.3,0.1,0.6,0.2,0.9L553.7,62.1L553.7,62.1z M494.8,66.4
		c-0.1,0.3-0.3,0.7-0.5,1.4c-0.3,0.6-0.4,1-0.4,1.2c0,0.1,0,0.3,0,0.5s0,0.4,0,0.5l0.5,0c0.2-0.1,0.5-0.2,1.1-0.3
		c0.6-0.1,0.9-0.2,1-0.3l0-0.2l0-0.2c0-0.2-0.1-0.6-0.4-1.2c-0.2-0.6-0.4-1.1-0.4-1.3c-0.1,0-0.2-0.1-0.3-0.3
		c-0.1-0.2-0.1-0.3-0.2-0.3C495.2,65.7,494.8,66.4,494.8,66.4z M581.9,51.4c0,0.1,0,0.3,0,0.5c0,0.2,0,0.5,0.1,0.7
		c0.1,0.3,0.1,0.5,0.2,0.8c0,0.2,0.1,0.5,0.3,0.9c0.2,0.4,0.4,0.7,0.6,0.9c0,0.1,0.2,0.3,0.7,0.8c0.4,0.5,0.8,0.8,1,0.9
		c0.1,0,0.2,0.1,0.4,0.2c0.2,0.1,0.3,0.2,0.4,0.2l2.3,0l1.9,0c0.1,0,0.2-0.1,0.4-0.2c0.2-0.1,0.5-0.2,0.7-0.3
		c0.3-0.1,0.5-0.3,0.8-0.4c0.3-0.2,0.4-0.3,0.5-0.4c0.1-0.1,0.3-0.2,0.5-0.4s0.4-0.3,0.5-0.4c0.1-0.2,0.2-0.5,0.4-0.9
		c0.2-0.4,0.3-0.7,0.3-0.9l0-1l0-1.1c0-0.1-0.1-0.4-0.4-0.8c-0.2-0.4-0.4-0.7-0.4-0.8c-0.1-0.1-0.3-0.2-0.7-0.4
		c-0.3-0.2-0.6-0.3-0.7-0.3c-0.1-0.1-0.4-0.2-0.9-0.3c-0.6-0.1-1-0.1-1.2-0.1l-1,0l-1.1,0c-0.3,0-0.6,0-1.1,0s-0.9,0.1-1.4,0.1
		c-0.5,0-0.9,0.1-1.3,0.1c-0.4,0.1-0.6,0.1-0.7,0.2c-0.1,0-0.3,0.1-0.5,0.2c-0.2,0.1-0.3,0.1-0.4,0.2c0,0.2,0,0.6-0.1,1.1
		C582,50.9,581.9,51.3,581.9,51.4L581.9,51.4z"/>
	<path fill="#FF0000" stroke="#FFFFFF" stroke-linejoin="round" stroke-miterlimit="1.4142" d="M459.7,47.4c0.1,0.1,0.2,0.1,0.3,0.1
		c0.1,0,0.2,0.1,0.4,0.3c0.2,0.2,0.3,0.3,0.3,0.4c0,0.1,0,0.1,0.1,0.2c0,0.1,0,0.1,0,0.2c0,0.1,0,0.1,0,0.2l-0.2,0.3
		c0,0.2,0,0.5-0.1,0.8s-0.1,0.5-0.2,0.5c0,0-0.1,0.1-0.2,0.3c-0.1,0.2-0.2,0.4-0.4,0.5c-0.2,0.2-0.3,0.4-0.5,0.5s-0.3,0.3-0.3,0.3
		c-0.1,0.1-0.1,0.1-0.1,0.2c0,0.1-0.1,0.2-0.1,0.3c-0.1,0.2-0.1,0.3-0.2,0.4l0.1,12.5l0.5,0c0.1,0,0.2,0,0.4-0.1
		c0.2-0.1,0.5-0.1,0.7-0.1c0.2,0,0.5-0.1,0.7-0.1c0.2-0.1,0.3-0.1,0.3-0.1c0.4-0.1,1-0.2,1.9-0.4c0.9-0.2,1.9-0.4,2.9-0.6
		c1.1-0.2,2-0.4,2.9-0.5s1.5-0.3,1.9-0.3l0.7-0.4l-0.1-13c0-0.1,0.1-0.3,0.4-0.7c0.3-0.4,0.5-0.7,0.6-1l2.1-2.1
		c0.1,0,0.3-0.1,0.7-0.3c0.4-0.2,0.6-0.3,0.8-0.4l0.3,0l0.2,0c0.2,0,0.4,0,0.7,0.2c0.2,0,0.3,0.1,0.4,0.2l0.1,15l0.5,2.5l0.1,12.8
		c0.1,0.5,0.1,1.4,0.2,2.6c0,1.1,0.1,2.2,0.1,3.3l0,1c0,1.2,0.1,2.3,0.1,3.3c0.1,1.2,0.1,2,0.2,2.5c0,0.1,0,0.2,0.1,0.5
		c0.1,0.3,0.1,0.7,0.1,1c0,0.4,0.1,0.7,0.1,1.1s0.1,0.5,0.1,0.6l0,2.1c0,0.1-0.1,0.3-0.2,0.6l0,0.1c-0.1,0.3-0.2,0.5-0.2,0.6
		c-0.1,0.1-0.1,0.4-0.2,0.8c0,0.5-0.1,1-0.1,1.5c0,0.5-0.1,1-0.1,1.4c0,0.4-0.1,0.7-0.2,0.7c0,0.2,0,0.5-0.1,0.8
		c-0.1,0.3-0.2,0.5-0.3,0.6c-0.1,0.1-0.1,0.1-0.2,0.1c-0.1,0.1-0.3,0.1-0.5,0.1l0-4.3c0,0.2,0,0.4,0,0.9c0,0.4-0.1,0.9-0.1,1.4
		c0,0.5-0.1,1-0.1,1.4c0,0.4-0.1,0.7-0.2,0.9c0,0.2-0.1,0.4-0.2,0.7c-0.1,0.3-0.2,0.5-0.3,0.5c0,0.1,0,0.1-0.1,0.2l0,0.1h-0.1
		l-0.2,0c-0.1,0-0.1-0.1-0.1-0.2c0-0.1-0.1-0.4-0.2-1c-0.1-0.6-0.2-0.9-0.2-1.1c-0.1-0.2-0.2-0.6-0.3-1.2c-0.1-0.6-0.2-1-0.2-1.2
		l-0.9,0c-0.1,0-0.2-0.1-0.4-0.2c-0.2-0.1-0.3-0.2-0.3-0.3c-0.1,0-0.2-0.2-0.3-0.5c-0.1-0.3-0.1-0.6-0.2-0.7
		c-0.1-0.2-0.2-0.6-0.3-1.1c-0.1-0.5-0.1-0.9-0.1-1c-0.1-0.2-0.1-0.6-0.2-1.2c-0.1-0.6-0.1-1.3-0.1-2c0-0.7-0.1-1.4-0.1-2
		s-0.1-1.1-0.2-1.3c0-0.4,0-1.2-0.1-2.6c-0.1-1.2-0.1-2.5-0.1-3.9l0-1.2c0-1.4-0.1-2.7-0.1-3.9c-0.1-1.4-0.1-2.3-0.1-2.6
		c0-0.2,0-0.4,0-0.8c0-0.4-0.1-0.8-0.1-1.2c-0.1-0.4-0.1-0.8-0.1-1.2c0-0.4,0-0.7,0-0.8l-1.1,0l-1,0c-0.3,0-0.7,0.1-1.4,0.2
		c-0.6,0.1-1,0.2-1.2,0.2c0,0.1-0.1,0.2-0.2,0.3c-0.1,0.1-0.2,0.2-0.2,0.3c0,0.3-0.1,0.8-0.1,1.6c0,0.8-0.1,1.6-0.1,2.5
		c0,0.9-0.1,1.8-0.1,2.5s-0.1,1.4-0.1,1.7c0,0.1,0,0.4-0.1,0.8c0,0.5-0.1,1-0.1,1.6c0,0.6-0.1,1.2-0.1,1.7s-0.1,0.9-0.1,1.2
		c0,0.2,0,0.4,0,0.8c0,0.4-0.1,0.8-0.1,1.3c0,0.5-0.1,0.9-0.1,1.3s0,0.6,0,0.7c0,0.2-0.1,0.4-0.2,0.7c0,0.2-0.1,0.5-0.1,0.8l0,0.2
		c0,0.3-0.1,0.5-0.1,0.8c-0.1,0.3-0.1,0.5-0.1,0.6c0-0.2-0.1-0.6-0.2-1.1l0-0.2c-0.1-0.6-0.2-0.9-0.2-1.1l0-1l0-1.1
		c0-0.3,0-0.8,0.1-1.7c0-0.9,0.1-1.9,0.1-2.9c0-1.1,0.1-2,0.1-2.9s0.1-1.4,0.1-1.7l0-7l-0.6,0c0,0.1,0,0.3,0,0.5
		c0,0.3,0.1,0.5,0.1,0.8c0,0.3,0.1,0.6,0.1,0.9c0,0.3,0,0.5,0,0.6c-0.1,0.2-0.2,0.6-0.3,1.1c-0.1,0.5-0.2,0.8-0.3,1h-0.2l-0.2,0
		c-0.1-0.1-0.1-0.2-0.3-0.4c-0.1-0.2-0.2-0.3-0.2-0.4c0-0.2,0-0.4,0-0.8c0-0.4,0-0.7,0-1.1s0-0.7,0-1.1c0-0.3,0-0.6,0-0.7
		c-0.1,0-0.4,0-0.9-0.1c-0.5,0-0.8-0.1-0.9-0.1c-0.2,0-0.4,0.1-0.8,0.2c-0.4,0.1-0.7,0.2-0.8,0.3l0,2.5c0.1,0.2,0.1,0.5,0.2,1.1
		c0.1,0.6,0.2,1.3,0.3,2c0.1,0.8,0.2,1.5,0.3,2.3c0.1,0.7,0.1,1.3,0.2,1.7c0,0.2,0,0.6,0.1,1.1c0.1,0.5,0.2,1.1,0.3,1.7
		c0.1,0.6,0.2,1.2,0.3,1.8c0.1,0.6,0.1,1,0.1,1.2c0,0.1,0,0.4,0.1,0.8c0.1,0.4,0.2,0.9,0.3,1.4c0.1,0.5,0.2,1,0.3,1.4
		c0.1,0.5,0.2,0.8,0.2,0.9l0,1.7c-0.1,0.1-0.1,0.1-0.2,0.2c-0.1,0.1-0.1,0.2-0.2,0.3c-0.1,0.1-0.1,0.1-0.2,0.2
		c-0.1,0.2-0.2,0.5-0.4,0.8c-0.2,0.3-0.3,0.5-0.4,0.6c-0.1,0.1-0.2,0.3-0.4,0.5c-0.2,0.2-0.5,0.5-0.7,0.7c-0.3,0.3-0.5,0.5-0.8,0.7
		s-0.4,0.4-0.5,0.5l0.1,18.8l-0.4,0.8c-0.1-0.2-0.2-0.5-0.4-1c-0.1-0.5-0.2-0.9-0.2-1.1c0-0.2,0-0.4-0.1-0.8
		c-0.1-0.4-0.1-0.8-0.1-1.3c0-0.4-0.1-0.8-0.1-1.2c-0.1-0.4-0.1-0.7-0.1-0.8c0-0.5,0-1.4-0.1-2.7c0-1.1-0.1-2.3-0.1-3.5l0-1
		c0-1.2-0.1-2.4-0.1-3.5c-0.1-1.3-0.1-2.1-0.2-2.7c-0.1-0.1-0.2-0.4-0.4-0.8c-0.2-0.4-0.3-0.8-0.3-1c-0.1-0.1-0.2-0.3-0.4-0.7
		c-0.1-0.4-0.2-0.7-0.2-0.9c0-0.1,0-0.4-0.1-0.8c-0.1-0.4-0.2-0.9-0.3-1.5c-0.1-0.5-0.2-1.1-0.3-1.5s-0.1-0.9-0.2-1.1
		c0-0.3-0.1-0.8-0.2-1.6c-0.1-0.8-0.2-1.2-0.2-1.4c-0.1-0.6-0.2-1.6-0.4-3c-0.2-1.4-0.3-2.9-0.5-4.4c-0.2-1.5-0.4-2.9-0.5-4.2
		c-0.2-1.3-0.3-2.2-0.4-2.6c0-0.3,0-0.6,0-1.1c0-0.5-0.1-0.9-0.1-1.4c-0.1-0.5-0.1-0.9-0.1-1.3c0-0.4,0-0.6,0-0.7l0-4.9l0-4.6
		c0-0.1,0-0.5,0.1-1.2c0.1-0.7,0.1-1.2,0.1-1.5c0.1-0.3,0.2-0.5,0.3-0.9l0.2-0.6c0.1-0.2,0.3-0.6,0.7-1.3c0.3-0.6,0.5-1.1,0.6-1.4
		c0.1-0.1,0.2-0.2,0.4-0.5c0.2-0.3,0.3-0.5,0.4-0.6l0.9-0.9c0.1-0.1,0.3-0.2,0.6-0.4c0.3-0.2,0.5-0.3,0.5-0.4l0.9-0.5
		c0.2-0.1,0.4-0.2,0.7-0.2c0.1,0,0.2,0,0.3-0.1l0,0c0.1-0.1,0.2-0.1,0.3-0.1C459.4,47.3,459.5,47.3,459.7,47.4L459.7,47.4
		L459.7,47.4z M528.5,36.9c0.1,0,0.2,0.1,0.4,0.2c0.2,0.1,0.3,0.2,0.4,0.3l0.4,0.3c0.1,0.1,0.1,0.2,0.2,0.3c0.1,0.1,0.1,0.3,0.2,0.4
		c0.1,0.2,0.1,0.4,0.2,0.5c0.1,0.2,0.2,0.4,0.4,0.7c0.2,0.3,0.3,0.6,0.4,0.7c0.2,0.2,0.5,0.6,1.1,1.2c0.6,0.6,1.2,1.2,1.9,1.8
		l3.3,3.2c0.1,0,0.2,0.1,0.5,0.3c0.3,0.2,0.6,0.5,0.9,0.8c0.3,0.3,0.7,0.6,1,0.8s0.5,0.4,0.6,0.5c0.1,0.1,0.3,0.3,0.6,0.6
		s0.6,0.6,0.9,0.9c0.3,0.3,0.6,0.6,0.8,0.9c0.3,0.3,0.4,0.5,0.5,0.6c0.1,0.1,0.1,0.3,0.3,0.5c0.1,0.2,0.2,0.4,0.2,0.5
		c-0.1,0.2-0.2,0.3-0.2,0.5c-0.1,0.1-0.1,0.2-0.2,0.3c0,0.1-0.1,0.2-0.1,0.3c0,0.1,0,0.2-0.1,0.3c-0.1,0.1-0.1,0.2-0.2,0.3
		c0,0.2-0.1,0.3-0.2,0.4c-0.1,0.1-0.3,0.2-0.5,0.4c-0.2,0.2-0.4,0.4-0.7,0.6c-0.2,0.2-0.4,0.5-0.6,0.7c-0.2,0.2-0.3,0.3-0.3,0.4
		c-0.1,0.1-0.4,0.2-0.8,0.4s-0.7,0.3-0.9,0.4l-0.6,0l-0.7,0c-0.1-0.1-0.3-0.2-0.5-0.4c-0.3-0.2-0.5-0.4-0.9-0.7
		c-0.3-0.2-0.6-0.4-0.9-0.7c-0.3-0.2-0.5-0.3-0.6-0.4c-0.3-0.3-0.8-0.6-1.4-1c-0.6-0.4-1-0.6-1.1-0.7c-0.2-0.1-0.6-0.3-1.2-0.6
		c-0.7-0.3-1.1-0.5-1.4-0.5c-0.2-0.1-0.6-0.3-1.2-0.5c-0.6-0.2-1-0.4-1.2-0.5l-0.7,0l0,4.2l-0.7,0l0-4.6l-0.7,0
		c0,0.2-0.2,0.6-0.4,1.1c-0.2,0.5-0.3,0.8-0.4,1L524,54c-0.1-0.1-0.2-0.3-0.3-0.6c-0.1-0.3-0.2-0.5-0.3-0.5c0-0.2-0.1-0.6-0.2-1.1
		c-0.1-0.5-0.2-0.8-0.2-1c-0.2-0.1-0.6-0.2-1.2-0.3c-0.6-0.1-1-0.2-1.2-0.3l-4.6,0c-0.2,0.1-0.3,0.1-0.5,0.2l-0.8,0.4
		c-0.2,0.1-0.4,0.2-0.9,0.4c-0.4,0.2-0.7,0.3-0.8,0.4l-0.4,0.4c-0.1,0.1-0.1,0.3-0.3,0.5c-0.1,0.2-0.2,0.4-0.2,0.5l0,4.2
		c0.1,0.2,0.2,0.4,0.4,0.6c0.1,0.2,0.2,0.3,0.3,0.5c0.1,0.2,0.1,0.3,0.2,0.4c0.1,0.2,0.3,0.5,0.5,0.8c0.2,0.3,0.4,0.5,0.5,0.6
		c0.1,0.1,0.2,0.3,0.4,0.5c0.2,0.2,0.4,0.5,0.7,0.7c0.2,0.3,0.5,0.5,0.7,0.7s0.3,0.4,0.4,0.5c0.1,0.2,0.2,0.4,0.5,0.6
		c0.3,0.3,0.6,0.5,0.9,0.8c0.3,0.3,0.6,0.6,0.9,0.9s0.5,0.5,0.6,0.7c0.1,0.1,0.3,0.3,0.5,0.5s0.5,0.4,0.9,0.7
		c0.3,0.3,0.6,0.5,0.9,0.8c0.3,0.2,0.5,0.4,0.7,0.4c0.1,0.1,0.4,0.3,0.8,0.7c0.4,0.3,0.7,0.6,0.8,0.7c0.2,0.1,0.4,0.2,0.6,0.4
		c0.3,0.2,0.5,0.3,0.8,0.5s0.5,0.3,0.8,0.4c0.2,0.1,0.4,0.2,0.4,0.3c0.1,0.1,0.5,0.3,1.2,0.6s1.1,0.5,1.3,0.6
		c0.1,0.1,0.2,0.1,0.3,0.2c0.1,0.1,0.2,0.1,0.3,0.2l0.5,0.2l1.6,0l1.4,0c0.1,0,0.1-0.1,0.2-0.2c0.1-0.1,0.2-0.2,0.3-0.3l0.3-0.7
		c0.1-0.2,0.2-0.4,0.3-0.8c0.1-0.4,0.1-0.7,0.1-0.8c0.1-0.1,0.1-0.3,0.2-0.6c0.1-0.3,0.1-0.6,0.2-0.9c0-0.3,0.1-0.6,0.1-0.9
		c0-0.3,0-0.5,0-0.6c0-0.2,0.1-0.5,0.2-0.8s0.2-0.6,0.2-0.7c0.1-0.1,0.1-0.3,0.2-0.5c0.1-0.3,0.2-0.4,0.3-0.4
		c0.1-0.1,0.2-0.3,0.4-0.5c0.2-0.3,0.5-0.5,0.8-0.8c0.3-0.3,0.5-0.5,0.7-0.7c0.2-0.2,0.4-0.4,0.5-0.5c0.1-0.1,0.2-0.1,0.4-0.2
		c0.3-0.1,0.5-0.2,0.5-0.2c0.1-0.1,0.2-0.1,0.3-0.2c0.1-0.1,0.2-0.1,0.3-0.2c0.2-0.1,0.3-0.2,0.5-0.2c0.1,0.1,0.3,0.3,0.5,0.5
		c0.3,0.2,0.4,0.4,0.4,0.5l0,2.9c0,0.1,0,0.5-0.2,1.1c-0.1,0.6-0.1,1.1-0.1,1.5c-0.1,0.1-0.2,0.4-0.3,0.8c-0.1,0.4-0.2,0.7-0.3,0.8
		c0,0.2-0.1,0.5-0.3,1c-0.2,0.5-0.4,0.9-0.4,1.1c0,0.2-0.1,0.5-0.4,0.9c-0.3,0.5-0.4,0.7-0.5,0.8c0,0.1-0.1,0.3-0.3,0.7
		c-0.2,0.3-0.3,0.6-0.4,0.7c-0.2,0.2-0.5,0.5-0.8,0.9c-0.3,0.4-0.5,0.7-0.6,0.8l-0.7,0.7c-0.1,0.1-0.4,0.3-0.8,0.7
		c-0.4,0.3-0.8,0.6-1,0.7c-0.1,0.1-0.2,0.1-0.3,0.2c-0.1,0.1-0.2,0.1-0.3,0.2l-0.5,0.3c-0.1,0.1-0.2,0.1-0.4,0.2
		c-0.2,0.1-0.4,0.2-0.7,0.3c-0.2,0.1-0.5,0.2-0.7,0.3c-0.2,0.1-0.3,0.1-0.4,0.1c-0.1,0.1-0.3,0.2-0.5,0.3c-0.3,0.1-0.4,0.2-0.4,0.3
		l-0.3,0.7c-0.1,0.1-0.2,0.2-0.3,0.3c-0.1,0.1-0.1,0.2-0.2,0.2c0-0.1,0-0.2-0.1-0.5c-0.1-0.3-0.2-0.5-0.3-0.6c0-0.2-0.1-0.2-0.2-0.2
		H528c-0.1,0-0.2,0.1-0.3,0.2c0,0.4,0,1-0.1,1.9c0,0.9-0.1,1.9-0.1,3c0,1.1-0.1,2.1-0.1,3c0,0.9-0.1,1.6-0.1,1.9
		c0,0.2,0,0.6-0.1,1.4c-0.1,0.7-0.1,1.3-0.1,1.7c-0.1,0.3-0.2,0.6-0.3,1.2c-0.1,0.5-0.2,0.8-0.2,0.9c0,0.1-0.1,0.2-0.2,0.4
		c-0.1,0.2-0.2,0.3-0.2,0.4L526.2,79c-0.2,0-0.6-0.1-1.2-0.3c-0.7-0.2-1.1-0.4-1.4-0.5l-2.5-1.2c-0.1-0.1-0.3-0.2-0.7-0.4
		c-0.4-0.2-0.7-0.5-1.1-0.7l-2-1.3c-0.1-0.1-0.3-0.2-0.5-0.3c-0.2-0.2-0.4-0.4-0.7-0.5c-0.2-0.2-0.4-0.3-0.6-0.5
		c-0.2-0.2-0.3-0.3-0.3-0.3l-6.3-6.2l-0.5-0.6c-0.1-0.2-0.2-0.3-0.3-0.5c-0.1-0.2-0.2-0.3-0.4-0.4c-0.1-0.2-0.3-0.4-0.5-0.7
		c-0.2-0.3-0.4-0.6-0.5-0.7l-0.4-0.7c0-0.1-0.1-0.3-0.2-0.7c-0.1-0.4-0.2-0.6-0.3-0.7c0-0.1-0.1-0.4-0.2-0.9
		c-0.1-0.2-0.1-0.4-0.2-0.7l0-1.5l0-1.4c0-0.2,0-0.5,0.2-0.9c0.1-0.4,0.2-0.7,0.1-0.9c0.1-0.2,0.3-0.5,0.5-1
		c0.2-0.4,0.4-0.9,0.7-1.3c0.2-0.4,0.4-0.8,0.6-1.2c0.2-0.4,0.3-0.6,0.3-0.7c0.1-0.1,0.3-0.3,0.7-0.7c0.4-0.4,0.8-0.8,1.2-1.2
		c0.4-0.4,0.9-0.9,1.3-1.3s0.7-0.8,1-1c0.1-0.1,0.3-0.3,0.7-0.5c0.3-0.2,0.6-0.4,0.7-0.5c0.2-0.1,0.6-0.2,1.2-0.5
		c0.6-0.3,1-0.5,1.2-0.6c0.3-0.1,0.7-0.3,1.3-0.5c0.6-0.2,1-0.4,1.2-0.5c0.2,0,0.4,0,0.8,0c0.4,0,0.9-0.1,1.4-0.1
		c0.5-0.1,1-0.1,1.4-0.1c0.4,0,0.7,0,0.9,0c-0.1-0.2-0.1-0.6-0.1-1.1c0-0.5,0-0.8,0.1-1c0-0.2,0.1-0.5,0.4-0.9
		c0.3-0.4,0.4-0.7,0.5-0.9c0.1-0.2,0.4-0.5,1-1c0.6-0.5,0.9-0.9,1.1-1.1l1.5-0.8l0.5,0L528.5,36.9L528.5,36.9L528.5,36.9z
		 M498.4,37.2l0,3.9c0,0,0,0.1,0,0.4c0,0.3-0.1,0.6-0.1,0.9c0,0.3-0.1,0.7-0.1,1c0,0.3,0,0.5,0,0.5l0,1.6c0,0.1,0,0.5,0,1.3
		c0,0.7,0.1,1.6,0.1,2.5c0,0.9,0.1,1.7,0.1,2.5s0.1,1.2,0.1,1.3c0,0.2,0.1,0.5,0.2,1.1s0.2,0.9,0.2,1c0.1,0.3,0.3,0.7,0.5,1.5
		c0.2,0.7,0.4,1.2,0.5,1.5c0.1,0.3,0.2,0.7,0.4,1.3c0.2,0.6,0.4,1.2,0.7,1.9c0.2,0.7,0.5,1.3,0.7,1.9c0.2,0.6,0.3,1,0.4,1.2
		c0.1,0.2,0.2,0.5,0.4,1s0.3,0.9,0.4,1.1c0.1,0.3,0.3,0.6,0.5,1s0.4,0.6,0.4,0.7c0.1,0,0.4,0.1,0.8,0.3c0.4,0.2,0.7,0.3,0.8,0.3
		c0.1,0.1,0.2,0.2,0.3,0.3c0.1,0.1,0.2,0.1,0.2,0.2c-0.1,0.3-0.2,0.9-0.1,1.7c0,0.8,0.1,1.4,0.2,1.7c0,0,0.1,0.2,0.2,0.5
		c0.2,0.3,0.3,0.7,0.5,1.2c0.2,0.5,0.4,0.9,0.7,1.4c0.3,0.5,0.5,0.8,0.6,1.1c0.1,0.1,0.2,0.6,0.5,1.4c0.3,0.8,0.6,1.8,0.9,2.8
		c0.3,1,0.7,1.9,0.9,2.8c0.3,0.9,0.5,1.3,0.5,1.4c0.1,0.4,0.3,0.7,0.5,0.9c0.1,0.2,0.2,0.4,0.4,0.6l0,1.7c-0.1,0.1-0.2,0.4-0.4,0.8
		c-0.2,0.4-0.3,0.8-0.4,1l-2.1,2.1c-0.1,0-0.3,0.1-0.5,0.2c-0.2,0.1-0.4,0.2-0.5,0.2l-1,0l-1.1,0c-0.1,0-0.3-0.2-0.8-0.5
		s-0.8-0.6-0.9-0.7c0-0.1-0.1-0.3-0.2-0.6s-0.2-0.5-0.2-0.6l0-1.4l-0.3-0.6c-0.1-0.2-0.2-0.3-0.2-0.5c-0.1-0.2-0.1-0.3-0.2-0.4
		c-0.4-0.6-0.8-1.5-1.3-2.9c-0.5-1.4-1.1-2.8-1.6-4.2c-0.6-1.7-1.3-3.5-2-5.4l-3.4,0c0,0.2,0,0.4-0.2,0.8c-0.1,0.4-0.2,0.7-0.2,0.8
		c-0.1,0-0.2,0.1-0.3,0.2c-0.1,0.1-0.1,0.2-0.2,0.2c0,0.2,0,0.6-0.1,1.1c0,0.5-0.1,1.1-0.1,1.7s-0.1,1.2-0.1,1.8s-0.1,1-0.1,1.2
		c-0.1,0.2-0.2,0.6-0.3,1.2c-0.1,0.6-0.2,1-0.3,1.2c0,0.2-0.1,0.4-0.2,0.8c-0.2,0.4-0.2,0.7-0.2,0.8l0-11.4c-0.2,0-0.4-0.1-0.7-0.2
		c-0.3-0.1-0.6-0.2-0.9-0.3c-0.3-0.1-0.6-0.2-0.8-0.2c-0.3-0.1-0.4-0.1-0.5,0c-0.1,0.2-0.2,0.4-0.4,0.6c-0.3,0.5-0.4,0.8-0.5,1.1
		c-0.1,0.2-0.2,0.6-0.4,1.1s-0.3,0.9-0.4,1c0,0.1,0,0.2,0,0.4s-0.1,0.4-0.1,0.7c0,0.2-0.1,0.5-0.1,0.7s0,0.3,0,0.4
		c0,0.1-0.1,0.2-0.2,0.4c-0.1,0.2-0.2,0.3-0.2,0.4c-0.2,0.1-0.4,0.3-0.6,0.5c-0.3,0.2-0.5,0.5-0.8,0.8c-0.3,0.3-0.5,0.5-0.8,0.8
		c-0.3,0.2-0.4,0.3-0.5,0.3l-1.5,0.9l-0.3,0l-0.2,0c-0.1,0-0.2-0.1-0.4-0.2c-0.2-0.1-0.3-0.2-0.4-0.3c-0.1-0.1-0.1-0.1-0.2-0.2
		c-0.1-0.2-0.2-0.4-0.2-0.5l0-0.5l0-0.4c0-0.2,0-0.5,0.1-0.9c0.1-0.5,0.2-0.7,0.2-0.8c0.1-0.2,0.3-0.6,0.5-1.1s0.4-1.1,0.6-1.7
		c0.2-0.6,0.4-1.1,0.6-1.7c0.2-0.5,0.3-0.8,0.4-1l0-0.8c-0.2,0-0.5,0-1-0.1c-0.5-0.1-0.9-0.2-1.1-0.3c0-0.1-0.1-0.3-0.2-0.5
		c-0.1-0.2-0.2-0.4-0.2-0.5v-0.1l0-0.4c0-0.1,0-0.3,0.2-0.7c0-0.2,0.1-0.4,0.2-0.5l2.9-2.9c0.1,0,0.2,0,0.4-0.1
		c0.2-0.1,0.4-0.1,0.7-0.2c0.2-0.1,0.5-0.2,0.7-0.2c0.2-0.1,0.3-0.1,0.4-0.2c0-0.1,0.1-0.4,0.4-0.9c0.3-0.5,0.4-0.9,0.5-1.2
		c0-0.3,0.2-0.8,0.4-1.5c0.2-0.7,0.5-1.5,0.8-2.3c0.3-0.8,0.5-1.6,0.7-2.3c0.2-0.7,0.4-1.2,0.5-1.5c0.1-0.1,0.1-0.2,0.2-0.5
		c0.1-0.2,0.1-0.5,0.2-0.7l0.1-0.3c0.1-0.2,0.1-0.4,0.2-0.7c0.1-0.3,0.1-0.5,0.2-0.6c0.1-0.2,0.1-0.5,0.2-0.9
		c0.1-0.4,0.2-0.8,0.3-1.1c0.1-0.4,0.2-0.7,0.3-1c0.1-0.3,0.1-0.5,0.1-0.5c0-0.1,0-0.5,0-1.4s0-1.9,0.1-2.9c0-1.1,0-2,0-2.9
		c0-0.9,0-1.4,0-1.5c0.1-0.1,0.2-0.4,0.3-0.8c0.1-0.4,0.2-0.7,0.3-0.8c0-0.1,0.1-0.3,0.4-0.8c0.3-0.5,0.4-0.8,0.5-0.9
		c0-0.1,0.1-0.3,0.3-0.6c0.2-0.3,0.4-0.5,0.5-0.5c0-0.1,0-0.2,0.1-0.3c0.1-0.1,0.1-0.2,0.2-0.3c0.2-0.2,0.5-0.4,1-0.6
		c0.4-0.3,0.7-0.4,0.8-0.5c0.1-0.1,0.3-0.1,0.5-0.2c0.3-0.1,0.6-0.2,0.8-0.2l0.4,0l0.5,0L498.4,37.2L498.4,37.2z M585.1,62.3l-0.6,0
		l0,5.9l-0.7,0l-0.8-5.5c-0.3,0-0.8,0-1.5-0.1s-1.2-0.2-1.5-0.3c-0.1,0-0.3,0-0.6-0.1c-0.3-0.1-0.5-0.1-0.5-0.2
		c-0.2-0.1-0.5-0.3-1-0.5c-0.4-0.2-0.7-0.4-0.8-0.5l-0.5-0.5c-0.2-0.2-0.3-0.3-0.4-0.4c-0.1-0.1-0.2-0.2-0.3-0.2
		c0-0.1-0.1-0.3-0.3-0.7c-0.2-0.3-0.4-0.6-0.5-0.7c-0.1-0.2-0.2-0.4-0.4-0.9s-0.3-0.7-0.3-0.8c-0.1-0.1-0.2-0.4-0.4-0.8
		s-0.2-0.7-0.2-0.8l0-2.6l0-2.1c0-0.2,0.1-0.6,0.4-1.1c0.3-0.5,0.4-0.9,0.5-1c-0.2,0-0.4,0-0.8-0.1c-0.4,0-0.8-0.1-1.2-0.1
		c-0.4,0-0.8-0.1-1.2-0.1c-0.4,0-0.7-0.1-0.8-0.1c-0.1,0-0.3,0-0.5-0.2c-0.2-0.1-0.4-0.2-0.5-0.3c-0.1,0-0.2-0.1-0.4-0.3
		s-0.3-0.3-0.4-0.3c0-0.1-0.1-0.2-0.2-0.5c-0.1-0.2-0.1-0.3-0.2-0.4l0-1l0-1.1c0-0.1,0-0.3,0.2-0.8c0.1-0.5,0.2-0.8,0.2-0.9
		c0.1-0.2,0.2-0.6,0.4-1c0.2-0.5,0.4-1,0.5-1.5l0.8-2.4c0-0.3,0.3-0.8,0.8-1.5c0.5-0.7,0.8-1.4,0.9-1.8c0.1-0.2,0.3-0.6,0.5-1.2
		c0.3-0.6,0.5-1.3,0.8-2c0.3-0.7,0.6-1.4,0.8-2c0.3-0.6,0.4-1.1,0.5-1.4c0.3-0.6,0.6-1.2,1-1.8s0.9-1.2,1.3-1.8s0.9-1.2,1.3-1.9
		c0.4-0.7,0.7-1.4,0.9-2.2c0.1-0.1,0.2-0.2,0.3-0.5c0.2-0.3,0.3-0.5,0.5-0.8c0.2-0.3,0.4-0.6,0.5-0.9c0.2-0.3,0.3-0.5,0.4-0.7
		c0-0.1,0.1-0.2,0.3-0.6c0.2-0.3,0.3-0.6,0.4-0.8c0.2-0.2,0.4-0.4,0.7-0.8s0.6-0.6,0.7-0.7c0.1-0.2,0.4-0.5,0.8-1
		c0.4-0.4,0.7-0.7,0.8-0.8c0.1,0,0.2-0.1,0.5-0.4c0.3-0.3,0.5-0.4,0.6-0.5c0.1,0,0.2-0.1,0.5-0.2c0.1-0.1,0.2-0.1,0.4-0.2l1.5,0
		l1.4,0l0.9,0.9c0.1,0.1,0.2,0.2,0.4,0.5c0.2,0.3,0.3,0.5,0.4,0.6c0,0.1,0.1,0.4,0.3,0.9s0.3,0.9,0.4,1.2c0.1,0.2,0.3,0.6,0.5,1.2
		c0.3,0.6,0.4,1,0.4,1.2c0,0.1,0,0.3,0.1,0.6c0.1,0.3,0.2,0.6,0.3,0.9c0.1,0.3,0.2,0.6,0.3,0.9c0.1,0.3,0.1,0.5,0.1,0.7
		c0,0.1,0.1,0.4,0.2,0.8c0.1,0.4,0.2,0.8,0.2,1c0.1,0.3,0.2,0.7,0.3,1.3c0.2,0.5,0.3,1.1,0.5,1.7c0.2,0.6,0.3,1.1,0.4,1.5
		c0.1,0.5,0.2,0.7,0.2,0.8c0,0.3,0.1,0.6,0.4,1c0.2,0.4,0.4,0.8,0.4,1.1c0.1,0.4,0.2,0.9,0.4,1.5c0.1,0.6,0.2,1,0.2,1.1l0,2.8
		c0,0.1-0.1,0.2-0.2,0.4c-0.1,0.2-0.2,0.3-0.3,0.4c-0.1,0.2-0.3,0.5-0.6,0.9c-0.3,0.5-0.5,0.7-0.5,0.8c-0.1,0.1-0.4,0.3-0.8,0.7
		c-0.4,0.3-0.7,0.6-0.8,0.7c-0.1,0-0.3,0.1-0.7,0.2s-0.6,0.2-0.7,0.2l-0.2,0l-0.2,0c-0.1,0-0.2-0.1-0.4-0.2
		c-0.2-0.1-0.3-0.2-0.4-0.2c-0.1-0.1-0.2-0.2-0.2-0.4c-0.1-0.3-0.2-0.5-0.2-0.5c-0.1-0.1-0.2-0.3-0.3-0.6c-0.1-0.3-0.2-0.5-0.3-0.5
		c0-0.2-0.1-0.5-0.2-1c-0.1-0.4-0.2-0.7-0.2-0.8c0-0.2,0-0.4,0-0.8c0-0.4-0.1-0.8-0.1-1.3c-0.1-0.5-0.1-0.9-0.1-1.3
		c0-0.4,0-0.7,0-0.8c-0.1-0.3-0.2-0.6-0.2-0.8c-0.1-0.3-0.1-0.5-0.2-0.7c-0.1-0.2-0.1-0.4-0.1-0.5c-0.1-0.5-0.3-1.1-0.7-1.9
		c-0.3-0.7-0.6-1.2-0.7-1.5c-0.1-0.2-0.2-0.7-0.4-1.4c-0.2-0.7-0.3-1.2-0.4-1.5c-0.1-0.3-0.2-0.6-0.4-1c-0.1-0.4-0.3-0.8-0.4-1.2
		c-0.2-0.5-0.4-0.9-0.5-1.5l-0.5,0c0,0.2,0,0.5,0,0.9c0,0.5,0,1,0,1.5c0,0.5,0,1,0,1.5c0,0.5,0,0.8,0,0.9c0,0.2-0.1,0.6-0.2,1.2
		c-0.1,0.6-0.2,1-0.3,1.1c0-0.1-0.1-0.3-0.2-0.7c-0.1-0.4-0.2-0.6-0.2-0.7c-0.1-0.2-0.1-0.4-0.2-0.7c-0.1-0.3-0.1-0.7-0.1-1.1
		c0-0.4-0.1-0.8-0.1-1.1c-0.1-0.4-0.1-0.6-0.2-0.8l-0.7,1.6l0,7.6l-0.5,0.7l-0.6-0.7l0-6.3c-0.1,0.1-0.2,0.3-0.4,0.5
		c-0.2,0.3-0.4,0.5-0.6,0.8c-0.2,0.3-0.4,0.6-0.5,0.8c-0.2,0.3-0.3,0.5-0.3,0.6c-0.1,0.1-0.2,0.4-0.5,1c-0.3,0.5-0.5,1.2-0.8,1.9
		s-0.6,1.4-1,2.2c-0.3,0.7-0.6,1.3-0.7,1.7c-0.1,0.2-0.2,0.4-0.4,0.7c-0.2,0.2-0.3,0.5-0.4,0.7c-0.1,0.3-0.2,0.7-0.4,1.2
		c-0.2,0.5-0.4,1-0.5,1.5c-0.2,0.5-0.3,1-0.5,1.4c-0.2,0.4-0.3,0.7-0.3,0.7c0,0.1,0.1,0.4,0.2,0.8c0.1,0.4,0.2,0.7,0.2,0.8
		c0.2,0,0.5,0,1,0c0.5,0,1,0,1.5,0c0.5,0,1.1,0,1.5,0c0.5,0,0.9,0,1.1-0.1c0.1,0,0.2,0,0.5,0s0.6-0.1,0.9-0.1c0.3-0.1,0.7-0.1,1-0.1
		c0.3,0,0.5,0,0.6,0c0.2-0.1,0.5-0.1,0.8-0.2c0.4-0.1,0.7-0.1,1.1-0.2c0.4-0.1,0.7-0.1,0.9-0.2c0.3-0.1,0.4-0.1,0.5-0.1l3.6,0l3,0
		c0.2,0.1,0.6,0.3,1.2,0.5s1.1,0.4,1.4,0.5c0.1,0.1,0.4,0.4,0.8,0.8c0.4,0.4,0.7,0.8,0.8,1c0.1,0.2,0.2,0.4,0.4,0.8
		c0.2,0.4,0.3,0.7,0.4,0.8l0,4.6c0,0.1-0.1,0.2-0.2,0.5c-0.1,0.3-0.2,0.5-0.2,0.6c-0.1,0.1-0.1,0.3-0.2,0.5s-0.2,0.5-0.4,0.7
		s-0.3,0.5-0.5,0.8c-0.2,0.3-0.3,0.5-0.3,0.6c-0.1,0.2-0.1,0.3-0.2,0.5c-0.1,0.1-0.2,0.2-0.3,0.3c-0.1,0.1-0.1,0.2-0.2,0.3
		c-0.2,0.2-0.5,0.5-0.8,0.9c-0.3,0.4-0.5,0.6-0.6,0.7c0,0.1-0.1,0.2-0.3,0.4c-0.2,0.2-0.3,0.3-0.4,0.4c-0.1,0.1-0.3,0.3-0.5,0.5
		c-0.3,0.2-0.5,0.4-0.8,0.7s-0.5,0.4-0.8,0.6c-0.2,0.2-0.4,0.3-0.4,0.3c-0.1,0.1-0.3,0.3-0.7,0.5c-0.3,0.2-0.6,0.4-0.7,0.5
		c-0.1,0-0.3,0.1-0.5,0.3c-0.3,0.2-0.6,0.4-0.9,0.5c-0.3,0.2-0.6,0.4-0.9,0.5c-0.3,0.2-0.4,0.3-0.5,0.3c-0.1,0-0.2,0.1-0.3,0.2
		c-0.1,0.1-0.1,0.1-0.1,0.2l0,1.2c0,0.2,0,0.5,0.1,1.1c0.1,0.6,0.1,1.2,0.1,1.9c0,0.7,0.1,1.3,0.1,1.9s0.1,0.9,0.1,1l0,5.5
		c0,0.1,0,0.3-0.1,0.6c0,0.3-0.1,0.6-0.1,0.9c0,0.3-0.1,0.6-0.1,0.9c0,0.3-0.1,0.4-0.1,0.5c-0.1-0.2-0.2-0.5-0.3-1
		c-0.1-0.5-0.2-0.9-0.3-1.1c-0.1-0.4-0.1-1.1-0.2-2.2c-0.1-1.1-0.2-2.2-0.2-3.4s-0.2-2.3-0.2-3.4c-0.1-1.1-0.1-1.8-0.1-2.2
		L585.1,62.3L585.1,62.3z M552,60.5c0.1,0.4,0.1,0.7,0.2,1.1c0.1,0.4,0.1,0.7,0.1,0.8c0.1,0.1,0.2,0.4,0.3,0.9
		c0.1,0.5,0.2,0.8,0.2,0.9l0,0.8c0,0.1,0,0.3-0.2,0.7c-0.1,0.3-0.2,0.6-0.3,0.7c0,0.1-0.1,0.2-0.3,0.5c-0.2,0.3-0.3,0.5-0.4,0.6
		l-0.9,0.9c-0.1,0.1-0.2,0.2-0.5,0.4s-0.5,0.3-0.6,0.4c-0.1,0.1-0.2,0.2-0.3,0.2c-0.1,0-0.2,0.1-0.3,0.1c-0.2,0.1-0.3,0.1-0.3,0.1
		c-0.2,0.1-0.3,0.1-0.4,0.2c-0.1,0.1-0.1,0.1-0.2,0.1l-0.2,0c-0.2,0-0.4,0-0.5-0.1c-0.2-0.1-0.3-0.1-0.4-0.2c-0.1,0-0.2,0-0.2-0.1
		c-0.1-0.1-0.2-0.2-0.2-0.3c0-0.1-0.1-0.3-0.2-0.7c-0.1-0.4-0.2-0.7-0.3-1c-0.1-0.3-0.1-0.8-0.3-1.4c-0.1-0.6-0.2-1.3-0.4-1.9
		c-0.1-0.7-0.2-1.3-0.4-1.9c-0.1-0.6-0.2-0.9-0.3-1.1c0-0.1,0-0.2-0.1-0.4c-0.1-0.2-0.1-0.5-0.1-0.8c0-0.3-0.1-0.6-0.1-0.9
		c-0.1-0.3-0.1-0.6-0.1-0.8c0-0.2,0-0.4-0.1-0.8c-0.1-0.4-0.1-0.7-0.2-1.1s-0.1-0.7-0.2-1c-0.1-0.3-0.1-0.5-0.1-0.5
		c0-0.3,0-0.8,0-1.4c0-0.6-0.1-1.3-0.1-2c-0.1-0.7-0.1-1.3-0.1-1.9c0-0.5,0-0.9,0-1l0-9.4l0-9.3c0-0.1,0-0.3,0.2-0.6
		s0.2-0.5,0.2-0.5c0.1-0.1,0.2-0.3,0.3-0.5c0-0.2,0.1-0.3,0.2-0.4c0.1-0.1,0.3-0.3,0.5-0.5c0.2-0.2,0.4-0.4,0.6-0.7
		c0.2-0.2,0.4-0.4,0.6-0.6s0.3-0.3,0.4-0.3c0.1-0.1,0.4-0.2,0.8-0.4c0.4-0.2,0.7-0.3,0.8-0.4l0.7,0l0.7,0c0.1,0.1,0.1,0.2,0.2,0.2
		l0.2,0.2c0.1,0.1,0.1,0.4,0.2,0.8c0.1,0.4,0.1,0.7,0.1,0.8l0.1,20.5c0.2-0.1,0.4-0.3,0.8-0.5c0.4-0.2,0.8-0.4,1.3-0.6
		c0.4-0.2,0.8-0.4,1.2-0.6c0.4-0.2,0.7-0.3,0.8-0.4c0.1-0.1,0.3-0.3,0.7-0.5c0.3-0.2,0.6-0.4,0.7-0.5c0.2-0.2,0.5-0.4,0.8-0.7
		c0.4-0.3,0.7-0.6,1-0.9c0.3-0.3,0.6-0.5,0.9-0.7c0.3-0.2,0.4-0.3,0.4-0.3c0.2-0.2,0.6-0.6,1.1-1.1c0.5-0.5,1.1-1.1,1.7-1.7
		c0.6-0.6,1.1-1.2,1.7-1.7c0.5-0.5,0.8-0.9,1-1.2c0.1,0,0.1-0.1,0.2-0.3c0.1-0.2,0.2-0.3,0.3-0.3c0-0.1,0.1-0.3,0.2-0.7
		c0.1-0.4,0.2-0.6,0.2-0.7c0.1-0.1,0.1-0.1,0.1-0.2c0-0.1,0-0.2,0.1-0.2c0.1-0.1,0.1-0.2,0.2-0.3c0.2-0.3,0.4-0.6,0.7-1
		c0.3-0.4,0.5-0.6,0.7-0.7c0.1-0.1,0.4-0.4,0.9-0.8c0.5-0.4,0.9-0.8,1.2-1l0.3-0.2c0.2-0.1,0.3-0.2,0.4-0.2c0.2-0.1,0.4-0.2,0.7-0.3
		c0.3-0.1,0.6-0.1,0.7-0.1l0.3-0.1c0.1,0,0.1,0,0.2,0c0.1,0,0.1,0,0.2,0l0.1,0c0.4,0,0.5,0.1,0.5,0.4l0,2.1c0,0.1-0.1,0.2-0.2,0.4
		c-0.1,0.2-0.2,0.4-0.3,0.7c-0.1,0.3-0.3,0.5-0.4,0.8s-0.3,0.4-0.3,0.5c-0.1,0.2-0.4,0.6-0.8,1.3c-0.4,0.6-0.8,1.1-1,1.4
		c-0.1,0.2-0.3,0.5-0.8,1c-0.5,0.5-0.8,0.9-0.9,1.1c-0.2,0.2-0.5,0.6-0.9,1.1c-0.5,0.5-1,1.1-1.5,1.6c-0.5,0.6-1,1.1-1.5,1.6
		c-0.5,0.5-0.8,0.9-0.9,1c0.1,0.1,0.3,0.3,0.6,0.5c0.3,0.2,0.5,0.4,0.6,0.5c0.1,0.1,0.3,0.2,0.5,0.4c0.2,0.2,0.4,0.4,0.7,0.6
		c0.2,0.2,0.4,0.4,0.6,0.7c0.2,0.2,0.3,0.3,0.3,0.4c0.1,0.1,0.3,0.4,0.7,1.2c0.4,0.7,0.6,1.3,0.9,1.7c0.1,0.2,0.3,0.6,0.6,1.2
		c0.4,0.7,0.7,1.4,1.1,2.1c0.4,0.7,0.8,1.4,1.1,2.1c0.3,0.7,0.6,1.1,0.7,1.2c0,0.1,0.1,0.3,0.3,0.7c0.2,0.3,0.4,0.7,0.7,1.2
		c0.3,0.4,0.5,0.9,0.8,1.3c0.3,0.4,0.5,0.8,0.7,1c0.1,0.1,0.3,0.3,0.5,0.6c0.2,0.3,0.4,0.5,0.5,0.6c0.1,0.2,0.3,0.5,0.6,0.9
		c0.3,0.4,0.5,0.7,0.5,0.9c0.2,0.3,0.5,0.7,1,1.2c0.4,0.6,0.7,0.8,0.8,0.8c0.2,0.2,0.5,0.6,1,1.1l3.3,3.2c0.5,0.5,0.9,0.8,1.2,1
		c0,0.1,0.1,0.2,0.2,0.4l0,0.1c0.1,0.2,0.2,0.3,0.2,0.4l0,0.5c-0.1,0.2-0.2,0.4-0.4,0.8c-0.2,0.4-0.3,0.7-0.3,0.8
		c-0.1,0.1-0.3,0.3-0.5,0.5c-0.2,0.3-0.5,0.5-0.8,0.8c-0.3,0.3-0.6,0.5-0.8,0.7c-0.3,0.2-0.5,0.4-0.6,0.5l-0.5,0.2
		c-0.3,0.1-0.5,0.2-0.7,0.2l-0.9,0c-0.2-0.1-0.3-0.1-0.4-0.2c-0.1,0-0.1,0-0.1,0c0,0-0.1,0-0.1,0c-0.1,0-0.1,0-0.2-0.1
		c-0.1-0.2-0.4-0.5-0.8-0.8s-0.7-0.5-0.8-0.6c-0.2-0.1-0.6-0.3-1.1-0.9c-0.5-0.5-0.9-0.9-1-1.2c-0.1-0.1-0.3-0.3-0.5-0.5
		c-0.3-0.3-0.5-0.5-0.8-0.8c-0.3-0.3-0.5-0.6-0.8-0.8c-0.3-0.3-0.4-0.4-0.5-0.5c-0.1-0.1-0.2-0.3-0.4-0.6c-0.2-0.3-0.5-0.6-0.7-1
		s-0.5-0.7-0.8-1.1c-0.3-0.4-0.4-0.6-0.5-0.8c-0.1-0.1-0.3-0.3-0.5-0.6c-0.2-0.3-0.4-0.5-0.5-0.5c-0.2-0.3-0.4-0.7-0.9-1.4
		c-0.4-0.7-0.8-1.4-1.2-2.2s-0.8-1.5-1.2-2.2c-0.4-0.7-0.7-1.1-0.9-1.4l-0.7-0.4l0,2.1l-0.5,0c-0.1-0.2-0.1-0.4-0.2-0.6
		c-0.1-0.2-0.1-0.4-0.2-0.6c-0.1-0.2-0.1-0.3-0.2-0.5c0-0.1,0-0.3-0.1-0.7c-0.1-0.4-0.1-0.7-0.1-1.1c0-0.4-0.1-0.8-0.1-1.1
		s-0.1-0.6-0.1-0.7c0-0.1-0.1-0.3-0.2-0.6c-0.1-0.3-0.2-0.6-0.2-0.8l-0.5-0.7c-0.1-0.1-0.3-0.3-0.5-0.5c-0.2-0.3-0.4-0.4-0.5-0.4
		l0,0.9c0.1,0.2,0.1,0.7,0.2,1.6c0.1,0.8,0.1,1.8,0.2,2.7c0.1,1,0.1,1.9,0.1,2.8s0,1.4,0,1.6l0,11.6l-0.5,2.1l-0.4-0.4
		c0,0,0-0.1-0.1-0.4c-0.1-0.3-0.1-0.6-0.1-0.9c0-0.4-0.1-0.7-0.1-1.1s0-0.6,0-0.8c-0.1-0.3-0.1-0.8-0.2-1.7c-0.1-0.9-0.1-2-0.2-3.2
		c-0.1-1.2-0.1-2.5-0.2-3.9c-0.1-1.4-0.2-2.7-0.2-3.9c-0.1-1.2-0.1-2.3-0.1-3.2c0-0.9,0-1.5,0-1.8c-0.1-0.1-0.1-0.3-0.2-0.7
		c-0.1-0.3-0.1-0.7-0.1-1c0-0.3-0.1-0.7-0.1-1c-0.1-0.3-0.1-0.5-0.2-0.6c-0.1,0-0.3,0-0.6-0.1c-0.3-0.1-0.5-0.1-0.5-0.1
		c-0.1,0-0.4,0.1-0.8,0.2c-0.2,0.1-0.4,0.1-0.5,0.1c-0.1,0-0.4,0.1-1,0.3c-0.6,0.2-1.1,0.3-1.5,0.4c-0.1,0.1-0.4,0.2-0.8,0.4
		c-0.4,0.2-0.7,0.3-0.8,0.4c0,0.2,0,0.4,0.1,0.7c0.1,0.3,0.1,0.6,0.1,0.9c0,0.3,0.1,0.6,0.1,0.9c0.1,0.3,0.1,0.5,0.1,0.6
		c0.1,0.3,0.2,0.7,0.3,1.3s0.2,1,0.3,1.1c0,0.2,0,0.4,0.1,0.8c0.1,0.3,0.1,0.6,0.2,0.9L552,60.5L552,60.5z M493.1,64.8
		c-0.1,0.3-0.3,0.7-0.5,1.4c-0.3,0.6-0.4,1-0.4,1.2c0,0.1,0,0.3,0,0.5s0,0.4,0,0.5l0.5,0c0.2-0.1,0.5-0.2,1.1-0.3
		c0.6-0.1,0.9-0.2,1-0.3l0-0.2l0-0.2c0-0.2-0.1-0.6-0.4-1.2c-0.2-0.6-0.4-1.1-0.4-1.3c-0.1,0-0.2-0.1-0.3-0.3
		c-0.1-0.2-0.1-0.3-0.2-0.3C493.5,64.1,493.1,64.8,493.1,64.8z M580.3,49.8c0,0.1,0,0.3,0,0.5c0,0.2,0,0.5,0.1,0.7
		c0.1,0.3,0.1,0.5,0.2,0.8c0,0.2,0.1,0.5,0.3,0.9c0.2,0.4,0.4,0.7,0.6,0.9c0,0.1,0.2,0.3,0.7,0.8c0.4,0.5,0.8,0.8,1,0.9
		c0.1,0,0.2,0.1,0.4,0.2c0.2,0.1,0.3,0.2,0.4,0.2l2.3,0l1.9,0c0.1,0,0.2-0.1,0.4-0.2s0.5-0.2,0.7-0.3c0.3-0.1,0.5-0.3,0.8-0.4
		c0.3-0.2,0.4-0.3,0.5-0.4c0.1-0.1,0.3-0.2,0.5-0.4s0.4-0.3,0.5-0.4c0.1-0.2,0.2-0.5,0.4-0.9c0.2-0.4,0.3-0.7,0.3-0.9l0-1l0-1.1
		c0-0.1-0.1-0.4-0.4-0.8c-0.2-0.4-0.4-0.7-0.4-0.8c-0.1-0.1-0.3-0.2-0.7-0.4c-0.3-0.2-0.6-0.3-0.7-0.3c-0.1-0.1-0.4-0.2-0.9-0.3
		c-0.6-0.1-1-0.1-1.2-0.1l-1,0l-1.1,0c-0.3,0-0.6,0-1.1,0c-0.5,0-0.9,0.1-1.4,0.1c-0.5,0-0.9,0.1-1.3,0.1c-0.4,0.1-0.6,0.1-0.7,0.2
		c-0.1,0-0.3,0.1-0.5,0.2c-0.2,0.1-0.3,0.1-0.4,0.2c0,0.2,0,0.6-0.1,1.1C580.3,49.3,580.3,49.7,580.3,49.8L580.3,49.8z"/>
</g>
</svg>
