<?xml version="1.0" encoding="utf-8"?>
<!-- Generator: Adobe Illustrator 21.1.0, SVG Export Plug-In . SVG Version: 6.00 Build 0)  -->
<svg version="1.1" id="Layer_1" xmlns="http://www.w3.org/2000/svg" xmlns:xlink="http://www.w3.org/1999/xlink" x="0px" y="0px"
	 viewBox="0 0 759.6 159.3" style="enable-background:new 0 0 759.6 159.3;" xml:space="preserve">
<style type="text/css">
	.st0{fill:#FF0000;}
	.st1{fill:#F0373F;}
	.st2{fill:#F5A023;}
	.st3{fill:#7487BF;}
	.st4{fill:#019EE3;}
	.st5{fill:#DA72A3;}
</style>
<g>
	<path class="st0" d="M124.9,40.2c1.2-0.1,2.5-0.1,3.7-0.1c27.2,0,50.5,26.3,52.3,39.8c0.2,1.4,0.3,2.7,0.4,3.7
		C180.9,47,123.9,0,78,0C42.6,0,26.1,14.3,20.7,30.4c-8.1,20.3,2.6,49.2,27.7,69.9c2.6,2.2,5.3,4.1,8,6c-1.2,0.1-2.5,0.1-3.7,0.1
		C25.5,106.4,2.1,80,0.4,66.6c-0.2-1.4-0.3-2.7-0.4-3.7c0.4,36.6,57.4,83.6,103.2,83.6c35.4,0,51.9-14.3,57.4-30.4
		c8.1-20.3-2.6-49.2-27.7-69.9C130.3,44.1,127.6,42.1,124.9,40.2z M73.9,101C53.7,84.4,46.9,60.1,58.3,46.3
		c11.4-13.8,37.2-12.2,57.8,3.9c20.5,16,28.4,40.2,17.9,54.7c4.4-8.7-0.4-21.8-11.7-30.6c-12.2-9.6-27.3-10.5-34-2.3
		c-6.7,8.2-2.7,22.7,9.1,32.5c9.1,7.6,20.3,10.3,28.3,7.5C112.2,119.1,90.9,115.1,73.9,101z"/>
	<g>
		<path class="st1" d="M491.5,73.8c-4.5-1.3-9.6,5-13.9,14.7c-3.9,16.1-12.4,40-13,56.4c-0.2,7.3,6.5,9.4,11.1,11
			c14.5,5.1,22.9,0.1,27.2-5.1c3.1-3.7-0.2-6.9-4-5.7c-5.6,1.6-12.3,2.8-13.7-2.6c-1.5-5.9,6.7-30.2,12.4-48.3
			C500.6,84.3,503.3,76.1,491.5,73.8z"/>
		<path class="st2" d="M416.5,102.4c-9.8,1-29.3,6.2-29.3,31.4c0,1.2-3.6,28.4,31.6,25.3c35.1-3.2,41.1-25.3,41.1-25.3
			s8.7-29.2-12.6-28.4c-13,0.5-19,6.3-19,6.3s8.7,1.7,10.6,7.9c3.6,11.8,2.2,31.8-16.9,30c-19.2-1.8-9.8-27.2-3.8-40
			C420.3,105.1,419.8,102.1,416.5,102.4z"/>
		<path class="st3" d="M533.4,102.4c-9.8,1-29.3,6.2-29.3,31.4c0,1.2-3.5,28.4,31.6,25.3c35.1-3.2,41.1-25.3,41.1-25.3
			s8.7-29.2-12.6-28.4c-13,0.5-19,6.3-19,6.3s8.7,1.7,10.6,7.9c3.6,11.8,2.2,31.8-16.9,30c-19.2-1.8-9.8-27.2-3.8-40
			C537.2,105.1,536.7,102.1,533.4,102.4z"/>
		<path class="st4" d="M301.9,121.1c-1.6-31.2,41.5-45.2,56.9-46.4c15.4-1.2,31.6,2.2,31.6,2.2s-2.4,30.8-9.5,31.6
			c-7.1,0.8-5.5-23.3-19-22.1c-24.6,2.2-34.5,29-34.7,37.9c-0.1,4.3,1.2,23.7,19,22.1c17.8-1.6,21.7-11.1,25.3-12.6
			c3.6-1.6,10.4-4.7,9.5,3.2c-2,17.4-34.7,22.1-34.7,22.1S304,161.4,301.9,121.1z"/>
		<path class="st5" d="M592.5,155.9c-15,0.8-6.7-17.4-3.2-28.4c3.6-11.1,2.9-23.2,15.8-22.1c14.2,1.2,3.2,19,3.2,19
			s21.6-23.7,41.1-22.1c4.7,0.4-9.5,31.6-9.5,31.6s-3.6-11.5-12.6-9.5C601.2,130,607.6,155.1,592.5,155.9z"/>
	</g>
	<g>
		<polygon points="192.7,50.5 202.3,10.1 212,2.5 221.6,2.5 212,42.8 221.6,37 229.3,8.3 235.1,2.5 248.6,2.5 239,42.8 248.6,35.1 
			254.4,10.1 262.1,2.5 273.8,2.5 264.1,40.9 252.5,50.5 		"/>
		<polygon points="583.6,50.5 588.5,27.4 597.3,19.1 608.5,19.1 601.9,44.4 611.6,38.6 614,25.5 620.5,19.1 634,19.1 627.4,44.4 
			636.5,38.3 639.1,27.4 647.5,19.1 657.6,19.1 651.9,40.9 638.8,50.5 		"/>
		<path d="M508.3,50.5l9.7-9.6h41.5c0,0,3.6,1.1,5.6-3.5c1.9-4.2-1.8-4.2-1.8-4.2h-19.3c0,0-5.5-1.3-5.6-8.1
			c-0.1-16.7,13.6-21.1,13.6-21.1h40.6l-8.1,8h-21.3c0,0-6.8,1.9-6.9,7.6c-0.1,2.6,3.1,2,3.1,2h17.3c0,0,10,1.7,7.7,12.5
			c-3,14.2-13.5,16.3-13.5,16.3L508.3,50.5L508.3,50.5z"/>
		<path d="M475.3,50.5h17.3l5.3-19.9c0.6-2.3,6.7-4.9,5.1-4.7c-1.6,0.3,5.5-1.1,5.5-1.1s2.2,0.6,3.4,2.2c1.2,1.5-1.1,3.8-1.4,5.5
			c-0.3,1.8,1.9,1.9,1.9,1.9h9.7c0,0,5.2-1.9,6.6-3.9c1.4-2,3.1-4,3.1-5.7S528,21,528,21l-3.9-1.9h-28.9c0,0-13.9,7.9-15.5,9.6
			C479.1,29.2,475.3,50.5,475.3,50.5z"/>
		<path d="M272.7,28.5c-1.3,1.5-5.7,15.1-4.7,17.3c1,2.1,6.4,4.7,6.4,4.7h28.2c0,0,13.2-8.2,14.2-9.4c1-1.2,4.7-14.3,4.7-15.7
			c0-1.4-3.2-6.3-3.2-6.3h-33C285.3,19.1,274.1,26.9,272.7,28.5z M294.7,25.3h8.7c0,0-1,10.4-3.2,13.4c-2.2,2.9-7.1,5.5-7.1,5.5
			s-5.5,0.6-6.2,0c-0.8-0.6-0.2-6.3-0.2-6.3s0.7-6.1,1.8-7.9C289.4,28.3,294.7,25.3,294.7,25.3z"/>
		<path d="M377.9,28.5c-1.3,1.5-5.7,15.1-4.7,17.3c1,2.1,6.3,4.7,6.3,4.7h39.3c0,0,1.3-6.2,2.9-12.6c1.5-5.9,3.4-15,3.4-15.7
			c0-1.4,9.8-13.7,9.8-13.7h-17.1l-8.6,10.6h-18.7C390.5,19.1,379.3,26.9,377.9,28.5z M399.9,25.3h8.6c0,0-0.9,10.4-3.2,13.4
			c-2.1,2.9-7.1,5.5-7.1,5.5s-5.5,0.6-6.3,0c-0.7-0.6-0.2-6.3-0.2-6.3s0.7-6.1,1.8-7.9C394.6,28.3,399.9,25.3,399.9,25.3z"/>
		<path d="M317.2,50.5l8.9-31.4h37.7c0,0,5,0.5,6.7,3.3c1.8,2.8,1.2,7.6,1.2,7.6l-5.1,20.4h-15.7c0,0,1.8-10,3.6-17.3
			c1.8-7.3-3.2-7.9-3.2-7.9h-9.4l-5.4,18.8c0,0-4.7,5.5-6.7,6.3H317.2z"/>
		<path d="M703.9,50.5l10-31.4h37.7c0,0,4.9,0.5,6.7,3.3c1.8,2.8,1.2,7.6,1.2,7.6l-5.3,20.4H737c0,0,2.9-8.4,4.7-15.7
			c1.8-7.2-2.6-9.4-2.6-9.4h-9.4l-5.3,18.8c0,0-4.3,5.5-6.3,6.3L703.9,50.5L703.9,50.5L703.9,50.5z"/>
		<path d="M429.7,28.5c-1.4,1.5-5.6,15.1-4.7,17.3c0.9,2.1,6.3,4.7,6.3,4.7h28.2c0,0,5.6-3.5,9.8-6.3c0,0-24,0.2-25.5,0
			c-0.7-0.1-0.4-3-0.4-4.7h19.3c0,0,3.7-0.8,9.3-5.4c5.6-4.6,6.3-5.1,6.3-8.7c0-3.6-3.2-6.3-3.2-6.3h-33
			C442.3,19.1,431.1,26.9,429.7,28.5z M451.8,25.3h12.7c0,0-1.4,4.8-8.3,7.9h-10.6c-1-2.7,1.5-4.9,2.9-6.1
			C449.9,25.8,451.8,25.3,451.8,25.3z"/>
		<path d="M683.5,50.5c0,0,5.3-16.9,7-22.3c0.8-2.9-1.1-2.8-4.8-2.8c-3.7,0-6.4,0.8-11.6,9.4c-6,10,8.9,12.8,8.9,12.8l-1.1,2.9
			h-17.3c0,0-9.4,0.4-9.4-11c0-14,17.9-20.4,17.9-20.4h37.7l-10,31.4L683.5,50.5L683.5,50.5L683.5,50.5z"/>
	</g>
</g>
</svg>
