<?xml version="1.0" encoding="utf-8"?>
<!-- Generator: Adobe Illustrator 21.1.0, SVG Export Plug-In . SVG Version: 6.00 Build 0)  -->
<svg version="1.1" id="Ebene_1" xmlns="http://www.w3.org/2000/svg" xmlns:xlink="http://www.w3.org/1999/xlink" x="0px" y="0px"
	 viewBox="0 0 290.5 85.8" enable-background="new 0 0 290.5 85.8" xml:space="preserve">
<g>
	<path fill="#D61616" d="M253.7,70.5H38.5c-19.4,0-35.2-15.8-35.2-35.2S19.1,0,38.5,0h215.1c19.4,0,35.2,15.8,35.2,35.2
		C288.9,54.6,273.1,70.5,253.7,70.5z M38.5,8.3c-14.8,0-26.9,12.1-26.9,26.9s12.1,26.9,26.9,26.9h215.1c14.8,0,26.9-12.1,26.9-26.9
		s-12-26.9-26.8-26.9H38.5z"/>
	<path fill="#D61616" d="M66.1,51.6V19h-9.8v22.7L41.9,19H31.4v32.5h9.8V28.1l15.2,23.5H66.1z"/>
	<path fill="#D61616" d="M82,51.6v-22h-9.8v22H82z"/>
	<path fill="#D61616" d="M82,24.9V19h-9.8v5.9H82z"/>
	<path id="_x33_162" fill="#D61616" d="M116.3,51.6V36.4c0-3.2-6.1-7.6-9.3-7.6h-3c-2.2,0-4.6,2-6.8,2.9v-2.2h-9.8v22h9.8V36.4
		c0-1.5,3.4-3.2,4.9-3.2s4.2,1.7,4.2,3.2v15.2L116.3,51.6L116.3,51.6z"/>
	<path id="_x33_162_1_" fill="#D61616" d="M198.1,52.3V37.2c0-3.2-6.1-7.6-9.3-7.6h-2.9c-2.2,0-4.6,2-6.8,2.9v-2.2h-9.8v22h9.8V37.2
		c0-1.5,3.4-3.2,4.9-3.2s4.2,1.7,4.2,3.2v15.2L198.1,52.3L198.1,52.3z"/>
	<path fill="#D61616" d="M132.1,51.6v-22h5.1v-2.9h-5.1V22h-10v4.6H117v2.9h5.1v22L132.1,51.6L132.1,51.6z"/>
	<path fill="#D61616" d="M151,28.8c-7.8,0-14.4,5.4-14.4,12c0,6.8,6.6,12.2,14.4,12.2c6.8,0,12.5-3.9,13.9-9h-10v2.9
		c0,2.4-1.7,3.2-3.9,3.2s-3.7-0.7-3.7-3.2v-6.1h18.1C165.4,34.2,159,28.8,151,28.8z M151,31c2.2,0,3.9,1.5,3.9,3.9v2.2h-7.6v-2.2
		C147.3,32.5,148.8,31,151,31z"/>
	<path fill="#D61616" d="M247.3,28.8c-8.1,0-14.4,5.4-14.4,12c0,6.8,6.4,12.2,14.4,12.2c7.8,0,14.4-5.4,14.4-12.2
		C261.7,34.2,255.1,28.8,247.3,28.8z M247.3,31c2.2,0,3.7,1.5,3.7,3.9v12c0,2.4-1.5,3.2-3.7,3.2c-2.4,0-3.9-0.7-3.9-3.2v-12
		C243.4,32.5,244.9,31,247.3,31z"/>
	<path fill="#D61616" d="M219.2,19v12c0,0-2.9-2.2-6.8-2.2c-6.1,0-11.2,5.4-11.2,11.2c0,6.1,5.1,12.2,11.2,12.2
		c3.9,0,6.8-1.5,6.8-1.5v0.7h9.8V19H219.2z M215.5,32.5c2.2,0,3.7,1.7,3.7,3.9v9c0,2.2-1.5,2.9-3.7,2.9c-2.4,0-3.9-0.7-3.9-2.9v-9
		C211.6,34.2,213.1,32.5,215.5,32.5z"/>
	<g>
		<path fill="#D61616" d="M262.9,29.2c-2.8,0-5-2.3-5-5c0-3,2.2-5.3,5-5.3c2.7,0,5,2.4,5,5.3C268,26.9,265.6,29.2,262.9,29.2z
			 M262.9,19.7c-2.4,0-4.3,1.9-4.3,4.5c0,2.3,1.9,4.3,4.3,4.3c2.2,0,4.3-2,4.3-4.3C267.2,21.8,265.2,19.7,262.9,19.7z M263.8,26.3
			l-0.9-1.5h-1.1v1.3H261v-4.5h2.1c1,0,1.5,0.8,1.5,1.6c0,0.6-0.3,1.2-0.9,1.5l0.7,1.2L263.8,26.3z M261.9,24h1.3
			c0.2,0,0.4-0.1,0.5-0.2s0.2-0.4,0.2-0.6c0-0.3-0.1-0.8-0.7-0.8h-1.3V24L261.9,24z"/>
	</g>
</g>
<g>
	<path d="M24.5,85.8h-9.1c-2.6,0-3.9-1.3-3.9-3.9v-7.8h13v2.6H14.1v1.9h10.4v2.6H14.1v0.7c0,0.9,0.4,1.3,1.3,1.3h9.1V85.8z"/>
	<path d="M25.8,85.8V74.1h9.1c2.6,0,3.9,1.3,3.9,3.9v7.8h-2.6V78c0-0.9-0.4-1.3-1.3-1.3h-6.5v9.1C28.4,85.8,25.8,85.8,25.8,85.8z"/>
	<path d="M40.1,74.1h13v2.6h-5.2v9.1h-2.6v-9.1h-5.2V74.1L40.1,74.1z"/>
	<path d="M67.4,85.8h-9.1c-2.6,0-3.9-1.3-3.9-3.9v-7.8h13v2.6H57v1.9h10.4v2.6H57v0.7c0,0.9,0.4,1.3,1.3,1.3h9.1V85.8L67.4,85.8z"/>
	<path d="M71.3,81.2v4.6h-2.6V74.1h9.1c2.6,0,3.9,1.2,3.9,3.6c0,1.1-0.2,2-0.6,2.5c0.4,0.6,0.6,1.4,0.6,2.4v3.3h-2.6v-3.3
		c0-0.9-0.4-1.3-1.3-1.3L71.3,81.2L71.3,81.2z M71.3,78.6h7.8v-1.9h-7.8V78.6z"/>
	<path d="M83,74.1h13v2.6h-5.2v9.1h-2.6v-9.1H83V74.1L83,74.1z"/>
	<path d="M99.9,82.5v3.3h-2.6V78c0-2.6,1.3-3.9,3.9-3.9h5.2c2.6,0,3.9,1.3,3.9,3.9v7.8h-2.6v-3.3H99.9z M107.7,79.9v-2
		c0-0.9-0.4-1.3-1.3-1.3h-5.2c-0.9,0-1.3,0.4-1.3,1.3v2H107.7z"/>
	<path d="M111.6,85.8V74.1h2.6v11.7C114.2,85.8,111.6,85.8,111.6,85.8z"/>
	<path d="M115.5,85.8V74.1h9.1c2.6,0,3.9,1.3,3.9,3.9v7.8h-2.6V78c0-0.9-0.4-1.3-1.3-1.3h-6.5v9.1C118.1,85.8,115.5,85.8,115.5,85.8
		z"/>
	<path d="M129.8,85.8V74.1h10.4c2.6,0,3.9,1.3,3.9,3.9v7.8h-2.6V78c0-0.9-0.4-1.3-1.3-1.3h-1.9v9.1h-2.6v-9.1h-3.3v9.1
		C132.4,85.8,129.8,85.8,129.8,85.8z"/>
	<path d="M158.4,85.8h-9.1c-2.6,0-3.9-1.3-3.9-3.9v-7.8h13v2.6H148v1.9h10.4v2.6H148v0.7c0,0.9,0.4,1.3,1.3,1.3h9.1L158.4,85.8
		L158.4,85.8z"/>
	<path d="M159.7,85.8V74.1h9.1c2.6,0,3.9,1.3,3.9,3.9v7.8h-2.6V78c0-0.9-0.4-1.3-1.3-1.3h-6.5v9.1C162.3,85.8,159.7,85.8,159.7,85.8
		z"/>
	<path d="M174,74.1h13v2.6h-5.2v9.1h-2.6v-9.1H174V74.1L174,74.1z"/>
	<path d="M193.5,83.2H204v-2h-6.5c-2.6,0-3.9-1.2-3.9-3.5c0-2.4,1.3-3.6,3.9-3.6h9.1v2.6h-10.4v1.9h6.5c2.6,0,3.9,1.2,3.9,3.6
		s-1.3,3.6-3.9,3.6h-9.1v-2.6H193.5z"/>
	<path d="M213.1,81.2h-1.3c-2.6,0-3.9-1.3-3.9-3.9V74h2.6v3.3c0,0.9,0.4,1.3,1.3,1.3h5.2c0.9,0,1.3-0.4,1.3-1.3V74h2.6v3.3
		c0,2.6-1.3,3.9-3.9,3.9h-1.3v4.6h-2.6L213.1,81.2L213.1,81.2z"/>
	<path d="M222.2,83.2h10.4v-2h-6.5c-2.6,0-3.9-1.2-3.9-3.5c0-2.4,1.3-3.6,3.9-3.6h9.1v2.6h-10.4v1.9h6.5c2.6,0,3.9,1.2,3.9,3.6
		s-1.3,3.6-3.9,3.6h-9.1V83.2L222.2,83.2z"/>
	<path d="M236.5,74.1h13v2.6h-5.2v9.1h-2.6v-9.1h-5.2V74.1L236.5,74.1z"/>
	<path d="M263.8,85.8h-9.1c-2.6,0-3.9-1.3-3.9-3.9v-7.8h13v2.6h-10.4v1.9h10.4v2.6h-10.4v0.7c0,0.9,0.4,1.3,1.3,1.3h9.1V85.8
		L263.8,85.8z"/>
	<path d="M265.1,85.8V74.1h10.4c2.6,0,3.9,1.3,3.9,3.9v7.8h-2.6V78c0-0.9-0.4-1.3-1.3-1.3h-2v9.1h-2.6v-9.1h-3.3v9.1
		C267.7,85.8,265.1,85.8,265.1,85.8z"/>
</g>
<g>
	<path d="M172.6,58.5c0.1,0.1,0.2,0.1,0.3,0.1c0.1,0,0.2,0.1,0.4,0.3c0.2,0.2,0.3,0.3,0.3,0.4c0,0.1,0,0.1,0.1,0.2
		c0,0.1,0,0.1,0,0.2c0,0.1,0,0.1,0,0.2l-0.2,0.3c0,0.2,0,0.5-0.1,0.8s-0.1,0.5-0.2,0.5c0,0-0.1,0.1-0.2,0.3
		c-0.1,0.2-0.2,0.4-0.4,0.5c-0.2,0.2-0.3,0.4-0.5,0.5c-0.2,0.2-0.3,0.3-0.3,0.3c-0.1,0.1-0.1,0.1-0.1,0.2c0,0.1-0.1,0.2-0.1,0.3
		c-0.1,0.2-0.1,0.3-0.2,0.4l0.1,12.5l0.5,0c0.1,0,0.2,0,0.4-0.1c0.2-0.1,0.5-0.1,0.7-0.1c0.2,0,0.5-0.1,0.7-0.1
		c0.2-0.1,0.3-0.1,0.3-0.1c0.4-0.1,1-0.2,1.9-0.4c0.9-0.2,1.9-0.4,2.9-0.6c1.1-0.2,2-0.4,2.9-0.5s1.5-0.3,1.9-0.3l0.7-0.4l-0.1-13
		c0-0.1,0.1-0.3,0.4-0.7c0.3-0.4,0.5-0.7,0.6-1l2.1-2.1c0.1,0,0.3-0.1,0.7-0.3c0.4-0.2,0.6-0.3,0.8-0.4l0.3,0l0.2,0
		c0.2,0,0.4,0,0.7,0.2c0.2,0.1,0.3,0.1,0.4,0.2l0.1,15l0.5,2.5l0.1,12.8c0.1,0.5,0.1,1.4,0.2,2.6c0,1.1,0.1,2.2,0.1,3.3l0,1
		c0,1.2,0.1,2.3,0.1,3.3c0.1,1.2,0.1,2,0.2,2.5c0,0.1,0,0.2,0.1,0.5c0.1,0.3,0.1,0.7,0.1,1c0,0.4,0.1,0.7,0.1,1.1s0.1,0.5,0.1,0.6
		l0,2.1c0,0.1-0.1,0.3-0.2,0.6l0,0.1c-0.1,0.3-0.2,0.5-0.2,0.6c-0.1,0.1-0.1,0.4-0.2,0.9c0,0.5-0.1,1-0.1,1.5c0,0.5-0.1,1-0.1,1.4
		c0,0.4-0.1,0.7-0.2,0.7c0,0.2,0,0.5-0.1,0.8c-0.1,0.3-0.2,0.5-0.3,0.6c-0.1,0.1-0.1,0.1-0.2,0.1c-0.1,0.1-0.3,0.1-0.5,0.1l0-4.3
		c0,0.2,0,0.5,0,0.9c0,0.4-0.1,0.9-0.1,1.4c0,0.5-0.1,1-0.1,1.4c0,0.4-0.1,0.7-0.1,0.9c0,0.2-0.1,0.4-0.2,0.7
		c-0.1,0.3-0.2,0.5-0.3,0.5c0,0.1,0,0.1-0.1,0.2l0,0.1h-0.1l-0.2,0c-0.1,0-0.1-0.1-0.1-0.2c0-0.1-0.1-0.4-0.2-1
		c-0.1-0.6-0.2-0.9-0.2-1.1c-0.1-0.2-0.2-0.6-0.3-1.2c-0.1-0.6-0.2-1-0.2-1.2l-0.9,0c-0.1,0-0.2-0.1-0.4-0.2
		c-0.2-0.1-0.3-0.2-0.3-0.3c-0.1,0-0.2-0.2-0.3-0.5c-0.1-0.3-0.1-0.6-0.2-0.7c-0.1-0.2-0.2-0.6-0.3-1.1c-0.1-0.5-0.1-0.9-0.1-1
		c-0.1-0.2-0.1-0.6-0.2-1.2c-0.1-0.6-0.1-1.3-0.1-2c0-0.7-0.1-1.4-0.1-2c-0.1-0.6-0.1-1.1-0.2-1.4c0-0.4,0-1.2-0.1-2.6
		c0-1.2-0.1-2.5-0.1-3.9l0-1.2c0-1.4-0.1-2.7-0.1-3.9c-0.1-1.4-0.1-2.3-0.1-2.6c0-0.2,0-0.4,0-0.8c0-0.4-0.1-0.8-0.1-1.2
		c-0.1-0.4-0.1-0.8-0.1-1.2c0-0.4,0-0.7,0-0.8l-1.1,0l-1,0c-0.3,0-0.7,0.1-1.4,0.2c-0.6,0.1-1,0.2-1.2,0.2c0,0.1-0.1,0.2-0.2,0.3
		c-0.1,0.1-0.2,0.2-0.2,0.3c0,0.3-0.1,0.8-0.1,1.6c0,0.8-0.1,1.6-0.1,2.5c0,0.9-0.1,1.8-0.1,2.5c0,0.8-0.1,1.4-0.1,1.7
		c0,0.1,0,0.4-0.1,0.8c0,0.5-0.1,1-0.1,1.6c0,0.6-0.1,1.2-0.1,1.7c0,0.5-0.1,0.9-0.1,1.2c0,0.2,0,0.4,0,0.8c0,0.4-0.1,0.9-0.1,1.3
		c0,0.5-0.1,0.9-0.1,1.3c0,0.4,0,0.6,0,0.7c-0.1,0.2-0.1,0.4-0.2,0.7c0,0.2-0.1,0.5-0.1,0.8l0,0.2c0,0.3-0.1,0.5-0.1,0.8
		c-0.1,0.3-0.1,0.5-0.1,0.6c0-0.2-0.1-0.6-0.2-1.1l0-0.2c-0.1-0.6-0.2-0.9-0.2-1.1l0-1l0-1.1c0-0.3,0-0.8,0.1-1.7s0.1-1.9,0.1-2.9
		c0-1.1,0.1-2,0.1-2.9s0.1-1.4,0.1-1.7l0-7l-0.6,0c0,0.1,0,0.3,0,0.5c0,0.3,0.1,0.5,0.1,0.8c0,0.3,0.1,0.6,0.1,0.9
		c0,0.3,0,0.5,0,0.6c-0.1,0.2-0.2,0.6-0.3,1.1c-0.1,0.5-0.2,0.9-0.3,1h-0.2l-0.2,0c-0.1-0.1-0.1-0.2-0.3-0.4
		c-0.1-0.2-0.2-0.3-0.2-0.4c0-0.2,0-0.4,0-0.8c0-0.4,0-0.7,0-1.1c0-0.4,0-0.7,0-1.1c0-0.3,0-0.6,0-0.7c-0.1,0-0.4,0-0.9-0.1
		c-0.5,0-0.8-0.1-0.9-0.1c-0.2,0-0.4,0.1-0.8,0.2c-0.4,0.1-0.7,0.2-0.8,0.3l0,2.5c0.1,0.2,0.1,0.5,0.2,1.1c0.1,0.6,0.2,1.3,0.3,2
		c0.1,0.8,0.2,1.5,0.3,2.3c0.1,0.7,0.1,1.3,0.2,1.7c0,0.2,0,0.6,0.1,1.1c0.1,0.5,0.2,1.1,0.3,1.7c0.1,0.6,0.2,1.2,0.3,1.8
		c0.1,0.6,0.1,1,0.1,1.2c0,0.1,0,0.4,0.1,0.8c0.1,0.4,0.2,0.9,0.3,1.4c0.1,0.5,0.2,1,0.3,1.4c0.1,0.5,0.2,0.8,0.2,0.9l0,1.7
		c-0.1,0.1-0.1,0.1-0.2,0.2c-0.1,0.1-0.1,0.2-0.2,0.3c-0.1,0.1-0.1,0.1-0.2,0.2c-0.1,0.2-0.2,0.5-0.4,0.8c-0.2,0.3-0.3,0.5-0.4,0.6
		c-0.1,0.1-0.2,0.3-0.4,0.5c-0.2,0.2-0.5,0.5-0.7,0.7c-0.3,0.3-0.5,0.5-0.8,0.7s-0.4,0.4-0.5,0.5l0.1,18.8l-0.4,0.8
		c-0.1-0.2-0.2-0.5-0.4-1c-0.1-0.5-0.2-0.9-0.2-1.1c0-0.2,0-0.4-0.1-0.8c-0.1-0.4-0.1-0.8-0.1-1.3c0-0.4-0.1-0.8-0.1-1.2
		c-0.1-0.4-0.1-0.7-0.1-0.8c0-0.5,0-1.4-0.1-2.7c0-1.1-0.1-2.3-0.1-3.5l0-1c0-1.2-0.1-2.4-0.1-3.5c-0.1-1.3-0.1-2.1-0.2-2.7
		c-0.1-0.1-0.2-0.4-0.4-0.8c-0.2-0.4-0.3-0.8-0.3-1c-0.1-0.1-0.2-0.3-0.4-0.7c-0.1-0.4-0.2-0.7-0.2-0.9c0-0.1,0-0.4-0.1-0.8
		c-0.1-0.4-0.2-0.9-0.3-1.5c-0.1-0.5-0.2-1.1-0.3-1.5s-0.1-0.9-0.2-1.1c0-0.3-0.1-0.8-0.2-1.6c-0.1-0.8-0.2-1.2-0.2-1.4
		c-0.1-0.6-0.2-1.6-0.4-3c-0.2-1.4-0.3-2.9-0.5-4.4c-0.2-1.5-0.4-2.9-0.5-4.2c-0.2-1.3-0.3-2.2-0.4-2.6c0-0.3,0-0.6,0-1.1
		c0-0.5-0.1-0.9-0.1-1.4c-0.1-0.5-0.1-0.9-0.1-1.3c0-0.4,0-0.6,0-0.7l0-4.9l0-4.6c0-0.1,0-0.5,0.1-1.2c0.1-0.7,0.1-1.2,0.1-1.5
		c0.1-0.3,0.2-0.5,0.3-0.9l0.2-0.6c0.1-0.2,0.3-0.6,0.7-1.3c0.3-0.6,0.5-1.1,0.6-1.4c0.1-0.1,0.2-0.2,0.4-0.5
		c0.2-0.3,0.3-0.5,0.4-0.6l0.9-0.9c0.1-0.1,0.3-0.2,0.6-0.4c0.3-0.2,0.5-0.3,0.5-0.4l0.9-0.5c0.2-0.1,0.4-0.2,0.7-0.2
		c0.1,0,0.2,0,0.3-0.1l0,0c0.1-0.1,0.2-0.1,0.3-0.1C172.3,58.3,172.4,58.4,172.6,58.5L172.6,58.5L172.6,58.5z M241.4,47.9
		c0.1,0,0.2,0.1,0.4,0.2c0.2,0.1,0.3,0.2,0.4,0.3l0.4,0.3c0.1,0.1,0.1,0.2,0.2,0.3c0.1,0.1,0.1,0.3,0.2,0.4c0.1,0.2,0.1,0.4,0.2,0.5
		c0.1,0.2,0.2,0.4,0.4,0.7c0.2,0.3,0.3,0.6,0.4,0.7c0.2,0.2,0.5,0.6,1.1,1.2c0.6,0.6,1.2,1.2,1.9,1.8l3.3,3.2c0.1,0,0.2,0.1,0.5,0.3
		c0.3,0.2,0.6,0.5,0.9,0.8c0.3,0.3,0.7,0.6,1,0.8s0.5,0.4,0.6,0.5c0.1,0.1,0.3,0.3,0.6,0.6s0.6,0.6,0.9,0.9c0.3,0.3,0.6,0.6,0.8,0.9
		c0.3,0.3,0.4,0.5,0.5,0.6c0.1,0.1,0.1,0.3,0.3,0.5c0.1,0.2,0.2,0.4,0.2,0.5c-0.1,0.2-0.2,0.3-0.2,0.5c-0.1,0.1-0.1,0.2-0.2,0.3
		c-0.1,0.1-0.1,0.2-0.1,0.3c0,0.1,0,0.2-0.1,0.3c-0.1,0.1-0.1,0.2-0.2,0.3c-0.1,0.2-0.1,0.3-0.2,0.4c-0.1,0.1-0.3,0.2-0.5,0.4
		c-0.2,0.2-0.4,0.4-0.7,0.6c-0.2,0.2-0.4,0.5-0.6,0.7c-0.2,0.2-0.3,0.3-0.3,0.4c-0.1,0.1-0.4,0.2-0.8,0.4c-0.4,0.2-0.7,0.3-0.9,0.4
		l-0.6,0l-0.7,0c-0.1-0.1-0.3-0.2-0.5-0.4c-0.3-0.2-0.5-0.4-0.9-0.7c-0.3-0.2-0.6-0.4-0.9-0.7c-0.3-0.2-0.5-0.3-0.6-0.4
		c-0.3-0.3-0.8-0.6-1.4-1c-0.6-0.4-1-0.6-1.1-0.7c-0.2-0.1-0.6-0.3-1.2-0.6c-0.7-0.3-1.1-0.5-1.4-0.5c-0.2-0.1-0.6-0.3-1.2-0.5
		c-0.6-0.2-1-0.4-1.2-0.5l-0.7,0l0,4.2l-0.7,0l0-4.6l-0.7,0c0,0.2-0.2,0.6-0.4,1.1c-0.2,0.5-0.3,0.9-0.4,1l-0.4,0.4
		c-0.1-0.1-0.2-0.3-0.3-0.6c-0.1-0.3-0.2-0.5-0.3-0.5c0-0.2-0.1-0.6-0.2-1.1c-0.1-0.5-0.2-0.8-0.2-1c-0.2-0.1-0.6-0.2-1.2-0.3
		c-0.6-0.1-1-0.2-1.2-0.3l-4.6,0c-0.2,0.1-0.3,0.1-0.5,0.2l-0.8,0.4c-0.2,0.1-0.4,0.2-0.9,0.4c-0.4,0.2-0.7,0.3-0.8,0.4l-0.4,0.4
		c-0.1,0.1-0.1,0.3-0.3,0.5c-0.1,0.2-0.2,0.4-0.2,0.5l0,4.2c0.1,0.2,0.2,0.4,0.4,0.6c0.1,0.2,0.2,0.3,0.3,0.5
		c0.1,0.2,0.1,0.3,0.2,0.4c0.1,0.2,0.3,0.5,0.5,0.8c0.2,0.3,0.4,0.5,0.5,0.6c0.1,0.1,0.2,0.3,0.4,0.5c0.2,0.2,0.4,0.5,0.7,0.7
		c0.2,0.3,0.5,0.5,0.7,0.7s0.3,0.4,0.4,0.5c0.1,0.2,0.2,0.4,0.5,0.6c0.3,0.3,0.6,0.5,0.9,0.8c0.3,0.3,0.6,0.6,0.9,0.9
		c0.3,0.3,0.5,0.5,0.6,0.7c0.1,0.1,0.3,0.3,0.5,0.5s0.5,0.4,0.9,0.7c0.3,0.3,0.6,0.5,0.9,0.8c0.3,0.2,0.5,0.4,0.7,0.4
		c0.1,0.1,0.4,0.3,0.8,0.7c0.4,0.3,0.7,0.6,0.8,0.7c0.2,0.1,0.4,0.2,0.6,0.4c0.3,0.2,0.5,0.3,0.8,0.5s0.5,0.3,0.8,0.4
		c0.2,0.1,0.4,0.2,0.4,0.3c0.1,0.1,0.5,0.3,1.2,0.6s1.1,0.5,1.3,0.6c0.1,0.1,0.2,0.1,0.3,0.2c0.1,0.1,0.2,0.1,0.3,0.2l0.5,0.2l1.6,0
		l1.4,0c0.1,0,0.1-0.1,0.2-0.2c0.1-0.1,0.2-0.2,0.3-0.3l0.3-0.7c0.1-0.2,0.2-0.4,0.3-0.8c0.1-0.4,0.1-0.7,0.1-0.8
		c0.1-0.1,0.1-0.3,0.2-0.6c0.1-0.3,0.1-0.6,0.2-0.9c0-0.3,0.1-0.6,0.1-0.9c0-0.3,0-0.5,0-0.6c0-0.2,0.1-0.5,0.2-0.8
		c0.1-0.4,0.2-0.6,0.2-0.7c0.1-0.1,0.1-0.3,0.2-0.5c0.1-0.3,0.2-0.4,0.3-0.4c0.1-0.1,0.2-0.3,0.4-0.5c0.2-0.3,0.5-0.5,0.8-0.8
		c0.3-0.3,0.5-0.5,0.7-0.7c0.2-0.2,0.4-0.4,0.5-0.5c0.1-0.1,0.2-0.1,0.4-0.2c0.3-0.1,0.5-0.2,0.5-0.2c0.1-0.1,0.2-0.1,0.3-0.2
		c0.1-0.1,0.2-0.1,0.3-0.2c0.2-0.1,0.3-0.2,0.5-0.2c0.1,0.1,0.3,0.3,0.5,0.5s0.4,0.4,0.4,0.5l0,2.9c0,0.1,0,0.5-0.2,1.1
		c-0.1,0.6-0.1,1.1-0.1,1.5c-0.1,0.1-0.2,0.4-0.3,0.8c-0.1,0.4-0.2,0.7-0.3,0.8c0,0.2-0.1,0.5-0.3,1c-0.2,0.5-0.4,0.9-0.4,1.1
		c0,0.2-0.1,0.5-0.4,0.9c-0.3,0.5-0.4,0.7-0.5,0.8c0,0.1-0.1,0.3-0.3,0.7c-0.2,0.3-0.3,0.6-0.4,0.7c-0.2,0.2-0.5,0.5-0.8,0.9
		c-0.3,0.4-0.5,0.7-0.6,0.8l-0.7,0.7c-0.1,0.1-0.4,0.3-0.8,0.7s-0.8,0.6-1,0.7c-0.1,0.1-0.2,0.1-0.3,0.2c-0.1,0.1-0.2,0.1-0.3,0.2
		l-0.5,0.3c-0.1,0.1-0.2,0.1-0.4,0.2c-0.2,0.1-0.4,0.2-0.7,0.3c-0.2,0.1-0.5,0.2-0.7,0.3c-0.2,0.1-0.3,0.1-0.4,0.1
		c-0.1,0.1-0.3,0.2-0.5,0.3c-0.3,0.1-0.4,0.2-0.4,0.3l-0.3,0.7c-0.1,0.1-0.2,0.2-0.3,0.3c-0.1,0.1-0.1,0.2-0.2,0.2
		c0-0.1,0-0.2-0.1-0.5c-0.1-0.3-0.2-0.5-0.3-0.6c0-0.2-0.1-0.2-0.2-0.2h-0.1c-0.1,0-0.2,0.1-0.3,0.2c0,0.4,0,1-0.1,1.9
		c0,0.9-0.1,1.9-0.1,3c0,1.1-0.1,2.1-0.1,3c0,0.9-0.1,1.6-0.1,1.9c0,0.2,0,0.6-0.1,1.4s-0.1,1.3-0.1,1.7c-0.1,0.3-0.2,0.6-0.3,1.2
		c-0.1,0.5-0.2,0.8-0.2,0.9c0,0.1-0.1,0.2-0.2,0.4c-0.1,0.2-0.2,0.3-0.2,0.4L239,90.1c-0.2,0-0.6-0.1-1.2-0.3
		c-0.7-0.2-1.1-0.4-1.4-0.5l-2.5-1.2c-0.1-0.1-0.3-0.2-0.7-0.4c-0.4-0.2-0.7-0.5-1.1-0.7l-2-1.3c-0.1-0.1-0.3-0.2-0.5-0.3
		c-0.2-0.2-0.4-0.4-0.7-0.5c-0.2-0.2-0.4-0.3-0.6-0.5c-0.2-0.2-0.3-0.3-0.3-0.3l-6.3-6.2l-0.5-0.6c-0.1-0.2-0.2-0.3-0.3-0.5
		c-0.1-0.2-0.2-0.3-0.3-0.4c-0.1-0.2-0.3-0.4-0.5-0.7c-0.2-0.3-0.4-0.6-0.5-0.7l-0.4-0.7c0-0.1-0.1-0.3-0.2-0.7
		c-0.1-0.4-0.2-0.6-0.3-0.7c0-0.1-0.1-0.4-0.2-0.9c-0.1-0.2-0.1-0.4-0.2-0.7l0-1.5l0-1.4c0-0.2,0-0.5,0.2-0.9
		c0.1-0.4,0.2-0.7,0.1-0.9c0.1-0.2,0.3-0.5,0.5-1c0.2-0.4,0.4-0.9,0.6-1.3c0.2-0.4,0.4-0.8,0.6-1.2c0.2-0.4,0.3-0.6,0.3-0.7
		c0.1-0.1,0.3-0.3,0.7-0.7c0.4-0.4,0.8-0.8,1.2-1.2c0.4-0.4,0.9-0.9,1.3-1.3s0.7-0.8,1-1c0.1-0.1,0.3-0.3,0.7-0.5
		c0.3-0.2,0.6-0.4,0.7-0.5c0.2-0.1,0.6-0.2,1.2-0.5c0.6-0.3,1-0.5,1.2-0.6c0.3-0.1,0.7-0.3,1.3-0.5c0.6-0.2,1-0.4,1.2-0.5
		c0.2,0,0.4,0,0.8,0c0.4,0,0.9-0.1,1.3-0.1c0.5-0.1,1-0.1,1.4-0.1c0.4,0,0.7,0,0.9,0c-0.1-0.2-0.1-0.6-0.1-1.1c0-0.5,0-0.8,0.1-1
		c0-0.2,0.1-0.5,0.4-0.9c0.3-0.4,0.4-0.7,0.5-0.9c0.1-0.2,0.4-0.5,1-1s0.9-0.9,1.1-1.1l1.5-0.8l0.5,0L241.4,47.9L241.4,47.9
		L241.4,47.9z M211.2,48.2l0,3.9c0,0,0,0.1,0,0.4c0,0.3-0.1,0.6-0.1,0.9c0,0.3-0.1,0.7-0.1,1c0,0.3,0,0.5,0,0.5l0,1.6
		c0,0.1,0,0.5,0,1.3c0,0.7,0.1,1.6,0.1,2.5c0,0.9,0.1,1.7,0.1,2.5s0.1,1.2,0.1,1.3c0,0.2,0.1,0.5,0.2,1.1c0.1,0.6,0.2,0.9,0.2,1
		c0.1,0.3,0.3,0.7,0.5,1.5c0.2,0.7,0.4,1.2,0.5,1.5c0.1,0.3,0.2,0.7,0.4,1.3c0.2,0.6,0.4,1.2,0.7,1.9c0.2,0.7,0.5,1.3,0.7,1.9
		c0.2,0.6,0.3,1,0.4,1.2c0.1,0.2,0.2,0.5,0.4,1c0.2,0.5,0.3,0.9,0.4,1.1c0.1,0.3,0.3,0.6,0.5,1c0.3,0.4,0.4,0.6,0.4,0.7
		c0.1,0,0.4,0.1,0.8,0.3c0.4,0.2,0.7,0.3,0.8,0.3c0.1,0.1,0.2,0.2,0.3,0.3c0.1,0.1,0.2,0.1,0.2,0.2c-0.1,0.3-0.2,0.9-0.1,1.7
		c0,0.8,0.1,1.4,0.2,1.7c0,0,0.1,0.2,0.2,0.5c0.2,0.3,0.3,0.7,0.5,1.2c0.2,0.5,0.4,0.9,0.7,1.4c0.3,0.5,0.5,0.8,0.6,1.1
		c0.1,0.1,0.2,0.6,0.5,1.4c0.3,0.8,0.6,1.8,0.9,2.8c0.3,1,0.7,1.9,0.9,2.8c0.3,0.9,0.5,1.3,0.5,1.4c0.1,0.4,0.3,0.7,0.5,0.9
		c0.1,0.2,0.2,0.4,0.4,0.6l0,1.7c-0.1,0.1-0.2,0.4-0.4,0.8c-0.2,0.4-0.3,0.8-0.4,1l-2.1,2.1c-0.1,0-0.3,0.1-0.5,0.2
		c-0.2,0.1-0.4,0.2-0.5,0.2l-1,0l-1.1,0c-0.1,0-0.3-0.2-0.8-0.5c-0.5-0.3-0.8-0.6-0.9-0.7c0-0.1-0.1-0.3-0.2-0.6
		c-0.1-0.3-0.2-0.5-0.2-0.6l0-1.4l-0.3-0.6c-0.1-0.2-0.2-0.3-0.2-0.5c-0.1-0.2-0.1-0.3-0.2-0.4c-0.4-0.6-0.8-1.5-1.3-2.9
		c-0.5-1.4-1.1-2.8-1.6-4.2c-0.6-1.7-1.3-3.5-2-5.4l-3.4,0c0,0.2,0,0.4-0.2,0.8c-0.1,0.4-0.2,0.7-0.2,0.9c-0.1,0-0.2,0.1-0.3,0.2
		c-0.1,0.1-0.1,0.2-0.2,0.2c0,0.2,0,0.6-0.1,1.1c0,0.5-0.1,1.1-0.1,1.7c0,0.6-0.1,1.2-0.1,1.8c0,0.6-0.1,1-0.1,1.2
		c-0.1,0.2-0.2,0.6-0.3,1.2s-0.2,1-0.3,1.2c0,0.2-0.1,0.4-0.2,0.8c-0.2,0.4-0.2,0.7-0.2,0.9l0-11.4c-0.2,0-0.4-0.1-0.7-0.2
		c-0.3-0.1-0.6-0.2-0.9-0.3c-0.3-0.1-0.6-0.2-0.8-0.2c-0.3-0.1-0.4-0.1-0.5,0c-0.1,0.2-0.2,0.4-0.4,0.6c-0.3,0.5-0.4,0.8-0.5,1.1
		c-0.1,0.2-0.2,0.6-0.4,1.1c-0.2,0.5-0.3,0.9-0.4,1c0,0.1,0,0.2,0,0.4c0,0.2-0.1,0.4-0.1,0.7c0,0.2-0.1,0.5-0.1,0.7
		c0,0.2,0,0.3,0,0.4c0,0.1-0.1,0.2-0.2,0.4c-0.1,0.2-0.2,0.3-0.2,0.4c-0.2,0.1-0.4,0.3-0.6,0.5c-0.3,0.2-0.5,0.5-0.8,0.8
		c-0.3,0.3-0.5,0.5-0.8,0.8c-0.3,0.2-0.4,0.3-0.5,0.4l-1.5,0.9l-0.3,0l-0.2,0c-0.1,0-0.2-0.1-0.4-0.2c-0.2-0.1-0.3-0.2-0.4-0.3
		c-0.1-0.1-0.1-0.1-0.2-0.2c-0.1-0.2-0.2-0.4-0.2-0.5l0-0.5l0-0.4c0-0.2,0-0.5,0.1-0.9c0.1-0.5,0.2-0.7,0.2-0.8
		c0.1-0.2,0.3-0.6,0.5-1.1c0.2-0.5,0.4-1.1,0.6-1.7c0.2-0.6,0.4-1.1,0.6-1.7c0.2-0.5,0.3-0.9,0.4-1l0-0.8c-0.2,0-0.5,0-1-0.1
		c-0.5-0.1-0.9-0.2-1.1-0.3c0-0.1-0.1-0.3-0.2-0.5c-0.1-0.2-0.2-0.4-0.2-0.5v-0.1l0-0.4c0-0.1,0.1-0.3,0.2-0.7
		c0-0.2,0.1-0.4,0.2-0.5l2.9-2.9c0.1,0,0.2,0,0.4-0.1c0.2-0.1,0.4-0.1,0.7-0.2c0.2-0.1,0.5-0.2,0.7-0.2c0.2-0.1,0.3-0.1,0.4-0.2
		c0-0.1,0.1-0.4,0.4-0.9c0.3-0.5,0.4-0.9,0.5-1.2c0-0.3,0.2-0.8,0.4-1.5c0.2-0.7,0.5-1.5,0.8-2.3c0.3-0.8,0.5-1.6,0.7-2.3
		s0.4-1.2,0.5-1.5c0.1-0.1,0.1-0.2,0.2-0.5c0.1-0.2,0.1-0.5,0.2-0.7L203,68c0.1-0.2,0.1-0.4,0.2-0.7c0.1-0.3,0.1-0.5,0.2-0.6
		c0.1-0.2,0.1-0.5,0.2-0.9c0.1-0.4,0.2-0.8,0.3-1.1c0.1-0.4,0.2-0.7,0.3-1c0.1-0.3,0.1-0.5,0.1-0.5c0-0.1,0-0.5,0-1.4s0-1.9,0.1-2.9
		c0-1.1,0-2,0-2.9c0-0.9,0-1.4,0-1.5c0.1-0.1,0.2-0.4,0.3-0.8c0.1-0.4,0.2-0.7,0.3-0.8c0-0.1,0.1-0.3,0.4-0.8
		c0.3-0.5,0.4-0.8,0.5-0.9c0-0.1,0.1-0.3,0.3-0.6c0.2-0.3,0.4-0.5,0.5-0.5c0-0.1,0-0.2,0.1-0.3c0.1-0.1,0.1-0.2,0.2-0.3
		c0.2-0.2,0.5-0.4,1-0.6c0.4-0.3,0.7-0.4,0.8-0.5c0.1-0.1,0.3-0.1,0.5-0.2c0.3-0.1,0.6-0.2,0.8-0.2l0.4,0l0.5,0L211.2,48.2
		L211.2,48.2z M298,73.3l-0.6,0l0,5.9l-0.7,0l-0.8-5.5c-0.3,0-0.8,0-1.5-0.1c-0.7-0.1-1.2-0.2-1.5-0.3c-0.1,0-0.3,0-0.6-0.1
		c-0.3-0.1-0.5-0.1-0.5-0.2c-0.2-0.1-0.5-0.3-1-0.5c-0.4-0.2-0.7-0.4-0.8-0.5l-0.5-0.5c-0.2-0.2-0.3-0.3-0.4-0.4
		c-0.1-0.1-0.2-0.2-0.3-0.2c0-0.1-0.1-0.3-0.3-0.7c-0.2-0.3-0.4-0.6-0.5-0.7c-0.1-0.2-0.2-0.4-0.4-0.9s-0.3-0.7-0.3-0.8
		c-0.1-0.1-0.2-0.4-0.4-0.8s-0.2-0.7-0.2-0.8l0-2.6l0-2.1c0-0.2,0.1-0.6,0.4-1.1c0.3-0.5,0.4-0.9,0.5-1c-0.2,0-0.4,0-0.8-0.1
		c-0.4,0-0.8-0.1-1.2-0.1s-0.8-0.1-1.2-0.1c-0.4,0-0.7-0.1-0.8-0.1c-0.1,0-0.3,0-0.5-0.2c-0.2-0.1-0.4-0.2-0.5-0.3
		c-0.1,0-0.2-0.1-0.4-0.3s-0.3-0.3-0.4-0.3c0-0.1-0.1-0.2-0.2-0.5c-0.1-0.2-0.1-0.3-0.2-0.4l0-1l0-1.1c0-0.1,0-0.3,0.2-0.8
		c0.1-0.5,0.2-0.8,0.2-0.9c0.1-0.2,0.2-0.6,0.4-1c0.2-0.5,0.4-1,0.5-1.5l0.8-2.4c0.1-0.3,0.3-0.8,0.8-1.5c0.5-0.7,0.8-1.4,0.9-1.8
		c0.1-0.2,0.3-0.6,0.5-1.2c0.3-0.6,0.5-1.3,0.8-2c0.3-0.7,0.6-1.4,0.8-2c0.3-0.6,0.4-1.1,0.5-1.4c0.3-0.6,0.6-1.2,1-1.8
		c0.4-0.6,0.9-1.2,1.3-1.8c0.5-0.6,0.9-1.2,1.3-1.9c0.4-0.7,0.7-1.4,0.9-2.2c0.1-0.1,0.2-0.2,0.3-0.5s0.3-0.5,0.5-0.8
		c0.2-0.3,0.4-0.6,0.5-0.9s0.3-0.5,0.4-0.7c0-0.1,0.1-0.2,0.3-0.6s0.3-0.6,0.4-0.8c0.2-0.2,0.4-0.4,0.7-0.8c0.3-0.4,0.6-0.6,0.7-0.7
		c0.1-0.2,0.4-0.5,0.8-1c0.4-0.4,0.7-0.7,0.8-0.8c0.1,0,0.2-0.1,0.5-0.4c0.3-0.3,0.5-0.4,0.6-0.5c0.1,0,0.2-0.1,0.5-0.2
		c0.1-0.1,0.2-0.1,0.4-0.2l1.5,0l1.4,0l0.9,0.9c0.1,0.1,0.2,0.2,0.4,0.5c0.2,0.3,0.3,0.5,0.4,0.6c0,0.1,0.1,0.4,0.3,0.9
		c0.2,0.5,0.3,0.9,0.4,1.2c0.1,0.2,0.3,0.6,0.5,1.2s0.4,1,0.4,1.2c0,0.1,0,0.3,0.1,0.6c0.1,0.3,0.2,0.6,0.3,0.9
		c0.1,0.3,0.2,0.6,0.3,0.9c0.1,0.3,0.1,0.5,0.1,0.7c0,0.1,0.1,0.4,0.2,0.8c0.1,0.4,0.2,0.8,0.2,1c0.1,0.3,0.2,0.7,0.3,1.3
		c0.2,0.5,0.3,1.1,0.5,1.7c0.2,0.6,0.3,1.1,0.4,1.5c0.1,0.5,0.2,0.7,0.2,0.8c0,0.3,0.1,0.6,0.4,1c0.2,0.4,0.4,0.8,0.4,1.1
		c0.1,0.4,0.2,0.9,0.4,1.5c0.1,0.6,0.2,1,0.2,1.1l0,2.8c0,0.1-0.1,0.2-0.2,0.4c-0.1,0.2-0.2,0.3-0.3,0.4c-0.1,0.2-0.3,0.5-0.6,0.9
		c-0.3,0.5-0.5,0.7-0.5,0.8c-0.1,0.1-0.4,0.3-0.8,0.7c-0.4,0.3-0.7,0.6-0.8,0.7c-0.1,0-0.3,0.1-0.7,0.2s-0.6,0.2-0.7,0.2h-0.2
		l-0.2,0c-0.1,0-0.2-0.1-0.4-0.2c-0.2-0.1-0.3-0.2-0.4-0.2c-0.1-0.1-0.2-0.2-0.2-0.4c-0.1-0.3-0.2-0.5-0.2-0.5
		c-0.1-0.1-0.2-0.3-0.3-0.6c-0.1-0.3-0.2-0.5-0.3-0.5c0-0.2-0.1-0.5-0.2-1c-0.1-0.4-0.2-0.7-0.2-0.8c0-0.2,0-0.4,0-0.8
		c0-0.4-0.1-0.8-0.1-1.3c-0.1-0.5-0.1-0.9-0.1-1.3c0-0.4,0-0.7,0-0.8c-0.1-0.3-0.2-0.6-0.2-0.8c-0.1-0.3-0.1-0.5-0.2-0.7
		c-0.1-0.2-0.1-0.4-0.1-0.5c-0.1-0.5-0.3-1.1-0.7-1.8c-0.3-0.7-0.6-1.2-0.7-1.5c-0.1-0.2-0.2-0.7-0.4-1.4c-0.2-0.7-0.3-1.2-0.4-1.5
		c-0.1-0.3-0.2-0.6-0.4-1c-0.1-0.4-0.3-0.8-0.4-1.2c-0.2-0.5-0.4-0.9-0.5-1.5l-0.5,0c0,0.2,0,0.5,0,0.9c0,0.5,0,1,0,1.5
		c0,0.5,0,1,0,1.5c0,0.5,0,0.8,0,0.9c0,0.2-0.1,0.6-0.2,1.2s-0.2,1-0.3,1.1c0-0.1-0.1-0.3-0.2-0.7c-0.1-0.4-0.2-0.6-0.2-0.7
		c-0.1-0.2-0.1-0.4-0.2-0.7s-0.1-0.7-0.1-1.1c0-0.4-0.1-0.8-0.1-1.1c-0.1-0.4-0.1-0.6-0.2-0.8l-0.7,1.6l0,7.6l-0.5,0.7l-0.6-0.7
		l0-6.3c-0.1,0.1-0.2,0.3-0.4,0.5c-0.2,0.3-0.4,0.5-0.6,0.8c-0.2,0.3-0.4,0.6-0.5,0.8c-0.2,0.3-0.3,0.5-0.3,0.6
		c-0.1,0.1-0.2,0.4-0.5,1c-0.3,0.5-0.5,1.2-0.8,1.9s-0.6,1.4-1,2.2c-0.3,0.7-0.6,1.3-0.7,1.7c-0.1,0.2-0.2,0.4-0.4,0.7
		c-0.2,0.2-0.3,0.5-0.4,0.7c-0.1,0.3-0.2,0.7-0.4,1.2c-0.2,0.5-0.4,1-0.5,1.5s-0.3,1-0.5,1.4c-0.2,0.4-0.3,0.7-0.3,0.7
		c0,0.1,0.1,0.4,0.2,0.8c0.1,0.4,0.2,0.7,0.2,0.8c0.2,0,0.5,0,1,0s1,0,1.5,0c0.5,0,1.1,0,1.5,0s0.9,0,1.1-0.1c0.1,0,0.2,0,0.5,0
		c0.3,0,0.6-0.1,0.9-0.1c0.3-0.1,0.7-0.1,1-0.1c0.3,0,0.5,0,0.6,0c0.2-0.1,0.5-0.1,0.8-0.2c0.4-0.1,0.7-0.1,1.1-0.2
		c0.4-0.1,0.7-0.1,0.9-0.2c0.3-0.1,0.4-0.1,0.5-0.1l3.6,0l3,0c0.2,0.1,0.6,0.3,1.2,0.5s1.1,0.4,1.4,0.5c0.1,0.1,0.4,0.4,0.8,0.8
		c0.4,0.4,0.7,0.8,0.8,1c0.1,0.2,0.2,0.4,0.4,0.8c0.2,0.4,0.3,0.7,0.4,0.8l0,4.6c0,0.1-0.1,0.2-0.2,0.5c-0.1,0.3-0.2,0.5-0.2,0.6
		c-0.1,0.1-0.1,0.3-0.2,0.5s-0.2,0.5-0.4,0.7c-0.2,0.3-0.3,0.5-0.5,0.8c-0.2,0.3-0.3,0.5-0.3,0.6s-0.1,0.3-0.2,0.5
		c-0.1,0.1-0.2,0.2-0.3,0.3c-0.1,0.1-0.1,0.2-0.2,0.3c-0.2,0.2-0.5,0.5-0.8,0.9s-0.5,0.6-0.6,0.7c0,0.1-0.1,0.2-0.3,0.4
		c-0.2,0.2-0.3,0.3-0.4,0.4c-0.1,0.1-0.3,0.3-0.5,0.5c-0.3,0.2-0.5,0.4-0.8,0.7s-0.5,0.4-0.8,0.6c-0.2,0.2-0.4,0.3-0.4,0.3
		c-0.1,0.1-0.3,0.3-0.7,0.5c-0.3,0.2-0.6,0.4-0.7,0.5c-0.1,0-0.3,0.1-0.5,0.3c-0.3,0.2-0.6,0.4-0.9,0.5c-0.3,0.2-0.6,0.4-0.9,0.5
		c-0.3,0.2-0.4,0.3-0.5,0.3c-0.1,0-0.2,0.1-0.3,0.2c-0.1,0.1-0.1,0.1-0.1,0.2l0,1.2c0,0.2,0,0.5,0.1,1.1c0.1,0.6,0.1,1.2,0.1,1.9
		c0,0.7,0.1,1.3,0.1,1.9c0.1,0.6,0.1,0.9,0.1,1l0,5.5c0,0.1,0,0.3-0.1,0.6c-0.1,0.3-0.1,0.6-0.1,0.9c0,0.3-0.1,0.6-0.1,0.9
		c0,0.3-0.1,0.5-0.1,0.5c-0.1-0.2-0.2-0.5-0.3-1c-0.1-0.5-0.2-0.9-0.3-1.1c-0.1-0.4-0.1-1.1-0.2-2.2c-0.1-1.1-0.2-2.2-0.2-3.4
		s-0.2-2.3-0.2-3.4c-0.1-1.1-0.1-1.8-0.1-2.2L298,73.3L298,73.3z M264.9,71.6c0.1,0.4,0.1,0.7,0.2,1.1c0.1,0.4,0.1,0.7,0.1,0.8
		c0.1,0.1,0.2,0.4,0.3,0.9c0.1,0.5,0.2,0.8,0.2,0.9l0,0.8c0,0.1,0,0.3-0.2,0.7c-0.1,0.3-0.2,0.6-0.3,0.7c0,0.1-0.1,0.2-0.3,0.5
		c-0.2,0.3-0.3,0.5-0.4,0.6l-0.9,0.9c-0.1,0.1-0.2,0.2-0.5,0.4s-0.5,0.3-0.6,0.4c-0.1,0.1-0.2,0.2-0.3,0.2c-0.1,0-0.2,0.1-0.3,0.1
		c-0.2,0.1-0.3,0.1-0.3,0.1c-0.2,0.1-0.3,0.1-0.4,0.2c-0.1,0.1-0.1,0.1-0.2,0.1h-0.2c-0.2,0-0.4,0-0.5-0.1c-0.2-0.1-0.3-0.1-0.4-0.2
		c-0.1,0-0.2,0-0.2-0.1c-0.1-0.1-0.2-0.2-0.2-0.3c0-0.1-0.1-0.3-0.2-0.7s-0.2-0.7-0.3-1c-0.1-0.3-0.1-0.8-0.3-1.4s-0.2-1.3-0.4-1.9
		c-0.1-0.7-0.2-1.3-0.4-1.9c-0.1-0.6-0.2-0.9-0.3-1.1c0-0.1,0-0.2-0.1-0.4c-0.1-0.2-0.1-0.5-0.1-0.8c0-0.3-0.1-0.6-0.1-0.9
		c-0.1-0.3-0.1-0.6-0.1-0.8c0-0.2,0-0.4-0.1-0.8c-0.1-0.4-0.1-0.7-0.2-1.1s-0.1-0.7-0.2-1c-0.1-0.3-0.1-0.4-0.1-0.5
		c0-0.3,0-0.8,0-1.4c0-0.6-0.1-1.3-0.1-2c-0.1-0.7-0.1-1.3-0.1-1.9c0-0.5,0-0.9,0-1l0-9.4l0-9.3c0-0.1,0-0.3,0.2-0.6
		s0.2-0.5,0.2-0.5c0.1-0.1,0.2-0.3,0.3-0.5c0.1-0.2,0.1-0.3,0.2-0.4c0.1-0.1,0.3-0.3,0.5-0.5c0.2-0.2,0.4-0.4,0.6-0.7
		c0.2-0.2,0.4-0.4,0.6-0.6c0.2-0.2,0.3-0.3,0.4-0.3c0.1-0.1,0.4-0.2,0.8-0.4s0.7-0.3,0.8-0.4l0.7,0l0.7,0c0.1,0.1,0.1,0.2,0.2,0.2
		l0.2,0.2c0.1,0.1,0.1,0.4,0.2,0.8c0.1,0.4,0.1,0.7,0.1,0.8l0.1,20.5c0.2-0.1,0.4-0.3,0.8-0.5c0.4-0.2,0.8-0.4,1.3-0.6
		c0.4-0.2,0.8-0.4,1.2-0.6c0.4-0.2,0.7-0.3,0.8-0.4c0.1-0.1,0.3-0.3,0.7-0.5c0.3-0.2,0.6-0.4,0.7-0.5c0.2-0.2,0.5-0.4,0.8-0.7
		c0.4-0.3,0.7-0.6,1-0.9c0.3-0.3,0.6-0.5,0.9-0.7c0.3-0.2,0.4-0.3,0.4-0.3c0.2-0.2,0.6-0.6,1.1-1.1c0.5-0.5,1.1-1.1,1.7-1.7
		c0.6-0.6,1.1-1.2,1.7-1.7c0.5-0.5,0.8-0.9,1-1.2c0.1,0,0.1-0.1,0.2-0.3c0.1-0.2,0.2-0.3,0.3-0.3c0-0.1,0.1-0.3,0.2-0.7
		c0.1-0.4,0.2-0.6,0.2-0.7c0.1-0.1,0.1-0.1,0.1-0.2c0-0.1,0-0.2,0.1-0.2c0.1-0.1,0.1-0.2,0.2-0.3c0.2-0.3,0.4-0.6,0.7-1
		s0.6-0.6,0.7-0.7c0.1-0.1,0.4-0.4,0.9-0.8c0.5-0.4,0.9-0.8,1.2-1l0.3-0.2c0.2-0.1,0.3-0.2,0.4-0.2c0.2-0.1,0.4-0.2,0.7-0.3
		c0.3-0.1,0.6-0.1,0.7-0.1l0.3-0.1c0.1,0,0.1,0,0.2,0c0.1,0,0.1,0,0.2,0l0.1,0c0.4,0,0.5,0.1,0.5,0.4l0,2.1c0,0.1-0.1,0.2-0.2,0.4
		s-0.2,0.4-0.3,0.7c-0.1,0.3-0.3,0.5-0.4,0.8c-0.2,0.3-0.3,0.4-0.3,0.5c-0.1,0.2-0.4,0.6-0.8,1.3c-0.4,0.6-0.8,1.1-1,1.4
		c0,0.2-0.3,0.5-0.8,1c-0.5,0.5-0.8,0.9-0.9,1.1c-0.2,0.2-0.5,0.6-0.9,1.1c-0.5,0.5-1,1.1-1.5,1.6c-0.5,0.6-1,1.1-1.5,1.6
		s-0.8,0.9-0.9,1c0.1,0.1,0.3,0.3,0.6,0.5c0.3,0.2,0.5,0.4,0.6,0.5c0.1,0.1,0.3,0.2,0.5,0.4c0.2,0.2,0.4,0.4,0.7,0.6
		c0.2,0.2,0.4,0.4,0.6,0.7c0.2,0.2,0.3,0.3,0.3,0.4c0.1,0.1,0.3,0.4,0.7,1.2c0.4,0.7,0.6,1.3,0.9,1.7c0.1,0.2,0.3,0.6,0.6,1.2
		c0.4,0.7,0.7,1.4,1.1,2.1c0.4,0.7,0.8,1.4,1.1,2.1c0.3,0.7,0.6,1.1,0.7,1.2c0,0.1,0.1,0.3,0.3,0.7c0.2,0.3,0.4,0.7,0.7,1.2
		c0.3,0.4,0.5,0.9,0.8,1.3c0.3,0.4,0.5,0.8,0.7,1c0.1,0.1,0.3,0.3,0.5,0.6c0.2,0.3,0.4,0.5,0.5,0.6c0.1,0.2,0.3,0.5,0.6,0.9
		c0.3,0.4,0.5,0.7,0.5,0.9c0.2,0.3,0.5,0.7,1,1.2c0.4,0.6,0.7,0.8,0.8,0.8c0.2,0.2,0.5,0.6,1,1.1l3.3,3.2c0.5,0.5,0.9,0.8,1.2,1
		c0,0.1,0.1,0.2,0.2,0.4l0,0.1c0.1,0.2,0.2,0.3,0.2,0.4l0,0.5c-0.1,0.2-0.2,0.4-0.4,0.9c-0.2,0.4-0.3,0.7-0.3,0.8
		c-0.1,0.1-0.3,0.3-0.5,0.5c-0.2,0.3-0.5,0.5-0.8,0.8c-0.3,0.3-0.6,0.5-0.8,0.7c-0.3,0.2-0.5,0.4-0.6,0.5l-0.5,0.2
		c-0.3,0.1-0.5,0.2-0.7,0.2l-0.9,0c-0.2-0.1-0.3-0.1-0.4-0.2c-0.1,0-0.1,0-0.1,0c0,0-0.1,0-0.1,0c-0.1,0-0.1,0-0.2-0.1
		c-0.1-0.2-0.4-0.5-0.8-0.8c-0.4-0.3-0.7-0.5-0.8-0.6c-0.2-0.1-0.6-0.3-1.1-0.9c-0.5-0.5-0.9-0.9-1-1.2c-0.1-0.1-0.3-0.3-0.5-0.5
		c-0.3-0.3-0.5-0.5-0.8-0.8c-0.3-0.3-0.5-0.6-0.8-0.8c-0.3-0.3-0.4-0.4-0.5-0.5c-0.1-0.1-0.2-0.3-0.4-0.6c-0.2-0.3-0.5-0.6-0.7-1
		s-0.5-0.7-0.8-1.1c-0.3-0.4-0.4-0.6-0.5-0.8c-0.1-0.1-0.3-0.3-0.5-0.6c-0.2-0.3-0.4-0.5-0.5-0.5c-0.2-0.3-0.4-0.7-0.9-1.4
		c-0.4-0.7-0.8-1.4-1.2-2.2c-0.4-0.8-0.8-1.5-1.2-2.2c-0.4-0.7-0.7-1.1-0.9-1.4l-0.7-0.4l0,2.1l-0.5,0c-0.1-0.2-0.1-0.4-0.2-0.6
		c-0.1-0.2-0.1-0.4-0.2-0.6s-0.1-0.3-0.2-0.5c0-0.1,0-0.3-0.1-0.7c-0.1-0.4-0.1-0.7-0.1-1.1c0-0.4-0.1-0.8-0.1-1.1s-0.1-0.6-0.1-0.7
		c0-0.1-0.1-0.3-0.2-0.6c-0.1-0.3-0.2-0.6-0.2-0.8l-0.5-0.7c-0.1-0.1-0.3-0.3-0.5-0.5c-0.2-0.3-0.4-0.4-0.5-0.4l0,0.9
		c0.1,0.2,0.1,0.7,0.2,1.6c0.1,0.8,0.1,1.8,0.2,2.7c0.1,1,0.1,1.9,0.1,2.8s0,1.4,0,1.6l0,11.6l-0.5,2.1l-0.4-0.4c0,0,0-0.1-0.1-0.4
		c-0.1-0.3-0.1-0.6-0.1-0.9c0-0.4-0.1-0.7-0.1-1.1c0-0.4,0-0.6,0-0.8c-0.1-0.3-0.1-0.8-0.2-1.7c-0.1-0.9-0.1-2-0.2-3.2
		c-0.1-1.2-0.1-2.5-0.2-3.9s-0.2-2.7-0.2-3.9c-0.1-1.2-0.1-2.3-0.1-3.2c0-0.9,0-1.5,0-1.8c-0.1-0.1-0.1-0.3-0.2-0.7
		c-0.1-0.3-0.1-0.7-0.1-1c0-0.3-0.1-0.7-0.1-1c-0.1-0.3-0.1-0.5-0.2-0.6c-0.1,0-0.3,0-0.6-0.1c-0.3-0.1-0.5-0.1-0.5-0.1
		c-0.1,0-0.4,0.1-0.8,0.2c-0.2,0.1-0.4,0.1-0.5,0.1c-0.1,0-0.4,0.1-1,0.3c-0.6,0.2-1.1,0.3-1.5,0.4c-0.1,0.1-0.4,0.2-0.8,0.4
		c-0.4,0.2-0.7,0.3-0.8,0.4c0,0.2,0,0.4,0.1,0.7c0.1,0.3,0.1,0.6,0.1,0.9c0,0.3,0.1,0.6,0.1,0.9s0.1,0.5,0.1,0.6
		c0.1,0.3,0.2,0.7,0.3,1.3s0.2,1,0.3,1.1c0,0.2,0,0.4,0.1,0.8c0.1,0.3,0.1,0.6,0.2,0.9L264.9,71.6L264.9,71.6z M206,75.8
		c-0.1,0.3-0.3,0.7-0.5,1.4c-0.3,0.6-0.4,1-0.4,1.2c0,0.1,0,0.3,0,0.5s0,0.4,0,0.5l0.5,0c0.2-0.1,0.5-0.2,1.1-0.3
		c0.6-0.1,0.9-0.2,1-0.3l0-0.2l0-0.2c0-0.2-0.1-0.6-0.4-1.2c-0.2-0.6-0.4-1.1-0.4-1.3c-0.1,0-0.2-0.1-0.3-0.3
		c-0.1-0.2-0.1-0.3-0.2-0.3C206.4,75.1,206,75.8,206,75.8z M293.2,60.9c0,0.1,0,0.3,0,0.5c0,0.2,0,0.5,0.1,0.7
		c0.1,0.3,0.1,0.5,0.2,0.8c0,0.2,0.1,0.5,0.3,0.9c0.2,0.4,0.4,0.7,0.6,0.9c0,0.1,0.2,0.3,0.7,0.8c0.4,0.5,0.8,0.8,1,0.9
		c0.1,0,0.2,0.1,0.4,0.2c0.2,0.1,0.3,0.2,0.4,0.2l2.3,0l1.9,0c0.1,0,0.2-0.1,0.4-0.2c0.2-0.1,0.5-0.2,0.7-0.3s0.5-0.3,0.8-0.4
		c0.3-0.2,0.4-0.3,0.5-0.4c0.1-0.1,0.3-0.2,0.5-0.4s0.4-0.3,0.5-0.4c0.1-0.2,0.2-0.5,0.4-0.9c0.2-0.4,0.3-0.7,0.3-0.9l0-1l0-1.1
		c0-0.1-0.1-0.4-0.4-0.8c-0.2-0.4-0.4-0.7-0.4-0.8c-0.1-0.1-0.3-0.2-0.7-0.4c-0.3-0.2-0.6-0.3-0.7-0.3c-0.1-0.1-0.4-0.2-0.9-0.3
		c-0.6-0.1-1-0.1-1.2-0.1l-1,0l-1.1,0c-0.3,0-0.6,0-1.1,0s-0.9,0.1-1.4,0.1c-0.5,0-0.9,0.1-1.3,0.1c-0.4,0.1-0.6,0.1-0.7,0.2
		c-0.1,0-0.3,0.1-0.5,0.2c-0.2,0.1-0.3,0.1-0.4,0.2c0,0.2,0,0.6-0.1,1.1C293.2,60.4,293.2,60.7,293.2,60.9L293.2,60.9z"/>
	<path fill="#FF0000" stroke="#FFFFFF" stroke-linejoin="round" stroke-miterlimit="1.4142" d="M171,56.8c0.1,0.1,0.2,0.1,0.3,0.1
		c0.1,0,0.2,0.1,0.4,0.3c0.2,0.2,0.3,0.3,0.3,0.4c0,0.1,0,0.1,0.1,0.2c0,0.1,0,0.1,0,0.2c0,0.1,0,0.1,0,0.2l-0.2,0.3
		c0,0.2,0,0.5-0.1,0.8s-0.1,0.5-0.2,0.5c0,0-0.1,0.1-0.2,0.3c-0.1,0.2-0.2,0.4-0.4,0.5c-0.2,0.2-0.3,0.4-0.5,0.5s-0.3,0.3-0.3,0.3
		c-0.1,0.1-0.1,0.1-0.1,0.2c0,0.1-0.1,0.2-0.1,0.3c-0.1,0.2-0.1,0.3-0.2,0.4l0.1,12.5l0.5,0c0.1,0,0.2,0,0.4-0.1
		c0.2-0.1,0.5-0.1,0.7-0.1c0.2,0,0.5-0.1,0.7-0.1c0.2-0.1,0.3-0.1,0.3-0.1c0.4-0.1,1-0.2,1.9-0.4c0.9-0.2,1.9-0.4,2.9-0.6
		c1.1-0.2,2-0.4,2.9-0.5c0.9-0.2,1.5-0.3,1.9-0.3l0.7-0.4l-0.1-13c0-0.1,0.1-0.3,0.4-0.7c0.3-0.4,0.5-0.7,0.6-1l2.1-2.1
		c0.1,0,0.3-0.1,0.7-0.3c0.4-0.2,0.6-0.3,0.8-0.4l0.3,0l0.2,0c0.2,0,0.4,0,0.7,0.2c0.2,0,0.3,0.1,0.4,0.2l0.1,15l0.5,2.5l0.1,12.8
		c0.1,0.5,0.1,1.4,0.2,2.6c0,1.1,0.1,2.2,0.1,3.3l0,1c0,1.2,0.1,2.3,0.1,3.3c0.1,1.2,0.1,2,0.2,2.5c0,0.1,0,0.2,0.1,0.5
		c0.1,0.3,0.1,0.7,0.1,1c0,0.4,0.1,0.7,0.1,1.1s0.1,0.5,0.1,0.6l0,2.1c0,0.1-0.1,0.3-0.2,0.6l0,0.1c-0.1,0.3-0.2,0.5-0.2,0.6
		c-0.1,0.1-0.1,0.4-0.2,0.9c0,0.5-0.1,1-0.1,1.5c0,0.5-0.1,1-0.1,1.4c0,0.4-0.1,0.7-0.2,0.7c0,0.2,0,0.5-0.1,0.8
		c-0.1,0.3-0.2,0.5-0.3,0.6c-0.1,0.1-0.1,0.1-0.2,0.1c-0.1,0.1-0.3,0.1-0.5,0.1l0-4.3c0,0.2,0,0.4,0,0.9c0,0.4-0.1,0.9-0.1,1.4
		c0,0.5-0.1,1-0.1,1.4c0,0.4-0.1,0.7-0.2,0.9c0,0.2-0.1,0.4-0.2,0.7c-0.1,0.3-0.2,0.5-0.3,0.5c0,0.1,0,0.1-0.1,0.2l0,0.1h-0.1
		l-0.2,0c-0.1,0-0.1-0.1-0.1-0.2c0-0.1-0.1-0.4-0.2-1c-0.1-0.6-0.2-0.9-0.2-1.1c-0.1-0.2-0.2-0.6-0.3-1.2c-0.1-0.6-0.2-1-0.2-1.2
		l-0.9,0c-0.1,0-0.2-0.1-0.4-0.2c-0.2-0.1-0.3-0.2-0.3-0.3c-0.1,0-0.2-0.2-0.3-0.5c-0.1-0.3-0.1-0.6-0.2-0.7
		c-0.1-0.2-0.2-0.6-0.3-1.1c-0.1-0.5-0.1-0.9-0.1-1c-0.1-0.2-0.1-0.6-0.2-1.2c-0.1-0.6-0.1-1.3-0.1-2c0-0.7-0.1-1.4-0.1-2
		c-0.1-0.6-0.1-1.1-0.2-1.3c0-0.4,0-1.2-0.1-2.6c-0.1-1.2-0.1-2.5-0.1-3.9l0-1.2c0-1.4-0.1-2.7-0.1-3.9c-0.1-1.4-0.1-2.3-0.1-2.6
		c0-0.2,0-0.4,0-0.8c0-0.4-0.1-0.8-0.1-1.2c-0.1-0.4-0.1-0.8-0.1-1.2c0-0.4,0-0.7,0-0.8l-1.1,0l-1,0c-0.3,0-0.7,0.1-1.4,0.2
		c-0.6,0.1-1,0.2-1.2,0.2c0,0.1-0.1,0.2-0.2,0.3c-0.1,0.1-0.2,0.2-0.2,0.3c0,0.3-0.1,0.8-0.1,1.6c0,0.8-0.1,1.6-0.1,2.5
		c0,0.9-0.1,1.8-0.1,2.5c0,0.8-0.1,1.4-0.1,1.7c0,0.1,0,0.4-0.1,0.8c0,0.5-0.1,1-0.1,1.6c0,0.6-0.1,1.2-0.1,1.7s-0.1,0.9-0.1,1.2
		c0,0.2,0,0.4,0,0.8c0,0.4-0.1,0.8-0.1,1.3c0,0.5-0.1,0.9-0.1,1.3s0,0.6,0,0.7c0,0.2-0.1,0.4-0.2,0.7c0,0.2-0.1,0.5-0.1,0.8l0,0.2
		c0,0.3-0.1,0.5-0.1,0.8c-0.1,0.3-0.1,0.5-0.1,0.6c0-0.2-0.1-0.6-0.2-1.1l0-0.2c-0.1-0.6-0.2-0.9-0.2-1.1l0-1l0-1.1
		c0-0.3,0-0.8,0.1-1.7c0-0.9,0.1-1.9,0.1-2.9c0-1.1,0.1-2,0.1-2.9s0.1-1.4,0.1-1.7l0-7l-0.6,0c0,0.1,0,0.3,0,0.5
		c0,0.3,0.1,0.5,0.1,0.8c0,0.3,0.1,0.6,0.1,0.9c0,0.3,0,0.5,0,0.6c-0.1,0.2-0.2,0.6-0.3,1.1c-0.1,0.5-0.2,0.8-0.3,1h-0.2l-0.2,0
		c-0.1-0.1-0.1-0.2-0.3-0.4c-0.1-0.2-0.2-0.3-0.2-0.4c0-0.2,0-0.4,0-0.8c0-0.4,0-0.7,0-1.1c0-0.4,0-0.7,0-1.1c0-0.3,0-0.6,0-0.7
		c-0.1,0-0.4,0-0.9-0.1c-0.5,0-0.8-0.1-0.9-0.1c-0.2,0-0.4,0.1-0.8,0.2c-0.4,0.1-0.7,0.2-0.8,0.3l0,2.5c0.1,0.2,0.1,0.5,0.2,1.1
		c0.1,0.6,0.2,1.3,0.3,2c0.1,0.8,0.2,1.5,0.3,2.3c0.1,0.7,0.1,1.3,0.2,1.7c0,0.2,0,0.6,0.1,1.1c0.1,0.5,0.2,1.1,0.3,1.7
		c0.1,0.6,0.2,1.2,0.3,1.8c0.1,0.6,0.1,1,0.1,1.2c0,0.1,0,0.4,0.1,0.8c0.1,0.4,0.2,0.9,0.3,1.4c0.1,0.5,0.2,1,0.3,1.4
		c0.1,0.5,0.2,0.8,0.2,0.9l0,1.7c-0.1,0.1-0.1,0.1-0.2,0.2c-0.1,0.1-0.1,0.2-0.2,0.3c-0.1,0.1-0.1,0.1-0.2,0.2
		c-0.1,0.2-0.2,0.5-0.4,0.8s-0.3,0.5-0.4,0.6c-0.1,0.1-0.2,0.3-0.4,0.5c-0.2,0.2-0.5,0.5-0.7,0.7c-0.3,0.3-0.5,0.5-0.8,0.7
		s-0.4,0.4-0.5,0.5l0.1,18.8l-0.4,0.8c-0.1-0.2-0.2-0.5-0.4-1c-0.1-0.5-0.2-0.9-0.2-1.1c0-0.2,0-0.4-0.1-0.8
		c-0.1-0.4-0.1-0.8-0.1-1.3c0-0.4-0.1-0.8-0.1-1.2c-0.1-0.4-0.1-0.7-0.1-0.8c0-0.5,0-1.4-0.1-2.7c0-1.1-0.1-2.3-0.1-3.5l0-1
		c0-1.2-0.1-2.4-0.1-3.5c-0.1-1.3-0.1-2.1-0.2-2.7c-0.1-0.1-0.2-0.4-0.4-0.8c-0.2-0.4-0.3-0.8-0.3-1c-0.1-0.1-0.2-0.3-0.4-0.7
		c-0.1-0.4-0.2-0.7-0.2-0.9c0-0.1,0-0.4-0.1-0.8c-0.1-0.4-0.2-0.9-0.3-1.5c-0.1-0.5-0.2-1.1-0.3-1.5s-0.1-0.9-0.2-1.1
		c0-0.3-0.1-0.8-0.2-1.6c-0.1-0.8-0.2-1.2-0.2-1.4c-0.1-0.6-0.2-1.6-0.4-3c-0.2-1.4-0.3-2.9-0.5-4.4c-0.2-1.5-0.4-2.9-0.5-4.2
		c-0.2-1.3-0.3-2.2-0.4-2.6c0-0.3,0-0.6,0-1.1c0-0.5-0.1-0.9-0.1-1.4c-0.1-0.5-0.1-0.9-0.1-1.3c0-0.4,0-0.6,0-0.7l0-4.9l0-4.6
		c0-0.1,0-0.5,0.1-1.2c0.1-0.7,0.1-1.2,0.1-1.5c0.1-0.3,0.2-0.5,0.3-0.9l0.2-0.6c0.1-0.2,0.3-0.6,0.7-1.3c0.3-0.6,0.5-1.1,0.6-1.4
		c0.1-0.1,0.2-0.2,0.4-0.5c0.2-0.3,0.3-0.5,0.4-0.6l0.9-0.9c0.1-0.1,0.3-0.2,0.6-0.4c0.3-0.2,0.5-0.3,0.5-0.4l0.9-0.5
		c0.2-0.1,0.4-0.2,0.7-0.2c0.1,0,0.2,0,0.3-0.1l0,0c0.1-0.1,0.2-0.1,0.3-0.1C170.7,56.7,170.8,56.7,171,56.8L171,56.8L171,56.8z
		 M239.7,46.3c0.1,0.1,0.2,0.1,0.4,0.2c0.2,0.1,0.3,0.2,0.4,0.3l0.4,0.3c0.1,0.1,0.1,0.2,0.2,0.3c0.1,0.1,0.1,0.3,0.2,0.4
		c0.1,0.2,0.1,0.4,0.2,0.5c0.1,0.2,0.2,0.4,0.4,0.7c0.2,0.3,0.3,0.6,0.4,0.7c0.2,0.2,0.5,0.6,1.1,1.2c0.6,0.6,1.2,1.2,1.9,1.8
		l3.3,3.2c0.1,0,0.2,0.1,0.5,0.3c0.3,0.2,0.6,0.5,0.9,0.8c0.3,0.3,0.7,0.6,1,0.8s0.5,0.4,0.6,0.5c0.1,0.1,0.3,0.3,0.6,0.6
		s0.6,0.6,0.9,0.9c0.3,0.3,0.6,0.6,0.8,0.9c0.3,0.3,0.4,0.5,0.5,0.6c0.1,0.1,0.1,0.3,0.3,0.5c0.1,0.2,0.2,0.4,0.2,0.5
		c-0.1,0.2-0.2,0.3-0.2,0.5c-0.1,0.1-0.1,0.2-0.2,0.3c0,0.1-0.1,0.2-0.1,0.3c0,0.1,0,0.2-0.1,0.3c-0.1,0.1-0.1,0.2-0.2,0.3
		c0,0.2-0.1,0.3-0.2,0.4c-0.1,0.1-0.3,0.2-0.5,0.4c-0.2,0.2-0.4,0.4-0.7,0.6c-0.2,0.2-0.4,0.5-0.6,0.7c-0.2,0.2-0.3,0.3-0.3,0.4
		c-0.1,0.1-0.4,0.2-0.8,0.4s-0.7,0.3-0.9,0.4l-0.6,0l-0.7,0c-0.1-0.1-0.3-0.2-0.5-0.4c-0.3-0.2-0.5-0.4-0.9-0.7
		c-0.3-0.2-0.6-0.4-0.9-0.7c-0.3-0.2-0.5-0.3-0.6-0.4c-0.3-0.3-0.8-0.6-1.4-1c-0.6-0.4-1-0.6-1.1-0.7c-0.2-0.1-0.6-0.3-1.2-0.6
		c-0.7-0.3-1.1-0.5-1.4-0.5c-0.2-0.1-0.6-0.3-1.2-0.5c-0.6-0.2-1-0.4-1.2-0.5l-0.7,0l0,4.2l-0.7,0l0-4.6l-0.7,0
		c0,0.2-0.2,0.6-0.4,1.1c-0.2,0.5-0.3,0.8-0.4,1l-0.4,0.4c-0.1-0.1-0.2-0.3-0.3-0.6c-0.1-0.3-0.2-0.5-0.3-0.5c0-0.2-0.1-0.6-0.2-1.1
		c-0.1-0.5-0.2-0.8-0.2-1c-0.2-0.1-0.6-0.2-1.2-0.3c-0.6-0.1-1-0.2-1.2-0.3l-4.6,0c-0.2,0.1-0.3,0.1-0.5,0.2l-0.8,0.4
		c-0.2,0.1-0.4,0.2-0.9,0.4c-0.4,0.2-0.7,0.3-0.8,0.4l-0.4,0.4c-0.1,0.1-0.1,0.3-0.3,0.5c-0.1,0.2-0.2,0.4-0.2,0.5l0,4.2
		c0.1,0.2,0.2,0.4,0.4,0.6c0.1,0.2,0.2,0.3,0.3,0.5c0.1,0.2,0.1,0.3,0.2,0.4c0.1,0.2,0.3,0.5,0.5,0.8c0.2,0.3,0.4,0.5,0.5,0.6
		c0.1,0.1,0.2,0.3,0.4,0.5s0.4,0.5,0.7,0.7c0.2,0.3,0.5,0.5,0.7,0.7s0.3,0.4,0.4,0.5c0.1,0.2,0.2,0.4,0.5,0.6
		c0.3,0.3,0.6,0.5,0.9,0.8c0.3,0.3,0.6,0.6,0.9,0.9c0.3,0.3,0.5,0.5,0.6,0.7c0.1,0.1,0.3,0.3,0.5,0.5s0.5,0.4,0.9,0.7
		c0.3,0.3,0.6,0.5,0.9,0.8c0.3,0.2,0.5,0.4,0.7,0.4c0.1,0.1,0.4,0.3,0.8,0.7c0.4,0.3,0.7,0.6,0.8,0.7c0.2,0.1,0.4,0.2,0.6,0.4
		c0.3,0.2,0.5,0.3,0.8,0.5s0.5,0.3,0.8,0.4c0.2,0.1,0.4,0.2,0.4,0.3c0.1,0.1,0.5,0.3,1.2,0.6s1.1,0.5,1.3,0.6
		c0.1,0.1,0.2,0.1,0.3,0.2c0.1,0.1,0.2,0.1,0.3,0.2l0.5,0.2l1.6,0l1.4,0c0.1,0,0.1-0.1,0.2-0.2c0.1-0.1,0.2-0.2,0.3-0.3l0.3-0.7
		c0.1-0.2,0.2-0.4,0.3-0.8c0.1-0.4,0.1-0.7,0.1-0.8c0.1-0.1,0.1-0.3,0.2-0.6c0.1-0.3,0.1-0.6,0.2-0.9c0-0.3,0.1-0.6,0.1-0.9
		c0-0.3,0-0.5,0-0.6c0-0.2,0.1-0.5,0.2-0.8c0.1-0.4,0.2-0.6,0.2-0.7c0.1-0.1,0.1-0.3,0.2-0.5c0.1-0.3,0.2-0.4,0.3-0.4
		c0.1-0.1,0.2-0.3,0.4-0.5c0.2-0.3,0.5-0.5,0.8-0.8c0.3-0.3,0.5-0.5,0.7-0.7c0.2-0.2,0.4-0.4,0.5-0.5c0.1-0.1,0.2-0.1,0.4-0.2
		c0.3-0.1,0.5-0.2,0.5-0.2c0.1-0.1,0.2-0.1,0.3-0.2c0.1-0.1,0.2-0.1,0.3-0.2c0.2-0.1,0.3-0.2,0.5-0.2c0.1,0.1,0.3,0.3,0.5,0.5
		c0.3,0.2,0.4,0.4,0.4,0.5l0,2.9c0,0.1,0,0.5-0.2,1.1c-0.1,0.6-0.1,1.1-0.1,1.5c-0.1,0.1-0.2,0.4-0.3,0.8c-0.1,0.4-0.2,0.7-0.3,0.8
		c0,0.2-0.1,0.5-0.3,1c-0.2,0.5-0.4,0.9-0.4,1.1c0,0.2-0.1,0.5-0.4,0.9c-0.3,0.5-0.4,0.7-0.5,0.8c0,0.1-0.1,0.3-0.3,0.7
		c-0.2,0.3-0.3,0.6-0.4,0.7c-0.2,0.2-0.5,0.5-0.8,0.9c-0.3,0.4-0.5,0.7-0.6,0.8l-0.7,0.7c-0.1,0.1-0.4,0.3-0.8,0.7
		c-0.4,0.3-0.8,0.6-1,0.7c-0.1,0.1-0.2,0.1-0.3,0.2c-0.1,0.1-0.2,0.1-0.3,0.2l-0.5,0.3c-0.1,0.1-0.2,0.1-0.4,0.2
		c-0.2,0.1-0.4,0.2-0.7,0.3c-0.2,0.1-0.5,0.2-0.7,0.3c-0.2,0.1-0.3,0.1-0.4,0.1c-0.1,0.1-0.3,0.2-0.5,0.3c-0.3,0.1-0.4,0.2-0.4,0.3
		l-0.3,0.7c-0.1,0.1-0.2,0.2-0.3,0.3c-0.1,0.1-0.1,0.2-0.2,0.2c0-0.1,0-0.2-0.1-0.5c-0.1-0.3-0.2-0.5-0.3-0.6c0-0.2-0.1-0.2-0.2-0.2
		h-0.1c-0.1,0-0.2,0.1-0.3,0.2c0,0.4,0,1-0.1,1.9c0,0.9-0.1,1.9-0.1,3c0,1.1-0.1,2.1-0.1,3c0,0.9-0.1,1.6-0.1,1.9
		c0,0.2,0,0.6-0.1,1.4c-0.1,0.7-0.1,1.3-0.1,1.7c-0.1,0.3-0.2,0.6-0.3,1.2c-0.1,0.5-0.2,0.8-0.2,0.9c0,0.1-0.1,0.2-0.2,0.4
		c-0.1,0.2-0.2,0.3-0.2,0.4l-0.1-16.3c-0.2,0-0.6-0.1-1.2-0.3c-0.7-0.2-1.1-0.4-1.4-0.5l-2.5-1.2c-0.1-0.1-0.3-0.2-0.7-0.4
		c-0.4-0.2-0.7-0.5-1.1-0.7l-2-1.3c-0.1-0.1-0.3-0.2-0.5-0.3c-0.2-0.2-0.4-0.4-0.7-0.5c-0.2-0.2-0.4-0.3-0.6-0.5
		c-0.2-0.2-0.3-0.3-0.3-0.3l-6.3-6.2l-0.5-0.6c-0.1-0.2-0.2-0.3-0.3-0.5c-0.1-0.2-0.2-0.3-0.4-0.4c-0.1-0.2-0.3-0.4-0.5-0.7
		c-0.2-0.3-0.4-0.6-0.5-0.7l-0.4-0.7c0-0.1-0.1-0.3-0.2-0.7c-0.1-0.4-0.2-0.6-0.3-0.7c0-0.1-0.1-0.4-0.2-0.9
		c-0.1-0.2-0.1-0.4-0.2-0.7l0-1.5l0-1.4c0-0.2,0-0.5,0.2-0.9c0.1-0.4,0.2-0.7,0.1-0.9c0.1-0.2,0.3-0.5,0.5-1
		c0.2-0.4,0.4-0.9,0.7-1.3c0.2-0.4,0.4-0.8,0.6-1.2c0.2-0.4,0.3-0.6,0.3-0.7c0.1-0.1,0.3-0.3,0.7-0.7c0.4-0.4,0.8-0.8,1.2-1.2
		c0.4-0.4,0.9-0.9,1.3-1.3s0.7-0.8,1-1c0.1-0.1,0.3-0.3,0.7-0.5c0.3-0.2,0.6-0.4,0.7-0.5c0.2-0.1,0.6-0.2,1.2-0.5
		c0.6-0.3,1-0.5,1.2-0.6c0.3-0.1,0.7-0.3,1.3-0.5c0.6-0.2,1-0.4,1.2-0.5c0.2,0,0.4,0,0.8,0c0.4,0,0.9-0.1,1.4-0.1
		c0.5-0.1,1-0.1,1.4-0.1c0.4,0,0.7,0,0.9,0c-0.1-0.2-0.1-0.6-0.1-1.1c0-0.5,0-0.8,0.1-1c0-0.2,0.1-0.5,0.4-0.9
		c0.3-0.4,0.4-0.7,0.5-0.9c0.1-0.2,0.4-0.5,1-1c0.6-0.5,0.9-0.9,1.1-1.1l1.5-0.8l0.5,0L239.7,46.3L239.7,46.3L239.7,46.3z
		 M209.6,46.6l0,3.9c0,0,0,0.1,0,0.4c0,0.3-0.1,0.6-0.1,0.9c0,0.3-0.1,0.7-0.1,1c0,0.3,0,0.5,0,0.5l0,1.6c0,0.1,0,0.5,0,1.3
		c0,0.7,0.1,1.6,0.1,2.5c0,0.9,0.1,1.7,0.1,2.5s0.1,1.2,0.1,1.3c0,0.2,0.1,0.5,0.2,1.1c0.1,0.6,0.2,0.9,0.2,1
		c0.1,0.3,0.3,0.7,0.5,1.5c0.2,0.7,0.4,1.2,0.5,1.5c0.1,0.3,0.2,0.7,0.4,1.3c0.2,0.6,0.4,1.2,0.7,1.9c0.2,0.7,0.5,1.3,0.7,1.9
		c0.2,0.6,0.3,1,0.4,1.2c0.1,0.2,0.2,0.5,0.4,1c0.2,0.5,0.3,0.9,0.4,1.1c0.1,0.3,0.3,0.6,0.5,1c0.3,0.4,0.4,0.6,0.4,0.7
		c0.1,0,0.4,0.1,0.8,0.3c0.4,0.2,0.7,0.3,0.8,0.3c0.1,0.1,0.2,0.2,0.3,0.3c0.1,0.1,0.2,0.1,0.2,0.2c-0.1,0.3-0.2,0.9-0.1,1.7
		c0,0.8,0.1,1.4,0.2,1.7c0,0,0.1,0.2,0.2,0.5c0.2,0.3,0.3,0.7,0.5,1.2c0.2,0.5,0.4,0.9,0.7,1.4c0.3,0.5,0.5,0.8,0.6,1.1
		c0.1,0.1,0.2,0.6,0.5,1.4c0.3,0.8,0.6,1.8,0.9,2.8c0.3,1,0.7,1.9,0.9,2.8c0.3,0.9,0.5,1.3,0.5,1.4c0.1,0.4,0.3,0.7,0.5,0.9
		c0.1,0.2,0.2,0.4,0.4,0.6l0,1.7c-0.1,0.1-0.2,0.4-0.4,0.8c-0.2,0.4-0.3,0.8-0.4,1l-2.1,2.1c-0.1,0-0.3,0.1-0.5,0.2
		c-0.2,0.1-0.4,0.2-0.5,0.2l-1,0l-1.1,0c-0.1,0-0.3-0.2-0.8-0.5c-0.5-0.3-0.8-0.6-0.9-0.7c0-0.1-0.1-0.3-0.2-0.6s-0.2-0.5-0.2-0.6
		l0-1.4l-0.3-0.6c-0.1-0.2-0.2-0.3-0.2-0.5c-0.1-0.2-0.1-0.3-0.2-0.4c-0.4-0.6-0.8-1.5-1.3-2.9c-0.5-1.4-1.1-2.8-1.6-4.2
		c-0.6-1.7-1.3-3.5-2-5.4l-3.4,0c0,0.2,0,0.4-0.2,0.8c-0.1,0.4-0.2,0.7-0.2,0.9c-0.1,0-0.2,0.1-0.3,0.2c-0.1,0.1-0.1,0.2-0.2,0.2
		c0,0.2,0,0.6-0.1,1.1c0,0.5-0.1,1.1-0.1,1.7s-0.1,1.2-0.1,1.8c0,0.6-0.1,1-0.1,1.2c-0.1,0.2-0.2,0.6-0.3,1.2
		c-0.1,0.6-0.2,1-0.3,1.2c0,0.2-0.1,0.4-0.2,0.8c-0.2,0.4-0.2,0.7-0.2,0.9l0-11.4c-0.2,0-0.4-0.1-0.7-0.2c-0.3-0.1-0.6-0.2-0.9-0.3
		c-0.3-0.1-0.6-0.2-0.8-0.2c-0.3-0.1-0.4-0.1-0.5,0c-0.1,0.2-0.2,0.4-0.4,0.6c-0.3,0.5-0.4,0.8-0.5,1.1c-0.1,0.2-0.2,0.6-0.4,1.1
		s-0.3,0.9-0.4,1c0,0.1,0,0.2,0,0.4c0,0.2-0.1,0.4-0.1,0.7c0,0.2-0.1,0.5-0.1,0.7c0,0.2,0,0.3,0,0.4c0,0.1-0.1,0.2-0.2,0.4
		c-0.1,0.2-0.2,0.3-0.2,0.4c-0.2,0.1-0.4,0.3-0.6,0.5c-0.3,0.2-0.5,0.5-0.8,0.8c-0.3,0.3-0.5,0.5-0.8,0.8c-0.3,0.2-0.4,0.3-0.5,0.4
		l-1.5,0.9l-0.3,0l-0.2,0c-0.1,0-0.2-0.1-0.4-0.2c-0.2-0.1-0.3-0.2-0.4-0.3c-0.1-0.1-0.1-0.1-0.2-0.2c-0.1-0.2-0.2-0.4-0.2-0.5
		l0-0.5l0-0.4c0-0.2,0-0.5,0.1-0.9c0.1-0.5,0.2-0.7,0.2-0.8c0.1-0.2,0.3-0.6,0.5-1.1s0.4-1.1,0.6-1.7c0.2-0.6,0.4-1.1,0.6-1.7
		c0.2-0.5,0.3-0.9,0.4-1l0-0.8c-0.2,0-0.5,0-1-0.1c-0.5-0.1-0.9-0.2-1.1-0.3c0-0.1-0.1-0.3-0.2-0.5c-0.1-0.2-0.2-0.4-0.2-0.5v-0.1
		l0-0.4c0-0.1,0-0.3,0.2-0.7c0-0.2,0.1-0.4,0.2-0.5l2.9-2.9c0.1,0,0.2,0,0.4-0.1c0.2-0.1,0.4-0.1,0.7-0.2c0.2-0.1,0.5-0.2,0.7-0.2
		c0.2-0.1,0.3-0.1,0.4-0.2c0-0.1,0.1-0.4,0.4-0.9c0.3-0.5,0.4-0.9,0.5-1.2c0-0.3,0.2-0.8,0.4-1.5c0.2-0.7,0.5-1.5,0.8-2.3
		c0.3-0.8,0.5-1.6,0.7-2.3c0.2-0.7,0.4-1.2,0.5-1.5c0.1-0.1,0.1-0.2,0.2-0.5c0.1-0.2,0.1-0.5,0.2-0.7l0.1-0.3
		c0.1-0.2,0.1-0.4,0.2-0.7c0.1-0.3,0.1-0.5,0.2-0.6c0.1-0.2,0.1-0.5,0.2-0.9c0.1-0.4,0.2-0.8,0.3-1.1c0.1-0.4,0.2-0.7,0.3-1
		c0.1-0.3,0.1-0.5,0.1-0.5c0-0.1,0-0.5,0-1.4s0-1.9,0.1-2.9c0-1.1,0-2,0-2.9c0-0.9,0-1.4,0-1.5c0.1-0.1,0.2-0.4,0.3-0.8
		c0.1-0.4,0.2-0.7,0.3-0.8c0-0.1,0.1-0.3,0.4-0.8c0.3-0.5,0.4-0.8,0.5-0.9c0-0.1,0.1-0.3,0.3-0.6c0.2-0.3,0.4-0.5,0.5-0.5
		c0-0.1,0-0.2,0.1-0.3c0.1-0.1,0.1-0.2,0.2-0.3c0.2-0.2,0.5-0.4,1-0.6c0.4-0.3,0.7-0.4,0.8-0.5c0.1-0.1,0.3-0.1,0.5-0.2
		c0.3-0.1,0.6-0.2,0.8-0.2l0.4,0l0.5,0L209.6,46.6L209.6,46.6z M296.4,71.7l-0.6,0l0,5.9l-0.7,0l-0.8-5.5c-0.3,0-0.8,0-1.5-0.1
		c-0.7-0.1-1.2-0.2-1.5-0.3c-0.1,0-0.3,0-0.6-0.1c-0.3-0.1-0.5-0.1-0.5-0.2c-0.2-0.1-0.5-0.3-1-0.5c-0.4-0.2-0.7-0.4-0.8-0.5
		l-0.5-0.5c-0.2-0.2-0.3-0.3-0.4-0.4c-0.1-0.1-0.2-0.2-0.3-0.2c0-0.1-0.1-0.3-0.3-0.7c-0.2-0.3-0.4-0.6-0.5-0.7
		c-0.1-0.2-0.2-0.4-0.4-0.9s-0.3-0.7-0.3-0.8c-0.1-0.1-0.2-0.4-0.4-0.8s-0.2-0.7-0.2-0.8l0-2.6l0-2.1c0-0.2,0.1-0.6,0.4-1.1
		c0.3-0.5,0.4-0.9,0.5-1c-0.2,0-0.4,0-0.8-0.1c-0.4,0-0.8-0.1-1.2-0.1c-0.4,0-0.8-0.1-1.2-0.1c-0.4,0-0.7-0.1-0.8-0.1
		c-0.1,0-0.3,0-0.5-0.2c-0.2-0.1-0.4-0.2-0.5-0.3c-0.1,0-0.2-0.1-0.4-0.3s-0.3-0.3-0.4-0.3c0-0.1-0.1-0.2-0.2-0.5
		c-0.1-0.2-0.1-0.3-0.2-0.4l0-1l0-1.1c0-0.1,0-0.3,0.2-0.8c0.1-0.5,0.2-0.8,0.2-0.9c0.1-0.2,0.2-0.6,0.4-1c0.2-0.5,0.4-1,0.5-1.5
		l0.8-2.4c0-0.3,0.3-0.8,0.8-1.5c0.5-0.7,0.8-1.4,0.9-1.8c0.1-0.2,0.3-0.6,0.5-1.2c0.3-0.6,0.5-1.3,0.8-2c0.3-0.7,0.6-1.4,0.8-2
		c0.3-0.6,0.4-1.1,0.5-1.4c0.3-0.6,0.6-1.2,1-1.8s0.9-1.2,1.3-1.8c0.5-0.6,0.9-1.2,1.3-1.9c0.4-0.7,0.7-1.4,0.9-2.2
		c0.1-0.1,0.2-0.2,0.3-0.5s0.3-0.5,0.5-0.8c0.2-0.3,0.4-0.6,0.5-0.9s0.3-0.5,0.4-0.7c0-0.1,0.1-0.2,0.3-0.6c0.2-0.3,0.3-0.6,0.4-0.8
		c0.2-0.2,0.4-0.4,0.7-0.8c0.3-0.4,0.6-0.6,0.7-0.7c0.1-0.2,0.4-0.5,0.8-1c0.4-0.4,0.7-0.7,0.8-0.8c0.1,0,0.2-0.1,0.5-0.4
		c0.3-0.3,0.5-0.4,0.6-0.5c0.1,0,0.2-0.1,0.5-0.2c0.1-0.1,0.2-0.1,0.4-0.2l1.5,0l1.4,0l0.9,0.9c0.1,0.1,0.2,0.2,0.4,0.5
		c0.2,0.3,0.3,0.5,0.4,0.6c0,0.1,0.1,0.4,0.3,0.9s0.3,0.9,0.4,1.2c0.1,0.2,0.3,0.6,0.5,1.2c0.3,0.6,0.4,1,0.4,1.2
		c0,0.1,0,0.3,0.1,0.6s0.2,0.6,0.3,0.9c0.1,0.3,0.2,0.6,0.3,0.9c0.1,0.3,0.1,0.5,0.1,0.7c0,0.1,0.1,0.4,0.2,0.8
		c0.1,0.4,0.2,0.8,0.2,1c0.1,0.3,0.2,0.7,0.3,1.3c0.2,0.5,0.3,1.1,0.5,1.7c0.2,0.6,0.3,1.1,0.4,1.5c0.1,0.5,0.2,0.7,0.2,0.8
		c0,0.3,0.1,0.6,0.4,1c0.2,0.4,0.4,0.8,0.4,1.1c0.1,0.4,0.2,0.9,0.4,1.5c0.1,0.6,0.2,1,0.2,1.1l0,2.8c0,0.1-0.1,0.2-0.2,0.4
		c-0.1,0.2-0.2,0.3-0.3,0.4c-0.1,0.2-0.3,0.5-0.6,0.9c-0.3,0.5-0.5,0.7-0.5,0.8c-0.1,0.1-0.4,0.3-0.8,0.7c-0.4,0.3-0.7,0.6-0.8,0.7
		c-0.1,0-0.3,0.1-0.7,0.2s-0.6,0.2-0.7,0.2l-0.2,0l-0.2,0c-0.1,0-0.2-0.1-0.4-0.2c-0.2-0.1-0.3-0.2-0.4-0.2
		c-0.1-0.1-0.2-0.2-0.2-0.4c-0.1-0.3-0.2-0.5-0.2-0.5c-0.1-0.1-0.2-0.3-0.3-0.6c-0.1-0.3-0.2-0.5-0.3-0.5c0-0.2-0.1-0.5-0.2-1
		c-0.1-0.4-0.2-0.7-0.2-0.8c0-0.2,0-0.4,0-0.8c0-0.4-0.1-0.8-0.1-1.3c-0.1-0.5-0.1-0.9-0.1-1.3c0-0.4,0-0.7,0-0.8
		c-0.1-0.3-0.2-0.6-0.2-0.8c-0.1-0.3-0.1-0.5-0.2-0.7c-0.1-0.2-0.1-0.4-0.1-0.5c-0.1-0.5-0.3-1.1-0.7-1.9c-0.3-0.7-0.6-1.2-0.7-1.5
		c-0.1-0.2-0.2-0.7-0.4-1.4c-0.2-0.7-0.3-1.2-0.4-1.5c-0.1-0.3-0.2-0.6-0.4-1c-0.1-0.4-0.3-0.8-0.4-1.2c-0.2-0.5-0.4-1-0.5-1.5
		l-0.5,0c0,0.2,0,0.5,0,0.9c0,0.5,0,1,0,1.5c0,0.5,0,1,0,1.5c0,0.5,0,0.8,0,0.9c0,0.2-0.1,0.6-0.2,1.2c-0.1,0.6-0.2,1-0.3,1.1
		c0-0.1-0.1-0.3-0.2-0.7c-0.1-0.4-0.2-0.6-0.2-0.7c-0.1-0.2-0.1-0.4-0.2-0.7c-0.1-0.3-0.1-0.7-0.1-1.1c0-0.4-0.1-0.8-0.1-1.1
		s-0.1-0.6-0.2-0.8l-0.7,1.6l0,7.6l-0.5,0.7l-0.6-0.7l0-6.3c-0.1,0.1-0.2,0.3-0.4,0.5s-0.4,0.5-0.6,0.8c-0.2,0.3-0.4,0.6-0.5,0.8
		c-0.2,0.3-0.3,0.5-0.3,0.6c-0.1,0.1-0.2,0.4-0.5,1c-0.3,0.5-0.5,1.2-0.8,1.9s-0.6,1.4-1,2.2c-0.3,0.7-0.6,1.3-0.7,1.7
		c-0.1,0.2-0.2,0.4-0.4,0.7c-0.2,0.2-0.3,0.5-0.4,0.7c-0.1,0.3-0.2,0.7-0.4,1.2c-0.2,0.5-0.4,1-0.5,1.5c-0.2,0.5-0.3,1-0.5,1.4
		c-0.2,0.4-0.3,0.7-0.3,0.7c0,0.1,0.1,0.4,0.2,0.8c0.1,0.4,0.2,0.7,0.2,0.8c0.2,0,0.5,0,1,0c0.5,0,1,0,1.5,0c0.5,0,1.1,0,1.5,0
		s0.9,0,1.1-0.1c0.1,0,0.2,0,0.5,0s0.6-0.1,0.9-0.1c0.3-0.1,0.7-0.1,1-0.1c0.3,0,0.5,0,0.6,0c0.2-0.1,0.5-0.1,0.8-0.2
		c0.4-0.1,0.7-0.1,1.1-0.2c0.4-0.1,0.7-0.1,0.9-0.2c0.3-0.1,0.4-0.1,0.5-0.1l3.6,0l3,0c0.2,0.1,0.6,0.3,1.2,0.5
		c0.6,0.2,1.1,0.4,1.4,0.5c0.1,0.1,0.4,0.4,0.8,0.8c0.4,0.4,0.7,0.8,0.8,1c0.1,0.2,0.2,0.4,0.4,0.8c0.2,0.4,0.3,0.7,0.4,0.8l0,4.6
		c0,0.1-0.1,0.2-0.2,0.5c-0.1,0.3-0.2,0.5-0.2,0.6c-0.1,0.1-0.1,0.3-0.2,0.5s-0.2,0.5-0.4,0.7s-0.3,0.5-0.5,0.8
		c-0.2,0.3-0.3,0.5-0.3,0.6c-0.1,0.2-0.1,0.3-0.2,0.5c-0.1,0.1-0.2,0.2-0.3,0.3c-0.1,0.1-0.1,0.2-0.2,0.3c-0.2,0.2-0.5,0.5-0.8,0.9
		c-0.3,0.4-0.5,0.6-0.6,0.7c0,0.1-0.1,0.2-0.3,0.4c-0.2,0.2-0.3,0.3-0.4,0.4c-0.1,0.1-0.3,0.3-0.5,0.5c-0.3,0.2-0.5,0.4-0.8,0.7
		s-0.5,0.4-0.8,0.6c-0.2,0.2-0.4,0.3-0.4,0.3c-0.1,0.1-0.3,0.3-0.7,0.5c-0.3,0.2-0.6,0.4-0.7,0.5c-0.1,0-0.3,0.1-0.5,0.3
		c-0.3,0.2-0.6,0.4-0.9,0.5c-0.3,0.2-0.6,0.4-0.9,0.5c-0.3,0.2-0.4,0.3-0.5,0.3c-0.1,0-0.2,0.1-0.3,0.2c-0.1,0.1-0.1,0.1-0.1,0.2
		l0,1.2c0,0.2,0,0.5,0.1,1.1c0.1,0.6,0.1,1.2,0.1,1.9c0,0.7,0.1,1.3,0.1,1.9c0.1,0.6,0.1,0.9,0.1,1l0,5.5c0,0.1,0,0.3-0.1,0.6
		c0,0.3-0.1,0.6-0.1,0.9c0,0.3-0.1,0.6-0.1,0.9c0,0.3-0.1,0.4-0.1,0.5c-0.1-0.2-0.2-0.5-0.3-1c-0.1-0.5-0.2-0.9-0.3-1.1
		c-0.1-0.4-0.1-1.1-0.2-2.2c-0.1-1.1-0.2-2.2-0.2-3.4s-0.2-2.3-0.2-3.4c-0.1-1.1-0.1-1.8-0.1-2.2L296.4,71.7L296.4,71.7z
		 M263.3,69.9c0.1,0.4,0.1,0.7,0.2,1.1c0.1,0.4,0.1,0.7,0.1,0.8c0.1,0.1,0.2,0.4,0.3,0.9c0.1,0.5,0.2,0.8,0.2,0.9l0,0.8
		c0,0.1,0,0.3-0.2,0.7c-0.1,0.3-0.2,0.6-0.3,0.7c0,0.1-0.1,0.2-0.3,0.5s-0.3,0.5-0.4,0.6l-0.9,0.9c-0.1,0.1-0.2,0.2-0.5,0.4
		s-0.5,0.3-0.6,0.4c-0.1,0.1-0.2,0.2-0.3,0.2c-0.1,0-0.2,0.1-0.3,0.1c-0.2,0.1-0.3,0.1-0.3,0.1c-0.2,0.1-0.3,0.1-0.4,0.2
		c-0.1,0.1-0.1,0.1-0.2,0.1l-0.2,0c-0.2,0-0.4,0-0.5-0.1c-0.2-0.1-0.3-0.1-0.4-0.2c-0.1,0-0.2,0-0.2-0.1c-0.1-0.1-0.2-0.2-0.2-0.3
		c0-0.1-0.1-0.3-0.2-0.7c-0.1-0.4-0.2-0.7-0.3-1c-0.1-0.3-0.1-0.8-0.3-1.4s-0.2-1.3-0.4-1.9c-0.1-0.7-0.2-1.3-0.4-1.9
		c-0.1-0.6-0.2-0.9-0.3-1.1c0-0.1,0-0.2-0.1-0.4c-0.1-0.2-0.1-0.5-0.1-0.8c0-0.3-0.1-0.6-0.1-0.9c-0.1-0.3-0.1-0.6-0.1-0.8
		c0-0.2,0-0.4-0.1-0.8c-0.1-0.4-0.1-0.7-0.2-1.1s-0.1-0.7-0.2-1c-0.1-0.3-0.1-0.5-0.1-0.5c0-0.3,0-0.8,0-1.4c0-0.6-0.1-1.3-0.1-2
		c-0.1-0.7-0.1-1.3-0.1-1.9c0-0.5,0-0.9,0-1l0-9.4l0-9.3c0-0.1,0-0.3,0.2-0.6s0.2-0.5,0.2-0.5c0.1-0.1,0.2-0.3,0.3-0.5
		c0-0.2,0.1-0.3,0.2-0.4c0.1-0.1,0.3-0.3,0.5-0.5c0.2-0.2,0.4-0.4,0.6-0.7c0.2-0.2,0.4-0.4,0.6-0.6s0.3-0.3,0.4-0.3
		c0.1-0.1,0.4-0.2,0.8-0.4c0.4-0.2,0.7-0.3,0.8-0.4l0.7,0l0.7,0c0.1,0.1,0.1,0.2,0.2,0.2l0.2,0.2c0.1,0.1,0.1,0.4,0.2,0.8
		c0.1,0.4,0.1,0.7,0.1,0.8l0.1,20.5c0.2-0.1,0.4-0.3,0.8-0.5c0.4-0.2,0.8-0.4,1.3-0.6c0.4-0.2,0.8-0.4,1.2-0.6
		c0.4-0.2,0.7-0.3,0.8-0.4c0.1-0.1,0.3-0.3,0.7-0.5c0.3-0.2,0.6-0.4,0.7-0.5c0.2-0.2,0.5-0.4,0.8-0.7c0.4-0.3,0.7-0.6,1-0.9
		c0.3-0.3,0.6-0.5,0.9-0.7c0.3-0.2,0.4-0.3,0.4-0.3c0.2-0.2,0.6-0.6,1.1-1.1c0.5-0.5,1.1-1.1,1.7-1.7c0.6-0.6,1.1-1.2,1.7-1.7
		c0.5-0.5,0.8-0.9,1-1.2c0.1,0,0.1-0.1,0.2-0.3c0.1-0.2,0.2-0.3,0.3-0.3c0-0.1,0.1-0.3,0.2-0.7c0.1-0.4,0.2-0.6,0.2-0.7
		c0.1-0.1,0.1-0.1,0.1-0.2c0-0.1,0-0.2,0.1-0.2c0.1-0.1,0.1-0.2,0.2-0.3c0.2-0.3,0.4-0.6,0.7-1c0.3-0.4,0.5-0.6,0.7-0.7
		c0.1-0.1,0.4-0.4,0.9-0.8c0.5-0.4,0.9-0.8,1.2-1l0.3-0.2c0.2-0.1,0.3-0.2,0.4-0.2c0.2-0.1,0.4-0.2,0.7-0.3c0.3-0.1,0.6-0.1,0.7-0.1
		l0.3-0.1c0.1,0,0.1,0,0.2,0c0.1,0,0.1,0,0.2,0l0.1,0c0.4,0,0.5,0.1,0.5,0.4l0,2.1c0,0.1-0.1,0.2-0.2,0.4s-0.2,0.4-0.3,0.7
		c-0.1,0.3-0.3,0.5-0.4,0.8c-0.2,0.3-0.3,0.4-0.3,0.5c-0.1,0.2-0.4,0.6-0.8,1.3c-0.4,0.6-0.8,1.1-1,1.4c-0.1,0.2-0.3,0.5-0.8,1
		c-0.5,0.5-0.8,0.9-0.9,1.1c-0.2,0.2-0.5,0.6-0.9,1.1s-1,1.1-1.5,1.6c-0.5,0.6-1,1.1-1.5,1.6c-0.5,0.5-0.8,0.9-0.9,1
		c0.1,0.1,0.3,0.3,0.6,0.5c0.3,0.2,0.5,0.4,0.6,0.5c0.1,0.1,0.3,0.2,0.5,0.4c0.2,0.2,0.4,0.4,0.7,0.6c0.2,0.2,0.4,0.4,0.6,0.7
		c0.2,0.2,0.3,0.3,0.3,0.4c0.1,0.1,0.3,0.4,0.7,1.2c0.4,0.7,0.6,1.3,0.9,1.7c0.1,0.2,0.3,0.6,0.6,1.2c0.4,0.7,0.7,1.4,1.1,2.1
		c0.4,0.7,0.8,1.4,1.1,2.1c0.3,0.7,0.6,1.1,0.7,1.2c0,0.1,0.1,0.3,0.3,0.7c0.2,0.3,0.4,0.7,0.7,1.2c0.3,0.4,0.5,0.9,0.8,1.3
		c0.3,0.4,0.5,0.8,0.7,1c0.1,0.1,0.3,0.3,0.5,0.6c0.2,0.3,0.4,0.5,0.5,0.6c0.1,0.2,0.3,0.5,0.6,0.9c0.3,0.4,0.5,0.7,0.5,0.9
		c0.2,0.3,0.5,0.7,1,1.2c0.4,0.6,0.7,0.8,0.8,0.8c0.2,0.2,0.5,0.6,1,1.1l3.3,3.2c0.5,0.5,0.9,0.8,1.2,1c0,0.1,0.1,0.2,0.2,0.4l0,0.1
		c0.1,0.2,0.2,0.3,0.2,0.4l0,0.5c-0.1,0.2-0.2,0.4-0.4,0.9c-0.2,0.4-0.3,0.7-0.3,0.8c-0.1,0.1-0.3,0.3-0.5,0.5
		c-0.2,0.3-0.5,0.5-0.8,0.8c-0.3,0.3-0.6,0.5-0.8,0.7c-0.3,0.2-0.5,0.4-0.6,0.5l-0.5,0.2c-0.3,0.1-0.5,0.2-0.7,0.2l-0.9,0
		c-0.2-0.1-0.3-0.1-0.4-0.2c-0.1,0-0.1,0-0.1,0c0,0-0.1,0-0.1,0c-0.1,0-0.1,0-0.2-0.1c-0.1-0.2-0.4-0.5-0.8-0.8
		c-0.4-0.3-0.7-0.5-0.8-0.6c-0.2-0.1-0.6-0.3-1.1-0.9c-0.5-0.5-0.9-0.9-1-1.2c-0.1-0.1-0.3-0.3-0.5-0.5c-0.3-0.3-0.5-0.5-0.8-0.8
		c-0.3-0.3-0.5-0.6-0.8-0.8c-0.3-0.3-0.4-0.4-0.5-0.5c-0.1-0.1-0.2-0.3-0.4-0.6c-0.2-0.3-0.5-0.6-0.7-1c-0.3-0.4-0.5-0.7-0.8-1.1
		c-0.3-0.4-0.4-0.6-0.5-0.8c-0.1-0.1-0.3-0.3-0.5-0.6c-0.2-0.3-0.4-0.5-0.5-0.5c-0.2-0.3-0.4-0.7-0.9-1.4c-0.4-0.7-0.8-1.4-1.2-2.2
		s-0.8-1.5-1.2-2.2c-0.4-0.7-0.7-1.1-0.9-1.4l-0.7-0.4l0,2.1l-0.5,0c-0.1-0.2-0.1-0.4-0.2-0.6c-0.1-0.2-0.1-0.4-0.2-0.6
		c-0.1-0.2-0.1-0.3-0.2-0.5c0-0.1,0-0.3-0.1-0.7c-0.1-0.4-0.1-0.7-0.1-1.1c0-0.4-0.1-0.8-0.1-1.1s-0.1-0.6-0.1-0.7
		c0-0.1-0.1-0.3-0.2-0.6c-0.1-0.3-0.2-0.6-0.2-0.8l-0.5-0.7c-0.1-0.1-0.3-0.3-0.5-0.5c-0.2-0.3-0.4-0.4-0.5-0.4l0,0.9
		c0.1,0.2,0.1,0.7,0.2,1.6c0.1,0.8,0.1,1.8,0.2,2.7c0.1,1,0.1,1.9,0.1,2.8s0,1.4,0,1.6l0,11.6l-0.5,2.1l-0.4-0.4c0,0,0-0.1-0.1-0.4
		c-0.1-0.3-0.1-0.6-0.1-0.9c0-0.4-0.1-0.7-0.1-1.1s0-0.6,0-0.8c-0.1-0.3-0.1-0.8-0.2-1.7c-0.1-0.9-0.1-2-0.2-3.2
		c-0.1-1.2-0.1-2.5-0.2-3.9c-0.1-1.4-0.2-2.7-0.2-3.9c-0.1-1.2-0.1-2.3-0.1-3.2c0-0.9,0-1.5,0-1.8c-0.1-0.1-0.1-0.3-0.2-0.7
		c-0.1-0.3-0.1-0.7-0.1-1c0-0.3-0.1-0.7-0.1-1c-0.1-0.3-0.1-0.5-0.2-0.6c-0.1,0-0.3,0-0.6-0.1c-0.3-0.1-0.5-0.1-0.5-0.1
		c-0.1,0-0.4,0.1-0.8,0.2c-0.2,0.1-0.4,0.1-0.5,0.1c-0.1,0-0.4,0.1-1,0.3c-0.6,0.2-1.1,0.3-1.5,0.4c-0.1,0.1-0.4,0.2-0.8,0.4
		c-0.4,0.2-0.7,0.3-0.8,0.4c0,0.2,0,0.4,0.1,0.7c0.1,0.3,0.1,0.6,0.1,0.9c0,0.3,0.1,0.6,0.1,0.9c0.1,0.3,0.1,0.5,0.1,0.6
		c0.1,0.3,0.2,0.7,0.3,1.3c0.1,0.6,0.2,1,0.3,1.1c0,0.2,0,0.4,0.1,0.8c0.1,0.3,0.1,0.6,0.2,0.9L263.3,69.9L263.3,69.9z M204.4,74.2
		c-0.1,0.3-0.3,0.7-0.5,1.4c-0.3,0.6-0.4,1-0.4,1.2c0,0.1,0,0.3,0,0.5s0,0.4,0,0.5l0.5,0c0.2-0.1,0.5-0.2,1.1-0.3
		c0.6-0.1,0.9-0.2,1-0.3l0-0.2l0-0.2c0-0.2-0.1-0.6-0.4-1.2c-0.2-0.6-0.4-1.1-0.4-1.3c-0.1,0-0.2-0.1-0.3-0.3
		c-0.1-0.2-0.1-0.3-0.2-0.3C204.8,73.5,204.4,74.2,204.4,74.2z M291.5,59.2c0,0.1,0,0.3,0,0.5c0,0.2,0,0.5,0.1,0.7
		c0.1,0.3,0.1,0.5,0.2,0.8c0,0.2,0.1,0.5,0.3,0.9c0.2,0.4,0.4,0.7,0.6,0.9c0,0.1,0.2,0.3,0.7,0.8c0.4,0.5,0.8,0.8,1,0.9
		c0.1,0,0.2,0.1,0.4,0.2c0.2,0.1,0.3,0.2,0.4,0.2l2.3,0l1.9,0c0.1,0,0.2-0.1,0.4-0.2s0.5-0.2,0.7-0.3c0.3-0.1,0.5-0.3,0.8-0.4
		c0.3-0.2,0.4-0.3,0.5-0.4c0.1-0.1,0.3-0.2,0.5-0.4s0.4-0.3,0.5-0.4c0.1-0.2,0.2-0.5,0.4-0.9c0.2-0.4,0.3-0.7,0.3-0.9l0-1l0-1.1
		c0-0.1-0.1-0.4-0.4-0.8c-0.2-0.4-0.4-0.7-0.4-0.8c-0.1-0.1-0.3-0.2-0.7-0.4c-0.3-0.2-0.6-0.3-0.7-0.3c-0.1-0.1-0.4-0.2-0.9-0.3
		c-0.6-0.1-1-0.1-1.2-0.1l-1,0l-1.1,0c-0.3,0-0.6,0-1.1,0c-0.5,0-0.9,0.1-1.4,0.1c-0.5,0-0.9,0.1-1.3,0.1c-0.4,0.1-0.6,0.1-0.7,0.2
		c-0.1,0-0.3,0.1-0.5,0.2c-0.2,0.1-0.3,0.1-0.4,0.2c0,0.2,0,0.6-0.1,1.1C291.6,58.7,291.5,59.1,291.5,59.2L291.5,59.2z"/>
</g>
</svg>
