<?xml version="1.0" encoding="utf-8"?>
<!-- Generator: Adobe Illustrator 21.1.0, SVG Export Plug-In . SVG Version: 6.00 Build 0)  -->
<svg version="1.1" id="Layer_2" xmlns="http://www.w3.org/2000/svg" xmlns:xlink="http://www.w3.org/1999/xlink" x="0px" y="0px"
	 viewBox="0 0 567.2 100.8" style="enable-background:new 0 0 567.2 100.8;" xml:space="preserve">
<style type="text/css">
	.st0{fill:#FDBC1C;}
	.st1{stroke:#231F20;stroke-width:0.3451;}
	.st2{fill:#EC1C4E;}
</style>
<g>
	<g id="XMLID_1_">
		<g>
			<path class="st0" d="M163.7,44.1v45.4c-0.1,1.8-0.6,3.2-1.4,4.2c-0.8,1-1.7,1.8-2.6,2.3c-1.1,0.6-2.3,1.1-3.6,1.3h-25.4V36.7
				l25-0.1c1.8-0.1,3.3,0.2,4.4,1c1.1,0.8,1.9,1.7,2.4,2.6C163.1,41.4,163.5,42.7,163.7,44.1z M151.1,83.6c0.4-0.9,0.5-2.1,0.4-3.7
				V52.2c-0.1-0.9-0.3-1.7-0.6-2.4c-0.3-0.6-0.8-1.2-1.3-1.8c-0.6-0.6-1.4-0.9-2.5-1h-5.2l0.2,39.4h5.8c0.7-0.1,1.3-0.3,1.9-0.9
				C150.3,85.1,150.7,84.5,151.1,83.6z"/>
			<path d="M166.9,44.3v44.2c0,2.7-0.5,4.8-1.5,6.3c-1,1.5-2.1,2.7-3.3,3.6c-1.4,1-3,1.7-4.8,2.1h-29.8V33.3h26.9
				c3.1,0.1,5.4,0.8,7.1,1.9c1.7,1.1,2.9,2.4,3.7,3.7C166.2,40.5,166.7,42.3,166.9,44.3z M163.7,89.5V44.1c-0.2-1.4-0.6-2.7-1.2-3.8
				c-0.5-1-1.3-1.8-2.4-2.6c-1.1-0.8-2.6-1.1-4.4-1l-25,0.1v60.6H156c1.3-0.3,2.6-0.7,3.6-1.3c0.9-0.5,1.8-1.3,2.6-2.3
				C163.1,92.7,163.6,91.3,163.7,89.5z"/>
			<path d="M147.9,86.4h-5.8L141.9,47h5.2c1.1,0.1,1.9,0.5,2.5,1c0.6,0.5,1,1.1,1.3,1.8c0.3,0.7,0.5,1.5,0.6,2.4v27.8
				c0.1,1.6-0.1,2.8-0.4,3.7c-0.4,0.9-0.8,1.5-1.3,1.9C149.2,86,148.6,86.3,147.9,86.4z M146.5,83.5c0.4-0.1,0.8-0.2,1.2-0.6
				c0.4-0.3,0.6-0.9,0.7-1.8V52.2c-0.1-0.5-0.3-0.9-0.6-1.2c-0.6-0.7-1.6-0.9-3-0.6v33C145.5,83.5,146,83.6,146.5,83.5z"/>
		</g>
		<g>
		</g>
	</g>
	<g id="XMLID_2_">
		<g>
			<rect x="174.2" y="37.4" class="st0" width="12.3" height="59.2"/>
			<path d="M189.7,33.6v66.7h-18.6V33.6H189.7z M186.5,96.6V37.4h-12.3v59.2H186.5z"/>
		</g>
		<g>
		</g>
	</g>
	<g id="XMLID_3_">
		<g>
			<path class="st0" d="M229.2,44.6l0.2,16.4l-12.4-7.5v-1.2v-1.6c-0.1-0.6-0.3-1.2-0.7-1.7c-0.3-0.5-0.8-0.8-1.3-1.2
				c-0.5-0.4-1.3-0.6-2.3-0.7c-0.8,0.1-1.6,0.2-2.3,0.5c-0.6,0.3-1.1,0.6-1.7,1.2c-0.5,0.5-0.9,1.3-0.9,2.4v7.1l17.1,11
				c0.8,0.6,1.6,1.3,2.3,2c0.6,0.6,1.1,1.2,1.5,2c0.4,0.8,0.6,1.5,0.6,2.3v14.3c0,1.3-0.2,2.6-0.8,3.6c-0.4,0.9-1.1,1.7-2.1,2.5
				c-0.9,0.8-2.3,1.2-4.2,1.2h-18.7c-1.3-0.1-2.5-0.5-3.5-1.1c-0.9-0.5-1.7-1.3-2.5-2.2c-0.5-0.6-0.8-1.4-1-2.4
				c-0.1-0.6-0.2-1.2-0.2-1.9l0.2-15.7l11.2,6.7v3.1c0.1,0.8,0.4,1.4,0.8,2c0.3,0.5,0.8,1,1.4,1.4c0.6,0.4,1.6,0.7,2.8,0.8
				c1-0.1,1.8-0.4,2.5-0.8c0.6-0.3,1.2-0.8,1.7-1.5c0.5-0.7,0.8-1.6,0.8-2.8v-6.2L202,66.4c-1.1-0.6-2-1.4-2.8-2.2
				c-0.7-0.7-1.3-1.5-1.9-2.5c-0.6-1-0.8-2.1-0.8-3.4V42.9c0.2-1,0.5-2,1.1-2.9c0.4-0.7,1.1-1.4,1.9-2.1c0.8-0.7,2-1.1,3.5-1.2h18.6
				c1.5,0.2,2.8,0.6,3.9,1.3c0.9,0.6,1.8,1.4,2.6,2.4C228.9,41.6,229.3,42.9,229.2,44.6z"/>
			<path d="M196.4,89.6c0,0.7,0.1,1.3,0.2,1.9l-2.8,0.6c-0.2-0.7-0.3-1.4-0.3-2.1V68.2l17.4,10.6v3.7c0,0.6,0.1,1,0.2,1.3
				c0.2,0.3,0.4,0.5,0.6,0.6c0.2,0.2,0.6,0.3,1,0.3c0.9-0.1,1.5-0.5,1.6-1.2c0.1-0.2,0-0.6-0.1-1.1v-4.4l-12.7-7.7
				c-2.2-1.2-3.9-2.5-5-3.9c-1.1-1.4-1.9-2.6-2.4-3.7c-0.6-1.3-0.9-2.6-0.9-3.8V43.3c0.1-2.4,0.7-4.3,1.7-5.7c1-1.3,2.2-2.3,3.4-3
				c1.5-0.7,3.1-1.1,4.9-1.2h17.2c2.9,0.1,5.2,0.7,6.8,1.6c1.6,1,2.8,2.1,3.6,3.3c0.9,1.4,1.5,3,1.7,4.7v24.4l-18.3-12.1v-2.8
				c0-0.1,0-0.2,0-0.3h2.8v1.2l12.4,7.5l-0.2-16.4c0.1-1.7-0.3-3-1.1-4.1c-0.8-1-1.7-1.9-2.6-2.4c-1.1-0.7-2.5-1.2-3.9-1.3H203
				c-1.5,0.1-2.6,0.5-3.5,1.2c-0.8,0.7-1.5,1.3-1.9,2.1c-0.5,0.9-0.9,1.8-1.1,2.9v15.5c-0.1,1.3,0.2,2.4,0.8,3.4
				c0.6,0.9,1.2,1.8,1.9,2.5c0.8,0.8,1.7,1.6,2.8,2.2l15.7,10.2v6.2c0,1.2-0.2,2.2-0.8,2.8c-0.5,0.7-1.1,1.2-1.7,1.5
				c-0.7,0.4-1.5,0.6-2.5,0.8c-1.2-0.1-2.1-0.4-2.8-0.8c-0.6-0.4-1.1-0.9-1.4-1.4c-0.4-0.6-0.6-1.2-0.8-2v-3.1l-11.2-6.7L196.4,89.6
				z"/>
			<path d="M207.8,58.2v-7.1c0.1-1.1,0.4-1.9,0.9-2.4c0.5-0.5,1.1-0.9,1.7-1.2c0.7-0.2,1.5-0.4,2.3-0.5c1,0.1,1.8,0.4,2.3,0.7
				c0.6,0.4,1,0.8,1.3,1.2c0.3,0.5,0.5,1.1,0.7,1.7v1.6h-2.8c0-1.1-0.3-1.7-0.9-2c-0.3-0.1-0.6-0.1-1.1,0c-0.5,0-0.9,0.1-1.1,0.3
				c-0.2,0.2-0.4,0.5-0.4,0.8c-0.1,0.3-0.1,0.7,0,1.2v3.6l14.8,9.6c1.9,1,3.3,2.1,4.3,3.2c1,1.2,1.7,2.2,2.1,3.3
				c0.4,1.1,0.7,2.4,0.7,3.6v14.7c-0.1,2.1-0.7,3.8-1.6,5.1c-1,1.3-2,2.3-3.3,3c-1.4,0.8-3,1.4-4.7,1.8h-19.4
				c-2.4-0.1-4.3-0.7-5.7-1.8c-1.4-1.2-2.4-2.4-3-3.7c-0.5-1-0.9-2-1.1-3.1l2.8-0.6c0.2,1,0.5,1.7,1,2.4c0.7,1,1.6,1.7,2.5,2.2
				c1,0.6,2.2,0.9,3.5,1.1h18.7c1.9-0.1,3.2-0.5,4.2-1.2c0.9-0.8,1.6-1.6,2.1-2.5c0.5-1.1,0.8-2.3,0.8-3.6V75.5
				c0.1-0.8-0.1-1.5-0.6-2.3c-0.4-0.8-1-1.4-1.5-2c-0.7-0.7-1.5-1.4-2.3-2L207.8,58.2z"/>
		</g>
		<g>
		</g>
	</g>
	<g id="XMLID_4_">
		<g>
			<polygon class="st0" points="270.5,37.3 270.5,57.6 262.8,66.6 270.3,75.4 270.3,96.6 258.5,96.6 258.5,80 249.8,71.8 
				249.8,96.5 238.7,96.5 238.7,36.9 249.9,36.9 250.3,62.5 259.3,53.3 259.4,37.3 			"/>
			<path d="M262.8,66.6l7.8-9V37.3h-11.1l-0.1,16l-9,9.2l-0.4-25.6h-11.2v59.6h11.1V71.8l8.7,8.2v16.6h11.8V75.4L262.8,66.6z
				 M266.7,66.6l6.9,8.4v25.2h-17.7V81.7l-2.5-2.3v21.1h-17.9v-67h17.9v21.1l2.5-3V33.5h17.7v25.2L266.7,66.6z"/>
		</g>
		<g>
		</g>
	</g>
	<g id="XMLID_5_">
		<g>
			<path class="st0" d="M340.6,44.6l0.2,16.4l-12.4-7.5v-1.2v-1.6c-0.1-0.6-0.4-1.2-0.7-1.7c-0.3-0.5-0.8-0.8-1.3-1.2
				c-0.5-0.4-1.3-0.6-2.3-0.7c-0.8,0.1-1.6,0.2-2.3,0.5c-0.6,0.3-1.1,0.6-1.7,1.2c-0.5,0.5-0.9,1.3-0.9,2.4v7.1l17.1,11
				c0.8,0.6,1.6,1.3,2.3,2c0.6,0.6,1.1,1.2,1.5,2c0.4,0.8,0.6,1.5,0.6,2.3v14.3c0,1.3-0.2,2.6-0.8,3.6c-0.4,0.9-1.1,1.7-2,2.5
				c-0.9,0.8-2.3,1.2-4.2,1.2H315c-1.3-0.1-2.5-0.5-3.5-1.1c-0.9-0.5-1.7-1.3-2.4-2.2c-0.5-0.6-0.8-1.4-1-2.4
				c-0.1-0.6-0.2-1.2-0.2-1.9l0.2-15.7l11.2,6.7v3.1c0.1,0.8,0.4,1.4,0.8,2c0.3,0.5,0.8,1,1.4,1.4c0.6,0.4,1.6,0.7,2.8,0.8
				c1-0.1,1.8-0.4,2.5-0.8c0.6-0.3,1.2-0.8,1.7-1.5s0.8-1.6,0.8-2.8v-6.2l-15.7-10.2c-1.1-0.6-2-1.4-2.8-2.2
				c-0.7-0.7-1.3-1.5-1.9-2.5c-0.6-1-0.8-2.1-0.8-3.4V42.9c0.2-1,0.5-2,1-2.9c0.5-0.7,1.1-1.4,1.9-2.1c0.8-0.7,2-1.1,3.5-1.2H333
				c1.5,0.2,2.8,0.6,3.9,1.3c0.9,0.6,1.8,1.4,2.6,2.4C340.3,41.6,340.7,42.9,340.6,44.6z"/>
			<path d="M307.8,89.6c0,0.7,0.1,1.3,0.2,1.9l-2.8,0.6c-0.2-0.7-0.3-1.4-0.3-2.1V68.2l17.4,10.6v3.7c0,0.6,0.1,1,0.2,1.3
				c0.2,0.3,0.4,0.5,0.6,0.6c0.2,0.2,0.6,0.3,1,0.3c1-0.1,1.5-0.5,1.6-1.2c0.1-0.2,0-0.6-0.1-1.1v-4.4l-12.7-7.7
				c-2.2-1.2-3.9-2.5-5-3.9c-1.1-1.4-1.9-2.6-2.4-3.7c-0.6-1.3-0.9-2.6-0.9-3.8V43.3c0.1-2.4,0.7-4.3,1.7-5.7c1-1.3,2.2-2.3,3.5-3
				c1.5-0.7,3.1-1.1,4.9-1.2h17.2c2.9,0.1,5.2,0.7,6.8,1.6c1.6,1,2.8,2.1,3.6,3.3c0.9,1.4,1.5,3,1.7,4.7v24.4l-18.3-12.1v-2.8
				c0-0.1,0-0.2,0-0.3h2.8v1.2l12.4,7.5l-0.2-16.4c0.1-1.7-0.3-3-1.1-4.1c-0.8-1-1.7-1.9-2.6-2.4c-1.1-0.7-2.5-1.2-3.9-1.3h-18.6
				c-1.5,0.1-2.6,0.5-3.5,1.2c-0.8,0.7-1.5,1.3-1.9,2.1c-0.5,0.9-0.9,1.8-1,2.9v15.5c-0.1,1.3,0.2,2.4,0.8,3.4
				c0.6,0.9,1.2,1.8,1.9,2.5c0.8,0.8,1.7,1.6,2.8,2.2l15.7,10.2v6.2c0,1.2-0.2,2.2-0.8,2.8s-1.1,1.2-1.7,1.5
				c-0.7,0.4-1.5,0.6-2.5,0.8c-1.2-0.1-2.1-0.4-2.8-0.8c-0.6-0.4-1.1-0.9-1.4-1.4c-0.4-0.6-0.6-1.2-0.8-2v-3.1L308,73.9L307.8,89.6z
				"/>
			<path d="M322.1,52.6v3.6l14.8,9.6c1.9,1,3.3,2.1,4.3,3.2c1,1.2,1.7,2.2,2.1,3.3c0.4,1.1,0.7,2.4,0.7,3.6v14.7
				c-0.1,2.1-0.7,3.8-1.6,5.1c-1,1.3-2,2.3-3.3,3c-1.4,0.8-3,1.4-4.7,1.8H315c-2.4-0.1-4.3-0.7-5.7-1.8c-1.4-1.2-2.4-2.4-3-3.7
				c-0.5-1-0.9-2-1.1-3.1l2.8-0.6c0.2,1,0.5,1.7,1,2.4c0.7,1,1.5,1.7,2.4,2.2c1,0.6,2.2,0.9,3.5,1.1h18.7c1.9-0.1,3.2-0.5,4.2-1.2
				c0.9-0.8,1.6-1.6,2-2.5c0.5-1.1,0.8-2.3,0.8-3.6V75.5c0.1-0.8-0.1-1.5-0.6-2.3c-0.5-0.8-1-1.4-1.5-2c-0.7-0.7-1.5-1.4-2.3-2
				l-17.1-11v-7.1c0.1-1.1,0.4-1.9,0.9-2.4c0.5-0.5,1.1-0.9,1.7-1.2c0.7-0.2,1.5-0.4,2.3-0.5c1,0.1,1.8,0.4,2.3,0.7
				c0.5,0.4,1,0.8,1.3,1.2c0.3,0.5,0.5,1.1,0.7,1.7v1.6h-2.8c0-1.1-0.3-1.7-0.9-2c-0.3-0.1-0.6-0.1-1.1,0c-0.5,0-0.9,0.1-1.1,0.3
				c-0.2,0.2-0.4,0.5-0.4,0.8C322,51.8,322,52.2,322.1,52.6z"/>
		</g>
		<g>
		</g>
	</g>
	<g id="XMLID_6_">
		<g>
			<path class="st0" d="M384,37.2v53.2c0,1.5-0.3,2.8-0.9,3.7c-0.6,0.9-1.3,1.6-2,2c-0.8,0.5-1.8,0.8-2.9,0.9h-24.4v-9.5h12.8
				c1.3,0,2.3-0.2,3.1-0.7c0.8-0.4,1.3-0.9,1.7-1.4c0.5-0.6,0.7-1.4,0.9-2.2v-5H358c-1.8,0-3.1-0.4-4.1-1.1
				c-0.9-0.7-1.6-1.5-2.1-2.4c-0.5-1-0.8-2.2-0.9-3.4v-34h11.2v26c0.1,1.4,0.3,2.4,0.9,3.1s1.1,1.1,1.7,1.3c0.7,0.3,1.5,0.3,2.5,0.3
				c1.3-0.1,2.2-0.3,2.9-0.8c0.7-0.4,1.2-1,1.5-1.5c0.4-0.6,0.6-1.4,0.7-2.2V37.2H384z"/>
			<path d="M368.3,84.2v-3.2h-12.3c-2.4-0.1-4.1-0.7-5.4-1.7c-1.2-1-2.1-2.2-2.6-3.4c-0.6-1.5-1-3.1-1-4.9V33.7h18.4v30.6h3.2V33.7
				h18.4v56.9c-0.1,2.2-0.5,4-1.4,5.3c-0.9,1.3-1.8,2.3-2.9,3c-1.2,0.8-2.6,1.3-4.2,1.6h-28.3V84.2H368.3z M358,78.2h14.3v5
				c-0.1,0.8-0.4,1.6-0.9,2.2c-0.4,0.5-1,1-1.7,1.4c-0.8,0.5-1.8,0.7-3.1,0.7h-12.8V97h24.4c1.1-0.1,2-0.4,2.9-0.9
				c0.7-0.5,1.4-1.1,2-2c0.6-0.9,0.9-2.1,0.9-3.7V37.2h-11.6v26.2c-0.1,0.8-0.3,1.6-0.7,2.2c-0.3,0.6-0.8,1.1-1.5,1.5
				c-0.7,0.5-1.6,0.7-2.9,0.8c-1,0.1-1.8,0-2.5-0.3c-0.6-0.3-1.2-0.7-1.7-1.3s-0.8-1.7-0.9-3.1v-26H351v34c0.1,1.3,0.4,2.4,0.9,3.4
				c0.4,0.9,1.1,1.7,2.1,2.4C354.8,77.8,356.2,78.2,358,78.2z"/>
		</g>
		<g>
		</g>
	</g>
	<g id="XMLID_7_">
		<g>
			<path class="st0" d="M426.5,44.6l0.2,16.4l-12.4-7.5v-1.2v-1.6c-0.1-0.6-0.4-1.2-0.7-1.7c-0.3-0.5-0.8-0.8-1.3-1.2
				c-0.5-0.4-1.3-0.6-2.3-0.7c-0.8,0.1-1.6,0.2-2.3,0.5c-0.6,0.3-1.1,0.6-1.7,1.2c-0.5,0.5-0.9,1.3-0.9,2.4v7.1l17,11
				c0.8,0.6,1.6,1.3,2.3,2c0.6,0.6,1.1,1.2,1.5,2c0.4,0.8,0.6,1.5,0.6,2.3v14.3c0,1.3-0.2,2.6-0.8,3.6c-0.5,0.9-1.1,1.7-2.1,2.5
				c-0.9,0.8-2.3,1.2-4.2,1.2h-18.7c-1.3-0.1-2.5-0.5-3.5-1.1c-0.9-0.5-1.7-1.3-2.4-2.2c-0.5-0.6-0.8-1.4-1-2.4
				c-0.1-0.6-0.2-1.2-0.2-1.9l0.2-15.7l11.2,6.7v3.1c0.1,0.8,0.4,1.4,0.8,2c0.3,0.5,0.8,1,1.4,1.4c0.6,0.4,1.6,0.7,2.8,0.8
				c1-0.1,1.8-0.4,2.5-0.8c0.6-0.3,1.2-0.8,1.7-1.5c0.5-0.7,0.8-1.6,0.8-2.8v-6.2l-15.7-10.2c-1.1-0.6-2-1.4-2.8-2.2
				c-0.7-0.7-1.3-1.5-1.9-2.5c-0.6-1-0.8-2.1-0.8-3.4V42.9c0.2-1,0.5-2,1-2.9c0.5-0.7,1.1-1.4,1.9-2.1c0.8-0.7,2-1.1,3.4-1.2h18.6
				c1.5,0.2,2.8,0.6,3.9,1.3c0.9,0.6,1.8,1.4,2.6,2.4C426.2,41.6,426.6,42.9,426.5,44.6z"/>
			<path d="M393.6,89.6c0,0.7,0.1,1.3,0.2,1.9l-2.8,0.6c-0.2-0.7-0.3-1.4-0.3-2.1V68.2l17.4,10.6v3.7c0,0.6,0.1,1,0.2,1.3
				c0.2,0.3,0.4,0.5,0.6,0.6c0.2,0.2,0.6,0.3,1,0.3c0.9-0.1,1.5-0.5,1.6-1.2c0.1-0.2,0-0.6-0.1-1.1v-4.4l-12.7-7.7
				c-2.2-1.2-3.9-2.5-5-3.9c-1.1-1.4-1.9-2.6-2.4-3.7c-0.6-1.3-0.9-2.6-0.9-3.8V43.3c0.1-2.4,0.7-4.3,1.7-5.7c1-1.3,2.2-2.3,3.4-3
				c1.5-0.7,3.1-1.1,4.9-1.2h17.1c2.9,0.1,5.2,0.7,6.8,1.6c1.6,1,2.8,2.1,3.6,3.3c0.9,1.4,1.5,3,1.7,4.7v24.4l-18.3-12.1v-2.8
				c0-0.1,0-0.2,0-0.3h2.8v1.2l12.4,7.5l-0.2-16.4c0.1-1.7-0.3-3-1.1-4.1c-0.8-1-1.7-1.9-2.6-2.4c-1.2-0.7-2.5-1.2-3.9-1.3h-18.6
				c-1.5,0.1-2.6,0.5-3.4,1.2c-0.8,0.7-1.5,1.3-1.9,2.1c-0.5,0.9-0.9,1.8-1,2.9v15.5c-0.1,1.3,0.2,2.4,0.8,3.4
				c0.6,0.9,1.2,1.8,1.9,2.5c0.8,0.8,1.7,1.6,2.8,2.2L415,76.6v6.2c0,1.2-0.2,2.2-0.8,2.8c-0.5,0.7-1.1,1.2-1.7,1.5
				c-0.7,0.4-1.5,0.6-2.5,0.8c-1.2-0.1-2.1-0.4-2.8-0.8c-0.6-0.4-1.1-0.9-1.4-1.4c-0.4-0.6-0.6-1.2-0.8-2v-3.1l-11.2-6.7L393.6,89.6
				z"/>
			<path d="M405,58.2v-7.1c0.1-1.1,0.4-1.9,0.9-2.4c0.5-0.5,1.1-0.9,1.7-1.2c0.7-0.2,1.5-0.4,2.3-0.5c1,0.1,1.8,0.4,2.3,0.7
				c0.5,0.4,1,0.8,1.3,1.2c0.3,0.5,0.5,1.1,0.7,1.7v1.6h-2.8c0-1.1-0.3-1.7-0.9-2c-0.3-0.1-0.6-0.1-1.1,0c-0.5,0-0.9,0.1-1.1,0.3
				c-0.2,0.2-0.4,0.5-0.4,0.8c-0.1,0.3-0.1,0.7,0,1.2v3.6l14.8,9.6c1.9,1,3.3,2.1,4.3,3.2c1,1.2,1.7,2.2,2.1,3.3
				c0.5,1.1,0.7,2.4,0.7,3.6v14.7c-0.1,2.1-0.7,3.8-1.6,5.1c-1,1.3-2,2.3-3.3,3c-1.4,0.8-3,1.4-4.7,1.8h-19.4
				c-2.4-0.1-4.3-0.7-5.7-1.8c-1.4-1.2-2.4-2.4-3-3.7c-0.5-1-0.9-2-1.1-3.1l2.8-0.6c0.2,1,0.5,1.7,1,2.4c0.7,1,1.5,1.7,2.4,2.2
				c1,0.6,2.2,0.9,3.5,1.1h18.7c1.9-0.1,3.2-0.5,4.2-1.2c0.9-0.8,1.6-1.6,2.1-2.5c0.5-1.1,0.8-2.3,0.8-3.6V75.5
				c0.1-0.8-0.1-1.5-0.6-2.3c-0.5-0.8-1-1.4-1.5-2c-0.7-0.7-1.5-1.4-2.3-2L405,58.2z"/>
		</g>
		<g>
		</g>
	</g>
	<g id="XMLID_8_">
		<g>
			<polygon class="st0" points="464.3,37.3 464.3,47.8 455.8,47.8 455.8,97 444.1,97 444.1,47.5 436.1,47.5 436.1,37.3 			"/>
			<path d="M468.1,33.8v17.4h-8.2v49.2h-19.4V51.3h-7.9V33.5L468.1,33.8z M464.3,47.8V37.3h-28.3v10.2h8V97h11.7V47.8H464.3z"/>
		</g>
		<g>
		</g>
	</g>
	<g id="XMLID_9_">
		<g>
			<polygon class="st0" points="499,62.4 499,72.8 486,72.8 486,87.3 498.8,87.3 498.8,97.9 474.6,97.9 474.6,37.4 498.8,37.4 
				498.8,47.5 486.2,47.5 486.2,62.4 			"/>
			<path d="M502.2,100.7l-31.1-0.2V33.5h31.5v17.6h-12.6v7.8h12.3v17.4h-12.6v7.4h12.6V100.7z M474.6,97.9h24.2V87.3H486V72.8h13
				V62.4h-12.8V47.5h12.6V37.4h-24.2V97.9z"/>
		</g>
		<g>
		</g>
	</g>
	<g id="XMLID_10_">
		<g>
			<path class="st0" d="M563.8,43.2V97h-11.7V52.7c0-1.4-0.2-2.4-0.7-3.1c-0.5-0.6-1-1.1-1.6-1.3c-0.7-0.3-1.4-0.3-2.2-0.3
				c-1.4,0-2.5,0.2-3.2,0.7s-1.2,1-1.5,1.6c-0.4,0.7-0.6,1.4-0.6,2.2V97H531V53.4c0-1.5-0.2-2.7-0.7-3.5c-0.5-0.8-1-1.4-1.5-1.7
				c-0.7-0.4-1.4-0.6-2.2-0.6c-1.5,0-2.6,0.2-3.3,0.8c-0.7,0.5-1.3,1.1-1.6,1.7c-0.4,0.7-0.5,1.5-0.5,2.4v0.4V97h-10.6V37l17.9-0.2
				c1.7-0.1,3,0.2,4,0.9c1,0.6,1.9,1.3,2.6,2.1c0.7,0.9,1.3,2,1.8,3.2c0.4-1.3,1.1-2.3,1.9-3.1c0.2-0.2,0.4-0.4,0.6-0.5
				c0.6-0.5,1.2-0.9,1.8-1.2c0.9-0.4,1.9-0.7,2.9-0.8h13.1c1.7,0,3,0.3,3.9,0.9c0.9,0.6,1.6,1.3,2,2
				C563.5,41.1,563.7,42.1,563.8,43.2z"/>
			<path d="M537.8,37.2l1.6,2.1c-0.2,0.2-0.4,0.4-0.6,0.5c-0.8,0.8-1.4,1.8-1.9,3.1c-0.5-1.2-1.1-2.3-1.8-3.2
				c-0.7-0.8-1.6-1.5-2.6-2.1c-1-0.6-2.4-0.9-4-0.9L510.6,37v60h10.6V52.9h3v47.4h-17.4V33.6h22.3c1.4-0.1,2.6,0,3.7,0.3
				c1,0.3,2,0.8,2.7,1.3C536.4,35.8,537.1,36.4,537.8,37.2z"/>
			<path d="M524.5,52c-0.2,0.3-0.3,0.6-0.3,1h-3v-0.4c-0.1-0.9,0.1-1.7,0.5-2.4c0.3-0.6,0.9-1.2,1.6-1.7c0.7-0.5,1.8-0.8,3.3-0.8
				c0.8,0,1.5,0.2,2.2,0.6c0.5,0.3,1,0.9,1.5,1.7c0.5,0.8,0.7,2,0.7,3.5V97h11.3V52.5c0-0.8,0.2-1.5,0.6-2.2
				c0.3-0.6,0.8-1.1,1.5-1.6s1.8-0.7,3.2-0.7c0.8-0.1,1.5,0,2.2,0.3c0.6,0.2,1.1,0.7,1.6,1.3c0.5,0.6,0.7,1.7,0.7,3.1V97h11.7V43.2
				c-0.1-1.1-0.3-2.1-0.8-2.9c-0.4-0.7-1-1.4-2-2c-0.9-0.6-2.2-0.9-3.9-0.9H544c-1,0.1-2,0.3-2.9,0.8c-0.6,0.3-1.2,0.7-1.8,1.2
				l-1.6-2.1c0.4-0.7,0.9-1.3,1.4-1.7c0.6-0.4,1.1-0.8,1.7-1c0.6-0.2,1.3-0.5,2-0.7h15c2.4,0.3,4.3,1,5.6,2.1
				c1.3,1.1,2.2,2.2,2.7,3.3c0.6,1.3,0.9,2.8,0.9,4.4v57.2h-18.2V52.7c-0.1-0.7-0.3-1.1-0.8-1.3c-0.2-0.1-0.5-0.1-0.8-0.1
				c-0.4,0-0.7,0.1-0.9,0.3c-0.2,0.2-0.4,0.4-0.5,0.6c-0.2,0.3-0.3,0.5-0.3,0.8v47.7h-18V53c0-0.7-0.2-1.2-0.8-1.6
				c-0.3-0.2-0.5-0.3-0.8-0.4c-0.5,0-0.8,0.1-1.1,0.3C524.8,51.5,524.6,51.7,524.5,52z"/>
		</g>
		<g>
		</g>
	</g>
</g>
<polygon points="127.8,0 139.5,0 139.5,4.1 131.9,4.1 131.9,9 139.5,9 139.5,13.3 131.9,13.3 131.9,22.1 127.8,22.1 "/>
<path d="M152.8,22.1h-4v-3.4h-7.7l-2.3,3.4h-4.7L149.6,0h3.3V22.1z M148.8,14.5V8l-4.7,6.4H148.8z"/>
<polygon points="154.4,0 159,0 165.6,14.8 172.1,0 176.8,0 176.8,22.1 172.7,22.1 172.7,11 167.6,22.1 163.4,22.1 158.5,11 
	158.5,22.1 154.4,22.1 "/>
<polygon points="253.8,0 258.4,0 264.9,14.8 271.5,0 276.2,0 276.2,22.1 272.1,22.1 272.1,11 267,22.1 262.8,22.1 257.9,11 
	257.9,22.1 253.8,22.1 "/>
<rect x="178.1" y="0" width="4.3" height="22.1"/>
<polygon points="183.6,0 187.9,0 187.9,18.1 193.4,18.1 193.4,22.1 183.6,22.1 "/>
<polygon points="188.7,0 193.4,0 197.9,9 202.3,0 207,0 199.9,14 199.9,22.1 195.7,22.1 195.7,14 "/>
<path class="st1" d="M230.2,16.4"/>
<path d="M230.2,6.1c-1.9-3.6-5.6-6-9.9-6c-6.2,0-11.2,5-11.2,11.2c0,6.2,5,11.2,11.2,11.2c4.3,0,8.1-2.5,10-6.1l-5.1,0
	c-1.3,1.2-2.9,1.9-4.8,1.9c-3.9,0-7-3.1-7-7s3.1-7,7-7c1.8,0,3.5,0.7,4.7,1.8L230.2,6.1z"/>
<path d="M241.3,22.6c-6.2,0-11.3-5-11.3-11.3S235,0,241.3,0c6.2,0,11.3,5,11.3,11.3C252.5,17.5,247.5,22.6,241.3,22.6z M248.4,11.3
	c0-3.9-3.2-7.1-7.1-7.1s-7.1,3.2-7.1,7.1c0,3.9,3.2,7.1,7.1,7.1C245.3,18.4,248.4,15.2,248.4,11.3z"/>
<path d="M285,0c3.7,0.3,6.7,3.4,6.7,7.2c0,3.8-2.9,6.9-6.7,7.2l-3.2,0v7.6h-4.1V0h4.1L285,0z M281.8,4.3v6l3.2,0
	c1.4-0.3,2.5-1.5,2.5-3c0-1.5-1.1-2.7-2.5-3L281.8,4.3z"/>
<path d="M337.2,22.4h-4.1V0.2l5.7,0l3.2,0c3.7,0.3,6.7,3.4,6.7,7.2c0,3.1-2,5.8-4.7,6.8l4.8,8.1h-4.5l-6.7-11.4h-0.4L337.2,22.4
	L337.2,22.4z M342,10.4c1.4-0.3,2.5-1.5,2.5-3c0-1.5-1.1-2.7-2.5-3h-4.8v6L342,10.4z"/>
<path d="M297.1,12.8l0,3.2c0.3,1.4,1.5,2.5,3,2.5s2.7-1.1,3-2.5l0-3.2l0-12.6h4.2v12.6l0,3.2c-0.3,3.7-3.4,6.7-7.2,6.7
	c-3.8,0-6.9-2.9-7.2-6.7l0-3.2l0-12.6h4.3L297.1,12.8z"/>
<polygon points="311.6,22.4 315.7,22.4 315.7,4.4 319.5,4.4 319.5,0.2 307.9,0.2 307.9,4.4 311.6,4.4 "/>
<polygon points="332,22.4 320.5,22.4 320.5,0.2 332,0.2 332,4.3 324.6,4.3 324.6,9.5 332,9.5 332,13.7 324.6,13.7 324.6,18.3 
	332,18.3 "/>
<path class="st1" d="M337.2,11"/>
<g>
	<g>
		<path class="st0" d="M56.4,86.8c6.3,0,11.5,5.1,11.5,11.5h30.3c4.9,0,9-4,9-9c0-4.1-2.7-7.5-6.4-8.6l0,0c0-2.8,0-5.9,0-9.3l0-0.1
			c5.5-2.5,9.4-8,9.4-14.5c0-6.4-3.8-12-9.3-14.5l-0.1-0.1c0-14.5,0-27,0-29.3c0-5.6-4.6-10.2-10.2-10.2H22.2
			c-5.6,0-10.2,4.6-10.2,10.2c0,2.3,0,14.9,0,29.3l-0.1,0.1c-5.5,2.5-9.3,8-9.3,14.5c0,6.5,3.9,12,9.4,14.5l0,0.1c0,3.4,0,6.5,0,9.3
			l0,0c-3.7,1.1-6.4,4.5-6.4,8.6c0,4.9,4,9,9,9h30.3c0-6.3,5.1-11.5,11.5-11.5L56.4,86.8L56.4,86.8z"/>
		<path d="M3,89.4c0-4.5,2.6-8.5,6.4-10.3l0,0c0-1.9,0-4,0-6.2l0,0C3.8,69.7,0,63.7,0,56.8l0,0c0-6.9,3.8-12.9,9.4-16.1l0,0
			c0-13.8,0-25.6,0-27.8l0,0c0-7,5.7-12.7,12.7-12.7l0,0h68.3c7,0,12.7,5.7,12.7,12.7l0,0c0,2.2,0,14,0,27.8l0,0
			c5.6,3.1,9.4,9.2,9.4,16.1l0,0c0,6.9-3.8,12.9-9.4,16.1l0,0c0,2.2,0,4.2,0,6.2l0,0c3.8,1.9,6.4,5.8,6.4,10.3l0,0
			c0,6.3-5.1,11.5-11.5,11.5l0,0H65.3v-2.5c0-4.9-4-9-9-9l0,0v-2.5v-2.5c6.9,0,12.6,5,13.8,11.5l0,0h28.1c3.6,0,6.4-2.9,6.4-6.4l0,0
			c0-2.9-2-5.4-4.6-6.2l0,0l-1-0.3l-0.8-1.5v-0.6c0-2.8,0-5.9,0-9.3l0,0v-0.6l0.7-1.4l0.9-0.4c4.7-2.1,7.9-6.8,7.9-12.2l0,0
			c0-5.4-3.2-10.1-7.8-12.2l0,0l-0.2-0.1l-1.4-0.9v-1.4c0-14.5,0-27,0-29.3l0,0c0-4.3-3.4-7.7-7.7-7.7l0,0H22.2
			c-4.3,0-7.7,3.4-7.7,7.7l0,0c0,2.3,0,14.9,0,29.3l0,0v1.4l-1.1,0.7L13,44.6l-0.2,0.1C8.2,46.7,5,51.4,5,56.8l0,0
			c0,5.4,3.2,10.1,7.9,12.2l0,0l0.9,0.4l0.7,1.4v0.6c0,3.4,0,6.5,0,9.3l0,0v0.6l-0.8,1.5l-1,0.3C10,84,8,86.4,8,89.4l0,0
			c0,3.6,2.9,6.4,6.4,6.4l0,0h28.1c1.2-6.5,6.9-11.5,13.8-11.5l0,0h0.1v2.5v2.5h-0.1c-4.9,0-9,4-9,9l0,0v2.5H14.5
			C8.1,100.8,3,95.7,3,89.4L3,89.4z"/>
	</g>
	<path class="st2" d="M11.9,91.7"/>
	<path d="M16.6,38.3c0-10.4,8.5-18.9,18.9-18.9l0,0c10.4,0,18.9,8.5,18.9,18.9l0,0c0,10.4-8.5,18.9-18.9,18.9l0,0
		C25.1,57.2,16.6,48.8,16.6,38.3L16.6,38.3z M19.8,38.3c0,8.7,7.1,15.8,15.8,15.8l0,0c8.7,0,15.8-7.1,15.8-15.8l0,0
		c0-8.7-7.1-15.8-15.8-15.8l0,0C26.8,22.6,19.8,29.6,19.8,38.3L19.8,38.3z"/>
	<circle cx="47.7" cy="38.4" r="4.4"/>
	<path d="M58.2,38.3L58.2,38.3c0-10.4,8.5-18.9,18.9-18.9l0,0c10.4,0,18.9,8.5,18.9,18.9l0,0c0,10.4-8.5,18.9-18.9,18.9l0,0
		C66.7,57.2,58.2,48.8,58.2,38.3L58.2,38.3z M77.1,54.1c8.7,0,15.8-7.1,15.8-15.8l0,0c0-8.7-7.1-15.8-15.8-15.8l0,0
		c-8.7,0-15.8,7.1-15.8,15.8l0,0C61.4,47,68.4,54.1,77.1,54.1L77.1,54.1z"/>
	<circle cx="64.9" cy="38.4" r="4.4"/>
</g>
</svg>
