<?xml version="1.0" encoding="utf-8"?>
<!-- Generator: Adobe Illustrator 21.1.0, SVG Export Plug-In . SVG Version: 6.00 Build 0)  -->
<svg version="1.1" id="Layer_1" xmlns="http://www.w3.org/2000/svg" xmlns:xlink="http://www.w3.org/1999/xlink" x="0px" y="0px"
	 viewBox="0 0 612 792" style="enable-background:new 0 0 612 792;" xml:space="preserve">
<style type="text/css">
	.st0{fill:#F1F1EF;}
	.st1{fill:#E0E0DF;}
	.st2{fill:#EDEDE7;}
	.st3{fill:#DFDFDF;}
	.st4{fill:#F0F0F0;}
	.st5{fill:#F3F3F3;}
	.st6{fill:#E2E281;}
	.st7{fill:#EBEBEB;}
	.st8{fill:#E1E1E1;}
	.st9{fill:#F2F2F1;}
	.st10{fill:#E1E1E0;}
	.st11{fill:#E9E9E8;}
	.st12{fill:#CECEBC;}
	.st13{fill:#DFDFDE;}
	.st14{fill:#B8B8A7;}
	.st15{fill:#CECE89;}
	.st16{fill:#A9A972;}
	.st17{fill:#E0E0DD;}
	.st18{fill:#CECECC;}
	.st19{fill:#D8D817;}
	.st20{fill:#C4C4C4;}
	.st21{fill:#B4B4B3;}
	.st22{fill:#D4D4D4;}
	.st23{fill:#D8D8CB;}
	.st24{fill:#B1B1B1;}
	.st25{fill:#BEBEBE;}
	.st26{fill:#D9D9DA;}
	.st27{fill:#E4E475;}
	.st28{fill:#FAFA02;}
	.st29{fill:#FEFE02;}
	.st30{fill:#E9E909;}
	.st31{fill:#C8C895;}
	.st32{fill:#DCDC0F;}
	.st33{fill:#BDBDBA;}
	.st34{fill:#BDBDA0;}
	.st35{fill:#C8C888;}
	.st36{fill:#B5B591;}
	.st37{fill:#B2B288;}
	.st38{fill:#BFBFAC;}
	.st39{fill:#EAEA10;}
	.st40{fill:#EEEE12;}
	.st41{fill:#B6B68F;}
	.st42{fill:#E6E612;}
	.st43{fill:#F7F705;}
	.st44{fill:#A8A882;}
	.st45{fill:#FCFC06;}
	.st46{fill:#E8E905;}
	.st47{fill:#595800;}
	.st48{fill:#878785;}
	.st49{fill:#A1A19E;}
	.st50{fill:#A8A8A8;}
	.st51{fill:#A3A3A1;}
	.st52{fill:#98988C;}
	.st53{fill:#BBBBBB;}
	.st54{fill:#B4B4B4;}
	.st55{fill:#AAAA70;}
	.st56{fill:#9D9D94;}
	.st57{fill:#9E9E98;}
	.st58{fill:#BCBCBC;}
	.st59{fill:#AFAFAD;}
	.st60{fill:#FDFD05;}
	.st61{fill:#B9B902;}
	.st62{fill:#EAEA09;}
	.st63{fill:#9C9C78;}
	.st64{fill:#564F00;}
	.st65{fill:#464500;}
	.st66{fill:#A7A702;}
	.st67{fill:#716901;}
	.st68{fill:#646001;}
	.st69{fill:#4E4900;}
	.st70{fill:#575700;}
	.st71{fill:#F4F409;}
	.st72{fill:#B6B623;}
	.st73{fill:#5C5A00;}
	.st74{fill:#F7F70A;}
	.st75{fill:#E6E608;}
	.st76{fill:#EFEF06;}
	.st77{fill:#F3F30D;}
	.st78{fill:#FAFA03;}
	.st79{fill:#D8D828;}
	.st80{fill:#FCFC02;}
	.st81{fill:#EDED06;}
	.st82{fill:#575100;}
	.st83{fill:#E8E907;}
	.st84{fill:#4A4700;}
	.st85{fill:#DADA0E;}
	.st86{fill:#635D00;}
	.st87{fill:#665701;}
	.st88{fill:#505000;}
	.st89{fill:#F9F903;}
	.st90{fill:#535300;}
	.st91{fill:#4C4C00;}
	.st92{fill:#291E02;}
	.st93{fill:#FE9A02;}
	.st94{fill:#9B9B56;}
	.st95{fill:#88887C;}
	.st96{fill:#85857C;}
	.st97{fill:#71716F;}
	.st98{fill:#838381;}
	.st99{fill:#CFCF16;}
	.st100{fill:#7C7C76;}
	.st101{fill:#FDFD03;}
	.st102{fill:#B5B522;}
	.st103{fill:#76766B;}
	.st104{fill:#7B7C75;}
	.st105{fill:#838379;}
	.st106{fill:#8C8C7E;}
	.st107{fill:#787875;}
	.st108{fill:#9F9F5E;}
	.st109{fill:#E6E60A;}
	.st110{fill:#5C5B00;}
	.st111{fill:#878748;}
	.st112{fill:#818144;}
	.st113{fill:#EDED03;}
	.st114{fill:#484500;}
	.st115{fill:#595900;}
	.st116{fill:#645701;}
	.st117{fill:#474500;}
	.st118{fill:#615C00;}
	.st119{fill:#5A5800;}
	.st120{fill:#666001;}
	.st121{fill:#0F0802;}
	.st122{fill:#231302;}
	.st123{fill:#E4E507;}
	.st124{fill:#76764C;}
	.st125{fill:#DA0202;}
	.st126{fill:#383800;}
	.st127{fill:#585800;}
	.st128{fill:#5D5B00;}
	.st129{fill:#5B5900;}
	.st130{fill:#585300;}
	.st131{fill:#393800;}
	.st132{fill:#5B5400;}
	.st133{fill:#020202;}
	.st134{fill:#201502;}
	.st135{fill:#3C2E02;}
	.st136{fill:#5A5300;}
	.st137{fill:#442602;}
	.st138{fill:#4F4F00;}
	.st139{fill:#331C02;}
	.st140{fill:#1E1E00;}
	.st141{fill:#1F1202;}
	.st142{fill:#070702;}
	.st143{fill:#EEEE02;}
	.st144{fill:#E9E905;}
	.st145{fill:#959654;}
	.st146{fill:#8A8A73;}
	.st147{fill:#EFEF04;}
	.st148{fill:#7B7B5F;}
	.st149{fill:#D8D813;}
	.st150{fill:#676860;}
	.st151{fill:#7A7A40;}
	.st152{fill:#818148;}
	.st153{fill:#454400;}
	.st154{fill:#EDED05;}
	.st155{fill:#868649;}
	.st156{fill:#646100;}
	.st157{fill:#545400;}
	.st158{fill:#695501;}
	.st159{fill:#3C2B01;}
	.st160{fill:#AAAA1E;}
	.st161{fill:#BCBC1D;}
	.st162{fill:#D6D709;}
	.st163{fill:#D4D506;}
	.st164{fill:#E4E405;}
	.st165{fill:#504602;}
	.st166{fill:#67675D;}
	.st167{fill:#343400;}
</style>
<g>
	<path class="st0" d="M251,351c3.1-4.3,7.7-5.9,12.6-5.9c17.7-0.2,35.3-0.2,53,0c4.6,0,9.1,1.6,12,5.2c2.5,3.2,5.4,3.8,9.1,3.8
		c32.5-0.1,65,0,97.4,0c19.7,0,39.5,0,59.2,0c4.3,0,8.7-0.4,12.8,1.5c0.7,0.3,1.6,0.4,2.4,0.2c18-3.7,36.1-1,54.2-1.5
		c7.3-0.2,14.1,7.9,14.3,15.4c0.1,2.5-0.1,5,0.1,7.5c0.2,2.8,0.9,5.2,3.4,7.3c3.6,3.1,5.5,7.4,5.6,12.3c0,8.8,0.1,17.7,0,26.5
		c0,3.7-0.7,7.3-4,9.7c-0.6,0.3-1,0.2-1.3-0.4c2.9-9.8,3.2-19.8,2.9-29.9c-0.1-6.5-1.2-12.5-6.4-17.1c-2.1-1.9-2.7-4.5-2.6-7.2
		c0.1-3.8-0.2-7.6-1.1-11.3c-0.5-2-0.9-4.3-3.4-5.1c-1.3-0.3-2.5-0.8-3.7-1.4c-0.8-0.4-1.4-0.8-2.2-1.2c-2-1.1-4.2-0.9-6.4-0.9
		c-9.7,0-19.3,0.1-29-0.1c-7.7-0.2-15.2,0.3-22.7,1.9c-1-0.1-1.9-0.3-2.7-0.8c-2.3-1.6-4.8-2.1-7.5-2.1c-12.6,0-25.4-1.1-37.9,0.4
		c-9.6,1.2-18.7-0.4-28.1-0.4c-31.4,0-62.9-0.1-94.3,0.1c-4.9,0-8.8-1.2-11.6-5.2c-2.1-2.7-4.9-3.9-8.2-3.9c-17.9,0-35.9,0-53.8,0
		c-1.5,0-3,0.2-4.3,0.9c-0.9,0.5-1.9,1-2.9,1.4c-1.6,0.4-3,1.8-4.9,1.4c-0.3-0.3-0.4-0.5-0.3-0.8C250.8,351.1,250.9,351,251,351z"/>
	<path class="st1" d="M408.1,446c-2.8,1.7-5.9,2-9,1.9c-17.4-0.3-34.8-0.2-52.2-0.4c-10.7-0.1-21.6-0.4-32.4,0.2
		c-12,0.7-24-0.3-36.1-0.7c-5.3-0.2-10.4,1.2-15.8,0.1c-5.3-1-9.6-3-12.9-7.5c-2.4-3.3-6.5-5.1-8.7-8.7c-1.1-2.2-3.6-2.9-5.2-4.5
		c-1.3-1.3-3.3-2.3-2.7-4.7c4.7,0,7.2,3.7,9.9,6.5c2.3,2.4,4.4,4.9,6.8,7.2c5.1,7.7,12.5,9.3,21.2,9.2c42.6-0.3,85.3-0.1,127.9-0.1
		c2.5,0,5-0.2,7.5,0.3C407.1,445.2,407.6,445.5,408.1,446z"/>
	<path class="st2" d="M198,352c3.3,5.5,3.8,11.7,3.9,17.7c0.3,18.3,0.2,36.5,0,54.8c0,3.9-0.3,7.8-1.9,11.5
		c-0.5-0.4-0.8-0.9-1.1-1.6c-0.8-9-0.3-18-0.3-27c-0.1-14.5,0-29-0.1-43.5c-0.1-9.3-5.4-15.4-14.7-15.5c-23-0.3-46-0.3-69,0
		c-0.5,0-1,0.2-1.5,0.3c-3.3,0.6-6.5,2-10,0.9c-2.3-1.2-4.7-1.4-7.2-1.4c-10.4,0-20.8,0-31.2,0c-2.1,0-4.4,0.4-6.1-1.4
		c1.5-1.6,3.4-1,5.2-1c10.5-0.1,21.1-0.7,31.5,0.1c14.4,1.2,28.6-0.8,43-0.3c14.5,0.5,29,0.2,43.5,0.1c4.6-0.1,8.9,0.8,12.9,3.1
		C196.2,349.8,197.2,350.8,198,352z"/>
	<path class="st3" d="M408.1,446c-0.4,0-0.8,0-1.1-0.1c1.4-3.6,4.6-3,7.5-3.1c1.6,0.3,3.2,0.9,4.8,1.2c0.6,0.2,1.1,0.3,1.7,0.4
		c25.2,0.2,50.4,0.1,75.6,0.1c1.3,0,2.7-0.1,3.9-0.6c5.2-1.9,10.3-2,15.5-0.2c2.4,0.8,4.9,0.9,7.4,0.8c14.7-0.2,29.4,0.7,44.1-1.1
		c0.6,0.3,0.8,0.8,0.5,1.5c-2.5,1.1-5.1,2.3-8,2c-3.4,0.8-6.7,0.8-10.1,0c-11,0.3-22.1,1.9-32.9-0.2c-9.6-1.9-18.7,1.5-28.1,1.3
		c-20.4-0.4-40.8-0.3-61.3,0C421,448.1,414.8,445.1,408.1,446z"/>
	<path class="st4" d="M199,440c-1.8,4.9-9.4,9.2-14.7,8.7c-13.2-1.4-26.5-0.6-39.8-0.4c-2.8,0-5.6-0.2-8.3-0.3
		c-15.1,0-30.2,0-45.3,0c-2.8,0-5.6-0.1-8-2c0.2-0.2,0.4-0.4,0.6-0.6c1.1-0.5,2.2-0.5,3.3-0.4c0.6,0.1,1.2,0.2,1.7,0.4
		c32.8,0.2,65.6,0.3,98.3,0c0.8-0.2,1.5-0.6,2.2-0.9c3.5-0.5,5.4-3.8,8.4-5.1C198.2,439.5,198.6,439.6,199,440z"/>
	<path class="st5" d="M233.2,421.8c0.9,2.8,3.2,4.3,5.4,5.9c1.2,0.9,2.4,1.6,2.4,3.3c-9.4-4.6-12.7-12.2-12.1-22.4
		c0.5-9.1,0-18.3,0.1-27.5c0.1-6.5,2.3-11.6,7.7-15.8c5.3-4.1,9.5-9.5,14.2-14.3c0,0.3,0,0.7,0,1c0.6,0.5,0.6,1.1,0.5,1.8
		c-0.1,0.4-0.4,0.8-0.6,1.2c-1.4,1.7-3.1,3.1-4.5,4.8c-3.2,2.7-4.8,7-8.8,9c-1.5,0.5-2.5,1.5-3.1,3c-0.8,1.5-1.3,3.1-1.9,4.7
		c-2,11-1,22.1-1.2,33.1c-0.1,2.7,0.9,5.2,1.1,7.8c0.3,1,0.6,2,0.9,3C233.5,420.8,233.4,421.3,233.2,421.8z"/>
	<path class="st6" d="M31.1,373c2-4,7.6-4.3,8.9-8.9c0.4-0.4,0.8-0.4,1.2-0.1c0.4,0.6,0.6,1.3,0.5,2.1c-0.7,2.9-3.5,3.8-5.3,5.7
		c-2.2,1.9-3.4,4.2-3.1,7.2c0,16.5,0,33,0,49.5c-0.2,1.7,0.6,3.4,0.4,5.1c-0.1,0.6-0.3,1.1-0.7,1.5c-0.6,0.2-1.1,0.1-1.6-0.3
		c-2.3-2.4-1.1-5.6-2-8.3c0-14.6,0-29.3,0-43.9C29.5,379.3,29.8,376.1,31.1,373z"/>
	<path class="st7" d="M31.1,373c-2.2,18.3-0.5,36.6-1.1,54.9c0.3,3.2,1.3,6.2,1.4,9.5c-0.2,0.2-0.4,0.4-0.5,0.6c-2-1.7-2-4-2-6.4
		c0-17.1,0-34.2,0-51.3C29,377.7,29.1,375.1,31.1,373z"/>
	<path class="st8" d="M59,347c12.7,0,25.5,0,38.2,0c2.5,0,5-0.2,6.9,2c-0.4,0.5-0.9,0.8-1.5,0.9c-13.7-0.9-27.4-0.6-41.2-0.3
		c-1.3,0.5-2.6,0.7-3.9,1c-0.8,0.1-1.5,0.1-2.2-0.3c-0.9-1.2,0.1-1.7,0.8-2.3C57,347.7,58,347.3,59,347z"/>
	<path class="st7" d="M74,447c-1.2,1.4-2.8,1-4.2,1c-8.3,0-16.7,0.1-25,0c-4.2-0.1-8.3-1-10.8-4.9c0.3-0.1,0.5-0.3,0.8-0.5
		c9.7,4.5,20.1,2.8,30.3,3.1c2.8,0.1,5.7-0.5,8.3,0.8C73.6,446.6,73.8,446.8,74,447z"/>
	<path class="st9" d="M582,433c0.3,0,0.7,0,1,0c0,0.3,0,0.8-0.2,0.9c-4.9,3-7.7,8.4-12.9,11c-0.7-1.6,0.6-2.5,1.1-3.7
		c1.2-2.3,2.5-4.4,4.7-5.8C578,434.8,579.6,433,582,433z"/>
	<path class="st2" d="M41,364c-0.3,0-0.7,0-1,0.1c1.9-5.6,7.7-7.7,10.9-12.2c0.2,0.2,0.3,0.4,0.5,0.5C50.6,358.7,45.6,361.2,41,364z
		"/>
	<path class="st10" d="M550,447c3.4,0,6.7,0,10.1,0C556.7,448.5,553.3,448.5,550,447z"/>
	<path class="st7" d="M83,446c-3.1-0.6-5.9,1.3-9,1c0,0,0-0.1,0-0.1C76.9,443,79.9,442.7,83,446L83,446z"/>
	<path class="st2" d="M56,348c-0.3,0.6-0.7,1.3-1,1.9c-0.6,1.9-1.6,3.1-3.8,2.2c0,0-0.3-0.3-0.3-0.3C51.8,349.6,53.7,348.5,56,348z"
		/>
	<path class="st10" d="M571.9,441.8c-0.6,1.1-1.3,2.1-1.9,3.2c-0.7,0-1.3,0-2,0c0-0.4,0-0.7,0-1.1
		C568.1,441.2,569.6,440.8,571.9,441.8z"/>
	<path class="st7" d="M34,443c-2-1.1-3.2-2.6-3-5c0,0,0.1,0,0.1,0C33.8,438.6,35,440.1,34,443L34,443z"/>
	<path class="st11" d="M199,440c-0.3,0-0.7,0-1,0c-0.9-2.3-0.8-4.2,2-5c0,0.4,0,0.7,0,1.1C200.2,437.5,199.7,438.8,199,440z"/>
	<path class="st5" d="M198,352c-1.3-0.7-2.3-1.7-3-3C196.9,349.1,197.9,350.1,198,352z"/>
	<path class="st12" d="M326,351c2.3,3.8,5.4,5.1,9.9,5.1c33-0.2,66-0.1,98.9-0.1c2.7,0,5.3,0.1,7.9,1c3.1,1.1,6.1,1.2,9.2,0
		c2.7-1,5.5-1,8.4-1c12.5,0.1,25,0,37.5,0.1c2.7,0,5.8-0.4,7.3,2.8c-2.5,1.6-5.1,0.1-7.7,0c-12.6-0.9-25.2-0.8-37.8,0
		c-0.6,0.2-1.2,0.3-1.8,0.4c-4.6-0.2-9,1.6-13.6,1c-2.6-0.8-5.2-0.8-7.9-0.8c-19.3,0-38.7,0-58,0c-2.5,0-5,0-7.6,0
		c-13-0.1-26,0.2-39.1-0.2c-2.9-0.5-5.1-2.2-7-4.2c-2.6-2.7-5.7-4.3-9.5-4.5c-15.2-0.2-30.4,0-45.6-0.1c-2.3,0-4.7,0.4-6.7-1.2
		c-0.2-2.3,1.6-1.6,2.6-1.6c17.2,0,34.5,0,51.7,0C320.8,347.5,323.3,349.5,326,351z"/>
	<path class="st13" d="M582,433c-1.7,1.5-3.3,3.2-5.9,3c-0.3-2.6,2.3-3.2,3.4-4.8c1-1.6,2.2-3.2,2.4-5.2c0.8-2.5,0.8-5,0.7-7.6
		c-0.1-6.6,0-13.1,0-19.6c0-2-0.1-3.9-1.2-5.6c-0.5-1.5-0.6-3.2-2.1-4.2c-0.4-0.3-0.7-0.5-1.1-0.8c-1.3-1-2.8-1.8-3.7-3.2
		c-0.2-0.5-0.4-0.9-0.5-1.4c-0.8-5.1,0.5-10.2-0.9-15.2c-0.8-1.8-1.8-3.5-2.6-5.4c-0.1-0.8,0-1.5,0.6-2.1c2.5-1.7,2.7,0.7,3.4,2
		c2.4,4.5,2.9,9.5,2.6,14.4c-0.2,3.6,0.7,6.4,3.5,8.7c4.5,3.7,5.2,9.1,5.4,14.4c0.3,8.4,0.3,16.9-0.9,25.3
		C584.6,428.4,583,430.6,582,433z"/>
	<path class="st14" d="M507,359.1c17.9-4.2,36.1-1.3,54.1-2.2c2.2-0.1,4.3,0.1,6,1.9c-1.6,2-3.9,1.5-6,1.5c-10.1,0.1-20.3,0-30.4,0
		c-5.8,0-11.6-0.4-17.3,1.6c-1.4,0.5-3,0.4-4.4-0.1C507.6,361.4,506.8,360.6,507,359.1z"/>
	<path class="st15" d="M507,359.1c0.4,0.6,0.7,1.2,1.1,1.8c0.3,0.7,0.1,1.1-0.6,1.4c-4.9-1.3-9.9-0.8-14.8-0.9
		c-11.4-0.2-22.9,0.4-34.3-0.3c-0.6-0.2-1.1-0.5-1.5-1c-0.4-1.2,0.5-1.6,1.2-2.1c0.3,0,0.6,0,0.9,0c13-0.8,26.1-0.8,39.1,0
		c2.4,0.3,4.7,0.6,7.1,0.9C505.7,359,506.4,359,507,359.1z"/>
	<path class="st16" d="M508,361.9c0-0.3,0.1-0.7,0.1-1c11.4-2.5,23-1.9,34.5-2c8.1,0,16.3-0.1,24.4-0.1c0.3,0.3,0.6,0.6,0.9,1
		c-0.5,0.9-1.4,1.2-2.3,1.4c-12.6,0.4-25.1,0.1-37.7,0.2c-3,0-5.9,0.2-8.8,1.1c-1.2,0.3-2.2,1-3.1,1.9c-1,0.9-1.6,2.3-2.8,2.9
		c-1.3,0.3-2.1-0.4-3-1.2c-0.3-0.3-0.6-0.6-0.9-1c-0.5-0.7-1.1-1.3-1.6-2C507.5,362.6,507.6,362.3,508,361.9z"/>
	<path class="st17" d="M326,351c-6.1-3.4-12.7-3.1-19.4-3.1c-12.8,0.1-25.6,0-38.5,0.1c-1.8,0-3.7-0.7-5.2,0.9c-0.8,1-1.9,1.2-3,1.2
		c-1.2,0-2.2-0.2-3-1.2c1.5-1.6,3.4-2,5.4-2c18.3,0,36.6,0,54.9,0C320.8,347,323.8,348.1,326,351z"/>
	<path class="st18" d="M257,349c1,0,2.1,0.1,3.1,0.1c-1.6,3.6-5.2,4.9-8,7.2c-0.5,0.1-0.9,0-1.3-0.3c-0.4-0.7-0.3-1.4,0.3-1.9l0,0
		c1.1-1.6,2.4-3,4-4C255.7,349.7,256.3,349.3,257,349z"/>
	<path class="st19" d="M566.1,360c0.6-0.1,1.2-0.1,1.7-0.2c1,0.4,2.1,0.7,3.2,1.1c0.1,0.6,0.1,1.3,0.2,1.9c-0.3,0.4-0.6,0.7-1.1,0.8
		c-0.5,0-0.9-0.1-1.4-0.2C567.9,362.2,565.6,362.3,566.1,360z"/>
	<path class="st17" d="M255,350c-1,1.7-2.3,3-4,4c0-0.7,0-1.3,0-2C252.4,351.4,253.3,349.8,255,350z"/>
	<path class="st20" d="M415,444c-2.9-0.1-5.7,0.1-8.1,2c-47.1,0-94.2,0-141.3,0.1c-8.4,0-13.3-4.9-17.7-11c0.3-0.3,0.7-0.5,1.2-0.6
		c3.8,0.4,4.2,5.3,7.8,6c1.8,0.5,3.3,1.4,5,1.9c8.5,0.3,17,0.1,25.4,0.1c13.8,0,27.5,0.5,41.3,0c18.4-0.6,36.8,1.4,55.2,1
		c7.1-0.1,14.3,0.4,21.3-1.2c0.6-0.2,1.1-0.4,1.7-0.5c2.6-0.2,5.2-0.7,7.7,0.6C415.2,442.9,415.3,443.4,415,444z"/>
	<path class="st21" d="M249,435c-0.4,0-0.7,0-1.1,0c-5.1-4.2-8.5-10.3-14.7-13.3c0-0.3,0-0.5,0-0.8c-2-6-1.6-12.1-1.6-18.2
		c0.1-7.8-0.3-15.6,0.4-23.4c0.2-2.2,0.2-4.4,2.5-5.5c1,0.3,1.3,1.2,1.5,2.1c-1.2,12.2-0.5,24.5-0.5,36.7c0,3.6,1.5,6.7,3.7,9.5
		c3,2.8,5.7,5.8,8.2,9C248.3,432.3,249.6,433.2,249,435z"/>
	<path class="st22" d="M200,435c-1.3,1.4-1.5,3.3-2,5c-2.5,1.9-4,5.3-7.9,5.1c-0.1-0.2-0.2-0.4-0.3-0.7c0.1-1.4,1.1-2.2,2-3
		c1.3-0.9,2.4-2,3.3-3.2c1.8-3.3,2.5-6.8,2.5-10.5c0-20.8,0-41.5,0-62.3c0-4.5-1.1-8.5-4.5-11.7c-3.6-3.7-8.1-4.2-12.9-4.2
		c-19.9,0-39.8,0-59.8,0c-2.3,0-4.7,0.4-6.9-0.8c-0.2-0.2-0.4-0.4-0.7-0.7c1.5-1.5,3.5-0.9,5.2-0.9c21.1,0,42.2,0,63.3,0
		c12.7,0,18.5,5.9,18.5,18.6C200,388.8,200,411.9,200,435z"/>
	<path class="st23" d="M103,349c0.3,0,0.7,0,1-0.1c3.1,0.6,5.9-1.2,8.9-1c0,0,0.1,0.1,0.1,0.1c0.3,0.5,0.3,1-0.1,1.5
		c-1.4,1.7-3.4,1.6-5.3,1.7C105.9,351,103.5,351.8,103,349z"/>
	<path class="st24" d="M582.8,427c-0.7,4.2-4,6.4-6.8,9c-1.4,1.9-2.8,3.8-4.2,5.8c-1.6,0.1-3.1,0.5-3.9,2.1c-4.8,1.3-9.6,2.1-14.7,2
		c-10.6-0.1-21.2,0.1-31.9-0.1c-6.8-0.1-13.5-3.9-20.4-0.9c-1.1,0.7-2.3,0.5-3.4,0.5c-25.1,0-50.2,0-75.2,0c-1.1,0-2.3,0.2-3.4-0.5
		l0,0c-0.3-0.7-0.1-1.2,0.5-1.6c2.2-1.1,4.6-0.8,6.9-0.8c22.9,0,45.8,0,68.7,0c2.3,0,4.7,0.3,6.9-0.6c4.8-2.3,9.5-1.4,14.3-0.1
		c3.7,1.2,7.5,0.6,11.3,0.6c11.1,0,22.1,0.1,33.2,0c0.5-0.1,1-0.2,1.5-0.3c2.9-0.4,5.3-1.6,7.2-3.9c3.6-3.1,5.8-7.4,9.9-9.9
		C580.5,427.8,581.3,426.5,582.8,427z"/>
	<path class="st25" d="M419,445c27.3,0,54.7,0,82,0c-1.3,1.4-3.1,0.9-4.7,0.9c-24.2,0-48.4,0-72.7,0C422.1,446,420.3,446.5,419,445z
		"/>
	<path class="st25" d="M419,444c0,0.3,0,0.7,0,1c-1.5,0.2-2.8-0.3-4-1c0-0.3,0-0.7,0-1C416.7,441.9,417.9,442.6,419,444z"/>
	<path class="st26" d="M34,443c-0.3-2.1-1.7-3.5-3-5c-0.5-3.3-1.5-6.6-1-10c0.7,2.3,1.3,4.7,2,7c1.2,1.2,2.4,2.4,3.6,3.6
		c1.9,2.2,4.1,3.9,6.9,4.9c0.9,0.4,1.8,0.7,2.7,1c6.1,0.4,12.1,0.6,18.2-0.2c3.2-0.4,6.6,0.7,9.7-1.2c3.8-1.2,7.6-2.2,11.5-0.2
		c0.7,0.5,1.2,1,1.6,1.7c0.2,0.5,0.1,1-0.2,1.5c-1,0-2,0-3,0c-3.3-2.1-6.2-0.6-9,1c-7.5,0-15-0.3-22.4,0.1
		C45.2,447.4,39.4,446.2,34,443z"/>
	<path class="st22" d="M86,446c0-0.3,0-0.7,0-1c1.6-1.7,3.6-1.4,5.6-1.4c6.7-0.1,13.5,0,20.2,0c4.2,0,8.3,0,12.5,0
		c19.7,0,39.3,0,59,0c2.3,0,4.7-0.5,6.7,1.3c0,0,0.1,0.2,0.1,0.2c-0.3,0.3-0.7,0.6-1,0.9c-1.2,0.8-2.6,0.5-3.9,0.5
		c-31.4,0-62.8,0-94.3,0c-1.3,0-2.7,0.3-3.9-0.5C86.6,446,86.3,446,86,446z"/>
	<path class="st26" d="M87,446c34,0,68,0,102.1,0c-1.3,1.5-3.1,1-4.7,1c-30.9,0-61.8,0-92.7,0C90.1,447,88.3,447.5,87,446z"/>
	<path class="st18" d="M235,374c-1.9,1.6-2,3.7-2,5.9c0,11.5,0.1,23-0.1,34.5c0,2.3,2.1,4.4,0.3,6.6c-1-0.3-1.2-1.1-1.2-2
		c-1.7-14.7-1.4-29.3,0-44c0.1-1.6,0.7-3,2-4c0.8-1.2,1.8-2.2,3-3c4-2,5.1-6.9,9-9c1.9-0.6,2.6-3.2,4.9-3l0.1,0.1
		c1.1,1.7,0,2.9-1.1,3.8C244.8,364.4,240.6,369.9,235,374z"/>
	<path class="st17" d="M232,375c0,14.7,0,29.3,0,44c-1.6-1.9-1.7-4.5-1.8-6.5c-0.2-12.2-1.1-24.5,1.1-36.7
		C231.4,375.5,231.8,375.2,232,375z"/>
	<path class="st17" d="M250.9,356c-1.8,0.8-2.6,3.1-4.9,3c1.3-2,3-3.7,5-5C251,354.6,251,355.3,250.9,356z"/>
	<path class="st17" d="M237,368c-0.7,1.3-1.6,2.4-3,3C234.1,369.1,235.1,368.1,237,368z"/>
	<path class="st27" d="M51.2,352.2c1.3-0.7,2.5-1.5,3.8-2.2c0.7,0,1.3-0.1,2-0.1c12.5-1.5,25.1-1,37.6-0.4c0.9,0.6,1,1.5,0.7,2.4
		c-0.9,0.9-2.1,0.7-3.3,0.7c-10.3-0.4-20.6-0.1-30.8-0.2c-1.7,0-3.3,0.2-4.8,0.9c-0.5,0.2-0.9,0.4-1.3,0.7c-0.4,0.3-0.8,0.6-1.2,0.8
		c-3.3,2.6-5.5,6.5-9.2,8.7c-1.2,0.8-1.6,2.9-3.6,2.4c0-0.6,0-1.3,0-1.9C43.8,359.5,49.8,357.8,51.2,352.2z"/>
	<path class="st28" d="M33.2,433.9c-0.4-1.3-0.7-2.6-1.1-3.9c1-5.6,0.4-11.2,0.4-16.8c-0.1-12,0.5-24.1-0.3-36.1
		c0.2-2.7,1.4-4.8,3.7-6.2c1-0.4,1.3,0.2,1.5,0.9c0,0.8-0.3,1.5-0.6,2.2c-0.4,1-1,1.9-1.2,3c-0.4,18.1,0.1,36.2-0.3,54.2
		C35,432.4,34.9,433.8,33.2,433.9z"/>
	<path class="st29" d="M32.1,377.1c1.2,1,0.9,2.4,0.9,3.7c0,15.1,0,30.3,0,45.4c0,1.3,0.3,2.7-0.9,3.7
		C32.1,412.3,32.1,394.7,32.1,377.1z"/>
	<path class="st30" d="M37,371.9c-0.4-0.3-0.8-0.7-1.1-1c1.4-2,4.4-2.3,5.2-4.9c0.9-1,1.8-2.1,2.8-3.1c0.5-0.3,0.9-0.3,1.4,0
		c0.3,0.4,0.5,0.9,0.5,1.4c-0.3,2-0.4,4.1-1.1,6.1c-0.8,1.6-2,2.6-3.8,2.8C39.4,373.2,38,373.2,37,371.9z"/>
	<path class="st31" d="M34.8,439.1c-1.4-1-2.8-2.1-2.8-4.1c0.4,0,0.8,0,1.1,0c1-0.3,1.7,0.2,2.5,0.6c0.9,0.7,1.9,1.4,1.9,2.7
		c-0.1,0.5-0.3,0.9-0.7,1.1C36.1,439.6,35.4,439.4,34.8,439.1z"/>
	<path class="st32" d="M34.9,436c-0.6-0.4-1.2-0.7-1.7-1.1c0-0.3,0-0.7,0-1c0.3-0.7,0.6-1.3,0.9-2c0.4-0.3,0.8-0.3,1.2-0.1
		c0.8,0.5,1.2,1.2,1.4,2.1c0.1,0.4,0.1,0.9,0,1.3c-0.1,0.4-0.3,0.8-0.7,1.1C35.6,436.4,35.2,436.3,34.9,436z"/>
	<path class="st33" d="M103,349c1.4,1.6,3.4,0.7,5.1,1.1c0.3,0.5,0.2,1-0.1,1.4c-0.7,0.9-1.7,1.3-2.8,1.4c-3.3-0.2-6.6-0.9-9.4-2.8
		c-3.2-1.4-6.5-0.5-9.7-0.6c-8.7-0.4-17.4,0.6-26.1-0.6c1.2-1.3,2.8-0.9,4.2-0.9c10.6,0,21.3-0.1,31.9,0
		C98.4,348.1,100.7,348.7,103,349z"/>
	<path class="st34" d="M60,349c10.6,0,21.2,0,31.8,0.1c1.7,0,3.7-0.6,5.2,1c-0.7,0.6-1.4,0.6-2.1,0c-12.6-0.1-25.3-0.1-37.9-0.2
		C57.8,348.9,58.9,349,60,349z"/>
	<path class="st35" d="M378,358.1c20.2,0,40.4,0,60.6-0.1c2.2,0,4.2,0.6,6.3,1.1c0.7,0.4,1.5,0.7,1.3,1.8c-0.3,0.5-0.7,0.8-1.3,1.1
		c-0.9,0.3-1.7,0.4-2.6,0.3c-2.8-0.7-5.6-0.8-8.4-0.8c-18.8,0-37.6,0-56.4,0c-2.1,0-4.3,0-6.4,0c-1.5,0-3.1,0-4.6-0.4
		c-9.6-1.3-19.2-0.2-28.8-0.6c-2.5-0.1-5,0.4-7.3-0.8c-0.6-0.4-0.7-0.9-0.4-1.6c13.6,0,27.3,0.1,40.9,0.1
		C373.3,358.8,375.7,358.8,378,358.1z"/>
	<path class="st36" d="M235,374c0.5-2.9,3-4.1,4.9-5.9c4-3.8,8-7.5,11.2-12c2.9-2.5,5.6-5.1,9-7c1,0,1.9-0.1,2.9-0.1
		c16.3,0,32.6,0,48.8,0.1c1.8,0,3.7-0.5,5.3,0.8c-0.4,0.5-0.9,0.9-1.5,1.1c-11.4,0.9-22.9,0.2-34.4,0.4c-5.8,0.1-11.6-0.4-17.4,0.3
		c-1.2,0.6-2.4,1.2-3.7,1.5c-2.4,0.4-3.7,2-4.8,3.9c-1.1,1.9-2.3,3.7-4.4,4.6c-1.5,0.8-2.8,2-3.8,3.5c-0.2,0.4-0.5,0.7-0.7,1.1
		c-1,1.1-2,2.2-3.1,3.2c-0.6,0.6-1.4,1-2.1,1.3c-1.5,0.5-2.3,1.7-2.7,3.2c-0.4,1.5-0.2,3-0.2,4.5c-0.1,11.1,0.3,22.2-0.2,33.3
		c-0.2,1-0.6,1.8-1.4,2.4c-2.6-1-1.7-3.3-1.7-5.1c-0.1-11,0-22-0.1-33.1C235,375.3,235,374.6,235,374z"/>
	<path class="st37" d="M316,350c0.4-0.1,0.7-0.1,1.1-0.2c3.1-0.8,5.2,1.2,7.2,3c2,1.6,3.8,3.4,5.8,5.2c0,0.4,0,0.7,0,1.1
		c-1.3,1.3-2.8,1.2-4.4,1c-1.5-0.3-2.6-1.1-3.3-2.5c-0.4-0.9-0.8-1.9-1.7-2.5c-0.3-0.2-0.6-0.4-1-0.7c-0.5-0.3-1-0.7-1.5-1
		c-1-0.6-2.4-0.9-2.7-2.3C315.5,350.7,315.7,350.3,316,350z"/>
	<path class="st38" d="M498,358c-13,0-26.1,0-39.1,0c0.8-1,2-1,3.2-1c10.9,0,21.8,0,32.7,0C496,357,497.2,357,498,358z"/>
	<path class="st38" d="M446,360c-0.4-0.3-0.7-0.7-1.1-1c4.4,0.4,8.6-1.7,13.1-1c-0.3,0.3-0.7,0.6-1,0.9
		C453.5,360.3,450.1,364.1,446,360z"/>
	<path class="st37" d="M378,358.1c-2.3,1.5-4.7,1.5-7,0C373.3,358.1,375.7,358.1,378,358.1z"/>
	<path class="st39" d="M581.9,391c2.7,4,2,8.5,2,12.9c0,5.1,0,10.2,0,15.3c-1.3,2.5,0.7,6.5-3.6,7.6c-0.5,0-1-0.2-1.5-0.5
		c-0.5-0.7-0.6-1.5-0.3-2.3c0.2-0.5,0.4-1,0.7-1.5c0.8-9.7,0.3-19.3,0.2-29c-0.2-0.5-0.3-1-0.3-1.6c0-0.5,0.1-1,0.4-1.5
		C580.7,389.1,581.3,390.1,581.9,391z"/>
	<path class="st40" d="M580,390c-0.1,0.5-0.1,1-0.2,1.4c-0.5,0.2-1.1,0.2-1.6,0.1c-3.2-0.4-6.9,0.1-8.2-4.2
		c-0.8-6.3-0.2-12.5-0.4-18.8c0.1-1.3-0.2-2.6-0.3-4c0-0.5,0.2-1,0.5-1.5c0.5-0.1,1-0.2,1.5-0.3c2.2,0.6,1.6,3.1,2.8,4.4
		c1,4.2,0.2,8.4,0.5,12.6c0.1,1.7-0.6,3.6,0.6,5.2l0,0c0.8,1.8,2.7,2,4,3l0,0C579.5,388.5,580.6,388.8,580,390z"/>
	<path class="st41" d="M580.4,426.1c3.6-1.1,2-4.8,3.6-6.9c0.5,2.7-0.1,5.3-1.1,7.8c-5.1,3.1-8.2,8.4-12.8,12
		c-0.9-0.1-1.7-0.4-2.1-1.3c0.2-1.8,2-2.1,2.7-3.5C573.2,430.8,576.2,427.8,580.4,426.1z"/>
	<path class="st42" d="M575.1,385c-2.3-5.8-0.5-11.9-1.1-17.8C576,373,574.3,379.1,575.1,385z"/>
	<path class="st42" d="M579.1,388c-1.9-0.3-3.8-0.5-4-3C576.4,385.9,578.2,386.3,579.1,388z"/>
	<path class="st42" d="M580,390c-0.3-0.7-0.7-1.4-1-2.1c1.7,0.3,2.8,1.2,2.9,3.1C581.3,390.7,580.7,390.3,580,390z"/>
	<path class="st43" d="M508,361.9c0.1,0.3,0.1,0.6,0.1,0.9c0.4,1-0.2,1.4-1,1.7c-0.5,0.1-1.1,0.1-1.6-0.1c-0.8-0.2-1.5-0.6-2.3-0.9
		c-15.3-0.4-30.5-0.2-45.8-0.1c-0.6,0.1-1.1,0.2-1.7,0.1c-0.9-0.2-1.5-0.7-1.9-1.4c0-2.3,1.6-2.4,3.2-2.4c14.2,0,28.3,0,42.5,0
		C502.5,359.8,505.5,359.8,508,361.9z"/>
	<path class="st44" d="M457,359.8c-1,0.7-2.1,1.4-3.1,2.1c-0.5,2.2-1.9,3.7-4.1,3.5c-2.3-0.2-3.9-1.7-3.9-4.3c0-0.4,0.1-0.8,0.1-1.2
		c3.9,2.3,7.2-1.9,11-1.1C457,359.2,457,359.5,457,359.8z"/>
	<path class="st45" d="M566.1,360c0.6,1.4,3.1,0.7,2.8,2.9c-0.5,0.4-1.1,0.6-1.8,0.5c-14.3-0.2-28.6,0-42.9-0.1c-2,0-4,0.2-6-0.4
		c-0.6-0.2-1.1-0.6-1.5-1.1c2.2-1.5,4.8-2.1,7.4-2.1C538.2,359.8,552.2,359.9,566.1,360z"/>
	<path class="st29" d="M512.9,366.6c0.7-0.9,1.3-1.8,2-2.7c2.2-0.1,1.9,1.6,2,3c-0.5,1.7-0.5,3.6-2.2,4.7c-2.6,1-5,0.6-6.2-2.1
		c-0.8-1.8-1.2-3.9,1.7-4.6l0,0C510.9,365.7,510.8,367.9,512.9,366.6z"/>
	<path class="st46" d="M510.1,364.9c-1.9,5-1.3,5.9,4.9,6.1c-2,3.9-4.5,2.2-7,0.7c-0.9-1.1-1.1-2.5-1.2-3.9c0-1.3-0.4-2.6,0.2-3.8
		c0.4-0.4,0.8-0.8,1.2-1.2C509.3,363,510,363.7,510.1,364.9z"/>
	<path class="st46" d="M516,366.8c-0.1-1.1,0.1-2.2-1.1-2.8c0.7-0.7,1.3-1.3,2-2c0.4,0,0.8,0.1,1.3,0.1c0.3,0.3,0.4,0.7,0.5,1.1
		c0,0.4-0.1,0.8-0.2,1.2c-0.4,1-0.6,2.1-1.5,2.8C516.5,367.3,516.2,367.2,516,366.8z"/>
	<path class="st46" d="M512.9,366.6c-1.6,1.5-2.2,1.2-2.8-1.7C511,365.5,511.9,366.1,512.9,366.6z"/>
	<path class="st47" d="M517.9,363.9c0.1-0.2,0.2-0.4,0.3-0.6c0.7-1,1.8-0.7,2.7-0.7c15.1,0,30.1,0,45.2,0c0.7,0,1.3,0.1,1.9,0.4
		c0.3,0.1,0.6,0.1,0.9,0c0.2,0.1,0.5,0.2,0.8,0.2c0.1,0.3,0.1,0.6,0.1,0.9c-0.3,1-1,1.5-2,1.6c-16-0.1-31.9-0.1-47.9,0
		C518.8,365.4,518.2,364.9,517.9,363.9z"/>
	<path class="st48" d="M260,443c-1.3-0.7-2.7-1.3-4-2c-1.4-1.8-3.9-3-3.2-6c0.4-0.3,0.9-0.4,1.4-0.3c2.8,1.8,5.2,4.2,8.6,4.8
		c3.2,0.9,6.5,1.1,9.9,1.1c10.1-0.1,20.3,0.3,30.4-0.1c18.1-0.8,36.1,0.8,54.2,0c12.3-0.5,24.5,0.1,36.7,0.1c3.7,0,7.3-0.2,10.8-1.3
		c1.4-0.6,2.7-1,4.2-1.4c2.3-0.3,4.5-0.4,6.8,0.2c2.1,0.9,4.3,1.7,6.5,2.2c20.4,0.6,40.7,0,61.1,0.3c4.7,0.1,9.6-0.9,14.2,0.9
		c0.6,0.5,0.7,1,0.4,1.7c-9.5,0.7-18.9,0.2-28.4,0.3c-13.6,0.1-27.3,0-40.9,0c-4.5,0-8.9,0.2-13.3-1.2c-2.6-0.8-5.6-0.6-8.3,0.7l0,0
		c-3.9,0.8-7.9,1-11.8,1c-25.5,0.3-50.9-0.8-76.4-0.5c-17.8,0.2-35.6,0-53.4,0C263.6,443.5,261.7,443.9,260,443z"/>
	<path class="st49" d="M260,443c49,0,98,0,147,0c-3.7,1.6-7.6,2-11.5,1.9c-25.6-0.3-51.1-0.7-76.7-0.9c-17.9-0.1-35.8,0-53.7-0.1
		C263.4,444,261.4,444.7,260,443z"/>
	<path class="st50" d="M407,443c2.7-2.8,6-2.5,9.2-1.4c3,1.1,6.1,1.4,9.3,1.4c24.1-0.1,48.3,0,72.4,0c1.7-1.3,3.3-1.5,5,0
		c-1.6,1.7-3.8,1-5.7,1c-26.1,0.1-52.2,0-78.3,0c-1.3-0.3-2.7-0.7-4-1C412.3,443,409.7,443,407,443z"/>
	<path class="st51" d="M253,435c-0.1,2.6,3.2,3.4,3,6c-3.8-0.2-3.7-5.1-7-6c-3.3-3.7-5.9-8-10-11c0.5-0.6,1.2-0.8,2-0.7
		C246.4,425.7,248.8,431.3,253,435z"/>
	<path class="st52" d="M241,424c-0.7,0-1.3,0-2,0c-3.2-2.7-4.8-6.5-4.9-10.4c-0.3-11.1-0.1-22.1-0.1-33.2c0-1.4,0.6-2.9,0.9-4.3
		c1.6,1.5,0.9,3.4,0.9,5.2c0.1,9.1,0,18.3,0.1,27.4c0,1.8-0.5,3.7,0.6,5.3c1.1,0.1,1.5,1,1.9,1.7c0.5,1,0.9,2,0.8,3.2
		C238.4,421,242.1,421.7,241,424z"/>
	<path class="st53" d="M194.1,352.9c3.9,2.6,4.9,6.7,4.9,10.9c0.1,21.8,0.1,43.6,0,65.4c0,3.9-0.3,8-3.9,10.8
		c-0.4-0.5-0.6-1.1-0.7-1.7c1.1-3.5,1.3-7.1,1.2-10.8c-0.1-18.3,0-36.5,0-54.8c0-6.4,0.6-12.9-2-19
		C193.7,353.4,193.9,353.2,194.1,352.9z"/>
	<path class="st53" d="M113.1,349c0-0.3,0-0.7,0-1c22.9,0,45.8-0.1,68.6,0c4.6,0,9.4,0.4,12.4,4.8c0,0-0.1,0.1-0.1,0.1
		c-2.7,1.3-4.8-1.3-7.4-1c-3.6-1.4-7.4-1.7-11.2-1.7c-18.5,0.1-37.1,0.1-55.6,0C117.4,350.4,115,350.9,113.1,349z"/>
	<path class="st54" d="M190,444.9c-22,0-44,0-66,0.1c0.8-3.3,3.7-2.3,5.7-2.3c14.8-0.1,29.5-0.1,44.3-0.1c5.8,0,11.6,0.2,17.3-1.1
		c0.3,0.2,0.5,0.4,0.8,0.6C191.4,443,190.7,444,190,444.9z"/>
	<path class="st54" d="M195,439c0,0.4,0,0.7,0,1.1c-0.6,1.3-1.6,1.9-2.9,2c0,0-0.1-0.1-0.1-0.1C191.8,439.8,192.7,438.7,195,439z"/>
	<path class="st55" d="M113.1,349c20.1,0,40.2,0.1,60.3,0c5,0,9.9,0.1,14.6,2c1.3,1,2.9,1.4,3.5,3.1c0.3,1.3-0.1,2.3-1.1,3
		c-0.4,0.2-0.8,0.3-1.3,0.2c-1.3-0.8-2-2.2-3.5-2.9c-0.6-0.3-1.2-0.7-1.8-1c-2.1-0.9-4.3-1.3-6.5-1.9c-18.6-0.4-37.3-0.1-55.9-0.1
		c-1,0-2,0.1-2.9,0.5c-2.4,0.6-4.8,0.4-7.2,0.4c-1.2-0.1-2.4-0.3-3.2-1.4c0-0.2-0.1-0.5-0.1-0.7C109.7,349.8,111.4,349.4,113.1,349z
		"/>
	<path class="st52" d="M503,443c-1.7,0-3.3,0-5,0c0-0.3,0-0.7,0-1c5.3-2.6,10.7-4.4,16.7-2.1c2.4,1,4.9,0.6,7.4,0.7
		c0.6,0,1.2,0,1.8,0c10.8,0,21.5,0,32.3,0c2.1,0,4.3-0.3,6.3,0.8c0.6,0.4,0.8,0.9,0.5,1.6l0,0c-6.2,1.1-12.5,0.4-18.8,0.4
		c-9.4,0-18.8,0.7-28.2-0.4C511.7,442.4,507.3,440.8,503,443z"/>
	<path class="st56" d="M516,443c15.7,0,31.3,0,47,0c-0.8,1.1-2,1-3.2,1c-13.6,0-27.1,0-40.7,0C518,444,516.8,444.1,516,443z"/>
	<path class="st56" d="M563,443c0-0.3,0-0.7,0-1c0.5-1.7,2.2-2.3,3.3-3.4c0.4-0.3,0.8-0.5,1.2-0.6c0.2,0,0.5,0,0.7,0
		c0.8,0.1,1.4,0.3,1.8,1C568.4,441.6,566.1,443,563,443z"/>
	<path class="st57" d="M190.9,354c-1.3-0.7-2.3-1.7-2.9-3c2.4-0.6,3.8,1.9,6,2.1c3.4,4.8,3.1,10.2,3.1,15.7
		c-0.1,20.6-0.1,41.2,0,61.7c0,3.1-0.4,5.9-2.1,8.5c-1.3,0.7-2.3,1.7-3,3c-4.1,2-8.6,2.1-13.1,2.1c-16.6-0.1-33.2-0.1-49.8,0
		c-1.7,0-3.7-0.7-5.2,1c-4,0-8,0-12,0c-6.5-1.1-13.1-0.2-19.7-0.5c-2.4-0.1-4.9,0.5-7.3-0.4c-4-2.2-7.9-0.5-11.9,0
		c-6.3,0.9-12.6,0.9-18.9,0.9c-4.1-0.2-8.2,0.5-12.2-0.9c-3.2-0.5-5.3-2.5-7.2-5c0.7,0,1.4-0.1,2.1-0.1c0.3-0.3,0.7-0.5,1.2-0.4
		c1.3,0.5,2.3,1.4,3.6,1.8c1.2,0.4,2.4,0.6,3.5,1c8.3,0.3,16.6,0.6,24.9-0.2c2.6-0.6,5.1-1.5,7.7-2.2c1.6-0.3,3.2-0.2,4.7,0.1
		c1.5,0.4,3.1,0.8,4.6,1.2c1.1,0.4,2.2,0.6,3.2,1.1c20.4,0.3,40.7,0.8,61.1-0.3c1.8-0.4,3.6-0.4,5.4-0.1c9.1,1.3,18.2,0.6,27.4,0.4
		c1.5,0,2.9-0.8,4-1.9c0.5-0.4,0.9-0.7,1.5-1c4.4-2.9,4.6-7.7,4.7-12c0.3-19.7,0.3-39.5,0-59.2C194.5,362.7,192.7,358.3,190.9,354z"
		/>
	<path class="st54" d="M85,444c7.6,0,15.3,0,22.9,0c1.4,0,3-0.4,4.2,1c-8.7,0-17.3,0-26,0C85.7,444.7,85.3,444.4,85,444z"/>
	<path class="st54" d="M54,444c6.4,0,12.7,0,19.1,0.1c-2.8,2.6-5.9,1.3-9,0.9c-3.2,1-6.4,0.3-9.6,0.4C53.8,445.1,53.7,444.7,54,444z
		"/>
	<path class="st58" d="M54,445c3.4,0,6.7,0,10.1,0.1c-6.7,1.5-13.4,1.6-20.1,0C47.3,444.2,50.6,444.3,54,445z"/>
	<path class="st59" d="M54,445c-3.3,0-6.7,0-10,0.1c-0.8,0-1.6-0.2-2-1c4,0,8,0,12.1,0C54,444.3,54,444.7,54,445z"/>
	<path class="st60" d="M54,353.1c1.5-1.9,3.7-2.2,5.8-2.2c10.1-0.1,20.3-0.1,30.4,0c1.6,0,3.2,0.5,4.8,0.7c1.1,0.5,1.6,1.1,0.4,2
		c-3.4,1.3-6.9,0.7-10.4,0.7c-8.3,0.1-16.6,0.1-24.9,0C58,354.4,55.8,354.8,54,353.1z"/>
	<path class="st61" d="M54,353.1c14.2-0.1,28.3-0.2,42.5-0.2c0.7,0.2,0.9,0.7,0.5,1.3c-0.5,0.4-1,0.7-1.6,0.9
		c-13.4,0.5-26.7,0.5-40.1,0c-0.6-0.1-1.2-0.4-1.6-0.9C53.8,353.8,53.9,353.5,54,353.1z"/>
	<path class="st62" d="M45.2,363.1c-0.5-0.1-1-0.1-1.5-0.2c4-2.1,5.8-6.6,9.7-8.8c1.1,2.3,1.1,4.6,0.3,7
		C51.6,364.8,48.7,365.2,45.2,363.1z"/>
	<path class="st63" d="M96.9,352.9c0,0-0.4,0-0.4,0c-0.5-0.4-1-0.8-1.5-1.2c0-0.6-0.1-1.1-0.1-1.7c0.7,0,1.4,0,2.1,0
		c3,0.7,5.9,1.3,8.9,2c0.4,0.3,0.6,0.8,0.4,1.3C102.5,357.8,101.5,357.8,96.9,352.9z"/>
	<path class="st64" d="M52.8,360.6c-0.4-2.2,0.3-4.4,0.6-6.5c0,0,0.3,0.1,0.3,0.1c0.2,0.3,0.4,0.5,0.5,0.8c1,0,1.2,0.8,1.4,1.6
		c-0.3,2.3,0.2,4.9-1.9,6.7C52.3,362.8,52.5,361.7,52.8,360.6z"/>
	<path class="st65" d="M36.4,433.9c-0.5-0.6-1-1.2-1.4-1.8c-0.9-6.8-0.4-13.6-0.4-20.3c0.1-12.3-0.5-24.5,0.3-36.8
		c0.4-0.6,0.9-1.2,1.3-1.8c1.3-0.1,1.4,0.9,1.6,1.8c-0.3,19-0.3,37.9,0,56.9C37.6,432.7,37.6,433.7,36.4,433.9z"/>
	<path class="st66" d="M34.9,374.9c0,19,0,38.1,0,57.1c-0.3,0-0.5-0.1-0.8-0.2c0-17.7-0.1-35.5-0.1-53.2
		C34,377.4,33.8,376,34.9,374.9z"/>
	<path class="st67" d="M37.1,374c-0.3-0.3-0.6-0.6-0.9-0.9c0.3-0.4,0.5-0.8,0.8-1.2c1.3,0.1,2.7,0.1,4,0.2c1.1,1.3,3.6-1,4.1,1.7
		C42.5,376,39.9,375.9,37.1,374z"/>
	<path class="st68" d="M52.8,360.6c0.2,0.9,0.2,1.9,1.3,2.4c-0.7,5.2-4.4,2.8-7.2,2.9c-0.9-0.3-1.5-0.9-1.7-1.8c0-0.3,0-0.7,0-1
		C47.8,362.5,51.2,364.2,52.8,360.6z"/>
	<path class="st69" d="M45.3,364.1c0.3,0.3,0.6,0.7,0.8,1c0.6,2.5,0.6,5-1.2,7.1c-1.7-0.3-1.4-1.4-1-2.5
		C43.5,367.6,43.8,365.7,45.3,364.1z"/>
	<path class="st70" d="M43.9,369.7c0.2,0.9,0.2,1.9,1.2,2.3c0.2,0.4,0.1,0.7-0.2,1c-1.3-0.1-2.9,0.4-3.9-1
		C42.5,371.9,43.2,370.8,43.9,369.7z"/>
	<path class="st71" d="M34.9,436c0.4-0.1,0.8-0.1,1.2-0.2c0.7-0.5,1.4-1,2.2-1c9.9-0.2,19.9-0.8,29.8,0.3c0.6,0.3,1,0.8,1.1,1.5
		c-0.6,1.3-1.6,2-2.9,2.4c-8.2,0.8-16.5,0.2-24.7,0.3c-1.7,0-3.2-0.5-4.7-1.4C36.2,437.3,35.6,436.7,34.9,436z"/>
	<path class="st72" d="M36.9,438c10,0,20.1,0,30.1,0c-0.6,3.2-3.2,2.3-5.1,2.4c-6.4,0.1-12.9,0.2-19.3,0C41,440,39.4,440,38,439
		c-0.4,0-0.8,0-1.1,0C36.9,438.6,36.9,438.3,36.9,438z"/>
	<path class="st73" d="M36.4,433.9c0.2-0.2,0.5-0.4,0.6-0.6c3-1.6,6.2-0.7,9.3-0.7c7.4-0.2,14.9,0.1,22.3-0.3
		c0.6,0.1,1.2,0.4,1.7,0.8c0.3,1,0.3,1.9-0.8,2.4c-9.9,0.1-19.7,0-29.6,0c-1.2,0-2.7,0.7-3.6-0.8C36.2,434.4,36.2,434.1,36.4,433.9z
		"/>
	<path class="st61" d="M36.3,434.6c11.1,0.8,22.2,0.2,33.2,0.3c0.4-0.4,0.9-0.5,1.4-0.2c0.5,1.6-0.2,1.8-1.5,1.3
		c-11.1-0.1-22.2-0.1-33.2-0.2C36.2,435.5,36.2,435.1,36.3,434.6z"/>
	<path class="st74" d="M106,353c0-0.3-0.1-0.7-0.1-1c0.7-0.4,1.5-0.7,2.2-1.1c1,0,1.9,0.1,2.9,0.1c0.6,1.7-1.1,1.7-1.8,2.6
		c-0.3,0.3-0.6,0.5-1,0.7c-0.4,0.2-0.8,0.2-1.2,0.1C106.5,354.1,106.1,353.6,106,353z"/>
	<path class="st29" d="M323.1,356c0.1,1.3,0.8,2.3,1.9,3c5.6,1.2,11.2,0.3,16.8,0.5c8.5,0.3,16.9-0.5,25.4,0.4
		c1.3,0,2.5,0.1,3.8,0.1c2,0.8,4,0.7,6,0.1c20.4-0.1,40.8-0.2,61.2-0.2c1.9,0,3.8,0.8,5.8,1.2c-0.6,2.8-3,2.2-4.8,2.3
		c-5.7,0.2-11.3,0.1-17,0.1c-30.7,0-61.3,0-92,0c-2.5,0-5,0.3-7.4-0.5c-0.6-0.3-1.1-0.7-1.4-1.3C320.9,359.4,319.8,357,323.1,356z"
		/>
	<path class="st75" d="M322,362c38.7,0,77.5,0,116.2-0.1c1.9,0,4,0.8,5.7-0.9c0.7,0,1.3,0.1,2,0.1c2.3,4,5,4,8,0.8
		c0.4,0.4,0.7,0.8,1.1,1.2c0.3,0.4,0.4,0.8,0.3,1.3c-0.2,1.2-0.5,2.4-0.8,3.5c-2.1,5.5-3.7,6.2-8.7,3.6c-0.8-1-0.9-2.3-1.1-3.5
		c0-1.3-0.7-2.2-1.8-2.8c-0.5-0.2-0.9-0.5-1.5-0.6c-21.3-0.6-42.5-0.1-63.8-0.2c-16.5,0-33,0.1-49.5-0.1
		C326,364.3,323.1,365.3,322,362z"/>
	<path class="st76" d="M367.2,359.9c-12.9,0-25.7,0.1-38.6,0.1c-1.3,0-2.7,0.2-3.6-1c1.7,0,3.4,0.1,5.1,0.1
		c10.6,0,21.2,0.1,31.8,0.1C363.7,359.2,365.5,358.7,367.2,359.9z"/>
	<path class="st77" d="M377,360.1c-2,1.4-4,1.5-6-0.1C373,360,375,360.1,377,360.1z"/>
	<path class="st29" d="M316,351c0.8,1.3,2.9,0.3,3.5,2c-1,1.1-2.3,1.4-3.6,1.4c-18.3,0-36.6,0.5-55-0.3c-1-0.4-1.9-0.8-1.8-2
		c1-0.2,2.3,0.1,3-1c1.5-1,3.2-0.5,4.8-0.5c14.7,0,29.5,0,44.2,0C312.7,350.5,314.4,350.1,316,351z"/>
	<path class="st78" d="M237.7,416.1c-0.4-0.7-0.7-1.5-1.1-2.2c0.1-0.6,0.2-1.3,0.4-1.9c0.8-11.7,0.9-23.3,0-35
		c0-1.4-0.5-2.9,0.8-4.1c0.6-0.4,1-1,1.7-1.2c0.5,0.1,0.9,0.3,1.3,0.7c0.5,0.7,0.6,1.4,0.3,2.2c-0.2,0.5-0.4,1-0.6,1.5
		c-0.3,12.3-0.4,24.6,0,36.8c0.3,0.8,0.4,1.6,0.3,2.4c-0.1,0.5-0.3,1-0.5,1.5C239.2,417.9,238.6,416.5,237.7,416.1z"/>
	<path class="st79" d="M316,351c-18,0-35.9,0-53.9,0c1.6-1.8,3.7-1,5.6-1c16.1-0.1,32.2,0,48.3,0C316,350.4,316,350.7,316,351z"/>
	<path class="st77" d="M259,352.1c0.4,0.3,0.7,0.7,1.1,1c0.3,0.3,0.4,0.7,0.3,1.1c-0.2,0.6-0.6,1.1-0.9,1.6c-0.4,0.7-0.7,1.6-1,2.4
		c-0.9,3.2-2,6.2-6.2,5.6c-1.1-0.5-2.4-0.9-2.2-2.6c2.5-1,3.4-3.3,4.7-5.3C255.8,354.2,256.8,352.4,259,352.1z"/>
	<path class="st29" d="M237,377c1.1,0.8,1,2,1,3.1c0,9.6,0,19.1,0,28.7c0,1.2,0.1,2.3-1,3.1C236.5,400.3,236.6,388.7,237,377z"/>
	<path class="st80" d="M241.1,370.1c0.6-0.4,1.2-0.8,1.8-1.2c1.5-0.5,2.5-1.6,3-3c0-0.3,0.1-0.6,0.2-0.8c1.2-0.9,1.9-0.3,2.6,0.7
		c0.4,1,0.5,2,0.3,3.1c-0.1,0.5-0.3,1-0.5,1.4c-1.5,2.1-4,1.8-6.1,2.4c-0.8,0.1-1.5-0.1-2.1-0.5L240,372
		C239.4,370.8,240.4,370.6,241.1,370.1z"/>
	<path class="st81" d="M248.1,366.1c-0.4-0.8-1.1-1.1-2-1.1c0.8-1.8,2-3.3,3.9-3.9c0.7,0.6,1.3,1.2,2,1.8c-0.2,0.8-0.8,1.4-1.3,2
		C250,365.6,249.3,366.6,248.1,366.1z"/>
	<path class="st79" d="M245.9,365.9c0.1,2.1-0.9,3.1-3,3C243.9,367.9,244.9,366.9,245.9,365.9z"/>
	<path class="st79" d="M241.1,370.1c-0.3,0.6-0.7,1.3-1,1.9c-0.7,0.3-1.5,0.6-2.2,0.9C238.3,371.3,239.1,370,241.1,370.1z"/>
	<path class="st61" d="M260,353.9c0-0.3,0.1-0.6,0.1-0.9c19.8,0,39.6,0,59.3-0.1c0.3,0.4,0.7,0.8,1,1.2c-0.5,0.5-1,0.8-1.7,1
		c-18.2,0.7-36.4,0.2-54.7,0.3C262.5,355.4,261,355.2,260,353.9z"/>
	<path class="st82" d="M320.4,354.1l0.2-0.1c2.1,1.9,0.3,4.3,0.9,6.3c-0.1,1.1,0.2,2.2-0.1,3.3c-0.3,0.5-0.8,0.7-1.4,0.5
		c-1.8-2.3-1.3-5-1.5-7.6c0.2-0.9,0.7-1.4,1.5-1.6C320.1,354.7,320.3,354.4,320.4,354.1z"/>
	<path class="st76" d="M321.1,360.6c0.5-2.2-0.3-4.4-0.6-6.5c1.3,0,2.1,0.7,2.5,1.9c-1.8,1.4-0.7,3.5-1.2,5.2
		C321.4,361.2,321.2,361,321.1,360.6z"/>
	<path class="st83" d="M580.4,426.1c-3,3-6.1,6-9.1,9c-0.8,0.5-1.3,0-1.7-0.6c-0.1-0.5-0.2-0.9-0.2-1.4c0.1-1,0.3-1.9,0.4-2.9
		c0.1-1.3,0.2-2.6,1.1-3.7c2.5-2,5.1-2.3,7.8-0.5C579.2,425.9,579.8,426,580.4,426.1z"/>
	<path class="st84" d="M578.8,391.7c0.3-0.1,0.6-0.2,1-0.3c-0.1,0.2,0,0.4,0.2,0.6c0.6,10.6,1.1,21.3-0.2,31.9c-0.3,0-0.6,0-0.8,0.1
		c-0.7,0.3-1.1,0.1-1.3-0.6c-0.2-10.3-0.1-20.5-0.1-30.8C577.7,392,578.2,391.7,578.8,391.7z"/>
	<path class="st85" d="M579.8,423.9c0.8-10.6,0.4-21.3,0.2-31.9c1.8,1.8,0.9,4.1,0.9,6.1c0.1,7.1,0.1,14.2,0,21.3
		C581,421,581.6,422.8,579.8,423.9z"/>
	<path class="st86" d="M578.2,424c0.3-0.1,0.5-0.1,0.8,0c-0.1,0.6-0.2,1.2-0.3,1.8c-2.4,0.8-5.3-0.4-7.5,1.5
		c-0.8-0.7-0.8-1.5-0.5-2.4C573,423.3,575.5,423,578.2,424z"/>
	<path class="st87" d="M568.9,365.1c0.3-0.4,0.6-0.7,0.9-1.1c0.5,1,1.6,1.7,1.2,3c-1,6.9-0.4,13.9-0.3,20.9c0,1.2,0.3,2.3-0.7,3.3
		c-1.9-0.3-2.2-1.9-2.3-3.3c-0.4-6.7-0.4-13.4,0-20.1C567.7,366.7,568.1,365.8,568.9,365.1z"/>
	<path class="st88" d="M570,390.9c0-6.4,0-12.8,0-19.2c0-1.6-0.5-3.3,0.9-4.6c0,6.9,0.1,13.9,0.1,20.8c0.5,0.9,0.6,1.9,0.3,2.9
		C570.9,391.2,570.5,391.3,570,390.9z"/>
	<path class="st86" d="M571,391.1c0-1.1,0-2.2,0-3.3c0.9,1.5,2.3,2,4,2c1.5,0,3.3-0.3,3.8,1.9c-0.1,0.2-0.2,0.2-0.4,0.3
		C575.8,393.1,573.3,392.7,571,391.1z"/>
	<path class="st89" d="M570,434c0.4,0.4,0.8,0.8,1.3,1.1c-0.1,1.9-2.3,1.6-3,2.9c0,0-0.3,0-0.3,0c-2.2,1.5-4.7,1.4-7.2,1.4
		c-13.1,0.1-26.2-0.1-39.3,0.1c-0.6,0.1-1.2,0.2-1.8,0.1c-1.8-0.6-2.9-1.8-3.2-3.7c0.2-1,0.9-1.4,1.8-1.6c0.6-0.1,1.2,0,1.7,0.1
		c15.8,0.2,31.5,0.5,47.3-0.2C568.3,433.9,569.1,433.6,570,434z"/>
	<path class="st47" d="M454.9,363.9c0.1-0.2,0.2-0.5,0.2-0.8c0.3,0,0.6-0.1,0.9-0.2c7.6-1,15.2-0.4,22.8-0.4
		c8.8,0,17.5-0.5,26.3,0.4c0.3,0.3,0.7,0.6,1,0.9c0.4,0.7,0.2,1.2-0.5,1.5c-12.4,0.5-24.8,0.1-37.2,0.2c-3.8,0-7.6,0.2-11.4,0.1
		C455.9,365.5,455.2,364.9,454.9,363.9z"/>
	<path class="st61" d="M505,362.9c-16.3,0-32.7,0-49,0c0.9-1,2-0.9,3.2-0.9c14.2,0,28.4,0,42.6,0C503,362,504.2,361.9,505,362.9z"/>
	<path class="st87" d="M505.9,365.1c0-0.4,0.1-0.8,0.1-1.2c0.3,0,0.6,0.1,0.9,0.2c0.3,1,1.4,1.8,1,3c-1.4,1.8,1,4.6-1.5,6.1
		C503.8,370.7,504.2,367.9,505.9,365.1z"/>
	<path class="st61" d="M568,362.9c-16.6,0.1-33.2,0.2-49.8,0.3c0-0.4-0.1-0.8-0.1-1.2c15.2,0,30.5-0.1,45.7-0.1
		C565.3,362,566.9,361.6,568,362.9z"/>
	<path class="st90" d="M516,366.8c0.3,0.1,0.6,0.1,0.8,0c2.2,2.4,1.6,4.7-0.6,6.7c-2.8,1.2-5.6,1.4-8.3-0.2
		c-0.5-0.9-0.6-1.8,0.2-2.6c2.2,1.5,4.4,1.9,6.7,0.3C515.5,369.6,514.7,367.9,516,366.8z"/>
	<path class="st91" d="M508.2,370.7c-0.1,0.8-0.1,1.6-0.2,2.4c-0.4,0.2-0.7,0.1-1-0.2c0.3-1.9-0.7-4.1,0.9-5.8
		C508,368.2,508.1,369.4,508.2,370.7z"/>
	<path class="st92" d="M516,372.9c1.2-1.9,1.2-4,0.8-6.2c0.1-1-0.3-2.3,1.1-2.8c0.4,0.3,0.7,0.6,1.1,0.9c0.5,1.9,0.6,3.9,0.2,5.8
		C518.8,372.2,518.5,374.1,516,372.9z"/>
	<path class="st93" d="M516,372.9c2.1,0.4,2-1,2.1-2.4c0.1-1.9-0.5-4,0.9-5.8c5.7-1.3,11.5-0.5,17.3-0.6c8.9-0.1,17.9,0,26.8,0
		c2,0,4-0.2,5.8,0.9c0.1,7.1,0.1,14.1,0.3,21.2c0,1.5-0.7,3.3,0.9,4.6c0.3,0.1,0.7,0.1,1,0.2c2.5,0.2,5-0.1,7.4,0.9
		c0.5,10.7,0.9,21.4-0.2,32c-2.3,1.1-4.8,0.6-7.2,0.9c-0.4,0.4-0.7,0.8-0.9,1.3c-0.6,2.6,0.7,5.5-1.7,7.7c-0.9,1-2,1-3.2,1
		c-14.4,0-28.9,0.1-43.3,0c-0.8,0-1.6-0.2-2.4-0.6c-3.9-1.2-1.8-5.8-4.3-7.7c-1.9-0.5-3.9-0.4-5.5-1.8c-1.8-1.2-1.4-3.6-2.7-5
		c-0.2,4.8,1.4,9.6-1.4,14.1c-1.5,1.3-3.3,1.4-5.2,1.4c-13.9,0-27.8,0.2-41.7-0.1c-1.2-0.2-2.3-0.6-3.2-1.5c-1.9-2-1-4.5-1.2-6.7
		c-0.1-0.7-1,0.4-0.5,0c1.2-0.8,0.1,4.9-1.3,7.2c-1.6,1.1-3.4,1.2-5.2,1.2c-7.1,0-14.1,0-21.2,0c-1.8,0-3.6-0.1-5.2-1.2
		c-2-1.5-2.4-3.6-2.6-5.9c-2.7-2.9-5.4-2.9-8.2,0c-0.2,2.2-0.6,4.3-2.5,5.8c-1,0.7-2.1,1.2-3.2,1.1c-9.4-0.2-18.8,1.2-28.1-0.8
		c-0.7-0.4-1.3-1-1.8-1.6c-1-1.3-0.6-3-1-4.5c0.2,1.9,0.5,3.8-0.8,5.4c-0.8,0.8-1.8,1.2-2.9,1.4c-14,0.4-28,0.1-42,0.1
		c-2,0-4-0.3-5.6-1.7c-0.7-0.7-1.2-1.5-1.4-2.5c-0.1-0.4,0-0.9-0.1-1.3c-0.1,0.6-0.1,1.3-0.3,1.9c-0.4,1.1-1.1,1.9-2.1,2.6
		c-2,1.2-4.1,1.1-6.3,1.1c-15.2,0-30.5,0-45.7,0c-2.7,0-5.4,0.1-7.4-2.1c-1.6-1.7-1.2-4.1-2.1-6c-1.4-1.6-3.7-0.8-5.3-1.8
		c-3.2-1.5-2.3-5.2-4.1-7.6c-2.3-1.2-5.5-0.5-6.8-3.5c-0.7-1.2-0.9-2.5-0.9-3.8c0-10.9,0-21.8,0-32.8c0-1.2,0-2.3,1-3.2
		c1.4-3.5,5.4-1.8,7.5-3.8c0.8-2.1,0.2-4.7,2.3-6.2c2-1.3,5,0.3,6.6-2.3c0.9-2,0.2-4.4,1.7-6.2c1.5-1.8,3.5-1.6,5.5-1.6
		c16.5,0,33.1,0,49.6,0c1.8,0,3.7-0.3,5.1,1.3c0.2,2.7,0.4,5.4,0.6,8.2c0.6,0.7,0.9,1.5,0.9,2.4c0.1,3.5,0.1,7,0,10.4
		c0,0.6-0.2,1.1-0.4,1.7c-1.2,2.6-3.6,2.5-6,2.5c-8.2,0-16.4,0-24.6,0c7.9,0,15.9,0,23.8,0c2.2,0,4.4-0.2,6,1.7
		c0.3,0.4,0.6,0.8,0.8,1.2c0.2,0.5,0.3,1.1,0.3,1.6c0,0.7,0.1,1.1,0,0.4c-0.1-0.7,0.3,0.4,0.1-0.2c0-7.1-1-14.2,1.1-21.2
		c1.1-0.5,2.2-0.9,3.3-0.9c15.5,0.1,31.1-0.4,46.6,0.3c2.1,1,2.3,2.7,1.8,4.7c0.6-1,0-2.1,0.6-3c0.2-0.5,0.5-0.9,1-1.1
		c1.3-0.5,2.7-0.9,4.1-0.8c19.8,0,39.5,0,59.2,0c1.9,0,4.1-0.7,5.4,1.5l0-0.1c1.9,2,0.3,4.7,1.5,6.9c2.4,1.2,4.9,0.9,7.3,0.2
		c2.6-1.7-0.2-5.8,3.1-7.1c4.4-1.3,8.9-0.6,13.3-0.6c10.3-0.1,20.6,0,30.8,0c2,0,4-0.2,5.8,0.9c0.8,2.5-0.8,5.4,1.1,7.7
		c0.3,0.1,0.7,0.1,1,0.2C510.7,373,513.3,373,516,372.9z"/>
	<path class="st94" d="M409,439c-1,0.3-2,0.7-3,1c-10.1,1.4-20.1,1.5-30.2,0.2c-3.6-0.5-6.9,0.9-10.4,0.8c-14.4-0.5-28.9,1-43.3-1
		c-2.7-0.4-5.3,0.6-7.9,0.9c-5,0.1-9.9,0-14.9,0c-9,0-18,0.1-27,0c-1.8,0-3.5,0-5.3,0c-2-0.4-4.1-0.2-6-0.9c-3.1-0.6-5.4-2.4-7-5.1
		c-3.3-2.8-7.8-4.7-8.2-10c5.9,0.6,8.7,5.4,12,9.4c0.9,1,2.1,1.5,3.4,1.9c18.5,0.7,37.1,0.1,55.6,0.3c2.8,0,5.7,0,8.5,0
		c15.1,0,30.1,0,45.2,0c2.5,0,5,0,7.4,0c9.5-0.3,19.1,0.7,28.6-0.6c0.9-0.1,1.7-0.1,2.5,0.2c0.5,0.2,0.9,0.6,1.2,1
		C410.4,438.2,409.6,438.5,409,439z"/>
	<path class="st95" d="M261,440.1c2,0,4,0,6,0c1.7,0.8,3.3,0.7,5,0c9,0,18,0,27,0c5,0.8,10,0.8,15,0c14.1,0,28.2,0,42.3,0
		c16.6,0,33.2,0,49.8,0c-9.1,3.8-18.7,2.1-28,1.5c-4.7-0.3-9.2,0.5-13.8,0.5c-10.5-0.1-21,0.3-31.5-0.1c-20.9-0.7-41.8,0.6-62.7,0.1
		C266.9,441.9,263.8,441.7,261,440.1z"/>
	<path class="st96" d="M522,442c-3.3,0.3-6.6,0-9.6-1.3c-2.8-1.2-5.5-0.6-8.1,0.4c-2,0.8-4.1,1-6.3,0.9c-23.8,0-47.6,0-71.3,0
		c-1.9,0-4,0.8-5.7-1c2.1-2,4.7-1.4,7.1-1.4c23.3-0.2,46.6,0.2,69.8-0.2c0.8-0.2,1.5-0.6,2.3-0.9c1.8-0.7,3.7-1.2,5.4-2.2
		c1.1-0.5,2.2-1,3.5-1c0.5,0,1,0.2,1.4,0.4c2.9,2.1,5.9,4.1,9.7,4.4C521.3,440.2,522.3,440.6,522,442z"/>
	<path class="st97" d="M500,440c-1.7,1.7-3.8,0.9-5.7,0.9c-24.4,0.1-48.8,0-73.3,0c-2,0-3.7-0.4-5-2c-1.4-1-4.1-0.9-3.2-3.8
		c0.7-0.8,1.5-0.8,2.4-0.6c4.3,3.2,9.1,4.1,14.5,4c21-0.2,42.1-0.1,63.1-0.1C495.3,438.6,497.9,438,500,440z"/>
	<path class="st98" d="M246,425c1.3,4.4,6,6.1,8,10c-0.3,0-0.7,0-1,0c-5.7-1.9-7.1-8.3-12-11c-0.9-1.1-1.9-2.2-2.8-3.3
		c-1.1-1.2-0.3-1.6,0.9-1.8c0.5-0.5,1.2-0.6,1.9-0.5c0.9,0.2,1.7,0.6,2.4,1.1c1.5,1.1,2.5,2.5,3.1,4.3
		C246.5,424.3,246.3,424.7,246,425z"/>
	<path class="st96" d="M413,436c1,1,2,2,3,3c-2.3,0-4.7,0-7,0c0.3-0.3,0.7-0.7,1-1C410.8,437.1,411.1,435.2,413,436z"/>
	<path class="st99" d="M240.8,419.3c-0.6-0.1-1.2-0.3-1.8-0.4c-0.4-0.9-0.9-1.8-1.3-2.8c0.8,0.3,1.7,0.5,2.6,0.8
		c0.5-0.1,0.9,0,1.2,0.5C241.6,418.2,241.5,418.8,240.8,419.3z"/>
	<path class="st100" d="M190.9,354c4.5,3.4,4.9,8.6,4.9,13.4c0.3,19.8,0.3,39.5,0,59.3c-0.1,4.8,0,10.6-5.8,13.3
		c-1.1-1.5-0.4-2.9,0.1-4.3c1.9-3.6,2.5-7.4,2.5-11.5c-0.1-18.1,0-36.1-0.1-54.2c0-2.1,0.3-4.3-0.7-6.3c-0.5-0.7-1-1.4-1.3-2.1
		c-0.7-1.5-0.8-3-0.5-4.6C190.3,355.9,190.6,355,190.9,354z"/>
	<path class="st101" d="M108,353.1c1-0.7,2-1.4,3-2.1c2.3,0,4.5,0,6.8,0c4.9-0.9,9.9-0.3,14.8-0.4c13.9-0.1,27.8,0,41.7,0
		c1.6,0,3.3-0.3,4.9,0.4c2.4-0.2,4.4,0.6,6.2,2.1c-1.8,1.7-4,1.4-6.1,1.4c-21.7,0-43.4,0-65.1,0C112,354.4,109.8,354.7,108,353.1z"
		/>
	<path class="st28" d="M186.1,354c2-0.1,2.9,1,3.1,2.9c1.1,0.9,1.2,2,0.9,3.2c0.7,17.1,0.1,34.2,0.3,51.3c0.1,5.6-0.2,11.3,0.2,16.9
		c0.3,1.1,0.7,2.1,0.9,3.2c0.2,1.1-0.2,2.1-1,2.9c-1,1-2.1,1.5-3.5,1.3c-0.5-0.1-1-0.4-1.3-0.8c-0.4-0.8-0.4-1.6-0.1-2.4
		c0.2-0.8,0.6-1.6,0.9-2.4c0.4-23.7,0.2-47.4,0.1-71c-0.2-1.1-0.8-2-1-3.1c-0.1-0.5-0.1-1,0.1-1.5
		C185.8,354.4,185.9,354.2,186.1,354z"/>
	<path class="st61" d="M108,353.1c25.8,0,51.6,0,77.4,0c0.2,0.3,0.5,0.6,0.7,0.9c0,0-0.2,0.2-0.2,0.2l-0.3,0
		c-1.6,1.5-3.7,1.3-5.7,1.3c-22.1,0-44.2,0-66.3,0c-2,0-4,0.3-5.6-1.4C108,353.7,108,353.4,108,353.1z"/>
	<path class="st102" d="M189.8,359.1c-0.2-0.7-0.4-1.5-0.7-2.2c0.3,0.1,0.6,0.1,0.9,0c1.3,1.1,0.7,2.7,1,4.1
		c1.1,2.1,1.3,4.4,1.3,6.7c0,18,0,36.1-0.1,54.1c0,2.3,0.8,5.1-2.4,6.3c-0.1-0.1-0.2-0.3-0.2-0.4C189.4,404.8,189.3,382,189.8,359.1
		z"/>
	<path class="st74" d="M179.2,350.9c-20.5,0-40.9,0-61.4,0c1-0.8,2.2-0.7,3.3-0.7c18.2,0,36.5,0,54.7,0
		C177,350.2,178.2,350.1,179.2,350.9z"/>
	<path class="st103" d="M522,442c-4.1-1.7-9.4-1.1-12-5.9c4.2-3,6,2,9.1,2.7c0.2,0,0.5,0,0.7-0.1c0.6-0.1,1.2,0,1.8,0.2
		c10.5,0.4,21.1,0,31.6,0.2c1.9,0,4-0.5,5.7,0.9c-0.3,2.8-2.5,1.5-3.8,1.5c-9.1,0.1-18.2,0-27.3,0.1c-1.6,0-3.3-0.4-4.9,0.4
		C522.7,442,522.3,442,522,442z"/>
	<path class="st104" d="M523,442c1.5-1.6,3.4-0.9,5.1-0.9c8.6-0.1,17.1,0,25.7-0.1c1.7,0,3.7,0.6,5.1-0.9c1.6-1.8,4-0.5,5.8-1.3
		c0.8-0.2,1.5-0.3,2.1,0.4c-0.7,1.7-2.5,2.1-3.9,2.9C549.7,442,536.3,442,523,442z"/>
	<path class="st102" d="M566.9,439.1c-0.7,0-1.3,0-2,0c-14.6,0.5-29.3,0.7-43.9-0.1c-0.4-0.1-0.7-0.2-1.1-0.4
		c1.8-1.3,3.9-0.6,5.8-0.6c14.1-0.1,28.2-0.1,42.3-0.1C567.6,438.4,567.3,438.7,566.9,439.1z"/>
	<path class="st105" d="M44,442c-1.1,0-2.3,0.2-3-1c-0.2-1.3,0.6-1.4,1.6-1.5c6.7,0,13.4,0,20,0c5,1.1,9.4-0.5,13.7-2.8
		c0.5-0.2,1-0.3,1.5-0.3c0.8,0.1,1.4,0.5,1.7,1.3c0.2,1.2-0.6,1.8-1.4,2.3c-2.2,1-4.5,2.1-7,2C62,442.8,53,442.8,44,442z"/>
	<path class="st106" d="M152,442c-1.2,1.4-2.7,1-4.2,1c-18.2,0-36.4,0-54.7,0c-1.4,0-3,0.4-4.2-1c2.7-2.3,6-1.1,9-1.4c4,0,8,0,12,0
		c5.3,0,10.5,0,15.8,0c4.2,0,8.5,0,12.7,0c3.2,0,6.4,0,9.5,0.1c0.6,0,1.2,0.1,1.7,0.1C150.7,440.9,151.4,441.3,152,442z"/>
	<path class="st107" d="M191,437c-0.3,1-0.7,2-1,3c-0.3,0-0.6,0.1-1,0.1c-2.8,2-6,2.4-9.3,2.4c-5.4,0-10.8,0.1-16.2,0
		c-2.3-1.4-6,1.2-7.4-2.7c1.7-1.4,3.7-1.1,5.7-1.1c5.1-0.1,10.2-0.2,15.3,0c4,0.1,7.8-0.4,11.4-2.4C189.4,436.1,190.3,436.3,191,437
		z"/>
	<path class="st108" d="M79,438c-0.3-0.3-0.7-0.7-1-1c-0.6-0.6-0.6-1.2-0.2-2c1-0.6,1.9-0.1,2.8,0.3c1,0.4,2,0.8,3,1.1
		c9.4,0.5,18.8-0.1,28.2,0.3c0.9,0.1,1.7,0.5,2.4,1.2c-0.6,3-3.2,2.4-5.1,2.4c-6.6,0.2-13.1-0.1-19.7,0.2c-0.5,0-1.1,0.1-1.6,0.3
		c-0.3,0.1-0.5,0.1-0.8,0.2c-1.4-0.1-2.9,0.5-3.9-1C81.9,439,79.7,440,79,438z"/>
	<path class="st106" d="M163,442c8.7-0.2,17.5,1,26-1.9c-0.5,2.6-3,2.7-4.7,2.8c-8.7,0.2-17.4,0.1-26.2,0c-0.4,0-0.8-0.5-1.2-0.8
		C159,441.2,161,441.3,163,442z"/>
	<path class="st106" d="M44,442c9,0,18,0,27,0c-7,2.1-14.3,0.5-21.4,0.9C47.8,443,45.6,443.7,44,442z"/>
	<path class="st105" d="M163,442c-2,0-4,0-6,0c-1.7,0-3.3,0-5,0c-0.7,0-1.3,0-2-0.1c0.5-2.8,3-1.9,4.6-2.4c0.5,0,1,0.2,1.4,0.5
		C157.9,442.3,161.1,439.7,163,442z"/>
	<path class="st105" d="M98,442c-3,0-6,0-9,0c-0.9,0-1.6-0.2-2.1-1c0,0,0.1,0,0.1,0C90.8,440.1,94.6,438.3,98,442z"/>
	<path class="st106" d="M79,438c1.3,0.7,2.6,1.4,4,2c-1.7,0-3.3,0-5,0C78.3,439.3,78.7,438.6,79,438z"/>
	<path class="st106" d="M42,440c-0.4,0.3-0.7,0.7-1.1,1c-1.4-0.1-2.4-0.7-2.9-2c1.3,0.1,2.6,0.1,4,0.2c0.3,0.2,0.5,0.3,0.4,0.5
		C42.2,439.9,42.1,440,42,440z"/>
	<path class="st109" d="M106,353c0.4,0.4,0.7,0.8,1.1,1.2c0.3,0.4,0.4,0.9,0.4,1.4c-0.3,2-0.1,4.1-1,6c-3.6,3.4-5.2,3.5-8.8,0.1
		c-1-1.9-0.8-4-1.1-6c-0.1-0.5,0-1,0.2-1.5c0.1-0.4,0.1-0.9,0.2-1.3c0.5,0,1.2-0.1,1.4,0.2C100.9,356.6,103.5,355.5,106,353z"/>
	<path class="st110" d="M96.7,354.3c0,0.5,0,0.9,0,1.4c-0.4,0.5-0.9,0.9-1.5,0.9c-11.8-0.2-23.6-0.1-35.4-0.1
		c-1.7,0-3.4,0.2-4.8-0.9c-0.2-0.3-0.4-0.5-0.7-0.7C55,354.1,56,354,57,354C70.3,354.1,83.5,354.2,96.7,354.3z"/>
	<path class="st93" d="M54.9,355.6c13.8-0.6,27.6-1,41.5,0.2c1.9,2,0.5,4.8,1.8,7c1.6,2.2,4.1,0.7,6.1,1.3c1,0.3,1.7,1,2.1,2
		c0.2,1.7,0,3.4,0.1,4.1c-0.4-1.1,0.6-3.3-0.4-5.4c-0.3-1.1-0.1-2.2,0.1-3.3c0.7-2.2-0.4-5,2.2-6.6c1.6-0.9,3.2-0.6,4.9-0.6
		c22.1,0,44.2,0,66.4,0c1.9,0,4-0.5,5.7,1.2c1.5,1.6,1.7,3.5,1.7,5.5c0,22.2,0,44.4,0,66.7c0,1.9-0.2,3.6-1.5,5.1
		c-0.9,1.6-2.4,2.2-4.1,2.3c-8.3,0.2-16.5,0.2-24.8,0c-1.3,0-2.6-0.5-3.7-1.3c-0.8-0.6-1.3-1.4-1.6-2.3c-0.5-15.4-0.1-30.7-0.2-46
		c0,0.1,0-0.2,0-0.2s0,0.3,0,0.4c-0.1,15.3,0.2,30.4-0.2,45.6c-0.2,1-0.8,1.7-1.5,2.4c-1.5,1.2-3.3,1.5-5.1,1.5
		c-8.3,0-16.6,0.3-24.8-0.2c-1.6-0.4-3.1-0.9-3.7-2.7c-0.1-16.8,0-33.6-0.2-50.5c-0.3-0.6-1.2,0.3-0.6-0.1c0.2-0.1,0.4,0,0.4,0.3
		c0.6,16.9,0.3,33.7,0.2,50.6c-0.9,1.6-2.5,2.3-4.2,2.3c-8.8,0.3-17.6,0.4-26.4,0c-1,0-1.9-0.5-2.7-1.1c-2.3-1.9-2.3-4.5-2.4-7.2
		c-0.1-2.8,0.4-5.6-0.5-8.3c-2.2-2.1-4.7-1.5-7.1-0.6c-1.3,3-0.4,6.2-0.6,9.2c-0.2,2.1,0,4.3-2.1,5.7c-10.7,1.4-21.5,1-32.3,0.2
		c-0.3-1.4-0.8-2.9-0.8-4.3c-0.1-16.9,0-33.7,0-50.6c0-1.5,0.1-3,1-4.3c2.6-0.6,5.4,0.9,7.8-1c0.1-0.3,0.1-0.6,0.2-1
		c0.4-2.3-0.5-4.8,1-6.9c2.5-1.2,6.1,1.8,8-2.1C54.4,360.6,53.9,358,54.9,355.6z"/>
	<path class="st111" d="M42,440c0-0.3,0-0.6,0-0.8c6.6-0.1,13.2-0.1,19.9-0.2c1.7,0,3.7,0.6,5.1-1c0.5-0.8,1.2-0.9,2.1-0.8
		c0.5,0.7,0.5,1.5,0.1,2.2c-1.6,1.3-3.3,1.5-5.2,0.6C56.7,440,49.3,440,42,440z"/>
	<path class="st112" d="M69,439c0-0.6,0-1.2,0-1.8c0.1-0.4,0.2-0.8,0.3-1.1c0.6-0.3,1.2-0.5,1.8-0.8c-0.1-1.1,0.6-1.6,1.3-2.2
		c2.1-1.6,4.1-2.1,5.8,0.7c0.1,0.5,0,0.9-0.3,1.3c0,0.7,0,1.3,0,2c-0.3,0-0.7,0-1,0c-1.5-0.6-2.7,0-3.9,1
		C72,438.8,70.8,440.2,69,439z"/>
	<path class="st113" d="M78,435c-0.1-0.3-0.2-0.6-0.2-0.9c-0.3-1.2-1.4-2.1-1.7-3.3c-0.5-2.4-0.4-4.9-0.5-7.1
		c-0.2,2.2,0,4.7-0.6,7.1c-0.5,1.2-1.3,2.1-2,3.2c-0.6,0.4-1.2,0.9-1.8,1.3c-0.6-0.1-1.1-0.2-1.7-0.3c0.1-0.6,0.3-1.3,0.4-1.9
		c0.3-0.4,0.6-0.9,0.8-1.4c0.6-4.4-0.1-8.8,0.4-13.2c2.8-2.7,5.8-2.7,8.7-0.1c0.5,4.4-0.1,8.9,0.4,13.3c0.2,0.5,0.4,1,0.6,1.5
		c0.1,0.5,0.1,1.1,0,1.6c-0.1,0.5-0.4,1-0.8,1.3C79.3,435.7,78.7,435.4,78,435z"/>
	<path class="st114" d="M70.8,432.9c-0.3,0-0.6,0-0.8,0.1c0,0-0.4,0-0.4,0s-0.4,0-0.4,0c1.2-4.2,0.3-8.5,0.6-12.8
		c0.1-1.5-0.9-3.4,1.2-4.3c0.8,1.1,0.3,2.3,0.5,3.5C71.1,423.9,72.4,428.5,70.8,432.9z"/>
	<path class="st47" d="M185.1,355.7c-1.6-0.2-3.3-0.5-4.9-0.5c-22.5,0-44.9,0-67.4,0c-1.6,0-3.3,0.3-4.9,0.4l-0.2-0.3
		c-0.2-0.4-0.4-0.7-0.6-1.1c0.3,0,0.6-0.1,0.9-0.2c25.9,0,51.7,0.1,77.6,0.1c0,0.3,0,0.7,0,1C185.6,355.5,185.5,355.7,185.1,355.7z"
		/>
	<path class="st115" d="M378,364c-1,0.4-1.9,0.7-2.9,1.1c-0.7,0.6-1.4,0-2.2-0.1c-1.5-0.8-3.1-0.9-4.8-0.8c-13.5,0-27.1,0-40.6,0
		c-1.9,0-3.6,0.4-5.3,1c-0.7-0.1-1.1-0.6-1.1-1.3c0-1.1,0.1-2.2,0.1-3.3c0.2,0.2,0.5,0.4,0.7,0.6c-0.1,0.3-0.1,0.6,0.1,0.8
		c0.5,0.3,1.1,0.9,1.6,0.9c18.1,0.1,36.2,0.1,54.4,0.2c0.3,0.2,0.4,0.4,0.3,0.6C378.2,363.9,378.1,364,378,364z"/>
	<path class="st47" d="M378,364c0-0.3,0-0.6,0-1c20.8-0.1,41.7-0.2,62.5-0.2c1.5,0,3.6-0.6,3.5,2.2c-2-1-4.2-0.8-6.3-0.8
		C417.8,364.1,397.9,364.1,378,364z"/>
	<path class="st90" d="M453,372.9c-2.7-0.2-5.3,1.2-8,0.1c0-0.2,0-0.4,0-0.5c0.1-0.7,0.3-1.4,1.1-1.8c5.5,2.2,6.2,1.8,7.6-4
		C454.7,369,455.3,371.1,453,372.9z"/>
	<path class="st92" d="M453,372.9c1.2-1.9,1.2-4,0.8-6.2c0.1-1-0.4-2.3,1.1-2.8c0.4,0.3,0.7,0.6,1.1,0.9c-1.3,1.8-0.8,3.8-0.8,5.8
		C455,372,455.1,373.3,453,372.9z"/>
	<path class="st116" d="M445,373c-1.9-2.5-0.5-5.4-1-8c1.8-0.4,2,0.7,1.9,2.1c-1,1.8,0.1,3.9-0.7,5.8L445,373z"/>
	<path class="st88" d="M445.2,372.8c0-2-0.8-4,0.7-5.8c0.1,1.2,0.2,2.4,0.3,3.6C445.8,371.4,445.5,372.1,445.2,372.8z"/>
	<path class="st117" d="M241.5,374c-0.3,13.7-1,27.5,0.4,41.2c0,1.3-0.5,1.6-1.5,0.8c-0.1-0.6-0.3-1.3-0.4-1.9
		c-0.5-13.3-1-26.6,0.3-39.9c0.3-0.1,0.6-0.1,0.9-0.1L241.5,374z"/>
	<path class="st66" d="M240.2,374.2c-0.1,13.3-0.2,26.6-0.3,39.9c-1.3-1.2-0.9-2.8-0.9-4.2c0-10.4-0.1-20.8,0-31.2
		C239.1,377.1,238.3,375.3,240.2,374.2z"/>
	<path class="st118" d="M241.5,374c0,0-0.4,0-0.4,0c-0.3-0.6-0.6-1.2-0.9-1.9c0.6-0.1,1.3-0.3,1.9-0.4c1.8-1,4.5,0.9,5.7-1.7
		c0.2-0.3,0.3-0.7,0.5-1c2.2,0.1,0.5,2.5,1.8,3C247.6,374.5,244.1,372.3,241.5,374z"/>
	<path class="st118" d="M240.4,415.9c0.5-0.3,1-0.5,1.5-0.8c2.3,1.2,5-0.2,7.2,1.4c0.2,0.7,0.4,1.3,0.3,2c-0.2,0.5-0.5,0.7-1,0.8
		c-0.5-0.1-0.9-0.2-1.3-0.4c-1.6-1-3.5-0.5-5.1-1.1c-0.4-0.2-0.7-0.5-1.1-0.8l-0.3-0.1c0,0-0.4,0.1-0.4,0.1
		C240.2,416.6,240.3,416.3,240.4,415.9z"/>
	<path class="st119" d="M319.4,355.8c-3.3-1-6.6-0.6-9.9-0.6c-14.7,0-29.3,0-44,0c-2.4,0-4.7-0.1-6.5,1.8c-0.6-0.7-0.6-1.4-0.1-2.1
		c0.3-0.3,0.6-0.6,1-1c17.9,0,35.9,0,53.8,0.1c2.1,0,4.4-0.5,6.2,1C319.8,355.3,319.6,355.6,319.4,355.8z"/>
	<path class="st120" d="M258.7,363.9c-2.3,2.1-5.1,0.4-7.6,1.2c-0.5-0.2-0.8-0.5-0.9-1c0.1-1.2,1.1-0.9,1.8-1.2
		c5.2,1.1,4.5-3.5,5.8-6C259.5,359,257.6,361.7,258.7,363.9z"/>
	<path class="st121" d="M258.7,363.9c-1.8-2.2,0.3-4.8-0.9-7.1c0.1-0.8-0.1-1.8,1.2-1.9c0,0.7,0,1.4,0.1,2.1
		C258.9,359.3,258.8,361.6,258.7,363.9z"/>
	<path class="st69" d="M250.3,364.1c0.3,0.3,0.6,0.7,0.9,1c-1.5,2.2-0.7,4.7-1,7c-1.4-0.5-0.7-2.3-1.8-3c-0.1-1-0.2-2-0.2-2.9
		C248.8,365.4,249.5,364.8,250.3,364.1z"/>
	<path class="st79" d="M247.8,370.1c-1.1,3.2-3.8,1.3-5.7,1.7C244,371.2,245.9,370.6,247.8,370.1z"/>
	<path class="st122" d="M321,363.9c0.4,0.4,0.8,0.8,1.1,1.3c0,7.1,0,14.3-0.1,21.4c0,1.5,1,3.3-1,4.4c-1.2-1.8,0.2-4.1-0.9-5.9
		c-0.2-0.3-0.3-0.6-0.3-0.9c-0.2-2.1,0.4-4.1,0-6.2c0.1-0.3,0.2-0.6,0.3-1c0.7-3.6,0.7-7.3,0-10.9c0-0.7,0-1.4-0.1-2
		C320.3,364,320.7,363.9,321,363.9z"/>
	<path class="st47" d="M519,433.2c4.4,1.3,8.9,0.6,13.3,0.6c10.3,0.1,20.5,0,30.8,0c2,0,4,0.2,5.8-0.9c0.4-0.3,0.9-0.3,1.2,0.1
		c-0.1,0.3-0.1,0.6-0.1,0.9c-0.4,0.3-0.7,0.6-1.1,0.8c-0.6,0.7-1.5,0.7-2.3,0.7c-15.2,0-30.5,0-45.7,0c-0.7,0-1.3-0.1-1.9-0.4
		c-0.3-0.1-0.5-0.2-0.8-0.2c-0.4-0.3-0.5-0.6-0.4-1.1C518.1,433.5,518.5,433.3,519,433.2z"/>
	<path class="st87" d="M570.1,433c-0.4,0-0.8-0.1-1.2-0.1c0.8-2.5-0.7-5.4,1.1-7.8c1.2,1.8-0.2,4,0.9,5.8
		C571.1,431.8,571,432.6,570.1,433z"/>
	<path class="st91" d="M570.9,431c-1.6-1.7-0.6-3.9-0.9-5.8c0.3-0.1,0.7-0.1,1-0.2c0.1,0.8,0.1,1.6,0.2,2.4
		C571.1,428.6,571,429.8,570.9,431z"/>
	<path class="st123" d="M517.9,434.1c0.1,0.3,0.2,0.5,0.3,0.8c-0.4,0.5-0.9,0.9-1.3,1.4c-2.6-0.3-5.1-3.9-7.8-0.3
		c-1,0.4-2,0.8-3,1.1c-27,0.8-54.1,0.2-81.1,0.3c-1.8,0-4.2,0.6-4.9-2.2c2.3-1.4,4.9-0.5,7.3-0.6c9-0.4,18,0.7,26.9-0.6
		c1.2-0.2,2.3,0.3,3.4,0.6c14.6,0.1,29.1,0,43.7,0c1.6,0,3.3,0.3,4.6-1.1c1.8-2.2,0.1-5.2,1.6-7.5c6.5-1.4,8.4-0.6,9.4,4.3
		C517.5,431.5,517.6,432.8,517.9,434.1z"/>
	<path class="st61" d="M519,435.1c16.6-0.1,33.3-0.2,49.9-0.2c-0.8,1.5-2.3,1.2-3.5,1.2c-14.4,0-28.8,0-43.2,0
		C521,436,519.8,436.1,519,435.1z"/>
	<path class="st124" d="M509.1,436c2.6-4.7,2.6-4.7,7.8,0.3c0.5,1.1,2.4,0.9,2.3,2.5c-3.6,0.9-5.4-4.3-9.1-2.7
		C509.7,436,509.4,436,509.1,436z"/>
	<path class="st125" d="M383,398.7c0-7.3,0.2-14.7-0.1-22c-0.1-3.6,0.7-5.1,4.6-4.9c6,0.3,12,0.3,18,0c3.4-0.1,5,0.7,4.5,4.4
		c-0.4,3,0,5,4,4.9c3.9,0,4.6-1.8,4.1-4.9c-0.5-3.6,1.1-4.8,4.5-4.4c2,0.2,4,0.1,6,0c4.8-0.3,9.5-0.8,8.3,6.7
		c-0.5,3.2,2.6,2.5,4.3,2.3c3.7-0.4,4.9,1,4.8,4.7c-0.2,11.8-0.2,23.6,0,35.5c0.1,3.6-0.7,5.3-4.6,4.8c-4.3-0.5-9.8,1.7-12.5-0.9
		c-2.8-2.7-0.9-8.2-0.9-12.5c0-3.3-0.7-4.7-4.4-4.7c-3.7,0-5.4,0.9-4.7,4.7c0.6,3.6-1.1,4.4-4.5,4.4c-3.4,0-5.1-0.8-4.5-4.4
		c0.6-3.8-1.1-4.7-4.7-4.7c-3.7,0-4.6,1.4-4.3,4.7c0.2,3.1-0.1,6.3,0.1,9.5c0.1,2.6-0.5,3.8-3.5,3.9c-14.5,0.6-14.5,0.7-14.5-13.8
		C383,407.7,383,403.2,383,398.7z"/>
	<path class="st125" d="M289,426c-6,0-12-0.1-18,0c-2.8,0.1-4.6-0.5-4.1-3.8c0.7-4.1-0.9-6-5.1-5.2c-3.2,0.5-4.3-1.1-3.8-4
		c0.7-4.3-1.2-5.7-5.2-5.1c-3.2,0.5-3.9-1.1-3.8-4c0.2-6.3,0.2-12.7,0-19c-0.1-2.9,0.6-4.5,3.8-4c4.1,0.7,5.9-0.8,5.2-5.1
		c-0.5-3.2,1.2-4.2,4-3.8c4.1,0.6,5.5-1.2,4.9-5c-0.5-3.3,0.9-4.2,4.2-4.2c12.3,0.2,24.6,0.2,37,0c3.6-0.1,4,1.4,4,4.4
		c0,3.1-0.4,4.9-4.2,4.7c-9.1-0.3-18.3,0.1-27.5-0.2c-3.5-0.1-5,1-4.4,4.5c0.6,3.8-1,5.2-4.7,4.6c-3.6-0.6-4.5,1.1-4.4,4.5
		c0.2,6.1,0.2,12.3,0,18.5c-0.1,2.9,0.5,4.6,3.8,4c4-0.6,6,0.7,5.3,5c-0.6,3.5,1.3,4,4.3,4c13.9,0.1,13.8,0.2,13.8-13.7
		c0-3.5-1-5-4.5-4.4c-3.8,0.6-4.7-1-4.7-4.7c0-3.6,1.2-4.5,4.6-4.4c6.1,0.2,12.3,0.2,18.5,0c2.9-0.1,4.2,0.6,4.1,3.8
		c-0.2,9.5-0.2,19,0,28.5c0.1,3.2-1.2,3.9-4.1,3.8C301.7,425.9,295.3,426,289,426z"/>
	<path class="st125" d="M489.7,408c-4.3,0-8.7,0.2-13-0.1c-3.7-0.3-4.8,0.9-4.8,4.7c-0.1,4.2,1.7,4.6,5.1,4.4c6-0.2,12,0.1,18-0.1
		c3.5-0.2,4.1,1.4,4.1,4.4c0,3.2-0.4,4.9-4.3,4.7c-9.2-0.3-18.3-0.3-27.5,0c-3.7,0.1-4.8-1.3-4.3-4.6c0.5-3.5-0.9-5-4.4-4.4
		c-3.9,0.7-4.7-1.2-4.6-4.8c0.2-9,0.2-18,0-27c-0.1-3.1,0.6-4.9,4.1-4.3c3.9,0.6,5.6-0.8,5-4.9c-0.6-3.3,0.9-4.3,4.2-4.2
		c9.2,0.2,18.3,0.2,27.5,0c3.1-0.1,4.8,0.7,4.3,4.1c-0.6,3.8,0.8,5.6,4.9,5c3.2-0.5,4.4,0.6,4.3,4.1c-0.2,6.3-0.2,12.7,0,19
		c0.1,3-0.7,4.2-3.9,4C499.3,407.8,494.5,408,489.7,408z"/>
	<path class="st125" d="M348.1,372c4.3,0,8.7,0.2,13-0.1c3.6-0.2,5.5,0.6,4.8,4.6c-0.7,3.9,1.2,5.1,4.8,4.6c3.6-0.6,4.5,1.2,4.4,4.5
		c-0.2,9-0.2,18,0,27c0.1,3.5-1,4.9-4.5,4.4c-3.7-0.6-5.3,0.9-4.7,4.7c0.6,3.6-1.1,4.5-4.5,4.4c-9-0.2-18-0.2-27,0
		c-3.4,0.1-5.1-0.9-4.5-4.4c0.6-3.8-1-5.3-4.7-4.6c-3.7,0.6-4.7-1.2-4.3-4.5c0.2-2,0.2-4,0-6c-0.3-4.6-0.6-8.9,6.4-7.5
		c2.8,0.5,2.9-1.8,2.6-3.6c-0.8-4.7,1.3-5.6,5.6-5.4c6,0.3,12-0.1,18,0.2c4.1,0.2,3.5-2.3,3.6-4.8c0.1-2.6-0.1-4.4-3.6-4.3
		c-6.7,0.2-13.3-0.1-20,0.1c-4.2,0.2-3.4-2.5-3.5-4.9c-0.2-2.7,0.3-4.4,3.7-4.2C338.4,372.2,343.3,372,348.1,372z"/>
	<path class="st125" d="M544.3,372c4.8,0,9.7,0.1,14.5,0c4-0.1,3,2.6,3.1,4.8c0.1,2.2,0.4,4.4-3.1,4.3c-6.7-0.2-13.3,0.2-20-0.1
		c-3.8-0.2-3.9,1.7-3.9,4.5c0,2.7-0.1,4.8,3.8,4.6c6.3-0.3,12.7,0.1,19-0.2c3.3-0.1,4.7,1,4.1,4.2c-0.7,4.1,1.2,5.4,5,4.8
		c3.3-0.5,4.4,1,4.2,4.2c-0.2,3.1-0.3,6.3,0,9.5c0.3,3.6-1.2,4.9-4.5,4.3c-3.8-0.6-5.2,1-4.6,4.7c0.6,3.7-1.2,4.4-4.5,4.4
		c-9-0.2-18-0.2-27,0c-3.5,0.1-5-0.9-4.4-4.5c0.6-3.8-1-5.2-4.7-4.6c-3.7,0.6-4.3-1.2-4.4-4.5c0-3.4,0.8-4.9,4.4-4.5
		c2,0.2,4,0.2,6,0c5-0.5,9.1-0.2,7.7,6.7c-0.4,2.1,1.2,2.2,2.9,2.4c14.7,1.3,15.9,0.1,15.2-14.7c-0.1-2.7-1.1-3.4-3.6-3.3
		c-6.3,0.1-12.7-0.1-19,0.1c-3.3,0.1-5.2-0.6-4.6-4.3c0.8-4.2-1.4-5.3-5.1-4.7c-3.7,0.6-4-1.5-3.9-4.4c0.1-2.6-0.2-5.3,3.7-4.6
		c4.7,0.9,5.9-1.5,5.3-5.6c-0.4-2.5,0.7-3.6,3.4-3.5C534.3,372.1,539.3,372,544.3,372z"/>
	<path class="st126" d="M319.7,377.9c1.9,2.1,1.9,4.1,0,6.2c-1.5-1.9-3.6-2-5.8-2c-8.3,0.1-16.6,0.1-24.9,0c-1.6,0-4.6,1-4.7-1
		c-0.1-2.2,2.9-1.2,4.4-1.2c8.8-0.1,17.6-0.1,26.4,0C317.1,379.9,318.8,379.9,319.7,377.9z"/>
	<path class="st47" d="M259,432c1.4,1.2,3,1.8,5,1.8c17-0.1,34.1,0,51.1-0.1c1.3,0,2.6-0.5,3.8-0.7c1.5,0.9,1.6,1.9,0,2.8
		c-3.1,0.9-6.3,0.5-9.4,0.5c-14.8,0-29.5,0.1-44.3,0c-2.3,0-4.7,0.5-6.5-1.6C258.3,433.8,258.3,432.9,259,432z"/>
	<path class="st47" d="M322.1,432c1.8,1.9,4.1,1.8,6.5,1.8c14.1,0,28.3,0.1,42.4,0.1c0.3,0.7,0.2,1.2-0.5,1.6
		c-0.7,0.4-1.5,0.7-2.4,0.7c-15.3,0.1-30.5,0.5-45.8-0.2c-0.6-0.2-1.1-0.5-1.5-1C320.4,433.7,320.9,432.7,322.1,432z"/>
	<path class="st127" d="M507.3,433.1c-0.8,1.8-2.4,2.1-4.1,2.1c-15-0.1-30.1-0.1-45.1-0.2c-0.3-0.2-0.5-0.4-0.3-0.6
		c0.1-0.2,0.2-0.3,0.3-0.3c13.9-0.1,27.8-0.1,41.6-0.2c2.1,0,4.3,0.2,6.3-0.9C506.4,432.6,506.9,432.6,507.3,433.1z"/>
	<path class="st128" d="M371,435c0-0.3,0-0.7,0-1.1c0.7-0.3,1.3-0.6,2-0.9c1-1.2,2-0.1,3,0c10.7,1.2,21.4,1.2,32.1,0
		c1.4,0.1,1.3,0.9,1.1,1.9c-0.4,0.5-0.9,0.8-1.6,0.9c-11.2,1.1-22.4,0.4-33.6,0.4C372.9,436.3,371.8,435.9,371,435z"/>
	<path class="st129" d="M458,434c0,0.3,0,0.6,0,1c-12.6,0.1-25.2,0.7-37.8-0.2c-0.1-0.1-0.3-0.2-0.4-0.3c0-0.4,0.1-0.7,0.3-1
		c0.3-0.2,0.6-0.4,0.9-0.4c10.7,1,21.3,1.2,32-0.1c1-0.2,2-0.2,3,0.1C456.7,433.4,457.3,433.7,458,434z"/>
	<path class="st130" d="M507.3,433.1c-0.4,0-0.9-0.1-1.3-0.1c0.1-5.3,0.2-10.6,0.4-15.9c0-0.1,0.2-0.3,0.3-0.3
		c0.2,0,0.3,0.1,0.5,0.1c1.8,2.4,0.4,5.4,1.6,7.9c0,0.6-0.2,1.1-0.5,1.6C508,428.6,508.8,431,507.3,433.1z"/>
	<path class="st131" d="M508,424.9c-1.8-2.5-0.5-5.3-0.9-8c1.9-0.3,2.2,0.8,2.2,2.3c0,1.6-0.2,3.3,0.8,4.8
		C510,426.1,508.7,424.7,508,424.9z"/>
	<path class="st132" d="M508,424.9c0.7-0.3,1.4-0.6,2-0.8c1.9,1.1,4,0.5,6,1c2.3,1.8,1.7,4,0.8,6.2c-0.5-5.9-4.4-5.6-8.6-4.9
		C508.1,425.9,508,425.4,508,424.9z"/>
	<path class="st133" d="M322.1,432c-0.3,0.5,0.1,1.5-1,1.6c-1.2-0.5-0.4-1.9-1.1-2.6c0-2,0-4,0-7C323,427,321.5,429.7,322.1,432z"/>
	<path class="st134" d="M409,427c1.9-3,9.1-3,11,0c-1.1,0.7-2.3,0.3-3.4,0.3c-1.4-0.1-2.8-0.1-4.1,0
		C411.3,427.3,410.1,427.7,409,427z"/>
	<path class="st135" d="M456,433.1c-1,1.1-2,1.1-3-0.1c1.6-2.3,0.1-5.1,1.4-7.8C456,427.8,454.2,430.9,456,433.1z"/>
	<path class="st136" d="M416.8,426.2c1.3-0.5,2.2,0.4,3.2,0.8c0.3,2.1,0.7,4.1,1,6.2c-0.2,0.3-0.5,0.5-0.7,0.8
		C416.2,432.7,417.7,428.9,416.8,426.2z"/>
	<path class="st137" d="M376,433.1c-1,1.1-2-0.4-3,0c0.9-2.5-0.6-5.4,1.1-7.8c1.2,2.1-0.4,4.7,1,6.8
		C375.4,432.4,375.7,432.7,376,433.1z"/>
	<path class="st138" d="M248.9,419.2c0.1-0.9,0.2-1.8,0.2-2.7c2.4,2.3-0.3,6.3,3,8.3c-0.6,0.7-1.3,0.8-2.2,0.7
		c-0.8-0.3-1.4-0.9-1.7-1.7C247.7,422.3,247.6,420.7,248.9,419.2z"/>
	<path class="st133" d="M320.1,366c1.5,3.6,1.5,7.3,0,10.9C320.1,373.3,320.1,369.7,320.1,366z"/>
	<path class="st136" d="M409,427c1-0.5,1.9-1.3,3.2-0.8c-0.9,2.6,0.4,6.1-3.2,7.5c-0.3-0.2-0.5-0.5-0.8-0.7
		C408.4,431,408.7,429,409,427z"/>
	<path class="st92" d="M516.8,431.3c0.5-2.2,0.4-4.3-0.8-6.2c2-0.4,2,1,2.1,2.4c0.1,1.9-0.5,4,0.8,5.8c-0.4,0.3-0.7,0.6-1.1,0.9
		C516.4,433.6,516.9,432.3,516.8,431.3z"/>
	<path class="st139" d="M372.9,365c0.8-1.1,1.4,0,2.2,0c0.1,0.3,0,0.7-0.1,1c-1.2,2.1,0.3,4.6-0.9,6.8
		C372.5,370.4,374.1,367.5,372.9,365z"/>
	<path class="st140" d="M276.9,392c0,1.7,0,3.3,0,5c-0.6,0.6-1.2,0.6-1.9,0c0-1.7,0-3.3,0-5C275.7,391.4,276.3,391.4,276.9,392z"/>
	<path class="st141" d="M249.9,425c0.7,0,1.4-0.1,2.1-0.1c1.9,0.5,4.3-1,5.9,1.1c-0.2,0.2-0.4,0.4-0.6,0.5c-0.7,0.4-1.5,0.6-2.3,0.6
		C253.2,427,250.7,428.1,249.9,425z"/>
	<path class="st121" d="M259,432c0,0.7,0,1.4,0,2c-0.6,0.3-1,0.2-1.4-0.3c-0.5-0.7-0.7-1.5-0.8-2.3c-0.1-1.9-0.2-3.9,1.2-5.4
		c0,0,0,0,0,0C259.9,427.8,258.5,430.1,259,432z"/>
	<path class="st142" d="M374.1,372.8c0.5-2.2-0.8-4.7,0.9-6.8C374.8,368.3,376.3,370.8,374.1,372.8z"/>
	<path class="st142" d="M375.1,432c-1.9-2-0.5-4.5-1-6.8C376.2,427.2,374.7,429.7,375.1,432z"/>
	<path class="st137" d="M320,431c1,0.6,1,1.6,1.1,2.6c-0.1,0.3-0.1,0.7-0.2,1c-0.3,0.6-0.6,0.5-0.9,0c-0.4-0.5-0.7-1-1.1-1.5
		C319.3,432.4,319.7,431.7,320,431z"/>
	<path class="st133" d="M275.1,397c0.6,0,1.2,0,1.9,0c-0.1,1.1,1.1,3-1.2,2.9C274.3,399.8,275,398.1,275.1,397z"/>
	<path class="st133" d="M276.9,392c-0.6,0-1.2,0-1.9,0c0.1-1.1-1.1-3,1.2-2.9C277.7,389.2,277,390.9,276.9,392z"/>
	<path class="st133" d="M320.1,385c1.7,1.7,0.6,3.9,0.9,5.9C318.7,389.3,320.3,387,320.1,385z"/>
	<path class="st143" d="M320.1,434.6c0.3,0.2,0.6,0.2,0.9,0c10.9,1.3,21.8,0.4,32.7,0.6c5.8,0.1,11.6-0.1,17.4-0.2
		c10.8,0.1,21.6,0.2,32.4,0.2c1.8,0,3.6-0.3,5.5-0.4c0.6,0.1,1,0.5,1.3,1c0.1,0.4,0,0.7-0.3,1c-0.6,0-1.3,0.1-1.9,0.1
		c-10.1,0.1-20.1,0.1-30.2,0.1c-19.2,0-38.4,0-57.6,0c-20.4-0.1-40.7,0.1-61.1-0.1c-1-0.2-1.7-0.8-2.2-1.7c-0.3-1.1,0.2-1.3,1.1-1.2
		c0.3,0.1,0.6,0.1,1,0.1c1.1,1.4,2.7,1.1,4.2,1.1c17.7,0,35.3,0,53,0C317.4,435.2,318.7,434.8,320.1,434.6z"/>
	<path class="st29" d="M259.1,436.9c1.5-1.5,3.5-0.8,5.2-0.8c18.6-0.1,37.1-0.1,55.7-0.1c0.2,0.2,0.4,0.5,0.3,0.7
		c0,0.3-0.1,0.4-0.2,0.4c-1,0.6-2.2,0-3.2,0.7c-18.1,0.1-36.2,0.1-54.2,0.2C261.4,438.1,260.1,437.9,259.1,436.9z"/>
	<path class="st29" d="M320,436.9c0-0.3,0-0.6,0-0.9c19.3,0,38.7,0.1,58,0.1c0.3,0.5,0.2,0.9-0.3,1.2c-2.2,0.4-4.5-0.5-6.7,0.5
		c-15.3,0-30.7,0-46,0C323.5,436.8,321.5,438.3,320,436.9z"/>
	<path class="st144" d="M258,434c-0.4,0.4-0.7,0.8-1.1,1.2c-2.7-4.4-6.9-7.2-10.9-10.1c-0.1-0.3-0.1-0.6-0.1-0.9
		c-0.5-1.8-1-3.6-3.2-4c-0.8,0-1.5-0.1-1.8-0.9c0.1-0.8,0.1-1.6,0.2-2.3c0.4,0.1,0.7,0.1,1.1,0.2c1.8,1.1,4-0.3,5.7,0.9
		c0.2,0.2,0.4,0.4,0.4,0.8c0.9,1.6-0.2,3.6,0.8,5.2c0.3,0.3,0.7,0.7,1,1c1.6,2.2,3.9,0.9,5.8,1.2c3.2,1.1,0.8,4.2,2.2,5.9
		C258,432.7,258,433.4,258,434z"/>
	<path class="st29" d="M378,437c0-0.3,0-0.6,0-0.8c8.9,0,17.8-0.1,26.7-0.1c1.1,0,2.3-0.2,3.2,0.9c-9.9,2.5-19.9,0.9-29.9,1
		c-0.4-0.2-0.5-0.4-0.4-0.6C377.8,437.1,377.9,437,378,437z"/>
	<path class="st145" d="M409.9,436.8c0-0.3,0-0.5,0-0.8c0.3-1.1,0.9-2.1,1.6-3c0.8-1.2,1.9-2.5,3.5-2c1.7,0.5,2.8,1.7,2.5,3.6
		c-0.9,1.9-2.5-0.7-3.5,0.4c-0.3,0.3-0.6,0.7-1,1c-1,0.7-2,1.3-3,2C410,437.6,409.9,437.2,409.9,436.8z"/>
	<path class="st146" d="M314,440c-5,1.6-10,1.6-15,0C304,440,309,440,314,440z"/>
	<path class="st143" d="M320,436.9c1.7,0.4,3.6-0.5,5,1c-2.7,0-5.3,0-8,0C317.7,436.8,318.9,437,320,436.9z"/>
	<path class="st143" d="M378,437c0,0.3,0,0.6,0,0.9c-2.3,0-4.7,0-7,0C373.1,436.1,375.7,437.3,378,437z"/>
	<path class="st146" d="M272,440c-1.7,1.4-3.3,1.4-5,0C268.7,440,270.3,440,272,440z"/>
	<path class="st147" d="M420.2,434.8c1.4,2.1,3.7,1.2,5.5,1.2c24.9,0.1,49.9,0,74.8,0.1c1.9,0,4-0.8,5.6,1.1c-1.4,1.4-3,2.1-5.1,1.9
		c-13.8,1-27.5,0.5-41.3,0.3c-10.3-0.2-20.6,0.6-30.8,0.2c-3.6-0.2-7.4,0.3-10.2-2.8C418.6,435.5,418.9,434.8,420.2,434.8
		L420.2,434.8z"/>
	<path class="st148" d="M418.9,436.1c1.3,1.5,3,2,4.9,2.2c2.5,0.2,5,0.5,7.4,0.5c23.2,0.1,46.5,0.2,69.7,0.3c-0.4,0.3-0.7,0.7-1.1,1
		c-23.7,0-47.3-0.2-71,0.1c-5.8,0.1-10.8-1.1-15-5.2c1-3.3,2.1,0.6,3.1-0.1C418.2,434.5,418.6,435.3,418.9,436.1z"/>
	<path class="st149" d="M242.7,420.2c3-0.2,3.4,1.6,3.2,4C244.8,422.8,243.8,421.5,242.7,420.2z"/>
	<path class="st150" d="M191,437c-0.7,0-1.3,0-2,0c-0.6-1.3,0.6-2.1,0.9-3.2c0.3-0.6,0.5-1.2,0.8-1.7c0.4-1.4,0.2-2.9,1.1-4.2
		c0.6-21.1,0.3-42.2,0.1-63.3c-0.3-0.9-0.5-1.8,0.2-2.6c2.1,1,1.9,2.9,1.9,4.7c0,20.1,0,40.3,0,60.4C194,430.7,192.6,433.9,191,437z
		"/>
	<path class="st151" d="M192,362c0,0.7,0,1.3,0,2c0.8,1.4,0.4,2.9,0.4,4.4c0,18.7,0,37.5,0,56.2c0,1.5,0.4,3-0.4,4.4
		c-0.1,1.2,0.1,2.5-1.4,3.1c-0.9-0.5-0.6-1.4-0.8-2.2c-0.3-0.7-0.4-1.3,0.3-1.9c1.5-1.7,0.8-3.8,0.8-5.7c0.1-20.5,0.1-40.9,0.1-61.4
		C191.4,361.3,191.7,361.7,192,362z"/>
	<path class="st152" d="M189.9,433.8c-0.3,1.1-0.6,2.1-0.9,3.2c-2.8,2.4-6,3.2-9.6,3.1c-7.8-0.2-15.6-0.1-23.3-0.1c-0.3,0-0.7,0-1,0
		c-3.4,0.7-6.8,1-10.3,1c-18.3-0.1-36.5,0.3-54.8-0.5c-1,0-2,0.2-2.9-0.5c3.7-2,7.8-0.6,11.7-0.9c5.1-0.4,10.2,0.7,15.3-0.7
		c0.7-1.3,1.9-1.3,3.1-1.2c9.5,0.9,19,0.5,28.6,0.3c0.5-0.2,1.1-0.4,1.7-0.5c1.7-0.3,3.5-0.2,5.2,0.2c9.6,1,19.3,0.4,28.9,0.3
		c0.9-0.3,1.9-0.6,2.8-1c1-0.5,2.1-0.7,3-1.4C188.4,435.4,189,434.3,189.9,433.8z"/>
	<path class="st153" d="M185.1,355.7c0.1-0.2,0.3-0.5,0.5-0.6c0.5,0.6,1,1.2,1.5,1.8c0.8,1.8,0.4,3.6,0.4,5.4c0,21.4,0,42.8,0,64.3
		c0,1.8,0.4,3.7-0.4,5.4c-0.4,0.3-0.7,0.7-1.1,1c-0.2,0.4-0.5,0.4-0.7,0c0.2-1.6,0.5-3.3,0.5-4.9c0-22.3,0-44.6,0-67
		C185.8,359.3,185.8,357.5,185.1,355.7z"/>
	<path class="st66" d="M187.1,432c0-25,0-50.1,0-75.1c1.3,1.2,0.9,2.8,0.9,4.2c0,22.2,0,44.4,0,66.7
		C188,429.3,188.4,430.9,187.1,432z"/>
	<path class="st29" d="M190.1,428.1c-0.1,0.6-0.2,1.2-0.3,1.9c-1.1-1.1-0.8-2.5-0.8-3.8c0-21.1,0-42.2,0-63.3c0-1.3-0.3-2.7,0.8-3.8
		c0.1,20.5,0.1,41,0.2,61.5C190,423.1,190.1,425.6,190.1,428.1z"/>
	<path class="st129" d="M185.3,433c0.2-0.1,0.5-0.1,0.7,0c-0.1,0.6-0.2,1.2-0.3,1.9c-1.1,1.3-2.6,1.5-4.1,1.4
		c-9.3,0-18.6,0.4-28-0.2c-0.6-0.2-1.1-0.4-1.6-0.9c-0.5-1.1,0.1-1.7,0.9-2.2C163.8,434.2,174.5,434.4,185.3,433z"/>
	<path class="st154" d="M152,435.1c11.2-0.1,22.5-0.1,33.7-0.2c0.5,0.1,1,0.1,1.5,0.2c-0.2,1.2-0.9,1.9-2.1,2
		c-9.8,0.5-19.7,0.3-29.5,0.2C154.1,437.1,152.3,437.3,152,435.1z"/>
	<path class="st155" d="M521,439c14.6,0,29.3,0.1,43.9,0.1c-1.8,1.5-3.9,0.5-5.9,0.9c-10.9,0-21.9,0-32.8-0.1
		C524.4,440,522.5,440.6,521,439z"/>
	<path class="st150" d="M69,439c2.4-0.1,3.5-2.2,5-3.5c2.2-2,2.7-0.3,3,1.5c-3.7,3.8-8,5-13.1,3.1C65.7,440.1,67.5,440,69,439z"/>
	<path class="st107" d="M87,440c22.7,0,45.3,0,68,0c-1.2,1.9-3.8,0.1-5,2c0,0-0.5,0-0.5,0l-0.5,0c-3.3-0.8-6.7-0.8-10,0
		c-4.3,0-8.7,0-13,0c-5.3-0.8-10.7-0.8-16,0c-4,0-8,0-12,0c-3.5-2.1-7.4-0.4-11-1C87,440.6,87,440.3,87,440z"/>
	<path class="st105" d="M110,442c5.3-1.6,10.7-1.6,16,0C120.7,442,115.3,442,110,442z"/>
	<path class="st105" d="M139,442c3.3-1.5,6.7-1.5,10,0C145.7,442,142.3,442,139,442z"/>
	<path class="st29" d="M152,435.1c0.8,1.1,2,0.9,3,1c0.3,0.6,0.1,1-0.4,1.3c-2.5,0.8-5.2-0.9-7.6,0.5l-0.1,0.4
		c-8.9,0.4-17.8,0.1-26.7,0.2c-2.7-0.5-5.4-1.8-8.2-0.5c-9,0.1-17.9,0.1-26.9,0.2c-1.1,0-2.4,0.1-3.2-0.9c0.6-3.5,3.3-2.1,5.2-2.1
		c18.3-0.1,36.6-0.1,54.9-0.1c2,0,4,0.1,6-0.2c0.6-0.2,1.2-0.4,1.7-0.6c0.9-0.2,1.8-0.2,2.6,0.4C152,434.8,152,434.9,152,435.1z"/>
	<path class="st154" d="M150,435.1c-1.7,1.6-3.8,0.9-5.7,0.9c-19,0.1-37.9,0-56.9,0.1c-1.9,0-4-0.8-5.6,1.1
		c-0.6-0.4-1.2-0.8-1.9-1.1c0.1-0.5,0.1-1,0.2-1.4c12.9-0.3,25.9-0.1,38.8-0.2c9.3,0,18.5,0,27.8,0
		C147.9,434.5,149.1,434.1,150,435.1z"/>
	<path class="st154" d="M112,437.9c2.4-1.5,4.7-1.5,7,0c-0.5,0.6-1.2,0.5-1.9,0.4c-1.1,0-2.1,0-3.2,0
		C113.3,438.2,112.6,438.1,112,437.9z"/>
	<path class="st156" d="M104.1,364.8c-2.4-0.1-4.8,1.1-7-0.8c0.9-0.9-0.2-2.5,1.1-3.3c2.5,3.2,5.1,3.6,7.6,0
		c0.4,0.3,0.7,0.7,0.7,1.2C106.7,363.7,106,364.7,104.1,364.8z"/>
	<path class="st64" d="M98.2,360.7c-0.3,1.1,0.1,2.5-1.1,3.3c-0.2-2.7-0.5-5.4-0.7-8.1c0,0,0.3-0.2,0.3-0.2
		C99.2,356.7,97.9,358.9,98.2,360.7z"/>
	<path class="st82" d="M106.2,362.2c-0.1-0.5-0.2-1-0.4-1.5c0.2-1.9-1.1-4.4,1.9-5.4c0,0,0.2,0.3,0.2,0.3c-0.3,2.1-0.6,4.3-0.9,6.4
		C106.8,362.4,106.5,362.4,106.2,362.2z"/>
	<path class="st125" d="M107,403.9c0,6.2-0.1,12.3,0.1,18.5c0.1,2.8-0.9,3.9-3.7,3.7c-3.7-0.2-7.3-0.2-11,0
		c-2.7,0.1-3.5-0.9-3.4-3.5c0.2-3.7-0.1-7.3,0.1-11c0.1-2.4-0.5-3.7-3.3-3.6c-6.8,0.2-13.7,0.2-20.5,0c-2.8-0.1-3.4,1.1-3.3,3.6
		c0.1,3.7-0.1,7.3,0.1,11c0.1,2.5-0.7,3.4-3.4,3.5C44,426.8,44,426.9,44,412.4c0-9,0.1-18-0.1-27c-0.1-3.1,0.7-4.8,4.1-4.3
		c3.9,0.6,5.6-0.8,5-4.9c-0.6-3.4,1.1-4.6,4.2-4.1c4.2,0.7,5.3-1.4,4.8-5.1c-0.4-2.8,0.5-4.2,3.7-4.1c6.5,0.2,13,0.2,19.5,0
		c3.2-0.1,4.2,1.2,3.8,4.1c-0.5,3.6,0.4,5.9,4.7,5.1c3.7-0.7,4.8,1.3,4.3,4.6c-0.5,3.5,1,5,4.4,4.4c3.9-0.6,4.8,1.1,4.7,4.8
		C106.8,391.8,107,397.9,107,403.9z"/>
	<path class="st125" d="M178,394.7c0,9.1-0.1,18.3,0.1,27.4c0.1,3.1-1,3.9-4,4c-14.1,0.3-14.1,0.4-14.1-13.8c0-12-0.1-24,0.1-35.9
		c0.1-3.5-1-5-4.5-4.4c-3.8,0.6-4.8-1-4.7-4.7c0-3.6,1.2-4.5,4.6-4.4c6.1,0.2,12.3,0.2,18.5,0c3.4-0.1,4.2,1.1,4.1,4.3
		C177.9,376.4,178,385.5,178,394.7z"/>
	<path class="st125" d="M142,394.5c0,9-0.1,18,0.1,26.9c0.1,3.3-0.7,4.6-4.3,4.6c-13.7,0-13.7,0.2-13.7-13.6c0-12-0.1-24,0.1-35.9
		c0-3.3-0.6-5.2-4.3-4.5c-3.6,0.6-4.9-0.6-4.9-4.5c0-4,1.5-4.7,5-4.5c5.8,0.3,11.7,0.3,17.5,0c3.6-0.2,4.9,0.8,4.8,4.7
		C141.8,376.5,142,385.5,142,394.5z"/>
	<path class="st140" d="M149.8,432c0.1-16.3,0.1-32.7,0.2-49c0.6-0.6,1.2-0.6,1.9,0c0.1,16.3,0.1,32.7,0.2,49
		C151.4,432.6,150.6,432.6,149.8,432z"/>
	<path class="st133" d="M115.2,433c0-17.5,0-35.1,0-52.6c0.3,0,0.5,0,0.8,0c0,17.6,0,35.1,0,52.7l-0.4,0.3L115.2,433z"/>
	<path class="st73" d="M115.2,433c0.3-0.1,0.5-0.1,0.8,0c1,0.3,2,0.7,3.1,1c0.3,0.2,0.4,0.5,0.3,0.7c-0.1,0.2-0.2,0.3-0.3,0.3
		c-12.9,0-25.9,0.9-38.8-0.4c0-0.2,0.1-0.5,0.2-0.7c0.4-0.5,0.9-0.8,1.5-0.7C93,434.1,104.1,434.5,115.2,433z"/>
	<path class="st129" d="M119,435c0-0.3,0-0.7,0-1c8.1-0.1,16.2-0.1,24.3-0.2c2,0,4,0.1,5.8-0.8c1.6-0.2,1.5,0.6,0.8,1.6
		c0,0,0.1,0.4,0.1,0.4C139.7,435.1,129.3,435,119,435z"/>
	<path class="st114" d="M81.9,433.2c-0.5,0.2-1,0.5-1.5,0.7c-0.2-0.3-0.4-0.6-0.5-1c-0.8-4.6-0.2-9.2-0.4-13.8
		c0-0.9-0.2-1.9,0.5-2.6c2.3,2.5,0.7,5.6,1.1,8.4C81.5,427.7,80.7,430.6,81.9,433.2z"/>
	<path class="st157" d="M80.1,416.6c-0.1,0.9-0.1,1.7-0.2,2.6c-0.4,0.2-0.7,0-0.8-0.4c-2.4-2.4-4.9-2.4-7.3,0
		c-0.1,0.5-0.3,0.6-0.8,0.4c0-1.1,0-2.2-0.1-3.2C74,416.1,77.2,415,80.1,416.6z"/>
	<path class="st158" d="M149.9,434.7c0.1-0.7-0.1-1.3-0.8-1.6c0.3-0.3,0.5-0.7,0.8-1c0.8,0,1.5,0,2.3,0c0.3,0.4,0.6,0.7,0.8,1.1
		c-0.3,0.5-0.6,1-0.8,1.5C151.4,434.7,150.7,434.7,149.9,434.7z"/>
	<path class="st133" d="M107,365c0,2.6,0,5.2,0,8.8c-1.7-3.2-0.8-5.5-1.1-7.7C105.6,365.2,106,364.8,107,365z"/>
	<path class="st159" d="M107,365c-0.4,0.4-0.8,0.8-1.1,1.2c-0.6-0.5-1.2-0.9-1.8-1.4c0.7-0.8,2-1.2,2.1-2.6c0.3-0.1,0.5-0.2,0.8-0.2
		C107,363,107,364,107,365z"/>
	<path class="st133" d="M151.9,383c-0.6,0-1.2,0-1.9,0c0.1-1.1-1.1-3,1.2-2.9C152.7,380.2,152,381.9,151.9,383z"/>
	<path class="st160" d="M76.9,431c0.4,1,1.1,1.9,0.8,3.1c-1.6-2.1-3.2-1.4-4.8-0.1c0.4-1,0.7-2,1.1-3c1.1-1.1-0.3-3,1.3-4.1
		C77.4,427.7,75.8,429.9,76.9,431z"/>
	<path class="st161" d="M76.9,431c-1.2-0.7-0.7-2.1-1.3-3.1c-0.5,1.1-1,2.1-1.5,3.1c0.2-2.4-0.5-5,1.4-7.4
		C77.6,425.9,76.7,428.5,76.9,431z"/>
	<path class="st162" d="M79.1,418.7c0.3,0.1,0.5,0.3,0.8,0.4c0,4.6,0,9.2,0,13.8C78,428.3,79.3,423.5,79.1,418.7z"/>
	<path class="st163" d="M71.1,419.2c0.2-0.2,0.5-0.3,0.8-0.4c-0.3,4.7,1.6,9.6-1.1,14.2C71.5,428.4,71.2,423.8,71.1,419.2z"/>
	<path class="st149" d="M247.8,418c-1.9-0.3-4,0.7-5.7-0.9C243.9,417.4,246.1,416.4,247.8,418z"/>
	<path class="st149" d="M248.9,424c-1.5-1.5-0.8-3.4-0.8-5.2c0.3,0.1,0.5,0.3,0.7,0.5C248.9,420.8,248.9,422.4,248.9,424z"/>
	<path class="st93" d="M480.6,399c-8.6,0-8.6,0-8.6-8.7c0-9.3,0-9.3,9.4-9.3c8.6,0,8.6,0,8.6,8.7C490,399,490,399,480.6,399z"/>
	<path class="st93" d="M339,407.5c0-8.5,0-8.5,8.7-8.5c9.3,0,9.3,0,9.3,9.5c0,8.5,0,8.5-8.7,8.5C339,417,339,417,339,407.5z"/>
	<path class="st164" d="M418.9,436.1c-0.6-0.4-1.3-0.8-1.9-1.2c-1.1-3.4-2.6-4.9-5-0.9c-0.5,0.9-1.1,1.7-2.2,1.9
		c-0.3-0.4-0.6-0.8-1-1.2c0-0.4,0-0.7,0.1-1.1c2.5-1.9,0.1-5.9,3.2-7.5c1.5,0,3.1,0,4.6,0c3.2,1.7,0.6,6,3.5,7.8
		c-0.1,0.3-0.1,0.6-0.1,0.8C419.8,435.2,419.4,435.7,418.9,436.1z"/>
	<path class="st165" d="M257.9,432.1c-1.4-1.7-0.1-4.4-2.2-5.9c0.8-0.1,1.5-0.1,2.3-0.2C258,428.1,257.9,430.1,257.9,432.1z"/>
	<path class="st166" d="M192,429c0-21.7,0-43.3,0-65c1.4,1.1,1,2.7,1,4.2c0,18.9,0,37.8,0,56.6C193,426.3,193.4,427.8,192,429z"/>
	<path class="st29" d="M155,437c0-0.3,0-0.6,0-0.8c8.8,0,17.6-0.1,26.4-0.1c1.3,0,2.7-0.2,3.6,1.1c-0.4,1-1.4,0.9-2.2,1.2
		c-9.1,0.3-18.2,0.1-27.3,0.1C154.8,438.2,154.7,437.7,155,437z"/>
	<path class="st108" d="M155,437.9c9.3,0.1,18.5,0.3,27.8,0.4c-10.3,1-20.5,1.5-30.8-0.3C153,437.3,154,437.4,155,437.9z"/>
	<path class="st108" d="M117.2,438.3c0.6-0.1,1.2-0.2,1.9-0.4c9.3,0.1,18.6,0.2,27.9,0.3C137,439.5,127.1,439.5,117.2,438.3z"/>
	<path class="st154" d="M155,437.9c-1,0.1-2,0.1-3,0.2c-1.7,0-3.4-0.1-5.1-0.1c2.5-1.9,5.4-0.6,8-0.9C155,437.3,155,437.6,155,437.9
		z"/>
	<path class="st93" d="M76,399c-1.1,0-1.4,0-1.8,0c-3.9-0.4-9.6,1.9-11.3-0.9c-2.5-4.1-0.7-10-0.8-15.1c0-2.7,2.3-2.1,3.7-1.9
		c4.1,0.5,6-0.9,5.2-5.1c-0.6-3.5,1.3-4,4.3-4c3.1,0,5.3,0.3,4.7,4.2c-0.6,3.9,0.9,5.6,4.8,4.9c3.2-0.5,4.5,0.8,4.2,4.1
		c-0.4,4.4,1.8,10.1-0.9,13C85.3,400.9,79.6,398.6,76,399z"/>
	<path class="st167" d="M80.6,391.2c-2.9,0-5.8,0-8.8,0c-0.8,0-1.8,0-1.7-1.2c0-0.3,0.6-1,0.8-0.9C74.2,389.2,77.7,387.8,80.6,391.2
		z"/>
</g>
</svg>
