<svg xmlns="http://www.w3.org/2000/svg" viewBox="0 0 1809 255">
  <title>logo</title>
  <g style="isolation: isolate">
    <g>
      <g opacity="0.3" style="mix-blend-mode: multiply">
        <path d="M119.75,552.06v-105H52.25v105h-55v-195h35v-35h107.5v35h35v195Zm0-160v-15H52.25v15Z" transform="translate(18.75 -306.06)" stroke="#000" stroke-miterlimit="10" stroke-width="18"/>
        <polygon points="219 246 219 16 274 16 274 191 396.5 191 396.5 246 219 246" stroke="#000" stroke-miterlimit="10" stroke-width="18"/>
        <polygon points="422 246 422 16 477 16 477 191 599.5 191 599.5 246 422 246" stroke="#000" stroke-miterlimit="10" stroke-width="18"/>
        <polygon points="775.5 246 775.5 211 740.5 211 740.5 51 775.5 51 775.5 16 953 16 953 71 795.5 71 795.5 191 898 191 898 141 863 141 863 86 953 86 953 211 918 211 918 246 775.5 246" stroke="#000" stroke-miterlimit="10" stroke-width="18"/>
        <path d="M1082.25,552.06v-105h-67.5v105h-55v-195h35v-35h107.5v35h35v195Zm0-160v-15h-67.5v15Z" transform="translate(18.75 -306.06)" stroke="#000" stroke-miterlimit="10" stroke-width="18"/>
        <polygon points="1321.5 246 1321.5 106 1306.5 106 1306.5 141 1251.5 141 1251.5 106 1236.5 106 1236.5 246 1181.5 246 1181.5 16 1236.5 16 1236.5 51 1271.5 51 1271.5 86 1286.5 86 1286.5 51 1321.5 51 1321.5 16 1376.5 16 1376.5 246 1321.5 246" stroke="#000" stroke-miterlimit="10" stroke-width="18"/>
        <polygon points="1402 246 1402 16 1597 16 1597 71 1457 71 1457 86 1509.5 86 1509.5 141 1457 141 1457 191 1597 191 1597 246 1402 246" stroke="#000" stroke-miterlimit="10" stroke-width="18"/>
        <polygon points="1622.5 246 1622.5 191 1745 191 1745 141 1657.5 141 1657.5 106 1622.5 106 1622.5 51 1657.5 51 1657.5 16 1800 16 1800 71 1677.5 71 1677.5 86 1765 86 1765 121 1800 121 1800 211 1765 211 1765 246 1622.5 246" stroke="#000" stroke-miterlimit="10" stroke-width="18"/>
      </g>
      <g>
        <path d="M112.75,545.06v-105H45.25v105h-55v-195h35v-35h107.5v35h35v195Zm0-160v-15H45.25v15Z" transform="translate(18.75 -306.06)" fill="#fff" stroke="#ce2929" stroke-miterlimit="10" stroke-width="18"/>
        <polygon points="212 239 212 9 267 9 267 184 389.5 184 389.5 239 212 239" fill="#fff" stroke="#ce2929" stroke-miterlimit="10" stroke-width="18"/>
        <polygon points="415 239 415 9 470 9 470 184 592.5 184 592.5 239 415 239" fill="#fff" stroke="#ce2929" stroke-miterlimit="10" stroke-width="18"/>
        <polygon points="768.5 239 768.5 204 733.5 204 733.5 44 768.5 44 768.5 9 946 9 946 64 788.5 64 788.5 184 891 184 891 134 856 134 856 79 946 79 946 204 911 204 911 239 768.5 239" fill="#fff" stroke="#ce2929" stroke-miterlimit="10" stroke-width="18"/>
        <path d="M1075.25,545.06v-105h-67.5v105h-55v-195h35v-35h107.5v35h35v195Zm0-160v-15h-67.5v15Z" transform="translate(18.75 -306.06)" fill="#fff" stroke="#ce2929" stroke-miterlimit="10" stroke-width="18"/>
        <polygon points="1314.5 239 1314.5 99 1299.5 99 1299.5 134 1244.5 134 1244.5 99 1229.5 99 1229.5 239 1174.5 239 1174.5 9 1229.5 9 1229.5 44 1264.5 44 1264.5 79 1279.5 79 1279.5 44 1314.5 44 1314.5 9 1369.5 9 1369.5 239 1314.5 239" fill="#fff" stroke="#ce2929" stroke-miterlimit="10" stroke-width="18"/>
        <polygon points="1395 239 1395 9 1590 9 1590 64 1450 64 1450 79 1502.5 79 1502.5 134 1450 134 1450 184 1590 184 1590 239 1395 239" fill="#fff" stroke="#ce2929" stroke-miterlimit="10" stroke-width="18"/>
        <polygon points="1615.5 239 1615.5 184 1738 184 1738 134 1650.5 134 1650.5 99 1615.5 99 1615.5 44 1650.5 44 1650.5 9 1793 9 1793 64 1670.5 64 1670.5 79 1758 79 1758 114 1793 114 1793 204 1758 204 1758 239 1615.5 239" fill="#fff" stroke="#ce2929" stroke-miterlimit="10" stroke-width="18"/>
      </g>
    </g>
  </g>
</svg>
