<?xml version="1.0" encoding="utf-8"?>
<!-- Generator: Adobe Illustrator 21.1.0, SVG Export Plug-In . SVG Version: 6.00 Build 0)  -->
<svg version="1.1" id="Layer_1" xmlns="http://www.w3.org/2000/svg" xmlns:xlink="http://www.w3.org/1999/xlink" x="0px" y="0px"
	 viewBox="0 0 827 216" style="enable-background:new 0 0 827 216;" xml:space="preserve">
<style type="text/css">
	.st0{fill:#FFFFFF;}
</style>
<path d="M77,17c15.1,7.2,30.2,14.6,45.4,21.6c3.1,1.4,4,3,3.9,6.3c-1.8,43.1-3.4,86.1-4.9,129.2c-0.1,3.2-1.6,4.1-4.1,5.1
	c-18.9,7.8-37.7,15.7-56.5,23.6c-1.3,0.5-2.4,1.5-3.6,2.2c-0.7,0-1.3,0-2,0c-10.3-8.9-20.5-17.8-30.8-26.7
	c-4.2-3.6-5.6-7.5-2.1-11.5c6.5-7.5,7.2-15.9,6.1-25c-0.5-4.1-0.7-8.3-0.3-12.4c0.9-10-2.3-17.7-11-22.9c-0.3-0.2-0.6-0.3-0.8-0.5
	c0-2.3,0-4.7,0-7c2.4-0.6,4.8-1.6,7.2-1.8c11-0.9,15.8-6.7,16.6-17.6c0.8-9.5,3.4-18.8,5.2-28.2c-3.3-1.5-6.3-2.6-9-4.1
	c-1.1-0.6-2.5-2-2.5-3.1c-0.2-5.9-0.1-11.9-0.1-17.9c2.2-0.5,4-0.9,5.7-1.3C51.1,22.3,63,19.6,75,17C75.7,17,76.3,17,77,17z
	 M58.1,198.9c0.4,0.3,0.8,0.7,1.2,1c17.8-7,35.5-14.2,53.3-20.9c4.3-1.6,6-3.8,6.2-8.5c1.4-41.9,3.1-83.9,4.6-125.8
	c0.1-1.5-1.6-3.9-3.1-4.6c-13.4-6.2-27-12.2-40.5-18.2c-0.6-0.3-1.4-0.4-2.6-0.7c0,3.5,0.5,6.6-0.1,9.5c-1.7,8.9,1.3,14.6,10.4,16.5
	c3.3,0.7,3.9,2.7,3.2,5.9c-3.7,16.4-7.1,32.9-10.9,49.2c-0.4,1.7-2.2,3.7-3.8,4.4c-5.2,2.1-10.7,3.6-16.1,5.4c-3.8,1.3-5,4.9-2.4,8
	c1.6,1.9,3.4,3.7,5.3,5.2c3.7,2.8,4.8,6.3,4.8,10.8c0.1,11,0.3,22,1.3,32.9c0.8,8.8-1,16.3-6.9,23C60.5,194,59.5,196.6,58.1,198.9z
	 M83.2,54c-11,0-21.4,0-32.2,0c-2.1,11.7-4.2,23.2-6.4,35.2c10.3,2.5,20,4.9,30.3,7.4C77.6,82.3,80.3,68.5,83.2,54z"/>
<path d="M816,164c-29.3,0-58.6,0-88.2,0c0-35,0-69.5,0-104.4c28.9,0,57.8,0,87.1,0c0,4,0,7.8,0,12.3c-24.2,0-48.5,0-73,0
	c0,10.9,0,21.3,0,32c14.3,0,28.4,0,42.8,0c0,4.3,0,8.2,0,12.7c-14.3,0-28.5,0-43,0c0,11.7,0,22.8,0,34.2c1.1,0.2,2.2,0.4,3.3,0.4
	c22.8,0,45.6,0,68.5,0c0.8,0,1.6-0.2,2.5-0.3C816,155.3,816,159.7,816,164z"/>
<path d="M287.9,121.7c0,14.3,0,27.9,0,41.9c-4.7,0-9.1,0-13.8,0c0-34.6,0-69.1,0-104.1c1.5-0.1,3-0.3,4.4-0.3c22.6,0,45.3,0,67.9,0
	c1.5,0,3,0.1,4.5,0.3c10.8,1.4,15.4,5.1,16.4,15.9c1,10.4,0.9,21,0.4,31.4c-0.3,7.3-5.4,11.9-12.4,13.1c-7.8,1.3-15.8,1.7-24.6,2.5
	c13.4,13.6,26.7,27.1,41,41.5c-6.7,0-12.4,0.2-18.1-0.1c-1.4-0.1-2.8-1.6-3.9-2.7c-12-12-23.8-24.2-36-36.1
	c-1.9-1.8-5.1-2.9-7.7-3.2C300.2,121.4,294.4,121.7,287.9,121.7z M288,109c5.6,0,10.7,0,15.8,0c13.3,0,26.6,0.1,39.9-0.1
	c7.7-0.1,10.6-3,10.9-10.6c0.2-6-0.3-12-0.3-17.9c0-5.2-2.9-7.5-7.6-8.1c-1.6-0.2-3.3-0.3-5-0.3c-16.6,0-33.3,0-49.9,0
	c-1.3,0-2.5,0.2-3.8,0.4C288,84.6,288,96.4,288,109z"/>
<path d="M611.8,59.1c3.8,0,7.4-0.1,11,0c18,0.5,36,0,53.8,1.9c24.1,2.6,36.1,14.9,38.6,38.9c1.1,10.4,0.4,21.4-1.8,31.7
	c-3.9,18.6-17.3,29.8-38.5,31.1c-20.9,1.2-41.9,0.3-63.3,0.3C611.8,129.2,611.8,94.6,611.8,59.1z M625.7,151.9
	c16.8-0.6,33.1-0.4,49.3-2.1c15.2-1.5,23.2-9.4,25.3-24.5c1.3-9.2,0.9-18.9-0.4-28.2c-1.8-12.3-9.7-20-22.2-22.7
	c-17.1-3.7-34.4-2.1-52-2.5C625.7,98.5,625.7,124.5,625.7,151.9z"/>
<path d="M477.8,92.7c-4.8,0-9,0-13.7,0c0-6.8,0-13.4,0-20.4c-22.4,0-44.5,0-66.8,0c0,26,0,52.1,0,78.5c22,0,44,0,66.6,0
	c0-6.4,0-12.8,0-19.5c4.8,0,9,0,13.6,0c0,8.1,0.5,16.2-0.2,24.2c-0.5,5.6-5.2,8.3-12.4,8.3c-12.7,0.1-25.3,0-38,0
	c-10.3,0-20.7,0.1-31,0c-9.9-0.1-12.9-3.1-13-12.8c0-26.3,0-52.6,0-78.9c0-9.5,2.9-12.8,12.5-12.9c23.3-0.2,46.6-0.2,69.9,0
	c9.2,0.1,11.9,3,12.4,12C478,78.3,477.8,85.2,477.8,92.7z"/>
<path d="M148.1,164c2.8-5.5,5.2-10.2,7.6-14.9c14.5-28.4,29-56.9,43.4-85.4c1.8-3.5,3.8-4.6,7.7-4.7c4-0.1,5.5,1.8,7,4.8
	c16,31.6,32.1,63.2,48.1,94.7c0.8,1.6,1.5,3.2,2.4,5.4c-4.7,0-8.9,0.3-12.9-0.1c-1.4-0.1-3-1.7-3.8-3.1c-3.6-6.5-7.1-13.2-10.4-19.9
	c-1.3-2.6-2.7-3.7-5.7-3.6c-16.8,0.1-33.7,0.2-50.5,0c-3,0-4.5,1.1-5.7,3.6c-3.2,6.4-6.8,12.6-9.8,19.1c-1.5,3.2-3.4,4.5-6.9,4.1
	C155.5,163.7,152.3,164,148.1,164z M183.7,124.5c15.5,0,30,0,45.3,0c-7.6-15.2-15-29.8-22.7-45.3
	C198.5,94.7,191.2,109.4,183.7,124.5z"/>
<path d="M601.8,163.5c-0.8,0.2-1.1,0.4-1.4,0.4c-13.4,0.7-13.4,0.7-19.5-11.1c-2.1-4-4.3-7.9-6.1-12c-1.3-2.9-3.2-3.6-6.2-3.6
	c-16.5,0.1-33,0.2-49.5,0c-3.3,0-5,1-6.5,4c-3.1,6.5-6.7,12.6-9.8,19.1c-1.3,2.7-3,4-6.1,3.7c-3.4-0.3-6.9-0.1-10.9-0.1
	c0.9-2,1.5-3.5,2.2-4.9c16.2-31.8,32.5-63.6,48.6-95.5c1.7-3.3,3.5-4.5,7.2-4.5c3.7,0,5.5,1.2,7.2,4.5c16.1,32.1,32.5,64,48.7,96
	C600.5,160.7,601.1,161.9,601.8,163.5z M543.9,79.2c-7.8,15.6-15,30.2-22.5,45.3c15.4,0,29.9,0,45.1,0
	C558.9,109.2,551.6,94.6,543.9,79.2z"/>
<path class="st0" d="M58.1,198.9c1.3-2.3,2.3-5,4.1-6.9c5.9-6.6,7.7-14.1,6.9-23c-1-10.9-1.1-22-1.3-32.9c-0.1-4.5-1.2-8-4.8-10.8
	c-2-1.5-3.8-3.3-5.3-5.2c-2.6-3.1-1.5-6.7,2.4-8c5.4-1.8,10.8-3.3,16.1-5.4c1.6-0.7,3.4-2.7,3.8-4.4c3.8-16.4,7.2-32.8,10.9-49.2
	c0.7-3.2,0.1-5.2-3.2-5.9c-9.2-1.9-12.1-7.6-10.4-16.5c0.5-2.9,0.1-6,0.1-9.5c1.2,0.3,2,0.4,2.6,0.7c13.5,6,27.1,12,40.5,18.2
	c1.5,0.7,3.1,3.1,3.1,4.6c-1.4,41.9-3.1,83.9-4.6,125.8c-0.2,4.7-1.9,6.9-6.2,8.5c-17.9,6.8-35.6,13.9-53.3,20.9
	C58.9,199.6,58.5,199.3,58.1,198.9z"/>
<path class="st0" d="M83.2,54c-2.8,14.4-5.5,28.2-8.3,42.5c-10.3-2.5-20-4.9-30.3-7.4c2.2-11.9,4.3-23.5,6.4-35.2
	C61.7,54,72.1,54,83.2,54z"/>
<path class="st0" d="M288,109c0-12.6,0-24.4,0-36.6c1.3-0.1,2.6-0.4,3.8-0.4c16.6,0,33.3,0,49.9,0c1.7,0,3.3,0.1,5,0.3
	c4.7,0.6,7.6,2.9,7.6,8.1c0,6,0.5,12,0.3,17.9c-0.2,7.6-3.1,10.4-10.9,10.6c-13.3,0.2-26.6,0.1-39.9,0.1
	C298.7,109,293.5,109,288,109z"/>
<path class="st0" d="M625.7,151.9c0-27.4,0-53.4,0-80c17.5,0.4,34.8-1.1,52,2.5c12.5,2.7,20.4,10.4,22.2,22.7
	c1.4,9.2,1.7,19,0.4,28.2c-2.1,15.1-10.1,23-25.3,24.5C658.8,151.4,642.5,151.3,625.7,151.9z"/>
<path class="st0" d="M183.7,124.5c7.5-15.1,14.8-29.7,22.6-45.3c7.7,15.4,15.1,30.1,22.7,45.3C213.7,124.5,199.1,124.5,183.7,124.5z
	"/>
<path class="st0" d="M543.9,79.2c7.8,15.5,15.1,30.1,22.7,45.3c-15.2,0-29.7,0-45.1,0C528.8,109.4,536.1,94.8,543.9,79.2z"/>
</svg>
